<?xml version="1.0" encoding="UTF-8"?>
<svg id="my-svg" width="100%" xmlns="http://www.w3.org/2000/svg" xmlns:xlink="http://www.w3.org/1999/xlink" class="classDiagram" style="max-width: 515.188px; background-color: white;" viewBox="0 0 515.1875 234" role="graphics-document document" aria-roledescription="class"><style>#my-svg{font-family:"trebuchet ms",verdana,arial,sans-serif;font-size:16px;fill:#333;}@keyframes edge-animation-frame{from{stroke-dashoffset:0;}}@keyframes dash{to{stroke-dashoffset:0;}}#my-svg .edge-animation-slow{stroke-dasharray:9,5!important;stroke-dashoffset:900;animation:dash 50s linear infinite;stroke-linecap:round;}#my-svg .edge-animation-fast{stroke-dasharray:9,5!important;stroke-dashoffset:900;animation:dash 20s linear infinite;stroke-linecap:round;}#my-svg .error-icon{fill:#552222;}#my-svg .error-text{fill:#552222;stroke:#552222;}#my-svg .edge-thickness-normal{stroke-width:1px;}#my-svg .edge-thickness-thick{stroke-width:3.5px;}#my-svg .edge-pattern-solid{stroke-dasharray:0;}#my-svg .edge-thickness-invisible{stroke-width:0;fill:none;}#my-svg .edge-pattern-dashed{stroke-dasharray:3;}#my-svg .edge-pattern-dotted{stroke-dasharray:2;}#my-svg .marker{fill:#333333;stroke:#333333;}#my-svg .marker.cross{stroke:#333333;}#my-svg svg{font-family:"trebuchet ms",verdana,arial,sans-serif;font-size:16px;}#my-svg p{margin:0;}#my-svg g.classGroup text{fill:#9370DB;stroke:none;font-family:"trebuchet ms",verdana,arial,sans-serif;font-size:10px;}#my-svg g.classGroup text .title{font-weight:bolder;}#my-svg .nodeLabel,#my-svg .edgeLabel{color:#131300;}#my-svg .edgeLabel .label rect{fill:#ECECFF;}#my-svg .label text{fill:#131300;}#my-svg .labelBkg{background:#ECECFF;}#my-svg .edgeLabel .label span{background:#ECECFF;}#my-svg .classTitle{font-weight:bolder;}#my-svg .node rect,#my-svg .node circle,#my-svg .node ellipse,#my-svg .node polygon,#my-svg .node path{fill:#ECECFF;stroke:#9370DB;stroke-width:1px;}#my-svg .divider{stroke:#9370DB;stroke-width:1;}#my-svg g.clickable{cursor:pointer;}#my-svg g.classGroup rect{fill:#ECECFF;stroke:#9370DB;}#my-svg g.classGroup line{stroke:#9370DB;stroke-width:1;}#my-svg .classLabel .box{stroke:none;stroke-width:0;fill:#ECECFF;opacity:0.5;}#my-svg .classLabel .label{fill:#9370DB;font-size:10px;}#my-svg .relation{stroke:#333333;stroke-width:1;fill:none;}#my-svg .dashed-line{stroke-dasharray:3;}#my-svg .dotted-line{stroke-dasharray:1 2;}#my-svg #compositionStart,#my-svg .composition{fill:#333333!important;stroke:#333333!important;stroke-width:1;}#my-svg #compositionEnd,#my-svg .composition{fill:#333333!important;stroke:#333333!important;stroke-width:1;}#my-svg #dependencyStart,#my-svg .dependency{fill:#333333!important;stroke:#333333!important;stroke-width:1;}#my-svg #dependencyStart,#my-svg .dependency{fill:#333333!important;stroke:#333333!important;stroke-width:1;}#my-svg #extensionStart,#my-svg .extension{fill:transparent!important;stroke:#333333!important;stroke-width:1;}#my-svg #extensionEnd,#my-svg .extension{fill:transparent!important;stroke:#333333!important;stroke-width:1;}#my-svg #aggregationStart,#my-svg .aggregation{fill:transparent!important;stroke:#333333!important;stroke-width:1;}#my-svg #aggregationEnd,#my-svg .aggregation{fill:transparent!important;stroke:#333333!important;stroke-width:1;}#my-svg #lollipopStart,#my-svg .lollipop{fill:#ECECFF!important;stroke:#333333!important;stroke-width:1;}#my-svg #lollipopEnd,#my-svg .lollipop{fill:#ECECFF!important;stroke:#333333!important;stroke-width:1;}#my-svg .edgeTerminals{font-size:11px;line-height:initial;}#my-svg .classTitleText{text-anchor:middle;font-size:18px;fill:#333;}#my-svg .label-icon{display:inline-block;height:1em;overflow:visible;vertical-align:-0.125em;}#my-svg .node .label-icon path{fill:currentColor;stroke:revert;stroke-width:revert;}#my-svg :root{--mermaid-font-family:"trebuchet ms",verdana,arial,sans-serif;}</style><g><defs><marker id="my-svg_class-aggregationStart" class="marker aggregation class" refX="18" refY="7" markerWidth="190" markerHeight="240" orient="auto"><path d="M 18,7 L9,13 L1,7 L9,1 Z"/></marker></defs><defs><marker id="my-svg_class-aggregationEnd" class="marker aggregation class" refX="1" refY="7" markerWidth="20" markerHeight="28" orient="auto"><path d="M 18,7 L9,13 L1,7 L9,1 Z"/></marker></defs><defs><marker id="my-svg_class-extensionStart" class="marker extension class" refX="18" refY="7" markerWidth="190" markerHeight="240" orient="auto"><path d="M 1,7 L18,13 V 1 Z"/></marker></defs><defs><marker id="my-svg_class-extensionEnd" class="marker extension class" refX="1" refY="7" markerWidth="20" markerHeight="28" orient="auto"><path d="M 1,1 V 13 L18,7 Z"/></marker></defs><defs><marker id="my-svg_class-compositionStart" class="marker composition class" refX="18" refY="7" markerWidth="190" markerHeight="240" orient="auto"><path d="M 18,7 L9,13 L1,7 L9,1 Z"/></marker></defs><defs><marker id="my-svg_class-compositionEnd" class="marker composition class" refX="1" refY="7" markerWidth="20" markerHeight="28" orient="auto"><path d="M 18,7 L9,13 L1,7 L9,1 Z"/></marker></defs><defs><marker id="my-svg_class-dependencyStart" class="marker dependency class" refX="6" refY="7" markerWidth="190" markerHeight="240" orient="auto"><path d="M 5,7 L9,13 L1,7 L9,1 Z"/></marker></defs><defs><marker id="my-svg_class-dependencyEnd" class="marker dependency class" refX="13" refY="7" markerWidth="20" markerHeight="28" orient="auto"><path d="M 18,7 L9,13 L14,7 L9,1 Z"/></marker></defs><defs><marker id="my-svg_class-lollipopStart" class="marker lollipop class" refX="13" refY="7" markerWidth="190" markerHeight="240" orient="auto"><circle stroke="black" fill="transparent" cx="7" cy="7" r="6"/></marker></defs><defs><marker id="my-svg_class-lollipopEnd" class="marker lollipop class" refX="1" refY="7" markerWidth="190" markerHeight="240" orient="auto"><circle stroke="black" fill="transparent" cx="7" cy="7" r="6"/></marker></defs><g class="root"><g class="clusters"/><g class="edgePaths"><path d="M186.906,70.141L165.016,77.951C143.125,85.76,99.344,101.38,77.453,112.357C55.563,123.333,55.563,129.667,55.563,132.833L55.563,136" id="id_AtomsState_CoreHole_1" class="edge-thickness-normal edge-pattern-solid relation" style=";;;" data-edge="true" data-et="edge" data-id="id_AtomsState_CoreHole_1" data-points="W3sieCI6MTg2LjkwNjI1LCJ5Ijo3MC4xNDA2OTM5MDEzMjI5fSx7IngiOjU1LjU2MjUsInkiOjExN30seyJ4Ijo1NS41NjI1LCJ5IjoxNDJ9XQ==" marker-end="url(#my-svg_class-dependencyEnd)"/><path d="M243.359,92L243.359,96.167C243.359,100.333,243.359,108.667,243.359,116C243.359,123.333,243.359,129.667,243.359,132.833L243.359,136" id="id_AtomsState_HubbardInteractions_2" class="edge-thickness-normal edge-pattern-solid relation" style=";;;" data-edge="true" data-et="edge" data-id="id_AtomsState_HubbardInteractions_2" data-points="W3sieCI6MjQzLjM1OTM3NSwieSI6OTJ9LHsieCI6MjQzLjM1OTM3NSwieSI6MTE3fSx7IngiOjI0My4zNTkzNzUsInkiOjE0Mn1d" marker-end="url(#my-svg_class-dependencyEnd)"/><path d="M299.813,68.722L324.076,76.768C348.339,84.814,396.865,100.907,421.128,112.12C445.391,123.333,445.391,129.667,445.391,132.833L445.391,136" id="id_AtomsState_OrbitalsState_3" class="edge-thickness-normal edge-pattern-solid relation" style=";;;" data-edge="true" data-et="edge" data-id="id_AtomsState_OrbitalsState_3" data-points="W3sieCI6Mjk5LjgxMjUsInkiOjY4LjcyMTY1NTA2NTczODU5fSx7IngiOjQ0NS4zOTA2MjUsInkiOjExN30seyJ4Ijo0NDUuMzkwNjI1LCJ5IjoxNDJ9XQ==" marker-end="url(#my-svg_class-dependencyEnd)"/></g><g class="edgeLabels"><g class="edgeLabel"><g class="label" data-id="id_AtomsState_CoreHole_1" transform="translate(0, 0)"><foreignObject width="0" height="0"><div xmlns="http://www.w3.org/1999/xhtml" class="labelBkg" style="display: table-cell; white-space: nowrap; line-height: 1.5; max-width: 200px; text-align: center;"><span class="edgeLabel"></span></div></foreignObject></g></g><g class="edgeLabel"><g class="label" data-id="id_AtomsState_HubbardInteractions_2" transform="translate(0, 0)"><foreignObject width="0" height="0"><div xmlns="http://www.w3.org/1999/xhtml" class="labelBkg" style="display: table-cell; white-space: nowrap; line-height: 1.5; max-width: 200px; text-align: center;"><span class="edgeLabel"></span></div></foreignObject></g></g><g class="edgeLabel"><g class="label" data-id="id_AtomsState_OrbitalsState_3" transform="translate(0, 0)"><foreignObject width="0" height="0"><div xmlns="http://www.w3.org/1999/xhtml" class="labelBkg" style="display: table-cell; white-space: nowrap; line-height: 1.5; max-width: 200px; text-align: center;"><span class="edgeLabel"></span></div></foreignObject></g></g></g><g class="nodes"><g class="node default" id="classId-AtomsState-0" transform="translate(243.359375, 50)"><g class="basic label-container"><path d="M-56.453125 -42 L56.453125 -42 L56.453125 42 L-56.453125 42" stroke="none" stroke-width="0" fill="#ECECFF" style=""/><path d="M-56.453125 -42 C-15.817019696535766 -42, 24.819085606928468 -42, 56.453125 -42 M-56.453125 -42 C-22.74501178952614 -42, 10.963101420947723 -42, 56.453125 -42 M56.453125 -42 C56.453125 -8.423765902754084, 56.453125 25.15246819449183, 56.453125 42 M56.453125 -42 C56.453125 -16.25130111993315, 56.453125 9.497397760133701, 56.453125 42 M56.453125 42 C12.730192314754753 42, -30.992740370490495 42, -56.453125 42 M56.453125 42 C22.294832883845935 42, -11.86345923230813 42, -56.453125 42 M-56.453125 42 C-56.453125 12.172540916028051, -56.453125 -17.654918167943897, -56.453125 -42 M-56.453125 42 C-56.453125 8.488266995536591, -56.453125 -25.023466008926817, -56.453125 -42" stroke="#9370DB" stroke-width="1.3" fill="none" stroke-dasharray="0 0" style=""/></g><g class="annotation-group text" transform="translate(0, -18)"/><g class="label-group text" transform="translate(-44.453125, -18)"><g class="label" style="font-weight: bolder" transform="translate(0,-12)"><foreignObject width="88.90625" height="24"><div xmlns="http://www.w3.org/1999/xhtml" style="display: table-cell; white-space: nowrap; line-height: 1.5; max-width: 125px; text-align: center;"><span class="nodeLabel markdown-node-label" style=""><p>AtomsState</p></span></div></foreignObject></g></g><g class="members-group text" transform="translate(-44.453125, 30)"/><g class="methods-group text" transform="translate(-44.453125, 60)"/><g class="divider" style=""><path d="M-56.453125 6 C-33.327994720882096 6, -10.202864441764191 6, 56.453125 6 M-56.453125 6 C-22.939416669022428 6, 10.574291661955144 6, 56.453125 6" stroke="#9370DB" stroke-width="1.3" fill="none" stroke-dasharray="0 0" style=""/></g></g><g class="node default" id="classId-CoreHole-1" transform="translate(55.5625, 184)"><g class="basic label-container"><path d="M-47.5625 -42 L47.5625 -42 L47.5625 42 L-47.5625 42" stroke="none" stroke-width="0" fill="#ECECFF" style=""/><path d="M-47.5625 -42 C-27.778373987503453 -42, -7.994247975006907 -42, 47.5625 -42 M-47.5625 -42 C-11.864815607898862 -42, 23.832868784202276 -42, 47.5625 -42 M47.5625 -42 C47.5625 -10.350272112403598, 47.5625 21.299455775192804, 47.5625 42 M47.5625 -42 C47.5625 -21.522041855724847, 47.5625 -1.0440837114496944, 47.5625 42 M47.5625 42 C26.53853882894821 42, 5.514577657896417 42, -47.5625 42 M47.5625 42 C14.301908046094148 42, -18.958683907811704 42, -47.5625 42 M-47.5625 42 C-47.5625 11.876624400035222, -47.5625 -18.246751199929555, -47.5625 -42 M-47.5625 42 C-47.5625 22.28590143306962, -47.5625 2.5718028661392367, -47.5625 -42" stroke="#9370DB" stroke-width="1.3" fill="none" stroke-dasharray="0 0" style=""/></g><g class="annotation-group text" transform="translate(0, -18)"/><g class="label-group text" transform="translate(-35.5625, -18)"><g class="label" style="font-weight: bolder" transform="translate(0,-12)"><foreignObject width="71.125" height="24"><div xmlns="http://www.w3.org/1999/xhtml" style="display: table-cell; white-space: nowrap; line-height: 1.5; max-width: 112px; text-align: center;"><span class="nodeLabel markdown-node-label" style=""><p>CoreHole</p></span></div></foreignObject></g></g><g class="members-group text" transform="translate(-35.5625, 30)"/><g class="methods-group text" transform="translate(-35.5625, 60)"/><g class="divider" style=""><path d="M-47.5625 6 C-13.837918137130117 6, 19.886663725739766 6, 47.5625 6 M-47.5625 6 C-23.252098210950766 6, 1.0583035780984673 6, 47.5625 6" stroke="#9370DB" stroke-width="1.3" fill="none" stroke-dasharray="0 0" style=""/></g></g><g class="node default" id="classId-HubbardInteractions-2" transform="translate(243.359375, 184)"><g class="basic label-container"><path d="M-90.234375 -42 L90.234375 -42 L90.234375 42 L-90.234375 42" stroke="none" stroke-width="0" fill="#ECECFF" style=""/><path d="M-90.234375 -42 C-32.556184296930205 -42, 25.12200640613959 -42, 90.234375 -42 M-90.234375 -42 C-31.33717271891078 -42, 27.560029562178443 -42, 90.234375 -42 M90.234375 -42 C90.234375 -11.56550537362708, 90.234375 18.86898925274584, 90.234375 42 M90.234375 -42 C90.234375 -19.819369323524363, 90.234375 2.3612613529512743, 90.234375 42 M90.234375 42 C34.13667665716525 42, -21.961021685669493 42, -90.234375 42 M90.234375 42 C38.15701033922919 42, -13.920354321541623 42, -90.234375 42 M-90.234375 42 C-90.234375 19.47058898126628, -90.234375 -3.0588220374674435, -90.234375 -42 M-90.234375 42 C-90.234375 14.313476562601302, -90.234375 -13.373046874797396, -90.234375 -42" stroke="#9370DB" stroke-width="1.3" fill="none" stroke-dasharray="0 0" style=""/></g><g class="annotation-group text" transform="translate(0, -18)"/><g class="label-group text" transform="translate(-78.234375, -18)"><g class="label" style="font-weight: bolder" transform="translate(0,-12)"><foreignObject width="156.46875" height="24"><div xmlns="http://www.w3.org/1999/xhtml" style="display: table-cell; white-space: nowrap; line-height: 1.5; max-width: 182px; text-align: center;"><span class="nodeLabel markdown-node-label" style=""><p>HubbardInteractions</p></span></div></foreignObject></g></g><g class="members-group text" transform="translate(-78.234375, 30)"/><g class="methods-group text" transform="translate(-78.234375, 60)"/><g class="divider" style=""><path d="M-90.234375 6 C-32.85355877313807 6, 24.527257453723863 6, 90.234375 6 M-90.234375 6 C-53.9804071063086 6, -17.726439212617194 6, 90.234375 6" stroke="#9370DB" stroke-width="1.3" fill="none" stroke-dasharray="0 0" style=""/></g></g><g class="node default" id="classId-OrbitalsState-3" transform="translate(445.390625, 184)"><g class="basic label-container"><path d="M-61.796875 -42 L61.796875 -42 L61.796875 42 L-61.796875 42" stroke="none" stroke-width="0" fill="#ECECFF" style=""/><path d="M-61.796875 -42 C-19.469763813202647 -42, 22.857347373594706 -42, 61.796875 -42 M-61.796875 -42 C-29.421908352669966 -42, 2.9530582946600674 -42, 61.796875 -42 M61.796875 -42 C61.796875 -15.949274805742078, 61.796875 10.101450388515843, 61.796875 42 M61.796875 -42 C61.796875 -22.224774939333738, 61.796875 -2.449549878667476, 61.796875 42 M61.796875 42 C32.82944225567627 42, 3.8620095113525394 42, -61.796875 42 M61.796875 42 C14.953970426528443 42, -31.888934146943114 42, -61.796875 42 M-61.796875 42 C-61.796875 19.520732334833184, -61.796875 -2.958535330333632, -61.796875 -42 M-61.796875 42 C-61.796875 21.237928721811983, -61.796875 0.47585744362396554, -61.796875 -42" stroke="#9370DB" stroke-width="1.3" fill="none" stroke-dasharray="0 0" style=""/></g><g class="annotation-group text" transform="translate(0, -18)"/><g class="label-group text" transform="translate(-49.796875, -18)"><g class="label" style="font-weight: bolder" transform="translate(0,-12)"><foreignObject width="99.59375" height="24"><div xmlns="http://www.w3.org/1999/xhtml" style="display: table-cell; white-space: nowrap; line-height: 1.5; max-width: 134px; text-align: center;"><span class="nodeLabel markdown-node-label" style=""><p>OrbitalsState</p></span></div></foreignObject></g></g><g class="members-group text" transform="translate(-49.796875, 30)"/><g class="methods-group text" transform="translate(-49.796875, 60)"/><g class="divider" style=""><path d="M-61.796875 6 C-26.959620874823123 6, 7.877633250353753 6, 61.796875 6 M-61.796875 6 C-12.416551681873088 6, 36.963771636253824 6, 61.796875 6" stroke="#9370DB" stroke-width="1.3" fill="none" stroke-dasharray="0 0" style=""/></g></g></g></g></g></svg>