<?xml version="1.0" encoding="UTF-8"?>
<svg id="my-svg" width="100%" xmlns="http://www.w3.org/2000/svg" xmlns:xlink="http://www.w3.org/1999/xlink" class="classDiagram" style="max-width: 515.188px; background-color: white;" viewBox="0 0 515.1875 258" role="graphics-document document" aria-roledescription="class"><style>#my-svg{font-family:"trebuchet ms",verdana,arial,sans-serif;font-size:16px;fill:#333;}@keyframes edge-animation-frame{from{stroke-dashoffset:0;}}@keyframes dash{to{stroke-dashoffset:0;}}#my-svg .edge-animation-slow{stroke-dasharray:9,5!important;stroke-dashoffset:900;animation:dash 50s linear infinite;stroke-linecap:round;}#my-svg .edge-animation-fast{stroke-dasharray:9,5!important;stroke-dashoffset:900;animation:dash 20s linear infinite;stroke-linecap:round;}#my-svg .error-icon{fill:#552222;}#my-svg .error-text{fill:#552222;stroke:#552222;}#my-svg .edge-thickness-normal{stroke-width:1px;}#my-svg .edge-thickness-thick{stroke-width:3.5px;}#my-svg .edge-pattern-solid{stroke-dasharray:0;}#my-svg .edge-thickness-invisible{stroke-width:0;fill:none;}#my-svg .edge-pattern-dashed{stroke-dasharray:3;}#my-svg .edge-pattern-dotted{stroke-dasharray:2;}#my-svg .marker{fill:#333333;stroke:#333333;}#my-svg .marker.cross{stroke:#333333;}#my-svg svg{font-family:"trebuchet ms",verdana,arial,sans-serif;font-size:16px;}#my-svg p{margin:0;}#my-svg g.classGroup text{fill:#9370DB;stroke:none;font-family:"trebuchet ms",verdana,arial,sans-serif;font-size:10px;}#my-svg g.classGroup text .title{font-weight:bolder;}#my-svg .nodeLabel,#my-svg .edgeLabel{color:#131300;}#my-svg .edgeLabel .label rect{fill:#ECECFF;}#my-svg .label text{fill:#131300;}#my-svg .labelBkg{background:#ECECFF;}#my-svg .edgeLabel .label span{background:#ECECFF;}#my-svg .classTitle{font-weight:bolder;}#my-svg .node rect,#my-svg .node circle,#my-svg .node ellipse,#my-svg .node polygon,#my-svg .node path{fill:#ECECFF;stroke:#9370DB;stroke-width:1px;}#my-svg .divider{stroke:#9370DB;stroke-width:1;}#my-svg g.clickable{cursor:pointer;}#my-svg g.classGroup rect{fill:#ECECFF;stroke:#9370DB;}#my-svg g.classGroup line{stroke:#9370DB;stroke-width:1;}#my-svg .classLabel .box{stroke:none;stroke-width:0;fill:#ECECFF;opacity:0.5;}#my-svg .classLabel .label{fill:#9370DB;font-size:10px;}#my-svg .relation{stroke:#333333;stroke-width:1;fill:none;}#my-svg .dashed-line{stroke-dasharray:3;}#my-svg .dotted-line{stroke-dasharray:1 2;}#my-svg #compositionStart,#my-svg .composition{fill:#333333!important;stroke:#333333!important;stroke-width:1;}#my-svg #compositionEnd,#my-svg .composition{fill:#333333!important;stroke:#333333!important;stroke-width:1;}#my-svg #dependencyStart,#my-svg .dependency{fill:#333333!important;stroke:#333333!important;stroke-width:1;}#my-svg #dependencyStart,#my-svg .dependency{fill:#333333!important;stroke:#333333!important;stroke-width:1;}#my-svg #extensionStart,#my-svg .extension{fill:transparent!important;stroke:#333333!important;stroke-width:1;}#my-svg #extensionEnd,#my-svg .extension{fill:transparent!important;stroke:#333333!important;stroke-width:1;}#my-svg #aggregationStart,#my-svg .aggregation{fill:transparent!important;stroke:#333333!important;stroke-width:1;}#my-svg #aggregationEnd,#my-svg .aggregation{fill:transparent!important;stroke:#333333!important;stroke-width:1;}#my-svg #lollipopStart,#my-svg .lollipop{fill:#ECECFF!important;stroke:#333333!important;stroke-width:1;}#my-svg #lollipopEnd,#my-svg .lollipop{fill:#ECECFF!important;stroke:#333333!important;stroke-width:1;}#my-svg .edgeTerminals{font-size:11px;line-height:initial;}#my-svg .classTitleText{text-anchor:middle;font-size:18px;fill:#333;}#my-svg .label-icon{display:inline-block;height:1em;overflow:visible;vertical-align:-0.125em;}#my-svg .node .label-icon path{fill:currentColor;stroke:revert;stroke-width:revert;}#my-svg :root{--mermaid-font-family:"trebuchet ms",verdana,arial,sans-serif;}</style><g><defs><marker id="my-svg_class-aggregationStart" class="marker aggregation class" refX="18" refY="7" markerWidth="190" markerHeight="240" orient="auto"><path d="M 18,7 L9,13 L1,7 L9,1 Z"/></marker></defs><defs><marker id="my-svg_class-aggregationEnd" class="marker aggregation class" refX="1" refY="7" markerWidth="20" markerHeight="28" orient="auto"><path d="M 18,7 L9,13 L1,7 L9,1 Z"/></marker></defs><defs><marker id="my-svg_class-extensionStart" class="marker extension class" refX="18" refY="7" markerWidth="190" markerHeight="240" orient="auto"><path d="M 1,7 L18,13 V 1 Z"/></marker></defs><defs><marker id="my-svg_class-extensionEnd" class="marker extension class" refX="1" refY="7" markerWidth="20" markerHeight="28" orient="auto"><path d="M 1,1 V 13 L18,7 Z"/></marker></defs><defs><marker id="my-svg_class-compositionStart" class="marker composition class" refX="18" refY="7" markerWidth="190" markerHeight="240" orient="auto"><path d="M 18,7 L9,13 L1,7 L9,1 Z"/></marker></defs><defs><marker id="my-svg_class-compositionEnd" class="marker composition class" refX="1" refY="7" markerWidth="20" markerHeight="28" orient="auto"><path d="M 18,7 L9,13 L1,7 L9,1 Z"/></marker></defs><defs><marker id="my-svg_class-dependencyStart" class="marker dependency class" refX="6" refY="7" markerWidth="190" markerHeight="240" orient="auto"><path d="M 5,7 L9,13 L1,7 L9,1 Z"/></marker></defs><defs><marker id="my-svg_class-dependencyEnd" class="marker dependency class" refX="13" refY="7" markerWidth="20" markerHeight="28" orient="auto"><path d="M 18,7 L9,13 L14,7 L9,1 Z"/></marker></defs><defs><marker id="my-svg_class-lollipopStart" class="marker lollipop class" refX="13" refY="7" markerWidth="190" markerHeight="240" orient="auto"><circle stroke="black" fill="transparent" cx="7" cy="7" r="6"/></marker></defs><defs><marker id="my-svg_class-lollipopEnd" class="marker lollipop class" refX="1" refY="7" markerWidth="190" markerHeight="240" orient="auto"><circle stroke="black" fill="transparent" cx="7" cy="7" r="6"/></marker></defs><g class="root"><g class="clusters"/><g class="edgePaths"><path d="M186.906,73.748L165.016,82.957C143.125,92.165,99.344,110.583,77.453,124.958C55.563,139.333,55.563,149.667,55.563,154.833L55.563,160" id="id_AtomsState_CoreHole_1" class="edge-thickness-normal edge-pattern-solid relation" style=";;;" data-edge="true" data-et="edge" data-id="id_AtomsState_CoreHole_1" data-points="W3sieCI6MTg2LjkwNjI1LCJ5Ijo3My43NDc5ODIzNjEyNjEzNH0seyJ4Ijo1NS41NjI1LCJ5IjoxMjl9LHsieCI6NTUuNTYyNSwieSI6MTY2fV0=" marker-end="url(#my-svg_class-dependencyEnd)"/><path d="M243.359,92L243.359,98.167C243.359,104.333,243.359,116.667,243.359,128C243.359,139.333,243.359,149.667,243.359,154.833L243.359,160" id="id_AtomsState_HubbardInteractions_2" class="edge-thickness-normal edge-pattern-solid relation" style=";;;" data-edge="true" data-et="edge" data-id="id_AtomsState_HubbardInteractions_2" data-points="W3sieCI6MjQzLjM1OTM3NSwieSI6OTJ9LHsieCI6MjQzLjM1OTM3NSwieSI6MTI5fSx7IngiOjI0My4zNTkzNzUsInkiOjE2Nn1d" marker-end="url(#my-svg_class-dependencyEnd)"/><path d="M299.813,72.075L324.076,81.562C348.339,91.05,396.865,110.025,421.128,124.679C445.391,139.333,445.391,149.667,445.391,154.833L445.391,160" id="id_AtomsState_OrbitalsState_3" class="edge-thickness-normal edge-pattern-solid relation" style=";;;" data-edge="true" data-et="edge" data-id="id_AtomsState_OrbitalsState_3" data-points="W3sieCI6Mjk5LjgxMjUsInkiOjcyLjA3NDc4NzMxNjMxODYzfSx7IngiOjQ0NS4zOTA2MjUsInkiOjEyOX0seyJ4Ijo0NDUuMzkwNjI1LCJ5IjoxNjZ9XQ==" marker-end="url(#my-svg_class-dependencyEnd)"/></g><g class="edgeLabels"><g class="edgeLabel" transform="translate(55.5625, 129)"><g class="label" data-id="id_AtomsState_CoreHole_1" transform="translate(-35.140625, -12)"><foreignObject width="70.28125" height="24"><div xmlns="http://www.w3.org/1999/xhtml" class="labelBkg" style="display: table-cell; white-space: nowrap; line-height: 1.5; max-width: 200px; text-align: center;"><span class="edgeLabel"><p>core_hole</p></span></div></foreignObject></g></g><g class="edgeLabel" transform="translate(243.359375, 129)"><g class="label" data-id="id_AtomsState_HubbardInteractions_2" transform="translate(-74.71875, -12)"><foreignObject width="149.4375" height="24"><div xmlns="http://www.w3.org/1999/xhtml" class="labelBkg" style="display: table-cell; white-space: nowrap; line-height: 1.5; max-width: 200px; text-align: center;"><span class="edgeLabel"><p>hubbard_interactions</p></span></div></foreignObject></g></g><g class="edgeLabel" transform="translate(445.390625, 129)"><g class="label" data-id="id_AtomsState_OrbitalsState_3" transform="translate(-47.5859375, -12)"><foreignObject width="95.171875" height="24"><div xmlns="http://www.w3.org/1999/xhtml" class="labelBkg" style="display: table-cell; white-space: nowrap; line-height: 1.5; max-width: 200px; text-align: center;"><span class="edgeLabel"><p>orbitals_state</p></span></div></foreignObject></g></g></g><g class="nodes"><g class="node default" id="classId-AtomsState-0" transform="translate(243.359375, 50)"><g class="basic label-container"><path d="M-56.453125 -42 L56.453125 -42 L56.453125 42 L-56.453125 42" stroke="none" stroke-width="0" fill="#ECECFF" style=""/><path d="M-56.453125 -42 C-26.02527134083834 -42, 4.402582318323319 -42, 56.453125 -42 M-56.453125 -42 C-24.645392411211265 -42, 7.1623401775774695 -42, 56.453125 -42 M56.453125 -42 C56.453125 -12.225157539822955, 56.453125 17.54968492035409, 56.453125 42 M56.453125 -42 C56.453125 -22.16334273117763, 56.453125 -2.3266854623552575, 56.453125 42 M56.453125 42 C29.689338407080943 42, 2.925551814161885 42, -56.453125 42 M56.453125 42 C18.098125428317587 42, -20.256874143364826 42, -56.453125 42 M-56.453125 42 C-56.453125 18.47171976604226, -56.453125 -5.056560467915482, -56.453125 -42 M-56.453125 42 C-56.453125 24.283975800000427, -56.453125 6.567951600000853, -56.453125 -42" stroke="#9370DB" stroke-width="1.3" fill="none" stroke-dasharray="0 0" style=""/></g><g class="annotation-group text" transform="translate(0, -18)"/><g class="label-group text" transform="translate(-44.453125, -18)"><g class="label" style="font-weight: bolder" transform="translate(0,-12)"><foreignObject width="88.90625" height="24"><div xmlns="http://www.w3.org/1999/xhtml" style="display: table-cell; white-space: nowrap; line-height: 1.5; max-width: 125px; text-align: center;"><span class="nodeLabel markdown-node-label" style=""><p>AtomsState</p></span></div></foreignObject></g></g><g class="members-group text" transform="translate(-44.453125, 30)"/><g class="methods-group text" transform="translate(-44.453125, 60)"/><g class="divider" style=""><path d="M-56.453125 6 C-22.851751015602304 6, 10.749622968795393 6, 56.453125 6 M-56.453125 6 C-19.22445574702264 6, 18.004213505954723 6, 56.453125 6" stroke="#9370DB" stroke-width="1.3" fill="none" stroke-dasharray="0 0" style=""/></g></g><g class="node default" id="classId-CoreHole-1" transform="translate(55.5625, 208)"><g class="basic label-container"><path d="M-47.5625 -42 L47.5625 -42 L47.5625 42 L-47.5625 42" stroke="none" stroke-width="0" fill="#ECECFF" style=""/><path d="M-47.5625 -42 C-11.617685164826725 -42, 24.32712967034655 -42, 47.5625 -42 M-47.5625 -42 C-16.310623981485914 -42, 14.941252037028171 -42, 47.5625 -42 M47.5625 -42 C47.5625 -17.294542522899768, 47.5625 7.410914954200464, 47.5625 42 M47.5625 -42 C47.5625 -20.381927577146946, 47.5625 1.2361448457061073, 47.5625 42 M47.5625 42 C21.363417480619358 42, -4.8356650387612845 42, -47.5625 42 M47.5625 42 C15.246524897534293 42, -17.069450204931414 42, -47.5625 42 M-47.5625 42 C-47.5625 9.58835138413285, -47.5625 -22.8232972317343, -47.5625 -42 M-47.5625 42 C-47.5625 17.731420149326116, -47.5625 -6.537159701347768, -47.5625 -42" stroke="#9370DB" stroke-width="1.3" fill="none" stroke-dasharray="0 0" style=""/></g><g class="annotation-group text" transform="translate(0, -18)"/><g class="label-group text" transform="translate(-35.5625, -18)"><g class="label" style="font-weight: bolder" transform="translate(0,-12)"><foreignObject width="71.125" height="24"><div xmlns="http://www.w3.org/1999/xhtml" style="display: table-cell; white-space: nowrap; line-height: 1.5; max-width: 112px; text-align: center;"><span class="nodeLabel markdown-node-label" style=""><p>CoreHole</p></span></div></foreignObject></g></g><g class="members-group text" transform="translate(-35.5625, 30)"/><g class="methods-group text" transform="translate(-35.5625, 60)"/><g class="divider" style=""><path d="M-47.5625 6 C-27.309240598283825 6, -7.05598119656765 6, 47.5625 6 M-47.5625 6 C-9.903380105367447 6, 27.755739789265107 6, 47.5625 6" stroke="#9370DB" stroke-width="1.3" fill="none" stroke-dasharray="0 0" style=""/></g></g><g class="node default" id="classId-HubbardInteractions-2" transform="translate(243.359375, 208)"><g class="basic label-container"><path d="M-90.234375 -42 L90.234375 -42 L90.234375 42 L-90.234375 42" stroke="none" stroke-width="0" fill="#ECECFF" style=""/><path d="M-90.234375 -42 C-20.712923509426716 -42, 48.80852798114657 -42, 90.234375 -42 M-90.234375 -42 C-33.97617248647059 -42, 22.282030027058823 -42, 90.234375 -42 M90.234375 -42 C90.234375 -21.438410544482565, 90.234375 -0.87682108896513, 90.234375 42 M90.234375 -42 C90.234375 -17.458180362438714, 90.234375 7.083639275122572, 90.234375 42 M90.234375 42 C50.96433625748579 42, 11.69429751497158 42, -90.234375 42 M90.234375 42 C47.476684533614154 42, 4.718994067228309 42, -90.234375 42 M-90.234375 42 C-90.234375 21.730347236403247, -90.234375 1.4606944728064946, -90.234375 -42 M-90.234375 42 C-90.234375 17.675796889929476, -90.234375 -6.648406220141048, -90.234375 -42" stroke="#9370DB" stroke-width="1.3" fill="none" stroke-dasharray="0 0" style=""/></g><g class="annotation-group text" transform="translate(0, -18)"/><g class="label-group text" transform="translate(-78.234375, -18)"><g class="label" style="font-weight: bolder" transform="translate(0,-12)"><foreignObject width="156.46875" height="24"><div xmlns="http://www.w3.org/1999/xhtml" style="display: table-cell; white-space: nowrap; line-height: 1.5; max-width: 182px; text-align: center;"><span class="nodeLabel markdown-node-label" style=""><p>HubbardInteractions</p></span></div></foreignObject></g></g><g class="members-group text" transform="translate(-78.234375, 30)"/><g class="methods-group text" transform="translate(-78.234375, 60)"/><g class="divider" style=""><path d="M-90.234375 6 C-48.297389308819156 6, -6.360403617638312 6, 90.234375 6 M-90.234375 6 C-47.47523297468166 6, -4.71609094936332 6, 90.234375 6" stroke="#9370DB" stroke-width="1.3" fill="none" stroke-dasharray="0 0" style=""/></g></g><g class="node default" id="classId-OrbitalsState-3" transform="translate(445.390625, 208)"><g class="basic label-container"><path d="M-61.796875 -42 L61.796875 -42 L61.796875 42 L-61.796875 42" stroke="none" stroke-width="0" fill="#ECECFF" style=""/><path d="M-61.796875 -42 C-22.816291339729304 -42, 16.164292320541392 -42, 61.796875 -42 M-61.796875 -42 C-15.062829951117614 -42, 31.671215097764772 -42, 61.796875 -42 M61.796875 -42 C61.796875 -24.55503349779683, 61.796875 -7.110066995593662, 61.796875 42 M61.796875 -42 C61.796875 -12.865124981334862, 61.796875 16.269750037330276, 61.796875 42 M61.796875 42 C16.03369539861174 42, -29.72948420277652 42, -61.796875 42 M61.796875 42 C35.10636946108474 42, 8.415863922169478 42, -61.796875 42 M-61.796875 42 C-61.796875 17.354868975422878, -61.796875 -7.290262049154244, -61.796875 -42 M-61.796875 42 C-61.796875 12.924982710023219, -61.796875 -16.150034579953562, -61.796875 -42" stroke="#9370DB" stroke-width="1.3" fill="none" stroke-dasharray="0 0" style=""/></g><g class="annotation-group text" transform="translate(0, -18)"/><g class="label-group text" transform="translate(-49.796875, -18)"><g class="label" style="font-weight: bolder" transform="translate(0,-12)"><foreignObject width="99.59375" height="24"><div xmlns="http://www.w3.org/1999/xhtml" style="display: table-cell; white-space: nowrap; line-height: 1.5; max-width: 134px; text-align: center;"><span class="nodeLabel markdown-node-label" style=""><p>OrbitalsState</p></span></div></foreignObject></g></g><g class="members-group text" transform="translate(-49.796875, 30)"/><g class="methods-group text" transform="translate(-49.796875, 60)"/><g class="divider" style=""><path d="M-61.796875 6 C-15.155303969536568 6, 31.486267060926863 6, 61.796875 6 M-61.796875 6 C-31.878288826323946 6, -1.9597026526478913 6, 61.796875 6" stroke="#9370DB" stroke-width="1.3" fill="none" stroke-dasharray="0 0" style=""/></g></g></g></g></g></svg>