<?xml version="1.0" encoding="UTF-8"?>
<svg id="my-svg" width="100%" xmlns="http://www.w3.org/2000/svg" xmlns:xlink="http://www.w3.org/1999/xlink" class="classDiagram" style="max-width: 1267.35px; background-color: white;" viewBox="0 0 1267.34765625 258" role="graphics-document document" aria-roledescription="class"><style>#my-svg{font-family:"trebuchet ms",verdana,arial,sans-serif;font-size:16px;fill:#333;}@keyframes edge-animation-frame{from{stroke-dashoffset:0;}}@keyframes dash{to{stroke-dashoffset:0;}}#my-svg .edge-animation-slow{stroke-dasharray:9,5!important;stroke-dashoffset:900;animation:dash 50s linear infinite;stroke-linecap:round;}#my-svg .edge-animation-fast{stroke-dasharray:9,5!important;stroke-dashoffset:900;animation:dash 20s linear infinite;stroke-linecap:round;}#my-svg .error-icon{fill:#552222;}#my-svg .error-text{fill:#552222;stroke:#552222;}#my-svg .edge-thickness-normal{stroke-width:1px;}#my-svg .edge-thickness-thick{stroke-width:3.5px;}#my-svg .edge-pattern-solid{stroke-dasharray:0;}#my-svg .edge-thickness-invisible{stroke-width:0;fill:none;}#my-svg .edge-pattern-dashed{stroke-dasharray:3;}#my-svg .edge-pattern-dotted{stroke-dasharray:2;}#my-svg .marker{fill:#333333;stroke:#333333;}#my-svg .marker.cross{stroke:#333333;}#my-svg svg{font-family:"trebuchet ms",verdana,arial,sans-serif;font-size:16px;}#my-svg p{margin:0;}#my-svg g.classGroup text{fill:#9370DB;stroke:none;font-family:"trebuchet ms",verdana,arial,sans-serif;font-size:10px;}#my-svg g.classGroup text .title{font-weight:bolder;}#my-svg .nodeLabel,#my-svg .edgeLabel{color:#131300;}#my-svg .edgeLabel .label rect{fill:#ECECFF;}#my-svg .label text{fill:#131300;}#my-svg .labelBkg{background:#ECECFF;}#my-svg .edgeLabel .label span{background:#ECECFF;}#my-svg .classTitle{font-weight:bolder;}#my-svg .node rect,#my-svg .node circle,#my-svg .node ellipse,#my-svg .node polygon,#my-svg .node path{fill:#ECECFF;stroke:#9370DB;stroke-width:1px;}#my-svg .divider{stroke:#9370DB;stroke-width:1;}#my-svg g.clickable{cursor:pointer;}#my-svg g.classGroup rect{fill:#ECECFF;stroke:#9370DB;}#my-svg g.classGroup line{stroke:#9370DB;stroke-width:1;}#my-svg .classLabel .box{stroke:none;stroke-width:0;fill:#ECECFF;opacity:0.5;}#my-svg .classLabel .label{fill:#9370DB;font-size:10px;}#my-svg .relation{stroke:#333333;stroke-width:1;fill:none;}#my-svg .dashed-line{stroke-dasharray:3;}#my-svg .dotted-line{stroke-dasharray:1 2;}#my-svg #compositionStart,#my-svg .composition{fill:#333333!important;stroke:#333333!important;stroke-width:1;}#my-svg #compositionEnd,#my-svg .composition{fill:#333333!important;stroke:#333333!important;stroke-width:1;}#my-svg #dependencyStart,#my-svg .dependency{fill:#333333!important;stroke:#333333!important;stroke-width:1;}#my-svg #dependencyStart,#my-svg .dependency{fill:#333333!important;stroke:#333333!important;stroke-width:1;}#my-svg #extensionStart,#my-svg .extension{fill:transparent!important;stroke:#333333!important;stroke-width:1;}#my-svg #extensionEnd,#my-svg .extension{fill:transparent!important;stroke:#333333!important;stroke-width:1;}#my-svg #aggregationStart,#my-svg .aggregation{fill:transparent!important;stroke:#333333!important;stroke-width:1;}#my-svg #aggregationEnd,#my-svg .aggregation{fill:transparent!important;stroke:#333333!important;stroke-width:1;}#my-svg #lollipopStart,#my-svg .lollipop{fill:#ECECFF!important;stroke:#333333!important;stroke-width:1;}#my-svg #lollipopEnd,#my-svg .lollipop{fill:#ECECFF!important;stroke:#333333!important;stroke-width:1;}#my-svg .edgeTerminals{font-size:11px;line-height:initial;}#my-svg .classTitleText{text-anchor:middle;font-size:18px;fill:#333;}#my-svg .label-icon{display:inline-block;height:1em;overflow:visible;vertical-align:-0.125em;}#my-svg .node .label-icon path{fill:currentColor;stroke:revert;stroke-width:revert;}#my-svg :root{--mermaid-font-family:"trebuchet ms",verdana,arial,sans-serif;}</style><g><defs><marker id="my-svg_class-aggregationStart" class="marker aggregation class" refX="18" refY="7" markerWidth="190" markerHeight="240" orient="auto"><path d="M 18,7 L9,13 L1,7 L9,1 Z"/></marker></defs><defs><marker id="my-svg_class-aggregationEnd" class="marker aggregation class" refX="1" refY="7" markerWidth="20" markerHeight="28" orient="auto"><path d="M 18,7 L9,13 L1,7 L9,1 Z"/></marker></defs><defs><marker id="my-svg_class-extensionStart" class="marker extension class" refX="18" refY="7" markerWidth="190" markerHeight="240" orient="auto"><path d="M 1,7 L18,13 V 1 Z"/></marker></defs><defs><marker id="my-svg_class-extensionEnd" class="marker extension class" refX="1" refY="7" markerWidth="20" markerHeight="28" orient="auto"><path d="M 1,1 V 13 L18,7 Z"/></marker></defs><defs><marker id="my-svg_class-compositionStart" class="marker composition class" refX="18" refY="7" markerWidth="190" markerHeight="240" orient="auto"><path d="M 18,7 L9,13 L1,7 L9,1 Z"/></marker></defs><defs><marker id="my-svg_class-compositionEnd" class="marker composition class" refX="1" refY="7" markerWidth="20" markerHeight="28" orient="auto"><path d="M 18,7 L9,13 L1,7 L9,1 Z"/></marker></defs><defs><marker id="my-svg_class-dependencyStart" class="marker dependency class" refX="6" refY="7" markerWidth="190" markerHeight="240" orient="auto"><path d="M 5,7 L9,13 L1,7 L9,1 Z"/></marker></defs><defs><marker id="my-svg_class-dependencyEnd" class="marker dependency class" refX="13" refY="7" markerWidth="20" markerHeight="28" orient="auto"><path d="M 18,7 L9,13 L14,7 L9,1 Z"/></marker></defs><defs><marker id="my-svg_class-lollipopStart" class="marker lollipop class" refX="13" refY="7" markerWidth="190" markerHeight="240" orient="auto"><circle stroke="black" fill="transparent" cx="7" cy="7" r="6"/></marker></defs><defs><marker id="my-svg_class-lollipopEnd" class="marker lollipop class" refX="1" refY="7" markerWidth="190" markerHeight="240" orient="auto"><circle stroke="black" fill="transparent" cx="7" cy="7" r="6"/></marker></defs><g class="root"><g class="clusters"/><g class="edgePaths"><path d="M638.391,85.545L617.829,92.787C597.267,100.03,556.143,114.515,535.581,126.924C515.02,139.333,515.02,149.667,515.02,154.833L515.02,160" id="id_AtomCenteredBasisSet_AtomCenteredFunction_1" class="edge-thickness-normal edge-pattern-solid relation" style=";;;" data-edge="true" data-et="edge" data-id="id_AtomCenteredBasisSet_AtomCenteredFunction_1" data-points="W3sieCI6NjM4LjM5MDYyNSwieSI6ODUuNTQ0OTc3OTY4MTk3NTd9LHsieCI6NTE1LjAxOTUzMTI1LCJ5IjoxMjl9LHsieCI6NTE1LjAxOTUzMTI1LCJ5IjoxNjZ9XQ==" marker-end="url(#my-svg_class-dependencyEnd)"/><path d="M737.151,92L736.835,98.167C736.519,104.333,735.886,116.667,735.57,128C735.254,139.333,735.254,149.667,735.254,154.833L735.254,160" id="id_AtomCenteredBasisSet_AtomicOrbitals_2" class="edge-thickness-normal edge-pattern-solid relation" style=";;;" data-edge="true" data-et="edge" data-id="id_AtomCenteredBasisSet_AtomicOrbitals_2" data-points="W3sieCI6NzM3LjE1MTEwNzU5NDkzNjcsInkiOjkyfSx7IngiOjczNS4yNTM5MDYyNSwieSI6MTI5fSx7IngiOjczNS4yNTM5MDYyNSwieSI6MTY2fV0=" marker-end="url(#my-svg_class-dependencyEnd)"/><path d="M840.219,87.489L858.842,94.408C877.465,101.326,914.711,115.163,933.334,127.248C951.957,139.333,951.957,149.667,951.957,154.833L951.957,160" id="id_AtomCenteredBasisSet_EffectiveCorePotential_3" class="edge-thickness-normal edge-pattern-solid relation" style=";;;" data-edge="true" data-et="edge" data-id="id_AtomCenteredBasisSet_EffectiveCorePotential_3" data-points="W3sieCI6ODQwLjIxODc1LCJ5Ijo4Ny40ODk0MTAxNjU1MDYzNH0seyJ4Ijo5NTEuOTU3MDMxMjUsInkiOjEyOX0seyJ4Ijo5NTEuOTU3MDMxMjUsInkiOjE2Nn1d" marker-end="url(#my-svg_class-dependencyEnd)"/><path d="M1134.493,92L1127.91,98.167C1121.326,104.333,1108.159,116.667,1107.429,128.316C1106.7,139.966,1118.407,150.932,1124.26,156.415L1130.114,161.898" id="id_SlaterKoster_SlaterKosterBond_4" class="edge-thickness-normal edge-pattern-solid relation" style=";;;" data-edge="true" data-et="edge" data-id="id_SlaterKoster_SlaterKosterBond_4" data-points="W3sieCI6MTEzNC40OTMxMjY5Nzc4NDgsInkiOjkyfSx7IngiOjEwOTQuOTkyMTg3NSwieSI6MTI5fSx7IngiOjExMzQuNDkzMTI2OTc3ODQ4LCJ5IjoxNjZ9XQ==" marker-end="url(#my-svg_class-dependencyEnd)"/><path d="M1198.482,92L1201.293,98.167C1204.105,104.333,1209.728,116.667,1210.143,128.09C1210.558,139.514,1205.764,150.027,1203.368,155.284L1200.971,160.541" id="id_SlaterKoster_SlaterKosterBond_5" class="edge-thickness-normal edge-pattern-solid relation" style=";;;" data-edge="true" data-et="edge" data-id="id_SlaterKoster_SlaterKosterBond_5" data-points="W3sieCI6MTE5OC40ODE2NTU0NTg4NjA4LCJ5Ijo5Mn0seyJ4IjoxMjE1LjM1MTU2MjUsInkiOjEyOX0seyJ4IjoxMTk4LjQ4MTY1NTQ1ODg2MDgsInkiOjE2Nn1d" marker-end="url(#my-svg_class-dependencyEnd)"/></g><g class="edgeLabels"><g class="edgeLabel" transform="translate(515.01953125, 129)"><g class="label" data-id="id_AtomCenteredBasisSet_AtomCenteredFunction_1" transform="translate(-85.3828125, -12)"><foreignObject width="170.765625" height="24"><div xmlns="http://www.w3.org/1999/xhtml" class="labelBkg" style="display: table-cell; white-space: nowrap; line-height: 1.5; max-width: 200px; text-align: center;"><span class="edgeLabel"><p>functional_compositions</p></span></div></foreignObject></g></g><g class="edgeLabel"><g class="label" data-id="id_AtomCenteredBasisSet_AtomicOrbitals_2" transform="translate(0, 0)"><foreignObject width="0" height="0"><div xmlns="http://www.w3.org/1999/xhtml" class="labelBkg" style="display: table-cell; white-space: nowrap; line-height: 1.5; max-width: 200px; text-align: center;"><span class="edgeLabel"></span></div></foreignObject></g></g><g class="edgeLabel" transform="translate(951.95703125, 129)"><g class="label" data-id="id_AtomCenteredBasisSet_EffectiveCorePotential_3" transform="translate(-16.8984375, -12)"><foreignObject width="33.796875" height="24"><div xmlns="http://www.w3.org/1999/xhtml" class="labelBkg" style="display: table-cell; white-space: nowrap; line-height: 1.5; max-width: 200px; text-align: center;"><span class="edgeLabel"><p>ecps</p></span></div></foreignObject></g></g><g class="edgeLabel" transform="translate(1094.9921875, 129)"><g class="label" data-id="id_SlaterKoster_SlaterKosterBond_4" transform="translate(-21.796875, -12)"><foreignObject width="43.59375" height="24"><div xmlns="http://www.w3.org/1999/xhtml" class="labelBkg" style="display: table-cell; white-space: nowrap; line-height: 1.5; max-width: 200px; text-align: center;"><span class="edgeLabel"><p>bonds</p></span></div></foreignObject></g></g><g class="edgeLabel" transform="translate(1215.3515625, 129)"><g class="label" data-id="id_SlaterKoster_SlaterKosterBond_5" transform="translate(-30.2421875, -12)"><foreignObject width="60.484375" height="24"><div xmlns="http://www.w3.org/1999/xhtml" class="labelBkg" style="display: table-cell; white-space: nowrap; line-height: 1.5; max-width: 200px; text-align: center;"><span class="edgeLabel"><p>overlaps</p></span></div></foreignObject></g></g></g><g class="nodes"><g class="node default" id="classId-APWLocalOrbital-0" transform="translate(85.34375, 50)"><g class="basic label-container"><path d="M-77.34375 -42 L77.34375 -42 L77.34375 42 L-77.34375 42" stroke="none" stroke-width="0" fill="#ECECFF" style=""/><path d="M-77.34375 -42 C-39.00261716253052 -42, -0.6614843250610392 -42, 77.34375 -42 M-77.34375 -42 C-42.24261737064265 -42, -7.141484741285296 -42, 77.34375 -42 M77.34375 -42 C77.34375 -9.495802628562842, 77.34375 23.008394742874316, 77.34375 42 M77.34375 -42 C77.34375 -20.74857604660772, 77.34375 0.5028479067845595, 77.34375 42 M77.34375 42 C24.78409743594097 42, -27.775555128118057 42, -77.34375 42 M77.34375 42 C23.008535407414065 42, -31.32667918517187 42, -77.34375 42 M-77.34375 42 C-77.34375 18.021643690180337, -77.34375 -5.956712619639326, -77.34375 -42 M-77.34375 42 C-77.34375 10.976543035947355, -77.34375 -20.04691392810529, -77.34375 -42" stroke="#9370DB" stroke-width="1.3" fill="none" stroke-dasharray="0 0" style=""/></g><g class="annotation-group text" transform="translate(0, -18)"/><g class="label-group text" transform="translate(-65.34375, -18)"><g class="label" style="font-weight: bolder" transform="translate(0,-12)"><foreignObject width="130.6875" height="24"><div xmlns="http://www.w3.org/1999/xhtml" style="display: table-cell; white-space: nowrap; line-height: 1.5; max-width: 168px; text-align: center;"><span class="nodeLabel markdown-node-label" style=""><p>APWLocalOrbital</p></span></div></foreignObject></g></g><g class="members-group text" transform="translate(-65.34375, 30)"/><g class="methods-group text" transform="translate(-65.34375, 60)"/><g class="divider" style=""><path d="M-77.34375 6 C-22.028985415174198 6, 33.285779169651605 6, 77.34375 6 M-77.34375 6 C-46.244887687522876 6, -15.146025375045745 6, 77.34375 6" stroke="#9370DB" stroke-width="1.3" fill="none" stroke-dasharray="0 0" style=""/></g></g><g class="node default" id="classId-APWOrbital-1" transform="translate(269.1328125, 50)"><g class="basic label-container"><path d="M-56.4453125 -42 L56.4453125 -42 L56.4453125 42 L-56.4453125 42" stroke="none" stroke-width="0" fill="#ECECFF" style=""/><path d="M-56.4453125 -42 C-21.25604989825421 -42, 13.933212703491577 -42, 56.4453125 -42 M-56.4453125 -42 C-21.022432927999333 -42, 14.400446644001335 -42, 56.4453125 -42 M56.4453125 -42 C56.4453125 -11.688985871817327, 56.4453125 18.622028256365347, 56.4453125 42 M56.4453125 -42 C56.4453125 -24.37225408062636, 56.4453125 -6.744508161252718, 56.4453125 42 M56.4453125 42 C31.957646627309128 42, 7.4699807546182555 42, -56.4453125 42 M56.4453125 42 C31.200426631489655 42, 5.955540762979311 42, -56.4453125 42 M-56.4453125 42 C-56.4453125 8.754148165220549, -56.4453125 -24.491703669558902, -56.4453125 -42 M-56.4453125 42 C-56.4453125 24.08514279897039, -56.4453125 6.170285597940783, -56.4453125 -42" stroke="#9370DB" stroke-width="1.3" fill="none" stroke-dasharray="0 0" style=""/></g><g class="annotation-group text" transform="translate(0, -18)"/><g class="label-group text" transform="translate(-44.4453125, -18)"><g class="label" style="font-weight: bolder" transform="translate(0,-12)"><foreignObject width="88.890625" height="24"><div xmlns="http://www.w3.org/1999/xhtml" style="display: table-cell; white-space: nowrap; line-height: 1.5; max-width: 131px; text-align: center;"><span class="nodeLabel markdown-node-label" style=""><p>APWOrbital</p></span></div></foreignObject></g></g><g class="members-group text" transform="translate(-44.4453125, 30)"/><g class="methods-group text" transform="translate(-44.4453125, 60)"/><g class="divider" style=""><path d="M-56.4453125 6 C-18.881144011501362 6, 18.683024476997275 6, 56.4453125 6 M-56.4453125 6 C-26.39587125164466 6, 3.6535699967106794 6, 56.4453125 6" stroke="#9370DB" stroke-width="1.3" fill="none" stroke-dasharray="0 0" style=""/></g></g><g class="node default" id="classId-APWPlaneWaveBasisSet-2" transform="translate(481.984375, 50)"><g class="basic label-container"><path d="M-106.40625 -42 L106.40625 -42 L106.40625 42 L-106.40625 42" stroke="none" stroke-width="0" fill="#ECECFF" style=""/><path d="M-106.40625 -42 C-41.672202775111415 -42, 23.06184444977717 -42, 106.40625 -42 M-106.40625 -42 C-51.592031092583845 -42, 3.22218781483231 -42, 106.40625 -42 M106.40625 -42 C106.40625 -19.88475973122339, 106.40625 2.2304805375532197, 106.40625 42 M106.40625 -42 C106.40625 -14.822312834254205, 106.40625 12.35537433149159, 106.40625 42 M106.40625 42 C30.76751360233763 42, -44.87122279532474 42, -106.40625 42 M106.40625 42 C56.16105621492434 42, 5.915862429848687 42, -106.40625 42 M-106.40625 42 C-106.40625 21.620254555985547, -106.40625 1.2405091119710931, -106.40625 -42 M-106.40625 42 C-106.40625 15.346760157773485, -106.40625 -11.30647968445303, -106.40625 -42" stroke="#9370DB" stroke-width="1.3" fill="none" stroke-dasharray="0 0" style=""/></g><g class="annotation-group text" transform="translate(0, -18)"/><g class="label-group text" transform="translate(-94.40625, -18)"><g class="label" style="font-weight: bolder" transform="translate(0,-12)"><foreignObject width="188.8125" height="24"><div xmlns="http://www.w3.org/1999/xhtml" style="display: table-cell; white-space: nowrap; line-height: 1.5; max-width: 213px; text-align: center;"><span class="nodeLabel markdown-node-label" style=""><p>APWPlaneWaveBasisSet</p></span></div></foreignObject></g></g><g class="members-group text" transform="translate(-94.40625, 30)"/><g class="methods-group text" transform="translate(-94.40625, 60)"/><g class="divider" style=""><path d="M-106.40625 6 C-42.60115522992185 6, 21.2039395401563 6, 106.40625 6 M-106.40625 6 C-29.331886329503163 6, 47.74247734099367 6, 106.40625 6" stroke="#9370DB" stroke-width="1.3" fill="none" stroke-dasharray="0 0" style=""/></g></g><g class="node default" id="classId-AtomCenteredBasisSet-3" transform="translate(739.3046875, 50)"><g class="basic label-container"><path d="M-100.9140625 -42 L100.9140625 -42 L100.9140625 42 L-100.9140625 42" stroke="none" stroke-width="0" fill="#ECECFF" style=""/><path d="M-100.9140625 -42 C-31.37409451262195 -42, 38.1658734747561 -42, 100.9140625 -42 M-100.9140625 -42 C-33.43632539056942 -42, 34.041411718861156 -42, 100.9140625 -42 M100.9140625 -42 C100.9140625 -21.983553265179722, 100.9140625 -1.9671065303594446, 100.9140625 42 M100.9140625 -42 C100.9140625 -23.559383115988023, 100.9140625 -5.118766231976046, 100.9140625 42 M100.9140625 42 C52.02626037719405 42, 3.138458254388098 42, -100.9140625 42 M100.9140625 42 C27.181427462415854 42, -46.55120757516829 42, -100.9140625 42 M-100.9140625 42 C-100.9140625 21.410127539717966, -100.9140625 0.8202550794359311, -100.9140625 -42 M-100.9140625 42 C-100.9140625 22.35979025421708, -100.9140625 2.719580508434163, -100.9140625 -42" stroke="#9370DB" stroke-width="1.3" fill="none" stroke-dasharray="0 0" style=""/></g><g class="annotation-group text" transform="translate(0, -18)"/><g class="label-group text" transform="translate(-88.9140625, -18)"><g class="label" style="font-weight: bolder" transform="translate(0,-12)"><foreignObject width="177.828125" height="24"><div xmlns="http://www.w3.org/1999/xhtml" style="display: table-cell; white-space: nowrap; line-height: 1.5; max-width: 200px; text-align: center;"><span class="nodeLabel markdown-node-label" style=""><p>AtomCenteredBasisSet</p></span></div></foreignObject></g></g><g class="members-group text" transform="translate(-88.9140625, 30)"/><g class="methods-group text" transform="translate(-88.9140625, 60)"/><g class="divider" style=""><path d="M-100.9140625 6 C-45.56250035479832 6, 9.789061790403366 6, 100.9140625 6 M-100.9140625 6 C-54.94283220320925 6, -8.971601906418499 6, 100.9140625 6" stroke="#9370DB" stroke-width="1.3" fill="none" stroke-dasharray="0 0" style=""/></g></g><g class="node default" id="classId-AtomCenteredFunction-4" transform="translate(515.01953125, 208)"><g class="basic label-container"><path d="M-100.890625 -42 L100.890625 -42 L100.890625 42 L-100.890625 42" stroke="none" stroke-width="0" fill="#ECECFF" style=""/><path d="M-100.890625 -42 C-46.886136021471856 -42, 7.118352957056288 -42, 100.890625 -42 M-100.890625 -42 C-36.682211400004775 -42, 27.52620219999045 -42, 100.890625 -42 M100.890625 -42 C100.890625 -8.83548579716475, 100.890625 24.3290284056705, 100.890625 42 M100.890625 -42 C100.890625 -8.512655922661232, 100.890625 24.974688154677537, 100.890625 42 M100.890625 42 C56.78789281998454 42, 12.685160639969084 42, -100.890625 42 M100.890625 42 C42.26094955918799 42, -16.368725881624016 42, -100.890625 42 M-100.890625 42 C-100.890625 23.5250083701949, -100.890625 5.0500167403898, -100.890625 -42 M-100.890625 42 C-100.890625 20.903608637620238, -100.890625 -0.19278272475952463, -100.890625 -42" stroke="#9370DB" stroke-width="1.3" fill="none" stroke-dasharray="0 0" style=""/></g><g class="annotation-group text" transform="translate(0, -18)"/><g class="label-group text" transform="translate(-88.890625, -18)"><g class="label" style="font-weight: bolder" transform="translate(0,-12)"><foreignObject width="177.78125" height="24"><div xmlns="http://www.w3.org/1999/xhtml" style="display: table-cell; white-space: nowrap; line-height: 1.5; max-width: 201px; text-align: center;"><span class="nodeLabel markdown-node-label" style=""><p>AtomCenteredFunction</p></span></div></foreignObject></g></g><g class="members-group text" transform="translate(-88.890625, 30)"/><g class="methods-group text" transform="translate(-88.890625, 60)"/><g class="divider" style=""><path d="M-100.890625 6 C-33.95278726669875 6, 32.9850504666025 6, 100.890625 6 M-100.890625 6 C-57.58884209136803 6, -14.287059182736058 6, 100.890625 6" stroke="#9370DB" stroke-width="1.3" fill="none" stroke-dasharray="0 0" style=""/></g></g><g class="node default" id="classId-AtomicOrbitals-5" transform="translate(735.25390625, 208)"><g class="basic label-container"><path d="M-69.34375 -42 L69.34375 -42 L69.34375 42 L-69.34375 42" stroke="none" stroke-width="0" fill="#ECECFF" style=""/><path d="M-69.34375 -42 C-25.824280702558518 -42, 17.695188594882964 -42, 69.34375 -42 M-69.34375 -42 C-17.302253516046356 -42, 34.73924296790729 -42, 69.34375 -42 M69.34375 -42 C69.34375 -18.49525629839264, 69.34375 5.00948740321472, 69.34375 42 M69.34375 -42 C69.34375 -14.547005899430065, 69.34375 12.90598820113987, 69.34375 42 M69.34375 42 C40.64700014465876 42, 11.950250289317516 42, -69.34375 42 M69.34375 42 C40.626181670322765 42, 11.90861334064553 42, -69.34375 42 M-69.34375 42 C-69.34375 15.396926807960213, -69.34375 -11.206146384079574, -69.34375 -42 M-69.34375 42 C-69.34375 10.960353014009034, -69.34375 -20.079293971981933, -69.34375 -42" stroke="#9370DB" stroke-width="1.3" fill="none" stroke-dasharray="0 0" style=""/></g><g class="annotation-group text" transform="translate(0, -18)"/><g class="label-group text" transform="translate(-57.34375, -18)"><g class="label" style="font-weight: bolder" transform="translate(0,-12)"><foreignObject width="114.6875" height="24"><div xmlns="http://www.w3.org/1999/xhtml" style="display: table-cell; white-space: nowrap; line-height: 1.5; max-width: 150px; text-align: center;"><span class="nodeLabel markdown-node-label" style=""><p>AtomicOrbitals</p></span></div></foreignObject></g></g><g class="members-group text" transform="translate(-57.34375, 30)"/><g class="methods-group text" transform="translate(-57.34375, 60)"/><g class="divider" style=""><path d="M-69.34375 6 C-21.72790320495934 6, 25.88794359008132 6, 69.34375 6 M-69.34375 6 C-31.640953001300076 6, 6.061843997399848 6, 69.34375 6" stroke="#9370DB" stroke-width="1.3" fill="none" stroke-dasharray="0 0" style=""/></g></g><g class="node default" id="classId-EffectiveCorePotential-6" transform="translate(951.95703125, 208)"><g class="basic label-container"><path d="M-97.359375 -42 L97.359375 -42 L97.359375 42 L-97.359375 42" stroke="none" stroke-width="0" fill="#ECECFF" style=""/><path d="M-97.359375 -42 C-21.301873906761358 -42, 54.755627186477284 -42, 97.359375 -42 M-97.359375 -42 C-50.90621299011188 -42, -4.4530509802237646 -42, 97.359375 -42 M97.359375 -42 C97.359375 -10.042145995230442, 97.359375 21.915708009539117, 97.359375 42 M97.359375 -42 C97.359375 -9.069199240255273, 97.359375 23.861601519489454, 97.359375 42 M97.359375 42 C25.468976380790494 42, -46.42142223841901 42, -97.359375 42 M97.359375 42 C20.629537681756673 42, -56.10029963648665 42, -97.359375 42 M-97.359375 42 C-97.359375 14.358575968049198, -97.359375 -13.282848063901604, -97.359375 -42 M-97.359375 42 C-97.359375 17.581735611198408, -97.359375 -6.836528777603185, -97.359375 -42" stroke="#9370DB" stroke-width="1.3" fill="none" stroke-dasharray="0 0" style=""/></g><g class="annotation-group text" transform="translate(0, -18)"/><g class="label-group text" transform="translate(-85.359375, -18)"><g class="label" style="font-weight: bolder" transform="translate(0,-12)"><foreignObject width="170.71875" height="24"><div xmlns="http://www.w3.org/1999/xhtml" style="display: table-cell; white-space: nowrap; line-height: 1.5; max-width: 197px; text-align: center;"><span class="nodeLabel markdown-node-label" style=""><p>EffectiveCorePotential</p></span></div></foreignObject></g></g><g class="members-group text" transform="translate(-85.359375, 30)"/><g class="methods-group text" transform="translate(-85.359375, 60)"/><g class="divider" style=""><path d="M-97.359375 6 C-31.155739769190134 6, 35.04789546161973 6, 97.359375 6 M-97.359375 6 C-54.69736719030199 6, -12.035359380603978 6, 97.359375 6" stroke="#9370DB" stroke-width="1.3" fill="none" stroke-dasharray="0 0" style=""/></g></g><g class="node default" id="classId-PlaneWaveBasisSet-7" transform="translate(982.01171875, 50)"><g class="basic label-container"><path d="M-87.7421875 -42 L87.7421875 -42 L87.7421875 42 L-87.7421875 42" stroke="none" stroke-width="0" fill="#ECECFF" style=""/><path d="M-87.7421875 -42 C-48.043910929935244 -42, -8.345634359870488 -42, 87.7421875 -42 M-87.7421875 -42 C-21.75023071238064 -42, 44.24172607523872 -42, 87.7421875 -42 M87.7421875 -42 C87.7421875 -20.7144271152866, 87.7421875 0.5711457694267992, 87.7421875 42 M87.7421875 -42 C87.7421875 -23.2666395310341, 87.7421875 -4.533279062068203, 87.7421875 42 M87.7421875 42 C26.36040134827538 42, -35.02138480344924 42, -87.7421875 42 M87.7421875 42 C48.88209986825032 42, 10.022012236500643 42, -87.7421875 42 M-87.7421875 42 C-87.7421875 8.606876211803012, -87.7421875 -24.786247576393976, -87.7421875 -42 M-87.7421875 42 C-87.7421875 18.107009332210417, -87.7421875 -5.785981335579166, -87.7421875 -42" stroke="#9370DB" stroke-width="1.3" fill="none" stroke-dasharray="0 0" style=""/></g><g class="annotation-group text" transform="translate(0, -18)"/><g class="label-group text" transform="translate(-75.7421875, -18)"><g class="label" style="font-weight: bolder" transform="translate(0,-12)"><foreignObject width="151.484375" height="24"><div xmlns="http://www.w3.org/1999/xhtml" style="display: table-cell; white-space: nowrap; line-height: 1.5; max-width: 177px; text-align: center;"><span class="nodeLabel markdown-node-label" style=""><p>PlaneWaveBasisSet</p></span></div></foreignObject></g></g><g class="members-group text" transform="translate(-75.7421875, 30)"/><g class="methods-group text" transform="translate(-75.7421875, 60)"/><g class="divider" style=""><path d="M-87.7421875 6 C-28.35344589294108 6, 31.035295714117836 6, 87.7421875 6 M-87.7421875 6 C-49.150725856003206 6, -10.559264212006411 6, 87.7421875 6" stroke="#9370DB" stroke-width="1.3" fill="none" stroke-dasharray="0 0" style=""/></g></g><g class="node default" id="classId-SlaterKoster-8" transform="translate(1179.33203125, 50)"><g class="basic label-container"><path d="M-59.578125 -42 L59.578125 -42 L59.578125 42 L-59.578125 42" stroke="none" stroke-width="0" fill="#ECECFF" style=""/><path d="M-59.578125 -42 C-32.87855126999327 -42, -6.178977539986533 -42, 59.578125 -42 M-59.578125 -42 C-27.978102727100005 -42, 3.62191954579999 -42, 59.578125 -42 M59.578125 -42 C59.578125 -13.789005713555685, 59.578125 14.42198857288863, 59.578125 42 M59.578125 -42 C59.578125 -20.150319505294906, 59.578125 1.699360989410188, 59.578125 42 M59.578125 42 C15.127591124207335 42, -29.32294275158533 42, -59.578125 42 M59.578125 42 C28.4799832306174 42, -2.6181585387652007 42, -59.578125 42 M-59.578125 42 C-59.578125 18.735268010210078, -59.578125 -4.529463979579845, -59.578125 -42 M-59.578125 42 C-59.578125 21.847246958125417, -59.578125 1.6944939162508348, -59.578125 -42" stroke="#9370DB" stroke-width="1.3" fill="none" stroke-dasharray="0 0" style=""/></g><g class="annotation-group text" transform="translate(0, -18)"/><g class="label-group text" transform="translate(-47.578125, -18)"><g class="label" style="font-weight: bolder" transform="translate(0,-12)"><foreignObject width="95.15625" height="24"><div xmlns="http://www.w3.org/1999/xhtml" style="display: table-cell; white-space: nowrap; line-height: 1.5; max-width: 131px; text-align: center;"><span class="nodeLabel markdown-node-label" style=""><p>SlaterKoster</p></span></div></foreignObject></g></g><g class="members-group text" transform="translate(-47.578125, 30)"/><g class="methods-group text" transform="translate(-47.578125, 60)"/><g class="divider" style=""><path d="M-59.578125 6 C-16.516589864181157 6, 26.544945271637687 6, 59.578125 6 M-59.578125 6 C-23.55316215870957 6, 12.471800682580863 6, 59.578125 6" stroke="#9370DB" stroke-width="1.3" fill="none" stroke-dasharray="0 0" style=""/></g></g><g class="node default" id="classId-SlaterKosterBond-9" transform="translate(1179.33203125, 208)"><g class="basic label-container"><path d="M-80.015625 -42 L80.015625 -42 L80.015625 42 L-80.015625 42" stroke="none" stroke-width="0" fill="#ECECFF" style=""/><path d="M-80.015625 -42 C-46.05092100331008 -42, -12.08621700662016 -42, 80.015625 -42 M-80.015625 -42 C-32.27142283318473 -42, 15.472779333630541 -42, 80.015625 -42 M80.015625 -42 C80.015625 -24.5123722071601, 80.015625 -7.024744414320203, 80.015625 42 M80.015625 -42 C80.015625 -21.686880832306283, 80.015625 -1.3737616646125659, 80.015625 42 M80.015625 42 C17.68695041520904 42, -44.64172416958192 42, -80.015625 42 M80.015625 42 C17.639356921881905 42, -44.73691115623619 42, -80.015625 42 M-80.015625 42 C-80.015625 9.824660488721172, -80.015625 -22.350679022557657, -80.015625 -42 M-80.015625 42 C-80.015625 13.623960257332897, -80.015625 -14.752079485334207, -80.015625 -42" stroke="#9370DB" stroke-width="1.3" fill="none" stroke-dasharray="0 0" style=""/></g><g class="annotation-group text" transform="translate(0, -18)"/><g class="label-group text" transform="translate(-68.015625, -18)"><g class="label" style="font-weight: bolder" transform="translate(0,-12)"><foreignObject width="136.03125" height="24"><div xmlns="http://www.w3.org/1999/xhtml" style="display: table-cell; white-space: nowrap; line-height: 1.5; max-width: 165px; text-align: center;"><span class="nodeLabel markdown-node-label" style=""><p>SlaterKosterBond</p></span></div></foreignObject></g></g><g class="members-group text" transform="translate(-68.015625, 30)"/><g class="methods-group text" transform="translate(-68.015625, 60)"/><g class="divider" style=""><path d="M-80.015625 6 C-37.790800105290586 6, 4.434024789418828 6, 80.015625 6 M-80.015625 6 C-33.24494501125972 6, 13.525734977480553 6, 80.015625 6" stroke="#9370DB" stroke-width="1.3" fill="none" stroke-dasharray="0 0" style=""/></g></g></g></g></g></svg>