<?xml version="1.0" encoding="UTF-8"?>
<svg id="my-svg" width="100%" xmlns="http://www.w3.org/2000/svg" xmlns:xlink="http://www.w3.org/1999/xlink" class="classDiagram" style="max-width: 166.281px; background-color: white;" viewBox="0 0 166.28125 368" role="graphics-document document" aria-roledescription="class"><style>#my-svg{font-family:"trebuchet ms",verdana,arial,sans-serif;font-size:16px;fill:#333;}@keyframes edge-animation-frame{from{stroke-dashoffset:0;}}@keyframes dash{to{stroke-dashoffset:0;}}#my-svg .edge-animation-slow{stroke-dasharray:9,5!important;stroke-dashoffset:900;animation:dash 50s linear infinite;stroke-linecap:round;}#my-svg .edge-animation-fast{stroke-dasharray:9,5!important;stroke-dashoffset:900;animation:dash 20s linear infinite;stroke-linecap:round;}#my-svg .error-icon{fill:#552222;}#my-svg .error-text{fill:#552222;stroke:#552222;}#my-svg .edge-thickness-normal{stroke-width:1px;}#my-svg .edge-thickness-thick{stroke-width:3.5px;}#my-svg .edge-pattern-solid{stroke-dasharray:0;}#my-svg .edge-thickness-invisible{stroke-width:0;fill:none;}#my-svg .edge-pattern-dashed{stroke-dasharray:3;}#my-svg .edge-pattern-dotted{stroke-dasharray:2;}#my-svg .marker{fill:#333333;stroke:#333333;}#my-svg .marker.cross{stroke:#333333;}#my-svg svg{font-family:"trebuchet ms",verdana,arial,sans-serif;font-size:16px;}#my-svg p{margin:0;}#my-svg g.classGroup text{fill:#9370DB;stroke:none;font-family:"trebuchet ms",verdana,arial,sans-serif;font-size:10px;}#my-svg g.classGroup text .title{font-weight:bolder;}#my-svg .nodeLabel,#my-svg .edgeLabel{color:#131300;}#my-svg .edgeLabel .label rect{fill:#ECECFF;}#my-svg .label text{fill:#131300;}#my-svg .labelBkg{background:#ECECFF;}#my-svg .edgeLabel .label span{background:#ECECFF;}#my-svg .classTitle{font-weight:bolder;}#my-svg .node rect,#my-svg .node circle,#my-svg .node ellipse,#my-svg .node polygon,#my-svg .node path{fill:#ECECFF;stroke:#9370DB;stroke-width:1px;}#my-svg .divider{stroke:#9370DB;stroke-width:1;}#my-svg g.clickable{cursor:pointer;}#my-svg g.classGroup rect{fill:#ECECFF;stroke:#9370DB;}#my-svg g.classGroup line{stroke:#9370DB;stroke-width:1;}#my-svg .classLabel .box{stroke:none;stroke-width:0;fill:#ECECFF;opacity:0.5;}#my-svg .classLabel .label{fill:#9370DB;font-size:10px;}#my-svg .relation{stroke:#333333;stroke-width:1;fill:none;}#my-svg .dashed-line{stroke-dasharray:3;}#my-svg .dotted-line{stroke-dasharray:1 2;}#my-svg #compositionStart,#my-svg .composition{fill:#333333!important;stroke:#333333!important;stroke-width:1;}#my-svg #compositionEnd,#my-svg .composition{fill:#333333!important;stroke:#333333!important;stroke-width:1;}#my-svg #dependencyStart,#my-svg .dependency{fill:#333333!important;stroke:#333333!important;stroke-width:1;}#my-svg #dependencyStart,#my-svg .dependency{fill:#333333!important;stroke:#333333!important;stroke-width:1;}#my-svg #extensionStart,#my-svg .extension{fill:transparent!important;stroke:#333333!important;stroke-width:1;}#my-svg #extensionEnd,#my-svg .extension{fill:transparent!important;stroke:#333333!important;stroke-width:1;}#my-svg #aggregationStart,#my-svg .aggregation{fill:transparent!important;stroke:#333333!important;stroke-width:1;}#my-svg #aggregationEnd,#my-svg .aggregation{fill:transparent!important;stroke:#333333!important;stroke-width:1;}#my-svg #lollipopStart,#my-svg .lollipop{fill:#ECECFF!important;stroke:#333333!important;stroke-width:1;}#my-svg #lollipopEnd,#my-svg .lollipop{fill:#ECECFF!important;stroke:#333333!important;stroke-width:1;}#my-svg .edgeTerminals{font-size:11px;line-height:initial;}#my-svg .classTitleText{text-anchor:middle;font-size:18px;fill:#333;}#my-svg .label-icon{display:inline-block;height:1em;overflow:visible;vertical-align:-0.125em;}#my-svg .node .label-icon path{fill:currentColor;stroke:revert;stroke-width:revert;}#my-svg :root{--mermaid-font-family:"trebuchet ms",verdana,arial,sans-serif;}</style><g><defs><marker id="my-svg_class-aggregationStart" class="marker aggregation class" refX="18" refY="7" markerWidth="190" markerHeight="240" orient="auto"><path d="M 18,7 L9,13 L1,7 L9,1 Z"/></marker></defs><defs><marker id="my-svg_class-aggregationEnd" class="marker aggregation class" refX="1" refY="7" markerWidth="20" markerHeight="28" orient="auto"><path d="M 18,7 L9,13 L1,7 L9,1 Z"/></marker></defs><defs><marker id="my-svg_class-extensionStart" class="marker extension class" refX="18" refY="7" markerWidth="190" markerHeight="240" orient="auto"><path d="M 1,7 L18,13 V 1 Z"/></marker></defs><defs><marker id="my-svg_class-extensionEnd" class="marker extension class" refX="1" refY="7" markerWidth="20" markerHeight="28" orient="auto"><path d="M 1,1 V 13 L18,7 Z"/></marker></defs><defs><marker id="my-svg_class-compositionStart" class="marker composition class" refX="18" refY="7" markerWidth="190" markerHeight="240" orient="auto"><path d="M 18,7 L9,13 L1,7 L9,1 Z"/></marker></defs><defs><marker id="my-svg_class-compositionEnd" class="marker composition class" refX="1" refY="7" markerWidth="20" markerHeight="28" orient="auto"><path d="M 18,7 L9,13 L1,7 L9,1 Z"/></marker></defs><defs><marker id="my-svg_class-dependencyStart" class="marker dependency class" refX="6" refY="7" markerWidth="190" markerHeight="240" orient="auto"><path d="M 5,7 L9,13 L1,7 L9,1 Z"/></marker></defs><defs><marker id="my-svg_class-dependencyEnd" class="marker dependency class" refX="13" refY="7" markerWidth="20" markerHeight="28" orient="auto"><path d="M 18,7 L9,13 L14,7 L9,1 Z"/></marker></defs><defs><marker id="my-svg_class-lollipopStart" class="marker lollipop class" refX="13" refY="7" markerWidth="190" markerHeight="240" orient="auto"><circle stroke="black" fill="transparent" cx="7" cy="7" r="6"/></marker></defs><defs><marker id="my-svg_class-lollipopEnd" class="marker lollipop class" refX="1" refY="7" markerWidth="190" markerHeight="240" orient="auto"><circle stroke="black" fill="transparent" cx="7" cy="7" r="6"/></marker></defs><g class="root"><g class="clusters"/><g class="edgePaths"><path d="M83.141,243.25L83.141,244.542C83.141,245.833,83.141,248.417,83.141,253.875C83.141,259.333,83.141,267.667,83.141,271.833L83.141,276" id="id_Cell_AtomicCell_1" class="edge-thickness-normal edge-pattern-solid relation" style=";;;" data-edge="true" data-et="edge" data-id="id_Cell_AtomicCell_1" data-points="W3sieCI6ODMuMTQwNjI1LCJ5IjoyMjZ9LHsieCI6ODMuMTQwNjI1LCJ5IjoyNTF9LHsieCI6ODMuMTQwNjI1LCJ5IjoyNzZ9XQ==" marker-start="url(#my-svg_class-extensionStart)"/><path d="M83.141,109.25L83.141,110.542C83.141,111.833,83.141,114.417,83.141,119.875C83.141,125.333,83.141,133.667,83.141,137.833L83.141,142" id="id_GeometricSpace_Cell_2" class="edge-thickness-normal edge-pattern-solid relation" style=";;;" data-edge="true" data-et="edge" data-id="id_GeometricSpace_Cell_2" data-points="W3sieCI6ODMuMTQwNjI1LCJ5Ijo5Mn0seyJ4Ijo4My4xNDA2MjUsInkiOjExN30seyJ4Ijo4My4xNDA2MjUsInkiOjE0Mn1d" marker-start="url(#my-svg_class-extensionStart)"/></g><g class="edgeLabels"><g class="edgeLabel"><g class="label" data-id="id_Cell_AtomicCell_1" transform="translate(0, 0)"><foreignObject width="0" height="0"><div xmlns="http://www.w3.org/1999/xhtml" class="labelBkg" style="display: table-cell; white-space: nowrap; line-height: 1.5; max-width: 200px; text-align: center;"><span class="edgeLabel"></span></div></foreignObject></g></g><g class="edgeLabel"><g class="label" data-id="id_GeometricSpace_Cell_2" transform="translate(0, 0)"><foreignObject width="0" height="0"><div xmlns="http://www.w3.org/1999/xhtml" class="labelBkg" style="display: table-cell; white-space: nowrap; line-height: 1.5; max-width: 200px; text-align: center;"><span class="edgeLabel"></span></div></foreignObject></g></g></g><g class="nodes"><g class="node default" id="classId-AtomicCell-0" transform="translate(83.140625, 318)"><g class="basic label-container"><path d="M-53.7890625 -42 L53.7890625 -42 L53.7890625 42 L-53.7890625 42" stroke="none" stroke-width="0" fill="#ECECFF" style=""/><path d="M-53.7890625 -42 C-24.226036844643684 -42, 5.336988810712633 -42, 53.7890625 -42 M-53.7890625 -42 C-22.08450927375917 -42, 9.620043952481659 -42, 53.7890625 -42 M53.7890625 -42 C53.7890625 -20.34398562031565, 53.7890625 1.312028759368701, 53.7890625 42 M53.7890625 -42 C53.7890625 -18.418051369378855, 53.7890625 5.16389726124229, 53.7890625 42 M53.7890625 42 C30.68286824638077 42, 7.576673992761542 42, -53.7890625 42 M53.7890625 42 C22.156164622194655 42, -9.47673325561069 42, -53.7890625 42 M-53.7890625 42 C-53.7890625 24.974014487179307, -53.7890625 7.948028974358614, -53.7890625 -42 M-53.7890625 42 C-53.7890625 20.73919748688552, -53.7890625 -0.5216050262289613, -53.7890625 -42" stroke="#9370DB" stroke-width="1.3" fill="none" stroke-dasharray="0 0" style=""/></g><g class="annotation-group text" transform="translate(0, -18)"/><g class="label-group text" transform="translate(-41.7890625, -18)"><g class="label" style="font-weight: bolder" transform="translate(0,-12)"><foreignObject width="83.578125" height="24"><div xmlns="http://www.w3.org/1999/xhtml" style="display: table-cell; white-space: nowrap; line-height: 1.5; max-width: 125px; text-align: center;"><span class="nodeLabel markdown-node-label" style=""><p>AtomicCell</p></span></div></foreignObject></g></g><g class="members-group text" transform="translate(-41.7890625, 30)"/><g class="methods-group text" transform="translate(-41.7890625, 60)"/><g class="divider" style=""><path d="M-53.7890625 6 C-19.39469738731382 6, 14.999667725372362 6, 53.7890625 6 M-53.7890625 6 C-11.901715436079101 6, 29.985631627841798 6, 53.7890625 6" stroke="#9370DB" stroke-width="1.3" fill="none" stroke-dasharray="0 0" style=""/></g></g><g class="node default" id="classId-Cell-1" transform="translate(83.140625, 184)"><g class="basic label-container"><path d="M-26.671875 -42 L26.671875 -42 L26.671875 42 L-26.671875 42" stroke="none" stroke-width="0" fill="#ECECFF" style=""/><path d="M-26.671875 -42 C-8.57225754927902 -42, 9.527359901441962 -42, 26.671875 -42 M-26.671875 -42 C-11.042794350507936 -42, 4.5862862989841275 -42, 26.671875 -42 M26.671875 -42 C26.671875 -15.673079384485895, 26.671875 10.65384123102821, 26.671875 42 M26.671875 -42 C26.671875 -17.58515991757358, 26.671875 6.829680164852839, 26.671875 42 M26.671875 42 C5.381416765870927 42, -15.909041468258145 42, -26.671875 42 M26.671875 42 C11.42008356604237 42, -3.8317078679152594 42, -26.671875 42 M-26.671875 42 C-26.671875 9.906966166261306, -26.671875 -22.18606766747739, -26.671875 -42 M-26.671875 42 C-26.671875 18.15768415370497, -26.671875 -5.6846316925900595, -26.671875 -42" stroke="#9370DB" stroke-width="1.3" fill="none" stroke-dasharray="0 0" style=""/></g><g class="annotation-group text" transform="translate(0, -18)"/><g class="label-group text" transform="translate(-14.671875, -18)"><g class="label" style="font-weight: bolder" transform="translate(0,-12)"><foreignObject width="29.34375" height="24"><div xmlns="http://www.w3.org/1999/xhtml" style="display: table-cell; white-space: nowrap; line-height: 1.5; max-width: 77px; text-align: center;"><span class="nodeLabel markdown-node-label" style=""><p>Cell</p></span></div></foreignObject></g></g><g class="members-group text" transform="translate(-14.671875, 30)"/><g class="methods-group text" transform="translate(-14.671875, 60)"/><g class="divider" style=""><path d="M-26.671875 6 C-7.870063990100316 6, 10.931747019799367 6, 26.671875 6 M-26.671875 6 C-7.6714813021149695 6, 11.328912395770061 6, 26.671875 6" stroke="#9370DB" stroke-width="1.3" fill="none" stroke-dasharray="0 0" style=""/></g></g><g class="node default" id="classId-GeometricSpace-2" transform="translate(83.140625, 50)"><g class="basic label-container"><path d="M-75.140625 -42 L75.140625 -42 L75.140625 42 L-75.140625 42" stroke="none" stroke-width="0" fill="#ECECFF" style=""/><path d="M-75.140625 -42 C-20.529001983349787 -42, 34.08262103330043 -42, 75.140625 -42 M-75.140625 -42 C-44.42148975243902 -42, -13.702354504878045 -42, 75.140625 -42 M75.140625 -42 C75.140625 -23.614726365270123, 75.140625 -5.229452730540245, 75.140625 42 M75.140625 -42 C75.140625 -18.25730796556915, 75.140625 5.485384068861698, 75.140625 42 M75.140625 42 C37.42463860073897 42, -0.29134779852205384 42, -75.140625 42 M75.140625 42 C27.221165883264852 42, -20.698293233470295 42, -75.140625 42 M-75.140625 42 C-75.140625 20.53034337144475, -75.140625 -0.9393132571104985, -75.140625 -42 M-75.140625 42 C-75.140625 22.3757135607833, -75.140625 2.7514271215666, -75.140625 -42" stroke="#9370DB" stroke-width="1.3" fill="none" stroke-dasharray="0 0" style=""/></g><g class="annotation-group text" transform="translate(0, -18)"/><g class="label-group text" transform="translate(-63.140625, -18)"><g class="label" style="font-weight: bolder" transform="translate(0,-12)"><foreignObject width="126.28125" height="24"><div xmlns="http://www.w3.org/1999/xhtml" style="display: table-cell; white-space: nowrap; line-height: 1.5; max-width: 156px; text-align: center;"><span class="nodeLabel markdown-node-label" style=""><p>GeometricSpace</p></span></div></foreignObject></g></g><g class="members-group text" transform="translate(-63.140625, 30)"/><g class="methods-group text" transform="translate(-63.140625, 60)"/><g class="divider" style=""><path d="M-75.140625 6 C-21.648818149049127 6, 31.842988701901746 6, 75.140625 6 M-75.140625 6 C-25.28610972330838 6, 24.568405553383244 6, 75.140625 6" stroke="#9370DB" stroke-width="1.3" fill="none" stroke-dasharray="0 0" style=""/></g></g></g></g></g></svg>