<?xml version="1.0" encoding="UTF-8"?>
<svg id="my-svg" width="100%" xmlns="http://www.w3.org/2000/svg" xmlns:xlink="http://www.w3.org/1999/xlink" class="classDiagram" style="max-width: 166.281px; background-color: white;" viewBox="0 0 166.28125 368" role="graphics-document document" aria-roledescription="class"><style>#my-svg{font-family:"trebuchet ms",verdana,arial,sans-serif;font-size:16px;fill:#333;}@keyframes edge-animation-frame{from{stroke-dashoffset:0;}}@keyframes dash{to{stroke-dashoffset:0;}}#my-svg .edge-animation-slow{stroke-dasharray:9,5!important;stroke-dashoffset:900;animation:dash 50s linear infinite;stroke-linecap:round;}#my-svg .edge-animation-fast{stroke-dasharray:9,5!important;stroke-dashoffset:900;animation:dash 20s linear infinite;stroke-linecap:round;}#my-svg .error-icon{fill:#552222;}#my-svg .error-text{fill:#552222;stroke:#552222;}#my-svg .edge-thickness-normal{stroke-width:1px;}#my-svg .edge-thickness-thick{stroke-width:3.5px;}#my-svg .edge-pattern-solid{stroke-dasharray:0;}#my-svg .edge-thickness-invisible{stroke-width:0;fill:none;}#my-svg .edge-pattern-dashed{stroke-dasharray:3;}#my-svg .edge-pattern-dotted{stroke-dasharray:2;}#my-svg .marker{fill:#333333;stroke:#333333;}#my-svg .marker.cross{stroke:#333333;}#my-svg svg{font-family:"trebuchet ms",verdana,arial,sans-serif;font-size:16px;}#my-svg p{margin:0;}#my-svg g.classGroup text{fill:#9370DB;stroke:none;font-family:"trebuchet ms",verdana,arial,sans-serif;font-size:10px;}#my-svg g.classGroup text .title{font-weight:bolder;}#my-svg .nodeLabel,#my-svg .edgeLabel{color:#131300;}#my-svg .edgeLabel .label rect{fill:#ECECFF;}#my-svg .label text{fill:#131300;}#my-svg .labelBkg{background:#ECECFF;}#my-svg .edgeLabel .label span{background:#ECECFF;}#my-svg .classTitle{font-weight:bolder;}#my-svg .node rect,#my-svg .node circle,#my-svg .node ellipse,#my-svg .node polygon,#my-svg .node path{fill:#ECECFF;stroke:#9370DB;stroke-width:1px;}#my-svg .divider{stroke:#9370DB;stroke-width:1;}#my-svg g.clickable{cursor:pointer;}#my-svg g.classGroup rect{fill:#ECECFF;stroke:#9370DB;}#my-svg g.classGroup line{stroke:#9370DB;stroke-width:1;}#my-svg .classLabel .box{stroke:none;stroke-width:0;fill:#ECECFF;opacity:0.5;}#my-svg .classLabel .label{fill:#9370DB;font-size:10px;}#my-svg .relation{stroke:#333333;stroke-width:1;fill:none;}#my-svg .dashed-line{stroke-dasharray:3;}#my-svg .dotted-line{stroke-dasharray:1 2;}#my-svg #compositionStart,#my-svg .composition{fill:#333333!important;stroke:#333333!important;stroke-width:1;}#my-svg #compositionEnd,#my-svg .composition{fill:#333333!important;stroke:#333333!important;stroke-width:1;}#my-svg #dependencyStart,#my-svg .dependency{fill:#333333!important;stroke:#333333!important;stroke-width:1;}#my-svg #dependencyStart,#my-svg .dependency{fill:#333333!important;stroke:#333333!important;stroke-width:1;}#my-svg #extensionStart,#my-svg .extension{fill:transparent!important;stroke:#333333!important;stroke-width:1;}#my-svg #extensionEnd,#my-svg .extension{fill:transparent!important;stroke:#333333!important;stroke-width:1;}#my-svg #aggregationStart,#my-svg .aggregation{fill:transparent!important;stroke:#333333!important;stroke-width:1;}#my-svg #aggregationEnd,#my-svg .aggregation{fill:transparent!important;stroke:#333333!important;stroke-width:1;}#my-svg #lollipopStart,#my-svg .lollipop{fill:#ECECFF!important;stroke:#333333!important;stroke-width:1;}#my-svg #lollipopEnd,#my-svg .lollipop{fill:#ECECFF!important;stroke:#333333!important;stroke-width:1;}#my-svg .edgeTerminals{font-size:11px;line-height:initial;}#my-svg .classTitleText{text-anchor:middle;font-size:18px;fill:#333;}#my-svg .label-icon{display:inline-block;height:1em;overflow:visible;vertical-align:-0.125em;}#my-svg .node .label-icon path{fill:currentColor;stroke:revert;stroke-width:revert;}#my-svg :root{--mermaid-font-family:"trebuchet ms",verdana,arial,sans-serif;}</style><g><defs><marker id="my-svg_class-aggregationStart" class="marker aggregation class" refX="18" refY="7" markerWidth="190" markerHeight="240" orient="auto"><path d="M 18,7 L9,13 L1,7 L9,1 Z"/></marker></defs><defs><marker id="my-svg_class-aggregationEnd" class="marker aggregation class" refX="1" refY="7" markerWidth="20" markerHeight="28" orient="auto"><path d="M 18,7 L9,13 L1,7 L9,1 Z"/></marker></defs><defs><marker id="my-svg_class-extensionStart" class="marker extension class" refX="18" refY="7" markerWidth="190" markerHeight="240" orient="auto"><path d="M 1,7 L18,13 V 1 Z"/></marker></defs><defs><marker id="my-svg_class-extensionEnd" class="marker extension class" refX="1" refY="7" markerWidth="20" markerHeight="28" orient="auto"><path d="M 1,1 V 13 L18,7 Z"/></marker></defs><defs><marker id="my-svg_class-compositionStart" class="marker composition class" refX="18" refY="7" markerWidth="190" markerHeight="240" orient="auto"><path d="M 18,7 L9,13 L1,7 L9,1 Z"/></marker></defs><defs><marker id="my-svg_class-compositionEnd" class="marker composition class" refX="1" refY="7" markerWidth="20" markerHeight="28" orient="auto"><path d="M 18,7 L9,13 L1,7 L9,1 Z"/></marker></defs><defs><marker id="my-svg_class-dependencyStart" class="marker dependency class" refX="6" refY="7" markerWidth="190" markerHeight="240" orient="auto"><path d="M 5,7 L9,13 L1,7 L9,1 Z"/></marker></defs><defs><marker id="my-svg_class-dependencyEnd" class="marker dependency class" refX="13" refY="7" markerWidth="20" markerHeight="28" orient="auto"><path d="M 18,7 L9,13 L14,7 L9,1 Z"/></marker></defs><defs><marker id="my-svg_class-lollipopStart" class="marker lollipop class" refX="13" refY="7" markerWidth="190" markerHeight="240" orient="auto"><circle stroke="black" fill="transparent" cx="7" cy="7" r="6"/></marker></defs><defs><marker id="my-svg_class-lollipopEnd" class="marker lollipop class" refX="1" refY="7" markerWidth="190" markerHeight="240" orient="auto"><circle stroke="black" fill="transparent" cx="7" cy="7" r="6"/></marker></defs><g class="root"><g class="clusters"/><g class="edgePaths"><path d="M83.141,243.25L83.141,244.542C83.141,245.833,83.141,248.417,83.141,253.875C83.141,259.333,83.141,267.667,83.141,271.833L83.141,276" id="id_Cell_AtomicCell_1" class="edge-thickness-normal edge-pattern-solid relation" style=";;;" data-edge="true" data-et="edge" data-id="id_Cell_AtomicCell_1" data-points="W3sieCI6ODMuMTQwNjI1LCJ5IjoyMjZ9LHsieCI6ODMuMTQwNjI1LCJ5IjoyNTF9LHsieCI6ODMuMTQwNjI1LCJ5IjoyNzZ9XQ==" marker-start="url(#my-svg_class-extensionStart)"/><path d="M83.141,109.25L83.141,110.542C83.141,111.833,83.141,114.417,83.141,119.875C83.141,125.333,83.141,133.667,83.141,137.833L83.141,142" id="id_GeometricSpace_Cell_2" class="edge-thickness-normal edge-pattern-solid relation" style=";;;" data-edge="true" data-et="edge" data-id="id_GeometricSpace_Cell_2" data-points="W3sieCI6ODMuMTQwNjI1LCJ5Ijo5Mn0seyJ4Ijo4My4xNDA2MjUsInkiOjExN30seyJ4Ijo4My4xNDA2MjUsInkiOjE0Mn1d" marker-start="url(#my-svg_class-extensionStart)"/></g><g class="edgeLabels"><g class="edgeLabel"><g class="label" data-id="id_Cell_AtomicCell_1" transform="translate(0, 0)"><foreignObject width="0" height="0"><div xmlns="http://www.w3.org/1999/xhtml" class="labelBkg" style="display: table-cell; white-space: nowrap; line-height: 1.5; max-width: 200px; text-align: center;"><span class="edgeLabel"></span></div></foreignObject></g></g><g class="edgeLabel"><g class="label" data-id="id_GeometricSpace_Cell_2" transform="translate(0, 0)"><foreignObject width="0" height="0"><div xmlns="http://www.w3.org/1999/xhtml" class="labelBkg" style="display: table-cell; white-space: nowrap; line-height: 1.5; max-width: 200px; text-align: center;"><span class="edgeLabel"></span></div></foreignObject></g></g></g><g class="nodes"><g class="node default" id="classId-AtomicCell-0" transform="translate(83.140625, 318)"><g class="basic label-container"><path d="M-53.7890625 -42 L53.7890625 -42 L53.7890625 42 L-53.7890625 42" stroke="none" stroke-width="0" fill="#ECECFF" style=""/><path d="M-53.7890625 -42 C-15.348182839998174 -42, 23.092696820003653 -42, 53.7890625 -42 M-53.7890625 -42 C-19.902612945901758 -42, 13.983836608196484 -42, 53.7890625 -42 M53.7890625 -42 C53.7890625 -12.316767747125567, 53.7890625 17.366464505748866, 53.7890625 42 M53.7890625 -42 C53.7890625 -10.014704220910488, 53.7890625 21.970591558179024, 53.7890625 42 M53.7890625 42 C13.732476749464965 42, -26.32410900107007 42, -53.7890625 42 M53.7890625 42 C28.895923793350494 42, 4.002785086700989 42, -53.7890625 42 M-53.7890625 42 C-53.7890625 21.890157475216405, -53.7890625 1.7803149504328104, -53.7890625 -42 M-53.7890625 42 C-53.7890625 21.765656102554832, -53.7890625 1.5313122051096641, -53.7890625 -42" stroke="#9370DB" stroke-width="1.3" fill="none" stroke-dasharray="0 0" style=""/></g><g class="annotation-group text" transform="translate(0, -18)"/><g class="label-group text" transform="translate(-41.7890625, -18)"><g class="label" style="font-weight: bolder" transform="translate(0,-12)"><foreignObject width="83.578125" height="24"><div xmlns="http://www.w3.org/1999/xhtml" style="display: table-cell; white-space: nowrap; line-height: 1.5; max-width: 125px; text-align: center;"><span class="nodeLabel markdown-node-label" style=""><p>AtomicCell</p></span></div></foreignObject></g></g><g class="members-group text" transform="translate(-41.7890625, 30)"/><g class="methods-group text" transform="translate(-41.7890625, 60)"/><g class="divider" style=""><path d="M-53.7890625 6 C-28.71960894841993 6, -3.650155396839857 6, 53.7890625 6 M-53.7890625 6 C-11.141336616546262 6, 31.506389266907476 6, 53.7890625 6" stroke="#9370DB" stroke-width="1.3" fill="none" stroke-dasharray="0 0" style=""/></g></g><g class="node default" id="classId-Cell-1" transform="translate(83.140625, 184)"><g class="basic label-container"><path d="M-26.671875 -42 L26.671875 -42 L26.671875 42 L-26.671875 42" stroke="none" stroke-width="0" fill="#ECECFF" style=""/><path d="M-26.671875 -42 C-7.569336378121562 -42, 11.533202243756875 -42, 26.671875 -42 M-26.671875 -42 C-7.705746011516055 -42, 11.26038297696789 -42, 26.671875 -42 M26.671875 -42 C26.671875 -19.4284867945956, 26.671875 3.143026410808801, 26.671875 42 M26.671875 -42 C26.671875 -10.997257515904689, 26.671875 20.005484968190622, 26.671875 42 M26.671875 42 C13.052801994402213 42, -0.5662710111955747 42, -26.671875 42 M26.671875 42 C7.495591503465185 42, -11.68069199306963 42, -26.671875 42 M-26.671875 42 C-26.671875 12.059575415032828, -26.671875 -17.880849169934343, -26.671875 -42 M-26.671875 42 C-26.671875 23.808644951047757, -26.671875 5.617289902095514, -26.671875 -42" stroke="#9370DB" stroke-width="1.3" fill="none" stroke-dasharray="0 0" style=""/></g><g class="annotation-group text" transform="translate(0, -18)"/><g class="label-group text" transform="translate(-14.671875, -18)"><g class="label" style="font-weight: bolder" transform="translate(0,-12)"><foreignObject width="29.34375" height="24"><div xmlns="http://www.w3.org/1999/xhtml" style="display: table-cell; white-space: nowrap; line-height: 1.5; max-width: 77px; text-align: center;"><span class="nodeLabel markdown-node-label" style=""><p>Cell</p></span></div></foreignObject></g></g><g class="members-group text" transform="translate(-14.671875, 30)"/><g class="methods-group text" transform="translate(-14.671875, 60)"/><g class="divider" style=""><path d="M-26.671875 6 C-5.343909331338125 6, 15.98405633732375 6, 26.671875 6 M-26.671875 6 C-14.065270763236713 6, -1.4586665264734258 6, 26.671875 6" stroke="#9370DB" stroke-width="1.3" fill="none" stroke-dasharray="0 0" style=""/></g></g><g class="node default" id="classId-GeometricSpace-2" transform="translate(83.140625, 50)"><g class="basic label-container"><path d="M-75.140625 -42 L75.140625 -42 L75.140625 42 L-75.140625 42" stroke="none" stroke-width="0" fill="#ECECFF" style=""/><path d="M-75.140625 -42 C-24.091250853337577 -42, 26.958123293324846 -42, 75.140625 -42 M-75.140625 -42 C-28.443634210050448 -42, 18.253356579899105 -42, 75.140625 -42 M75.140625 -42 C75.140625 -12.615813348023874, 75.140625 16.768373303952252, 75.140625 42 M75.140625 -42 C75.140625 -10.872751329466436, 75.140625 20.25449734106713, 75.140625 42 M75.140625 42 C31.361636909681017 42, -12.417351180637965 42, -75.140625 42 M75.140625 42 C33.744996501087286 42, -7.650631997825428 42, -75.140625 42 M-75.140625 42 C-75.140625 19.02455735680565, -75.140625 -3.950885286388697, -75.140625 -42 M-75.140625 42 C-75.140625 19.479936457469655, -75.140625 -3.040127085060689, -75.140625 -42" stroke="#9370DB" stroke-width="1.3" fill="none" stroke-dasharray="0 0" style=""/></g><g class="annotation-group text" transform="translate(0, -18)"/><g class="label-group text" transform="translate(-63.140625, -18)"><g class="label" style="font-weight: bolder" transform="translate(0,-12)"><foreignObject width="126.28125" height="24"><div xmlns="http://www.w3.org/1999/xhtml" style="display: table-cell; white-space: nowrap; line-height: 1.5; max-width: 156px; text-align: center;"><span class="nodeLabel markdown-node-label" style=""><p>GeometricSpace</p></span></div></foreignObject></g></g><g class="members-group text" transform="translate(-63.140625, 30)"/><g class="methods-group text" transform="translate(-63.140625, 60)"/><g class="divider" style=""><path d="M-75.140625 6 C-28.24687357695729 6, 18.646877846085417 6, 75.140625 6 M-75.140625 6 C-35.91663869555255 6, 3.3073476088949008 6, 75.140625 6" stroke="#9370DB" stroke-width="1.3" fill="none" stroke-dasharray="0 0" style=""/></g></g></g></g></g></svg>