<?xml version="1.0" encoding="UTF-8"?>
<svg id="my-svg" width="100%" xmlns="http://www.w3.org/2000/svg" xmlns:xlink="http://www.w3.org/1999/xlink" class="classDiagram" style="max-width: 166.281px; background-color: white;" viewBox="0 0 166.28125 368" role="graphics-document document" aria-roledescription="class"><style>#my-svg{font-family:"trebuchet ms",verdana,arial,sans-serif;font-size:16px;fill:#333;}@keyframes edge-animation-frame{from{stroke-dashoffset:0;}}@keyframes dash{to{stroke-dashoffset:0;}}#my-svg .edge-animation-slow{stroke-dasharray:9,5!important;stroke-dashoffset:900;animation:dash 50s linear infinite;stroke-linecap:round;}#my-svg .edge-animation-fast{stroke-dasharray:9,5!important;stroke-dashoffset:900;animation:dash 20s linear infinite;stroke-linecap:round;}#my-svg .error-icon{fill:#552222;}#my-svg .error-text{fill:#552222;stroke:#552222;}#my-svg .edge-thickness-normal{stroke-width:1px;}#my-svg .edge-thickness-thick{stroke-width:3.5px;}#my-svg .edge-pattern-solid{stroke-dasharray:0;}#my-svg .edge-thickness-invisible{stroke-width:0;fill:none;}#my-svg .edge-pattern-dashed{stroke-dasharray:3;}#my-svg .edge-pattern-dotted{stroke-dasharray:2;}#my-svg .marker{fill:#333333;stroke:#333333;}#my-svg .marker.cross{stroke:#333333;}#my-svg svg{font-family:"trebuchet ms",verdana,arial,sans-serif;font-size:16px;}#my-svg p{margin:0;}#my-svg g.classGroup text{fill:#9370DB;stroke:none;font-family:"trebuchet ms",verdana,arial,sans-serif;font-size:10px;}#my-svg g.classGroup text .title{font-weight:bolder;}#my-svg .nodeLabel,#my-svg .edgeLabel{color:#131300;}#my-svg .edgeLabel .label rect{fill:#ECECFF;}#my-svg .label text{fill:#131300;}#my-svg .labelBkg{background:#ECECFF;}#my-svg .edgeLabel .label span{background:#ECECFF;}#my-svg .classTitle{font-weight:bolder;}#my-svg .node rect,#my-svg .node circle,#my-svg .node ellipse,#my-svg .node polygon,#my-svg .node path{fill:#ECECFF;stroke:#9370DB;stroke-width:1px;}#my-svg .divider{stroke:#9370DB;stroke-width:1;}#my-svg g.clickable{cursor:pointer;}#my-svg g.classGroup rect{fill:#ECECFF;stroke:#9370DB;}#my-svg g.classGroup line{stroke:#9370DB;stroke-width:1;}#my-svg .classLabel .box{stroke:none;stroke-width:0;fill:#ECECFF;opacity:0.5;}#my-svg .classLabel .label{fill:#9370DB;font-size:10px;}#my-svg .relation{stroke:#333333;stroke-width:1;fill:none;}#my-svg .dashed-line{stroke-dasharray:3;}#my-svg .dotted-line{stroke-dasharray:1 2;}#my-svg #compositionStart,#my-svg .composition{fill:#333333!important;stroke:#333333!important;stroke-width:1;}#my-svg #compositionEnd,#my-svg .composition{fill:#333333!important;stroke:#333333!important;stroke-width:1;}#my-svg #dependencyStart,#my-svg .dependency{fill:#333333!important;stroke:#333333!important;stroke-width:1;}#my-svg #dependencyStart,#my-svg .dependency{fill:#333333!important;stroke:#333333!important;stroke-width:1;}#my-svg #extensionStart,#my-svg .extension{fill:transparent!important;stroke:#333333!important;stroke-width:1;}#my-svg #extensionEnd,#my-svg .extension{fill:transparent!important;stroke:#333333!important;stroke-width:1;}#my-svg #aggregationStart,#my-svg .aggregation{fill:transparent!important;stroke:#333333!important;stroke-width:1;}#my-svg #aggregationEnd,#my-svg .aggregation{fill:transparent!important;stroke:#333333!important;stroke-width:1;}#my-svg #lollipopStart,#my-svg .lollipop{fill:#ECECFF!important;stroke:#333333!important;stroke-width:1;}#my-svg #lollipopEnd,#my-svg .lollipop{fill:#ECECFF!important;stroke:#333333!important;stroke-width:1;}#my-svg .edgeTerminals{font-size:11px;line-height:initial;}#my-svg .classTitleText{text-anchor:middle;font-size:18px;fill:#333;}#my-svg .label-icon{display:inline-block;height:1em;overflow:visible;vertical-align:-0.125em;}#my-svg .node .label-icon path{fill:currentColor;stroke:revert;stroke-width:revert;}#my-svg :root{--mermaid-font-family:"trebuchet ms",verdana,arial,sans-serif;}</style><g><defs><marker id="my-svg_class-aggregationStart" class="marker aggregation class" refX="18" refY="7" markerWidth="190" markerHeight="240" orient="auto"><path d="M 18,7 L9,13 L1,7 L9,1 Z"/></marker></defs><defs><marker id="my-svg_class-aggregationEnd" class="marker aggregation class" refX="1" refY="7" markerWidth="20" markerHeight="28" orient="auto"><path d="M 18,7 L9,13 L1,7 L9,1 Z"/></marker></defs><defs><marker id="my-svg_class-extensionStart" class="marker extension class" refX="18" refY="7" markerWidth="190" markerHeight="240" orient="auto"><path d="M 1,7 L18,13 V 1 Z"/></marker></defs><defs><marker id="my-svg_class-extensionEnd" class="marker extension class" refX="1" refY="7" markerWidth="20" markerHeight="28" orient="auto"><path d="M 1,1 V 13 L18,7 Z"/></marker></defs><defs><marker id="my-svg_class-compositionStart" class="marker composition class" refX="18" refY="7" markerWidth="190" markerHeight="240" orient="auto"><path d="M 18,7 L9,13 L1,7 L9,1 Z"/></marker></defs><defs><marker id="my-svg_class-compositionEnd" class="marker composition class" refX="1" refY="7" markerWidth="20" markerHeight="28" orient="auto"><path d="M 18,7 L9,13 L1,7 L9,1 Z"/></marker></defs><defs><marker id="my-svg_class-dependencyStart" class="marker dependency class" refX="6" refY="7" markerWidth="190" markerHeight="240" orient="auto"><path d="M 5,7 L9,13 L1,7 L9,1 Z"/></marker></defs><defs><marker id="my-svg_class-dependencyEnd" class="marker dependency class" refX="13" refY="7" markerWidth="20" markerHeight="28" orient="auto"><path d="M 18,7 L9,13 L14,7 L9,1 Z"/></marker></defs><defs><marker id="my-svg_class-lollipopStart" class="marker lollipop class" refX="13" refY="7" markerWidth="190" markerHeight="240" orient="auto"><circle stroke="black" fill="transparent" cx="7" cy="7" r="6"/></marker></defs><defs><marker id="my-svg_class-lollipopEnd" class="marker lollipop class" refX="1" refY="7" markerWidth="190" markerHeight="240" orient="auto"><circle stroke="black" fill="transparent" cx="7" cy="7" r="6"/></marker></defs><g class="root"><g class="clusters"/><g class="edgePaths"><path d="M83.141,243.25L83.141,244.542C83.141,245.833,83.141,248.417,83.141,253.875C83.141,259.333,83.141,267.667,83.141,271.833L83.141,276" id="id_Cell_AtomicCell_1" class="edge-thickness-normal edge-pattern-solid relation" style=";;;" data-edge="true" data-et="edge" data-id="id_Cell_AtomicCell_1" data-points="W3sieCI6ODMuMTQwNjI1LCJ5IjoyMjZ9LHsieCI6ODMuMTQwNjI1LCJ5IjoyNTF9LHsieCI6ODMuMTQwNjI1LCJ5IjoyNzZ9XQ==" marker-start="url(#my-svg_class-extensionStart)"/><path d="M83.141,109.25L83.141,110.542C83.141,111.833,83.141,114.417,83.141,119.875C83.141,125.333,83.141,133.667,83.141,137.833L83.141,142" id="id_GeometricSpace_Cell_2" class="edge-thickness-normal edge-pattern-solid relation" style=";;;" data-edge="true" data-et="edge" data-id="id_GeometricSpace_Cell_2" data-points="W3sieCI6ODMuMTQwNjI1LCJ5Ijo5Mn0seyJ4Ijo4My4xNDA2MjUsInkiOjExN30seyJ4Ijo4My4xNDA2MjUsInkiOjE0Mn1d" marker-start="url(#my-svg_class-extensionStart)"/></g><g class="edgeLabels"><g class="edgeLabel"><g class="label" data-id="id_Cell_AtomicCell_1" transform="translate(0, 0)"><foreignObject width="0" height="0"><div xmlns="http://www.w3.org/1999/xhtml" class="labelBkg" style="display: table-cell; white-space: nowrap; line-height: 1.5; max-width: 200px; text-align: center;"><span class="edgeLabel"></span></div></foreignObject></g></g><g class="edgeLabel"><g class="label" data-id="id_GeometricSpace_Cell_2" transform="translate(0, 0)"><foreignObject width="0" height="0"><div xmlns="http://www.w3.org/1999/xhtml" class="labelBkg" style="display: table-cell; white-space: nowrap; line-height: 1.5; max-width: 200px; text-align: center;"><span class="edgeLabel"></span></div></foreignObject></g></g></g><g class="nodes"><g class="node default" id="classId-AtomicCell-0" transform="translate(83.140625, 318)"><g class="basic label-container"><path d="M-53.7890625 -42 L53.7890625 -42 L53.7890625 42 L-53.7890625 42" stroke="none" stroke-width="0" fill="#ECECFF" style=""/><path d="M-53.7890625 -42 C-16.309491058728305 -42, 21.17008038254339 -42, 53.7890625 -42 M-53.7890625 -42 C-28.90002550040172 -42, -4.0109885008034425 -42, 53.7890625 -42 M53.7890625 -42 C53.7890625 -11.23806118811833, 53.7890625 19.52387762376334, 53.7890625 42 M53.7890625 -42 C53.7890625 -9.298670077596917, 53.7890625 23.402659844806166, 53.7890625 42 M53.7890625 42 C27.22340079334492 42, 0.6577390866898369 42, -53.7890625 42 M53.7890625 42 C31.171995642172337 42, 8.554928784344675 42, -53.7890625 42 M-53.7890625 42 C-53.7890625 23.415600636160818, -53.7890625 4.8312012723216355, -53.7890625 -42 M-53.7890625 42 C-53.7890625 20.914608819481074, -53.7890625 -0.17078236103785116, -53.7890625 -42" stroke="#9370DB" stroke-width="1.3" fill="none" stroke-dasharray="0 0" style=""/></g><g class="annotation-group text" transform="translate(0, -18)"/><g class="label-group text" transform="translate(-41.7890625, -18)"><g class="label" style="font-weight: bolder" transform="translate(0,-12)"><foreignObject width="83.578125" height="24"><div xmlns="http://www.w3.org/1999/xhtml" style="display: table-cell; white-space: nowrap; line-height: 1.5; max-width: 125px; text-align: center;"><span class="nodeLabel markdown-node-label" style=""><p>AtomicCell</p></span></div></foreignObject></g></g><g class="members-group text" transform="translate(-41.7890625, 30)"/><g class="methods-group text" transform="translate(-41.7890625, 60)"/><g class="divider" style=""><path d="M-53.7890625 6 C-12.977821439755544 6, 27.83341962048891 6, 53.7890625 6 M-53.7890625 6 C-13.918103353034297 6, 25.952855793931406 6, 53.7890625 6" stroke="#9370DB" stroke-width="1.3" fill="none" stroke-dasharray="0 0" style=""/></g></g><g class="node default" id="classId-Cell-1" transform="translate(83.140625, 184)"><g class="basic label-container"><path d="M-26.671875 -42 L26.671875 -42 L26.671875 42 L-26.671875 42" stroke="none" stroke-width="0" fill="#ECECFF" style=""/><path d="M-26.671875 -42 C-6.3625064357764 -42, 13.9468621284472 -42, 26.671875 -42 M-26.671875 -42 C-9.439568062511476 -42, 7.792738874977047 -42, 26.671875 -42 M26.671875 -42 C26.671875 -17.385131177791767, 26.671875 7.229737644416467, 26.671875 42 M26.671875 -42 C26.671875 -12.977939963861235, 26.671875 16.04412007227753, 26.671875 42 M26.671875 42 C14.546610637151337 42, 2.4213462743026746 42, -26.671875 42 M26.671875 42 C13.4097088010182 42, 0.14754260203639902 42, -26.671875 42 M-26.671875 42 C-26.671875 23.090114818852562, -26.671875 4.180229637705125, -26.671875 -42 M-26.671875 42 C-26.671875 18.124165399017688, -26.671875 -5.751669201964624, -26.671875 -42" stroke="#9370DB" stroke-width="1.3" fill="none" stroke-dasharray="0 0" style=""/></g><g class="annotation-group text" transform="translate(0, -18)"/><g class="label-group text" transform="translate(-14.671875, -18)"><g class="label" style="font-weight: bolder" transform="translate(0,-12)"><foreignObject width="29.34375" height="24"><div xmlns="http://www.w3.org/1999/xhtml" style="display: table-cell; white-space: nowrap; line-height: 1.5; max-width: 77px; text-align: center;"><span class="nodeLabel markdown-node-label" style=""><p>Cell</p></span></div></foreignObject></g></g><g class="members-group text" transform="translate(-14.671875, 30)"/><g class="methods-group text" transform="translate(-14.671875, 60)"/><g class="divider" style=""><path d="M-26.671875 6 C-15.601067041695575 6, -4.530259083391151 6, 26.671875 6 M-26.671875 6 C-7.632639521022867 6, 11.406595957954266 6, 26.671875 6" stroke="#9370DB" stroke-width="1.3" fill="none" stroke-dasharray="0 0" style=""/></g></g><g class="node default" id="classId-GeometricSpace-2" transform="translate(83.140625, 50)"><g class="basic label-container"><path d="M-75.140625 -42 L75.140625 -42 L75.140625 42 L-75.140625 42" stroke="none" stroke-width="0" fill="#ECECFF" style=""/><path d="M-75.140625 -42 C-32.85662855888253 -42, 9.427367882234947 -42, 75.140625 -42 M-75.140625 -42 C-44.122694993308144 -42, -13.104764986616289 -42, 75.140625 -42 M75.140625 -42 C75.140625 -18.93439166326362, 75.140625 4.131216673472757, 75.140625 42 M75.140625 -42 C75.140625 -20.211625352676425, 75.140625 1.5767492946471506, 75.140625 42 M75.140625 42 C33.41977512444659 42, -8.301074751106825 42, -75.140625 42 M75.140625 42 C42.508184924805015 42, 9.87574484961003 42, -75.140625 42 M-75.140625 42 C-75.140625 12.560180908857593, -75.140625 -16.879638182284815, -75.140625 -42 M-75.140625 42 C-75.140625 18.52768191937094, -75.140625 -4.944636161258117, -75.140625 -42" stroke="#9370DB" stroke-width="1.3" fill="none" stroke-dasharray="0 0" style=""/></g><g class="annotation-group text" transform="translate(0, -18)"/><g class="label-group text" transform="translate(-63.140625, -18)"><g class="label" style="font-weight: bolder" transform="translate(0,-12)"><foreignObject width="126.28125" height="24"><div xmlns="http://www.w3.org/1999/xhtml" style="display: table-cell; white-space: nowrap; line-height: 1.5; max-width: 156px; text-align: center;"><span class="nodeLabel markdown-node-label" style=""><p>GeometricSpace</p></span></div></foreignObject></g></g><g class="members-group text" transform="translate(-63.140625, 30)"/><g class="methods-group text" transform="translate(-63.140625, 60)"/><g class="divider" style=""><path d="M-75.140625 6 C-44.5809446032179 6, -14.021264206435802 6, 75.140625 6 M-75.140625 6 C-18.323276945419515 6, 38.49407110916097 6, 75.140625 6" stroke="#9370DB" stroke-width="1.3" fill="none" stroke-dasharray="0 0" style=""/></g></g></g></g></g></svg>