<?xml version="1.0" encoding="UTF-8"?>
<svg id="my-svg" width="100%" xmlns="http://www.w3.org/2000/svg" xmlns:xlink="http://www.w3.org/1999/xlink" class="classDiagram" style="max-width: 337.328px; background-color: white;" viewBox="0 0 337.328125 416" role="graphics-document document" aria-roledescription="class"><style>#my-svg{font-family:"trebuchet ms",verdana,arial,sans-serif;font-size:16px;fill:#333;}@keyframes edge-animation-frame{from{stroke-dashoffset:0;}}@keyframes dash{to{stroke-dashoffset:0;}}#my-svg .edge-animation-slow{stroke-dasharray:9,5!important;stroke-dashoffset:900;animation:dash 50s linear infinite;stroke-linecap:round;}#my-svg .edge-animation-fast{stroke-dasharray:9,5!important;stroke-dashoffset:900;animation:dash 20s linear infinite;stroke-linecap:round;}#my-svg .error-icon{fill:#552222;}#my-svg .error-text{fill:#552222;stroke:#552222;}#my-svg .edge-thickness-normal{stroke-width:1px;}#my-svg .edge-thickness-thick{stroke-width:3.5px;}#my-svg .edge-pattern-solid{stroke-dasharray:0;}#my-svg .edge-thickness-invisible{stroke-width:0;fill:none;}#my-svg .edge-pattern-dashed{stroke-dasharray:3;}#my-svg .edge-pattern-dotted{stroke-dasharray:2;}#my-svg .marker{fill:#333333;stroke:#333333;}#my-svg .marker.cross{stroke:#333333;}#my-svg svg{font-family:"trebuchet ms",verdana,arial,sans-serif;font-size:16px;}#my-svg p{margin:0;}#my-svg g.classGroup text{fill:#9370DB;stroke:none;font-family:"trebuchet ms",verdana,arial,sans-serif;font-size:10px;}#my-svg g.classGroup text .title{font-weight:bolder;}#my-svg .nodeLabel,#my-svg .edgeLabel{color:#131300;}#my-svg .edgeLabel .label rect{fill:#ECECFF;}#my-svg .label text{fill:#131300;}#my-svg .labelBkg{background:#ECECFF;}#my-svg .edgeLabel .label span{background:#ECECFF;}#my-svg .classTitle{font-weight:bolder;}#my-svg .node rect,#my-svg .node circle,#my-svg .node ellipse,#my-svg .node polygon,#my-svg .node path{fill:#ECECFF;stroke:#9370DB;stroke-width:1px;}#my-svg .divider{stroke:#9370DB;stroke-width:1;}#my-svg g.clickable{cursor:pointer;}#my-svg g.classGroup rect{fill:#ECECFF;stroke:#9370DB;}#my-svg g.classGroup line{stroke:#9370DB;stroke-width:1;}#my-svg .classLabel .box{stroke:none;stroke-width:0;fill:#ECECFF;opacity:0.5;}#my-svg .classLabel .label{fill:#9370DB;font-size:10px;}#my-svg .relation{stroke:#333333;stroke-width:1;fill:none;}#my-svg .dashed-line{stroke-dasharray:3;}#my-svg .dotted-line{stroke-dasharray:1 2;}#my-svg #compositionStart,#my-svg .composition{fill:#333333!important;stroke:#333333!important;stroke-width:1;}#my-svg #compositionEnd,#my-svg .composition{fill:#333333!important;stroke:#333333!important;stroke-width:1;}#my-svg #dependencyStart,#my-svg .dependency{fill:#333333!important;stroke:#333333!important;stroke-width:1;}#my-svg #dependencyStart,#my-svg .dependency{fill:#333333!important;stroke:#333333!important;stroke-width:1;}#my-svg #extensionStart,#my-svg .extension{fill:transparent!important;stroke:#333333!important;stroke-width:1;}#my-svg #extensionEnd,#my-svg .extension{fill:transparent!important;stroke:#333333!important;stroke-width:1;}#my-svg #aggregationStart,#my-svg .aggregation{fill:transparent!important;stroke:#333333!important;stroke-width:1;}#my-svg #aggregationEnd,#my-svg .aggregation{fill:transparent!important;stroke:#333333!important;stroke-width:1;}#my-svg #lollipopStart,#my-svg .lollipop{fill:#ECECFF!important;stroke:#333333!important;stroke-width:1;}#my-svg #lollipopEnd,#my-svg .lollipop{fill:#ECECFF!important;stroke:#333333!important;stroke-width:1;}#my-svg .edgeTerminals{font-size:11px;line-height:initial;}#my-svg .classTitleText{text-anchor:middle;font-size:18px;fill:#333;}#my-svg .label-icon{display:inline-block;height:1em;overflow:visible;vertical-align:-0.125em;}#my-svg .node .label-icon path{fill:currentColor;stroke:revert;stroke-width:revert;}#my-svg :root{--mermaid-font-family:"trebuchet ms",verdana,arial,sans-serif;}</style><g><defs><marker id="my-svg_class-aggregationStart" class="marker aggregation class" refX="18" refY="7" markerWidth="190" markerHeight="240" orient="auto"><path d="M 18,7 L9,13 L1,7 L9,1 Z"/></marker></defs><defs><marker id="my-svg_class-aggregationEnd" class="marker aggregation class" refX="1" refY="7" markerWidth="20" markerHeight="28" orient="auto"><path d="M 18,7 L9,13 L1,7 L9,1 Z"/></marker></defs><defs><marker id="my-svg_class-extensionStart" class="marker extension class" refX="18" refY="7" markerWidth="190" markerHeight="240" orient="auto"><path d="M 1,7 L18,13 V 1 Z"/></marker></defs><defs><marker id="my-svg_class-extensionEnd" class="marker extension class" refX="1" refY="7" markerWidth="20" markerHeight="28" orient="auto"><path d="M 1,1 V 13 L18,7 Z"/></marker></defs><defs><marker id="my-svg_class-compositionStart" class="marker composition class" refX="18" refY="7" markerWidth="190" markerHeight="240" orient="auto"><path d="M 18,7 L9,13 L1,7 L9,1 Z"/></marker></defs><defs><marker id="my-svg_class-compositionEnd" class="marker composition class" refX="1" refY="7" markerWidth="20" markerHeight="28" orient="auto"><path d="M 18,7 L9,13 L1,7 L9,1 Z"/></marker></defs><defs><marker id="my-svg_class-dependencyStart" class="marker dependency class" refX="6" refY="7" markerWidth="190" markerHeight="240" orient="auto"><path d="M 5,7 L9,13 L1,7 L9,1 Z"/></marker></defs><defs><marker id="my-svg_class-dependencyEnd" class="marker dependency class" refX="13" refY="7" markerWidth="20" markerHeight="28" orient="auto"><path d="M 18,7 L9,13 L14,7 L9,1 Z"/></marker></defs><defs><marker id="my-svg_class-lollipopStart" class="marker lollipop class" refX="13" refY="7" markerWidth="190" markerHeight="240" orient="auto"><circle stroke="black" fill="transparent" cx="7" cy="7" r="6"/></marker></defs><defs><marker id="my-svg_class-lollipopEnd" class="marker lollipop class" refX="1" refY="7" markerWidth="190" markerHeight="240" orient="auto"><circle stroke="black" fill="transparent" cx="7" cy="7" r="6"/></marker></defs><g class="root"><g class="clusters"/><g class="edgePaths"><path d="M137.77,109.25L137.77,112.542C137.77,115.833,137.77,122.417,143.943,131.875C150.116,141.333,162.462,153.667,168.635,159.833L174.808,166" id="id_DOSProfile_ElectronicDensityOfStates_1" class="edge-thickness-normal edge-pattern-solid relation" style=";;;" data-edge="true" data-et="edge" data-id="id_DOSProfile_ElectronicDensityOfStates_1" data-points="W3sieCI6MTM3Ljc2OTUzMTI1LCJ5Ijo5Mn0seyJ4IjoxMzcuNzY5NTMxMjUsInkiOjEyOX0seyJ4IjoxNzQuODA3OTUwOTQ5MzY3MSwieSI6MTY2fV0=" marker-start="url(#my-svg_class-extensionStart)"/><path d="M85.093,92L77.359,98.167C69.625,104.333,54.156,116.667,46.422,136C38.688,155.333,38.688,181.667,38.688,208C38.688,234.333,38.688,260.667,45.525,279.897C52.362,299.127,66.036,311.253,72.873,317.317L79.71,323.38" id="id_DOSProfile_Energy2_2" class="edge-thickness-normal edge-pattern-solid relation" style=";;;" data-edge="true" data-et="edge" data-id="id_DOSProfile_Energy2_2" data-points="W3sieCI6ODUuMDkzMDA4MzA2OTYyMDIsInkiOjkyfSx7IngiOjM4LjY4NzUsInkiOjEyOX0seyJ4IjozOC42ODc1LCJ5IjoyMDh9LHsieCI6MzguNjg3NSwieSI6Mjg3fSx7IngiOjg0LjE5OTIxODc1LCJ5IjozMjcuMzYwODQxOTIwNjMxNDZ9XQ==" marker-end="url(#my-svg_class-dependencyEnd)"/><path d="M235.528,166L238.27,159.833C241.012,153.667,246.496,141.333,240.065,128.821C233.633,116.309,215.286,103.618,206.112,97.273L196.938,90.927" id="id_ElectronicDensityOfStates_DOSProfile_3" class="edge-thickness-normal edge-pattern-solid relation" style=";;;" data-edge="true" data-et="edge" data-id="id_ElectronicDensityOfStates_DOSProfile_3" data-points="W3sieCI6MjM1LjUyNzY4OTg3MzQxNzczLCJ5IjoxNjZ9LHsieCI6MjUxLjk4MDQ2ODc1LCJ5IjoxMjl9LHsieCI6MTkyLjAwMzkwNjI1LCJ5Ijo4Ny41MTQwNTcwNDkwNDU3Nn1d" marker-end="url(#my-svg_class-dependencyEnd)"/><path d="M216.852,250L216.852,256.167C216.852,262.333,216.852,274.667,210.014,286.897C203.177,299.127,189.503,311.253,182.666,317.317L175.829,323.38" id="id_ElectronicDensityOfStates_Energy2_4" class="edge-thickness-normal edge-pattern-solid relation" style=";;;" data-edge="true" data-et="edge" data-id="id_ElectronicDensityOfStates_Energy2_4" data-points="W3sieCI6MjE2Ljg1MTU2MjUsInkiOjI1MH0seyJ4IjoyMTYuODUxNTYyNSwieSI6Mjg3fSx7IngiOjE3MS4zMzk4NDM3NSwieSI6MzI3LjM2MDg0MTkyMDYzMTQ2fV0=" marker-end="url(#my-svg_class-dependencyEnd)"/></g><g class="edgeLabels"><g class="edgeLabel"><g class="label" data-id="id_DOSProfile_ElectronicDensityOfStates_1" transform="translate(0, 0)"><foreignObject width="0" height="0"><div xmlns="http://www.w3.org/1999/xhtml" class="labelBkg" style="display: table-cell; white-space: nowrap; line-height: 1.5; max-width: 200px; text-align: center;"><span class="edgeLabel"></span></div></foreignObject></g></g><g class="edgeLabel" transform="translate(38.6875, 208)"><g class="label" data-id="id_DOSProfile_Energy2_2" transform="translate(-30.6875, -12)"><foreignObject width="61.375" height="24"><div xmlns="http://www.w3.org/1999/xhtml" class="labelBkg" style="display: table-cell; white-space: nowrap; line-height: 1.5; max-width: 200px; text-align: center;"><span class="edgeLabel"><p>energies</p></span></div></foreignObject></g></g><g class="edgeLabel" transform="translate(251.98046875, 129)"><g class="label" data-id="id_ElectronicDensityOfStates_DOSProfile_3" transform="translate(-50.2578125, -12)"><foreignObject width="100.515625" height="24"><div xmlns="http://www.w3.org/1999/xhtml" class="labelBkg" style="display: table-cell; white-space: nowrap; line-height: 1.5; max-width: 200px; text-align: center;"><span class="edgeLabel"><p>projected_dos</p></span></div></foreignObject></g></g><g class="edgeLabel" transform="translate(216.8515625, 287)"><g class="label" data-id="id_ElectronicDensityOfStates_Energy2_4" transform="translate(-30.6875, -12)"><foreignObject width="61.375" height="24"><div xmlns="http://www.w3.org/1999/xhtml" class="labelBkg" style="display: table-cell; white-space: nowrap; line-height: 1.5; max-width: 200px; text-align: center;"><span class="edgeLabel"><p>energies</p></span></div></foreignObject></g></g></g><g class="nodes"><g class="node default" id="classId-DOSProfile-0" transform="translate(137.76953125, 50)"><g class="basic label-container"><path d="M-54.234375 -42 L54.234375 -42 L54.234375 42 L-54.234375 42" stroke="none" stroke-width="0" fill="#ECECFF" style=""/><path d="M-54.234375 -42 C-19.32011935651704 -42, 15.59413628696592 -42, 54.234375 -42 M-54.234375 -42 C-24.40032315669099 -42, 5.433728686618018 -42, 54.234375 -42 M54.234375 -42 C54.234375 -22.04094153135864, 54.234375 -2.0818830627172815, 54.234375 42 M54.234375 -42 C54.234375 -23.165270351228127, 54.234375 -4.330540702456254, 54.234375 42 M54.234375 42 C27.864802912749752 42, 1.4952308254995046 42, -54.234375 42 M54.234375 42 C12.268556622960645 42, -29.69726175407871 42, -54.234375 42 M-54.234375 42 C-54.234375 24.405915133967994, -54.234375 6.811830267935989, -54.234375 -42 M-54.234375 42 C-54.234375 21.707373255995595, -54.234375 1.41474651199119, -54.234375 -42" stroke="#9370DB" stroke-width="1.3" fill="none" stroke-dasharray="0 0" style=""/></g><g class="annotation-group text" transform="translate(0, -18)"/><g class="label-group text" transform="translate(-42.234375, -18)"><g class="label" style="font-weight: bolder" transform="translate(0,-12)"><foreignObject width="84.46875" height="24"><div xmlns="http://www.w3.org/1999/xhtml" style="display: table-cell; white-space: nowrap; line-height: 1.5; max-width: 126px; text-align: center;"><span class="nodeLabel markdown-node-label" style=""><p>DOSProfile</p></span></div></foreignObject></g></g><g class="members-group text" transform="translate(-42.234375, 30)"/><g class="methods-group text" transform="translate(-42.234375, 60)"/><g class="divider" style=""><path d="M-54.234375 6 C-30.637364363690896 6, -7.040353727381792 6, 54.234375 6 M-54.234375 6 C-17.081780633625513 6, 20.070813732748974 6, 54.234375 6" stroke="#9370DB" stroke-width="1.3" fill="none" stroke-dasharray="0 0" style=""/></g></g><g class="node default" id="classId-ElectronicDensityOfStates-1" transform="translate(216.8515625, 208)"><g class="basic label-container"><path d="M-112.4765625 -42 L112.4765625 -42 L112.4765625 42 L-112.4765625 42" stroke="none" stroke-width="0" fill="#ECECFF" style=""/><path d="M-112.4765625 -42 C-52.83170980663353 -42, 6.813142886732933 -42, 112.4765625 -42 M-112.4765625 -42 C-62.841474195740425 -42, -13.20638589148085 -42, 112.4765625 -42 M112.4765625 -42 C112.4765625 -22.609712898047174, 112.4765625 -3.219425796094349, 112.4765625 42 M112.4765625 -42 C112.4765625 -14.473764396363578, 112.4765625 13.052471207272845, 112.4765625 42 M112.4765625 42 C54.814160864302465 42, -2.8482407713950693 42, -112.4765625 42 M112.4765625 42 C41.96039392924075 42, -28.555774641518497 42, -112.4765625 42 M-112.4765625 42 C-112.4765625 12.393598116661188, -112.4765625 -17.212803766677624, -112.4765625 -42 M-112.4765625 42 C-112.4765625 12.93973094964591, -112.4765625 -16.12053810070818, -112.4765625 -42" stroke="#9370DB" stroke-width="1.3" fill="none" stroke-dasharray="0 0" style=""/></g><g class="annotation-group text" transform="translate(0, -18)"/><g class="label-group text" transform="translate(-100.4765625, -18)"><g class="label" style="font-weight: bolder" transform="translate(0,-12)"><foreignObject width="200.953125" height="24"><div xmlns="http://www.w3.org/1999/xhtml" style="display: table-cell; white-space: nowrap; line-height: 1.5; max-width: 221px; text-align: center;"><span class="nodeLabel markdown-node-label" style=""><p>ElectronicDensityOfStates</p></span></div></foreignObject></g></g><g class="members-group text" transform="translate(-100.4765625, 30)"/><g class="methods-group text" transform="translate(-100.4765625, 60)"/><g class="divider" style=""><path d="M-112.4765625 6 C-62.32801114585333 6, -12.179459791706662 6, 112.4765625 6 M-112.4765625 6 C-66.25439674862602 6, -20.032230997252043 6, 112.4765625 6" stroke="#9370DB" stroke-width="1.3" fill="none" stroke-dasharray="0 0" style=""/></g></g><g class="node default" id="classId-Energy2-2" transform="translate(127.76953125, 366)"><g class="basic label-container"><path d="M-43.5703125 -42 L43.5703125 -42 L43.5703125 42 L-43.5703125 42" stroke="none" stroke-width="0" fill="#ECECFF" style=""/><path d="M-43.5703125 -42 C-8.97441359243286 -42, 25.62148531513428 -42, 43.5703125 -42 M-43.5703125 -42 C-16.427183251165186 -42, 10.715945997669628 -42, 43.5703125 -42 M43.5703125 -42 C43.5703125 -24.626738157755454, 43.5703125 -7.253476315510909, 43.5703125 42 M43.5703125 -42 C43.5703125 -23.067786127282627, 43.5703125 -4.135572254565254, 43.5703125 42 M43.5703125 42 C22.28367626698376 42, 0.9970400339675223 42, -43.5703125 42 M43.5703125 42 C18.86515551068213 42, -5.840001478635742 42, -43.5703125 42 M-43.5703125 42 C-43.5703125 13.935081212894286, -43.5703125 -14.129837574211429, -43.5703125 -42 M-43.5703125 42 C-43.5703125 14.893279379194635, -43.5703125 -12.213441241610731, -43.5703125 -42" stroke="#9370DB" stroke-width="1.3" fill="none" stroke-dasharray="0 0" style=""/></g><g class="annotation-group text" transform="translate(0, -18)"/><g class="label-group text" transform="translate(-31.5703125, -18)"><g class="label" style="font-weight: bolder" transform="translate(0,-12)"><foreignObject width="63.140625" height="24"><div xmlns="http://www.w3.org/1999/xhtml" style="display: table-cell; white-space: nowrap; line-height: 1.5; max-width: 104px; text-align: center;"><span class="nodeLabel markdown-node-label" style=""><p>Energy2</p></span></div></foreignObject></g></g><g class="members-group text" transform="translate(-31.5703125, 30)"/><g class="methods-group text" transform="translate(-31.5703125, 60)"/><g class="divider" style=""><path d="M-43.5703125 6 C-9.01136862099191 6, 25.54757525801618 6, 43.5703125 6 M-43.5703125 6 C-11.63442132159032 6, 20.30146985681936 6, 43.5703125 6" stroke="#9370DB" stroke-width="1.3" fill="none" stroke-dasharray="0 0" style=""/></g></g></g></g></g></svg>