<?xml version="1.0" encoding="UTF-8"?>
<svg id="my-svg" width="100%" xmlns="http://www.w3.org/2000/svg" xmlns:xlink="http://www.w3.org/1999/xlink" class="classDiagram" style="max-width: 966.469px; background-color: white;" viewBox="0 0 966.46875 416" role="graphics-document document" aria-roledescription="class"><style>#my-svg{font-family:"trebuchet ms",verdana,arial,sans-serif;font-size:16px;fill:#333;}@keyframes edge-animation-frame{from{stroke-dashoffset:0;}}@keyframes dash{to{stroke-dashoffset:0;}}#my-svg .edge-animation-slow{stroke-dasharray:9,5!important;stroke-dashoffset:900;animation:dash 50s linear infinite;stroke-linecap:round;}#my-svg .edge-animation-fast{stroke-dasharray:9,5!important;stroke-dashoffset:900;animation:dash 20s linear infinite;stroke-linecap:round;}#my-svg .error-icon{fill:#552222;}#my-svg .error-text{fill:#552222;stroke:#552222;}#my-svg .edge-thickness-normal{stroke-width:1px;}#my-svg .edge-thickness-thick{stroke-width:3.5px;}#my-svg .edge-pattern-solid{stroke-dasharray:0;}#my-svg .edge-thickness-invisible{stroke-width:0;fill:none;}#my-svg .edge-pattern-dashed{stroke-dasharray:3;}#my-svg .edge-pattern-dotted{stroke-dasharray:2;}#my-svg .marker{fill:#333333;stroke:#333333;}#my-svg .marker.cross{stroke:#333333;}#my-svg svg{font-family:"trebuchet ms",verdana,arial,sans-serif;font-size:16px;}#my-svg p{margin:0;}#my-svg g.classGroup text{fill:#9370DB;stroke:none;font-family:"trebuchet ms",verdana,arial,sans-serif;font-size:10px;}#my-svg g.classGroup text .title{font-weight:bolder;}#my-svg .nodeLabel,#my-svg .edgeLabel{color:#131300;}#my-svg .edgeLabel .label rect{fill:#ECECFF;}#my-svg .label text{fill:#131300;}#my-svg .labelBkg{background:#ECECFF;}#my-svg .edgeLabel .label span{background:#ECECFF;}#my-svg .classTitle{font-weight:bolder;}#my-svg .node rect,#my-svg .node circle,#my-svg .node ellipse,#my-svg .node polygon,#my-svg .node path{fill:#ECECFF;stroke:#9370DB;stroke-width:1px;}#my-svg .divider{stroke:#9370DB;stroke-width:1;}#my-svg g.clickable{cursor:pointer;}#my-svg g.classGroup rect{fill:#ECECFF;stroke:#9370DB;}#my-svg g.classGroup line{stroke:#9370DB;stroke-width:1;}#my-svg .classLabel .box{stroke:none;stroke-width:0;fill:#ECECFF;opacity:0.5;}#my-svg .classLabel .label{fill:#9370DB;font-size:10px;}#my-svg .relation{stroke:#333333;stroke-width:1;fill:none;}#my-svg .dashed-line{stroke-dasharray:3;}#my-svg .dotted-line{stroke-dasharray:1 2;}#my-svg #compositionStart,#my-svg .composition{fill:#333333!important;stroke:#333333!important;stroke-width:1;}#my-svg #compositionEnd,#my-svg .composition{fill:#333333!important;stroke:#333333!important;stroke-width:1;}#my-svg #dependencyStart,#my-svg .dependency{fill:#333333!important;stroke:#333333!important;stroke-width:1;}#my-svg #dependencyStart,#my-svg .dependency{fill:#333333!important;stroke:#333333!important;stroke-width:1;}#my-svg #extensionStart,#my-svg .extension{fill:transparent!important;stroke:#333333!important;stroke-width:1;}#my-svg #extensionEnd,#my-svg .extension{fill:transparent!important;stroke:#333333!important;stroke-width:1;}#my-svg #aggregationStart,#my-svg .aggregation{fill:transparent!important;stroke:#333333!important;stroke-width:1;}#my-svg #aggregationEnd,#my-svg .aggregation{fill:transparent!important;stroke:#333333!important;stroke-width:1;}#my-svg #lollipopStart,#my-svg .lollipop{fill:#ECECFF!important;stroke:#333333!important;stroke-width:1;}#my-svg #lollipopEnd,#my-svg .lollipop{fill:#ECECFF!important;stroke:#333333!important;stroke-width:1;}#my-svg .edgeTerminals{font-size:11px;line-height:initial;}#my-svg .classTitleText{text-anchor:middle;font-size:18px;fill:#333;}#my-svg .label-icon{display:inline-block;height:1em;overflow:visible;vertical-align:-0.125em;}#my-svg .node .label-icon path{fill:currentColor;stroke:revert;stroke-width:revert;}#my-svg :root{--mermaid-font-family:"trebuchet ms",verdana,arial,sans-serif;}</style><g><defs><marker id="my-svg_class-aggregationStart" class="marker aggregation class" refX="18" refY="7" markerWidth="190" markerHeight="240" orient="auto"><path d="M 18,7 L9,13 L1,7 L9,1 Z"/></marker></defs><defs><marker id="my-svg_class-aggregationEnd" class="marker aggregation class" refX="1" refY="7" markerWidth="20" markerHeight="28" orient="auto"><path d="M 18,7 L9,13 L1,7 L9,1 Z"/></marker></defs><defs><marker id="my-svg_class-extensionStart" class="marker extension class" refX="18" refY="7" markerWidth="190" markerHeight="240" orient="auto"><path d="M 1,7 L18,13 V 1 Z"/></marker></defs><defs><marker id="my-svg_class-extensionEnd" class="marker extension class" refX="1" refY="7" markerWidth="20" markerHeight="28" orient="auto"><path d="M 1,1 V 13 L18,7 Z"/></marker></defs><defs><marker id="my-svg_class-compositionStart" class="marker composition class" refX="18" refY="7" markerWidth="190" markerHeight="240" orient="auto"><path d="M 18,7 L9,13 L1,7 L9,1 Z"/></marker></defs><defs><marker id="my-svg_class-compositionEnd" class="marker composition class" refX="1" refY="7" markerWidth="20" markerHeight="28" orient="auto"><path d="M 18,7 L9,13 L1,7 L9,1 Z"/></marker></defs><defs><marker id="my-svg_class-dependencyStart" class="marker dependency class" refX="6" refY="7" markerWidth="190" markerHeight="240" orient="auto"><path d="M 5,7 L9,13 L1,7 L9,1 Z"/></marker></defs><defs><marker id="my-svg_class-dependencyEnd" class="marker dependency class" refX="13" refY="7" markerWidth="20" markerHeight="28" orient="auto"><path d="M 18,7 L9,13 L14,7 L9,1 Z"/></marker></defs><defs><marker id="my-svg_class-lollipopStart" class="marker lollipop class" refX="13" refY="7" markerWidth="190" markerHeight="240" orient="auto"><circle stroke="black" fill="transparent" cx="7" cy="7" r="6"/></marker></defs><defs><marker id="my-svg_class-lollipopEnd" class="marker lollipop class" refX="1" refY="7" markerWidth="190" markerHeight="240" orient="auto"><circle stroke="black" fill="transparent" cx="7" cy="7" r="6"/></marker></defs><g class="root"><g class="clusters"/><g class="edgePaths"><path d="M124.492,267.25L124.492,270.542C124.492,273.833,124.492,280.417,124.492,289.875C124.492,299.333,124.492,311.667,124.492,317.833L124.492,324" id="id_ElectronicEigenvalues_ElectronicBandStructure_1" class="edge-thickness-normal edge-pattern-solid relation" style=";;;" data-edge="true" data-et="edge" data-id="id_ElectronicEigenvalues_ElectronicBandStructure_1" data-points="W3sieCI6MTI0LjQ5MjE4NzUsInkiOjI1MH0seyJ4IjoxMjQuNDkyMTg3NSwieSI6Mjg3fSx7IngiOjEyNC40OTIxODc1LCJ5IjozMjR9XQ==" marker-start="url(#my-svg_class-extensionStart)"/><path d="M399.188,104.227L403.297,108.355C407.407,112.484,415.625,120.742,424.437,131.038C433.249,141.333,442.655,153.667,447.358,159.833L452.06,166" id="id_DOSProfile_ElectronicDensityOfStates_2" class="edge-thickness-normal edge-pattern-solid relation" style=";;;" data-edge="true" data-et="edge" data-id="id_DOSProfile_ElectronicDensityOfStates_2" data-points="W3sieCI6Mzg3LjAxOTM4MjkxMTM5MjQsInkiOjkyfSx7IngiOjQyMy44NDM3NSwieSI6MTI5fSx7IngiOjQ1Mi4wNjAyNzQ5MjA4ODYwNiwieSI6MTY2fV0=" marker-start="url(#my-svg_class-extensionStart)"/><path d="M92.389,107.032L90.328,110.693C88.267,114.355,84.145,121.677,85.556,131.505C86.966,141.333,93.908,153.667,97.379,159.833L100.851,166" id="id_BaseElectronicEigenvalues_ElectronicEigenvalues_3" class="edge-thickness-normal edge-pattern-solid relation" style=";;;" data-edge="true" data-et="edge" data-id="id_BaseElectronicEigenvalues_ElectronicEigenvalues_3" data-points="W3sieCI6MTAwLjg1MDU3MzU3NTk0OTM3LCJ5Ijo5Mn0seyJ4Ijo4MC4wMjM0Mzc1LCJ5IjoxMjl9LHsieCI6MTAwLjg1MDU3MzU3NTk0OTM3LCJ5IjoxNjZ9XQ==" marker-start="url(#my-svg_class-extensionStart)"/><path d="M324.329,92L321.262,98.167C318.194,104.333,312.06,116.667,308.993,136C305.926,155.333,305.926,181.667,305.926,208C305.926,234.333,305.926,260.667,308.548,279.105C311.169,297.543,316.413,308.085,319.035,313.357L321.657,318.628" id="id_DOSProfile_Energy2_4" class="edge-thickness-normal edge-pattern-solid relation" style=";;;" data-edge="true" data-et="edge" data-id="id_DOSProfile_Energy2_4" data-points="W3sieCI6MzI0LjMyODgxNzI0NjgzNTQ2LCJ5Ijo5Mn0seyJ4IjozMDUuOTI1NzgxMjUsInkiOjEyOX0seyJ4IjozMDUuOTI1NzgxMjUsInkiOjIwOH0seyJ4IjozMDUuOTI1NzgxMjUsInkiOjI4N30seyJ4IjozMjQuMzI4ODE3MjQ2ODM1NDYsInkiOjMyNH1d" marker-end="url(#my-svg_class-dependencyEnd)"/><path d="M502.766,166L505.508,159.833C508.25,153.667,513.734,141.333,497.426,126.517C481.118,111.701,443.017,94.403,423.967,85.753L404.916,77.104" id="id_ElectronicDensityOfStates_DOSProfile_5" class="edge-thickness-normal edge-pattern-solid relation" style=";;;" data-edge="true" data-et="edge" data-id="id_ElectronicDensityOfStates_DOSProfile_5" data-points="W3sieCI6NTAyLjc2NTk3MTEyMzQxNzcsInkiOjE2Nn0seyJ4Ijo1MTkuMjE4NzUsInkiOjEyOX0seyJ4IjozOTkuNDUzMTI1LCJ5Ijo3NC42MjM2NTMwMTcyNDEzOH1d" marker-end="url(#my-svg_class-dependencyEnd)"/><path d="M484.09,250L484.09,256.167C484.09,262.333,484.09,274.667,469.076,289.375C454.061,304.082,424.033,321.165,409.019,329.706L394.004,338.247" id="id_ElectronicDensityOfStates_Energy2_6" class="edge-thickness-normal edge-pattern-solid relation" style=";;;" data-edge="true" data-et="edge" data-id="id_ElectronicDensityOfStates_Energy2_6" data-points="W3sieCI6NDg0LjA4OTg0Mzc1LCJ5IjoyNTB9LHsieCI6NDg0LjA4OTg0Mzc1LCJ5IjoyODd9LHsieCI6Mzg4Ljc4OTA2MjUsInkiOjM0MS4yMTQwMzA1NDc2NjM5fV0=" marker-end="url(#my-svg_class-dependencyEnd)"/><path d="M153.965,166L158.293,159.833C162.62,153.667,171.275,141.333,171.849,129.819C172.424,118.304,164.918,107.608,161.165,102.259L157.412,96.911" id="id_ElectronicEigenvalues_BaseElectronicEigenvalues_7" class="edge-thickness-normal edge-pattern-solid relation" style=";;;" data-edge="true" data-et="edge" data-id="id_ElectronicEigenvalues_BaseElectronicEigenvalues_7" data-points="W3sieCI6MTUzLjk2NTI4ODc2NTgyMjc4LCJ5IjoxNjZ9LHsieCI6MTc5LjkyOTY4NzUsInkiOjEyOX0seyJ4IjoxNTMuOTY1Mjg4NzY1ODIyNzgsInkiOjkyfV0=" marker-end="url(#my-svg_class-dependencyEnd)"/></g><g class="edgeLabels"><g class="edgeLabel"><g class="label" data-id="id_ElectronicEigenvalues_ElectronicBandStructure_1" transform="translate(0, 0)"><foreignObject width="0" height="0"><div xmlns="http://www.w3.org/1999/xhtml" class="labelBkg" style="display: table-cell; white-space: nowrap; line-height: 1.5; max-width: 200px; text-align: center;"><span class="edgeLabel"></span></div></foreignObject></g></g><g class="edgeLabel"><g class="label" data-id="id_DOSProfile_ElectronicDensityOfStates_2" transform="translate(0, 0)"><foreignObject width="0" height="0"><div xmlns="http://www.w3.org/1999/xhtml" class="labelBkg" style="display: table-cell; white-space: nowrap; line-height: 1.5; max-width: 200px; text-align: center;"><span class="edgeLabel"></span></div></foreignObject></g></g><g class="edgeLabel"><g class="label" data-id="id_BaseElectronicEigenvalues_ElectronicEigenvalues_3" transform="translate(0, 0)"><foreignObject width="0" height="0"><div xmlns="http://www.w3.org/1999/xhtml" class="labelBkg" style="display: table-cell; white-space: nowrap; line-height: 1.5; max-width: 200px; text-align: center;"><span class="edgeLabel"></span></div></foreignObject></g></g><g class="edgeLabel" transform="translate(305.92578125, 208)"><g class="label" data-id="id_DOSProfile_Energy2_4" transform="translate(-30.6875, -12)"><foreignObject width="61.375" height="24"><div xmlns="http://www.w3.org/1999/xhtml" class="labelBkg" style="display: table-cell; white-space: nowrap; line-height: 1.5; max-width: 200px; text-align: center;"><span class="edgeLabel"><p>energies</p></span></div></foreignObject></g></g><g class="edgeLabel" transform="translate(477.77136, 110.18193)"><g class="label" data-id="id_ElectronicDensityOfStates_DOSProfile_5" transform="translate(-50.2578125, -12)"><foreignObject width="100.515625" height="24"><div xmlns="http://www.w3.org/1999/xhtml" class="labelBkg" style="display: table-cell; white-space: nowrap; line-height: 1.5; max-width: 200px; text-align: center;"><span class="edgeLabel"><p>projected_dos</p></span></div></foreignObject></g></g><g class="edgeLabel" transform="translate(484.08984375, 287)"><g class="label" data-id="id_ElectronicDensityOfStates_Energy2_6" transform="translate(-30.6875, -12)"><foreignObject width="61.375" height="24"><div xmlns="http://www.w3.org/1999/xhtml" class="labelBkg" style="display: table-cell; white-space: nowrap; line-height: 1.5; max-width: 200px; text-align: center;"><span class="edgeLabel"><p>energies</p></span></div></foreignObject></g></g><g class="edgeLabel" transform="translate(179.9296875, 129)"><g class="label" data-id="id_ElectronicEigenvalues_BaseElectronicEigenvalues_7" transform="translate(-68.9375, -12)"><foreignObject width="137.875" height="24"><div xmlns="http://www.w3.org/1999/xhtml" class="labelBkg" style="display: table-cell; white-space: nowrap; line-height: 1.5; max-width: 200px; text-align: center;"><span class="edgeLabel"><p>value_contributions</p></span></div></foreignObject></g></g></g><g class="nodes"><g class="node default" id="classId-BaseElectronicEigenvalues-0" transform="translate(124.4921875, 50)"><g class="basic label-container"><path d="M-116.4921875 -42 L116.4921875 -42 L116.4921875 42 L-116.4921875 42" stroke="none" stroke-width="0" fill="#ECECFF" style=""/><path d="M-116.4921875 -42 C-56.79618190369583 -42, 2.8998236926083365 -42, 116.4921875 -42 M-116.4921875 -42 C-33.33661527167952 -42, 49.81895695664096 -42, 116.4921875 -42 M116.4921875 -42 C116.4921875 -16.328232484348227, 116.4921875 9.343535031303546, 116.4921875 42 M116.4921875 -42 C116.4921875 -22.10447592849561, 116.4921875 -2.20895185699122, 116.4921875 42 M116.4921875 42 C34.20285709128794 42, -48.08647331742412 42, -116.4921875 42 M116.4921875 42 C47.20532544821674 42, -22.08153660356652 42, -116.4921875 42 M-116.4921875 42 C-116.4921875 19.06709213222266, -116.4921875 -3.8658157355546834, -116.4921875 -42 M-116.4921875 42 C-116.4921875 13.347114514943616, -116.4921875 -15.305770970112768, -116.4921875 -42" stroke="#9370DB" stroke-width="1.3" fill="none" stroke-dasharray="0 0" style=""/></g><g class="annotation-group text" transform="translate(0, -18)"/><g class="label-group text" transform="translate(-104.4921875, -18)"><g class="label" style="font-weight: bolder" transform="translate(0,-12)"><foreignObject width="208.984375" height="24"><div xmlns="http://www.w3.org/1999/xhtml" style="display: table-cell; white-space: nowrap; line-height: 1.5; max-width: 225px; text-align: center;"><span class="nodeLabel markdown-node-label" style=""><p>BaseElectronicEigenvalues</p></span></div></foreignObject></g></g><g class="members-group text" transform="translate(-104.4921875, 30)"/><g class="methods-group text" transform="translate(-104.4921875, 60)"/><g class="divider" style=""><path d="M-116.4921875 6 C-61.09303306548071 6, -5.6938786309614215 6, 116.4921875 6 M-116.4921875 6 C-69.52834235807323 6, -22.564497216146464 6, 116.4921875 6" stroke="#9370DB" stroke-width="1.3" fill="none" stroke-dasharray="0 0" style=""/></g></g><g class="node default" id="classId-DOSProfile-1" transform="translate(345.21875, 50)"><g class="basic label-container"><path d="M-54.234375 -42 L54.234375 -42 L54.234375 42 L-54.234375 42" stroke="none" stroke-width="0" fill="#ECECFF" style=""/><path d="M-54.234375 -42 C-16.641525440161374 -42, 20.951324119677253 -42, 54.234375 -42 M-54.234375 -42 C-22.198464412801265 -42, 9.83744617439747 -42, 54.234375 -42 M54.234375 -42 C54.234375 -21.238673100640277, 54.234375 -0.47734620128055383, 54.234375 42 M54.234375 -42 C54.234375 -16.122353878163995, 54.234375 9.75529224367201, 54.234375 42 M54.234375 42 C18.847096123683443 42, -16.540182752633115 42, -54.234375 42 M54.234375 42 C28.424905581477176 42, 2.615436162954353 42, -54.234375 42 M-54.234375 42 C-54.234375 11.23895157506383, -54.234375 -19.52209684987234, -54.234375 -42 M-54.234375 42 C-54.234375 17.939325121859547, -54.234375 -6.121349756280907, -54.234375 -42" stroke="#9370DB" stroke-width="1.3" fill="none" stroke-dasharray="0 0" style=""/></g><g class="annotation-group text" transform="translate(0, -18)"/><g class="label-group text" transform="translate(-42.234375, -18)"><g class="label" style="font-weight: bolder" transform="translate(0,-12)"><foreignObject width="84.46875" height="24"><div xmlns="http://www.w3.org/1999/xhtml" style="display: table-cell; white-space: nowrap; line-height: 1.5; max-width: 126px; text-align: center;"><span class="nodeLabel markdown-node-label" style=""><p>DOSProfile</p></span></div></foreignObject></g></g><g class="members-group text" transform="translate(-42.234375, 30)"/><g class="methods-group text" transform="translate(-42.234375, 60)"/><g class="divider" style=""><path d="M-54.234375 6 C-29.85575146091373 6, -5.47712792182746 6, 54.234375 6 M-54.234375 6 C-27.817877138000593 6, -1.4013792760011867 6, 54.234375 6" stroke="#9370DB" stroke-width="1.3" fill="none" stroke-dasharray="0 0" style=""/></g></g><g class="node default" id="classId-ElectronicBandGap-2" transform="translate(535.6953125, 50)"><g class="basic label-container"><path d="M-86.2421875 -42 L86.2421875 -42 L86.2421875 42 L-86.2421875 42" stroke="none" stroke-width="0" fill="#ECECFF" style=""/><path d="M-86.2421875 -42 C-32.652007826953366 -42, 20.93817184609327 -42, 86.2421875 -42 M-86.2421875 -42 C-51.673153064026884 -42, -17.10411862805377 -42, 86.2421875 -42 M86.2421875 -42 C86.2421875 -14.359013761432145, 86.2421875 13.28197247713571, 86.2421875 42 M86.2421875 -42 C86.2421875 -23.527676695190557, 86.2421875 -5.055353390381114, 86.2421875 42 M86.2421875 42 C27.14764519252612 42, -31.94689711494776 42, -86.2421875 42 M86.2421875 42 C43.69545742742812 42, 1.1487273548562342 42, -86.2421875 42 M-86.2421875 42 C-86.2421875 15.785573568392604, -86.2421875 -10.428852863214793, -86.2421875 -42 M-86.2421875 42 C-86.2421875 12.855687996395513, -86.2421875 -16.288624007208973, -86.2421875 -42" stroke="#9370DB" stroke-width="1.3" fill="none" stroke-dasharray="0 0" style=""/></g><g class="annotation-group text" transform="translate(0, -18)"/><g class="label-group text" transform="translate(-74.2421875, -18)"><g class="label" style="font-weight: bolder" transform="translate(0,-12)"><foreignObject width="148.484375" height="24"><div xmlns="http://www.w3.org/1999/xhtml" style="display: table-cell; white-space: nowrap; line-height: 1.5; max-width: 176px; text-align: center;"><span class="nodeLabel markdown-node-label" style=""><p>ElectronicBandGap</p></span></div></foreignObject></g></g><g class="members-group text" transform="translate(-74.2421875, 30)"/><g class="methods-group text" transform="translate(-74.2421875, 60)"/><g class="divider" style=""><path d="M-86.2421875 6 C-28.400094775526348 6, 29.441997948947304 6, 86.2421875 6 M-86.2421875 6 C-18.245884290275413 6, 49.750418919449174 6, 86.2421875 6" stroke="#9370DB" stroke-width="1.3" fill="none" stroke-dasharray="0 0" style=""/></g></g><g class="node default" id="classId-ElectronicBandStructure-3" transform="translate(124.4921875, 366)"><g class="basic label-container"><path d="M-106.2421875 -42 L106.2421875 -42 L106.2421875 42 L-106.2421875 42" stroke="none" stroke-width="0" fill="#ECECFF" style=""/><path d="M-106.2421875 -42 C-31.663147936452432 -42, 42.915891627095135 -42, 106.2421875 -42 M-106.2421875 -42 C-41.02205657029995 -42, 24.198074359400096 -42, 106.2421875 -42 M106.2421875 -42 C106.2421875 -13.213672997483346, 106.2421875 15.572654005033307, 106.2421875 42 M106.2421875 -42 C106.2421875 -14.427881046538069, 106.2421875 13.144237906923863, 106.2421875 42 M106.2421875 42 C54.085648879792174 42, 1.9291102595843483 42, -106.2421875 42 M106.2421875 42 C34.39658274731518 42, -37.44902200536964 42, -106.2421875 42 M-106.2421875 42 C-106.2421875 20.71311205820298, -106.2421875 -0.5737758835940383, -106.2421875 -42 M-106.2421875 42 C-106.2421875 23.822664270421754, -106.2421875 5.645328540843508, -106.2421875 -42" stroke="#9370DB" stroke-width="1.3" fill="none" stroke-dasharray="0 0" style=""/></g><g class="annotation-group text" transform="translate(0, -18)"/><g class="label-group text" transform="translate(-94.2421875, -18)"><g class="label" style="font-weight: bolder" transform="translate(0,-12)"><foreignObject width="188.484375" height="24"><div xmlns="http://www.w3.org/1999/xhtml" style="display: table-cell; white-space: nowrap; line-height: 1.5; max-width: 208px; text-align: center;"><span class="nodeLabel markdown-node-label" style=""><p>ElectronicBandStructure</p></span></div></foreignObject></g></g><g class="members-group text" transform="translate(-94.2421875, 30)"/><g class="methods-group text" transform="translate(-94.2421875, 60)"/><g class="divider" style=""><path d="M-106.2421875 6 C-33.275073928437294 6, 39.69203964312541 6, 106.2421875 6 M-106.2421875 6 C-56.946630457092965 6, -7.65107341418593 6, 106.2421875 6" stroke="#9370DB" stroke-width="1.3" fill="none" stroke-dasharray="0 0" style=""/></g></g><g class="node default" id="classId-ElectronicDensityOfStates-4" transform="translate(484.08984375, 208)"><g class="basic label-container"><path d="M-112.4765625 -42 L112.4765625 -42 L112.4765625 42 L-112.4765625 42" stroke="none" stroke-width="0" fill="#ECECFF" style=""/><path d="M-112.4765625 -42 C-61.6960011751631 -42, -10.915439850326194 -42, 112.4765625 -42 M-112.4765625 -42 C-32.3752646640242 -42, 47.7260331719516 -42, 112.4765625 -42 M112.4765625 -42 C112.4765625 -15.601466664100112, 112.4765625 10.797066671799776, 112.4765625 42 M112.4765625 -42 C112.4765625 -17.452118694799267, 112.4765625 7.095762610401465, 112.4765625 42 M112.4765625 42 C42.00716870914462 42, -28.462225081710756 42, -112.4765625 42 M112.4765625 42 C29.170346303100217 42, -54.135869893799565 42, -112.4765625 42 M-112.4765625 42 C-112.4765625 24.63442451156861, -112.4765625 7.268849023137221, -112.4765625 -42 M-112.4765625 42 C-112.4765625 17.765177276764398, -112.4765625 -6.469645446471205, -112.4765625 -42" stroke="#9370DB" stroke-width="1.3" fill="none" stroke-dasharray="0 0" style=""/></g><g class="annotation-group text" transform="translate(0, -18)"/><g class="label-group text" transform="translate(-100.4765625, -18)"><g class="label" style="font-weight: bolder" transform="translate(0,-12)"><foreignObject width="200.953125" height="24"><div xmlns="http://www.w3.org/1999/xhtml" style="display: table-cell; white-space: nowrap; line-height: 1.5; max-width: 221px; text-align: center;"><span class="nodeLabel markdown-node-label" style=""><p>ElectronicDensityOfStates</p></span></div></foreignObject></g></g><g class="members-group text" transform="translate(-100.4765625, 30)"/><g class="methods-group text" transform="translate(-100.4765625, 60)"/><g class="divider" style=""><path d="M-112.4765625 6 C-40.58629476815017 6, 31.303972963699664 6, 112.4765625 6 M-112.4765625 6 C-24.72154314028171 6, 63.03347621943658 6, 112.4765625 6" stroke="#9370DB" stroke-width="1.3" fill="none" stroke-dasharray="0 0" style=""/></g></g><g class="node default" id="classId-ElectronicEigenvalues-5" transform="translate(124.4921875, 208)"><g class="basic label-container"><path d="M-97.3671875 -42 L97.3671875 -42 L97.3671875 42 L-97.3671875 42" stroke="none" stroke-width="0" fill="#ECECFF" style=""/><path d="M-97.3671875 -42 C-32.063333199598446 -42, 33.24052110080311 -42, 97.3671875 -42 M-97.3671875 -42 C-44.80121010464121 -42, 7.764767290717586 -42, 97.3671875 -42 M97.3671875 -42 C97.3671875 -11.774135026789384, 97.3671875 18.45172994642123, 97.3671875 42 M97.3671875 -42 C97.3671875 -22.44110626921036, 97.3671875 -2.882212538420717, 97.3671875 42 M97.3671875 42 C52.04011963492334 42, 6.713051769846686 42, -97.3671875 42 M97.3671875 42 C45.9475087818167 42, -5.472169936366598 42, -97.3671875 42 M-97.3671875 42 C-97.3671875 9.612710441413348, -97.3671875 -22.774579117173303, -97.3671875 -42 M-97.3671875 42 C-97.3671875 19.613326588901625, -97.3671875 -2.77334682219675, -97.3671875 -42" stroke="#9370DB" stroke-width="1.3" fill="none" stroke-dasharray="0 0" style=""/></g><g class="annotation-group text" transform="translate(0, -18)"/><g class="label-group text" transform="translate(-85.3671875, -18)"><g class="label" style="font-weight: bolder" transform="translate(0,-12)"><foreignObject width="170.734375" height="24"><div xmlns="http://www.w3.org/1999/xhtml" style="display: table-cell; white-space: nowrap; line-height: 1.5; max-width: 194px; text-align: center;"><span class="nodeLabel markdown-node-label" style=""><p>ElectronicEigenvalues</p></span></div></foreignObject></g></g><g class="members-group text" transform="translate(-85.3671875, 30)"/><g class="methods-group text" transform="translate(-85.3671875, 60)"/><g class="divider" style=""><path d="M-97.3671875 6 C-33.61372560828732 6, 30.139736283425364 6, 97.3671875 6 M-97.3671875 6 C-40.903258147276105 6, 15.56067120544779 6, 97.3671875 6" stroke="#9370DB" stroke-width="1.3" fill="none" stroke-dasharray="0 0" style=""/></g></g><g class="node default" id="classId-Energy2-6" transform="translate(345.21875, 366)"><g class="basic label-container"><path d="M-43.5703125 -42 L43.5703125 -42 L43.5703125 42 L-43.5703125 42" stroke="none" stroke-width="0" fill="#ECECFF" style=""/><path d="M-43.5703125 -42 C-20.427922111613114 -42, 2.714468276773772 -42, 43.5703125 -42 M-43.5703125 -42 C-16.2016007132824 -42, 11.167111073435201 -42, 43.5703125 -42 M43.5703125 -42 C43.5703125 -23.634968594440487, 43.5703125 -5.269937188880974, 43.5703125 42 M43.5703125 -42 C43.5703125 -11.75953810447066, 43.5703125 18.48092379105868, 43.5703125 42 M43.5703125 42 C15.004368443351055 42, -13.56157561329789 42, -43.5703125 42 M43.5703125 42 C13.911783613480026 42, -15.746745273039949 42, -43.5703125 42 M-43.5703125 42 C-43.5703125 19.78419788814036, -43.5703125 -2.431604223719283, -43.5703125 -42 M-43.5703125 42 C-43.5703125 10.615547589546978, -43.5703125 -20.768904820906045, -43.5703125 -42" stroke="#9370DB" stroke-width="1.3" fill="none" stroke-dasharray="0 0" style=""/></g><g class="annotation-group text" transform="translate(0, -18)"/><g class="label-group text" transform="translate(-31.5703125, -18)"><g class="label" style="font-weight: bolder" transform="translate(0,-12)"><foreignObject width="63.140625" height="24"><div xmlns="http://www.w3.org/1999/xhtml" style="display: table-cell; white-space: nowrap; line-height: 1.5; max-width: 104px; text-align: center;"><span class="nodeLabel markdown-node-label" style=""><p>Energy2</p></span></div></foreignObject></g></g><g class="members-group text" transform="translate(-31.5703125, 30)"/><g class="methods-group text" transform="translate(-31.5703125, 60)"/><g class="divider" style=""><path d="M-43.5703125 6 C-12.341674045621065 6, 18.88696440875787 6, 43.5703125 6 M-43.5703125 6 C-14.087666835448783 6, 15.394978829102435 6, 43.5703125 6" stroke="#9370DB" stroke-width="1.3" fill="none" stroke-dasharray="0 0" style=""/></g></g><g class="node default" id="classId-FermiSurface-7" transform="translate(735.0703125, 50)"><g class="basic label-container"><path d="M-63.1328125 -42 L63.1328125 -42 L63.1328125 42 L-63.1328125 42" stroke="none" stroke-width="0" fill="#ECECFF" style=""/><path d="M-63.1328125 -42 C-37.01092256103297 -42, -10.889032622065933 -42, 63.1328125 -42 M-63.1328125 -42 C-28.124136806595786 -42, 6.8845388868084285 -42, 63.1328125 -42 M63.1328125 -42 C63.1328125 -18.793640777946163, 63.1328125 4.412718444107675, 63.1328125 42 M63.1328125 -42 C63.1328125 -22.454223549384043, 63.1328125 -2.908447098768086, 63.1328125 42 M63.1328125 42 C31.926059605739983 42, 0.719306711479966 42, -63.1328125 42 M63.1328125 42 C19.36203952037915 42, -24.408733459241702 42, -63.1328125 42 M-63.1328125 42 C-63.1328125 17.156444063864022, -63.1328125 -7.687111872271956, -63.1328125 -42 M-63.1328125 42 C-63.1328125 12.376912017573549, -63.1328125 -17.246175964852902, -63.1328125 -42" stroke="#9370DB" stroke-width="1.3" fill="none" stroke-dasharray="0 0" style=""/></g><g class="annotation-group text" transform="translate(0, -18)"/><g class="label-group text" transform="translate(-51.1328125, -18)"><g class="label" style="font-weight: bolder" transform="translate(0,-12)"><foreignObject width="102.265625" height="24"><div xmlns="http://www.w3.org/1999/xhtml" style="display: table-cell; white-space: nowrap; line-height: 1.5; max-width: 137px; text-align: center;"><span class="nodeLabel markdown-node-label" style=""><p>FermiSurface</p></span></div></foreignObject></g></g><g class="members-group text" transform="translate(-51.1328125, 30)"/><g class="methods-group text" transform="translate(-51.1328125, 60)"/><g class="divider" style=""><path d="M-63.1328125 6 C-26.80842381130823 6, 9.515964877383539 6, 63.1328125 6 M-63.1328125 6 C-23.640359672497098 6, 15.852093155005804 6, 63.1328125 6" stroke="#9370DB" stroke-width="1.3" fill="none" stroke-dasharray="0 0" style=""/></g></g><g class="node default" id="classId-Occupancy-8" transform="translate(903.3359375, 50)"><g class="basic label-container"><path d="M-55.1328125 -42 L55.1328125 -42 L55.1328125 42 L-55.1328125 42" stroke="none" stroke-width="0" fill="#ECECFF" style=""/><path d="M-55.1328125 -42 C-20.369835953988492 -42, 14.393140592023016 -42, 55.1328125 -42 M-55.1328125 -42 C-30.243231988697893 -42, -5.353651477395786 -42, 55.1328125 -42 M55.1328125 -42 C55.1328125 -13.205405551393937, 55.1328125 15.589188897212125, 55.1328125 42 M55.1328125 -42 C55.1328125 -11.085821853448127, 55.1328125 19.828356293103745, 55.1328125 42 M55.1328125 42 C26.19522255604495 42, -2.7423673879101003 42, -55.1328125 42 M55.1328125 42 C24.10649541240335 42, -6.9198216751932975 42, -55.1328125 42 M-55.1328125 42 C-55.1328125 17.611949012893323, -55.1328125 -6.776101974213354, -55.1328125 -42 M-55.1328125 42 C-55.1328125 13.551102658199849, -55.1328125 -14.897794683600303, -55.1328125 -42" stroke="#9370DB" stroke-width="1.3" fill="none" stroke-dasharray="0 0" style=""/></g><g class="annotation-group text" transform="translate(0, -18)"/><g class="label-group text" transform="translate(-43.1328125, -18)"><g class="label" style="font-weight: bolder" transform="translate(0,-12)"><foreignObject width="86.265625" height="24"><div xmlns="http://www.w3.org/1999/xhtml" style="display: table-cell; white-space: nowrap; line-height: 1.5; max-width: 122px; text-align: center;"><span class="nodeLabel markdown-node-label" style=""><p>Occupancy</p></span></div></foreignObject></g></g><g class="members-group text" transform="translate(-43.1328125, 30)"/><g class="methods-group text" transform="translate(-43.1328125, 60)"/><g class="divider" style=""><path d="M-55.1328125 6 C-20.803258999786863 6, 13.526294500426275 6, 55.1328125 6 M-55.1328125 6 C-23.559112834537927 6, 8.014586830924145 6, 55.1328125 6" stroke="#9370DB" stroke-width="1.3" fill="none" stroke-dasharray="0 0" style=""/></g></g></g></g></g></svg>