<?xml version="1.0" encoding="UTF-8"?>
<svg id="my-svg" width="100%" xmlns="http://www.w3.org/2000/svg" xmlns:xlink="http://www.w3.org/1999/xlink" class="classDiagram" style="max-width: 966.469px; background-color: white;" viewBox="0 0 966.46875 416" role="graphics-document document" aria-roledescription="class"><style>#my-svg{font-family:"trebuchet ms",verdana,arial,sans-serif;font-size:16px;fill:#333;}@keyframes edge-animation-frame{from{stroke-dashoffset:0;}}@keyframes dash{to{stroke-dashoffset:0;}}#my-svg .edge-animation-slow{stroke-dasharray:9,5!important;stroke-dashoffset:900;animation:dash 50s linear infinite;stroke-linecap:round;}#my-svg .edge-animation-fast{stroke-dasharray:9,5!important;stroke-dashoffset:900;animation:dash 20s linear infinite;stroke-linecap:round;}#my-svg .error-icon{fill:#552222;}#my-svg .error-text{fill:#552222;stroke:#552222;}#my-svg .edge-thickness-normal{stroke-width:1px;}#my-svg .edge-thickness-thick{stroke-width:3.5px;}#my-svg .edge-pattern-solid{stroke-dasharray:0;}#my-svg .edge-thickness-invisible{stroke-width:0;fill:none;}#my-svg .edge-pattern-dashed{stroke-dasharray:3;}#my-svg .edge-pattern-dotted{stroke-dasharray:2;}#my-svg .marker{fill:#333333;stroke:#333333;}#my-svg .marker.cross{stroke:#333333;}#my-svg svg{font-family:"trebuchet ms",verdana,arial,sans-serif;font-size:16px;}#my-svg p{margin:0;}#my-svg g.classGroup text{fill:#9370DB;stroke:none;font-family:"trebuchet ms",verdana,arial,sans-serif;font-size:10px;}#my-svg g.classGroup text .title{font-weight:bolder;}#my-svg .nodeLabel,#my-svg .edgeLabel{color:#131300;}#my-svg .edgeLabel .label rect{fill:#ECECFF;}#my-svg .label text{fill:#131300;}#my-svg .labelBkg{background:#ECECFF;}#my-svg .edgeLabel .label span{background:#ECECFF;}#my-svg .classTitle{font-weight:bolder;}#my-svg .node rect,#my-svg .node circle,#my-svg .node ellipse,#my-svg .node polygon,#my-svg .node path{fill:#ECECFF;stroke:#9370DB;stroke-width:1px;}#my-svg .divider{stroke:#9370DB;stroke-width:1;}#my-svg g.clickable{cursor:pointer;}#my-svg g.classGroup rect{fill:#ECECFF;stroke:#9370DB;}#my-svg g.classGroup line{stroke:#9370DB;stroke-width:1;}#my-svg .classLabel .box{stroke:none;stroke-width:0;fill:#ECECFF;opacity:0.5;}#my-svg .classLabel .label{fill:#9370DB;font-size:10px;}#my-svg .relation{stroke:#333333;stroke-width:1;fill:none;}#my-svg .dashed-line{stroke-dasharray:3;}#my-svg .dotted-line{stroke-dasharray:1 2;}#my-svg #compositionStart,#my-svg .composition{fill:#333333!important;stroke:#333333!important;stroke-width:1;}#my-svg #compositionEnd,#my-svg .composition{fill:#333333!important;stroke:#333333!important;stroke-width:1;}#my-svg #dependencyStart,#my-svg .dependency{fill:#333333!important;stroke:#333333!important;stroke-width:1;}#my-svg #dependencyStart,#my-svg .dependency{fill:#333333!important;stroke:#333333!important;stroke-width:1;}#my-svg #extensionStart,#my-svg .extension{fill:transparent!important;stroke:#333333!important;stroke-width:1;}#my-svg #extensionEnd,#my-svg .extension{fill:transparent!important;stroke:#333333!important;stroke-width:1;}#my-svg #aggregationStart,#my-svg .aggregation{fill:transparent!important;stroke:#333333!important;stroke-width:1;}#my-svg #aggregationEnd,#my-svg .aggregation{fill:transparent!important;stroke:#333333!important;stroke-width:1;}#my-svg #lollipopStart,#my-svg .lollipop{fill:#ECECFF!important;stroke:#333333!important;stroke-width:1;}#my-svg #lollipopEnd,#my-svg .lollipop{fill:#ECECFF!important;stroke:#333333!important;stroke-width:1;}#my-svg .edgeTerminals{font-size:11px;line-height:initial;}#my-svg .classTitleText{text-anchor:middle;font-size:18px;fill:#333;}#my-svg .label-icon{display:inline-block;height:1em;overflow:visible;vertical-align:-0.125em;}#my-svg .node .label-icon path{fill:currentColor;stroke:revert;stroke-width:revert;}#my-svg :root{--mermaid-font-family:"trebuchet ms",verdana,arial,sans-serif;}</style><g><defs><marker id="my-svg_class-aggregationStart" class="marker aggregation class" refX="18" refY="7" markerWidth="190" markerHeight="240" orient="auto"><path d="M 18,7 L9,13 L1,7 L9,1 Z"/></marker></defs><defs><marker id="my-svg_class-aggregationEnd" class="marker aggregation class" refX="1" refY="7" markerWidth="20" markerHeight="28" orient="auto"><path d="M 18,7 L9,13 L1,7 L9,1 Z"/></marker></defs><defs><marker id="my-svg_class-extensionStart" class="marker extension class" refX="18" refY="7" markerWidth="190" markerHeight="240" orient="auto"><path d="M 1,7 L18,13 V 1 Z"/></marker></defs><defs><marker id="my-svg_class-extensionEnd" class="marker extension class" refX="1" refY="7" markerWidth="20" markerHeight="28" orient="auto"><path d="M 1,1 V 13 L18,7 Z"/></marker></defs><defs><marker id="my-svg_class-compositionStart" class="marker composition class" refX="18" refY="7" markerWidth="190" markerHeight="240" orient="auto"><path d="M 18,7 L9,13 L1,7 L9,1 Z"/></marker></defs><defs><marker id="my-svg_class-compositionEnd" class="marker composition class" refX="1" refY="7" markerWidth="20" markerHeight="28" orient="auto"><path d="M 18,7 L9,13 L1,7 L9,1 Z"/></marker></defs><defs><marker id="my-svg_class-dependencyStart" class="marker dependency class" refX="6" refY="7" markerWidth="190" markerHeight="240" orient="auto"><path d="M 5,7 L9,13 L1,7 L9,1 Z"/></marker></defs><defs><marker id="my-svg_class-dependencyEnd" class="marker dependency class" refX="13" refY="7" markerWidth="20" markerHeight="28" orient="auto"><path d="M 18,7 L9,13 L14,7 L9,1 Z"/></marker></defs><defs><marker id="my-svg_class-lollipopStart" class="marker lollipop class" refX="13" refY="7" markerWidth="190" markerHeight="240" orient="auto"><circle stroke="black" fill="transparent" cx="7" cy="7" r="6"/></marker></defs><defs><marker id="my-svg_class-lollipopEnd" class="marker lollipop class" refX="1" refY="7" markerWidth="190" markerHeight="240" orient="auto"><circle stroke="black" fill="transparent" cx="7" cy="7" r="6"/></marker></defs><g class="root"><g class="clusters"/><g class="edgePaths"><path d="M124.492,267.25L124.492,270.542C124.492,273.833,124.492,280.417,124.492,289.875C124.492,299.333,124.492,311.667,124.492,317.833L124.492,324" id="id_ElectronicEigenvalues_ElectronicBandStructure_1" class="edge-thickness-normal edge-pattern-solid relation" style=";;;" data-edge="true" data-et="edge" data-id="id_ElectronicEigenvalues_ElectronicBandStructure_1" data-points="W3sieCI6MTI0LjQ5MjE4NzUsInkiOjI1MH0seyJ4IjoxMjQuNDkyMTg3NSwieSI6Mjg3fSx7IngiOjEyNC40OTIxODc1LCJ5IjozMjR9XQ==" marker-start="url(#my-svg_class-extensionStart)"/><path d="M399.188,104.227L403.297,108.355C407.407,112.484,415.625,120.742,424.437,131.038C433.249,141.333,442.655,153.667,447.358,159.833L452.06,166" id="id_DOSProfile_ElectronicDensityOfStates_2" class="edge-thickness-normal edge-pattern-solid relation" style=";;;" data-edge="true" data-et="edge" data-id="id_DOSProfile_ElectronicDensityOfStates_2" data-points="W3sieCI6Mzg3LjAxOTM4MjkxMTM5MjQsInkiOjkyfSx7IngiOjQyMy44NDM3NSwieSI6MTI5fSx7IngiOjQ1Mi4wNjAyNzQ5MjA4ODYwNiwieSI6MTY2fV0=" marker-start="url(#my-svg_class-extensionStart)"/><path d="M92.389,107.032L90.328,110.693C88.267,114.355,84.145,121.677,85.556,131.505C86.966,141.333,93.908,153.667,97.379,159.833L100.851,166" id="id_BaseElectronicEigenvalues_ElectronicEigenvalues_3" class="edge-thickness-normal edge-pattern-solid relation" style=";;;" data-edge="true" data-et="edge" data-id="id_BaseElectronicEigenvalues_ElectronicEigenvalues_3" data-points="W3sieCI6MTAwLjg1MDU3MzU3NTk0OTM3LCJ5Ijo5Mn0seyJ4Ijo4MC4wMjM0Mzc1LCJ5IjoxMjl9LHsieCI6MTAwLjg1MDU3MzU3NTk0OTM3LCJ5IjoxNjZ9XQ==" marker-start="url(#my-svg_class-extensionStart)"/><path d="M324.329,92L321.262,98.167C318.194,104.333,312.06,116.667,308.993,136C305.926,155.333,305.926,181.667,305.926,208C305.926,234.333,305.926,260.667,308.548,279.105C311.169,297.543,316.413,308.085,319.035,313.357L321.657,318.628" id="id_DOSProfile_Energy2_4" class="edge-thickness-normal edge-pattern-solid relation" style=";;;" data-edge="true" data-et="edge" data-id="id_DOSProfile_Energy2_4" data-points="W3sieCI6MzI0LjMyODgxNzI0NjgzNTQ2LCJ5Ijo5Mn0seyJ4IjozMDUuOTI1NzgxMjUsInkiOjEyOX0seyJ4IjozMDUuOTI1NzgxMjUsInkiOjIwOH0seyJ4IjozMDUuOTI1NzgxMjUsInkiOjI4N30seyJ4IjozMjQuMzI4ODE3MjQ2ODM1NDYsInkiOjMyNH1d" marker-end="url(#my-svg_class-dependencyEnd)"/><path d="M502.766,166L505.508,159.833C508.25,153.667,513.734,141.333,497.426,126.517C481.118,111.701,443.017,94.403,423.967,85.753L404.916,77.104" id="id_ElectronicDensityOfStates_DOSProfile_5" class="edge-thickness-normal edge-pattern-solid relation" style=";;;" data-edge="true" data-et="edge" data-id="id_ElectronicDensityOfStates_DOSProfile_5" data-points="W3sieCI6NTAyLjc2NTk3MTEyMzQxNzcsInkiOjE2Nn0seyJ4Ijo1MTkuMjE4NzUsInkiOjEyOX0seyJ4IjozOTkuNDUzMTI1LCJ5Ijo3NC42MjM2NTMwMTcyNDEzOH1d" marker-end="url(#my-svg_class-dependencyEnd)"/><path d="M484.09,250L484.09,256.167C484.09,262.333,484.09,274.667,469.076,289.375C454.061,304.082,424.033,321.165,409.019,329.706L394.004,338.247" id="id_ElectronicDensityOfStates_Energy2_6" class="edge-thickness-normal edge-pattern-solid relation" style=";;;" data-edge="true" data-et="edge" data-id="id_ElectronicDensityOfStates_Energy2_6" data-points="W3sieCI6NDg0LjA4OTg0Mzc1LCJ5IjoyNTB9LHsieCI6NDg0LjA4OTg0Mzc1LCJ5IjoyODd9LHsieCI6Mzg4Ljc4OTA2MjUsInkiOjM0MS4yMTQwMzA1NDc2NjM5fV0=" marker-end="url(#my-svg_class-dependencyEnd)"/><path d="M153.965,166L158.293,159.833C162.62,153.667,171.275,141.333,171.849,129.819C172.424,118.304,164.918,107.608,161.165,102.259L157.412,96.911" id="id_ElectronicEigenvalues_BaseElectronicEigenvalues_7" class="edge-thickness-normal edge-pattern-solid relation" style=";;;" data-edge="true" data-et="edge" data-id="id_ElectronicEigenvalues_BaseElectronicEigenvalues_7" data-points="W3sieCI6MTUzLjk2NTI4ODc2NTgyMjc4LCJ5IjoxNjZ9LHsieCI6MTc5LjkyOTY4NzUsInkiOjEyOX0seyJ4IjoxNTMuOTY1Mjg4NzY1ODIyNzgsInkiOjkyfV0=" marker-end="url(#my-svg_class-dependencyEnd)"/></g><g class="edgeLabels"><g class="edgeLabel"><g class="label" data-id="id_ElectronicEigenvalues_ElectronicBandStructure_1" transform="translate(0, 0)"><foreignObject width="0" height="0"><div xmlns="http://www.w3.org/1999/xhtml" class="labelBkg" style="display: table-cell; white-space: nowrap; line-height: 1.5; max-width: 200px; text-align: center;"><span class="edgeLabel"></span></div></foreignObject></g></g><g class="edgeLabel"><g class="label" data-id="id_DOSProfile_ElectronicDensityOfStates_2" transform="translate(0, 0)"><foreignObject width="0" height="0"><div xmlns="http://www.w3.org/1999/xhtml" class="labelBkg" style="display: table-cell; white-space: nowrap; line-height: 1.5; max-width: 200px; text-align: center;"><span class="edgeLabel"></span></div></foreignObject></g></g><g class="edgeLabel"><g class="label" data-id="id_BaseElectronicEigenvalues_ElectronicEigenvalues_3" transform="translate(0, 0)"><foreignObject width="0" height="0"><div xmlns="http://www.w3.org/1999/xhtml" class="labelBkg" style="display: table-cell; white-space: nowrap; line-height: 1.5; max-width: 200px; text-align: center;"><span class="edgeLabel"></span></div></foreignObject></g></g><g class="edgeLabel" transform="translate(305.92578125, 208)"><g class="label" data-id="id_DOSProfile_Energy2_4" transform="translate(-30.6875, -12)"><foreignObject width="61.375" height="24"><div xmlns="http://www.w3.org/1999/xhtml" class="labelBkg" style="display: table-cell; white-space: nowrap; line-height: 1.5; max-width: 200px; text-align: center;"><span class="edgeLabel"><p>energies</p></span></div></foreignObject></g></g><g class="edgeLabel" transform="translate(477.77136, 110.18193)"><g class="label" data-id="id_ElectronicDensityOfStates_DOSProfile_5" transform="translate(-50.2578125, -12)"><foreignObject width="100.515625" height="24"><div xmlns="http://www.w3.org/1999/xhtml" class="labelBkg" style="display: table-cell; white-space: nowrap; line-height: 1.5; max-width: 200px; text-align: center;"><span class="edgeLabel"><p>projected_dos</p></span></div></foreignObject></g></g><g class="edgeLabel" transform="translate(484.08984375, 287)"><g class="label" data-id="id_ElectronicDensityOfStates_Energy2_6" transform="translate(-30.6875, -12)"><foreignObject width="61.375" height="24"><div xmlns="http://www.w3.org/1999/xhtml" class="labelBkg" style="display: table-cell; white-space: nowrap; line-height: 1.5; max-width: 200px; text-align: center;"><span class="edgeLabel"><p>energies</p></span></div></foreignObject></g></g><g class="edgeLabel" transform="translate(179.9296875, 129)"><g class="label" data-id="id_ElectronicEigenvalues_BaseElectronicEigenvalues_7" transform="translate(-68.9375, -12)"><foreignObject width="137.875" height="24"><div xmlns="http://www.w3.org/1999/xhtml" class="labelBkg" style="display: table-cell; white-space: nowrap; line-height: 1.5; max-width: 200px; text-align: center;"><span class="edgeLabel"><p>value_contributions</p></span></div></foreignObject></g></g></g><g class="nodes"><g class="node default" id="classId-BaseElectronicEigenvalues-0" transform="translate(124.4921875, 50)"><g class="basic label-container"><path d="M-116.4921875 -42 L116.4921875 -42 L116.4921875 42 L-116.4921875 42" stroke="none" stroke-width="0" fill="#ECECFF" style=""/><path d="M-116.4921875 -42 C-48.494356769845325 -42, 19.50347396030935 -42, 116.4921875 -42 M-116.4921875 -42 C-59.60516172254155 -42, -2.7181359450831053 -42, 116.4921875 -42 M116.4921875 -42 C116.4921875 -18.080074025965914, 116.4921875 5.839851948068173, 116.4921875 42 M116.4921875 -42 C116.4921875 -11.924311480089145, 116.4921875 18.15137703982171, 116.4921875 42 M116.4921875 42 C63.817028090863495 42, 11.14186868172699 42, -116.4921875 42 M116.4921875 42 C32.99556973568966 42, -50.50104802862069 42, -116.4921875 42 M-116.4921875 42 C-116.4921875 15.44260538315529, -116.4921875 -11.114789233689422, -116.4921875 -42 M-116.4921875 42 C-116.4921875 18.38334438582083, -116.4921875 -5.233311228358339, -116.4921875 -42" stroke="#9370DB" stroke-width="1.3" fill="none" stroke-dasharray="0 0" style=""/></g><g class="annotation-group text" transform="translate(0, -18)"/><g class="label-group text" transform="translate(-104.4921875, -18)"><g class="label" style="font-weight: bolder" transform="translate(0,-12)"><foreignObject width="208.984375" height="24"><div xmlns="http://www.w3.org/1999/xhtml" style="display: table-cell; white-space: nowrap; line-height: 1.5; max-width: 225px; text-align: center;"><span class="nodeLabel markdown-node-label" style=""><p>BaseElectronicEigenvalues</p></span></div></foreignObject></g></g><g class="members-group text" transform="translate(-104.4921875, 30)"/><g class="methods-group text" transform="translate(-104.4921875, 60)"/><g class="divider" style=""><path d="M-116.4921875 6 C-55.34397221809912 6, 5.8042430638017635 6, 116.4921875 6 M-116.4921875 6 C-42.392022749099695 6, 31.70814200180061 6, 116.4921875 6" stroke="#9370DB" stroke-width="1.3" fill="none" stroke-dasharray="0 0" style=""/></g></g><g class="node default" id="classId-DOSProfile-1" transform="translate(345.21875, 50)"><g class="basic label-container"><path d="M-54.234375 -42 L54.234375 -42 L54.234375 42 L-54.234375 42" stroke="none" stroke-width="0" fill="#ECECFF" style=""/><path d="M-54.234375 -42 C-12.5625379424757 -42, 29.1092991150486 -42, 54.234375 -42 M-54.234375 -42 C-16.71538300372753 -42, 20.803608992544937 -42, 54.234375 -42 M54.234375 -42 C54.234375 -17.46532648355733, 54.234375 7.069347032885339, 54.234375 42 M54.234375 -42 C54.234375 -15.248130586561587, 54.234375 11.503738826876827, 54.234375 42 M54.234375 42 C14.618765096723614 42, -24.996844806552772 42, -54.234375 42 M54.234375 42 C16.621750806186697 42, -20.990873387626607 42, -54.234375 42 M-54.234375 42 C-54.234375 13.154774875578031, -54.234375 -15.690450248843938, -54.234375 -42 M-54.234375 42 C-54.234375 14.13344469043783, -54.234375 -13.73311061912434, -54.234375 -42" stroke="#9370DB" stroke-width="1.3" fill="none" stroke-dasharray="0 0" style=""/></g><g class="annotation-group text" transform="translate(0, -18)"/><g class="label-group text" transform="translate(-42.234375, -18)"><g class="label" style="font-weight: bolder" transform="translate(0,-12)"><foreignObject width="84.46875" height="24"><div xmlns="http://www.w3.org/1999/xhtml" style="display: table-cell; white-space: nowrap; line-height: 1.5; max-width: 126px; text-align: center;"><span class="nodeLabel markdown-node-label" style=""><p>DOSProfile</p></span></div></foreignObject></g></g><g class="members-group text" transform="translate(-42.234375, 30)"/><g class="methods-group text" transform="translate(-42.234375, 60)"/><g class="divider" style=""><path d="M-54.234375 6 C-25.835106867181718 6, 2.5641612656365638 6, 54.234375 6 M-54.234375 6 C-18.24156856626397 6, 17.751237867472057 6, 54.234375 6" stroke="#9370DB" stroke-width="1.3" fill="none" stroke-dasharray="0 0" style=""/></g></g><g class="node default" id="classId-ElectronicBandGap-2" transform="translate(535.6953125, 50)"><g class="basic label-container"><path d="M-86.2421875 -42 L86.2421875 -42 L86.2421875 42 L-86.2421875 42" stroke="none" stroke-width="0" fill="#ECECFF" style=""/><path d="M-86.2421875 -42 C-36.471695977728956 -42, 13.298795544542088 -42, 86.2421875 -42 M-86.2421875 -42 C-36.30654879992035 -42, 13.6290899001593 -42, 86.2421875 -42 M86.2421875 -42 C86.2421875 -9.06597031868894, 86.2421875 23.86805936262212, 86.2421875 42 M86.2421875 -42 C86.2421875 -11.781398580909237, 86.2421875 18.437202838181527, 86.2421875 42 M86.2421875 42 C18.560514734365213 42, -49.12115803126957 42, -86.2421875 42 M86.2421875 42 C34.99092231728626 42, -16.260342865427475 42, -86.2421875 42 M-86.2421875 42 C-86.2421875 13.426723041381088, -86.2421875 -15.146553917237824, -86.2421875 -42 M-86.2421875 42 C-86.2421875 24.30608097480125, -86.2421875 6.612161949602502, -86.2421875 -42" stroke="#9370DB" stroke-width="1.3" fill="none" stroke-dasharray="0 0" style=""/></g><g class="annotation-group text" transform="translate(0, -18)"/><g class="label-group text" transform="translate(-74.2421875, -18)"><g class="label" style="font-weight: bolder" transform="translate(0,-12)"><foreignObject width="148.484375" height="24"><div xmlns="http://www.w3.org/1999/xhtml" style="display: table-cell; white-space: nowrap; line-height: 1.5; max-width: 176px; text-align: center;"><span class="nodeLabel markdown-node-label" style=""><p>ElectronicBandGap</p></span></div></foreignObject></g></g><g class="members-group text" transform="translate(-74.2421875, 30)"/><g class="methods-group text" transform="translate(-74.2421875, 60)"/><g class="divider" style=""><path d="M-86.2421875 6 C-34.78266661745513 6, 16.676854265089744 6, 86.2421875 6 M-86.2421875 6 C-29.19991896400566 6, 27.842349571988677 6, 86.2421875 6" stroke="#9370DB" stroke-width="1.3" fill="none" stroke-dasharray="0 0" style=""/></g></g><g class="node default" id="classId-ElectronicBandStructure-3" transform="translate(124.4921875, 366)"><g class="basic label-container"><path d="M-106.2421875 -42 L106.2421875 -42 L106.2421875 42 L-106.2421875 42" stroke="none" stroke-width="0" fill="#ECECFF" style=""/><path d="M-106.2421875 -42 C-33.28683813733609 -42, 39.66851122532782 -42, 106.2421875 -42 M-106.2421875 -42 C-44.37297133761748 -42, 17.496244824765043 -42, 106.2421875 -42 M106.2421875 -42 C106.2421875 -18.378214216808278, 106.2421875 5.243571566383444, 106.2421875 42 M106.2421875 -42 C106.2421875 -13.223163248239448, 106.2421875 15.553673503521104, 106.2421875 42 M106.2421875 42 C46.16155582604232 42, -13.919075847915366 42, -106.2421875 42 M106.2421875 42 C36.91910854800673 42, -32.403970403986534 42, -106.2421875 42 M-106.2421875 42 C-106.2421875 13.78449739934172, -106.2421875 -14.431005201316559, -106.2421875 -42 M-106.2421875 42 C-106.2421875 8.799850187673663, -106.2421875 -24.400299624652675, -106.2421875 -42" stroke="#9370DB" stroke-width="1.3" fill="none" stroke-dasharray="0 0" style=""/></g><g class="annotation-group text" transform="translate(0, -18)"/><g class="label-group text" transform="translate(-94.2421875, -18)"><g class="label" style="font-weight: bolder" transform="translate(0,-12)"><foreignObject width="188.484375" height="24"><div xmlns="http://www.w3.org/1999/xhtml" style="display: table-cell; white-space: nowrap; line-height: 1.5; max-width: 208px; text-align: center;"><span class="nodeLabel markdown-node-label" style=""><p>ElectronicBandStructure</p></span></div></foreignObject></g></g><g class="members-group text" transform="translate(-94.2421875, 30)"/><g class="methods-group text" transform="translate(-94.2421875, 60)"/><g class="divider" style=""><path d="M-106.2421875 6 C-43.156189003474346 6, 19.92980949305131 6, 106.2421875 6 M-106.2421875 6 C-29.086438737198634 6, 48.06931002560273 6, 106.2421875 6" stroke="#9370DB" stroke-width="1.3" fill="none" stroke-dasharray="0 0" style=""/></g></g><g class="node default" id="classId-ElectronicDensityOfStates-4" transform="translate(484.08984375, 208)"><g class="basic label-container"><path d="M-112.4765625 -42 L112.4765625 -42 L112.4765625 42 L-112.4765625 42" stroke="none" stroke-width="0" fill="#ECECFF" style=""/><path d="M-112.4765625 -42 C-35.58555896277598 -42, 41.305444574448046 -42, 112.4765625 -42 M-112.4765625 -42 C-24.411028428107926 -42, 63.65450564378415 -42, 112.4765625 -42 M112.4765625 -42 C112.4765625 -20.924673466225073, 112.4765625 0.15065306754985386, 112.4765625 42 M112.4765625 -42 C112.4765625 -22.856251174142233, 112.4765625 -3.712502348284467, 112.4765625 42 M112.4765625 42 C40.39879736094329 42, -31.678967778113417 42, -112.4765625 42 M112.4765625 42 C28.700892401059576 42, -55.07477769788085 42, -112.4765625 42 M-112.4765625 42 C-112.4765625 19.18687685980125, -112.4765625 -3.6262462803975026, -112.4765625 -42 M-112.4765625 42 C-112.4765625 11.124458329000532, -112.4765625 -19.751083341998935, -112.4765625 -42" stroke="#9370DB" stroke-width="1.3" fill="none" stroke-dasharray="0 0" style=""/></g><g class="annotation-group text" transform="translate(0, -18)"/><g class="label-group text" transform="translate(-100.4765625, -18)"><g class="label" style="font-weight: bolder" transform="translate(0,-12)"><foreignObject width="200.953125" height="24"><div xmlns="http://www.w3.org/1999/xhtml" style="display: table-cell; white-space: nowrap; line-height: 1.5; max-width: 221px; text-align: center;"><span class="nodeLabel markdown-node-label" style=""><p>ElectronicDensityOfStates</p></span></div></foreignObject></g></g><g class="members-group text" transform="translate(-100.4765625, 30)"/><g class="methods-group text" transform="translate(-100.4765625, 60)"/><g class="divider" style=""><path d="M-112.4765625 6 C-39.718052070440265 6, 33.04045835911947 6, 112.4765625 6 M-112.4765625 6 C-24.902891035009816 6, 62.67078042998037 6, 112.4765625 6" stroke="#9370DB" stroke-width="1.3" fill="none" stroke-dasharray="0 0" style=""/></g></g><g class="node default" id="classId-ElectronicEigenvalues-5" transform="translate(124.4921875, 208)"><g class="basic label-container"><path d="M-97.3671875 -42 L97.3671875 -42 L97.3671875 42 L-97.3671875 42" stroke="none" stroke-width="0" fill="#ECECFF" style=""/><path d="M-97.3671875 -42 C-35.80525902254908 -42, 25.75666945490184 -42, 97.3671875 -42 M-97.3671875 -42 C-26.080948016830504 -42, 45.20529146633899 -42, 97.3671875 -42 M97.3671875 -42 C97.3671875 -10.50678233028744, 97.3671875 20.98643533942512, 97.3671875 42 M97.3671875 -42 C97.3671875 -10.505808672754725, 97.3671875 20.98838265449055, 97.3671875 42 M97.3671875 42 C50.65510899996915 42, 3.9430304999383026 42, -97.3671875 42 M97.3671875 42 C43.38923391078363 42, -10.588719678432739 42, -97.3671875 42 M-97.3671875 42 C-97.3671875 24.491818057676717, -97.3671875 6.983636115353434, -97.3671875 -42 M-97.3671875 42 C-97.3671875 16.861735018320864, -97.3671875 -8.276529963358271, -97.3671875 -42" stroke="#9370DB" stroke-width="1.3" fill="none" stroke-dasharray="0 0" style=""/></g><g class="annotation-group text" transform="translate(0, -18)"/><g class="label-group text" transform="translate(-85.3671875, -18)"><g class="label" style="font-weight: bolder" transform="translate(0,-12)"><foreignObject width="170.734375" height="24"><div xmlns="http://www.w3.org/1999/xhtml" style="display: table-cell; white-space: nowrap; line-height: 1.5; max-width: 194px; text-align: center;"><span class="nodeLabel markdown-node-label" style=""><p>ElectronicEigenvalues</p></span></div></foreignObject></g></g><g class="members-group text" transform="translate(-85.3671875, 30)"/><g class="methods-group text" transform="translate(-85.3671875, 60)"/><g class="divider" style=""><path d="M-97.3671875 6 C-23.54580551142415 6, 50.2755764771517 6, 97.3671875 6 M-97.3671875 6 C-26.856182245275065 6, 43.65482300944987 6, 97.3671875 6" stroke="#9370DB" stroke-width="1.3" fill="none" stroke-dasharray="0 0" style=""/></g></g><g class="node default" id="classId-Energy2-6" transform="translate(345.21875, 366)"><g class="basic label-container"><path d="M-43.5703125 -42 L43.5703125 -42 L43.5703125 42 L-43.5703125 42" stroke="none" stroke-width="0" fill="#ECECFF" style=""/><path d="M-43.5703125 -42 C-11.927326282689421 -42, 19.715659934621158 -42, 43.5703125 -42 M-43.5703125 -42 C-22.413458980891214 -42, -1.2566054617824278 -42, 43.5703125 -42 M43.5703125 -42 C43.5703125 -13.87880784789228, 43.5703125 14.242384304215442, 43.5703125 42 M43.5703125 -42 C43.5703125 -17.885732940235485, 43.5703125 6.22853411952903, 43.5703125 42 M43.5703125 42 C20.905176509751296 42, -1.7599594804974075 42, -43.5703125 42 M43.5703125 42 C21.47694321024509 42, -0.6164260795098215 42, -43.5703125 42 M-43.5703125 42 C-43.5703125 21.772682566700272, -43.5703125 1.5453651334005443, -43.5703125 -42 M-43.5703125 42 C-43.5703125 24.024692743660268, -43.5703125 6.049385487320535, -43.5703125 -42" stroke="#9370DB" stroke-width="1.3" fill="none" stroke-dasharray="0 0" style=""/></g><g class="annotation-group text" transform="translate(0, -18)"/><g class="label-group text" transform="translate(-31.5703125, -18)"><g class="label" style="font-weight: bolder" transform="translate(0,-12)"><foreignObject width="63.140625" height="24"><div xmlns="http://www.w3.org/1999/xhtml" style="display: table-cell; white-space: nowrap; line-height: 1.5; max-width: 104px; text-align: center;"><span class="nodeLabel markdown-node-label" style=""><p>Energy2</p></span></div></foreignObject></g></g><g class="members-group text" transform="translate(-31.5703125, 30)"/><g class="methods-group text" transform="translate(-31.5703125, 60)"/><g class="divider" style=""><path d="M-43.5703125 6 C-24.219632872909777 6, -4.868953245819554 6, 43.5703125 6 M-43.5703125 6 C-19.421575011994577 6, 4.727162476010847 6, 43.5703125 6" stroke="#9370DB" stroke-width="1.3" fill="none" stroke-dasharray="0 0" style=""/></g></g><g class="node default" id="classId-FermiSurface-7" transform="translate(735.0703125, 50)"><g class="basic label-container"><path d="M-63.1328125 -42 L63.1328125 -42 L63.1328125 42 L-63.1328125 42" stroke="none" stroke-width="0" fill="#ECECFF" style=""/><path d="M-63.1328125 -42 C-26.693807284702793 -42, 9.745197930594415 -42, 63.1328125 -42 M-63.1328125 -42 C-16.13585003534324 -42, 30.861112429313522 -42, 63.1328125 -42 M63.1328125 -42 C63.1328125 -18.42913158835273, 63.1328125 5.1417368232945435, 63.1328125 42 M63.1328125 -42 C63.1328125 -17.04695274789428, 63.1328125 7.906094504211438, 63.1328125 42 M63.1328125 42 C13.485886119174921 42, -36.16104026165016 42, -63.1328125 42 M63.1328125 42 C19.539107060742815 42, -24.05459837851437 42, -63.1328125 42 M-63.1328125 42 C-63.1328125 13.987888395882894, -63.1328125 -14.024223208234211, -63.1328125 -42 M-63.1328125 42 C-63.1328125 8.607626553850508, -63.1328125 -24.784746892298983, -63.1328125 -42" stroke="#9370DB" stroke-width="1.3" fill="none" stroke-dasharray="0 0" style=""/></g><g class="annotation-group text" transform="translate(0, -18)"/><g class="label-group text" transform="translate(-51.1328125, -18)"><g class="label" style="font-weight: bolder" transform="translate(0,-12)"><foreignObject width="102.265625" height="24"><div xmlns="http://www.w3.org/1999/xhtml" style="display: table-cell; white-space: nowrap; line-height: 1.5; max-width: 137px; text-align: center;"><span class="nodeLabel markdown-node-label" style=""><p>FermiSurface</p></span></div></foreignObject></g></g><g class="members-group text" transform="translate(-51.1328125, 30)"/><g class="methods-group text" transform="translate(-51.1328125, 60)"/><g class="divider" style=""><path d="M-63.1328125 6 C-36.49759114886395 6, -9.8623697977279 6, 63.1328125 6 M-63.1328125 6 C-14.55917081372327 6, 34.01447087255346 6, 63.1328125 6" stroke="#9370DB" stroke-width="1.3" fill="none" stroke-dasharray="0 0" style=""/></g></g><g class="node default" id="classId-Occupancy-8" transform="translate(903.3359375, 50)"><g class="basic label-container"><path d="M-55.1328125 -42 L55.1328125 -42 L55.1328125 42 L-55.1328125 42" stroke="none" stroke-width="0" fill="#ECECFF" style=""/><path d="M-55.1328125 -42 C-12.272059811658245 -42, 30.58869287668351 -42, 55.1328125 -42 M-55.1328125 -42 C-12.65234599369849 -42, 29.82812051260302 -42, 55.1328125 -42 M55.1328125 -42 C55.1328125 -18.71263383400191, 55.1328125 4.574732331996181, 55.1328125 42 M55.1328125 -42 C55.1328125 -13.611551625028302, 55.1328125 14.776896749943397, 55.1328125 42 M55.1328125 42 C24.80279665352575 42, -5.5272191929485 42, -55.1328125 42 M55.1328125 42 C29.553997383764056 42, 3.975182267528112 42, -55.1328125 42 M-55.1328125 42 C-55.1328125 12.887468894587055, -55.1328125 -16.22506221082589, -55.1328125 -42 M-55.1328125 42 C-55.1328125 24.51735053523538, -55.1328125 7.03470107047076, -55.1328125 -42" stroke="#9370DB" stroke-width="1.3" fill="none" stroke-dasharray="0 0" style=""/></g><g class="annotation-group text" transform="translate(0, -18)"/><g class="label-group text" transform="translate(-43.1328125, -18)"><g class="label" style="font-weight: bolder" transform="translate(0,-12)"><foreignObject width="86.265625" height="24"><div xmlns="http://www.w3.org/1999/xhtml" style="display: table-cell; white-space: nowrap; line-height: 1.5; max-width: 122px; text-align: center;"><span class="nodeLabel markdown-node-label" style=""><p>Occupancy</p></span></div></foreignObject></g></g><g class="members-group text" transform="translate(-43.1328125, 30)"/><g class="methods-group text" transform="translate(-43.1328125, 60)"/><g class="divider" style=""><path d="M-55.1328125 6 C-29.582866023458628 6, -4.032919546917256 6, 55.1328125 6 M-55.1328125 6 C-23.67502329646164 6, 7.7827659070767226 6, 55.1328125 6" stroke="#9370DB" stroke-width="1.3" fill="none" stroke-dasharray="0 0" style=""/></g></g></g></g></g></svg>