<?xml version="1.0" encoding="UTF-8"?>
<svg id="my-svg" width="100%" xmlns="http://www.w3.org/2000/svg" xmlns:xlink="http://www.w3.org/1999/xlink" class="classDiagram" style="max-width: 2341.76px; background-color: white;" viewBox="0 0 2341.7578125 258" role="graphics-document document" aria-roledescription="class"><style>#my-svg{font-family:"trebuchet ms",verdana,arial,sans-serif;font-size:16px;fill:#333;}@keyframes edge-animation-frame{from{stroke-dashoffset:0;}}@keyframes dash{to{stroke-dashoffset:0;}}#my-svg .edge-animation-slow{stroke-dasharray:9,5!important;stroke-dashoffset:900;animation:dash 50s linear infinite;stroke-linecap:round;}#my-svg .edge-animation-fast{stroke-dasharray:9,5!important;stroke-dashoffset:900;animation:dash 20s linear infinite;stroke-linecap:round;}#my-svg .error-icon{fill:#552222;}#my-svg .error-text{fill:#552222;stroke:#552222;}#my-svg .edge-thickness-normal{stroke-width:1px;}#my-svg .edge-thickness-thick{stroke-width:3.5px;}#my-svg .edge-pattern-solid{stroke-dasharray:0;}#my-svg .edge-thickness-invisible{stroke-width:0;fill:none;}#my-svg .edge-pattern-dashed{stroke-dasharray:3;}#my-svg .edge-pattern-dotted{stroke-dasharray:2;}#my-svg .marker{fill:#333333;stroke:#333333;}#my-svg .marker.cross{stroke:#333333;}#my-svg svg{font-family:"trebuchet ms",verdana,arial,sans-serif;font-size:16px;}#my-svg p{margin:0;}#my-svg g.classGroup text{fill:#9370DB;stroke:none;font-family:"trebuchet ms",verdana,arial,sans-serif;font-size:10px;}#my-svg g.classGroup text .title{font-weight:bolder;}#my-svg .nodeLabel,#my-svg .edgeLabel{color:#131300;}#my-svg .edgeLabel .label rect{fill:#ECECFF;}#my-svg .label text{fill:#131300;}#my-svg .labelBkg{background:#ECECFF;}#my-svg .edgeLabel .label span{background:#ECECFF;}#my-svg .classTitle{font-weight:bolder;}#my-svg .node rect,#my-svg .node circle,#my-svg .node ellipse,#my-svg .node polygon,#my-svg .node path{fill:#ECECFF;stroke:#9370DB;stroke-width:1px;}#my-svg .divider{stroke:#9370DB;stroke-width:1;}#my-svg g.clickable{cursor:pointer;}#my-svg g.classGroup rect{fill:#ECECFF;stroke:#9370DB;}#my-svg g.classGroup line{stroke:#9370DB;stroke-width:1;}#my-svg .classLabel .box{stroke:none;stroke-width:0;fill:#ECECFF;opacity:0.5;}#my-svg .classLabel .label{fill:#9370DB;font-size:10px;}#my-svg .relation{stroke:#333333;stroke-width:1;fill:none;}#my-svg .dashed-line{stroke-dasharray:3;}#my-svg .dotted-line{stroke-dasharray:1 2;}#my-svg #compositionStart,#my-svg .composition{fill:#333333!important;stroke:#333333!important;stroke-width:1;}#my-svg #compositionEnd,#my-svg .composition{fill:#333333!important;stroke:#333333!important;stroke-width:1;}#my-svg #dependencyStart,#my-svg .dependency{fill:#333333!important;stroke:#333333!important;stroke-width:1;}#my-svg #dependencyStart,#my-svg .dependency{fill:#333333!important;stroke:#333333!important;stroke-width:1;}#my-svg #extensionStart,#my-svg .extension{fill:transparent!important;stroke:#333333!important;stroke-width:1;}#my-svg #extensionEnd,#my-svg .extension{fill:transparent!important;stroke:#333333!important;stroke-width:1;}#my-svg #aggregationStart,#my-svg .aggregation{fill:transparent!important;stroke:#333333!important;stroke-width:1;}#my-svg #aggregationEnd,#my-svg .aggregation{fill:transparent!important;stroke:#333333!important;stroke-width:1;}#my-svg #lollipopStart,#my-svg .lollipop{fill:#ECECFF!important;stroke:#333333!important;stroke-width:1;}#my-svg #lollipopEnd,#my-svg .lollipop{fill:#ECECFF!important;stroke:#333333!important;stroke-width:1;}#my-svg .edgeTerminals{font-size:11px;line-height:initial;}#my-svg .classTitleText{text-anchor:middle;font-size:18px;fill:#333;}#my-svg .label-icon{display:inline-block;height:1em;overflow:visible;vertical-align:-0.125em;}#my-svg .node .label-icon path{fill:currentColor;stroke:revert;stroke-width:revert;}#my-svg :root{--mermaid-font-family:"trebuchet ms",verdana,arial,sans-serif;}</style><g><defs><marker id="my-svg_class-aggregationStart" class="marker aggregation class" refX="18" refY="7" markerWidth="190" markerHeight="240" orient="auto"><path d="M 18,7 L9,13 L1,7 L9,1 Z"/></marker></defs><defs><marker id="my-svg_class-aggregationEnd" class="marker aggregation class" refX="1" refY="7" markerWidth="20" markerHeight="28" orient="auto"><path d="M 18,7 L9,13 L1,7 L9,1 Z"/></marker></defs><defs><marker id="my-svg_class-extensionStart" class="marker extension class" refX="18" refY="7" markerWidth="190" markerHeight="240" orient="auto"><path d="M 1,7 L18,13 V 1 Z"/></marker></defs><defs><marker id="my-svg_class-extensionEnd" class="marker extension class" refX="1" refY="7" markerWidth="20" markerHeight="28" orient="auto"><path d="M 1,1 V 13 L18,7 Z"/></marker></defs><defs><marker id="my-svg_class-compositionStart" class="marker composition class" refX="18" refY="7" markerWidth="190" markerHeight="240" orient="auto"><path d="M 18,7 L9,13 L1,7 L9,1 Z"/></marker></defs><defs><marker id="my-svg_class-compositionEnd" class="marker composition class" refX="1" refY="7" markerWidth="20" markerHeight="28" orient="auto"><path d="M 18,7 L9,13 L1,7 L9,1 Z"/></marker></defs><defs><marker id="my-svg_class-dependencyStart" class="marker dependency class" refX="6" refY="7" markerWidth="190" markerHeight="240" orient="auto"><path d="M 5,7 L9,13 L1,7 L9,1 Z"/></marker></defs><defs><marker id="my-svg_class-dependencyEnd" class="marker dependency class" refX="13" refY="7" markerWidth="20" markerHeight="28" orient="auto"><path d="M 18,7 L9,13 L14,7 L9,1 Z"/></marker></defs><defs><marker id="my-svg_class-lollipopStart" class="marker lollipop class" refX="13" refY="7" markerWidth="190" markerHeight="240" orient="auto"><circle stroke="black" fill="transparent" cx="7" cy="7" r="6"/></marker></defs><defs><marker id="my-svg_class-lollipopEnd" class="marker lollipop class" refX="1" refY="7" markerWidth="190" markerHeight="240" orient="auto"><circle stroke="black" fill="transparent" cx="7" cy="7" r="6"/></marker></defs><g class="root"><g class="clusters"/><g class="edgePaths"><path d="M386.129,67.49L331.928,77.741C277.727,87.993,169.324,108.497,115.123,123.915C60.922,139.333,60.922,149.667,60.922,154.833L60.922,160" id="id_BaseGreensFunction_Frequency_1" class="edge-thickness-normal edge-pattern-solid relation" style=";;;" data-edge="true" data-et="edge" data-id="id_BaseGreensFunction_Frequency_1" data-points="W3sieCI6Mzg2LjEyODkwNjI1LCJ5Ijo2Ny40ODk3MTcwOTE0MTkyMn0seyJ4Ijo2MC45MjE4NzUsInkiOjEyOX0seyJ4Ijo2MC45MjE4NzUsInkiOjE2Nn1d" marker-end="url(#my-svg_class-dependencyEnd)"/><path d="M386.129,79.588L360.391,87.823C334.654,96.058,283.178,112.529,257.441,125.931C231.703,139.333,231.703,149.667,231.703,154.833L231.703,160" id="id_BaseGreensFunction_ImaginaryTime_2" class="edge-thickness-normal edge-pattern-solid relation" style=";;;" data-edge="true" data-et="edge" data-id="id_BaseGreensFunction_ImaginaryTime_2" data-points="W3sieCI6Mzg2LjEyODkwNjI1LCJ5Ijo3OS41ODc2NTkyMDQxNzY4OX0seyJ4IjoyMzEuNzAzMTI1LCJ5IjoxMjl9LHsieCI6MjMxLjcwMzEyNSwieSI6MTY2fV0=" marker-end="url(#my-svg_class-dependencyEnd)"/><path d="M430.565,92L423.512,98.167C416.46,104.333,402.355,116.667,395.302,128C388.25,139.333,388.25,149.667,388.25,154.833L388.25,160" id="id_BaseGreensFunction_KMesh_3" class="edge-thickness-normal edge-pattern-solid relation" style=";;;" data-edge="true" data-et="edge" data-id="id_BaseGreensFunction_KMesh_3" data-points="W3sieCI6NDMwLjU2NDcyNTA3OTExMzk0LCJ5Ijo5Mn0seyJ4IjozODguMjUsInkiOjEyOX0seyJ4IjozODguMjUsInkiOjE2Nn1d" marker-end="url(#my-svg_class-dependencyEnd)"/><path d="M526.631,92L533.683,98.167C540.735,104.333,554.84,116.667,561.893,128C568.945,139.333,568.945,149.667,568.945,154.833L568.945,160" id="id_BaseGreensFunction_MatsubaraFrequency_4" class="edge-thickness-normal edge-pattern-solid relation" style=";;;" data-edge="true" data-et="edge" data-id="id_BaseGreensFunction_MatsubaraFrequency_4" data-points="W3sieCI6NTI2LjYzMDU4NzQyMDg4NjEsInkiOjkyfSx7IngiOjU2OC45NDUzMTI1LCJ5IjoxMjl9LHsieCI6NTY4Ljk0NTMxMjUsInkiOjE2Nn1d" marker-end="url(#my-svg_class-dependencyEnd)"/><path d="M571.066,77.739L599.546,86.283C628.026,94.826,684.986,111.913,713.465,125.623C741.945,139.333,741.945,149.667,741.945,154.833L741.945,160" id="id_BaseGreensFunction_Time_5" class="edge-thickness-normal edge-pattern-solid relation" style=";;;" data-edge="true" data-et="edge" data-id="id_BaseGreensFunction_Time_5" data-points="W3sieCI6NTcxLjA2NjQwNjI1LCJ5Ijo3Ny43MzkxMTYyNDY2NDQwMn0seyJ4Ijo3NDEuOTQ1MzEyNSwieSI6MTI5fSx7IngiOjc0MS45NDUzMTI1LCJ5IjoxNjZ9XQ==" marker-end="url(#my-svg_class-dependencyEnd)"/><path d="M571.066,68.19L622.587,78.325C674.107,88.46,777.147,108.73,828.667,124.032C880.188,139.333,880.188,149.667,880.188,154.833L880.188,160" id="id_BaseGreensFunction_WignerSeitz_6" class="edge-thickness-normal edge-pattern-solid relation" style=";;;" data-edge="true" data-et="edge" data-id="id_BaseGreensFunction_WignerSeitz_6" data-points="W3sieCI6NTcxLjA2NjQwNjI1LCJ5Ijo2OC4xOTAyNzg4NzIwNjEyNH0seyJ4Ijo4ODAuMTg3NSwieSI6MTI5fSx7IngiOjg4MC4xODc1LCJ5IjoxNjZ9XQ==" marker-end="url(#my-svg_class-dependencyEnd)"/><path d="M1646.574,55.511L1551.76,67.759C1456.945,80.008,1267.316,104.504,1172.502,121.919C1077.688,139.333,1077.688,149.667,1077.688,154.833L1077.688,160" id="id_Outputs_CrystalFieldSplitting_7" class="edge-thickness-normal edge-pattern-solid relation" style=";;;" data-edge="true" data-et="edge" data-id="id_Outputs_CrystalFieldSplitting_7" data-points="W3sieCI6MTY0Ni41NzQyMTg3NSwieSI6NTUuNTExMzM0NTI5OTE1NjJ9LHsieCI6MTA3Ny42ODc1LCJ5IjoxMjl9LHsieCI6MTA3Ny42ODc1LCJ5IjoxNjZ9XQ==" marker-end="url(#my-svg_class-dependencyEnd)"/><path d="M1646.574,59.369L1593.729,70.974C1540.883,82.579,1435.191,105.79,1382.346,122.562C1329.5,139.333,1329.5,149.667,1329.5,154.833L1329.5,160" id="id_Outputs_ElectronicGreensFunction_8" class="edge-thickness-normal edge-pattern-solid relation" style=";;;" data-edge="true" data-et="edge" data-id="id_Outputs_ElectronicGreensFunction_8" data-points="W3sieCI6MTY0Ni41NzQyMTg3NSwieSI6NTkuMzY5MjAyODcxMDEwODN9LHsieCI6MTMyOS41LCJ5IjoxMjl9LHsieCI6MTMyOS41LCJ5IjoxNjZ9XQ==" marker-end="url(#my-svg_class-dependencyEnd)"/><path d="M1646.574,82.027L1636.145,89.856C1625.716,97.685,1604.858,113.342,1594.429,126.338C1584,139.333,1584,149.667,1584,154.833L1584,160" id="id_Outputs_ElectronicSelfEnergy_9" class="edge-thickness-normal edge-pattern-solid relation" style=";;;" data-edge="true" data-et="edge" data-id="id_Outputs_ElectronicSelfEnergy_9" data-points="W3sieCI6MTY0Ni41NzQyMTg3NSwieSI6ODIuMDI2OTQ3Nzc0NzY3MDh9LHsieCI6MTU4NCwieSI6MTI5fSx7IngiOjE1ODQsInkiOjE2Nn1d" marker-end="url(#my-svg_class-dependencyEnd)"/><path d="M1731.902,82.027L1742.331,89.856C1752.76,97.685,1773.618,113.342,1784.048,126.338C1794.477,139.333,1794.477,149.667,1794.477,154.833L1794.477,160" id="id_Outputs_HoppingMatrix_10" class="edge-thickness-normal edge-pattern-solid relation" style=";;;" data-edge="true" data-et="edge" data-id="id_Outputs_HoppingMatrix_10" data-points="W3sieCI6MTczMS45MDIzNDM3NSwieSI6ODIuMDI2OTQ3Nzc0NzY3MDh9LHsieCI6MTc5NC40NzY1NjI1LCJ5IjoxMjl9LHsieCI6MTc5NC40NzY1NjI1LCJ5IjoxNjZ9XQ==" marker-end="url(#my-svg_class-dependencyEnd)"/><path d="M1731.902,60.543L1778.071,71.953C1824.24,83.362,1916.577,106.181,1962.745,122.757C2008.914,139.333,2008.914,149.667,2008.914,154.833L2008.914,160" id="id_Outputs_HybridizationFunction_11" class="edge-thickness-normal edge-pattern-solid relation" style=";;;" data-edge="true" data-et="edge" data-id="id_Outputs_HybridizationFunction_11" data-points="W3sieCI6MTczMS45MDIzNDM3NSwieSI6NjAuNTQzMzcyODAyMDMzMzF9LHsieCI6MjAwOC45MTQwNjI1LCJ5IjoxMjl9LHsieCI6MjAwOC45MTQwNjI1LCJ5IjoxNjZ9XQ==" marker-end="url(#my-svg_class-dependencyEnd)"/><path d="M1731.902,56.069L1817.344,68.225C1902.786,80.38,2073.671,104.69,2159.113,122.012C2244.555,139.333,2244.555,149.667,2244.555,154.833L2244.555,160" id="id_Outputs_QuasiparticleWeight_12" class="edge-thickness-normal edge-pattern-solid relation" style=";;;" data-edge="true" data-et="edge" data-id="id_Outputs_QuasiparticleWeight_12" data-points="W3sieCI6MTczMS45MDIzNDM3NSwieSI6NTYuMDY5NDQyMzkyNzgwMDJ9LHsieCI6MjI0NC41NTQ2ODc1LCJ5IjoxMjl9LHsieCI6MjI0NC41NTQ2ODc1LCJ5IjoxNjZ9XQ==" marker-end="url(#my-svg_class-dependencyEnd)"/></g><g class="edgeLabels"><g class="edgeLabel" transform="translate(60.921875, 129)"><g class="label" data-id="id_BaseGreensFunction_Frequency_1" transform="translate(-52.921875, -12)"><foreignObject width="105.84375" height="24"><div xmlns="http://www.w3.org/1999/xhtml" class="labelBkg" style="display: table-cell; white-space: nowrap; line-height: 1.5; max-width: 200px; text-align: center;"><span class="edgeLabel"><p>real_frequency</p></span></div></foreignObject></g></g><g class="edgeLabel" transform="translate(231.703125, 129)"><g class="label" data-id="id_BaseGreensFunction_ImaginaryTime_2" transform="translate(-54.2421875, -12)"><foreignObject width="108.484375" height="24"><div xmlns="http://www.w3.org/1999/xhtml" class="labelBkg" style="display: table-cell; white-space: nowrap; line-height: 1.5; max-width: 200px; text-align: center;"><span class="edgeLabel"><p>imaginary_time</p></span></div></foreignObject></g></g><g class="edgeLabel" transform="translate(388.25, 129)"><g class="label" data-id="id_BaseGreensFunction_KMesh_3" transform="translate(-28.015625, -12)"><foreignObject width="56.03125" height="24"><div xmlns="http://www.w3.org/1999/xhtml" class="labelBkg" style="display: table-cell; white-space: nowrap; line-height: 1.5; max-width: 200px; text-align: center;"><span class="edgeLabel"><p>k_mesh</p></span></div></foreignObject></g></g><g class="edgeLabel" transform="translate(568.9453125, 129)"><g class="label" data-id="id_BaseGreensFunction_MatsubaraFrequency_4" transform="translate(-77.3828125, -12)"><foreignObject width="154.765625" height="24"><div xmlns="http://www.w3.org/1999/xhtml" class="labelBkg" style="display: table-cell; white-space: nowrap; line-height: 1.5; max-width: 200px; text-align: center;"><span class="edgeLabel"><p>matsubara_frequency</p></span></div></foreignObject></g></g><g class="edgeLabel" transform="translate(741.9453125, 129)"><g class="label" data-id="id_BaseGreensFunction_Time_5" transform="translate(-15.1171875, -12)"><foreignObject width="30.234375" height="24"><div xmlns="http://www.w3.org/1999/xhtml" class="labelBkg" style="display: table-cell; white-space: nowrap; line-height: 1.5; max-width: 200px; text-align: center;"><span class="edgeLabel"><p>time</p></span></div></foreignObject></g></g><g class="edgeLabel" transform="translate(880.1875, 129)"><g class="label" data-id="id_BaseGreensFunction_WignerSeitz_6" transform="translate(-44.46875, -12)"><foreignObject width="88.9375" height="24"><div xmlns="http://www.w3.org/1999/xhtml" class="labelBkg" style="display: table-cell; white-space: nowrap; line-height: 1.5; max-width: 200px; text-align: center;"><span class="edgeLabel"><p>wigner_seitz</p></span></div></foreignObject></g></g><g class="edgeLabel" transform="translate(1077.6875, 129)"><g class="label" data-id="id_Outputs_CrystalFieldSplitting_7" transform="translate(-77.8125, -12)"><foreignObject width="155.625" height="24"><div xmlns="http://www.w3.org/1999/xhtml" class="labelBkg" style="display: table-cell; white-space: nowrap; line-height: 1.5; max-width: 200px; text-align: center;"><span class="edgeLabel"><p>crystal_field_splittings</p></span></div></foreignObject></g></g><g class="edgeLabel" transform="translate(1329.5, 129)"><g class="label" data-id="id_Outputs_ElectronicGreensFunction_8" transform="translate(-99.6171875, -12)"><foreignObject width="199.234375" height="24"><div xmlns="http://www.w3.org/1999/xhtml" class="labelBkg" style="display: table-cell; white-space: nowrap; line-height: 1.5; max-width: 200px; text-align: center;"><span class="edgeLabel"><p>electronic_greens_functions</p></span></div></foreignObject></g></g><g class="edgeLabel" transform="translate(1584, 129)"><g class="label" data-id="id_Outputs_ElectronicSelfEnergy_9" transform="translate(-86.2734375, -12)"><foreignObject width="172.546875" height="24"><div xmlns="http://www.w3.org/1999/xhtml" class="labelBkg" style="display: table-cell; white-space: nowrap; line-height: 1.5; max-width: 200px; text-align: center;"><span class="edgeLabel"><p>electronic_self_energies</p></span></div></foreignObject></g></g><g class="edgeLabel" transform="translate(1794.4765625, 129)"><g class="label" data-id="id_Outputs_HoppingMatrix_10" transform="translate(-63.1484375, -12)"><foreignObject width="126.296875" height="24"><div xmlns="http://www.w3.org/1999/xhtml" class="labelBkg" style="display: table-cell; white-space: nowrap; line-height: 1.5; max-width: 200px; text-align: center;"><span class="edgeLabel"><p>hopping_matrices</p></span></div></foreignObject></g></g><g class="edgeLabel" transform="translate(2008.9140625, 129)"><g class="label" data-id="id_Outputs_HybridizationFunction_11" transform="translate(-81.3828125, -12)"><foreignObject width="162.765625" height="24"><div xmlns="http://www.w3.org/1999/xhtml" class="labelBkg" style="display: table-cell; white-space: nowrap; line-height: 1.5; max-width: 200px; text-align: center;"><span class="edgeLabel"><p>hybridization_functions</p></span></div></foreignObject></g></g><g class="edgeLabel" transform="translate(2244.5546875, 129)"><g class="label" data-id="id_Outputs_QuasiparticleWeight_12" transform="translate(-76.4921875, -12)"><foreignObject width="152.984375" height="24"><div xmlns="http://www.w3.org/1999/xhtml" class="labelBkg" style="display: table-cell; white-space: nowrap; line-height: 1.5; max-width: 200px; text-align: center;"><span class="edgeLabel"><p>quasiparticle_weights</p></span></div></foreignObject></g></g></g><g class="nodes"><g class="node default" id="classId-BaseGreensFunction-0" transform="translate(478.59765625, 50)"><g class="basic label-container"><path d="M-92.46875 -42 L92.46875 -42 L92.46875 42 L-92.46875 42" stroke="none" stroke-width="0" fill="#ECECFF" style=""/><path d="M-92.46875 -42 C-21.181907281056795 -42, 50.10493543788641 -42, 92.46875 -42 M-92.46875 -42 C-31.526258373799827 -42, 29.416233252400346 -42, 92.46875 -42 M92.46875 -42 C92.46875 -16.27183954745689, 92.46875 9.456320905086223, 92.46875 42 M92.46875 -42 C92.46875 -10.955333013682967, 92.46875 20.089333972634066, 92.46875 42 M92.46875 42 C33.44687945265606 42, -25.574991094687874 42, -92.46875 42 M92.46875 42 C49.610346840210426 42, 6.751943680420851 42, -92.46875 42 M-92.46875 42 C-92.46875 14.833334120883883, -92.46875 -12.333331758232234, -92.46875 -42 M-92.46875 42 C-92.46875 19.71582190071831, -92.46875 -2.5683561985633787, -92.46875 -42" stroke="#9370DB" stroke-width="1.3" fill="none" stroke-dasharray="0 0" style=""/></g><g class="annotation-group text" transform="translate(0, -18)"/><g class="label-group text" transform="translate(-80.46875, -18)"><g class="label" style="font-weight: bolder" transform="translate(0,-12)"><foreignObject width="160.9375" height="24"><div xmlns="http://www.w3.org/1999/xhtml" style="display: table-cell; white-space: nowrap; line-height: 1.5; max-width: 183px; text-align: center;"><span class="nodeLabel markdown-node-label" style=""><p>BaseGreensFunction</p></span></div></foreignObject></g></g><g class="members-group text" transform="translate(-80.46875, 30)"/><g class="methods-group text" transform="translate(-80.46875, 60)"/><g class="divider" style=""><path d="M-92.46875 6 C-47.95851905424456 6, -3.4482881084891233 6, 92.46875 6 M-92.46875 6 C-24.33685022157242 6, 43.79504955685516 6, 92.46875 6" stroke="#9370DB" stroke-width="1.3" fill="none" stroke-dasharray="0 0" style=""/></g></g><g class="node default" id="classId-CrystalFieldSplitting-1" transform="translate(1077.6875, 208)"><g class="basic label-container"><path d="M-89.7890625 -42 L89.7890625 -42 L89.7890625 42 L-89.7890625 42" stroke="none" stroke-width="0" fill="#ECECFF" style=""/><path d="M-89.7890625 -42 C-48.51615170775393 -42, -7.2432409155078545 -42, 89.7890625 -42 M-89.7890625 -42 C-51.758230019474354 -42, -13.727397538948708 -42, 89.7890625 -42 M89.7890625 -42 C89.7890625 -24.23508590214525, 89.7890625 -6.470171804290501, 89.7890625 42 M89.7890625 -42 C89.7890625 -20.264549162716488, 89.7890625 1.470901674567024, 89.7890625 42 M89.7890625 42 C32.660554557530475 42, -24.46795338493905 42, -89.7890625 42 M89.7890625 42 C32.88650751784611 42, -24.016047464307775 42, -89.7890625 42 M-89.7890625 42 C-89.7890625 17.25151533907371, -89.7890625 -7.496969321852582, -89.7890625 -42 M-89.7890625 42 C-89.7890625 12.17443024626742, -89.7890625 -17.65113950746516, -89.7890625 -42" stroke="#9370DB" stroke-width="1.3" fill="none" stroke-dasharray="0 0" style=""/></g><g class="annotation-group text" transform="translate(0, -18)"/><g class="label-group text" transform="translate(-77.7890625, -18)"><g class="label" style="font-weight: bolder" transform="translate(0,-12)"><foreignObject width="155.578125" height="24"><div xmlns="http://www.w3.org/1999/xhtml" style="display: table-cell; white-space: nowrap; line-height: 1.5; max-width: 184px; text-align: center;"><span class="nodeLabel markdown-node-label" style=""><p>CrystalFieldSplitting</p></span></div></foreignObject></g></g><g class="members-group text" transform="translate(-77.7890625, 30)"/><g class="methods-group text" transform="translate(-77.7890625, 60)"/><g class="divider" style=""><path d="M-89.7890625 6 C-45.072607615737624 6, -0.3561527314752482 6, 89.7890625 6 M-89.7890625 6 C-34.70210720130495 6, 20.384848097390105 6, 89.7890625 6" stroke="#9370DB" stroke-width="1.3" fill="none" stroke-dasharray="0 0" style=""/></g></g><g class="node default" id="classId-ElectronicGreensFunction-2" transform="translate(1329.5, 208)"><g class="basic label-container"><path d="M-112.0234375 -42 L112.0234375 -42 L112.0234375 42 L-112.0234375 42" stroke="none" stroke-width="0" fill="#ECECFF" style=""/><path d="M-112.0234375 -42 C-51.00859160381581 -42, 10.006254292368382 -42, 112.0234375 -42 M-112.0234375 -42 C-38.43112542406743 -42, 35.16118665186514 -42, 112.0234375 -42 M112.0234375 -42 C112.0234375 -8.73996701903527, 112.0234375 24.52006596192946, 112.0234375 42 M112.0234375 -42 C112.0234375 -13.058414140704194, 112.0234375 15.883171718591612, 112.0234375 42 M112.0234375 42 C64.60360532280737 42, 17.183773145614722 42, -112.0234375 42 M112.0234375 42 C31.974508416611712 42, -48.074420666776575 42, -112.0234375 42 M-112.0234375 42 C-112.0234375 24.814303459004865, -112.0234375 7.62860691800973, -112.0234375 -42 M-112.0234375 42 C-112.0234375 23.19693310664252, -112.0234375 4.393866213285037, -112.0234375 -42" stroke="#9370DB" stroke-width="1.3" fill="none" stroke-dasharray="0 0" style=""/></g><g class="annotation-group text" transform="translate(0, -18)"/><g class="label-group text" transform="translate(-100.0234375, -18)"><g class="label" style="font-weight: bolder" transform="translate(0,-12)"><foreignObject width="200.046875" height="24"><div xmlns="http://www.w3.org/1999/xhtml" style="display: table-cell; white-space: nowrap; line-height: 1.5; max-width: 218px; text-align: center;"><span class="nodeLabel markdown-node-label" style=""><p>ElectronicGreensFunction</p></span></div></foreignObject></g></g><g class="members-group text" transform="translate(-100.0234375, 30)"/><g class="methods-group text" transform="translate(-100.0234375, 60)"/><g class="divider" style=""><path d="M-112.0234375 6 C-55.093693789214136 6, 1.8360499215717283 6, 112.0234375 6 M-112.0234375 6 C-58.62268359408112 6, -5.221929688162234 6, 112.0234375 6" stroke="#9370DB" stroke-width="1.3" fill="none" stroke-dasharray="0 0" style=""/></g></g><g class="node default" id="classId-ElectronicSelfEnergy-3" transform="translate(1584, 208)"><g class="basic label-container"><path d="M-92.4765625 -42 L92.4765625 -42 L92.4765625 42 L-92.4765625 42" stroke="none" stroke-width="0" fill="#ECECFF" style=""/><path d="M-92.4765625 -42 C-26.88115618023717 -42, 38.71425013952566 -42, 92.4765625 -42 M-92.4765625 -42 C-25.102472316585562 -42, 42.271617866828876 -42, 92.4765625 -42 M92.4765625 -42 C92.4765625 -22.715927247443698, 92.4765625 -3.4318544948873964, 92.4765625 42 M92.4765625 -42 C92.4765625 -18.34112745002497, 92.4765625 5.317745099950059, 92.4765625 42 M92.4765625 42 C33.43643090703808 42, -25.60370068592384 42, -92.4765625 42 M92.4765625 42 C35.87620406270468 42, -20.72415437459064 42, -92.4765625 42 M-92.4765625 42 C-92.4765625 13.800428326323676, -92.4765625 -14.399143347352648, -92.4765625 -42 M-92.4765625 42 C-92.4765625 20.42154299420258, -92.4765625 -1.1569140115948429, -92.4765625 -42" stroke="#9370DB" stroke-width="1.3" fill="none" stroke-dasharray="0 0" style=""/></g><g class="annotation-group text" transform="translate(0, -18)"/><g class="label-group text" transform="translate(-80.4765625, -18)"><g class="label" style="font-weight: bolder" transform="translate(0,-12)"><foreignObject width="160.953125" height="24"><div xmlns="http://www.w3.org/1999/xhtml" style="display: table-cell; white-space: nowrap; line-height: 1.5; max-width: 187px; text-align: center;"><span class="nodeLabel markdown-node-label" style=""><p>ElectronicSelfEnergy</p></span></div></foreignObject></g></g><g class="members-group text" transform="translate(-80.4765625, 30)"/><g class="methods-group text" transform="translate(-80.4765625, 60)"/><g class="divider" style=""><path d="M-92.4765625 6 C-28.33844443642043 6, 35.79967362715914 6, 92.4765625 6 M-92.4765625 6 C-54.91355072068875 6, -17.350538941377494 6, 92.4765625 6" stroke="#9370DB" stroke-width="1.3" fill="none" stroke-dasharray="0 0" style=""/></g></g><g class="node default" id="classId-Frequency-4" transform="translate(60.921875, 208)"><g class="basic label-container"><path d="M-52.4609375 -42 L52.4609375 -42 L52.4609375 42 L-52.4609375 42" stroke="none" stroke-width="0" fill="#ECECFF" style=""/><path d="M-52.4609375 -42 C-10.833905347953653 -42, 30.793126804092694 -42, 52.4609375 -42 M-52.4609375 -42 C-13.705476162322888 -42, 25.049985175354223 -42, 52.4609375 -42 M52.4609375 -42 C52.4609375 -19.49852077259971, 52.4609375 3.002958454800577, 52.4609375 42 M52.4609375 -42 C52.4609375 -19.317896507638423, 52.4609375 3.364206984723154, 52.4609375 42 M52.4609375 42 C13.559639037954987 42, -25.341659424090025 42, -52.4609375 42 M52.4609375 42 C24.80968197549395 42, -2.8415735490120966 42, -52.4609375 42 M-52.4609375 42 C-52.4609375 20.977562763786906, -52.4609375 -0.04487447242618714, -52.4609375 -42 M-52.4609375 42 C-52.4609375 22.42586661648468, -52.4609375 2.8517332329693588, -52.4609375 -42" stroke="#9370DB" stroke-width="1.3" fill="none" stroke-dasharray="0 0" style=""/></g><g class="annotation-group text" transform="translate(0, -18)"/><g class="label-group text" transform="translate(-40.4609375, -18)"><g class="label" style="font-weight: bolder" transform="translate(0,-12)"><foreignObject width="80.921875" height="24"><div xmlns="http://www.w3.org/1999/xhtml" style="display: table-cell; white-space: nowrap; line-height: 1.5; max-width: 118px; text-align: center;"><span class="nodeLabel markdown-node-label" style=""><p>Frequency</p></span></div></foreignObject></g></g><g class="members-group text" transform="translate(-40.4609375, 30)"/><g class="methods-group text" transform="translate(-40.4609375, 60)"/><g class="divider" style=""><path d="M-52.4609375 6 C-18.04160751119239 6, 16.377722477615222 6, 52.4609375 6 M-52.4609375 6 C-24.812666076976697 6, 2.8356053460466057 6, 52.4609375 6" stroke="#9370DB" stroke-width="1.3" fill="none" stroke-dasharray="0 0" style=""/></g></g><g class="node default" id="classId-HoppingMatrix-5" transform="translate(1794.4765625, 208)"><g class="basic label-container"><path d="M-68 -42 L68 -42 L68 42 L-68 42" stroke="none" stroke-width="0" fill="#ECECFF" style=""/><path d="M-68 -42 C-39.080076181921896 -42, -10.160152363843793 -42, 68 -42 M-68 -42 C-32.548720458708296 -42, 2.9025590825834087 -42, 68 -42 M68 -42 C68 -22.064117226230106, 68 -2.1282344524602124, 68 42 M68 -42 C68 -12.405596974824618, 68 17.188806050350763, 68 42 M68 42 C14.485772784485526 42, -39.02845443102895 42, -68 42 M68 42 C30.354463641403072 42, -7.291072717193856 42, -68 42 M-68 42 C-68 15.904812559534612, -68 -10.190374880930776, -68 -42 M-68 42 C-68 17.153011294326934, -68 -7.6939774113461326, -68 -42" stroke="#9370DB" stroke-width="1.3" fill="none" stroke-dasharray="0 0" style=""/></g><g class="annotation-group text" transform="translate(0, -18)"/><g class="label-group text" transform="translate(-56, -18)"><g class="label" style="font-weight: bolder" transform="translate(0,-12)"><foreignObject width="112" height="24"><div xmlns="http://www.w3.org/1999/xhtml" style="display: table-cell; white-space: nowrap; line-height: 1.5; max-width: 150px; text-align: center;"><span class="nodeLabel markdown-node-label" style=""><p>HoppingMatrix</p></span></div></foreignObject></g></g><g class="members-group text" transform="translate(-56, 30)"/><g class="methods-group text" transform="translate(-56, 60)"/><g class="divider" style=""><path d="M-68 6 C-38.36702662089992 6, -8.734053241799835 6, 68 6 M-68 6 C-15.873529035435709 6, 36.25294192912858 6, 68 6" stroke="#9370DB" stroke-width="1.3" fill="none" stroke-dasharray="0 0" style=""/></g></g><g class="node default" id="classId-HybridizationFunction-6" transform="translate(2008.9140625, 208)"><g class="basic label-container"><path d="M-96.4375 -42 L96.4375 -42 L96.4375 42 L-96.4375 42" stroke="none" stroke-width="0" fill="#ECECFF" style=""/><path d="M-96.4375 -42 C-28.61830256432725 -42, 39.2008948713455 -42, 96.4375 -42 M-96.4375 -42 C-29.46821927838701 -42, 37.50106144322598 -42, 96.4375 -42 M96.4375 -42 C96.4375 -15.219128905717184, 96.4375 11.561742188565631, 96.4375 42 M96.4375 -42 C96.4375 -24.745180846972435, 96.4375 -7.49036169394487, 96.4375 42 M96.4375 42 C28.29898438524546 42, -39.83953122950908 42, -96.4375 42 M96.4375 42 C37.03442449904307 42, -22.36865100191386 42, -96.4375 42 M-96.4375 42 C-96.4375 12.825935833879232, -96.4375 -16.348128332241536, -96.4375 -42 M-96.4375 42 C-96.4375 10.909081493393902, -96.4375 -20.181837013212196, -96.4375 -42" stroke="#9370DB" stroke-width="1.3" fill="none" stroke-dasharray="0 0" style=""/></g><g class="annotation-group text" transform="translate(0, -18)"/><g class="label-group text" transform="translate(-84.4375, -18)"><g class="label" style="font-weight: bolder" transform="translate(0,-12)"><foreignObject width="168.875" height="24"><div xmlns="http://www.w3.org/1999/xhtml" style="display: table-cell; white-space: nowrap; line-height: 1.5; max-width: 196px; text-align: center;"><span class="nodeLabel markdown-node-label" style=""><p>HybridizationFunction</p></span></div></foreignObject></g></g><g class="members-group text" transform="translate(-84.4375, 30)"/><g class="methods-group text" transform="translate(-84.4375, 60)"/><g class="divider" style=""><path d="M-96.4375 6 C-44.662702496490816 6, 7.112095007018368 6, 96.4375 6 M-96.4375 6 C-21.720499060655484 6, 52.99650187868903 6, 96.4375 6" stroke="#9370DB" stroke-width="1.3" fill="none" stroke-dasharray="0 0" style=""/></g></g><g class="node default" id="classId-ImaginaryTime-7" transform="translate(231.703125, 208)"><g class="basic label-container"><path d="M-68.3203125 -42 L68.3203125 -42 L68.3203125 42 L-68.3203125 42" stroke="none" stroke-width="0" fill="#ECECFF" style=""/><path d="M-68.3203125 -42 C-23.741224707516025 -42, 20.83786308496795 -42, 68.3203125 -42 M-68.3203125 -42 C-29.92352774454988 -42, 8.473257010900241 -42, 68.3203125 -42 M68.3203125 -42 C68.3203125 -18.374017111258905, 68.3203125 5.251965777482191, 68.3203125 42 M68.3203125 -42 C68.3203125 -16.521741997168366, 68.3203125 8.956516005663268, 68.3203125 42 M68.3203125 42 C18.169841613114173 42, -31.980629273771655 42, -68.3203125 42 M68.3203125 42 C39.22219053677601 42, 10.124068573552016 42, -68.3203125 42 M-68.3203125 42 C-68.3203125 18.307097278705413, -68.3203125 -5.385805442589174, -68.3203125 -42 M-68.3203125 42 C-68.3203125 19.4704531614489, -68.3203125 -3.0590936771021973, -68.3203125 -42" stroke="#9370DB" stroke-width="1.3" fill="none" stroke-dasharray="0 0" style=""/></g><g class="annotation-group text" transform="translate(0, -18)"/><g class="label-group text" transform="translate(-56.3203125, -18)"><g class="label" style="font-weight: bolder" transform="translate(0,-12)"><foreignObject width="112.640625" height="24"><div xmlns="http://www.w3.org/1999/xhtml" style="display: table-cell; white-space: nowrap; line-height: 1.5; max-width: 149px; text-align: center;"><span class="nodeLabel markdown-node-label" style=""><p>ImaginaryTime</p></span></div></foreignObject></g></g><g class="members-group text" transform="translate(-56.3203125, 30)"/><g class="methods-group text" transform="translate(-56.3203125, 60)"/><g class="divider" style=""><path d="M-68.3203125 6 C-38.464100812531534 6, -8.607889125063068 6, 68.3203125 6 M-68.3203125 6 C-24.808928445695592 6, 18.702455608608815 6, 68.3203125 6" stroke="#9370DB" stroke-width="1.3" fill="none" stroke-dasharray="0 0" style=""/></g></g><g class="node default" id="classId-KMesh-8" transform="translate(388.25, 208)"><g class="basic label-container"><path d="M-38.2265625 -42 L38.2265625 -42 L38.2265625 42 L-38.2265625 42" stroke="none" stroke-width="0" fill="#ECECFF" style=""/><path d="M-38.2265625 -42 C-19.341269921443892 -42, -0.4559773428877847 -42, 38.2265625 -42 M-38.2265625 -42 C-7.865596798842962 -42, 22.495368902314077 -42, 38.2265625 -42 M38.2265625 -42 C38.2265625 -11.399072342026145, 38.2265625 19.20185531594771, 38.2265625 42 M38.2265625 -42 C38.2265625 -14.946760420329639, 38.2265625 12.106479159340722, 38.2265625 42 M38.2265625 42 C8.169988117809712 42, -21.886586264380576 42, -38.2265625 42 M38.2265625 42 C19.089013227479064 42, -0.048536045041871034 42, -38.2265625 42 M-38.2265625 42 C-38.2265625 13.724350529632432, -38.2265625 -14.551298940735137, -38.2265625 -42 M-38.2265625 42 C-38.2265625 9.152866148595002, -38.2265625 -23.694267702809995, -38.2265625 -42" stroke="#9370DB" stroke-width="1.3" fill="none" stroke-dasharray="0 0" style=""/></g><g class="annotation-group text" transform="translate(0, -18)"/><g class="label-group text" transform="translate(-26.2265625, -18)"><g class="label" style="font-weight: bolder" transform="translate(0,-12)"><foreignObject width="52.453125" height="24"><div xmlns="http://www.w3.org/1999/xhtml" style="display: table-cell; white-space: nowrap; line-height: 1.5; max-width: 97px; text-align: center;"><span class="nodeLabel markdown-node-label" style=""><p>KMesh</p></span></div></foreignObject></g></g><g class="members-group text" transform="translate(-26.2265625, 30)"/><g class="methods-group text" transform="translate(-26.2265625, 60)"/><g class="divider" style=""><path d="M-38.2265625 6 C-10.977112887667484 6, 16.27233672466503 6, 38.2265625 6 M-38.2265625 6 C-8.609407999762961 6, 21.007746500474077 6, 38.2265625 6" stroke="#9370DB" stroke-width="1.3" fill="none" stroke-dasharray="0 0" style=""/></g></g><g class="node default" id="classId-MatsubaraFrequency-9" transform="translate(568.9453125, 208)"><g class="basic label-container"><path d="M-92.46875 -42 L92.46875 -42 L92.46875 42 L-92.46875 42" stroke="none" stroke-width="0" fill="#ECECFF" style=""/><path d="M-92.46875 -42 C-49.41111570568415 -42, -6.353481411368307 -42, 92.46875 -42 M-92.46875 -42 C-45.417312087701355 -42, 1.634125824597291 -42, 92.46875 -42 M92.46875 -42 C92.46875 -18.764307983210657, 92.46875 4.471384033578687, 92.46875 42 M92.46875 -42 C92.46875 -21.308125840060846, 92.46875 -0.6162516801216924, 92.46875 42 M92.46875 42 C43.06300140960082 42, -6.342747180798355 42, -92.46875 42 M92.46875 42 C43.678494337830614 42, -5.111761324338772 42, -92.46875 42 M-92.46875 42 C-92.46875 22.914679450866835, -92.46875 3.82935890173367, -92.46875 -42 M-92.46875 42 C-92.46875 18.136460984876535, -92.46875 -5.727078030246929, -92.46875 -42" stroke="#9370DB" stroke-width="1.3" fill="none" stroke-dasharray="0 0" style=""/></g><g class="annotation-group text" transform="translate(0, -18)"/><g class="label-group text" transform="translate(-80.46875, -18)"><g class="label" style="font-weight: bolder" transform="translate(0,-12)"><foreignObject width="160.9375" height="24"><div xmlns="http://www.w3.org/1999/xhtml" style="display: table-cell; white-space: nowrap; line-height: 1.5; max-width: 185px; text-align: center;"><span class="nodeLabel markdown-node-label" style=""><p>MatsubaraFrequency</p></span></div></foreignObject></g></g><g class="members-group text" transform="translate(-80.46875, 30)"/><g class="methods-group text" transform="translate(-80.46875, 60)"/><g class="divider" style=""><path d="M-92.46875 6 C-28.10957824223621 6, 36.24959351552758 6, 92.46875 6 M-92.46875 6 C-25.475650668953193 6, 41.517448662093614 6, 92.46875 6" stroke="#9370DB" stroke-width="1.3" fill="none" stroke-dasharray="0 0" style=""/></g></g><g class="node default" id="classId-Outputs-10" transform="translate(1689.23828125, 50)"><g class="basic label-container"><path d="M-42.6640625 -42 L42.6640625 -42 L42.6640625 42 L-42.6640625 42" stroke="none" stroke-width="0" fill="#ECECFF" style=""/><path d="M-42.6640625 -42 C-20.877971470023404 -42, 0.9081195599531924 -42, 42.6640625 -42 M-42.6640625 -42 C-15.529604678028889 -42, 11.604853143942222 -42, 42.6640625 -42 M42.6640625 -42 C42.6640625 -16.531574689960436, 42.6640625 8.936850620079127, 42.6640625 42 M42.6640625 -42 C42.6640625 -14.671853505201565, 42.6640625 12.65629298959687, 42.6640625 42 M42.6640625 42 C17.660863927458426 42, -7.342334645083149 42, -42.6640625 42 M42.6640625 42 C9.302259954622016 42, -24.059542590755967 42, -42.6640625 42 M-42.6640625 42 C-42.6640625 9.347340183158856, -42.6640625 -23.305319633682288, -42.6640625 -42 M-42.6640625 42 C-42.6640625 8.62591265165004, -42.6640625 -24.74817469669992, -42.6640625 -42" stroke="#9370DB" stroke-width="1.3" fill="none" stroke-dasharray="0 0" style=""/></g><g class="annotation-group text" transform="translate(0, -18)"/><g class="label-group text" transform="translate(-30.6640625, -18)"><g class="label" style="font-weight: bolder" transform="translate(0,-12)"><foreignObject width="61.328125" height="24"><div xmlns="http://www.w3.org/1999/xhtml" style="display: table-cell; white-space: nowrap; line-height: 1.5; max-width: 101px; text-align: center;"><span class="nodeLabel markdown-node-label" style=""><p>Outputs</p></span></div></foreignObject></g></g><g class="members-group text" transform="translate(-30.6640625, 30)"/><g class="methods-group text" transform="translate(-30.6640625, 60)"/><g class="divider" style=""><path d="M-42.6640625 6 C-8.758297168749522 6, 25.147468162500957 6, 42.6640625 6 M-42.6640625 6 C-14.796130139762333 6, 13.071802220475334 6, 42.6640625 6" stroke="#9370DB" stroke-width="1.3" fill="none" stroke-dasharray="0 0" style=""/></g></g><g class="node default" id="classId-QuasiparticleWeight-11" transform="translate(2244.5546875, 208)"><g class="basic label-container"><path d="M-89.203125 -42 L89.203125 -42 L89.203125 42 L-89.203125 42" stroke="none" stroke-width="0" fill="#ECECFF" style=""/><path d="M-89.203125 -42 C-21.29024161217076 -42, 46.62264177565848 -42, 89.203125 -42 M-89.203125 -42 C-23.243161101530873 -42, 42.71680279693825 -42, 89.203125 -42 M89.203125 -42 C89.203125 -24.346107735514543, 89.203125 -6.692215471029087, 89.203125 42 M89.203125 -42 C89.203125 -11.499099184940352, 89.203125 19.001801630119296, 89.203125 42 M89.203125 42 C27.684661658808153 42, -33.833801682383694 42, -89.203125 42 M89.203125 42 C51.09513210467636 42, 12.98713920935272 42, -89.203125 42 M-89.203125 42 C-89.203125 19.46686347534646, -89.203125 -3.0662730493070782, -89.203125 -42 M-89.203125 42 C-89.203125 14.978436803815512, -89.203125 -12.043126392368976, -89.203125 -42" stroke="#9370DB" stroke-width="1.3" fill="none" stroke-dasharray="0 0" style=""/></g><g class="annotation-group text" transform="translate(0, -18)"/><g class="label-group text" transform="translate(-77.203125, -18)"><g class="label" style="font-weight: bolder" transform="translate(0,-12)"><foreignObject width="154.40625" height="24"><div xmlns="http://www.w3.org/1999/xhtml" style="display: table-cell; white-space: nowrap; line-height: 1.5; max-width: 182px; text-align: center;"><span class="nodeLabel markdown-node-label" style=""><p>QuasiparticleWeight</p></span></div></foreignObject></g></g><g class="members-group text" transform="translate(-77.203125, 30)"/><g class="methods-group text" transform="translate(-77.203125, 60)"/><g class="divider" style=""><path d="M-89.203125 6 C-25.093811968827822 6, 39.015501062344356 6, 89.203125 6 M-89.203125 6 C-34.54320609533853 6, 20.116712809322934 6, 89.203125 6" stroke="#9370DB" stroke-width="1.3" fill="none" stroke-dasharray="0 0" style=""/></g></g><g class="node default" id="classId-Time-12" transform="translate(741.9453125, 208)"><g class="basic label-container"><path d="M-30.53125 -42 L30.53125 -42 L30.53125 42 L-30.53125 42" stroke="none" stroke-width="0" fill="#ECECFF" style=""/><path d="M-30.53125 -42 C-6.438081052317095 -42, 17.65508789536581 -42, 30.53125 -42 M-30.53125 -42 C-15.81396535202495 -42, -1.0966807040498985 -42, 30.53125 -42 M30.53125 -42 C30.53125 -16.05603256796529, 30.53125 9.887934864069422, 30.53125 42 M30.53125 -42 C30.53125 -21.075033399489158, 30.53125 -0.15006679897831532, 30.53125 42 M30.53125 42 C8.971779797540158 42, -12.587690404919684 42, -30.53125 42 M30.53125 42 C17.31937242727811 42, 4.107494854556219 42, -30.53125 42 M-30.53125 42 C-30.53125 24.87482913815315, -30.53125 7.749658276306299, -30.53125 -42 M-30.53125 42 C-30.53125 10.776319801594877, -30.53125 -20.447360396810247, -30.53125 -42" stroke="#9370DB" stroke-width="1.3" fill="none" stroke-dasharray="0 0" style=""/></g><g class="annotation-group text" transform="translate(0, -18)"/><g class="label-group text" transform="translate(-18.53125, -18)"><g class="label" style="font-weight: bolder" transform="translate(0,-12)"><foreignObject width="37.0625" height="24"><div xmlns="http://www.w3.org/1999/xhtml" style="display: table-cell; white-space: nowrap; line-height: 1.5; max-width: 83px; text-align: center;"><span class="nodeLabel markdown-node-label" style=""><p>Time</p></span></div></foreignObject></g></g><g class="members-group text" transform="translate(-18.53125, 30)"/><g class="methods-group text" transform="translate(-18.53125, 60)"/><g class="divider" style=""><path d="M-30.53125 6 C-8.069286890056997 6, 14.392676219886006 6, 30.53125 6 M-30.53125 6 C-14.836277915471648 6, 0.8586941690567045 6, 30.53125 6" stroke="#9370DB" stroke-width="1.3" fill="none" stroke-dasharray="0 0" style=""/></g></g><g class="node default" id="classId-WignerSeitz-13" transform="translate(880.1875, 208)"><g class="basic label-container"><path d="M-57.7109375 -42 L57.7109375 -42 L57.7109375 42 L-57.7109375 42" stroke="none" stroke-width="0" fill="#ECECFF" style=""/><path d="M-57.7109375 -42 C-14.37828789525993 -42, 28.95436170948014 -42, 57.7109375 -42 M-57.7109375 -42 C-16.520533279321747 -42, 24.669870941356507 -42, 57.7109375 -42 M57.7109375 -42 C57.7109375 -15.030436935401184, 57.7109375 11.939126129197632, 57.7109375 42 M57.7109375 -42 C57.7109375 -23.00013214577431, 57.7109375 -4.000264291548618, 57.7109375 42 M57.7109375 42 C23.118498429530803 42, -11.473940640938395 42, -57.7109375 42 M57.7109375 42 C13.116959415538851 42, -31.477018668922298 42, -57.7109375 42 M-57.7109375 42 C-57.7109375 14.452581103689145, -57.7109375 -13.09483779262171, -57.7109375 -42 M-57.7109375 42 C-57.7109375 23.047238373796986, -57.7109375 4.094476747593973, -57.7109375 -42" stroke="#9370DB" stroke-width="1.3" fill="none" stroke-dasharray="0 0" style=""/></g><g class="annotation-group text" transform="translate(0, -18)"/><g class="label-group text" transform="translate(-45.7109375, -18)"><g class="label" style="font-weight: bolder" transform="translate(0,-12)"><foreignObject width="91.421875" height="24"><div xmlns="http://www.w3.org/1999/xhtml" style="display: table-cell; white-space: nowrap; line-height: 1.5; max-width: 129px; text-align: center;"><span class="nodeLabel markdown-node-label" style=""><p>WignerSeitz</p></span></div></foreignObject></g></g><g class="members-group text" transform="translate(-45.7109375, 30)"/><g class="methods-group text" transform="translate(-45.7109375, 60)"/><g class="divider" style=""><path d="M-57.7109375 6 C-22.972593167849993 6, 11.765751164300013 6, 57.7109375 6 M-57.7109375 6 C-26.995193868308696 6, 3.720549763382607 6, 57.7109375 6" stroke="#9370DB" stroke-width="1.3" fill="none" stroke-dasharray="0 0" style=""/></g></g></g></g></g></svg>