<?xml version="1.0" encoding="UTF-8"?>
<svg id="my-svg" width="100%" xmlns="http://www.w3.org/2000/svg" xmlns:xlink="http://www.w3.org/1999/xlink" class="classDiagram" style="max-width: 1642.18px; background-color: white;" viewBox="0 0 1642.1796875 258" role="graphics-document document" aria-roledescription="class"><style>#my-svg{font-family:"trebuchet ms",verdana,arial,sans-serif;font-size:16px;fill:#333;}@keyframes edge-animation-frame{from{stroke-dashoffset:0;}}@keyframes dash{to{stroke-dashoffset:0;}}#my-svg .edge-animation-slow{stroke-dasharray:9,5!important;stroke-dashoffset:900;animation:dash 50s linear infinite;stroke-linecap:round;}#my-svg .edge-animation-fast{stroke-dasharray:9,5!important;stroke-dashoffset:900;animation:dash 20s linear infinite;stroke-linecap:round;}#my-svg .error-icon{fill:#552222;}#my-svg .error-text{fill:#552222;stroke:#552222;}#my-svg .edge-thickness-normal{stroke-width:1px;}#my-svg .edge-thickness-thick{stroke-width:3.5px;}#my-svg .edge-pattern-solid{stroke-dasharray:0;}#my-svg .edge-thickness-invisible{stroke-width:0;fill:none;}#my-svg .edge-pattern-dashed{stroke-dasharray:3;}#my-svg .edge-pattern-dotted{stroke-dasharray:2;}#my-svg .marker{fill:#333333;stroke:#333333;}#my-svg .marker.cross{stroke:#333333;}#my-svg svg{font-family:"trebuchet ms",verdana,arial,sans-serif;font-size:16px;}#my-svg p{margin:0;}#my-svg g.classGroup text{fill:#9370DB;stroke:none;font-family:"trebuchet ms",verdana,arial,sans-serif;font-size:10px;}#my-svg g.classGroup text .title{font-weight:bolder;}#my-svg .nodeLabel,#my-svg .edgeLabel{color:#131300;}#my-svg .edgeLabel .label rect{fill:#ECECFF;}#my-svg .label text{fill:#131300;}#my-svg .labelBkg{background:#ECECFF;}#my-svg .edgeLabel .label span{background:#ECECFF;}#my-svg .classTitle{font-weight:bolder;}#my-svg .node rect,#my-svg .node circle,#my-svg .node ellipse,#my-svg .node polygon,#my-svg .node path{fill:#ECECFF;stroke:#9370DB;stroke-width:1px;}#my-svg .divider{stroke:#9370DB;stroke-width:1;}#my-svg g.clickable{cursor:pointer;}#my-svg g.classGroup rect{fill:#ECECFF;stroke:#9370DB;}#my-svg g.classGroup line{stroke:#9370DB;stroke-width:1;}#my-svg .classLabel .box{stroke:none;stroke-width:0;fill:#ECECFF;opacity:0.5;}#my-svg .classLabel .label{fill:#9370DB;font-size:10px;}#my-svg .relation{stroke:#333333;stroke-width:1;fill:none;}#my-svg .dashed-line{stroke-dasharray:3;}#my-svg .dotted-line{stroke-dasharray:1 2;}#my-svg #compositionStart,#my-svg .composition{fill:#333333!important;stroke:#333333!important;stroke-width:1;}#my-svg #compositionEnd,#my-svg .composition{fill:#333333!important;stroke:#333333!important;stroke-width:1;}#my-svg #dependencyStart,#my-svg .dependency{fill:#333333!important;stroke:#333333!important;stroke-width:1;}#my-svg #dependencyStart,#my-svg .dependency{fill:#333333!important;stroke:#333333!important;stroke-width:1;}#my-svg #extensionStart,#my-svg .extension{fill:transparent!important;stroke:#333333!important;stroke-width:1;}#my-svg #extensionEnd,#my-svg .extension{fill:transparent!important;stroke:#333333!important;stroke-width:1;}#my-svg #aggregationStart,#my-svg .aggregation{fill:transparent!important;stroke:#333333!important;stroke-width:1;}#my-svg #aggregationEnd,#my-svg .aggregation{fill:transparent!important;stroke:#333333!important;stroke-width:1;}#my-svg #lollipopStart,#my-svg .lollipop{fill:#ECECFF!important;stroke:#333333!important;stroke-width:1;}#my-svg #lollipopEnd,#my-svg .lollipop{fill:#ECECFF!important;stroke:#333333!important;stroke-width:1;}#my-svg .edgeTerminals{font-size:11px;line-height:initial;}#my-svg .classTitleText{text-anchor:middle;font-size:18px;fill:#333;}#my-svg .label-icon{display:inline-block;height:1em;overflow:visible;vertical-align:-0.125em;}#my-svg .node .label-icon path{fill:currentColor;stroke:revert;stroke-width:revert;}#my-svg :root{--mermaid-font-family:"trebuchet ms",verdana,arial,sans-serif;}</style><g><defs><marker id="my-svg_class-aggregationStart" class="marker aggregation class" refX="18" refY="7" markerWidth="190" markerHeight="240" orient="auto"><path d="M 18,7 L9,13 L1,7 L9,1 Z"/></marker></defs><defs><marker id="my-svg_class-aggregationEnd" class="marker aggregation class" refX="1" refY="7" markerWidth="20" markerHeight="28" orient="auto"><path d="M 18,7 L9,13 L1,7 L9,1 Z"/></marker></defs><defs><marker id="my-svg_class-extensionStart" class="marker extension class" refX="18" refY="7" markerWidth="190" markerHeight="240" orient="auto"><path d="M 1,7 L18,13 V 1 Z"/></marker></defs><defs><marker id="my-svg_class-extensionEnd" class="marker extension class" refX="1" refY="7" markerWidth="20" markerHeight="28" orient="auto"><path d="M 1,1 V 13 L18,7 Z"/></marker></defs><defs><marker id="my-svg_class-compositionStart" class="marker composition class" refX="18" refY="7" markerWidth="190" markerHeight="240" orient="auto"><path d="M 18,7 L9,13 L1,7 L9,1 Z"/></marker></defs><defs><marker id="my-svg_class-compositionEnd" class="marker composition class" refX="1" refY="7" markerWidth="20" markerHeight="28" orient="auto"><path d="M 18,7 L9,13 L1,7 L9,1 Z"/></marker></defs><defs><marker id="my-svg_class-dependencyStart" class="marker dependency class" refX="6" refY="7" markerWidth="190" markerHeight="240" orient="auto"><path d="M 5,7 L9,13 L1,7 L9,1 Z"/></marker></defs><defs><marker id="my-svg_class-dependencyEnd" class="marker dependency class" refX="13" refY="7" markerWidth="20" markerHeight="28" orient="auto"><path d="M 18,7 L9,13 L14,7 L9,1 Z"/></marker></defs><defs><marker id="my-svg_class-lollipopStart" class="marker lollipop class" refX="13" refY="7" markerWidth="190" markerHeight="240" orient="auto"><circle stroke="black" fill="transparent" cx="7" cy="7" r="6"/></marker></defs><defs><marker id="my-svg_class-lollipopEnd" class="marker lollipop class" refX="1" refY="7" markerWidth="190" markerHeight="240" orient="auto"><circle stroke="black" fill="transparent" cx="7" cy="7" r="6"/></marker></defs><g class="root"><g class="clusters"/><g class="edgePaths"><path d="M788.096,61.136L676.751,72.447C565.405,83.758,342.714,106.379,231.369,123.856C120.023,141.333,120.023,153.667,120.023,159.833L120.023,166" id="id_BaseGreensFunction_ElectronicGreensFunction_1" class="edge-thickness-normal edge-pattern-solid relation" style=";;;" data-edge="true" data-et="edge" data-id="id_BaseGreensFunction_ElectronicGreensFunction_1" data-points="W3sieCI6ODA1LjI1NzgxMjUsInkiOjU5LjM5MzA4NDYwNDEwMjYyNn0seyJ4IjoxMjAuMDIzNDM3NSwieSI6MTI5fSx7IngiOjEyMC4wMjM0Mzc1LCJ5IjoxNjZ9XQ==" marker-start="url(#my-svg_class-extensionStart)"/><path d="M788.201,66.538L719.255,76.948C650.309,87.358,512.416,108.179,443.47,124.756C374.523,141.333,374.523,153.667,374.523,159.833L374.523,166" id="id_BaseGreensFunction_ElectronicSelfEnergy_2" class="edge-thickness-normal edge-pattern-solid relation" style=";;;" data-edge="true" data-et="edge" data-id="id_BaseGreensFunction_ElectronicSelfEnergy_2" data-points="W3sieCI6ODA1LjI1NzgxMjUsInkiOjYzLjk2MjEzMjI5ODA0Mzl9LHsieCI6Mzc0LjUyMzQzNzUsInkiOjEyOX0seyJ4IjozNzQuNTIzNDM3NSwieSI6MTY2fV0=" marker-start="url(#my-svg_class-extensionStart)"/><path d="M788.638,80.314L759.438,88.429C730.238,96.543,671.838,112.771,642.638,127.052C613.438,141.333,613.438,153.667,613.438,159.833L613.438,166" id="id_BaseGreensFunction_HybridizationFunction_3" class="edge-thickness-normal edge-pattern-solid relation" style=";;;" data-edge="true" data-et="edge" data-id="id_BaseGreensFunction_HybridizationFunction_3" data-points="W3sieCI6ODA1LjI1NzgxMjUsInkiOjc1LjY5NTc4NzE4ODQzNjA3fSx7IngiOjYxMy40Mzc1LCJ5IjoxMjl9LHsieCI6NjEzLjQzNzUsInkiOjE2Nn1d" marker-start="url(#my-svg_class-extensionStart)"/><path d="M852.329,92L845.664,98.167C838.998,104.333,825.667,116.667,819.001,128C812.336,139.333,812.336,149.667,812.336,154.833L812.336,160" id="id_BaseGreensFunction_Frequency_4" class="edge-thickness-normal edge-pattern-solid relation" style=";;;" data-edge="true" data-et="edge" data-id="id_BaseGreensFunction_Frequency_4" data-points="W3sieCI6ODUyLjMyOTAxNTAzMTY0NTYsInkiOjkyfSx7IngiOjgxMi4zMzU5Mzc1LCJ5IjoxMjl9LHsieCI6ODEyLjMzNTkzNzUsInkiOjE2Nn1d" marker-end="url(#my-svg_class-dependencyEnd)"/><path d="M943.124,92L949.79,98.167C956.455,104.333,969.786,116.667,976.452,128C983.117,139.333,983.117,149.667,983.117,154.833L983.117,160" id="id_BaseGreensFunction_ImaginaryTime_5" class="edge-thickness-normal edge-pattern-solid relation" style=";;;" data-edge="true" data-et="edge" data-id="id_BaseGreensFunction_ImaginaryTime_5" data-points="W3sieCI6OTQzLjEyNDEwOTk2ODM1NDQsInkiOjkyfSx7IngiOjk4My4xMTcxODc1LCJ5IjoxMjl9LHsieCI6OTgzLjExNzE4NzUsInkiOjE2Nn1d" marker-end="url(#my-svg_class-dependencyEnd)"/><path d="M990.195,74.664L1024.147,83.72C1058.099,92.776,1126.003,110.888,1159.954,125.111C1193.906,139.333,1193.906,149.667,1193.906,154.833L1193.906,160" id="id_BaseGreensFunction_MatsubaraFrequency_6" class="edge-thickness-normal edge-pattern-solid relation" style=";;;" data-edge="true" data-et="edge" data-id="id_BaseGreensFunction_MatsubaraFrequency_6" data-points="W3sieCI6OTkwLjE5NTMxMjUsInkiOjc0LjY2NDE4NzE3NTIyNjE5fSx7IngiOjExOTMuOTA2MjUsInkiOjEyOX0seyJ4IjoxMTkzLjkwNjI1LCJ5IjoxNjZ9XQ==" marker-end="url(#my-svg_class-dependencyEnd)"/><path d="M990.195,65.57L1052.98,76.141C1115.766,86.713,1241.336,107.857,1304.121,123.595C1366.906,139.333,1366.906,149.667,1366.906,154.833L1366.906,160" id="id_BaseGreensFunction_Time_7" class="edge-thickness-normal edge-pattern-solid relation" style=";;;" data-edge="true" data-et="edge" data-id="id_BaseGreensFunction_Time_7" data-points="W3sieCI6OTkwLjE5NTMxMjUsInkiOjY1LjU2OTc5NDM1NTE3NDQyfSx7IngiOjEzNjYuOTA2MjUsInkiOjEyOX0seyJ4IjoxMzY2LjkwNjI1LCJ5IjoxNjZ9XQ==" marker-end="url(#my-svg_class-dependencyEnd)"/><path d="M990.195,62.026L1076.021,73.189C1161.846,84.351,1333.497,106.675,1419.323,123.004C1505.148,139.333,1505.148,149.667,1505.148,154.833L1505.148,160" id="id_BaseGreensFunction_WignerSeitz_8" class="edge-thickness-normal edge-pattern-solid relation" style=";;;" data-edge="true" data-et="edge" data-id="id_BaseGreensFunction_WignerSeitz_8" data-points="W3sieCI6OTkwLjE5NTMxMjUsInkiOjYyLjAyNjI4OTM4OTA2NzUyfSx7IngiOjE1MDUuMTQ4NDM3NSwieSI6MTI5fSx7IngiOjE1MDUuMTQ4NDM3NSwieSI6MTY2fV0=" marker-end="url(#my-svg_class-dependencyEnd)"/></g><g class="edgeLabels"><g class="edgeLabel"><g class="label" data-id="id_BaseGreensFunction_ElectronicGreensFunction_1" transform="translate(0, 0)"><foreignObject width="0" height="0"><div xmlns="http://www.w3.org/1999/xhtml" class="labelBkg" style="display: table-cell; white-space: nowrap; line-height: 1.5; max-width: 200px; text-align: center;"><span class="edgeLabel"></span></div></foreignObject></g></g><g class="edgeLabel"><g class="label" data-id="id_BaseGreensFunction_ElectronicSelfEnergy_2" transform="translate(0, 0)"><foreignObject width="0" height="0"><div xmlns="http://www.w3.org/1999/xhtml" class="labelBkg" style="display: table-cell; white-space: nowrap; line-height: 1.5; max-width: 200px; text-align: center;"><span class="edgeLabel"></span></div></foreignObject></g></g><g class="edgeLabel"><g class="label" data-id="id_BaseGreensFunction_HybridizationFunction_3" transform="translate(0, 0)"><foreignObject width="0" height="0"><div xmlns="http://www.w3.org/1999/xhtml" class="labelBkg" style="display: table-cell; white-space: nowrap; line-height: 1.5; max-width: 200px; text-align: center;"><span class="edgeLabel"></span></div></foreignObject></g></g><g class="edgeLabel" transform="translate(812.3359375, 129)"><g class="label" data-id="id_BaseGreensFunction_Frequency_4" transform="translate(-52.921875, -12)"><foreignObject width="105.84375" height="24"><div xmlns="http://www.w3.org/1999/xhtml" class="labelBkg" style="display: table-cell; white-space: nowrap; line-height: 1.5; max-width: 200px; text-align: center;"><span class="edgeLabel"><p>real_frequency</p></span></div></foreignObject></g></g><g class="edgeLabel" transform="translate(983.1171875, 129)"><g class="label" data-id="id_BaseGreensFunction_ImaginaryTime_5" transform="translate(-54.2421875, -12)"><foreignObject width="108.484375" height="24"><div xmlns="http://www.w3.org/1999/xhtml" class="labelBkg" style="display: table-cell; white-space: nowrap; line-height: 1.5; max-width: 200px; text-align: center;"><span class="edgeLabel"><p>imaginary_time</p></span></div></foreignObject></g></g><g class="edgeLabel" transform="translate(1193.90625, 129)"><g class="label" data-id="id_BaseGreensFunction_MatsubaraFrequency_6" transform="translate(-77.3828125, -12)"><foreignObject width="154.765625" height="24"><div xmlns="http://www.w3.org/1999/xhtml" class="labelBkg" style="display: table-cell; white-space: nowrap; line-height: 1.5; max-width: 200px; text-align: center;"><span class="edgeLabel"><p>matsubara_frequency</p></span></div></foreignObject></g></g><g class="edgeLabel" transform="translate(1366.90625, 129)"><g class="label" data-id="id_BaseGreensFunction_Time_7" transform="translate(-15.1171875, -12)"><foreignObject width="30.234375" height="24"><div xmlns="http://www.w3.org/1999/xhtml" class="labelBkg" style="display: table-cell; white-space: nowrap; line-height: 1.5; max-width: 200px; text-align: center;"><span class="edgeLabel"><p>time</p></span></div></foreignObject></g></g><g class="edgeLabel" transform="translate(1505.1484375, 129)"><g class="label" data-id="id_BaseGreensFunction_WignerSeitz_8" transform="translate(-44.46875, -12)"><foreignObject width="88.9375" height="24"><div xmlns="http://www.w3.org/1999/xhtml" class="labelBkg" style="display: table-cell; white-space: nowrap; line-height: 1.5; max-width: 200px; text-align: center;"><span class="edgeLabel"><p>wigner_seitz</p></span></div></foreignObject></g></g></g><g class="nodes"><g class="node default" id="classId-BaseGreensFunction-0" transform="translate(897.7265625, 50)"><g class="basic label-container"><path d="M-92.46875 -42 L92.46875 -42 L92.46875 42 L-92.46875 42" stroke="none" stroke-width="0" fill="#ECECFF" style=""/><path d="M-92.46875 -42 C-34.30462500150654 -42, 23.859499996986926 -42, 92.46875 -42 M-92.46875 -42 C-55.177595191424935 -42, -17.88644038284987 -42, 92.46875 -42 M92.46875 -42 C92.46875 -24.682968211532344, 92.46875 -7.365936423064689, 92.46875 42 M92.46875 -42 C92.46875 -14.805866972420773, 92.46875 12.388266055158454, 92.46875 42 M92.46875 42 C43.98281388203913 42, -4.503122235921737 42, -92.46875 42 M92.46875 42 C43.65403591434279 42, -5.160678171314416 42, -92.46875 42 M-92.46875 42 C-92.46875 18.755078726085298, -92.46875 -4.489842547829404, -92.46875 -42 M-92.46875 42 C-92.46875 20.823630466625765, -92.46875 -0.35273906674846955, -92.46875 -42" stroke="#9370DB" stroke-width="1.3" fill="none" stroke-dasharray="0 0" style=""/></g><g class="annotation-group text" transform="translate(0, -18)"/><g class="label-group text" transform="translate(-80.46875, -18)"><g class="label" style="font-weight: bolder" transform="translate(0,-12)"><foreignObject width="160.9375" height="24"><div xmlns="http://www.w3.org/1999/xhtml" style="display: table-cell; white-space: nowrap; line-height: 1.5; max-width: 183px; text-align: center;"><span class="nodeLabel markdown-node-label" style=""><p>BaseGreensFunction</p></span></div></foreignObject></g></g><g class="members-group text" transform="translate(-80.46875, 30)"/><g class="methods-group text" transform="translate(-80.46875, 60)"/><g class="divider" style=""><path d="M-92.46875 6 C-38.64696305576248 6, 15.174823888475046 6, 92.46875 6 M-92.46875 6 C-31.317482218455808 6, 29.833785563088384 6, 92.46875 6" stroke="#9370DB" stroke-width="1.3" fill="none" stroke-dasharray="0 0" style=""/></g></g><g class="node default" id="classId-CrystalFieldSplitting-1" transform="translate(1129.984375, 50)"><g class="basic label-container"><path d="M-89.7890625 -42 L89.7890625 -42 L89.7890625 42 L-89.7890625 42" stroke="none" stroke-width="0" fill="#ECECFF" style=""/><path d="M-89.7890625 -42 C-26.136009138681707 -42, 37.517044222636585 -42, 89.7890625 -42 M-89.7890625 -42 C-21.25327586523815 -42, 47.2825107695237 -42, 89.7890625 -42 M89.7890625 -42 C89.7890625 -24.61516110448907, 89.7890625 -7.230322208978137, 89.7890625 42 M89.7890625 -42 C89.7890625 -20.537926209345972, 89.7890625 0.9241475813080555, 89.7890625 42 M89.7890625 42 C47.82185445148811 42, 5.854646402976215 42, -89.7890625 42 M89.7890625 42 C32.087322620984104 42, -25.614417258031793 42, -89.7890625 42 M-89.7890625 42 C-89.7890625 24.522822350024704, -89.7890625 7.045644700049408, -89.7890625 -42 M-89.7890625 42 C-89.7890625 24.91814735905035, -89.7890625 7.836294718100703, -89.7890625 -42" stroke="#9370DB" stroke-width="1.3" fill="none" stroke-dasharray="0 0" style=""/></g><g class="annotation-group text" transform="translate(0, -18)"/><g class="label-group text" transform="translate(-77.7890625, -18)"><g class="label" style="font-weight: bolder" transform="translate(0,-12)"><foreignObject width="155.578125" height="24"><div xmlns="http://www.w3.org/1999/xhtml" style="display: table-cell; white-space: nowrap; line-height: 1.5; max-width: 184px; text-align: center;"><span class="nodeLabel markdown-node-label" style=""><p>CrystalFieldSplitting</p></span></div></foreignObject></g></g><g class="members-group text" transform="translate(-77.7890625, 30)"/><g class="methods-group text" transform="translate(-77.7890625, 60)"/><g class="divider" style=""><path d="M-89.7890625 6 C-50.41867203963573 6, -11.04828157927146 6, 89.7890625 6 M-89.7890625 6 C-50.640548881224206 6, -11.492035262448411 6, 89.7890625 6" stroke="#9370DB" stroke-width="1.3" fill="none" stroke-dasharray="0 0" style=""/></g></g><g class="node default" id="classId-ElectronicGreensFunction-2" transform="translate(120.0234375, 208)"><g class="basic label-container"><path d="M-112.0234375 -42 L112.0234375 -42 L112.0234375 42 L-112.0234375 42" stroke="none" stroke-width="0" fill="#ECECFF" style=""/><path d="M-112.0234375 -42 C-67.1580112134112 -42, -22.2925849268224 -42, 112.0234375 -42 M-112.0234375 -42 C-60.63967541140277 -42, -9.25591332280554 -42, 112.0234375 -42 M112.0234375 -42 C112.0234375 -23.71432695634749, 112.0234375 -5.428653912694983, 112.0234375 42 M112.0234375 -42 C112.0234375 -12.996201019190568, 112.0234375 16.007597961618863, 112.0234375 42 M112.0234375 42 C63.638627304203524 42, 15.253817108407048 42, -112.0234375 42 M112.0234375 42 C40.423336957147 42, -31.176763585706 42, -112.0234375 42 M-112.0234375 42 C-112.0234375 17.64374393722339, -112.0234375 -6.712512125553218, -112.0234375 -42 M-112.0234375 42 C-112.0234375 11.279286159837529, -112.0234375 -19.441427680324942, -112.0234375 -42" stroke="#9370DB" stroke-width="1.3" fill="none" stroke-dasharray="0 0" style=""/></g><g class="annotation-group text" transform="translate(0, -18)"/><g class="label-group text" transform="translate(-100.0234375, -18)"><g class="label" style="font-weight: bolder" transform="translate(0,-12)"><foreignObject width="200.046875" height="24"><div xmlns="http://www.w3.org/1999/xhtml" style="display: table-cell; white-space: nowrap; line-height: 1.5; max-width: 218px; text-align: center;"><span class="nodeLabel markdown-node-label" style=""><p>ElectronicGreensFunction</p></span></div></foreignObject></g></g><g class="members-group text" transform="translate(-100.0234375, 30)"/><g class="methods-group text" transform="translate(-100.0234375, 60)"/><g class="divider" style=""><path d="M-112.0234375 6 C-36.58397024737508 6, 38.855497005249845 6, 112.0234375 6 M-112.0234375 6 C-44.18429207550942 6, 23.654853348981163 6, 112.0234375 6" stroke="#9370DB" stroke-width="1.3" fill="none" stroke-dasharray="0 0" style=""/></g></g><g class="node default" id="classId-ElectronicSelfEnergy-3" transform="translate(374.5234375, 208)"><g class="basic label-container"><path d="M-92.4765625 -42 L92.4765625 -42 L92.4765625 42 L-92.4765625 42" stroke="none" stroke-width="0" fill="#ECECFF" style=""/><path d="M-92.4765625 -42 C-22.70412848100449 -42, 47.06830553799102 -42, 92.4765625 -42 M-92.4765625 -42 C-40.2792048156872 -42, 11.918152868625597 -42, 92.4765625 -42 M92.4765625 -42 C92.4765625 -16.82404873552627, 92.4765625 8.351902528947463, 92.4765625 42 M92.4765625 -42 C92.4765625 -21.50332559392834, 92.4765625 -1.0066511878566828, 92.4765625 42 M92.4765625 42 C43.2269595692142 42, -6.022643361571596 42, -92.4765625 42 M92.4765625 42 C45.945743182961564 42, -0.5850761340768713 42, -92.4765625 42 M-92.4765625 42 C-92.4765625 19.859116070085495, -92.4765625 -2.28176785982901, -92.4765625 -42 M-92.4765625 42 C-92.4765625 9.304984680039517, -92.4765625 -23.390030639920965, -92.4765625 -42" stroke="#9370DB" stroke-width="1.3" fill="none" stroke-dasharray="0 0" style=""/></g><g class="annotation-group text" transform="translate(0, -18)"/><g class="label-group text" transform="translate(-80.4765625, -18)"><g class="label" style="font-weight: bolder" transform="translate(0,-12)"><foreignObject width="160.953125" height="24"><div xmlns="http://www.w3.org/1999/xhtml" style="display: table-cell; white-space: nowrap; line-height: 1.5; max-width: 187px; text-align: center;"><span class="nodeLabel markdown-node-label" style=""><p>ElectronicSelfEnergy</p></span></div></foreignObject></g></g><g class="members-group text" transform="translate(-80.4765625, 30)"/><g class="methods-group text" transform="translate(-80.4765625, 60)"/><g class="divider" style=""><path d="M-92.4765625 6 C-26.455318796595904 6, 39.56592490680819 6, 92.4765625 6 M-92.4765625 6 C-54.11083841813061 6, -15.745114336261224 6, 92.4765625 6" stroke="#9370DB" stroke-width="1.3" fill="none" stroke-dasharray="0 0" style=""/></g></g><g class="node default" id="classId-Frequency-4" transform="translate(812.3359375, 208)"><g class="basic label-container"><path d="M-52.4609375 -42 L52.4609375 -42 L52.4609375 42 L-52.4609375 42" stroke="none" stroke-width="0" fill="#ECECFF" style=""/><path d="M-52.4609375 -42 C-11.884833468305338 -42, 28.691270563389324 -42, 52.4609375 -42 M-52.4609375 -42 C-21.919593719165835 -42, 8.62175006166833 -42, 52.4609375 -42 M52.4609375 -42 C52.4609375 -17.080804278299574, 52.4609375 7.838391443400852, 52.4609375 42 M52.4609375 -42 C52.4609375 -24.81714062343595, 52.4609375 -7.6342812468719, 52.4609375 42 M52.4609375 42 C26.412039299426034 42, 0.36314109885206847 42, -52.4609375 42 M52.4609375 42 C28.84632209510328 42, 5.231706690206558 42, -52.4609375 42 M-52.4609375 42 C-52.4609375 19.421812911133532, -52.4609375 -3.1563741777329355, -52.4609375 -42 M-52.4609375 42 C-52.4609375 24.06436476152323, -52.4609375 6.128729523046459, -52.4609375 -42" stroke="#9370DB" stroke-width="1.3" fill="none" stroke-dasharray="0 0" style=""/></g><g class="annotation-group text" transform="translate(0, -18)"/><g class="label-group text" transform="translate(-40.4609375, -18)"><g class="label" style="font-weight: bolder" transform="translate(0,-12)"><foreignObject width="80.921875" height="24"><div xmlns="http://www.w3.org/1999/xhtml" style="display: table-cell; white-space: nowrap; line-height: 1.5; max-width: 118px; text-align: center;"><span class="nodeLabel markdown-node-label" style=""><p>Frequency</p></span></div></foreignObject></g></g><g class="members-group text" transform="translate(-40.4609375, 30)"/><g class="methods-group text" transform="translate(-40.4609375, 60)"/><g class="divider" style=""><path d="M-52.4609375 6 C-16.64189165961411 6, 19.17715418077178 6, 52.4609375 6 M-52.4609375 6 C-28.82500097830483 6, -5.189064456609657 6, 52.4609375 6" stroke="#9370DB" stroke-width="1.3" fill="none" stroke-dasharray="0 0" style=""/></g></g><g class="node default" id="classId-HoppingMatrix-5" transform="translate(1337.7734375, 50)"><g class="basic label-container"><path d="M-68 -42 L68 -42 L68 42 L-68 42" stroke="none" stroke-width="0" fill="#ECECFF" style=""/><path d="M-68 -42 C-28.792855286642514 -42, 10.414289426714973 -42, 68 -42 M-68 -42 C-27.103437823719553 -42, 13.793124352560895 -42, 68 -42 M68 -42 C68 -15.615116279596357, 68 10.769767440807286, 68 42 M68 -42 C68 -16.87451965496303, 68 8.250960690073939, 68 42 M68 42 C16.706810094435575 42, -34.58637981112885 42, -68 42 M68 42 C28.911433871450186 42, -10.177132257099629 42, -68 42 M-68 42 C-68 11.960845300593686, -68 -18.078309398812628, -68 -42 M-68 42 C-68 11.33609075913795, -68 -19.3278184817241, -68 -42" stroke="#9370DB" stroke-width="1.3" fill="none" stroke-dasharray="0 0" style=""/></g><g class="annotation-group text" transform="translate(0, -18)"/><g class="label-group text" transform="translate(-56, -18)"><g class="label" style="font-weight: bolder" transform="translate(0,-12)"><foreignObject width="112" height="24"><div xmlns="http://www.w3.org/1999/xhtml" style="display: table-cell; white-space: nowrap; line-height: 1.5; max-width: 150px; text-align: center;"><span class="nodeLabel markdown-node-label" style=""><p>HoppingMatrix</p></span></div></foreignObject></g></g><g class="members-group text" transform="translate(-56, 30)"/><g class="methods-group text" transform="translate(-56, 60)"/><g class="divider" style=""><path d="M-68 6 C-26.737452859778237 6, 14.525094280443525 6, 68 6 M-68 6 C-35.63913591612688 6, -3.2782718322537647 6, 68 6" stroke="#9370DB" stroke-width="1.3" fill="none" stroke-dasharray="0 0" style=""/></g></g><g class="node default" id="classId-HybridizationFunction-6" transform="translate(613.4375, 208)"><g class="basic label-container"><path d="M-96.4375 -42 L96.4375 -42 L96.4375 42 L-96.4375 42" stroke="none" stroke-width="0" fill="#ECECFF" style=""/><path d="M-96.4375 -42 C-47.80239631024717 -42, 0.8327073795056634 -42, 96.4375 -42 M-96.4375 -42 C-45.42454871531224 -42, 5.588402569375518 -42, 96.4375 -42 M96.4375 -42 C96.4375 -18.211809622151154, 96.4375 5.576380755697691, 96.4375 42 M96.4375 -42 C96.4375 -12.784996757772063, 96.4375 16.430006484455873, 96.4375 42 M96.4375 42 C28.605066082697704 42, -39.22736783460459 42, -96.4375 42 M96.4375 42 C37.307932442394645 42, -21.82163511521071 42, -96.4375 42 M-96.4375 42 C-96.4375 18.8053806589497, -96.4375 -4.389238682100597, -96.4375 -42 M-96.4375 42 C-96.4375 23.886364552476348, -96.4375 5.772729104952695, -96.4375 -42" stroke="#9370DB" stroke-width="1.3" fill="none" stroke-dasharray="0 0" style=""/></g><g class="annotation-group text" transform="translate(0, -18)"/><g class="label-group text" transform="translate(-84.4375, -18)"><g class="label" style="font-weight: bolder" transform="translate(0,-12)"><foreignObject width="168.875" height="24"><div xmlns="http://www.w3.org/1999/xhtml" style="display: table-cell; white-space: nowrap; line-height: 1.5; max-width: 196px; text-align: center;"><span class="nodeLabel markdown-node-label" style=""><p>HybridizationFunction</p></span></div></foreignObject></g></g><g class="members-group text" transform="translate(-84.4375, 30)"/><g class="methods-group text" transform="translate(-84.4375, 60)"/><g class="divider" style=""><path d="M-96.4375 6 C-32.12281172307982 6, 32.19187655384036 6, 96.4375 6 M-96.4375 6 C-40.34913892865778 6, 15.73922214268444 6, 96.4375 6" stroke="#9370DB" stroke-width="1.3" fill="none" stroke-dasharray="0 0" style=""/></g></g><g class="node default" id="classId-ImaginaryTime-7" transform="translate(983.1171875, 208)"><g class="basic label-container"><path d="M-68.3203125 -42 L68.3203125 -42 L68.3203125 42 L-68.3203125 42" stroke="none" stroke-width="0" fill="#ECECFF" style=""/><path d="M-68.3203125 -42 C-31.788922268108443 -42, 4.742467963783113 -42, 68.3203125 -42 M-68.3203125 -42 C-18.953643250567808 -42, 30.413025998864384 -42, 68.3203125 -42 M68.3203125 -42 C68.3203125 -14.767233934291387, 68.3203125 12.465532131417227, 68.3203125 42 M68.3203125 -42 C68.3203125 -23.70159765606757, 68.3203125 -5.403195312135139, 68.3203125 42 M68.3203125 42 C34.80290667656201 42, 1.2855008531240202 42, -68.3203125 42 M68.3203125 42 C16.30769859113073 42, -35.70491531773854 42, -68.3203125 42 M-68.3203125 42 C-68.3203125 14.676425363427306, -68.3203125 -12.647149273145388, -68.3203125 -42 M-68.3203125 42 C-68.3203125 16.481730233976577, -68.3203125 -9.036539532046845, -68.3203125 -42" stroke="#9370DB" stroke-width="1.3" fill="none" stroke-dasharray="0 0" style=""/></g><g class="annotation-group text" transform="translate(0, -18)"/><g class="label-group text" transform="translate(-56.3203125, -18)"><g class="label" style="font-weight: bolder" transform="translate(0,-12)"><foreignObject width="112.640625" height="24"><div xmlns="http://www.w3.org/1999/xhtml" style="display: table-cell; white-space: nowrap; line-height: 1.5; max-width: 149px; text-align: center;"><span class="nodeLabel markdown-node-label" style=""><p>ImaginaryTime</p></span></div></foreignObject></g></g><g class="members-group text" transform="translate(-56.3203125, 30)"/><g class="methods-group text" transform="translate(-56.3203125, 60)"/><g class="divider" style=""><path d="M-68.3203125 6 C-20.23408430827667 6, 27.852143883446658 6, 68.3203125 6 M-68.3203125 6 C-31.066874633084808 6, 6.186563233830384 6, 68.3203125 6" stroke="#9370DB" stroke-width="1.3" fill="none" stroke-dasharray="0 0" style=""/></g></g><g class="node default" id="classId-MatsubaraFrequency-8" transform="translate(1193.90625, 208)"><g class="basic label-container"><path d="M-92.46875 -42 L92.46875 -42 L92.46875 42 L-92.46875 42" stroke="none" stroke-width="0" fill="#ECECFF" style=""/><path d="M-92.46875 -42 C-44.53763510400935 -42, 3.3934797919813064 -42, 92.46875 -42 M-92.46875 -42 C-50.37738501653172 -42, -8.286020033063437 -42, 92.46875 -42 M92.46875 -42 C92.46875 -23.228600180789783, 92.46875 -4.457200361579567, 92.46875 42 M92.46875 -42 C92.46875 -23.186040027100315, 92.46875 -4.37208005420063, 92.46875 42 M92.46875 42 C48.56529077462566 42, 4.661831549251318 42, -92.46875 42 M92.46875 42 C35.234351027450806 42, -22.000047945098387 42, -92.46875 42 M-92.46875 42 C-92.46875 14.146212973828725, -92.46875 -13.70757405234255, -92.46875 -42 M-92.46875 42 C-92.46875 10.444938198396954, -92.46875 -21.11012360320609, -92.46875 -42" stroke="#9370DB" stroke-width="1.3" fill="none" stroke-dasharray="0 0" style=""/></g><g class="annotation-group text" transform="translate(0, -18)"/><g class="label-group text" transform="translate(-80.46875, -18)"><g class="label" style="font-weight: bolder" transform="translate(0,-12)"><foreignObject width="160.9375" height="24"><div xmlns="http://www.w3.org/1999/xhtml" style="display: table-cell; white-space: nowrap; line-height: 1.5; max-width: 185px; text-align: center;"><span class="nodeLabel markdown-node-label" style=""><p>MatsubaraFrequency</p></span></div></foreignObject></g></g><g class="members-group text" transform="translate(-80.46875, 30)"/><g class="methods-group text" transform="translate(-80.46875, 60)"/><g class="divider" style=""><path d="M-92.46875 6 C-54.48344112971838 6, -16.49813225943676 6, 92.46875 6 M-92.46875 6 C-19.77114464106299 6, 52.92646071787402 6, 92.46875 6" stroke="#9370DB" stroke-width="1.3" fill="none" stroke-dasharray="0 0" style=""/></g></g><g class="node default" id="classId-QuasiparticleWeight-9" transform="translate(1544.9765625, 50)"><g class="basic label-container"><path d="M-89.203125 -42 L89.203125 -42 L89.203125 42 L-89.203125 42" stroke="none" stroke-width="0" fill="#ECECFF" style=""/><path d="M-89.203125 -42 C-34.69354746555289 -42, 19.81603006889422 -42, 89.203125 -42 M-89.203125 -42 C-48.031579117154834 -42, -6.860033234309668 -42, 89.203125 -42 M89.203125 -42 C89.203125 -11.017169583152093, 89.203125 19.965660833695814, 89.203125 42 M89.203125 -42 C89.203125 -14.363634645837028, 89.203125 13.272730708325945, 89.203125 42 M89.203125 42 C42.60244876646305 42, -3.998227467073903 42, -89.203125 42 M89.203125 42 C34.902915469477705 42, -19.39729406104459 42, -89.203125 42 M-89.203125 42 C-89.203125 15.620478225854566, -89.203125 -10.759043548290869, -89.203125 -42 M-89.203125 42 C-89.203125 9.024300290001918, -89.203125 -23.951399419996164, -89.203125 -42" stroke="#9370DB" stroke-width="1.3" fill="none" stroke-dasharray="0 0" style=""/></g><g class="annotation-group text" transform="translate(0, -18)"/><g class="label-group text" transform="translate(-77.203125, -18)"><g class="label" style="font-weight: bolder" transform="translate(0,-12)"><foreignObject width="154.40625" height="24"><div xmlns="http://www.w3.org/1999/xhtml" style="display: table-cell; white-space: nowrap; line-height: 1.5; max-width: 182px; text-align: center;"><span class="nodeLabel markdown-node-label" style=""><p>QuasiparticleWeight</p></span></div></foreignObject></g></g><g class="members-group text" transform="translate(-77.203125, 30)"/><g class="methods-group text" transform="translate(-77.203125, 60)"/><g class="divider" style=""><path d="M-89.203125 6 C-18.834271228177016 6, 51.53458254364597 6, 89.203125 6 M-89.203125 6 C-47.027461263034844 6, -4.851797526069689 6, 89.203125 6" stroke="#9370DB" stroke-width="1.3" fill="none" stroke-dasharray="0 0" style=""/></g></g><g class="node default" id="classId-Time-10" transform="translate(1366.90625, 208)"><g class="basic label-container"><path d="M-30.53125 -42 L30.53125 -42 L30.53125 42 L-30.53125 42" stroke="none" stroke-width="0" fill="#ECECFF" style=""/><path d="M-30.53125 -42 C-7.139582461123478 -42, 16.252085077753044 -42, 30.53125 -42 M-30.53125 -42 C-14.383844669265685 -42, 1.763560661468631 -42, 30.53125 -42 M30.53125 -42 C30.53125 -18.050001666869708, 30.53125 5.899996666260584, 30.53125 42 M30.53125 -42 C30.53125 -14.261683832682422, 30.53125 13.476632334635156, 30.53125 42 M30.53125 42 C17.87634203002223 42, 5.221434060044462 42, -30.53125 42 M30.53125 42 C8.057233186277855 42, -14.416783627444289 42, -30.53125 42 M-30.53125 42 C-30.53125 19.88164763690404, -30.53125 -2.236704726191917, -30.53125 -42 M-30.53125 42 C-30.53125 13.798455633715168, -30.53125 -14.403088732569664, -30.53125 -42" stroke="#9370DB" stroke-width="1.3" fill="none" stroke-dasharray="0 0" style=""/></g><g class="annotation-group text" transform="translate(0, -18)"/><g class="label-group text" transform="translate(-18.53125, -18)"><g class="label" style="font-weight: bolder" transform="translate(0,-12)"><foreignObject width="37.0625" height="24"><div xmlns="http://www.w3.org/1999/xhtml" style="display: table-cell; white-space: nowrap; line-height: 1.5; max-width: 83px; text-align: center;"><span class="nodeLabel markdown-node-label" style=""><p>Time</p></span></div></foreignObject></g></g><g class="members-group text" transform="translate(-18.53125, 30)"/><g class="methods-group text" transform="translate(-18.53125, 60)"/><g class="divider" style=""><path d="M-30.53125 6 C-8.769814197345141 6, 12.991621605309717 6, 30.53125 6 M-30.53125 6 C-13.47261012525145 6, 3.5860297494971007 6, 30.53125 6" stroke="#9370DB" stroke-width="1.3" fill="none" stroke-dasharray="0 0" style=""/></g></g><g class="node default" id="classId-WignerSeitz-11" transform="translate(1505.1484375, 208)"><g class="basic label-container"><path d="M-57.7109375 -42 L57.7109375 -42 L57.7109375 42 L-57.7109375 42" stroke="none" stroke-width="0" fill="#ECECFF" style=""/><path d="M-57.7109375 -42 C-23.954300893790105 -42, 9.80233571241979 -42, 57.7109375 -42 M-57.7109375 -42 C-31.816829303896082 -42, -5.922721107792164 -42, 57.7109375 -42 M57.7109375 -42 C57.7109375 -13.733075973328411, 57.7109375 14.533848053343178, 57.7109375 42 M57.7109375 -42 C57.7109375 -25.15987750175045, 57.7109375 -8.319755003500902, 57.7109375 42 M57.7109375 42 C22.73582352475293 42, -12.239290450494138 42, -57.7109375 42 M57.7109375 42 C33.82785932505493 42, 9.944781150109868 42, -57.7109375 42 M-57.7109375 42 C-57.7109375 15.11284235262075, -57.7109375 -11.774315294758502, -57.7109375 -42 M-57.7109375 42 C-57.7109375 12.962150977921151, -57.7109375 -16.075698044157697, -57.7109375 -42" stroke="#9370DB" stroke-width="1.3" fill="none" stroke-dasharray="0 0" style=""/></g><g class="annotation-group text" transform="translate(0, -18)"/><g class="label-group text" transform="translate(-45.7109375, -18)"><g class="label" style="font-weight: bolder" transform="translate(0,-12)"><foreignObject width="91.421875" height="24"><div xmlns="http://www.w3.org/1999/xhtml" style="display: table-cell; white-space: nowrap; line-height: 1.5; max-width: 129px; text-align: center;"><span class="nodeLabel markdown-node-label" style=""><p>WignerSeitz</p></span></div></foreignObject></g></g><g class="members-group text" transform="translate(-45.7109375, 30)"/><g class="methods-group text" transform="translate(-45.7109375, 60)"/><g class="divider" style=""><path d="M-57.7109375 6 C-13.720474896619038 6, 30.269987706761924 6, 57.7109375 6 M-57.7109375 6 C-29.091066461556235 6, -0.4711954231124693 6, 57.7109375 6" stroke="#9370DB" stroke-width="1.3" fill="none" stroke-dasharray="0 0" style=""/></g></g></g></g></g></svg>