<?xml version="1.0" encoding="UTF-8"?>
<svg id="my-svg" width="100%" xmlns="http://www.w3.org/2000/svg" xmlns:xlink="http://www.w3.org/1999/xlink" class="classDiagram" style="max-width: 1570.86px; background-color: white;" viewBox="0 0 1570.859375 258" role="graphics-document document" aria-roledescription="class"><style>#my-svg{font-family:"trebuchet ms",verdana,arial,sans-serif;font-size:16px;fill:#333;}@keyframes edge-animation-frame{from{stroke-dashoffset:0;}}@keyframes dash{to{stroke-dashoffset:0;}}#my-svg .edge-animation-slow{stroke-dasharray:9,5!important;stroke-dashoffset:900;animation:dash 50s linear infinite;stroke-linecap:round;}#my-svg .edge-animation-fast{stroke-dasharray:9,5!important;stroke-dashoffset:900;animation:dash 20s linear infinite;stroke-linecap:round;}#my-svg .error-icon{fill:#552222;}#my-svg .error-text{fill:#552222;stroke:#552222;}#my-svg .edge-thickness-normal{stroke-width:1px;}#my-svg .edge-thickness-thick{stroke-width:3.5px;}#my-svg .edge-pattern-solid{stroke-dasharray:0;}#my-svg .edge-thickness-invisible{stroke-width:0;fill:none;}#my-svg .edge-pattern-dashed{stroke-dasharray:3;}#my-svg .edge-pattern-dotted{stroke-dasharray:2;}#my-svg .marker{fill:#333333;stroke:#333333;}#my-svg .marker.cross{stroke:#333333;}#my-svg svg{font-family:"trebuchet ms",verdana,arial,sans-serif;font-size:16px;}#my-svg p{margin:0;}#my-svg g.classGroup text{fill:#9370DB;stroke:none;font-family:"trebuchet ms",verdana,arial,sans-serif;font-size:10px;}#my-svg g.classGroup text .title{font-weight:bolder;}#my-svg .nodeLabel,#my-svg .edgeLabel{color:#131300;}#my-svg .edgeLabel .label rect{fill:#ECECFF;}#my-svg .label text{fill:#131300;}#my-svg .labelBkg{background:#ECECFF;}#my-svg .edgeLabel .label span{background:#ECECFF;}#my-svg .classTitle{font-weight:bolder;}#my-svg .node rect,#my-svg .node circle,#my-svg .node ellipse,#my-svg .node polygon,#my-svg .node path{fill:#ECECFF;stroke:#9370DB;stroke-width:1px;}#my-svg .divider{stroke:#9370DB;stroke-width:1;}#my-svg g.clickable{cursor:pointer;}#my-svg g.classGroup rect{fill:#ECECFF;stroke:#9370DB;}#my-svg g.classGroup line{stroke:#9370DB;stroke-width:1;}#my-svg .classLabel .box{stroke:none;stroke-width:0;fill:#ECECFF;opacity:0.5;}#my-svg .classLabel .label{fill:#9370DB;font-size:10px;}#my-svg .relation{stroke:#333333;stroke-width:1;fill:none;}#my-svg .dashed-line{stroke-dasharray:3;}#my-svg .dotted-line{stroke-dasharray:1 2;}#my-svg #compositionStart,#my-svg .composition{fill:#333333!important;stroke:#333333!important;stroke-width:1;}#my-svg #compositionEnd,#my-svg .composition{fill:#333333!important;stroke:#333333!important;stroke-width:1;}#my-svg #dependencyStart,#my-svg .dependency{fill:#333333!important;stroke:#333333!important;stroke-width:1;}#my-svg #dependencyStart,#my-svg .dependency{fill:#333333!important;stroke:#333333!important;stroke-width:1;}#my-svg #extensionStart,#my-svg .extension{fill:transparent!important;stroke:#333333!important;stroke-width:1;}#my-svg #extensionEnd,#my-svg .extension{fill:transparent!important;stroke:#333333!important;stroke-width:1;}#my-svg #aggregationStart,#my-svg .aggregation{fill:transparent!important;stroke:#333333!important;stroke-width:1;}#my-svg #aggregationEnd,#my-svg .aggregation{fill:transparent!important;stroke:#333333!important;stroke-width:1;}#my-svg #lollipopStart,#my-svg .lollipop{fill:#ECECFF!important;stroke:#333333!important;stroke-width:1;}#my-svg #lollipopEnd,#my-svg .lollipop{fill:#ECECFF!important;stroke:#333333!important;stroke-width:1;}#my-svg .edgeTerminals{font-size:11px;line-height:initial;}#my-svg .classTitleText{text-anchor:middle;font-size:18px;fill:#333;}#my-svg .label-icon{display:inline-block;height:1em;overflow:visible;vertical-align:-0.125em;}#my-svg .node .label-icon path{fill:currentColor;stroke:revert;stroke-width:revert;}#my-svg :root{--mermaid-font-family:"trebuchet ms",verdana,arial,sans-serif;}</style><g><defs><marker id="my-svg_class-aggregationStart" class="marker aggregation class" refX="18" refY="7" markerWidth="190" markerHeight="240" orient="auto"><path d="M 18,7 L9,13 L1,7 L9,1 Z"/></marker></defs><defs><marker id="my-svg_class-aggregationEnd" class="marker aggregation class" refX="1" refY="7" markerWidth="20" markerHeight="28" orient="auto"><path d="M 18,7 L9,13 L1,7 L9,1 Z"/></marker></defs><defs><marker id="my-svg_class-extensionStart" class="marker extension class" refX="18" refY="7" markerWidth="190" markerHeight="240" orient="auto"><path d="M 1,7 L18,13 V 1 Z"/></marker></defs><defs><marker id="my-svg_class-extensionEnd" class="marker extension class" refX="1" refY="7" markerWidth="20" markerHeight="28" orient="auto"><path d="M 1,1 V 13 L18,7 Z"/></marker></defs><defs><marker id="my-svg_class-compositionStart" class="marker composition class" refX="18" refY="7" markerWidth="190" markerHeight="240" orient="auto"><path d="M 18,7 L9,13 L1,7 L9,1 Z"/></marker></defs><defs><marker id="my-svg_class-compositionEnd" class="marker composition class" refX="1" refY="7" markerWidth="20" markerHeight="28" orient="auto"><path d="M 18,7 L9,13 L1,7 L9,1 Z"/></marker></defs><defs><marker id="my-svg_class-dependencyStart" class="marker dependency class" refX="6" refY="7" markerWidth="190" markerHeight="240" orient="auto"><path d="M 5,7 L9,13 L1,7 L9,1 Z"/></marker></defs><defs><marker id="my-svg_class-dependencyEnd" class="marker dependency class" refX="13" refY="7" markerWidth="20" markerHeight="28" orient="auto"><path d="M 18,7 L9,13 L14,7 L9,1 Z"/></marker></defs><defs><marker id="my-svg_class-lollipopStart" class="marker lollipop class" refX="13" refY="7" markerWidth="190" markerHeight="240" orient="auto"><circle stroke="black" fill="transparent" cx="7" cy="7" r="6"/></marker></defs><defs><marker id="my-svg_class-lollipopEnd" class="marker lollipop class" refX="1" refY="7" markerWidth="190" markerHeight="240" orient="auto"><circle stroke="black" fill="transparent" cx="7" cy="7" r="6"/></marker></defs><g class="root"><g class="clusters"/><g class="edgePaths"><path d="M788.096,61.136L676.751,72.447C565.405,83.758,342.714,106.379,231.369,123.856C120.023,141.333,120.023,153.667,120.023,159.833L120.023,166" id="id_BaseGreensFunction_ElectronicGreensFunction_1" class="edge-thickness-normal edge-pattern-solid relation" style=";;;" data-edge="true" data-et="edge" data-id="id_BaseGreensFunction_ElectronicGreensFunction_1" data-points="W3sieCI6ODA1LjI1NzgxMjUsInkiOjU5LjM5MzA4NDYwNDEwMjYyNn0seyJ4IjoxMjAuMDIzNDM3NSwieSI6MTI5fSx7IngiOjEyMC4wMjM0Mzc1LCJ5IjoxNjZ9XQ==" marker-start="url(#my-svg_class-extensionStart)"/><path d="M788.201,66.538L719.255,76.948C650.309,87.358,512.416,108.179,443.47,124.756C374.523,141.333,374.523,153.667,374.523,159.833L374.523,166" id="id_BaseGreensFunction_ElectronicSelfEnergy_2" class="edge-thickness-normal edge-pattern-solid relation" style=";;;" data-edge="true" data-et="edge" data-id="id_BaseGreensFunction_ElectronicSelfEnergy_2" data-points="W3sieCI6ODA1LjI1NzgxMjUsInkiOjYzLjk2MjEzMjI5ODA0Mzl9LHsieCI6Mzc0LjUyMzQzNzUsInkiOjEyOX0seyJ4IjozNzQuNTIzNDM3NSwieSI6MTY2fV0=" marker-start="url(#my-svg_class-extensionStart)"/><path d="M788.638,80.314L759.438,88.429C730.238,96.543,671.838,112.771,642.638,127.052C613.438,141.333,613.438,153.667,613.438,159.833L613.438,166" id="id_BaseGreensFunction_HybridizationFunction_3" class="edge-thickness-normal edge-pattern-solid relation" style=";;;" data-edge="true" data-et="edge" data-id="id_BaseGreensFunction_HybridizationFunction_3" data-points="W3sieCI6ODA1LjI1NzgxMjUsInkiOjc1LjY5NTc4NzE4ODQzNjA3fSx7IngiOjYxMy40Mzc1LCJ5IjoxMjl9LHsieCI6NjEzLjQzNzUsInkiOjE2Nn1d" marker-start="url(#my-svg_class-extensionStart)"/><path d="M852.329,92L845.664,98.167C838.998,104.333,825.667,116.667,819.001,128C812.336,139.333,812.336,149.667,812.336,154.833L812.336,160" id="id_BaseGreensFunction_Frequency_4" class="edge-thickness-normal edge-pattern-solid relation" style=";;;" data-edge="true" data-et="edge" data-id="id_BaseGreensFunction_Frequency_4" data-points="W3sieCI6ODUyLjMyOTAxNTAzMTY0NTYsInkiOjkyfSx7IngiOjgxMi4zMzU5Mzc1LCJ5IjoxMjl9LHsieCI6ODEyLjMzNTkzNzUsInkiOjE2Nn1d" marker-end="url(#my-svg_class-dependencyEnd)"/><path d="M943.124,92L949.79,98.167C956.455,104.333,969.786,116.667,976.452,128C983.117,139.333,983.117,149.667,983.117,154.833L983.117,160" id="id_BaseGreensFunction_ImaginaryTime_5" class="edge-thickness-normal edge-pattern-solid relation" style=";;;" data-edge="true" data-et="edge" data-id="id_BaseGreensFunction_ImaginaryTime_5" data-points="W3sieCI6OTQzLjEyNDEwOTk2ODM1NDQsInkiOjkyfSx7IngiOjk4My4xMTcxODc1LCJ5IjoxMjl9LHsieCI6OTgzLjExNzE4NzUsInkiOjE2Nn1d" marker-end="url(#my-svg_class-dependencyEnd)"/><path d="M990.195,74.664L1024.147,83.72C1058.099,92.776,1126.003,110.888,1159.954,125.111C1193.906,139.333,1193.906,149.667,1193.906,154.833L1193.906,160" id="id_BaseGreensFunction_MatsubaraFrequency_6" class="edge-thickness-normal edge-pattern-solid relation" style=";;;" data-edge="true" data-et="edge" data-id="id_BaseGreensFunction_MatsubaraFrequency_6" data-points="W3sieCI6OTkwLjE5NTMxMjUsInkiOjc0LjY2NDE4NzE3NTIyNjE5fSx7IngiOjExOTMuOTA2MjUsInkiOjEyOX0seyJ4IjoxMTkzLjkwNjI1LCJ5IjoxNjZ9XQ==" marker-end="url(#my-svg_class-dependencyEnd)"/><path d="M990.195,65.57L1052.98,76.141C1115.766,86.713,1241.336,107.857,1304.121,123.595C1366.906,139.333,1366.906,149.667,1366.906,154.833L1366.906,160" id="id_BaseGreensFunction_Time_7" class="edge-thickness-normal edge-pattern-solid relation" style=";;;" data-edge="true" data-et="edge" data-id="id_BaseGreensFunction_Time_7" data-points="W3sieCI6OTkwLjE5NTMxMjUsInkiOjY1LjU2OTc5NDM1NTE3NDQyfSx7IngiOjEzNjYuOTA2MjUsInkiOjEyOX0seyJ4IjoxMzY2LjkwNjI1LCJ5IjoxNjZ9XQ==" marker-end="url(#my-svg_class-dependencyEnd)"/><path d="M990.195,62.026L1076.021,73.189C1161.846,84.351,1333.497,106.675,1419.323,123.004C1505.148,139.333,1505.148,149.667,1505.148,154.833L1505.148,160" id="id_BaseGreensFunction_WignerSeitz_8" class="edge-thickness-normal edge-pattern-solid relation" style=";;;" data-edge="true" data-et="edge" data-id="id_BaseGreensFunction_WignerSeitz_8" data-points="W3sieCI6OTkwLjE5NTMxMjUsInkiOjYyLjAyNjI4OTM4OTA2NzUyfSx7IngiOjE1MDUuMTQ4NDM3NSwieSI6MTI5fSx7IngiOjE1MDUuMTQ4NDM3NSwieSI6MTY2fV0=" marker-end="url(#my-svg_class-dependencyEnd)"/></g><g class="edgeLabels"><g class="edgeLabel"><g class="label" data-id="id_BaseGreensFunction_ElectronicGreensFunction_1" transform="translate(0, 0)"><foreignObject width="0" height="0"><div xmlns="http://www.w3.org/1999/xhtml" class="labelBkg" style="display: table-cell; white-space: nowrap; line-height: 1.5; max-width: 200px; text-align: center;"><span class="edgeLabel"></span></div></foreignObject></g></g><g class="edgeLabel"><g class="label" data-id="id_BaseGreensFunction_ElectronicSelfEnergy_2" transform="translate(0, 0)"><foreignObject width="0" height="0"><div xmlns="http://www.w3.org/1999/xhtml" class="labelBkg" style="display: table-cell; white-space: nowrap; line-height: 1.5; max-width: 200px; text-align: center;"><span class="edgeLabel"></span></div></foreignObject></g></g><g class="edgeLabel"><g class="label" data-id="id_BaseGreensFunction_HybridizationFunction_3" transform="translate(0, 0)"><foreignObject width="0" height="0"><div xmlns="http://www.w3.org/1999/xhtml" class="labelBkg" style="display: table-cell; white-space: nowrap; line-height: 1.5; max-width: 200px; text-align: center;"><span class="edgeLabel"></span></div></foreignObject></g></g><g class="edgeLabel" transform="translate(812.3359375, 129)"><g class="label" data-id="id_BaseGreensFunction_Frequency_4" transform="translate(-52.921875, -12)"><foreignObject width="105.84375" height="24"><div xmlns="http://www.w3.org/1999/xhtml" class="labelBkg" style="display: table-cell; white-space: nowrap; line-height: 1.5; max-width: 200px; text-align: center;"><span class="edgeLabel"><p>real_frequency</p></span></div></foreignObject></g></g><g class="edgeLabel"><g class="label" data-id="id_BaseGreensFunction_ImaginaryTime_5" transform="translate(0, 0)"><foreignObject width="0" height="0"><div xmlns="http://www.w3.org/1999/xhtml" class="labelBkg" style="display: table-cell; white-space: nowrap; line-height: 1.5; max-width: 200px; text-align: center;"><span class="edgeLabel"></span></div></foreignObject></g></g><g class="edgeLabel"><g class="label" data-id="id_BaseGreensFunction_MatsubaraFrequency_6" transform="translate(0, 0)"><foreignObject width="0" height="0"><div xmlns="http://www.w3.org/1999/xhtml" class="labelBkg" style="display: table-cell; white-space: nowrap; line-height: 1.5; max-width: 200px; text-align: center;"><span class="edgeLabel"></span></div></foreignObject></g></g><g class="edgeLabel"><g class="label" data-id="id_BaseGreensFunction_Time_7" transform="translate(0, 0)"><foreignObject width="0" height="0"><div xmlns="http://www.w3.org/1999/xhtml" class="labelBkg" style="display: table-cell; white-space: nowrap; line-height: 1.5; max-width: 200px; text-align: center;"><span class="edgeLabel"></span></div></foreignObject></g></g><g class="edgeLabel"><g class="label" data-id="id_BaseGreensFunction_WignerSeitz_8" transform="translate(0, 0)"><foreignObject width="0" height="0"><div xmlns="http://www.w3.org/1999/xhtml" class="labelBkg" style="display: table-cell; white-space: nowrap; line-height: 1.5; max-width: 200px; text-align: center;"><span class="edgeLabel"></span></div></foreignObject></g></g></g><g class="nodes"><g class="node default" id="classId-BaseGreensFunction-0" transform="translate(897.7265625, 50)"><g class="basic label-container"><path d="M-92.46875 -42 L92.46875 -42 L92.46875 42 L-92.46875 42" stroke="none" stroke-width="0" fill="#ECECFF" style=""/><path d="M-92.46875 -42 C-27.702704805601357 -42, 37.063340388797286 -42, 92.46875 -42 M-92.46875 -42 C-29.0054011311448 -42, 34.4579477377104 -42, 92.46875 -42 M92.46875 -42 C92.46875 -22.91572556951793, 92.46875 -3.831451139035863, 92.46875 42 M92.46875 -42 C92.46875 -9.232458109228851, 92.46875 23.535083781542298, 92.46875 42 M92.46875 42 C45.56954074366221 42, -1.3296685126755818 42, -92.46875 42 M92.46875 42 C31.886021213235445 42, -28.69670757352911 42, -92.46875 42 M-92.46875 42 C-92.46875 14.164074135780176, -92.46875 -13.671851728439648, -92.46875 -42 M-92.46875 42 C-92.46875 25.104188618364365, -92.46875 8.20837723672873, -92.46875 -42" stroke="#9370DB" stroke-width="1.3" fill="none" stroke-dasharray="0 0" style=""/></g><g class="annotation-group text" transform="translate(0, -18)"/><g class="label-group text" transform="translate(-80.46875, -18)"><g class="label" style="font-weight: bolder" transform="translate(0,-12)"><foreignObject width="160.9375" height="24"><div xmlns="http://www.w3.org/1999/xhtml" style="display: table-cell; white-space: nowrap; line-height: 1.5; max-width: 183px; text-align: center;"><span class="nodeLabel markdown-node-label" style=""><p>BaseGreensFunction</p></span></div></foreignObject></g></g><g class="members-group text" transform="translate(-80.46875, 30)"/><g class="methods-group text" transform="translate(-80.46875, 60)"/><g class="divider" style=""><path d="M-92.46875 6 C-46.184441542006695 6, 0.09986691598660968 6, 92.46875 6 M-92.46875 6 C-51.91786320397467 6, -11.366976407949338 6, 92.46875 6" stroke="#9370DB" stroke-width="1.3" fill="none" stroke-dasharray="0 0" style=""/></g></g><g class="node default" id="classId-ElectronicGreensFunction-1" transform="translate(120.0234375, 208)"><g class="basic label-container"><path d="M-112.0234375 -42 L112.0234375 -42 L112.0234375 42 L-112.0234375 42" stroke="none" stroke-width="0" fill="#ECECFF" style=""/><path d="M-112.0234375 -42 C-42.518918277393965 -42, 26.98560094521207 -42, 112.0234375 -42 M-112.0234375 -42 C-60.795297527767495 -42, -9.56715755553499 -42, 112.0234375 -42 M112.0234375 -42 C112.0234375 -10.420805568173371, 112.0234375 21.158388863653258, 112.0234375 42 M112.0234375 -42 C112.0234375 -23.885286541831036, 112.0234375 -5.770573083662072, 112.0234375 42 M112.0234375 42 C25.61544378667395 42, -60.7925499266521 42, -112.0234375 42 M112.0234375 42 C44.30470651582684 42, -23.414024468346327 42, -112.0234375 42 M-112.0234375 42 C-112.0234375 11.059632657327569, -112.0234375 -19.880734685344862, -112.0234375 -42 M-112.0234375 42 C-112.0234375 11.501854914113586, -112.0234375 -18.996290171772827, -112.0234375 -42" stroke="#9370DB" stroke-width="1.3" fill="none" stroke-dasharray="0 0" style=""/></g><g class="annotation-group text" transform="translate(0, -18)"/><g class="label-group text" transform="translate(-100.0234375, -18)"><g class="label" style="font-weight: bolder" transform="translate(0,-12)"><foreignObject width="200.046875" height="24"><div xmlns="http://www.w3.org/1999/xhtml" style="display: table-cell; white-space: nowrap; line-height: 1.5; max-width: 218px; text-align: center;"><span class="nodeLabel markdown-node-label" style=""><p>ElectronicGreensFunction</p></span></div></foreignObject></g></g><g class="members-group text" transform="translate(-100.0234375, 30)"/><g class="methods-group text" transform="translate(-100.0234375, 60)"/><g class="divider" style=""><path d="M-112.0234375 6 C-42.07838807496432 6, 27.866661350071354 6, 112.0234375 6 M-112.0234375 6 C-63.086619831515115 6, -14.14980216303023 6, 112.0234375 6" stroke="#9370DB" stroke-width="1.3" fill="none" stroke-dasharray="0 0" style=""/></g></g><g class="node default" id="classId-ElectronicSelfEnergy-2" transform="translate(374.5234375, 208)"><g class="basic label-container"><path d="M-92.4765625 -42 L92.4765625 -42 L92.4765625 42 L-92.4765625 42" stroke="none" stroke-width="0" fill="#ECECFF" style=""/><path d="M-92.4765625 -42 C-21.800892758474745 -42, 48.87477698305051 -42, 92.4765625 -42 M-92.4765625 -42 C-32.824046519376644 -42, 26.828469461246712 -42, 92.4765625 -42 M92.4765625 -42 C92.4765625 -10.722900000420637, 92.4765625 20.554199999158726, 92.4765625 42 M92.4765625 -42 C92.4765625 -23.804343819474514, 92.4765625 -5.6086876389490286, 92.4765625 42 M92.4765625 42 C19.704614490103566 42, -53.06733351979287 42, -92.4765625 42 M92.4765625 42 C28.866275565176096 42, -34.74401136964781 42, -92.4765625 42 M-92.4765625 42 C-92.4765625 21.306273114193925, -92.4765625 0.6125462283878491, -92.4765625 -42 M-92.4765625 42 C-92.4765625 12.746388409229304, -92.4765625 -16.50722318154139, -92.4765625 -42" stroke="#9370DB" stroke-width="1.3" fill="none" stroke-dasharray="0 0" style=""/></g><g class="annotation-group text" transform="translate(0, -18)"/><g class="label-group text" transform="translate(-80.4765625, -18)"><g class="label" style="font-weight: bolder" transform="translate(0,-12)"><foreignObject width="160.953125" height="24"><div xmlns="http://www.w3.org/1999/xhtml" style="display: table-cell; white-space: nowrap; line-height: 1.5; max-width: 187px; text-align: center;"><span class="nodeLabel markdown-node-label" style=""><p>ElectronicSelfEnergy</p></span></div></foreignObject></g></g><g class="members-group text" transform="translate(-80.4765625, 30)"/><g class="methods-group text" transform="translate(-80.4765625, 60)"/><g class="divider" style=""><path d="M-92.4765625 6 C-37.800724208927505 6, 16.87511408214499 6, 92.4765625 6 M-92.4765625 6 C-32.58694042255485 6, 27.302681654890307 6, 92.4765625 6" stroke="#9370DB" stroke-width="1.3" fill="none" stroke-dasharray="0 0" style=""/></g></g><g class="node default" id="classId-Frequency-3" transform="translate(812.3359375, 208)"><g class="basic label-container"><path d="M-52.4609375 -42 L52.4609375 -42 L52.4609375 42 L-52.4609375 42" stroke="none" stroke-width="0" fill="#ECECFF" style=""/><path d="M-52.4609375 -42 C-18.745973086240532 -42, 14.968991327518935 -42, 52.4609375 -42 M-52.4609375 -42 C-19.486543333691642 -42, 13.487850832616715 -42, 52.4609375 -42 M52.4609375 -42 C52.4609375 -15.309760493856011, 52.4609375 11.380479012287978, 52.4609375 42 M52.4609375 -42 C52.4609375 -12.07043072520078, 52.4609375 17.85913854959844, 52.4609375 42 M52.4609375 42 C22.81036566321694 42, -6.8402061735661235 42, -52.4609375 42 M52.4609375 42 C15.01285504606178 42, -22.43522740787644 42, -52.4609375 42 M-52.4609375 42 C-52.4609375 15.123718596183565, -52.4609375 -11.75256280763287, -52.4609375 -42 M-52.4609375 42 C-52.4609375 12.430071916689268, -52.4609375 -17.139856166621463, -52.4609375 -42" stroke="#9370DB" stroke-width="1.3" fill="none" stroke-dasharray="0 0" style=""/></g><g class="annotation-group text" transform="translate(0, -18)"/><g class="label-group text" transform="translate(-40.4609375, -18)"><g class="label" style="font-weight: bolder" transform="translate(0,-12)"><foreignObject width="80.921875" height="24"><div xmlns="http://www.w3.org/1999/xhtml" style="display: table-cell; white-space: nowrap; line-height: 1.5; max-width: 118px; text-align: center;"><span class="nodeLabel markdown-node-label" style=""><p>Frequency</p></span></div></foreignObject></g></g><g class="members-group text" transform="translate(-40.4609375, 30)"/><g class="methods-group text" transform="translate(-40.4609375, 60)"/><g class="divider" style=""><path d="M-52.4609375 6 C-15.127112930861443 6, 22.206711638277113 6, 52.4609375 6 M-52.4609375 6 C-28.920886297181095 6, -5.38083509436219 6, 52.4609375 6" stroke="#9370DB" stroke-width="1.3" fill="none" stroke-dasharray="0 0" style=""/></g></g><g class="node default" id="classId-HybridizationFunction-4" transform="translate(613.4375, 208)"><g class="basic label-container"><path d="M-96.4375 -42 L96.4375 -42 L96.4375 42 L-96.4375 42" stroke="none" stroke-width="0" fill="#ECECFF" style=""/><path d="M-96.4375 -42 C-50.625021169500755 -42, -4.81254233900151 -42, 96.4375 -42 M-96.4375 -42 C-56.03074695122056 -42, -15.623993902441114 -42, 96.4375 -42 M96.4375 -42 C96.4375 -24.95045902297159, 96.4375 -7.900918045943179, 96.4375 42 M96.4375 -42 C96.4375 -17.985002363143693, 96.4375 6.029995273712615, 96.4375 42 M96.4375 42 C40.279079031111635 42, -15.87934193777673 42, -96.4375 42 M96.4375 42 C19.90946571542497 42, -56.61856856915006 42, -96.4375 42 M-96.4375 42 C-96.4375 8.664786957969078, -96.4375 -24.670426084061845, -96.4375 -42 M-96.4375 42 C-96.4375 11.814254670822738, -96.4375 -18.371490658354524, -96.4375 -42" stroke="#9370DB" stroke-width="1.3" fill="none" stroke-dasharray="0 0" style=""/></g><g class="annotation-group text" transform="translate(0, -18)"/><g class="label-group text" transform="translate(-84.4375, -18)"><g class="label" style="font-weight: bolder" transform="translate(0,-12)"><foreignObject width="168.875" height="24"><div xmlns="http://www.w3.org/1999/xhtml" style="display: table-cell; white-space: nowrap; line-height: 1.5; max-width: 196px; text-align: center;"><span class="nodeLabel markdown-node-label" style=""><p>HybridizationFunction</p></span></div></foreignObject></g></g><g class="members-group text" transform="translate(-84.4375, 30)"/><g class="methods-group text" transform="translate(-84.4375, 60)"/><g class="divider" style=""><path d="M-96.4375 6 C-34.830650292664465 6, 26.77619941467107 6, 96.4375 6 M-96.4375 6 C-26.774212080911965 6, 42.88907583817607 6, 96.4375 6" stroke="#9370DB" stroke-width="1.3" fill="none" stroke-dasharray="0 0" style=""/></g></g><g class="node default" id="classId-ImaginaryTime-5" transform="translate(983.1171875, 208)"><g class="basic label-container"><path d="M-68.3203125 -42 L68.3203125 -42 L68.3203125 42 L-68.3203125 42" stroke="none" stroke-width="0" fill="#ECECFF" style=""/><path d="M-68.3203125 -42 C-22.406287617405788 -42, 23.507737265188425 -42, 68.3203125 -42 M-68.3203125 -42 C-34.8607273927738 -42, -1.401142285547607 -42, 68.3203125 -42 M68.3203125 -42 C68.3203125 -10.327424208542325, 68.3203125 21.34515158291535, 68.3203125 42 M68.3203125 -42 C68.3203125 -20.03063152661415, 68.3203125 1.938736946771698, 68.3203125 42 M68.3203125 42 C29.788475668514273 42, -8.743361162971453 42, -68.3203125 42 M68.3203125 42 C20.94645738683745 42, -26.427397726325097 42, -68.3203125 42 M-68.3203125 42 C-68.3203125 20.099672386809836, -68.3203125 -1.8006552263803286, -68.3203125 -42 M-68.3203125 42 C-68.3203125 11.904580641270513, -68.3203125 -18.190838717458973, -68.3203125 -42" stroke="#9370DB" stroke-width="1.3" fill="none" stroke-dasharray="0 0" style=""/></g><g class="annotation-group text" transform="translate(0, -18)"/><g class="label-group text" transform="translate(-56.3203125, -18)"><g class="label" style="font-weight: bolder" transform="translate(0,-12)"><foreignObject width="112.640625" height="24"><div xmlns="http://www.w3.org/1999/xhtml" style="display: table-cell; white-space: nowrap; line-height: 1.5; max-width: 149px; text-align: center;"><span class="nodeLabel markdown-node-label" style=""><p>ImaginaryTime</p></span></div></foreignObject></g></g><g class="members-group text" transform="translate(-56.3203125, 30)"/><g class="methods-group text" transform="translate(-56.3203125, 60)"/><g class="divider" style=""><path d="M-68.3203125 6 C-31.597625644806897 6, 5.125061210386207 6, 68.3203125 6 M-68.3203125 6 C-21.572022321431376 6, 25.176267857137248 6, 68.3203125 6" stroke="#9370DB" stroke-width="1.3" fill="none" stroke-dasharray="0 0" style=""/></g></g><g class="node default" id="classId-MatsubaraFrequency-6" transform="translate(1193.90625, 208)"><g class="basic label-container"><path d="M-92.46875 -42 L92.46875 -42 L92.46875 42 L-92.46875 42" stroke="none" stroke-width="0" fill="#ECECFF" style=""/><path d="M-92.46875 -42 C-23.28668120445549 -42, 45.89538759108902 -42, 92.46875 -42 M-92.46875 -42 C-19.749962869959802 -42, 52.968824260080396 -42, 92.46875 -42 M92.46875 -42 C92.46875 -18.27500836160559, 92.46875 5.449983276788821, 92.46875 42 M92.46875 -42 C92.46875 -18.717262017985362, 92.46875 4.565475964029275, 92.46875 42 M92.46875 42 C43.77930719847743 42, -4.910135603045134 42, -92.46875 42 M92.46875 42 C35.78965015486059 42, -20.889449690278823 42, -92.46875 42 M-92.46875 42 C-92.46875 11.343110236723316, -92.46875 -19.31377952655337, -92.46875 -42 M-92.46875 42 C-92.46875 20.489995868858397, -92.46875 -1.0200082622832056, -92.46875 -42" stroke="#9370DB" stroke-width="1.3" fill="none" stroke-dasharray="0 0" style=""/></g><g class="annotation-group text" transform="translate(0, -18)"/><g class="label-group text" transform="translate(-80.46875, -18)"><g class="label" style="font-weight: bolder" transform="translate(0,-12)"><foreignObject width="160.9375" height="24"><div xmlns="http://www.w3.org/1999/xhtml" style="display: table-cell; white-space: nowrap; line-height: 1.5; max-width: 185px; text-align: center;"><span class="nodeLabel markdown-node-label" style=""><p>MatsubaraFrequency</p></span></div></foreignObject></g></g><g class="members-group text" transform="translate(-80.46875, 30)"/><g class="methods-group text" transform="translate(-80.46875, 60)"/><g class="divider" style=""><path d="M-92.46875 6 C-22.226991162437926 6, 48.01476767512415 6, 92.46875 6 M-92.46875 6 C-46.40165187444081 6, -0.3345537488816177 6, 92.46875 6" stroke="#9370DB" stroke-width="1.3" fill="none" stroke-dasharray="0 0" style=""/></g></g><g class="node default" id="classId-Time-7" transform="translate(1366.90625, 208)"><g class="basic label-container"><path d="M-30.53125 -42 L30.53125 -42 L30.53125 42 L-30.53125 42" stroke="none" stroke-width="0" fill="#ECECFF" style=""/><path d="M-30.53125 -42 C-18.081239957052635 -42, -5.631229914105269 -42, 30.53125 -42 M-30.53125 -42 C-7.737228580080064 -42, 15.056792839839872 -42, 30.53125 -42 M30.53125 -42 C30.53125 -16.140859227875655, 30.53125 9.71828154424869, 30.53125 42 M30.53125 -42 C30.53125 -14.50796483120676, 30.53125 12.98407033758648, 30.53125 42 M30.53125 42 C13.026205471605081 42, -4.4788390567898375 42, -30.53125 42 M30.53125 42 C7.840259633585678 42, -14.850730732828644 42, -30.53125 42 M-30.53125 42 C-30.53125 13.670941202636566, -30.53125 -14.658117594726868, -30.53125 -42 M-30.53125 42 C-30.53125 15.951815296840959, -30.53125 -10.096369406318082, -30.53125 -42" stroke="#9370DB" stroke-width="1.3" fill="none" stroke-dasharray="0 0" style=""/></g><g class="annotation-group text" transform="translate(0, -18)"/><g class="label-group text" transform="translate(-18.53125, -18)"><g class="label" style="font-weight: bolder" transform="translate(0,-12)"><foreignObject width="37.0625" height="24"><div xmlns="http://www.w3.org/1999/xhtml" style="display: table-cell; white-space: nowrap; line-height: 1.5; max-width: 83px; text-align: center;"><span class="nodeLabel markdown-node-label" style=""><p>Time</p></span></div></foreignObject></g></g><g class="members-group text" transform="translate(-18.53125, 30)"/><g class="methods-group text" transform="translate(-18.53125, 60)"/><g class="divider" style=""><path d="M-30.53125 6 C-17.199303732804385 6, -3.8673574656087695 6, 30.53125 6 M-30.53125 6 C-8.677943164898025 6, 13.17536367020395 6, 30.53125 6" stroke="#9370DB" stroke-width="1.3" fill="none" stroke-dasharray="0 0" style=""/></g></g><g class="node default" id="classId-WignerSeitz-8" transform="translate(1505.1484375, 208)"><g class="basic label-container"><path d="M-57.7109375 -42 L57.7109375 -42 L57.7109375 42 L-57.7109375 42" stroke="none" stroke-width="0" fill="#ECECFF" style=""/><path d="M-57.7109375 -42 C-17.915550656128126 -42, 21.87983618774375 -42, 57.7109375 -42 M-57.7109375 -42 C-19.02865554412019 -42, 19.653626411759618 -42, 57.7109375 -42 M57.7109375 -42 C57.7109375 -12.37862736589674, 57.7109375 17.24274526820652, 57.7109375 42 M57.7109375 -42 C57.7109375 -24.756556279105528, 57.7109375 -7.513112558211056, 57.7109375 42 M57.7109375 42 C19.48442071005669 42, -18.742096079886622 42, -57.7109375 42 M57.7109375 42 C31.586051581655664 42, 5.461165663311327 42, -57.7109375 42 M-57.7109375 42 C-57.7109375 11.344275192009448, -57.7109375 -19.311449615981104, -57.7109375 -42 M-57.7109375 42 C-57.7109375 14.084726835032374, -57.7109375 -13.830546329935252, -57.7109375 -42" stroke="#9370DB" stroke-width="1.3" fill="none" stroke-dasharray="0 0" style=""/></g><g class="annotation-group text" transform="translate(0, -18)"/><g class="label-group text" transform="translate(-45.7109375, -18)"><g class="label" style="font-weight: bolder" transform="translate(0,-12)"><foreignObject width="91.421875" height="24"><div xmlns="http://www.w3.org/1999/xhtml" style="display: table-cell; white-space: nowrap; line-height: 1.5; max-width: 129px; text-align: center;"><span class="nodeLabel markdown-node-label" style=""><p>WignerSeitz</p></span></div></foreignObject></g></g><g class="members-group text" transform="translate(-45.7109375, 30)"/><g class="methods-group text" transform="translate(-45.7109375, 60)"/><g class="divider" style=""><path d="M-57.7109375 6 C-22.533244090648594 6, 12.644449318702812 6, 57.7109375 6 M-57.7109375 6 C-23.51522559309874 6, 10.680486313802518 6, 57.7109375 6" stroke="#9370DB" stroke-width="1.3" fill="none" stroke-dasharray="0 0" style=""/></g></g></g></g></g></svg>