<?xml version="1.0" encoding="UTF-8"?>
<svg id="my-svg" width="100%" xmlns="http://www.w3.org/2000/svg" xmlns:xlink="http://www.w3.org/1999/xlink" class="classDiagram" style="max-width: 716.659px; background-color: white;" viewBox="0 0 716.6589965820312 332.1499938964844" role="graphics-document document" aria-roledescription="class"><style>#my-svg{font-family:"trebuchet ms",verdana,arial,sans-serif;font-size:16px;fill:#333;}@keyframes edge-animation-frame{from{stroke-dashoffset:0;}}@keyframes dash{to{stroke-dashoffset:0;}}#my-svg .edge-animation-slow{stroke-dasharray:9,5!important;stroke-dashoffset:900;animation:dash 50s linear infinite;stroke-linecap:round;}#my-svg .edge-animation-fast{stroke-dasharray:9,5!important;stroke-dashoffset:900;animation:dash 20s linear infinite;stroke-linecap:round;}#my-svg .error-icon{fill:#552222;}#my-svg .error-text{fill:#552222;stroke:#552222;}#my-svg .edge-thickness-normal{stroke-width:1px;}#my-svg .edge-thickness-thick{stroke-width:3.5px;}#my-svg .edge-pattern-solid{stroke-dasharray:0;}#my-svg .edge-thickness-invisible{stroke-width:0;fill:none;}#my-svg .edge-pattern-dashed{stroke-dasharray:3;}#my-svg .edge-pattern-dotted{stroke-dasharray:2;}#my-svg .marker{fill:#333333;stroke:#333333;}#my-svg .marker.cross{stroke:#333333;}#my-svg svg{font-family:"trebuchet ms",verdana,arial,sans-serif;font-size:16px;}#my-svg p{margin:0;}#my-svg g.classGroup text{fill:#9370DB;stroke:none;font-family:"trebuchet ms",verdana,arial,sans-serif;font-size:10px;}#my-svg g.classGroup text .title{font-weight:bolder;}#my-svg .nodeLabel,#my-svg .edgeLabel{color:#131300;}#my-svg .edgeLabel .label rect{fill:#ECECFF;}#my-svg .label text{fill:#131300;}#my-svg .labelBkg{background:#ECECFF;}#my-svg .edgeLabel .label span{background:#ECECFF;}#my-svg .classTitle{font-weight:bolder;}#my-svg .node rect,#my-svg .node circle,#my-svg .node ellipse,#my-svg .node polygon,#my-svg .node path{fill:#ECECFF;stroke:#9370DB;stroke-width:1px;}#my-svg .divider{stroke:#9370DB;stroke-width:1;}#my-svg g.clickable{cursor:pointer;}#my-svg g.classGroup rect{fill:#ECECFF;stroke:#9370DB;}#my-svg g.classGroup line{stroke:#9370DB;stroke-width:1;}#my-svg .classLabel .box{stroke:none;stroke-width:0;fill:#ECECFF;opacity:0.5;}#my-svg .classLabel .label{fill:#9370DB;font-size:10px;}#my-svg .relation{stroke:#333333;stroke-width:1;fill:none;}#my-svg .dashed-line{stroke-dasharray:3;}#my-svg .dotted-line{stroke-dasharray:1 2;}#my-svg #compositionStart,#my-svg .composition{fill:#333333!important;stroke:#333333!important;stroke-width:1;}#my-svg #compositionEnd,#my-svg .composition{fill:#333333!important;stroke:#333333!important;stroke-width:1;}#my-svg #dependencyStart,#my-svg .dependency{fill:#333333!important;stroke:#333333!important;stroke-width:1;}#my-svg #dependencyStart,#my-svg .dependency{fill:#333333!important;stroke:#333333!important;stroke-width:1;}#my-svg #extensionStart,#my-svg .extension{fill:transparent!important;stroke:#333333!important;stroke-width:1;}#my-svg #extensionEnd,#my-svg .extension{fill:transparent!important;stroke:#333333!important;stroke-width:1;}#my-svg #aggregationStart,#my-svg .aggregation{fill:transparent!important;stroke:#333333!important;stroke-width:1;}#my-svg #aggregationEnd,#my-svg .aggregation{fill:transparent!important;stroke:#333333!important;stroke-width:1;}#my-svg #lollipopStart,#my-svg .lollipop{fill:#ECECFF!important;stroke:#333333!important;stroke-width:1;}#my-svg #lollipopEnd,#my-svg .lollipop{fill:#ECECFF!important;stroke:#333333!important;stroke-width:1;}#my-svg .edgeTerminals{font-size:11px;line-height:initial;}#my-svg .classTitleText{text-anchor:middle;font-size:18px;fill:#333;}#my-svg .label-icon{display:inline-block;height:1em;overflow:visible;vertical-align:-0.125em;}#my-svg .node .label-icon path{fill:currentColor;stroke:revert;stroke-width:revert;}#my-svg :root{--mermaid-font-family:"trebuchet ms",verdana,arial,sans-serif;}</style><g><defs><marker id="my-svg_class-aggregationStart" class="marker aggregation class" refX="18" refY="7" markerWidth="190" markerHeight="240" orient="auto"><path d="M 18,7 L9,13 L1,7 L9,1 Z"/></marker></defs><defs><marker id="my-svg_class-aggregationEnd" class="marker aggregation class" refX="1" refY="7" markerWidth="20" markerHeight="28" orient="auto"><path d="M 18,7 L9,13 L1,7 L9,1 Z"/></marker></defs><defs><marker id="my-svg_class-extensionStart" class="marker extension class" refX="18" refY="7" markerWidth="190" markerHeight="240" orient="auto"><path d="M 1,7 L18,13 V 1 Z"/></marker></defs><defs><marker id="my-svg_class-extensionEnd" class="marker extension class" refX="1" refY="7" markerWidth="20" markerHeight="28" orient="auto"><path d="M 1,1 V 13 L18,7 Z"/></marker></defs><defs><marker id="my-svg_class-compositionStart" class="marker composition class" refX="18" refY="7" markerWidth="190" markerHeight="240" orient="auto"><path d="M 18,7 L9,13 L1,7 L9,1 Z"/></marker></defs><defs><marker id="my-svg_class-compositionEnd" class="marker composition class" refX="1" refY="7" markerWidth="20" markerHeight="28" orient="auto"><path d="M 18,7 L9,13 L1,7 L9,1 Z"/></marker></defs><defs><marker id="my-svg_class-dependencyStart" class="marker dependency class" refX="6" refY="7" markerWidth="190" markerHeight="240" orient="auto"><path d="M 5,7 L9,13 L1,7 L9,1 Z"/></marker></defs><defs><marker id="my-svg_class-dependencyEnd" class="marker dependency class" refX="13" refY="7" markerWidth="20" markerHeight="28" orient="auto"><path d="M 18,7 L9,13 L14,7 L9,1 Z"/></marker></defs><defs><marker id="my-svg_class-lollipopStart" class="marker lollipop class" refX="13" refY="7" markerWidth="190" markerHeight="240" orient="auto"><circle stroke="black" fill="transparent" cx="7" cy="7" r="6"/></marker></defs><defs><marker id="my-svg_class-lollipopEnd" class="marker lollipop class" refX="1" refY="7" markerWidth="190" markerHeight="240" orient="auto"><circle stroke="black" fill="transparent" cx="7" cy="7" r="6"/></marker></defs><g class="root"><g class="clusters"/><g class="edgePaths"><path d="M397.086,61.789L336.684,72.991C276.281,84.193,155.477,106.596,95.074,122.965C34.672,139.333,34.672,149.667,34.672,154.833L34.672,160" id="id_ModelSystem_Cell_1" class="edge-thickness-normal edge-pattern-solid relation" style=";;;" data-edge="true" data-et="edge" data-id="id_ModelSystem_Cell_1" data-points="W3sieCI6Mzk3LjA4NTkzNzUsInkiOjYxLjc4OTI5MzE4MTIzNDY0fSx7IngiOjM0LjY3MTg3NSwieSI6MTI5fSx7IngiOjM0LjY3MTg3NSwieSI6MTY2fV0=" marker-end="url(#my-svg_class-dependencyEnd)"/><path d="M397.086,68.588L362.651,78.657C328.216,88.725,259.346,108.863,224.911,124.098C190.477,139.333,190.477,149.667,190.477,154.833L190.477,160" id="id_ModelSystem_ChemicalFormula_2" class="edge-thickness-normal edge-pattern-solid relation" style=";;;" data-edge="true" data-et="edge" data-id="id_ModelSystem_ChemicalFormula_2" data-points="W3sieCI6Mzk3LjA4NTkzNzUsInkiOjY4LjU4NzgzMjE3MTg3NjM2fSx7IngiOjE5MC40NzY1NjI1LCJ5IjoxMjl9LHsieCI6MTkwLjQ3NjU2MjUsInkiOjE2Nn1d" marker-end="url(#my-svg_class-dependencyEnd)"/><path d="M524.227,77.698L543.851,86.248C563.475,94.799,602.723,111.899,622.348,133.608C641.972,155.317,641.972,181.633,641.972,194.792L641.972,207.95" id="ModelSystem-cyclic-special-1" class="edge-thickness-normal edge-pattern-solid relation" style=";;;" data-edge="true" data-et="edge" data-id="ModelSystem-cyclic-special-1" data-points="W3sieCI6NTI0LjIyNjU2MjUsInkiOjc3LjY5Nzg1OTM5NTYyMjJ9LHsieCI6NjQxLjk3MTg3NTAwMDc0NTEsInkiOjEyOX0seyJ4Ijo2NDEuOTcxODc1MDAwNzQ1MSwieSI6MjA3Ljk0OTk5OTk5OTI1NDk0fV0="/><path d="M641.972,208.05L641.972,221.208C641.972,234.367,641.972,260.683,647.522,280.008C653.071,299.333,664.171,311.667,669.721,317.833L675.271,324" id="ModelSystem-cyclic-special-mid" class="edge-thickness-normal edge-pattern-solid relation" style=";;;" data-edge="true" data-et="edge" data-id="ModelSystem-cyclic-special-mid" data-points="W3sieCI6NjQxLjk3MTg3NTAwMDc0NTEsInkiOjIwOC4wNTAwMDAwMDA3NDUwNn0seyJ4Ijo2NDEuOTcxODc1MDAwNzQ1MSwieSI6Mjg3fSx7IngiOjY3NS4yNzA2MjY2ODY5ODUsInkiOjMyNH1d"/><path d="M675.361,324L680.91,317.833C686.46,311.667,697.56,299.333,703.11,280C708.659,260.667,708.659,234.333,708.659,208C708.659,181.667,708.659,155.333,678.873,132.679C649.087,110.024,589.515,91.047,559.729,81.559L529.944,72.071" id="ModelSystem-cyclic-special-2" class="edge-thickness-normal edge-pattern-solid relation" style=";;;" data-edge="true" data-et="edge" data-id="ModelSystem-cyclic-special-2" data-points="W3sieCI6Njc1LjM2MDYyMzMxNDUwNTEsInkiOjMyNH0seyJ4Ijo3MDguNjU5Mzc1MDAwNzQ1MSwieSI6Mjg3fSx7IngiOjcwOC42NTkzNzUwMDA3NDUxLCJ5IjoyMDh9LHsieCI6NzA4LjY1OTM3NTAwMDc0NTEsInkiOjEyOX0seyJ4Ijo1MjQuMjI2NTYyNSwieSI6NzAuMjQ5OTY1MzQ4MTU4MDd9XQ==" marker-end="url(#my-svg_class-dependencyEnd)"/><path d="M417.817,92L411.527,98.167C405.238,104.333,392.658,116.667,386.368,128C380.078,139.333,380.078,149.667,380.078,154.833L380.078,160" id="id_ModelSystem_ParticleState_4" class="edge-thickness-normal edge-pattern-solid relation" style=";;;" data-edge="true" data-et="edge" data-id="id_ModelSystem_ParticleState_4" data-points="W3sieCI6NDE3LjgxNzI0NjgzNTQ0MzAzLCJ5Ijo5Mn0seyJ4IjozODAuMDc4MTI1LCJ5IjoxMjl9LHsieCI6MzgwLjA3ODEyNSwieSI6MTY2fV0=" marker-end="url(#my-svg_class-dependencyEnd)"/><path d="M503.495,92L509.785,98.167C516.075,104.333,528.655,116.667,534.945,128C541.234,139.333,541.234,149.667,541.234,154.833L541.234,160" id="id_ModelSystem_Symmetry_5" class="edge-thickness-normal edge-pattern-solid relation" style=";;;" data-edge="true" data-et="edge" data-id="id_ModelSystem_Symmetry_5" data-points="W3sieCI6NTAzLjQ5NTI1MzE2NDU1Njk3LCJ5Ijo5Mn0seyJ4Ijo1NDEuMjM0Mzc1LCJ5IjoxMjl9LHsieCI6NTQxLjIzNDM3NSwieSI6MTY2fV0=" marker-end="url(#my-svg_class-dependencyEnd)"/></g><g class="edgeLabels"><g class="edgeLabel" transform="translate(34.671875, 129)"><g class="label" data-id="id_ModelSystem_Cell_1" transform="translate(-12.0078125, -12)"><foreignObject width="24.015625" height="24"><div xmlns="http://www.w3.org/1999/xhtml" class="labelBkg" style="display: table-cell; white-space: nowrap; line-height: 1.5; max-width: 200px; text-align: center;"><span class="edgeLabel"><p>cell</p></span></div></foreignObject></g></g><g class="edgeLabel" transform="translate(190.4765625, 129)"><g class="label" data-id="id_ModelSystem_ChemicalFormula_2" transform="translate(-62.6953125, -12)"><foreignObject width="125.390625" height="24"><div xmlns="http://www.w3.org/1999/xhtml" class="labelBkg" style="display: table-cell; white-space: nowrap; line-height: 1.5; max-width: 200px; text-align: center;"><span class="edgeLabel"><p>chemical_formula</p></span></div></foreignObject></g></g><g class="edgeLabel"><g class="label" data-id="ModelSystem-cyclic-special-1" transform="translate(0, 0)"><foreignObject width="0" height="0"><div xmlns="http://www.w3.org/1999/xhtml" class="labelBkg" style="display: table-cell; white-space: nowrap; line-height: 1.5; max-width: 200px; text-align: center;"><span class="edgeLabel"></span></div></foreignObject></g></g><g class="edgeLabel" transform="translate(641.9718750007451, 287)"><g class="label" data-id="ModelSystem-cyclic-special-mid" transform="translate(-46.6875, -12)"><foreignObject width="93.375" height="24"><div xmlns="http://www.w3.org/1999/xhtml" class="labelBkg" style="display: table-cell; white-space: nowrap; line-height: 1.5; max-width: 200px; text-align: center;"><span class="edgeLabel"><p>sub_systems</p></span></div></foreignObject></g></g><g class="edgeLabel"><g class="label" data-id="ModelSystem-cyclic-special-2" transform="translate(0, 0)"><foreignObject width="0" height="0"><div xmlns="http://www.w3.org/1999/xhtml" class="labelBkg" style="display: table-cell; white-space: nowrap; line-height: 1.5; max-width: 200px; text-align: center;"><span class="edgeLabel"></span></div></foreignObject></g></g><g class="edgeLabel" transform="translate(380.078125, 129)"><g class="label" data-id="id_ModelSystem_ParticleState_4" transform="translate(-51.5859375, -12)"><foreignObject width="103.171875" height="24"><div xmlns="http://www.w3.org/1999/xhtml" class="labelBkg" style="display: table-cell; white-space: nowrap; line-height: 1.5; max-width: 200px; text-align: center;"><span class="edgeLabel"><p>particle_states</p></span></div></foreignObject></g></g><g class="edgeLabel" transform="translate(541.234375, 129)"><g class="label" data-id="id_ModelSystem_Symmetry_5" transform="translate(-34.6640625, -12)"><foreignObject width="69.328125" height="24"><div xmlns="http://www.w3.org/1999/xhtml" class="labelBkg" style="display: table-cell; white-space: nowrap; line-height: 1.5; max-width: 200px; text-align: center;"><span class="edgeLabel"><p>symmetry</p></span></div></foreignObject></g></g></g><g class="nodes"><g class="node default" id="classId-Cell-0" transform="translate(34.671875, 208)"><g class="basic label-container"><path d="M-26.671875 -42 L26.671875 -42 L26.671875 42 L-26.671875 42" stroke="none" stroke-width="0" fill="#ECECFF" style=""/><path d="M-26.671875 -42 C-12.596634607843459 -42, 1.478605784313082 -42, 26.671875 -42 M-26.671875 -42 C-9.441987514398537 -42, 7.7878999712029255 -42, 26.671875 -42 M26.671875 -42 C26.671875 -24.9835083639441, 26.671875 -7.9670167278882005, 26.671875 42 M26.671875 -42 C26.671875 -20.736105971278064, 26.671875 0.5277880574438711, 26.671875 42 M26.671875 42 C11.90849739899129 42, -2.8548802020174193 42, -26.671875 42 M26.671875 42 C11.023391338709443 42, -4.625092322581114 42, -26.671875 42 M-26.671875 42 C-26.671875 20.294439850221668, -26.671875 -1.4111202995566643, -26.671875 -42 M-26.671875 42 C-26.671875 9.094954412303629, -26.671875 -23.810091175392742, -26.671875 -42" stroke="#9370DB" stroke-width="1.3" fill="none" stroke-dasharray="0 0" style=""/></g><g class="annotation-group text" transform="translate(0, -18)"/><g class="label-group text" transform="translate(-14.671875, -18)"><g class="label" style="font-weight: bolder" transform="translate(0,-12)"><foreignObject width="29.34375" height="24"><div xmlns="http://www.w3.org/1999/xhtml" style="display: table-cell; white-space: nowrap; line-height: 1.5; max-width: 77px; text-align: center;"><span class="nodeLabel markdown-node-label" style=""><p>Cell</p></span></div></foreignObject></g></g><g class="members-group text" transform="translate(-14.671875, 30)"/><g class="methods-group text" transform="translate(-14.671875, 60)"/><g class="divider" style=""><path d="M-26.671875 6 C-5.949748241995341 6, 14.772378516009319 6, 26.671875 6 M-26.671875 6 C-5.3535195635768105 6, 15.964835872846379 6, 26.671875 6" stroke="#9370DB" stroke-width="1.3" fill="none" stroke-dasharray="0 0" style=""/></g></g><g class="node default" id="classId-ChemicalFormula-1" transform="translate(190.4765625, 208)"><g class="basic label-container"><path d="M-79.1328125 -42 L79.1328125 -42 L79.1328125 42 L-79.1328125 42" stroke="none" stroke-width="0" fill="#ECECFF" style=""/><path d="M-79.1328125 -42 C-25.46170365312951 -42, 28.209405193740977 -42, 79.1328125 -42 M-79.1328125 -42 C-39.76822674180312 -42, -0.40364098360623757 -42, 79.1328125 -42 M79.1328125 -42 C79.1328125 -14.96691680968594, 79.1328125 12.066166380628118, 79.1328125 42 M79.1328125 -42 C79.1328125 -10.614446921276297, 79.1328125 20.771106157447406, 79.1328125 42 M79.1328125 42 C20.889490230096378 42, -37.353832039807244 42, -79.1328125 42 M79.1328125 42 C41.82087130358424 42, 4.5089301071684815 42, -79.1328125 42 M-79.1328125 42 C-79.1328125 10.305473940924422, -79.1328125 -21.389052118151156, -79.1328125 -42 M-79.1328125 42 C-79.1328125 12.591165788836292, -79.1328125 -16.817668422327415, -79.1328125 -42" stroke="#9370DB" stroke-width="1.3" fill="none" stroke-dasharray="0 0" style=""/></g><g class="annotation-group text" transform="translate(0, -18)"/><g class="label-group text" transform="translate(-67.1328125, -18)"><g class="label" style="font-weight: bolder" transform="translate(0,-12)"><foreignObject width="134.265625" height="24"><div xmlns="http://www.w3.org/1999/xhtml" style="display: table-cell; white-space: nowrap; line-height: 1.5; max-width: 166px; text-align: center;"><span class="nodeLabel markdown-node-label" style=""><p>ChemicalFormula</p></span></div></foreignObject></g></g><g class="members-group text" transform="translate(-67.1328125, 30)"/><g class="methods-group text" transform="translate(-67.1328125, 60)"/><g class="divider" style=""><path d="M-79.1328125 6 C-28.77774516536042 6, 21.577322169279157 6, 79.1328125 6 M-79.1328125 6 C-31.921134511974103 6, 15.290543476051795 6, 79.1328125 6" stroke="#9370DB" stroke-width="1.3" fill="none" stroke-dasharray="0 0" style=""/></g></g><g class="node default" id="classId-ModelSystem-2" transform="translate(460.65625, 50)"><g class="basic label-container"><path d="M-63.5703125 -42 L63.5703125 -42 L63.5703125 42 L-63.5703125 42" stroke="none" stroke-width="0" fill="#ECECFF" style=""/><path d="M-63.5703125 -42 C-17.54889050067372 -42, 28.472531498652558 -42, 63.5703125 -42 M-63.5703125 -42 C-27.153578377949074 -42, 9.263155744101851 -42, 63.5703125 -42 M63.5703125 -42 C63.5703125 -20.514711431409424, 63.5703125 0.9705771371811522, 63.5703125 42 M63.5703125 -42 C63.5703125 -18.701320481893855, 63.5703125 4.597359036212289, 63.5703125 42 M63.5703125 42 C23.439707495142734 42, -16.69089750971453 42, -63.5703125 42 M63.5703125 42 C31.82332560226038 42, 0.07633870452075797 42, -63.5703125 42 M-63.5703125 42 C-63.5703125 19.47718092241918, -63.5703125 -3.0456381551616403, -63.5703125 -42 M-63.5703125 42 C-63.5703125 9.284543091965475, -63.5703125 -23.43091381606905, -63.5703125 -42" stroke="#9370DB" stroke-width="1.3" fill="none" stroke-dasharray="0 0" style=""/></g><g class="annotation-group text" transform="translate(0, -18)"/><g class="label-group text" transform="translate(-51.5703125, -18)"><g class="label" style="font-weight: bolder" transform="translate(0,-12)"><foreignObject width="103.140625" height="24"><div xmlns="http://www.w3.org/1999/xhtml" style="display: table-cell; white-space: nowrap; line-height: 1.5; max-width: 139px; text-align: center;"><span class="nodeLabel markdown-node-label" style=""><p>ModelSystem</p></span></div></foreignObject></g></g><g class="members-group text" transform="translate(-51.5703125, 30)"/><g class="methods-group text" transform="translate(-51.5703125, 60)"/><g class="divider" style=""><path d="M-63.5703125 6 C-24.777741708753474 6, 14.014829082493051 6, 63.5703125 6 M-63.5703125 6 C-15.032426381122093 6, 33.505459737755814 6, 63.5703125 6" stroke="#9370DB" stroke-width="1.3" fill="none" stroke-dasharray="0 0" style=""/></g></g><g class="node default" id="classId-ParticleState-3" transform="translate(380.078125, 208)"><g class="basic label-container"><path d="M-60.46875 -42 L60.46875 -42 L60.46875 42 L-60.46875 42" stroke="none" stroke-width="0" fill="#ECECFF" style=""/><path d="M-60.46875 -42 C-21.884717252963952 -42, 16.699315494072096 -42, 60.46875 -42 M-60.46875 -42 C-27.307775718379425 -42, 5.8531985632411505 -42, 60.46875 -42 M60.46875 -42 C60.46875 -14.104827447660778, 60.46875 13.790345104678444, 60.46875 42 M60.46875 -42 C60.46875 -12.180034353129376, 60.46875 17.63993129374125, 60.46875 42 M60.46875 42 C35.994743289996734 42, 11.520736579993468 42, -60.46875 42 M60.46875 42 C34.86182527694851 42, 9.254900553897023 42, -60.46875 42 M-60.46875 42 C-60.46875 11.4698135059285, -60.46875 -19.060372988143, -60.46875 -42 M-60.46875 42 C-60.46875 16.782887228299867, -60.46875 -8.434225543400267, -60.46875 -42" stroke="#9370DB" stroke-width="1.3" fill="none" stroke-dasharray="0 0" style=""/></g><g class="annotation-group text" transform="translate(0, -18)"/><g class="label-group text" transform="translate(-48.46875, -18)"><g class="label" style="font-weight: bolder" transform="translate(0,-12)"><foreignObject width="96.9375" height="24"><div xmlns="http://www.w3.org/1999/xhtml" style="display: table-cell; white-space: nowrap; line-height: 1.5; max-width: 131px; text-align: center;"><span class="nodeLabel markdown-node-label" style=""><p>ParticleState</p></span></div></foreignObject></g></g><g class="members-group text" transform="translate(-48.46875, 30)"/><g class="methods-group text" transform="translate(-48.46875, 60)"/><g class="divider" style=""><path d="M-60.46875 6 C-16.760785927637706 6, 26.94717814472459 6, 60.46875 6 M-60.46875 6 C-29.99240566167 6, 0.4839386766600029 6, 60.46875 6" stroke="#9370DB" stroke-width="1.3" fill="none" stroke-dasharray="0 0" style=""/></g></g><g class="node default" id="classId-Symmetry-4" transform="translate(541.234375, 208)"><g class="basic label-container"><path d="M-50.6875 -42 L50.6875 -42 L50.6875 42 L-50.6875 42" stroke="none" stroke-width="0" fill="#ECECFF" style=""/><path d="M-50.6875 -42 C-24.356334626360436 -42, 1.9748307472791282 -42, 50.6875 -42 M-50.6875 -42 C-19.505446267484924 -42, 11.676607465030152 -42, 50.6875 -42 M50.6875 -42 C50.6875 -11.250192885152806, 50.6875 19.499614229694387, 50.6875 42 M50.6875 -42 C50.6875 -20.142209087982522, 50.6875 1.715581824034956, 50.6875 42 M50.6875 42 C11.177999392311555 42, -28.33150121537689 42, -50.6875 42 M50.6875 42 C21.07504696715496 42, -8.537406065690078 42, -50.6875 42 M-50.6875 42 C-50.6875 9.232846518340082, -50.6875 -23.534306963319835, -50.6875 -42 M-50.6875 42 C-50.6875 10.580779995453657, -50.6875 -20.838440009092686, -50.6875 -42" stroke="#9370DB" stroke-width="1.3" fill="none" stroke-dasharray="0 0" style=""/></g><g class="annotation-group text" transform="translate(0, -18)"/><g class="label-group text" transform="translate(-38.6875, -18)"><g class="label" style="font-weight: bolder" transform="translate(0,-12)"><foreignObject width="77.375" height="24"><div xmlns="http://www.w3.org/1999/xhtml" style="display: table-cell; white-space: nowrap; line-height: 1.5; max-width: 117px; text-align: center;"><span class="nodeLabel markdown-node-label" style=""><p>Symmetry</p></span></div></foreignObject></g></g><g class="members-group text" transform="translate(-38.6875, 30)"/><g class="methods-group text" transform="translate(-38.6875, 60)"/><g class="divider" style=""><path d="M-50.6875 6 C-14.972712666982403 6, 20.742074666035194 6, 50.6875 6 M-50.6875 6 C-17.670156435536462 6, 15.347187128927075 6, 50.6875 6" stroke="#9370DB" stroke-width="1.3" fill="none" stroke-dasharray="0 0" style=""/></g></g><g class="label edgeLabel" id="ModelSystem---ModelSystem---1" transform="translate(641.9718750007451, 208)"><rect width="0.1" height="0.1"/><g class="label" style="" transform="translate(0, 0)"><rect/><foreignObject width="0" height="0"><div xmlns="http://www.w3.org/1999/xhtml" style="display: table-cell; white-space: nowrap; line-height: 1.5; max-width: 10px; text-align: center;"><span class="nodeLabel"></span></div></foreignObject></g></g><g class="label edgeLabel" id="ModelSystem---ModelSystem---2" transform="translate(675.3156250007451, 324.05000000074506)"><rect width="0.1" height="0.1"/><g class="label" style="" transform="translate(0, 0)"><rect/><foreignObject width="0" height="0"><div xmlns="http://www.w3.org/1999/xhtml" style="display: table-cell; white-space: nowrap; line-height: 1.5; max-width: 10px; text-align: center;"><span class="nodeLabel"></span></div></foreignObject></g></g></g></g></g></svg>