<?xml version="1.0" encoding="UTF-8"?>
<svg id="my-svg" width="100%" xmlns="http://www.w3.org/2000/svg" xmlns:xlink="http://www.w3.org/1999/xlink" class="classDiagram" style="max-width: 716.659px; background-color: white;" viewBox="0 0 716.6589965820312 308.1499938964844" role="graphics-document document" aria-roledescription="class"><style>#my-svg{font-family:"trebuchet ms",verdana,arial,sans-serif;font-size:16px;fill:#333;}@keyframes edge-animation-frame{from{stroke-dashoffset:0;}}@keyframes dash{to{stroke-dashoffset:0;}}#my-svg .edge-animation-slow{stroke-dasharray:9,5!important;stroke-dashoffset:900;animation:dash 50s linear infinite;stroke-linecap:round;}#my-svg .edge-animation-fast{stroke-dasharray:9,5!important;stroke-dashoffset:900;animation:dash 20s linear infinite;stroke-linecap:round;}#my-svg .error-icon{fill:#552222;}#my-svg .error-text{fill:#552222;stroke:#552222;}#my-svg .edge-thickness-normal{stroke-width:1px;}#my-svg .edge-thickness-thick{stroke-width:3.5px;}#my-svg .edge-pattern-solid{stroke-dasharray:0;}#my-svg .edge-thickness-invisible{stroke-width:0;fill:none;}#my-svg .edge-pattern-dashed{stroke-dasharray:3;}#my-svg .edge-pattern-dotted{stroke-dasharray:2;}#my-svg .marker{fill:#333333;stroke:#333333;}#my-svg .marker.cross{stroke:#333333;}#my-svg svg{font-family:"trebuchet ms",verdana,arial,sans-serif;font-size:16px;}#my-svg p{margin:0;}#my-svg g.classGroup text{fill:#9370DB;stroke:none;font-family:"trebuchet ms",verdana,arial,sans-serif;font-size:10px;}#my-svg g.classGroup text .title{font-weight:bolder;}#my-svg .nodeLabel,#my-svg .edgeLabel{color:#131300;}#my-svg .edgeLabel .label rect{fill:#ECECFF;}#my-svg .label text{fill:#131300;}#my-svg .labelBkg{background:#ECECFF;}#my-svg .edgeLabel .label span{background:#ECECFF;}#my-svg .classTitle{font-weight:bolder;}#my-svg .node rect,#my-svg .node circle,#my-svg .node ellipse,#my-svg .node polygon,#my-svg .node path{fill:#ECECFF;stroke:#9370DB;stroke-width:1px;}#my-svg .divider{stroke:#9370DB;stroke-width:1;}#my-svg g.clickable{cursor:pointer;}#my-svg g.classGroup rect{fill:#ECECFF;stroke:#9370DB;}#my-svg g.classGroup line{stroke:#9370DB;stroke-width:1;}#my-svg .classLabel .box{stroke:none;stroke-width:0;fill:#ECECFF;opacity:0.5;}#my-svg .classLabel .label{fill:#9370DB;font-size:10px;}#my-svg .relation{stroke:#333333;stroke-width:1;fill:none;}#my-svg .dashed-line{stroke-dasharray:3;}#my-svg .dotted-line{stroke-dasharray:1 2;}#my-svg #compositionStart,#my-svg .composition{fill:#333333!important;stroke:#333333!important;stroke-width:1;}#my-svg #compositionEnd,#my-svg .composition{fill:#333333!important;stroke:#333333!important;stroke-width:1;}#my-svg #dependencyStart,#my-svg .dependency{fill:#333333!important;stroke:#333333!important;stroke-width:1;}#my-svg #dependencyStart,#my-svg .dependency{fill:#333333!important;stroke:#333333!important;stroke-width:1;}#my-svg #extensionStart,#my-svg .extension{fill:transparent!important;stroke:#333333!important;stroke-width:1;}#my-svg #extensionEnd,#my-svg .extension{fill:transparent!important;stroke:#333333!important;stroke-width:1;}#my-svg #aggregationStart,#my-svg .aggregation{fill:transparent!important;stroke:#333333!important;stroke-width:1;}#my-svg #aggregationEnd,#my-svg .aggregation{fill:transparent!important;stroke:#333333!important;stroke-width:1;}#my-svg #lollipopStart,#my-svg .lollipop{fill:#ECECFF!important;stroke:#333333!important;stroke-width:1;}#my-svg #lollipopEnd,#my-svg .lollipop{fill:#ECECFF!important;stroke:#333333!important;stroke-width:1;}#my-svg .edgeTerminals{font-size:11px;line-height:initial;}#my-svg .classTitleText{text-anchor:middle;font-size:18px;fill:#333;}#my-svg .label-icon{display:inline-block;height:1em;overflow:visible;vertical-align:-0.125em;}#my-svg .node .label-icon path{fill:currentColor;stroke:revert;stroke-width:revert;}#my-svg :root{--mermaid-font-family:"trebuchet ms",verdana,arial,sans-serif;}</style><g><defs><marker id="my-svg_class-aggregationStart" class="marker aggregation class" refX="18" refY="7" markerWidth="190" markerHeight="240" orient="auto"><path d="M 18,7 L9,13 L1,7 L9,1 Z"/></marker></defs><defs><marker id="my-svg_class-aggregationEnd" class="marker aggregation class" refX="1" refY="7" markerWidth="20" markerHeight="28" orient="auto"><path d="M 18,7 L9,13 L1,7 L9,1 Z"/></marker></defs><defs><marker id="my-svg_class-extensionStart" class="marker extension class" refX="18" refY="7" markerWidth="190" markerHeight="240" orient="auto"><path d="M 1,7 L18,13 V 1 Z"/></marker></defs><defs><marker id="my-svg_class-extensionEnd" class="marker extension class" refX="1" refY="7" markerWidth="20" markerHeight="28" orient="auto"><path d="M 1,1 V 13 L18,7 Z"/></marker></defs><defs><marker id="my-svg_class-compositionStart" class="marker composition class" refX="18" refY="7" markerWidth="190" markerHeight="240" orient="auto"><path d="M 18,7 L9,13 L1,7 L9,1 Z"/></marker></defs><defs><marker id="my-svg_class-compositionEnd" class="marker composition class" refX="1" refY="7" markerWidth="20" markerHeight="28" orient="auto"><path d="M 18,7 L9,13 L1,7 L9,1 Z"/></marker></defs><defs><marker id="my-svg_class-dependencyStart" class="marker dependency class" refX="6" refY="7" markerWidth="190" markerHeight="240" orient="auto"><path d="M 5,7 L9,13 L1,7 L9,1 Z"/></marker></defs><defs><marker id="my-svg_class-dependencyEnd" class="marker dependency class" refX="13" refY="7" markerWidth="20" markerHeight="28" orient="auto"><path d="M 18,7 L9,13 L14,7 L9,1 Z"/></marker></defs><defs><marker id="my-svg_class-lollipopStart" class="marker lollipop class" refX="13" refY="7" markerWidth="190" markerHeight="240" orient="auto"><circle stroke="black" fill="transparent" cx="7" cy="7" r="6"/></marker></defs><defs><marker id="my-svg_class-lollipopEnd" class="marker lollipop class" refX="1" refY="7" markerWidth="190" markerHeight="240" orient="auto"><circle stroke="black" fill="transparent" cx="7" cy="7" r="6"/></marker></defs><g class="root"><g class="clusters"/><g class="edgePaths"><path d="M397.086,59.999L336.684,69.499C276.281,78.999,155.477,98,95.074,110.666C34.672,123.333,34.672,129.667,34.672,132.833L34.672,136" id="id_ModelSystem_Cell_1" class="edge-thickness-normal edge-pattern-solid relation" style=";;;" data-edge="true" data-et="edge" data-id="id_ModelSystem_Cell_1" data-points="W3sieCI6Mzk3LjA4NTkzNzUsInkiOjU5Ljk5ODUxNDQ3MDE2MTAzfSx7IngiOjM0LjY3MTg3NSwieSI6MTE3fSx7IngiOjM0LjY3MTg3NSwieSI6MTQyfV0=" marker-end="url(#my-svg_class-dependencyEnd)"/><path d="M397.086,65.764L362.651,74.304C328.216,82.843,259.346,99.921,224.911,111.627C190.477,123.333,190.477,129.667,190.477,132.833L190.477,136" id="id_ModelSystem_ChemicalFormula_2" class="edge-thickness-normal edge-pattern-solid relation" style=";;;" data-edge="true" data-et="edge" data-id="id_ModelSystem_ChemicalFormula_2" data-points="W3sieCI6Mzk3LjA4NTkzNzUsInkiOjY1Ljc2NDM2Mzk5Mzg2OTgyfSx7IngiOjE5MC40NzY1NjI1LCJ5IjoxMTd9LHsieCI6MTkwLjQ3NjU2MjUsInkiOjE0Mn1d" marker-end="url(#my-svg_class-dependencyEnd)"/><path d="M524.227,73.491L543.851,80.742C563.475,87.994,602.723,102.497,622.348,120.907C641.972,139.317,641.972,161.633,641.972,172.792L641.972,183.95" id="ModelSystem-cyclic-special-1" class="edge-thickness-normal edge-pattern-solid relation" style=";;;" data-edge="true" data-et="edge" data-id="ModelSystem-cyclic-special-1" data-points="W3sieCI6NTI0LjIyNjU2MjUsInkiOjczLjQ5MDU4OTYxNDAwODcxfSx7IngiOjY0MS45NzE4NzUwMDA3NDUxLCJ5IjoxMTd9LHsieCI6NjQxLjk3MTg3NTAwMDc0NTEsInkiOjE4My45NDk5OTk5OTkyNTQ5NH1d"/><path d="M641.972,184.05L641.972,197.208C641.972,210.367,641.972,236.683,647.522,256.008C653.071,275.333,664.171,287.667,669.721,293.833L675.271,300" id="ModelSystem-cyclic-special-mid" class="edge-thickness-normal edge-pattern-solid relation" style=";;;" data-edge="true" data-et="edge" data-id="ModelSystem-cyclic-special-mid" data-points="W3sieCI6NjQxLjk3MTg3NTAwMDc0NTEsInkiOjE4NC4wNTAwMDAwMDA3NDUwNn0seyJ4Ijo2NDEuOTcxODc1MDAwNzQ1MSwieSI6MjYzfSx7IngiOjY3NS4yNzA2MjY2ODY5ODUsInkiOjMwMH1d"/><path d="M675.361,300L680.91,293.833C686.46,287.667,697.56,275.333,703.11,256C708.659,236.667,708.659,210.333,708.659,186C708.659,161.667,708.659,139.333,678.886,120.123C649.113,100.913,589.566,84.826,559.792,76.782L530.019,68.739" id="ModelSystem-cyclic-special-2" class="edge-thickness-normal edge-pattern-solid relation" style=";;;" data-edge="true" data-et="edge" data-id="ModelSystem-cyclic-special-2" data-points="W3sieCI6Njc1LjM2MDYyMzMxNDUwNTEsInkiOjMwMH0seyJ4Ijo3MDguNjU5Mzc1MDAwNzQ1MSwieSI6MjYzfSx7IngiOjcwOC42NTkzNzUwMDA3NDUxLCJ5IjoxODR9LHsieCI6NzA4LjY1OTM3NTAwMDc0NTEsInkiOjExN30seyJ4Ijo1MjQuMjI2NTYyNSwieSI6NjcuMTc0MDIxMjQ0NjQwMzl9XQ==" marker-end="url(#my-svg_class-dependencyEnd)"/><path d="M410.145,92L405.134,96.167C400.122,100.333,390.1,108.667,385.089,116C380.078,123.333,380.078,129.667,380.078,132.833L380.078,136" id="id_ModelSystem_ParticleState_4" class="edge-thickness-normal edge-pattern-solid relation" style=";;;" data-edge="true" data-et="edge" data-id="id_ModelSystem_ParticleState_4" data-points="W3sieCI6NDEwLjE0NDU4OTU1MjIzODgsInkiOjkyfSx7IngiOjM4MC4wNzgxMjUsInkiOjExN30seyJ4IjozODAuMDc4MTI1LCJ5IjoxNDJ9XQ==" marker-end="url(#my-svg_class-dependencyEnd)"/><path d="M511.168,92L516.179,96.167C521.19,100.333,531.212,108.667,536.223,116C541.234,123.333,541.234,129.667,541.234,132.833L541.234,136" id="id_ModelSystem_Symmetry_5" class="edge-thickness-normal edge-pattern-solid relation" style=";;;" data-edge="true" data-et="edge" data-id="id_ModelSystem_Symmetry_5" data-points="W3sieCI6NTExLjE2NzkxMDQ0Nzc2MTIsInkiOjkyfSx7IngiOjU0MS4yMzQzNzUsInkiOjExN30seyJ4Ijo1NDEuMjM0Mzc1LCJ5IjoxNDJ9XQ==" marker-end="url(#my-svg_class-dependencyEnd)"/></g><g class="edgeLabels"><g class="edgeLabel"><g class="label" data-id="id_ModelSystem_Cell_1" transform="translate(0, 0)"><foreignObject width="0" height="0"><div xmlns="http://www.w3.org/1999/xhtml" class="labelBkg" style="display: table-cell; white-space: nowrap; line-height: 1.5; max-width: 200px; text-align: center;"><span class="edgeLabel"></span></div></foreignObject></g></g><g class="edgeLabel"><g class="label" data-id="id_ModelSystem_ChemicalFormula_2" transform="translate(0, 0)"><foreignObject width="0" height="0"><div xmlns="http://www.w3.org/1999/xhtml" class="labelBkg" style="display: table-cell; white-space: nowrap; line-height: 1.5; max-width: 200px; text-align: center;"><span class="edgeLabel"></span></div></foreignObject></g></g><g class="edgeLabel"><g class="label" data-id="ModelSystem-cyclic-special-1" transform="translate(0, 0)"><foreignObject width="0" height="0"><div xmlns="http://www.w3.org/1999/xhtml" class="labelBkg" style="display: table-cell; white-space: nowrap; line-height: 1.5; max-width: 200px; text-align: center;"><span class="edgeLabel"></span></div></foreignObject></g></g><g class="edgeLabel" transform="translate(641.9718750007451, 263)"><g class="label" data-id="ModelSystem-cyclic-special-mid" transform="translate(-46.6875, -12)"><foreignObject width="93.375" height="24"><div xmlns="http://www.w3.org/1999/xhtml" class="labelBkg" style="display: table-cell; white-space: nowrap; line-height: 1.5; max-width: 200px; text-align: center;"><span class="edgeLabel"><p>sub_systems</p></span></div></foreignObject></g></g><g class="edgeLabel"><g class="label" data-id="ModelSystem-cyclic-special-2" transform="translate(0, 0)"><foreignObject width="0" height="0"><div xmlns="http://www.w3.org/1999/xhtml" class="labelBkg" style="display: table-cell; white-space: nowrap; line-height: 1.5; max-width: 200px; text-align: center;"><span class="edgeLabel"></span></div></foreignObject></g></g><g class="edgeLabel"><g class="label" data-id="id_ModelSystem_ParticleState_4" transform="translate(0, 0)"><foreignObject width="0" height="0"><div xmlns="http://www.w3.org/1999/xhtml" class="labelBkg" style="display: table-cell; white-space: nowrap; line-height: 1.5; max-width: 200px; text-align: center;"><span class="edgeLabel"></span></div></foreignObject></g></g><g class="edgeLabel"><g class="label" data-id="id_ModelSystem_Symmetry_5" transform="translate(0, 0)"><foreignObject width="0" height="0"><div xmlns="http://www.w3.org/1999/xhtml" class="labelBkg" style="display: table-cell; white-space: nowrap; line-height: 1.5; max-width: 200px; text-align: center;"><span class="edgeLabel"></span></div></foreignObject></g></g></g><g class="nodes"><g class="node default" id="classId-Cell-0" transform="translate(34.671875, 184)"><g class="basic label-container"><path d="M-26.671875 -42 L26.671875 -42 L26.671875 42 L-26.671875 42" stroke="none" stroke-width="0" fill="#ECECFF" style=""/><path d="M-26.671875 -42 C-8.348897754045083 -42, 9.974079491909833 -42, 26.671875 -42 M-26.671875 -42 C-9.106565232537498 -42, 8.458744534925003 -42, 26.671875 -42 M26.671875 -42 C26.671875 -20.890108412274905, 26.671875 0.2197831754501891, 26.671875 42 M26.671875 -42 C26.671875 -8.98523070425329, 26.671875 24.02953859149342, 26.671875 42 M26.671875 42 C13.419373366206546 42, 0.1668717324130924 42, -26.671875 42 M26.671875 42 C10.241289469486887 42, -6.189296061026226 42, -26.671875 42 M-26.671875 42 C-26.671875 22.0748437301619, -26.671875 2.149687460323797, -26.671875 -42 M-26.671875 42 C-26.671875 18.17499725148369, -26.671875 -5.650005497032623, -26.671875 -42" stroke="#9370DB" stroke-width="1.3" fill="none" stroke-dasharray="0 0" style=""/></g><g class="annotation-group text" transform="translate(0, -18)"/><g class="label-group text" transform="translate(-14.671875, -18)"><g class="label" style="font-weight: bolder" transform="translate(0,-12)"><foreignObject width="29.34375" height="24"><div xmlns="http://www.w3.org/1999/xhtml" style="display: table-cell; white-space: nowrap; line-height: 1.5; max-width: 77px; text-align: center;"><span class="nodeLabel markdown-node-label" style=""><p>Cell</p></span></div></foreignObject></g></g><g class="members-group text" transform="translate(-14.671875, 30)"/><g class="methods-group text" transform="translate(-14.671875, 60)"/><g class="divider" style=""><path d="M-26.671875 6 C-8.533177536780606 6, 9.605519926438788 6, 26.671875 6 M-26.671875 6 C-9.528588746374872 6, 7.614697507250256 6, 26.671875 6" stroke="#9370DB" stroke-width="1.3" fill="none" stroke-dasharray="0 0" style=""/></g></g><g class="node default" id="classId-ChemicalFormula-1" transform="translate(190.4765625, 184)"><g class="basic label-container"><path d="M-79.1328125 -42 L79.1328125 -42 L79.1328125 42 L-79.1328125 42" stroke="none" stroke-width="0" fill="#ECECFF" style=""/><path d="M-79.1328125 -42 C-46.96423092316309 -42, -14.795649346326186 -42, 79.1328125 -42 M-79.1328125 -42 C-26.80198353870186 -42, 25.528845422596277 -42, 79.1328125 -42 M79.1328125 -42 C79.1328125 -18.184748697116508, 79.1328125 5.630502605766985, 79.1328125 42 M79.1328125 -42 C79.1328125 -12.584027302393956, 79.1328125 16.831945395212088, 79.1328125 42 M79.1328125 42 C27.902858064566693 42, -23.327096370866613 42, -79.1328125 42 M79.1328125 42 C15.990955333299354 42, -47.15090183340129 42, -79.1328125 42 M-79.1328125 42 C-79.1328125 9.246723883470537, -79.1328125 -23.506552233058926, -79.1328125 -42 M-79.1328125 42 C-79.1328125 17.514460688560924, -79.1328125 -6.971078622878153, -79.1328125 -42" stroke="#9370DB" stroke-width="1.3" fill="none" stroke-dasharray="0 0" style=""/></g><g class="annotation-group text" transform="translate(0, -18)"/><g class="label-group text" transform="translate(-67.1328125, -18)"><g class="label" style="font-weight: bolder" transform="translate(0,-12)"><foreignObject width="134.265625" height="24"><div xmlns="http://www.w3.org/1999/xhtml" style="display: table-cell; white-space: nowrap; line-height: 1.5; max-width: 166px; text-align: center;"><span class="nodeLabel markdown-node-label" style=""><p>ChemicalFormula</p></span></div></foreignObject></g></g><g class="members-group text" transform="translate(-67.1328125, 30)"/><g class="methods-group text" transform="translate(-67.1328125, 60)"/><g class="divider" style=""><path d="M-79.1328125 6 C-31.19110293036799 6, 16.75060663926402 6, 79.1328125 6 M-79.1328125 6 C-31.294112609921456 6, 16.54458728015709 6, 79.1328125 6" stroke="#9370DB" stroke-width="1.3" fill="none" stroke-dasharray="0 0" style=""/></g></g><g class="node default" id="classId-ModelSystem-2" transform="translate(460.65625, 50)"><g class="basic label-container"><path d="M-63.5703125 -42 L63.5703125 -42 L63.5703125 42 L-63.5703125 42" stroke="none" stroke-width="0" fill="#ECECFF" style=""/><path d="M-63.5703125 -42 C-32.76636748523313 -42, -1.962422470466258 -42, 63.5703125 -42 M-63.5703125 -42 C-31.062056676591403 -42, 1.446199146817193 -42, 63.5703125 -42 M63.5703125 -42 C63.5703125 -16.879645328615222, 63.5703125 8.240709342769556, 63.5703125 42 M63.5703125 -42 C63.5703125 -10.08554882438752, 63.5703125 21.82890235122496, 63.5703125 42 M63.5703125 42 C19.188294664359184 42, -25.193723171281633 42, -63.5703125 42 M63.5703125 42 C19.51797320745336 42, -24.534366085093282 42, -63.5703125 42 M-63.5703125 42 C-63.5703125 23.871918221905958, -63.5703125 5.743836443811915, -63.5703125 -42 M-63.5703125 42 C-63.5703125 12.7200422483076, -63.5703125 -16.5599155033848, -63.5703125 -42" stroke="#9370DB" stroke-width="1.3" fill="none" stroke-dasharray="0 0" style=""/></g><g class="annotation-group text" transform="translate(0, -18)"/><g class="label-group text" transform="translate(-51.5703125, -18)"><g class="label" style="font-weight: bolder" transform="translate(0,-12)"><foreignObject width="103.140625" height="24"><div xmlns="http://www.w3.org/1999/xhtml" style="display: table-cell; white-space: nowrap; line-height: 1.5; max-width: 139px; text-align: center;"><span class="nodeLabel markdown-node-label" style=""><p>ModelSystem</p></span></div></foreignObject></g></g><g class="members-group text" transform="translate(-51.5703125, 30)"/><g class="methods-group text" transform="translate(-51.5703125, 60)"/><g class="divider" style=""><path d="M-63.5703125 6 C-29.9075201535747 6, 3.7552721928505974 6, 63.5703125 6 M-63.5703125 6 C-23.92476526937361 6, 15.720781961252783 6, 63.5703125 6" stroke="#9370DB" stroke-width="1.3" fill="none" stroke-dasharray="0 0" style=""/></g></g><g class="node default" id="classId-ParticleState-3" transform="translate(380.078125, 184)"><g class="basic label-container"><path d="M-60.46875 -42 L60.46875 -42 L60.46875 42 L-60.46875 42" stroke="none" stroke-width="0" fill="#ECECFF" style=""/><path d="M-60.46875 -42 C-23.883420989277965 -42, 12.70190802144407 -42, 60.46875 -42 M-60.46875 -42 C-12.729344490344538 -42, 35.010061019310925 -42, 60.46875 -42 M60.46875 -42 C60.46875 -12.45677586262482, 60.46875 17.08644827475036, 60.46875 42 M60.46875 -42 C60.46875 -9.22363865097875, 60.46875 23.5527226980425, 60.46875 42 M60.46875 42 C24.372045799609154 42, -11.724658400781692 42, -60.46875 42 M60.46875 42 C30.026625544569505 42, -0.41549891086098967 42, -60.46875 42 M-60.46875 42 C-60.46875 23.577436465597195, -60.46875 5.15487293119439, -60.46875 -42 M-60.46875 42 C-60.46875 9.609202333731005, -60.46875 -22.78159533253799, -60.46875 -42" stroke="#9370DB" stroke-width="1.3" fill="none" stroke-dasharray="0 0" style=""/></g><g class="annotation-group text" transform="translate(0, -18)"/><g class="label-group text" transform="translate(-48.46875, -18)"><g class="label" style="font-weight: bolder" transform="translate(0,-12)"><foreignObject width="96.9375" height="24"><div xmlns="http://www.w3.org/1999/xhtml" style="display: table-cell; white-space: nowrap; line-height: 1.5; max-width: 131px; text-align: center;"><span class="nodeLabel markdown-node-label" style=""><p>ParticleState</p></span></div></foreignObject></g></g><g class="members-group text" transform="translate(-48.46875, 30)"/><g class="methods-group text" transform="translate(-48.46875, 60)"/><g class="divider" style=""><path d="M-60.46875 6 C-29.635082450617567 6, 1.198585098764866 6, 60.46875 6 M-60.46875 6 C-29.456308549354812 6, 1.5561329012903755 6, 60.46875 6" stroke="#9370DB" stroke-width="1.3" fill="none" stroke-dasharray="0 0" style=""/></g></g><g class="node default" id="classId-Symmetry-4" transform="translate(541.234375, 184)"><g class="basic label-container"><path d="M-50.6875 -42 L50.6875 -42 L50.6875 42 L-50.6875 42" stroke="none" stroke-width="0" fill="#ECECFF" style=""/><path d="M-50.6875 -42 C-28.625767816776378 -42, -6.564035633552756 -42, 50.6875 -42 M-50.6875 -42 C-17.45911017522311 -42, 15.76927964955378 -42, 50.6875 -42 M50.6875 -42 C50.6875 -12.060831343702425, 50.6875 17.87833731259515, 50.6875 42 M50.6875 -42 C50.6875 -23.983420438465803, 50.6875 -5.966840876931606, 50.6875 42 M50.6875 42 C15.258822898946576 42, -20.169854202106848 42, -50.6875 42 M50.6875 42 C23.121259564754286 42, -4.4449808704914275 42, -50.6875 42 M-50.6875 42 C-50.6875 18.523019980686467, -50.6875 -4.953960038627066, -50.6875 -42 M-50.6875 42 C-50.6875 24.722449630038966, -50.6875 7.444899260077932, -50.6875 -42" stroke="#9370DB" stroke-width="1.3" fill="none" stroke-dasharray="0 0" style=""/></g><g class="annotation-group text" transform="translate(0, -18)"/><g class="label-group text" transform="translate(-38.6875, -18)"><g class="label" style="font-weight: bolder" transform="translate(0,-12)"><foreignObject width="77.375" height="24"><div xmlns="http://www.w3.org/1999/xhtml" style="display: table-cell; white-space: nowrap; line-height: 1.5; max-width: 117px; text-align: center;"><span class="nodeLabel markdown-node-label" style=""><p>Symmetry</p></span></div></foreignObject></g></g><g class="members-group text" transform="translate(-38.6875, 30)"/><g class="methods-group text" transform="translate(-38.6875, 60)"/><g class="divider" style=""><path d="M-50.6875 6 C-14.6282069309949 6, 21.4310861380102 6, 50.6875 6 M-50.6875 6 C-28.470771838086772 6, -6.254043676173545 6, 50.6875 6" stroke="#9370DB" stroke-width="1.3" fill="none" stroke-dasharray="0 0" style=""/></g></g><g class="label edgeLabel" id="ModelSystem---ModelSystem---1" transform="translate(641.9718750007451, 184)"><rect width="0.1" height="0.1"/><g class="label" style="" transform="translate(0, 0)"><rect/><foreignObject width="0" height="0"><div xmlns="http://www.w3.org/1999/xhtml" style="display: table-cell; white-space: nowrap; line-height: 1.5; max-width: 10px; text-align: center;"><span class="nodeLabel"></span></div></foreignObject></g></g><g class="label edgeLabel" id="ModelSystem---ModelSystem---2" transform="translate(675.3156250007451, 300.05000000074506)"><rect width="0.1" height="0.1"/><g class="label" style="" transform="translate(0, 0)"><rect/><foreignObject width="0" height="0"><div xmlns="http://www.w3.org/1999/xhtml" style="display: table-cell; white-space: nowrap; line-height: 1.5; max-width: 10px; text-align: center;"><span class="nodeLabel"></span></div></foreignObject></g></g></g></g></g></svg>