<?xml version="1.0" encoding="UTF-8"?>
<svg id="my-svg" width="100%" xmlns="http://www.w3.org/2000/svg" xmlns:xlink="http://www.w3.org/1999/xlink" class="classDiagram" style="max-width: 2623.29px; background-color: white;" viewBox="0 0 2623.28515625 258" role="graphics-document document" aria-roledescription="class"><style>#my-svg{font-family:"trebuchet ms",verdana,arial,sans-serif;font-size:16px;fill:#333;}@keyframes edge-animation-frame{from{stroke-dashoffset:0;}}@keyframes dash{to{stroke-dashoffset:0;}}#my-svg .edge-animation-slow{stroke-dasharray:9,5!important;stroke-dashoffset:900;animation:dash 50s linear infinite;stroke-linecap:round;}#my-svg .edge-animation-fast{stroke-dasharray:9,5!important;stroke-dashoffset:900;animation:dash 20s linear infinite;stroke-linecap:round;}#my-svg .error-icon{fill:#552222;}#my-svg .error-text{fill:#552222;stroke:#552222;}#my-svg .edge-thickness-normal{stroke-width:1px;}#my-svg .edge-thickness-thick{stroke-width:3.5px;}#my-svg .edge-pattern-solid{stroke-dasharray:0;}#my-svg .edge-thickness-invisible{stroke-width:0;fill:none;}#my-svg .edge-pattern-dashed{stroke-dasharray:3;}#my-svg .edge-pattern-dotted{stroke-dasharray:2;}#my-svg .marker{fill:#333333;stroke:#333333;}#my-svg .marker.cross{stroke:#333333;}#my-svg svg{font-family:"trebuchet ms",verdana,arial,sans-serif;font-size:16px;}#my-svg p{margin:0;}#my-svg g.classGroup text{fill:#9370DB;stroke:none;font-family:"trebuchet ms",verdana,arial,sans-serif;font-size:10px;}#my-svg g.classGroup text .title{font-weight:bolder;}#my-svg .nodeLabel,#my-svg .edgeLabel{color:#131300;}#my-svg .edgeLabel .label rect{fill:#ECECFF;}#my-svg .label text{fill:#131300;}#my-svg .labelBkg{background:#ECECFF;}#my-svg .edgeLabel .label span{background:#ECECFF;}#my-svg .classTitle{font-weight:bolder;}#my-svg .node rect,#my-svg .node circle,#my-svg .node ellipse,#my-svg .node polygon,#my-svg .node path{fill:#ECECFF;stroke:#9370DB;stroke-width:1px;}#my-svg .divider{stroke:#9370DB;stroke-width:1;}#my-svg g.clickable{cursor:pointer;}#my-svg g.classGroup rect{fill:#ECECFF;stroke:#9370DB;}#my-svg g.classGroup line{stroke:#9370DB;stroke-width:1;}#my-svg .classLabel .box{stroke:none;stroke-width:0;fill:#ECECFF;opacity:0.5;}#my-svg .classLabel .label{fill:#9370DB;font-size:10px;}#my-svg .relation{stroke:#333333;stroke-width:1;fill:none;}#my-svg .dashed-line{stroke-dasharray:3;}#my-svg .dotted-line{stroke-dasharray:1 2;}#my-svg #compositionStart,#my-svg .composition{fill:#333333!important;stroke:#333333!important;stroke-width:1;}#my-svg #compositionEnd,#my-svg .composition{fill:#333333!important;stroke:#333333!important;stroke-width:1;}#my-svg #dependencyStart,#my-svg .dependency{fill:#333333!important;stroke:#333333!important;stroke-width:1;}#my-svg #dependencyStart,#my-svg .dependency{fill:#333333!important;stroke:#333333!important;stroke-width:1;}#my-svg #extensionStart,#my-svg .extension{fill:transparent!important;stroke:#333333!important;stroke-width:1;}#my-svg #extensionEnd,#my-svg .extension{fill:transparent!important;stroke:#333333!important;stroke-width:1;}#my-svg #aggregationStart,#my-svg .aggregation{fill:transparent!important;stroke:#333333!important;stroke-width:1;}#my-svg #aggregationEnd,#my-svg .aggregation{fill:transparent!important;stroke:#333333!important;stroke-width:1;}#my-svg #lollipopStart,#my-svg .lollipop{fill:#ECECFF!important;stroke:#333333!important;stroke-width:1;}#my-svg #lollipopEnd,#my-svg .lollipop{fill:#ECECFF!important;stroke:#333333!important;stroke-width:1;}#my-svg .edgeTerminals{font-size:11px;line-height:initial;}#my-svg .classTitleText{text-anchor:middle;font-size:18px;fill:#333;}#my-svg .label-icon{display:inline-block;height:1em;overflow:visible;vertical-align:-0.125em;}#my-svg .node .label-icon path{fill:currentColor;stroke:revert;stroke-width:revert;}#my-svg :root{--mermaid-font-family:"trebuchet ms",verdana,arial,sans-serif;}</style><g><defs><marker id="my-svg_class-aggregationStart" class="marker aggregation class" refX="18" refY="7" markerWidth="190" markerHeight="240" orient="auto"><path d="M 18,7 L9,13 L1,7 L9,1 Z"/></marker></defs><defs><marker id="my-svg_class-aggregationEnd" class="marker aggregation class" refX="1" refY="7" markerWidth="20" markerHeight="28" orient="auto"><path d="M 18,7 L9,13 L1,7 L9,1 Z"/></marker></defs><defs><marker id="my-svg_class-extensionStart" class="marker extension class" refX="18" refY="7" markerWidth="190" markerHeight="240" orient="auto"><path d="M 1,7 L18,13 V 1 Z"/></marker></defs><defs><marker id="my-svg_class-extensionEnd" class="marker extension class" refX="1" refY="7" markerWidth="20" markerHeight="28" orient="auto"><path d="M 1,1 V 13 L18,7 Z"/></marker></defs><defs><marker id="my-svg_class-compositionStart" class="marker composition class" refX="18" refY="7" markerWidth="190" markerHeight="240" orient="auto"><path d="M 18,7 L9,13 L1,7 L9,1 Z"/></marker></defs><defs><marker id="my-svg_class-compositionEnd" class="marker composition class" refX="1" refY="7" markerWidth="20" markerHeight="28" orient="auto"><path d="M 18,7 L9,13 L1,7 L9,1 Z"/></marker></defs><defs><marker id="my-svg_class-dependencyStart" class="marker dependency class" refX="6" refY="7" markerWidth="190" markerHeight="240" orient="auto"><path d="M 5,7 L9,13 L1,7 L9,1 Z"/></marker></defs><defs><marker id="my-svg_class-dependencyEnd" class="marker dependency class" refX="13" refY="7" markerWidth="20" markerHeight="28" orient="auto"><path d="M 18,7 L9,13 L14,7 L9,1 Z"/></marker></defs><defs><marker id="my-svg_class-lollipopStart" class="marker lollipop class" refX="13" refY="7" markerWidth="190" markerHeight="240" orient="auto"><circle stroke="black" fill="transparent" cx="7" cy="7" r="6"/></marker></defs><defs><marker id="my-svg_class-lollipopEnd" class="marker lollipop class" refX="1" refY="7" markerWidth="190" markerHeight="240" orient="auto"><circle stroke="black" fill="transparent" cx="7" cy="7" r="6"/></marker></defs><g class="root"><g class="clusters"/><g class="edgePaths"><path d="M371.727,92L371.727,98.167C371.727,104.333,371.727,116.667,371.727,128C371.727,139.333,371.727,149.667,371.727,154.833L371.727,160" id="id_AtomCenteredBasisSet_AtomCenteredFunction_1" class="edge-thickness-normal edge-pattern-solid relation" style=";;;" data-edge="true" data-et="edge" data-id="id_AtomCenteredBasisSet_AtomCenteredFunction_1" data-points="W3sieCI6MzcxLjcyNjU2MjUsInkiOjkyfSx7IngiOjM3MS43MjY1NjI1LCJ5IjoxMjl9LHsieCI6MzcxLjcyNjU2MjUsInkiOjE2Nn1d" marker-end="url(#my-svg_class-dependencyEnd)"/><path d="M776.25,92L776.25,98.167C776.25,104.333,776.25,116.667,776.25,128C776.25,139.333,776.25,149.667,776.25,154.833L776.25,160" id="id_BaseGreensFunction_KMesh_2" class="edge-thickness-normal edge-pattern-solid relation" style=";;;" data-edge="true" data-et="edge" data-id="id_BaseGreensFunction_KMesh_2" data-points="W3sieCI6Nzc2LjI1LCJ5Ijo5Mn0seyJ4Ijo3NzYuMjUsInkiOjEyOX0seyJ4Ijo3NzYuMjUsInkiOjE2Nn1d" marker-end="url(#my-svg_class-dependencyEnd)"/><path d="M1155.363,92L1155.363,98.167C1155.363,104.333,1155.363,116.667,1153.963,128.034C1152.563,139.402,1149.762,149.804,1148.362,155.005L1146.961,160.206" id="id_BaseModelMethod_NumericalSettings_3" class="edge-thickness-normal edge-pattern-solid relation" style=";;;" data-edge="true" data-et="edge" data-id="id_BaseModelMethod_NumericalSettings_3" data-points="W3sieCI6MTE1NS4zNjMyODEyNSwieSI6OTJ9LHsieCI6MTE1NS4zNjMyODEyNSwieSI6MTI5fSx7IngiOjExNDUuNDAxNjAyMDU2OTYyLCJ5IjoxNjZ9XQ==" marker-end="url(#my-svg_class-dependencyEnd)"/><path d="M1961.262,92L1961.262,98.167C1961.262,104.333,1961.262,116.667,1961.262,128C1961.262,139.333,1961.262,149.667,1961.262,154.833L1961.262,160" id="id_BasisSetContainer_BasisSetComponent_4" class="edge-thickness-normal edge-pattern-solid relation" style=";;;" data-edge="true" data-et="edge" data-id="id_BasisSetContainer_BasisSetComponent_4" data-points="W3sieCI6MTk2MS4yNjE3MTg3NSwieSI6OTJ9LHsieCI6MTk2MS4yNjE3MTg3NSwieSI6MTI5fSx7IngiOjE5NjEuMjYxNzE4NzUsInkiOjE2Nn1d" marker-end="url(#my-svg_class-dependencyEnd)"/><path d="M1606.98,92L1606.98,98.167C1606.98,104.333,1606.98,116.667,1605.58,128.034C1604.18,139.402,1601.379,149.804,1599.979,155.005L1598.579,160.206" id="id_ElectronicBandStructure_KLinePath_5" class="edge-thickness-normal edge-pattern-solid relation" style=";;;" data-edge="true" data-et="edge" data-id="id_ElectronicBandStructure_KLinePath_5" data-points="W3sieCI6MTYwNi45ODA0Njg3NSwieSI6OTJ9LHsieCI6MTYwNi45ODA0Njg3NSwieSI6MTI5fSx7IngiOjE1OTcuMDE4Nzg5NTU2OTYyLCJ5IjoxNjZ9XQ==" marker-end="url(#my-svg_class-dependencyEnd)"/><path d="M983.712,92L987.183,98.167C990.654,104.333,997.597,116.667,1088.345,134.697C1179.094,152.728,1353.648,176.455,1440.926,188.319L1528.203,200.183" id="id_KSpace_KLinePath_6" class="edge-thickness-normal edge-pattern-solid relation" style=";;;" data-edge="true" data-et="edge" data-id="id_KSpace_KLinePath_6" data-points="W3sieCI6OTgzLjcxMTkyNjQyNDA1MDYsInkiOjkyfSx7IngiOjEwMDQuNTM5MDYyNSwieSI6MTI5fSx7IngiOjE1MzQuMTQ4NDM3NSwieSI6MjAwLjk5MDk5MzQxMzA5MzE1fV0=" marker-end="url(#my-svg_class-dependencyEnd)"/><path d="M931.418,92L927.211,98.167C923.004,104.333,914.59,116.667,895.954,131.607C877.318,146.547,848.461,164.093,834.032,172.866L819.603,181.64" id="id_KSpace_KMesh_7" class="edge-thickness-normal edge-pattern-solid relation" style=";;;" data-edge="true" data-et="edge" data-id="id_KSpace_KMesh_7" data-points="W3sieCI6OTMxLjQxNzUyMzczNDE3NzIsInkiOjkyfSx7IngiOjkwNi4xNzU3ODEyNSwieSI6MTI5fSx7IngiOjgxNC40NzY1NjI1LCJ5IjoxODQuNzU2NzQyMTMwNDIzMDJ9XQ==" marker-end="url(#my-svg_class-dependencyEnd)"/><path d="M578.211,92L578.211,98.167C578.211,104.333,578.211,116.667,603.918,133.088C629.624,149.509,681.037,170.019,706.744,180.273L732.45,190.528" id="id_Permittivity_KMesh_8" class="edge-thickness-normal edge-pattern-solid relation" style=";;;" data-edge="true" data-et="edge" data-id="id_Permittivity_KMesh_8" data-points="W3sieCI6NTc4LjIxMDkzNzUsInkiOjkyfSx7IngiOjU3OC4yMTA5Mzc1LCJ5IjoxMjl9LHsieCI6NzM4LjAyMzQzNzUsInkiOjE5Mi43NTA5OTYwOTQ1MjA1fV0=" marker-end="url(#my-svg_class-dependencyEnd)"/></g><g class="edgeLabels"><g class="edgeLabel" transform="translate(371.7265625, 129)"><g class="label" data-id="id_AtomCenteredBasisSet_AtomCenteredFunction_1" transform="translate(-85.3828125, -12)"><foreignObject width="170.765625" height="24"><div xmlns="http://www.w3.org/1999/xhtml" class="labelBkg" style="display: table-cell; white-space: nowrap; line-height: 1.5; max-width: 200px; text-align: center;"><span class="edgeLabel"><p>functional_compositions</p></span></div></foreignObject></g></g><g class="edgeLabel" transform="translate(776.25, 129)"><g class="label" data-id="id_BaseGreensFunction_KMesh_2" transform="translate(-28.015625, -12)"><foreignObject width="56.03125" height="24"><div xmlns="http://www.w3.org/1999/xhtml" class="labelBkg" style="display: table-cell; white-space: nowrap; line-height: 1.5; max-width: 200px; text-align: center;"><span class="edgeLabel"><p>k_mesh</p></span></div></foreignObject></g></g><g class="edgeLabel" transform="translate(1155.36328125, 129)"><g class="label" data-id="id_BaseModelMethod_NumericalSettings_3" transform="translate(-66.703125, -12)"><foreignObject width="133.40625" height="24"><div xmlns="http://www.w3.org/1999/xhtml" class="labelBkg" style="display: table-cell; white-space: nowrap; line-height: 1.5; max-width: 200px; text-align: center;"><span class="edgeLabel"><p>numerical_settings</p></span></div></foreignObject></g></g><g class="edgeLabel" transform="translate(1961.26171875, 129)"><g class="label" data-id="id_BasisSetContainer_BasisSetComponent_4" transform="translate(-81.828125, -12)"><foreignObject width="163.65625" height="24"><div xmlns="http://www.w3.org/1999/xhtml" class="labelBkg" style="display: table-cell; white-space: nowrap; line-height: 1.5; max-width: 200px; text-align: center;"><span class="edgeLabel"><p>basis_set_components</p></span></div></foreignObject></g></g><g class="edgeLabel" transform="translate(1606.98046875, 129)"><g class="label" data-id="id_ElectronicBandStructure_KLinePath_5" transform="translate(-24.0234375, -12)"><foreignObject width="48.046875" height="24"><div xmlns="http://www.w3.org/1999/xhtml" class="labelBkg" style="display: table-cell; white-space: nowrap; line-height: 1.5; max-width: 200px; text-align: center;"><span class="edgeLabel"><p>k_path</p></span></div></foreignObject></g></g><g class="edgeLabel" transform="translate(1248.30769, 162.13602)"><g class="label" data-id="id_KSpace_KLinePath_6" transform="translate(-40.921875, -12)"><foreignObject width="81.84375" height="24"><div xmlns="http://www.w3.org/1999/xhtml" class="labelBkg" style="display: table-cell; white-space: nowrap; line-height: 1.5; max-width: 200px; text-align: center;"><span class="edgeLabel"><p>k_line_path</p></span></div></foreignObject></g></g><g class="edgeLabel" transform="translate(879.46153, 145.24332)"><g class="label" data-id="id_KSpace_KMesh_7" transform="translate(-28.015625, -12)"><foreignObject width="56.03125" height="24"><div xmlns="http://www.w3.org/1999/xhtml" class="labelBkg" style="display: table-cell; white-space: nowrap; line-height: 1.5; max-width: 200px; text-align: center;"><span class="edgeLabel"><p>k_mesh</p></span></div></foreignObject></g></g><g class="edgeLabel" transform="translate(578.2109375, 129)"><g class="label" data-id="id_Permittivity_KMesh_8" transform="translate(-28.4609375, -12)"><foreignObject width="56.921875" height="24"><div xmlns="http://www.w3.org/1999/xhtml" class="labelBkg" style="display: table-cell; white-space: nowrap; line-height: 1.5; max-width: 200px; text-align: center;"><span class="edgeLabel"><p>q_mesh</p></span></div></foreignObject></g></g></g><g class="nodes"><g class="node default" id="classId-APWPlaneWaveBasisSet-0" transform="translate(114.40625, 50)"><g class="basic label-container"><path d="M-106.40625 -42 L106.40625 -42 L106.40625 42 L-106.40625 42" stroke="none" stroke-width="0" fill="#ECECFF" style=""/><path d="M-106.40625 -42 C-51.185731795682024 -42, 4.034786408635952 -42, 106.40625 -42 M-106.40625 -42 C-47.070155394037904 -42, 12.265939211924191 -42, 106.40625 -42 M106.40625 -42 C106.40625 -19.832425730324974, 106.40625 2.335148539350051, 106.40625 42 M106.40625 -42 C106.40625 -16.77896807699134, 106.40625 8.44206384601732, 106.40625 42 M106.40625 42 C58.412267638311874 42, 10.418285276623749 42, -106.40625 42 M106.40625 42 C29.808307011587587 42, -46.789635976824826 42, -106.40625 42 M-106.40625 42 C-106.40625 24.09798356631478, -106.40625 6.195967132629562, -106.40625 -42 M-106.40625 42 C-106.40625 8.463010404851723, -106.40625 -25.073979190296555, -106.40625 -42" stroke="#9370DB" stroke-width="1.3" fill="none" stroke-dasharray="0 0" style=""/></g><g class="annotation-group text" transform="translate(0, -18)"/><g class="label-group text" transform="translate(-94.40625, -18)"><g class="label" style="font-weight: bolder" transform="translate(0,-12)"><foreignObject width="188.8125" height="24"><div xmlns="http://www.w3.org/1999/xhtml" style="display: table-cell; white-space: nowrap; line-height: 1.5; max-width: 213px; text-align: center;"><span class="nodeLabel markdown-node-label" style=""><p>APWPlaneWaveBasisSet</p></span></div></foreignObject></g></g><g class="members-group text" transform="translate(-94.40625, 30)"/><g class="methods-group text" transform="translate(-94.40625, 60)"/><g class="divider" style=""><path d="M-106.40625 6 C-25.54079962203393 6, 55.32465075593214 6, 106.40625 6 M-106.40625 6 C-60.841741697363425 6, -15.27723339472685 6, 106.40625 6" stroke="#9370DB" stroke-width="1.3" fill="none" stroke-dasharray="0 0" style=""/></g></g><g class="node default" id="classId-AtomCenteredBasisSet-1" transform="translate(371.7265625, 50)"><g class="basic label-container"><path d="M-100.9140625 -42 L100.9140625 -42 L100.9140625 42 L-100.9140625 42" stroke="none" stroke-width="0" fill="#ECECFF" style=""/><path d="M-100.9140625 -42 C-30.420176140345816 -42, 40.07371021930837 -42, 100.9140625 -42 M-100.9140625 -42 C-46.99187794259744 -42, 6.930306614805119 -42, 100.9140625 -42 M100.9140625 -42 C100.9140625 -22.005124080796595, 100.9140625 -2.0102481615931893, 100.9140625 42 M100.9140625 -42 C100.9140625 -23.21733082769289, 100.9140625 -4.434661655385781, 100.9140625 42 M100.9140625 42 C57.37046197908299 42, 13.826861458165979 42, -100.9140625 42 M100.9140625 42 C25.065666131875588 42, -50.782730236248824 42, -100.9140625 42 M-100.9140625 42 C-100.9140625 23.51604293003676, -100.9140625 5.032085860073522, -100.9140625 -42 M-100.9140625 42 C-100.9140625 11.761263957878018, -100.9140625 -18.477472084243963, -100.9140625 -42" stroke="#9370DB" stroke-width="1.3" fill="none" stroke-dasharray="0 0" style=""/></g><g class="annotation-group text" transform="translate(0, -18)"/><g class="label-group text" transform="translate(-88.9140625, -18)"><g class="label" style="font-weight: bolder" transform="translate(0,-12)"><foreignObject width="177.828125" height="24"><div xmlns="http://www.w3.org/1999/xhtml" style="display: table-cell; white-space: nowrap; line-height: 1.5; max-width: 200px; text-align: center;"><span class="nodeLabel markdown-node-label" style=""><p>AtomCenteredBasisSet</p></span></div></foreignObject></g></g><g class="members-group text" transform="translate(-88.9140625, 30)"/><g class="methods-group text" transform="translate(-88.9140625, 60)"/><g class="divider" style=""><path d="M-100.9140625 6 C-26.484996243109777 6, 47.94407001378045 6, 100.9140625 6 M-100.9140625 6 C-34.173020082655796 6, 32.56802233468841 6, 100.9140625 6" stroke="#9370DB" stroke-width="1.3" fill="none" stroke-dasharray="0 0" style=""/></g></g><g class="node default" id="classId-AtomCenteredFunction-2" transform="translate(371.7265625, 208)"><g class="basic label-container"><path d="M-100.890625 -42 L100.890625 -42 L100.890625 42 L-100.890625 42" stroke="none" stroke-width="0" fill="#ECECFF" style=""/><path d="M-100.890625 -42 C-37.42807300781974 -42, 26.03447898436052 -42, 100.890625 -42 M-100.890625 -42 C-32.90706935269698 -42, 35.07648629460604 -42, 100.890625 -42 M100.890625 -42 C100.890625 -15.28948224294539, 100.890625 11.42103551410922, 100.890625 42 M100.890625 -42 C100.890625 -13.1534294050739, 100.890625 15.693141189852199, 100.890625 42 M100.890625 42 C48.96731572349602 42, -2.955993553007957 42, -100.890625 42 M100.890625 42 C52.32588436504009 42, 3.761143730080178 42, -100.890625 42 M-100.890625 42 C-100.890625 22.69790770105744, -100.890625 3.395815402114877, -100.890625 -42 M-100.890625 42 C-100.890625 19.31497372603787, -100.890625 -3.37005254792426, -100.890625 -42" stroke="#9370DB" stroke-width="1.3" fill="none" stroke-dasharray="0 0" style=""/></g><g class="annotation-group text" transform="translate(0, -18)"/><g class="label-group text" transform="translate(-88.890625, -18)"><g class="label" style="font-weight: bolder" transform="translate(0,-12)"><foreignObject width="177.78125" height="24"><div xmlns="http://www.w3.org/1999/xhtml" style="display: table-cell; white-space: nowrap; line-height: 1.5; max-width: 201px; text-align: center;"><span class="nodeLabel markdown-node-label" style=""><p>AtomCenteredFunction</p></span></div></foreignObject></g></g><g class="members-group text" transform="translate(-88.890625, 30)"/><g class="methods-group text" transform="translate(-88.890625, 60)"/><g class="divider" style=""><path d="M-100.890625 6 C-42.266753794710205 6, 16.35711741057959 6, 100.890625 6 M-100.890625 6 C-28.256241500490532 6, 44.378141999018936 6, 100.890625 6" stroke="#9370DB" stroke-width="1.3" fill="none" stroke-dasharray="0 0" style=""/></g></g><g class="node default" id="classId-BaseGreensFunction-3" transform="translate(776.25, 50)"><g class="basic label-container"><path d="M-92.46875 -42 L92.46875 -42 L92.46875 42 L-92.46875 42" stroke="none" stroke-width="0" fill="#ECECFF" style=""/><path d="M-92.46875 -42 C-45.0887504856036 -42, 2.291249028792805 -42, 92.46875 -42 M-92.46875 -42 C-41.94157838010559 -42, 8.585593239788821 -42, 92.46875 -42 M92.46875 -42 C92.46875 -10.904665256844492, 92.46875 20.190669486311016, 92.46875 42 M92.46875 -42 C92.46875 -16.52291992655658, 92.46875 8.954160146886842, 92.46875 42 M92.46875 42 C41.01804616606686 42, -10.43265766786628 42, -92.46875 42 M92.46875 42 C21.52050514511798 42, -49.42773970976404 42, -92.46875 42 M-92.46875 42 C-92.46875 15.888492362068952, -92.46875 -10.223015275862096, -92.46875 -42 M-92.46875 42 C-92.46875 15.390884264974225, -92.46875 -11.218231470051549, -92.46875 -42" stroke="#9370DB" stroke-width="1.3" fill="none" stroke-dasharray="0 0" style=""/></g><g class="annotation-group text" transform="translate(0, -18)"/><g class="label-group text" transform="translate(-80.46875, -18)"><g class="label" style="font-weight: bolder" transform="translate(0,-12)"><foreignObject width="160.9375" height="24"><div xmlns="http://www.w3.org/1999/xhtml" style="display: table-cell; white-space: nowrap; line-height: 1.5; max-width: 183px; text-align: center;"><span class="nodeLabel markdown-node-label" style=""><p>BaseGreensFunction</p></span></div></foreignObject></g></g><g class="members-group text" transform="translate(-80.46875, 30)"/><g class="methods-group text" transform="translate(-80.46875, 60)"/><g class="divider" style=""><path d="M-92.46875 6 C-30.739499519941916 6, 30.98975096011617 6, 92.46875 6 M-92.46875 6 C-43.42995811696224 6, 5.60883376607552 6, 92.46875 6" stroke="#9370DB" stroke-width="1.3" fill="none" stroke-dasharray="0 0" style=""/></g></g><g class="node default" id="classId-BaseModelMethod-4" transform="translate(1155.36328125, 50)"><g class="basic label-container"><path d="M-82.671875 -42 L82.671875 -42 L82.671875 42 L-82.671875 42" stroke="none" stroke-width="0" fill="#ECECFF" style=""/><path d="M-82.671875 -42 C-43.86694386488207 -42, -5.062012729764135 -42, 82.671875 -42 M-82.671875 -42 C-39.69157394046137 -42, 3.288727119077265 -42, 82.671875 -42 M82.671875 -42 C82.671875 -15.588708478901417, 82.671875 10.822583042197166, 82.671875 42 M82.671875 -42 C82.671875 -12.272798517890116, 82.671875 17.454402964219767, 82.671875 42 M82.671875 42 C35.01781764612864 42, -12.636239707742718 42, -82.671875 42 M82.671875 42 C17.738198168936677 42, -47.195478662126646 42, -82.671875 42 M-82.671875 42 C-82.671875 19.832049294155222, -82.671875 -2.335901411689555, -82.671875 -42 M-82.671875 42 C-82.671875 14.396546708343092, -82.671875 -13.206906583313817, -82.671875 -42" stroke="#9370DB" stroke-width="1.3" fill="none" stroke-dasharray="0 0" style=""/></g><g class="annotation-group text" transform="translate(0, -18)"/><g class="label-group text" transform="translate(-70.671875, -18)"><g class="label" style="font-weight: bolder" transform="translate(0,-12)"><foreignObject width="141.34375" height="24"><div xmlns="http://www.w3.org/1999/xhtml" style="display: table-cell; white-space: nowrap; line-height: 1.5; max-width: 173px; text-align: center;"><span class="nodeLabel markdown-node-label" style=""><p>BaseModelMethod</p></span></div></foreignObject></g></g><g class="members-group text" transform="translate(-70.671875, 30)"/><g class="methods-group text" transform="translate(-70.671875, 60)"/><g class="divider" style=""><path d="M-82.671875 6 C-22.87037798573092 6, 36.93111902853816 6, 82.671875 6 M-82.671875 6 C-43.476693961549564 6, -4.281512923099129 6, 82.671875 6" stroke="#9370DB" stroke-width="1.3" fill="none" stroke-dasharray="0 0" style=""/></g></g><g class="node default" id="classId-BasisSetComponent-5" transform="translate(1961.26171875, 208)"><g class="basic label-container"><path d="M-90.234375 -42 L90.234375 -42 L90.234375 42 L-90.234375 42" stroke="none" stroke-width="0" fill="#ECECFF" style=""/><path d="M-90.234375 -42 C-18.779271622019763 -42, 52.67583175596047 -42, 90.234375 -42 M-90.234375 -42 C-41.74066210044017 -42, 6.753050799119663 -42, 90.234375 -42 M90.234375 -42 C90.234375 -20.06446192332445, 90.234375 1.8710761533510976, 90.234375 42 M90.234375 -42 C90.234375 -22.68968223561883, 90.234375 -3.3793644712376576, 90.234375 42 M90.234375 42 C47.02957673297699 42, 3.824778465953983 42, -90.234375 42 M90.234375 42 C47.765656296700776 42, 5.296937593401552 42, -90.234375 42 M-90.234375 42 C-90.234375 12.964040795595238, -90.234375 -16.071918408809523, -90.234375 -42 M-90.234375 42 C-90.234375 13.44828796069267, -90.234375 -15.103424078614658, -90.234375 -42" stroke="#9370DB" stroke-width="1.3" fill="none" stroke-dasharray="0 0" style=""/></g><g class="annotation-group text" transform="translate(0, -18)"/><g class="label-group text" transform="translate(-78.234375, -18)"><g class="label" style="font-weight: bolder" transform="translate(0,-12)"><foreignObject width="156.46875" height="24"><div xmlns="http://www.w3.org/1999/xhtml" style="display: table-cell; white-space: nowrap; line-height: 1.5; max-width: 180px; text-align: center;"><span class="nodeLabel markdown-node-label" style=""><p>BasisSetComponent</p></span></div></foreignObject></g></g><g class="members-group text" transform="translate(-78.234375, 30)"/><g class="methods-group text" transform="translate(-78.234375, 60)"/><g class="divider" style=""><path d="M-90.234375 6 C-33.98300357988836 6, 22.268367840223277 6, 90.234375 6 M-90.234375 6 C-29.30688452096105 6, 31.620605958077903 6, 90.234375 6" stroke="#9370DB" stroke-width="1.3" fill="none" stroke-dasharray="0 0" style=""/></g></g><g class="node default" id="classId-BasisSetContainer-6" transform="translate(1961.26171875, 50)"><g class="basic label-container"><path d="M-83.1328125 -42 L83.1328125 -42 L83.1328125 42 L-83.1328125 42" stroke="none" stroke-width="0" fill="#ECECFF" style=""/><path d="M-83.1328125 -42 C-26.250739104190203 -42, 30.631334291619595 -42, 83.1328125 -42 M-83.1328125 -42 C-33.821707857525666 -42, 15.489396784948667 -42, 83.1328125 -42 M83.1328125 -42 C83.1328125 -13.810415997480785, 83.1328125 14.37916800503843, 83.1328125 42 M83.1328125 -42 C83.1328125 -8.586984412213155, 83.1328125 24.82603117557369, 83.1328125 42 M83.1328125 42 C23.540451388753077 42, -36.051909722493846 42, -83.1328125 42 M83.1328125 42 C34.41094364238477 42, -14.310925215230455 42, -83.1328125 42 M-83.1328125 42 C-83.1328125 15.059087764825037, -83.1328125 -11.881824470349926, -83.1328125 -42 M-83.1328125 42 C-83.1328125 22.457203103884222, -83.1328125 2.914406207768444, -83.1328125 -42" stroke="#9370DB" stroke-width="1.3" fill="none" stroke-dasharray="0 0" style=""/></g><g class="annotation-group text" transform="translate(0, -18)"/><g class="label-group text" transform="translate(-71.1328125, -18)"><g class="label" style="font-weight: bolder" transform="translate(0,-12)"><foreignObject width="142.265625" height="24"><div xmlns="http://www.w3.org/1999/xhtml" style="display: table-cell; white-space: nowrap; line-height: 1.5; max-width: 169px; text-align: center;"><span class="nodeLabel markdown-node-label" style=""><p>BasisSetContainer</p></span></div></foreignObject></g></g><g class="members-group text" transform="translate(-71.1328125, 30)"/><g class="methods-group text" transform="translate(-71.1328125, 60)"/><g class="divider" style=""><path d="M-83.1328125 6 C-41.52667696524542 6, 0.07945856950915697 6, 83.1328125 6 M-83.1328125 6 C-30.821367615549804 6, 21.490077268900393 6, 83.1328125 6" stroke="#9370DB" stroke-width="1.3" fill="none" stroke-dasharray="0 0" style=""/></g></g><g class="node default" id="classId-ElectronicBandStructure-7" transform="translate(1606.98046875, 50)"><g class="basic label-container"><path d="M-106.2421875 -42 L106.2421875 -42 L106.2421875 42 L-106.2421875 42" stroke="none" stroke-width="0" fill="#ECECFF" style=""/><path d="M-106.2421875 -42 C-36.22168993833721 -42, 33.79880762332559 -42, 106.2421875 -42 M-106.2421875 -42 C-29.513177408691703 -42, 47.21583268261659 -42, 106.2421875 -42 M106.2421875 -42 C106.2421875 -16.09658878059135, 106.2421875 9.8068224388173, 106.2421875 42 M106.2421875 -42 C106.2421875 -24.014774803400165, 106.2421875 -6.02954960680033, 106.2421875 42 M106.2421875 42 C51.22189445866646 42, -3.798398582667076 42, -106.2421875 42 M106.2421875 42 C63.591855789902866 42, 20.94152407980573 42, -106.2421875 42 M-106.2421875 42 C-106.2421875 8.589152839878615, -106.2421875 -24.82169432024277, -106.2421875 -42 M-106.2421875 42 C-106.2421875 13.54860937674001, -106.2421875 -14.902781246519979, -106.2421875 -42" stroke="#9370DB" stroke-width="1.3" fill="none" stroke-dasharray="0 0" style=""/></g><g class="annotation-group text" transform="translate(0, -18)"/><g class="label-group text" transform="translate(-94.2421875, -18)"><g class="label" style="font-weight: bolder" transform="translate(0,-12)"><foreignObject width="188.484375" height="24"><div xmlns="http://www.w3.org/1999/xhtml" style="display: table-cell; white-space: nowrap; line-height: 1.5; max-width: 208px; text-align: center;"><span class="nodeLabel markdown-node-label" style=""><p>ElectronicBandStructure</p></span></div></foreignObject></g></g><g class="members-group text" transform="translate(-94.2421875, 30)"/><g class="methods-group text" transform="translate(-94.2421875, 60)"/><g class="divider" style=""><path d="M-106.2421875 6 C-22.75776321795044 6, 60.72666106409912 6, 106.2421875 6 M-106.2421875 6 C-53.33645317192933 6, -0.43071884385865644 6, 106.2421875 6" stroke="#9370DB" stroke-width="1.3" fill="none" stroke-dasharray="0 0" style=""/></g></g><g class="node default" id="classId-ForceCalculations-8" transform="translate(1369.38671875, 50)"><g class="basic label-container"><path d="M-81.3515625 -42 L81.3515625 -42 L81.3515625 42 L-81.3515625 42" stroke="none" stroke-width="0" fill="#ECECFF" style=""/><path d="M-81.3515625 -42 C-42.53999388931938 -42, -3.728425278638767 -42, 81.3515625 -42 M-81.3515625 -42 C-27.864911671881863 -42, 25.621739156236274 -42, 81.3515625 -42 M81.3515625 -42 C81.3515625 -9.678725593460875, 81.3515625 22.64254881307825, 81.3515625 42 M81.3515625 -42 C81.3515625 -15.566595794060401, 81.3515625 10.866808411879198, 81.3515625 42 M81.3515625 42 C33.873914246653676 42, -13.603734006692648 42, -81.3515625 42 M81.3515625 42 C22.785951843310094 42, -35.77965881337981 42, -81.3515625 42 M-81.3515625 42 C-81.3515625 22.720440934865717, -81.3515625 3.4408818697314345, -81.3515625 -42 M-81.3515625 42 C-81.3515625 18.74427514883008, -81.3515625 -4.5114497023398386, -81.3515625 -42" stroke="#9370DB" stroke-width="1.3" fill="none" stroke-dasharray="0 0" style=""/></g><g class="annotation-group text" transform="translate(0, -18)"/><g class="label-group text" transform="translate(-69.3515625, -18)"><g class="label" style="font-weight: bolder" transform="translate(0,-12)"><foreignObject width="138.703125" height="24"><div xmlns="http://www.w3.org/1999/xhtml" style="display: table-cell; white-space: nowrap; line-height: 1.5; max-width: 166px; text-align: center;"><span class="nodeLabel markdown-node-label" style=""><p>ForceCalculations</p></span></div></foreignObject></g></g><g class="members-group text" transform="translate(-69.3515625, 30)"/><g class="methods-group text" transform="translate(-69.3515625, 60)"/><g class="divider" style=""><path d="M-81.3515625 6 C-36.40611481245428 6, 8.539332875091446 6, 81.3515625 6 M-81.3515625 6 C-19.107283336155618 6, 43.136995827688764 6, 81.3515625 6" stroke="#9370DB" stroke-width="1.3" fill="none" stroke-dasharray="0 0" style=""/></g></g><g class="node default" id="classId-KLinePath-9" transform="translate(1585.7109375, 208)"><g class="basic label-container"><path d="M-51.5625 -42 L51.5625 -42 L51.5625 42 L-51.5625 42" stroke="none" stroke-width="0" fill="#ECECFF" style=""/><path d="M-51.5625 -42 C-20.681997214643832 -42, 10.198505570712335 -42, 51.5625 -42 M-51.5625 -42 C-22.494127851433415 -42, 6.57424429713317 -42, 51.5625 -42 M51.5625 -42 C51.5625 -13.30261668561793, 51.5625 15.394766628764138, 51.5625 42 M51.5625 -42 C51.5625 -9.178790024266206, 51.5625 23.642419951467588, 51.5625 42 M51.5625 42 C10.528912583448708 42, -30.504674833102584 42, -51.5625 42 M51.5625 42 C19.628664783466068 42, -12.305170433067865 42, -51.5625 42 M-51.5625 42 C-51.5625 23.42157013952341, -51.5625 4.843140279046821, -51.5625 -42 M-51.5625 42 C-51.5625 13.325906916693654, -51.5625 -15.348186166612692, -51.5625 -42" stroke="#9370DB" stroke-width="1.3" fill="none" stroke-dasharray="0 0" style=""/></g><g class="annotation-group text" transform="translate(0, -18)"/><g class="label-group text" transform="translate(-39.5625, -18)"><g class="label" style="font-weight: bolder" transform="translate(0,-12)"><foreignObject width="79.125" height="24"><div xmlns="http://www.w3.org/1999/xhtml" style="display: table-cell; white-space: nowrap; line-height: 1.5; max-width: 119px; text-align: center;"><span class="nodeLabel markdown-node-label" style=""><p>KLinePath</p></span></div></foreignObject></g></g><g class="members-group text" transform="translate(-39.5625, 30)"/><g class="methods-group text" transform="translate(-39.5625, 60)"/><g class="divider" style=""><path d="M-51.5625 6 C-12.256950919054326 6, 27.04859816189135 6, 51.5625 6 M-51.5625 6 C-28.240122295217255 6, -4.917744590434509 6, 51.5625 6" stroke="#9370DB" stroke-width="1.3" fill="none" stroke-dasharray="0 0" style=""/></g></g><g class="node default" id="classId-KMesh-10" transform="translate(776.25, 208)"><g class="basic label-container"><path d="M-38.2265625 -42 L38.2265625 -42 L38.2265625 42 L-38.2265625 42" stroke="none" stroke-width="0" fill="#ECECFF" style=""/><path d="M-38.2265625 -42 C-8.392217771730397 -42, 21.442126956539205 -42, 38.2265625 -42 M-38.2265625 -42 C-18.431855201138514 -42, 1.3628520977229712 -42, 38.2265625 -42 M38.2265625 -42 C38.2265625 -12.376869520324036, 38.2265625 17.24626095935193, 38.2265625 42 M38.2265625 -42 C38.2265625 -21.599863897606184, 38.2265625 -1.1997277952123682, 38.2265625 42 M38.2265625 42 C20.914492603952425 42, 3.60242270790485 42, -38.2265625 42 M38.2265625 42 C22.36131325421512 42, 6.496064008430238 42, -38.2265625 42 M-38.2265625 42 C-38.2265625 16.104048510263024, -38.2265625 -9.791902979473953, -38.2265625 -42 M-38.2265625 42 C-38.2265625 20.605468560875845, -38.2265625 -0.7890628782483091, -38.2265625 -42" stroke="#9370DB" stroke-width="1.3" fill="none" stroke-dasharray="0 0" style=""/></g><g class="annotation-group text" transform="translate(0, -18)"/><g class="label-group text" transform="translate(-26.2265625, -18)"><g class="label" style="font-weight: bolder" transform="translate(0,-12)"><foreignObject width="52.453125" height="24"><div xmlns="http://www.w3.org/1999/xhtml" style="display: table-cell; white-space: nowrap; line-height: 1.5; max-width: 97px; text-align: center;"><span class="nodeLabel markdown-node-label" style=""><p>KMesh</p></span></div></foreignObject></g></g><g class="members-group text" transform="translate(-26.2265625, 30)"/><g class="methods-group text" transform="translate(-26.2265625, 60)"/><g class="divider" style=""><path d="M-38.2265625 6 C-20.099088784695503 6, -1.9716150693910066 6, 38.2265625 6 M-38.2265625 6 C-18.789631746729548 6, 0.647299006540905 6, 38.2265625 6" stroke="#9370DB" stroke-width="1.3" fill="none" stroke-dasharray="0 0" style=""/></g></g><g class="node default" id="classId-KSpace-11" transform="translate(960.0703125, 50)"><g class="basic label-container"><path d="M-41.3515625 -42 L41.3515625 -42 L41.3515625 42 L-41.3515625 42" stroke="none" stroke-width="0" fill="#ECECFF" style=""/><path d="M-41.3515625 -42 C-10.787448141142573 -42, 19.776666217714855 -42, 41.3515625 -42 M-41.3515625 -42 C-9.056091218649762 -42, 23.239380062700477 -42, 41.3515625 -42 M41.3515625 -42 C41.3515625 -24.23525295701399, 41.3515625 -6.4705059140279815, 41.3515625 42 M41.3515625 -42 C41.3515625 -17.654738472096007, 41.3515625 6.6905230558079865, 41.3515625 42 M41.3515625 42 C18.310304986132298 42, -4.730952527735404 42, -41.3515625 42 M41.3515625 42 C14.542190306284859 42, -12.267181887430283 42, -41.3515625 42 M-41.3515625 42 C-41.3515625 21.454752857354983, -41.3515625 0.9095057147099652, -41.3515625 -42 M-41.3515625 42 C-41.3515625 17.871052699982435, -41.3515625 -6.257894600035129, -41.3515625 -42" stroke="#9370DB" stroke-width="1.3" fill="none" stroke-dasharray="0 0" style=""/></g><g class="annotation-group text" transform="translate(0, -18)"/><g class="label-group text" transform="translate(-29.3515625, -18)"><g class="label" style="font-weight: bolder" transform="translate(0,-12)"><foreignObject width="58.703125" height="24"><div xmlns="http://www.w3.org/1999/xhtml" style="display: table-cell; white-space: nowrap; line-height: 1.5; max-width: 100px; text-align: center;"><span class="nodeLabel markdown-node-label" style=""><p>KSpace</p></span></div></foreignObject></g></g><g class="members-group text" transform="translate(-29.3515625, 30)"/><g class="methods-group text" transform="translate(-29.3515625, 60)"/><g class="divider" style=""><path d="M-41.3515625 6 C-11.297462020614073 6, 18.756638458771853 6, 41.3515625 6 M-41.3515625 6 C-20.291699049039405 6, 0.7681644019211902 6, 41.3515625 6" stroke="#9370DB" stroke-width="1.3" fill="none" stroke-dasharray="0 0" style=""/></g></g><g class="node default" id="classId-Mesh-12" transform="translate(1795.67578125, 50)"><g class="basic label-container"><path d="M-32.453125 -42 L32.453125 -42 L32.453125 42 L-32.453125 42" stroke="none" stroke-width="0" fill="#ECECFF" style=""/><path d="M-32.453125 -42 C-10.889500253679149 -42, 10.674124492641702 -42, 32.453125 -42 M-32.453125 -42 C-19.389079626703854 -42, -6.325034253407708 -42, 32.453125 -42 M32.453125 -42 C32.453125 -17.82558930896052, 32.453125 6.34882138207896, 32.453125 42 M32.453125 -42 C32.453125 -21.782015081533515, 32.453125 -1.5640301630670308, 32.453125 42 M32.453125 42 C13.346007743038648 42, -5.761109513922705 42, -32.453125 42 M32.453125 42 C18.195022459349545 42, 3.936919918699086 42, -32.453125 42 M-32.453125 42 C-32.453125 24.837181769210996, -32.453125 7.674363538421993, -32.453125 -42 M-32.453125 42 C-32.453125 18.621314233923492, -32.453125 -4.757371532153016, -32.453125 -42" stroke="#9370DB" stroke-width="1.3" fill="none" stroke-dasharray="0 0" style=""/></g><g class="annotation-group text" transform="translate(0, -18)"/><g class="label-group text" transform="translate(-20.453125, -18)"><g class="label" style="font-weight: bolder" transform="translate(0,-12)"><foreignObject width="40.90625" height="24"><div xmlns="http://www.w3.org/1999/xhtml" style="display: table-cell; white-space: nowrap; line-height: 1.5; max-width: 86px; text-align: center;"><span class="nodeLabel markdown-node-label" style=""><p>Mesh</p></span></div></foreignObject></g></g><g class="members-group text" transform="translate(-20.453125, 30)"/><g class="methods-group text" transform="translate(-20.453125, 60)"/><g class="divider" style=""><path d="M-32.453125 6 C-17.665049887213904 6, -2.8769747744278042 6, 32.453125 6 M-32.453125 6 C-13.613586891189524 6, 5.225951217620953 6, 32.453125 6" stroke="#9370DB" stroke-width="1.3" fill="none" stroke-dasharray="0 0" style=""/></g></g><g class="node default" id="classId-NumericalSettings-13" transform="translate(1134.09375, 208)"><g class="basic label-container"><path d="M-82.2421875 -42 L82.2421875 -42 L82.2421875 42 L-82.2421875 42" stroke="none" stroke-width="0" fill="#ECECFF" style=""/><path d="M-82.2421875 -42 C-33.0944851926966 -42, 16.053217114606795 -42, 82.2421875 -42 M-82.2421875 -42 C-17.603336904468023 -42, 47.035513691063954 -42, 82.2421875 -42 M82.2421875 -42 C82.2421875 -11.311035117936402, 82.2421875 19.377929764127195, 82.2421875 42 M82.2421875 -42 C82.2421875 -22.7523964343604, 82.2421875 -3.5047928687207985, 82.2421875 42 M82.2421875 42 C21.90944020218619 42, -38.42330709562762 42, -82.2421875 42 M82.2421875 42 C23.198193365022604 42, -35.84580076995479 42, -82.2421875 42 M-82.2421875 42 C-82.2421875 17.93440663476077, -82.2421875 -6.131186730478461, -82.2421875 -42 M-82.2421875 42 C-82.2421875 11.873720421059065, -82.2421875 -18.25255915788187, -82.2421875 -42" stroke="#9370DB" stroke-width="1.3" fill="none" stroke-dasharray="0 0" style=""/></g><g class="annotation-group text" transform="translate(0, -18)"/><g class="label-group text" transform="translate(-70.2421875, -18)"><g class="label" style="font-weight: bolder" transform="translate(0,-12)"><foreignObject width="140.484375" height="24"><div xmlns="http://www.w3.org/1999/xhtml" style="display: table-cell; white-space: nowrap; line-height: 1.5; max-width: 169px; text-align: center;"><span class="nodeLabel markdown-node-label" style=""><p>NumericalSettings</p></span></div></foreignObject></g></g><g class="members-group text" transform="translate(-70.2421875, 30)"/><g class="methods-group text" transform="translate(-70.2421875, 60)"/><g class="divider" style=""><path d="M-82.2421875 6 C-47.685031616613045 6, -13.127875733226091 6, 82.2421875 6 M-82.2421875 6 C-37.54493464230622 6, 7.152318215387567 6, 82.2421875 6" stroke="#9370DB" stroke-width="1.3" fill="none" stroke-dasharray="0 0" style=""/></g></g><g class="node default" id="classId-Permittivity-14" transform="translate(578.2109375, 50)"><g class="basic label-container"><path d="M-55.5703125 -42 L55.5703125 -42 L55.5703125 42 L-55.5703125 42" stroke="none" stroke-width="0" fill="#ECECFF" style=""/><path d="M-55.5703125 -42 C-22.272158582113434 -42, 11.025995335773132 -42, 55.5703125 -42 M-55.5703125 -42 C-22.302103756030554 -42, 10.966104987938891 -42, 55.5703125 -42 M55.5703125 -42 C55.5703125 -15.207980448932965, 55.5703125 11.58403910213407, 55.5703125 42 M55.5703125 -42 C55.5703125 -12.04328160122645, 55.5703125 17.9134367975471, 55.5703125 42 M55.5703125 42 C19.108840703920237 42, -17.352631092159527 42, -55.5703125 42 M55.5703125 42 C21.81128219930612 42, -11.94774810138776 42, -55.5703125 42 M-55.5703125 42 C-55.5703125 24.467199857682974, -55.5703125 6.934399715365949, -55.5703125 -42 M-55.5703125 42 C-55.5703125 23.970338801334346, -55.5703125 5.940677602668693, -55.5703125 -42" stroke="#9370DB" stroke-width="1.3" fill="none" stroke-dasharray="0 0" style=""/></g><g class="annotation-group text" transform="translate(0, -18)"/><g class="label-group text" transform="translate(-43.5703125, -18)"><g class="label" style="font-weight: bolder" transform="translate(0,-12)"><foreignObject width="87.140625" height="24"><div xmlns="http://www.w3.org/1999/xhtml" style="display: table-cell; white-space: nowrap; line-height: 1.5; max-width: 126px; text-align: center;"><span class="nodeLabel markdown-node-label" style=""><p>Permittivity</p></span></div></foreignObject></g></g><g class="members-group text" transform="translate(-43.5703125, 30)"/><g class="methods-group text" transform="translate(-43.5703125, 60)"/><g class="divider" style=""><path d="M-55.5703125 6 C-19.08432059313953 6, 17.40167131372094 6, 55.5703125 6 M-55.5703125 6 C-25.50720992310705 6, 4.555892653785897 6, 55.5703125 6" stroke="#9370DB" stroke-width="1.3" fill="none" stroke-dasharray="0 0" style=""/></g></g><g class="node default" id="classId-PlaneWaveBasisSet-15" transform="translate(2182.13671875, 50)"><g class="basic label-container"><path d="M-87.7421875 -42 L87.7421875 -42 L87.7421875 42 L-87.7421875 42" stroke="none" stroke-width="0" fill="#ECECFF" style=""/><path d="M-87.7421875 -42 C-42.33971604670784 -42, 3.0627554065843157 -42, 87.7421875 -42 M-87.7421875 -42 C-40.01588887724681 -42, 7.710409745506382 -42, 87.7421875 -42 M87.7421875 -42 C87.7421875 -8.613146137935892, 87.7421875 24.773707724128215, 87.7421875 42 M87.7421875 -42 C87.7421875 -18.13492854219146, 87.7421875 5.73014291561708, 87.7421875 42 M87.7421875 42 C41.415876191891556 42, -4.910435116216888 42, -87.7421875 42 M87.7421875 42 C21.32872929717368 42, -45.08472890565264 42, -87.7421875 42 M-87.7421875 42 C-87.7421875 21.832361055042327, -87.7421875 1.6647221100846537, -87.7421875 -42 M-87.7421875 42 C-87.7421875 15.680175972138645, -87.7421875 -10.63964805572271, -87.7421875 -42" stroke="#9370DB" stroke-width="1.3" fill="none" stroke-dasharray="0 0" style=""/></g><g class="annotation-group text" transform="translate(0, -18)"/><g class="label-group text" transform="translate(-75.7421875, -18)"><g class="label" style="font-weight: bolder" transform="translate(0,-12)"><foreignObject width="151.484375" height="24"><div xmlns="http://www.w3.org/1999/xhtml" style="display: table-cell; white-space: nowrap; line-height: 1.5; max-width: 177px; text-align: center;"><span class="nodeLabel markdown-node-label" style=""><p>PlaneWaveBasisSet</p></span></div></foreignObject></g></g><g class="members-group text" transform="translate(-75.7421875, 30)"/><g class="methods-group text" transform="translate(-75.7421875, 60)"/><g class="divider" style=""><path d="M-87.7421875 6 C-51.84942818780921 6, -15.95666887561842 6, 87.7421875 6 M-87.7421875 6 C-36.71596575811983 6, 14.310255983760342 6, 87.7421875 6" stroke="#9370DB" stroke-width="1.3" fill="none" stroke-dasharray="0 0" style=""/></g></g><g class="node default" id="classId-SelfConsistency-16" transform="translate(2394.12109375, 50)"><g class="basic label-container"><path d="M-74.2421875 -42 L74.2421875 -42 L74.2421875 42 L-74.2421875 42" stroke="none" stroke-width="0" fill="#ECECFF" style=""/><path d="M-74.2421875 -42 C-27.287825337888314 -42, 19.66653682422337 -42, 74.2421875 -42 M-74.2421875 -42 C-16.743810071145376 -42, 40.75456735770925 -42, 74.2421875 -42 M74.2421875 -42 C74.2421875 -23.62316223851795, 74.2421875 -5.246324477035898, 74.2421875 42 M74.2421875 -42 C74.2421875 -15.33720868549279, 74.2421875 11.32558262901442, 74.2421875 42 M74.2421875 42 C28.60002965382516 42, -17.04212819234968 42, -74.2421875 42 M74.2421875 42 C24.673833701114773 42, -24.894520097770453 42, -74.2421875 42 M-74.2421875 42 C-74.2421875 11.531391332691488, -74.2421875 -18.937217334617024, -74.2421875 -42 M-74.2421875 42 C-74.2421875 14.296991113808613, -74.2421875 -13.406017772382775, -74.2421875 -42" stroke="#9370DB" stroke-width="1.3" fill="none" stroke-dasharray="0 0" style=""/></g><g class="annotation-group text" transform="translate(0, -18)"/><g class="label-group text" transform="translate(-62.2421875, -18)"><g class="label" style="font-weight: bolder" transform="translate(0,-12)"><foreignObject width="124.484375" height="24"><div xmlns="http://www.w3.org/1999/xhtml" style="display: table-cell; white-space: nowrap; line-height: 1.5; max-width: 154px; text-align: center;"><span class="nodeLabel markdown-node-label" style=""><p>SelfConsistency</p></span></div></foreignObject></g></g><g class="members-group text" transform="translate(-62.2421875, 30)"/><g class="methods-group text" transform="translate(-62.2421875, 60)"/><g class="divider" style=""><path d="M-74.2421875 6 C-31.35343597359151 6, 11.535315552816982 6, 74.2421875 6 M-74.2421875 6 C-37.55721771428794 6, -0.8722479285758737 6, 74.2421875 6" stroke="#9370DB" stroke-width="1.3" fill="none" stroke-dasharray="0 0" style=""/></g></g><g class="node default" id="classId-Smearing-17" transform="translate(2566.82421875, 50)"><g class="basic label-container"><path d="M-48.4609375 -42 L48.4609375 -42 L48.4609375 42 L-48.4609375 42" stroke="none" stroke-width="0" fill="#ECECFF" style=""/><path d="M-48.4609375 -42 C-27.113537310977396 -42, -5.766137121954792 -42, 48.4609375 -42 M-48.4609375 -42 C-16.956776362756827 -42, 14.547384774486346 -42, 48.4609375 -42 M48.4609375 -42 C48.4609375 -23.153899757239273, 48.4609375 -4.307799514478546, 48.4609375 42 M48.4609375 -42 C48.4609375 -19.47699143753482, 48.4609375 3.0460171249303585, 48.4609375 42 M48.4609375 42 C19.844640868534622 42, -8.771655762930756 42, -48.4609375 42 M48.4609375 42 C15.542898258040182 42, -17.375140983919636 42, -48.4609375 42 M-48.4609375 42 C-48.4609375 19.843835274265434, -48.4609375 -2.3123294514691324, -48.4609375 -42 M-48.4609375 42 C-48.4609375 15.110660816252452, -48.4609375 -11.778678367495097, -48.4609375 -42" stroke="#9370DB" stroke-width="1.3" fill="none" stroke-dasharray="0 0" style=""/></g><g class="annotation-group text" transform="translate(0, -18)"/><g class="label-group text" transform="translate(-36.4609375, -18)"><g class="label" style="font-weight: bolder" transform="translate(0,-12)"><foreignObject width="72.921875" height="24"><div xmlns="http://www.w3.org/1999/xhtml" style="display: table-cell; white-space: nowrap; line-height: 1.5; max-width: 111px; text-align: center;"><span class="nodeLabel markdown-node-label" style=""><p>Smearing</p></span></div></foreignObject></g></g><g class="members-group text" transform="translate(-36.4609375, 30)"/><g class="methods-group text" transform="translate(-36.4609375, 60)"/><g class="divider" style=""><path d="M-48.4609375 6 C-28.909021322712995 6, -9.35710514542599 6, 48.4609375 6 M-48.4609375 6 C-18.251813191639528 6, 11.957311116720945 6, 48.4609375 6" stroke="#9370DB" stroke-width="1.3" fill="none" stroke-dasharray="0 0" style=""/></g></g></g></g></g></svg>