<?xml version="1.0" encoding="UTF-8"?>
<svg id="my-svg" width="100%" xmlns="http://www.w3.org/2000/svg" xmlns:xlink="http://www.w3.org/1999/xlink" class="classDiagram" style="max-width: 827.688px; background-color: white;" viewBox="0 0 827.6875 636" role="graphics-document document" aria-roledescription="class"><style>#my-svg{font-family:"trebuchet ms",verdana,arial,sans-serif;font-size:16px;fill:#333;}@keyframes edge-animation-frame{from{stroke-dashoffset:0;}}@keyframes dash{to{stroke-dashoffset:0;}}#my-svg .edge-animation-slow{stroke-dasharray:9,5!important;stroke-dashoffset:900;animation:dash 50s linear infinite;stroke-linecap:round;}#my-svg .edge-animation-fast{stroke-dasharray:9,5!important;stroke-dashoffset:900;animation:dash 20s linear infinite;stroke-linecap:round;}#my-svg .error-icon{fill:#552222;}#my-svg .error-text{fill:#552222;stroke:#552222;}#my-svg .edge-thickness-normal{stroke-width:1px;}#my-svg .edge-thickness-thick{stroke-width:3.5px;}#my-svg .edge-pattern-solid{stroke-dasharray:0;}#my-svg .edge-thickness-invisible{stroke-width:0;fill:none;}#my-svg .edge-pattern-dashed{stroke-dasharray:3;}#my-svg .edge-pattern-dotted{stroke-dasharray:2;}#my-svg .marker{fill:#333333;stroke:#333333;}#my-svg .marker.cross{stroke:#333333;}#my-svg svg{font-family:"trebuchet ms",verdana,arial,sans-serif;font-size:16px;}#my-svg p{margin:0;}#my-svg g.classGroup text{fill:#9370DB;stroke:none;font-family:"trebuchet ms",verdana,arial,sans-serif;font-size:10px;}#my-svg g.classGroup text .title{font-weight:bolder;}#my-svg .nodeLabel,#my-svg .edgeLabel{color:#131300;}#my-svg .edgeLabel .label rect{fill:#ECECFF;}#my-svg .label text{fill:#131300;}#my-svg .labelBkg{background:#ECECFF;}#my-svg .edgeLabel .label span{background:#ECECFF;}#my-svg .classTitle{font-weight:bolder;}#my-svg .node rect,#my-svg .node circle,#my-svg .node ellipse,#my-svg .node polygon,#my-svg .node path{fill:#ECECFF;stroke:#9370DB;stroke-width:1px;}#my-svg .divider{stroke:#9370DB;stroke-width:1;}#my-svg g.clickable{cursor:pointer;}#my-svg g.classGroup rect{fill:#ECECFF;stroke:#9370DB;}#my-svg g.classGroup line{stroke:#9370DB;stroke-width:1;}#my-svg .classLabel .box{stroke:none;stroke-width:0;fill:#ECECFF;opacity:0.5;}#my-svg .classLabel .label{fill:#9370DB;font-size:10px;}#my-svg .relation{stroke:#333333;stroke-width:1;fill:none;}#my-svg .dashed-line{stroke-dasharray:3;}#my-svg .dotted-line{stroke-dasharray:1 2;}#my-svg #compositionStart,#my-svg .composition{fill:#333333!important;stroke:#333333!important;stroke-width:1;}#my-svg #compositionEnd,#my-svg .composition{fill:#333333!important;stroke:#333333!important;stroke-width:1;}#my-svg #dependencyStart,#my-svg .dependency{fill:#333333!important;stroke:#333333!important;stroke-width:1;}#my-svg #dependencyStart,#my-svg .dependency{fill:#333333!important;stroke:#333333!important;stroke-width:1;}#my-svg #extensionStart,#my-svg .extension{fill:transparent!important;stroke:#333333!important;stroke-width:1;}#my-svg #extensionEnd,#my-svg .extension{fill:transparent!important;stroke:#333333!important;stroke-width:1;}#my-svg #aggregationStart,#my-svg .aggregation{fill:transparent!important;stroke:#333333!important;stroke-width:1;}#my-svg #aggregationEnd,#my-svg .aggregation{fill:transparent!important;stroke:#333333!important;stroke-width:1;}#my-svg #lollipopStart,#my-svg .lollipop{fill:#ECECFF!important;stroke:#333333!important;stroke-width:1;}#my-svg #lollipopEnd,#my-svg .lollipop{fill:#ECECFF!important;stroke:#333333!important;stroke-width:1;}#my-svg .edgeTerminals{font-size:11px;line-height:initial;}#my-svg .classTitleText{text-anchor:middle;font-size:18px;fill:#333;}#my-svg .label-icon{display:inline-block;height:1em;overflow:visible;vertical-align:-0.125em;}#my-svg .node .label-icon path{fill:currentColor;stroke:revert;stroke-width:revert;}#my-svg :root{--mermaid-font-family:"trebuchet ms",verdana,arial,sans-serif;}</style><g><defs><marker id="my-svg_class-aggregationStart" class="marker aggregation class" refX="18" refY="7" markerWidth="190" markerHeight="240" orient="auto"><path d="M 18,7 L9,13 L1,7 L9,1 Z"/></marker></defs><defs><marker id="my-svg_class-aggregationEnd" class="marker aggregation class" refX="1" refY="7" markerWidth="20" markerHeight="28" orient="auto"><path d="M 18,7 L9,13 L1,7 L9,1 Z"/></marker></defs><defs><marker id="my-svg_class-extensionStart" class="marker extension class" refX="18" refY="7" markerWidth="190" markerHeight="240" orient="auto"><path d="M 1,7 L18,13 V 1 Z"/></marker></defs><defs><marker id="my-svg_class-extensionEnd" class="marker extension class" refX="1" refY="7" markerWidth="20" markerHeight="28" orient="auto"><path d="M 1,1 V 13 L18,7 Z"/></marker></defs><defs><marker id="my-svg_class-compositionStart" class="marker composition class" refX="18" refY="7" markerWidth="190" markerHeight="240" orient="auto"><path d="M 18,7 L9,13 L1,7 L9,1 Z"/></marker></defs><defs><marker id="my-svg_class-compositionEnd" class="marker composition class" refX="1" refY="7" markerWidth="20" markerHeight="28" orient="auto"><path d="M 18,7 L9,13 L1,7 L9,1 Z"/></marker></defs><defs><marker id="my-svg_class-dependencyStart" class="marker dependency class" refX="6" refY="7" markerWidth="190" markerHeight="240" orient="auto"><path d="M 5,7 L9,13 L1,7 L9,1 Z"/></marker></defs><defs><marker id="my-svg_class-dependencyEnd" class="marker dependency class" refX="13" refY="7" markerWidth="20" markerHeight="28" orient="auto"><path d="M 18,7 L9,13 L14,7 L9,1 Z"/></marker></defs><defs><marker id="my-svg_class-lollipopStart" class="marker lollipop class" refX="13" refY="7" markerWidth="190" markerHeight="240" orient="auto"><circle stroke="black" fill="transparent" cx="7" cy="7" r="6"/></marker></defs><defs><marker id="my-svg_class-lollipopEnd" class="marker lollipop class" refX="1" refY="7" markerWidth="190" markerHeight="240" orient="auto"><circle stroke="black" fill="transparent" cx="7" cy="7" r="6"/></marker></defs><g class="root"><g class="clusters"/><g class="edgePaths"><path d="M266.035,511.25L266.035,512.542C266.035,513.833,266.035,516.417,266.035,521.875C266.035,527.333,266.035,535.667,266.035,539.833L266.035,544" id="id_PlaneWaveBasisSet_APWPlaneWaveBasisSet_1" class="edge-thickness-normal edge-pattern-solid relation" style=";;;" data-edge="true" data-et="edge" data-id="id_PlaneWaveBasisSet_APWPlaneWaveBasisSet_1" data-points="W3sieCI6MjY2LjAzNTE1NjI1LCJ5Ijo0OTR9LHsieCI6MjY2LjAzNTE1NjI1LCJ5Ijo1MTl9LHsieCI6MjY2LjAzNTE1NjI1LCJ5Ijo1NDR9XQ==" marker-start="url(#my-svg_class-extensionStart)"/><path d="M341.171,71.218L305.531,78.849C269.89,86.479,198.609,101.739,162.969,113.536C127.328,125.333,127.328,133.667,127.328,137.833L127.328,142" id="id_NumericalSettings_ForceCalculations_2" class="edge-thickness-normal edge-pattern-solid relation" style=";;;" data-edge="true" data-et="edge" data-id="id_NumericalSettings_ForceCalculations_2" data-points="W3sieCI6MzU4LjAzOTA2MjUsInkiOjY3LjYwNzE5NDU2Nzg3NjU4fSx7IngiOjEyNy4zMjgxMjUsInkiOjExN30seyJ4IjoxMjcuMzI4MTI1LCJ5IjoxNDJ9XQ==" marker-start="url(#my-svg_class-extensionStart)"/><path d="M441.828,243.25L441.828,244.542C441.828,245.833,441.828,248.417,441.206,253.875C440.584,259.333,439.341,267.667,438.719,271.833L438.097,276" id="id_Mesh_KMesh_3" class="edge-thickness-normal edge-pattern-solid relation" style=";;;" data-edge="true" data-et="edge" data-id="id_Mesh_KMesh_3" data-points="W3sieCI6NDQxLjgyODEyNSwieSI6MjI2fSx7IngiOjQ0MS44MjgxMjUsInkiOjI1MX0seyJ4Ijo0MzguMDk2NzgxNzE2NDE3OSwieSI6Mjc2fV0=" marker-start="url(#my-svg_class-extensionStart)"/><path d="M342.474,96.724L335.4,100.104C328.326,103.483,314.179,110.241,307.105,117.787C300.031,125.333,300.031,133.667,300.031,137.833L300.031,142" id="id_NumericalSettings_KSpace_4" class="edge-thickness-normal edge-pattern-solid relation" style=";;;" data-edge="true" data-et="edge" data-id="id_NumericalSettings_KSpace_4" data-points="W3sieCI6MzU4LjAzOTA2MjUsInkiOjg5LjI4ODYwMjk0MTE3NjQ2fSx7IngiOjMwMC4wMzEyNSwieSI6MTE3fSx7IngiOjMwMC4wMzEyNSwieSI6MTQyfV0=" marker-start="url(#my-svg_class-extensionStart)"/><path d="M98.234,377.25L98.234,378.542C98.234,379.833,98.234,382.417,111.577,389.036C124.921,395.655,151.607,406.311,164.95,411.638L178.293,416.966" id="id_BasisSetComponent_PlaneWaveBasisSet_5" class="edge-thickness-normal edge-pattern-solid relation" style=";;;" data-edge="true" data-et="edge" data-id="id_BasisSetComponent_PlaneWaveBasisSet_5" data-points="W3sieCI6OTguMjM0Mzc1LCJ5IjozNjB9LHsieCI6OTguMjM0Mzc1LCJ5IjozODV9LHsieCI6MTc4LjI5Mjk2ODc1LCJ5Ijo0MTYuOTY2MDM1ODAzMjQ1MX1d" marker-start="url(#my-svg_class-extensionStart)"/><path d="M431.828,377.25L431.828,378.542C431.828,379.833,431.828,382.417,418.82,388.965C405.811,395.514,379.794,406.028,366.786,411.285L353.777,416.542" id="id_KMesh_PlaneWaveBasisSet_6" class="edge-thickness-normal edge-pattern-solid relation" style=";;;" data-edge="true" data-et="edge" data-id="id_KMesh_PlaneWaveBasisSet_6" data-points="W3sieCI6NDMxLjgyODEyNSwieSI6MzYwfSx7IngiOjQzMS44MjgxMjUsInkiOjM4NX0seyJ4IjozNTMuNzc3MzQzNzUsInkiOjQxNi41NDE3NjE4OTI0MjA0fV0=" marker-start="url(#my-svg_class-extensionStart)"/><path d="M538.408,91.547L548.427,95.789C558.447,100.031,578.485,108.516,588.504,116.925C598.523,125.333,598.523,133.667,598.523,137.833L598.523,142" id="id_NumericalSettings_SelfConsistency_7" class="edge-thickness-normal edge-pattern-solid relation" style=";;;" data-edge="true" data-et="edge" data-id="id_NumericalSettings_SelfConsistency_7" data-points="W3sieCI6NTIyLjUyMzQzNzUsInkiOjg0LjgyMTQ3NjE3ODcyMTN9LHsieCI6NTk4LjUyMzQzNzUsInkiOjExN30seyJ4Ijo1OTguNTIzNDM3NSwieSI6MTQyfV0=" marker-start="url(#my-svg_class-extensionStart)"/><path d="M539.43,70.073L578.063,77.894C616.696,85.715,693.961,101.358,732.594,113.345C771.227,125.333,771.227,133.667,771.227,137.833L771.227,142" id="id_NumericalSettings_Smearing_8" class="edge-thickness-normal edge-pattern-solid relation" style=";;;" data-edge="true" data-et="edge" data-id="id_NumericalSettings_Smearing_8" data-points="W3sieCI6NTIyLjUyMzQzNzUsInkiOjY2LjY0OTk2MTA0OTA3ODE2fSx7IngiOjc3MS4yMjY1NjI1LCJ5IjoxMTd9LHsieCI6NzcxLjIyNjU2MjUsInkiOjE0Mn1d" marker-start="url(#my-svg_class-extensionStart)"/><path d="M293.763,226L293.141,230.167C292.519,234.333,291.275,242.667,290.653,250C290.031,257.333,290.031,263.667,290.031,266.833L290.031,270" id="id_KSpace_KLinePath_9" class="edge-thickness-normal edge-pattern-solid relation" style=";;;" data-edge="true" data-et="edge" data-id="id_KSpace_KLinePath_9" data-points="W3sieCI6MjkzLjc2MjU5MzI4MzU4MjEsInkiOjIyNn0seyJ4IjoyOTAuMDMxMjUsInkiOjI1MX0seyJ4IjoyOTAuMDMxMjUsInkiOjI3Nn1d" marker-end="url(#my-svg_class-dependencyEnd)"/><path d="M341.383,223.639L346.14,228.199C350.897,232.759,360.411,241.88,368.436,249.976C376.46,258.073,382.995,265.146,386.263,268.682L389.53,272.219" id="id_KSpace_KMesh_10" class="edge-thickness-normal edge-pattern-solid relation" style=";;;" data-edge="true" data-et="edge" data-id="id_KSpace_KMesh_10" data-points="W3sieCI6MzQxLjM4MjgxMjUsInkiOjIyMy42MzkwNzY3MzM5MTgzfSx7IngiOjM2OS45MjU3ODEyNSwieSI6MjUxfSx7IngiOjM5My42MDE1NjI1LCJ5IjoyNzYuNjI1NDgxMTYzNjI3MTd9XQ==" marker-end="url(#my-svg_class-dependencyEnd)"/></g><g class="edgeLabels"><g class="edgeLabel"><g class="label" data-id="id_PlaneWaveBasisSet_APWPlaneWaveBasisSet_1" transform="translate(0, 0)"><foreignObject width="0" height="0"><div xmlns="http://www.w3.org/1999/xhtml" class="labelBkg" style="display: table-cell; white-space: nowrap; line-height: 1.5; max-width: 200px; text-align: center;"><span class="edgeLabel"></span></div></foreignObject></g></g><g class="edgeLabel"><g class="label" data-id="id_NumericalSettings_ForceCalculations_2" transform="translate(0, 0)"><foreignObject width="0" height="0"><div xmlns="http://www.w3.org/1999/xhtml" class="labelBkg" style="display: table-cell; white-space: nowrap; line-height: 1.5; max-width: 200px; text-align: center;"><span class="edgeLabel"></span></div></foreignObject></g></g><g class="edgeLabel"><g class="label" data-id="id_Mesh_KMesh_3" transform="translate(0, 0)"><foreignObject width="0" height="0"><div xmlns="http://www.w3.org/1999/xhtml" class="labelBkg" style="display: table-cell; white-space: nowrap; line-height: 1.5; max-width: 200px; text-align: center;"><span class="edgeLabel"></span></div></foreignObject></g></g><g class="edgeLabel"><g class="label" data-id="id_NumericalSettings_KSpace_4" transform="translate(0, 0)"><foreignObject width="0" height="0"><div xmlns="http://www.w3.org/1999/xhtml" class="labelBkg" style="display: table-cell; white-space: nowrap; line-height: 1.5; max-width: 200px; text-align: center;"><span class="edgeLabel"></span></div></foreignObject></g></g><g class="edgeLabel"><g class="label" data-id="id_BasisSetComponent_PlaneWaveBasisSet_5" transform="translate(0, 0)"><foreignObject width="0" height="0"><div xmlns="http://www.w3.org/1999/xhtml" class="labelBkg" style="display: table-cell; white-space: nowrap; line-height: 1.5; max-width: 200px; text-align: center;"><span class="edgeLabel"></span></div></foreignObject></g></g><g class="edgeLabel"><g class="label" data-id="id_KMesh_PlaneWaveBasisSet_6" transform="translate(0, 0)"><foreignObject width="0" height="0"><div xmlns="http://www.w3.org/1999/xhtml" class="labelBkg" style="display: table-cell; white-space: nowrap; line-height: 1.5; max-width: 200px; text-align: center;"><span class="edgeLabel"></span></div></foreignObject></g></g><g class="edgeLabel"><g class="label" data-id="id_NumericalSettings_SelfConsistency_7" transform="translate(0, 0)"><foreignObject width="0" height="0"><div xmlns="http://www.w3.org/1999/xhtml" class="labelBkg" style="display: table-cell; white-space: nowrap; line-height: 1.5; max-width: 200px; text-align: center;"><span class="edgeLabel"></span></div></foreignObject></g></g><g class="edgeLabel"><g class="label" data-id="id_NumericalSettings_Smearing_8" transform="translate(0, 0)"><foreignObject width="0" height="0"><div xmlns="http://www.w3.org/1999/xhtml" class="labelBkg" style="display: table-cell; white-space: nowrap; line-height: 1.5; max-width: 200px; text-align: center;"><span class="edgeLabel"></span></div></foreignObject></g></g><g class="edgeLabel"><g class="label" data-id="id_KSpace_KLinePath_9" transform="translate(0, 0)"><foreignObject width="0" height="0"><div xmlns="http://www.w3.org/1999/xhtml" class="labelBkg" style="display: table-cell; white-space: nowrap; line-height: 1.5; max-width: 200px; text-align: center;"><span class="edgeLabel"></span></div></foreignObject></g></g><g class="edgeLabel"><g class="label" data-id="id_KSpace_KMesh_10" transform="translate(0, 0)"><foreignObject width="0" height="0"><div xmlns="http://www.w3.org/1999/xhtml" class="labelBkg" style="display: table-cell; white-space: nowrap; line-height: 1.5; max-width: 200px; text-align: center;"><span class="edgeLabel"></span></div></foreignObject></g></g></g><g class="nodes"><g class="node default" id="classId-APWPlaneWaveBasisSet-0" transform="translate(266.03515625, 586)"><g class="basic label-container"><path d="M-106.40625 -42 L106.40625 -42 L106.40625 42 L-106.40625 42" stroke="none" stroke-width="0" fill="#ECECFF" style=""/><path d="M-106.40625 -42 C-44.52671164774485 -42, 17.352826704510306 -42, 106.40625 -42 M-106.40625 -42 C-41.96906669196164 -42, 22.468116616076713 -42, 106.40625 -42 M106.40625 -42 C106.40625 -24.95633590681045, 106.40625 -7.9126718136209035, 106.40625 42 M106.40625 -42 C106.40625 -12.184066856177875, 106.40625 17.63186628764425, 106.40625 42 M106.40625 42 C29.874129456295407 42, -46.65799108740919 42, -106.40625 42 M106.40625 42 C48.102950335482745 42, -10.200349329034509 42, -106.40625 42 M-106.40625 42 C-106.40625 10.079869097228336, -106.40625 -21.840261805543328, -106.40625 -42 M-106.40625 42 C-106.40625 18.89665356102167, -106.40625 -4.206692877956662, -106.40625 -42" stroke="#9370DB" stroke-width="1.3" fill="none" stroke-dasharray="0 0" style=""/></g><g class="annotation-group text" transform="translate(0, -18)"/><g class="label-group text" transform="translate(-94.40625, -18)"><g class="label" style="font-weight: bolder" transform="translate(0,-12)"><foreignObject width="188.8125" height="24"><div xmlns="http://www.w3.org/1999/xhtml" style="display: table-cell; white-space: nowrap; line-height: 1.5; max-width: 213px; text-align: center;"><span class="nodeLabel markdown-node-label" style=""><p>APWPlaneWaveBasisSet</p></span></div></foreignObject></g></g><g class="members-group text" transform="translate(-94.40625, 30)"/><g class="methods-group text" transform="translate(-94.40625, 60)"/><g class="divider" style=""><path d="M-106.40625 6 C-61.2765923501482 6, -16.1469347002964 6, 106.40625 6 M-106.40625 6 C-46.172440895900216 6, 14.061368208199568 6, 106.40625 6" stroke="#9370DB" stroke-width="1.3" fill="none" stroke-dasharray="0 0" style=""/></g></g><g class="node default" id="classId-BasisSetComponent-1" transform="translate(98.234375, 318)"><g class="basic label-container"><path d="M-90.234375 -42 L90.234375 -42 L90.234375 42 L-90.234375 42" stroke="none" stroke-width="0" fill="#ECECFF" style=""/><path d="M-90.234375 -42 C-20.988843893606827 -42, 48.256687212786346 -42, 90.234375 -42 M-90.234375 -42 C-25.71012482528809 -42, 38.81412534942382 -42, 90.234375 -42 M90.234375 -42 C90.234375 -12.698528782456854, 90.234375 16.60294243508629, 90.234375 42 M90.234375 -42 C90.234375 -21.754155953627055, 90.234375 -1.508311907254111, 90.234375 42 M90.234375 42 C52.190745012600466 42, 14.147115025200932 42, -90.234375 42 M90.234375 42 C44.91395544316491 42, -0.4064641136701823 42, -90.234375 42 M-90.234375 42 C-90.234375 16.965918237389378, -90.234375 -8.068163525221244, -90.234375 -42 M-90.234375 42 C-90.234375 13.819200605770892, -90.234375 -14.361598788458217, -90.234375 -42" stroke="#9370DB" stroke-width="1.3" fill="none" stroke-dasharray="0 0" style=""/></g><g class="annotation-group text" transform="translate(0, -18)"/><g class="label-group text" transform="translate(-78.234375, -18)"><g class="label" style="font-weight: bolder" transform="translate(0,-12)"><foreignObject width="156.46875" height="24"><div xmlns="http://www.w3.org/1999/xhtml" style="display: table-cell; white-space: nowrap; line-height: 1.5; max-width: 180px; text-align: center;"><span class="nodeLabel markdown-node-label" style=""><p>BasisSetComponent</p></span></div></foreignObject></g></g><g class="members-group text" transform="translate(-78.234375, 30)"/><g class="methods-group text" transform="translate(-78.234375, 60)"/><g class="divider" style=""><path d="M-90.234375 6 C-23.00622213317483 6, 44.22193073365034 6, 90.234375 6 M-90.234375 6 C-50.139990519312256 6, -10.045606038624513 6, 90.234375 6" stroke="#9370DB" stroke-width="1.3" fill="none" stroke-dasharray="0 0" style=""/></g></g><g class="node default" id="classId-ForceCalculations-2" transform="translate(127.328125, 184)"><g class="basic label-container"><path d="M-81.3515625 -42 L81.3515625 -42 L81.3515625 42 L-81.3515625 42" stroke="none" stroke-width="0" fill="#ECECFF" style=""/><path d="M-81.3515625 -42 C-22.115140121730605 -42, 37.12128225653879 -42, 81.3515625 -42 M-81.3515625 -42 C-19.33647220083506 -42, 42.67861809832988 -42, 81.3515625 -42 M81.3515625 -42 C81.3515625 -18.528116785461965, 81.3515625 4.943766429076071, 81.3515625 42 M81.3515625 -42 C81.3515625 -15.27474455274664, 81.3515625 11.45051089450672, 81.3515625 42 M81.3515625 42 C44.58753560596914 42, 7.823508711938274 42, -81.3515625 42 M81.3515625 42 C27.807665457901606 42, -25.736231584196787 42, -81.3515625 42 M-81.3515625 42 C-81.3515625 15.944885094712102, -81.3515625 -10.110229810575795, -81.3515625 -42 M-81.3515625 42 C-81.3515625 24.32872594568643, -81.3515625 6.657451891372858, -81.3515625 -42" stroke="#9370DB" stroke-width="1.3" fill="none" stroke-dasharray="0 0" style=""/></g><g class="annotation-group text" transform="translate(0, -18)"/><g class="label-group text" transform="translate(-69.3515625, -18)"><g class="label" style="font-weight: bolder" transform="translate(0,-12)"><foreignObject width="138.703125" height="24"><div xmlns="http://www.w3.org/1999/xhtml" style="display: table-cell; white-space: nowrap; line-height: 1.5; max-width: 166px; text-align: center;"><span class="nodeLabel markdown-node-label" style=""><p>ForceCalculations</p></span></div></foreignObject></g></g><g class="members-group text" transform="translate(-69.3515625, 30)"/><g class="methods-group text" transform="translate(-69.3515625, 60)"/><g class="divider" style=""><path d="M-81.3515625 6 C-27.68999744280851 6, 25.971567614382977 6, 81.3515625 6 M-81.3515625 6 C-47.155041100742196 6, -12.958519701484391 6, 81.3515625 6" stroke="#9370DB" stroke-width="1.3" fill="none" stroke-dasharray="0 0" style=""/></g></g><g class="node default" id="classId-KLinePath-3" transform="translate(290.03125, 318)"><g class="basic label-container"><path d="M-51.5625 -42 L51.5625 -42 L51.5625 42 L-51.5625 42" stroke="none" stroke-width="0" fill="#ECECFF" style=""/><path d="M-51.5625 -42 C-30.253635139947118 -42, -8.944770279894236 -42, 51.5625 -42 M-51.5625 -42 C-28.250575085413743 -42, -4.938650170827486 -42, 51.5625 -42 M51.5625 -42 C51.5625 -19.31146265814778, 51.5625 3.3770746837044427, 51.5625 42 M51.5625 -42 C51.5625 -15.116972425616211, 51.5625 11.766055148767578, 51.5625 42 M51.5625 42 C14.688534541395526 42, -22.185430917208947 42, -51.5625 42 M51.5625 42 C11.442470942596913 42, -28.677558114806175 42, -51.5625 42 M-51.5625 42 C-51.5625 25.01327245736523, -51.5625 8.026544914730458, -51.5625 -42 M-51.5625 42 C-51.5625 12.928443245146944, -51.5625 -16.14311350970611, -51.5625 -42" stroke="#9370DB" stroke-width="1.3" fill="none" stroke-dasharray="0 0" style=""/></g><g class="annotation-group text" transform="translate(0, -18)"/><g class="label-group text" transform="translate(-39.5625, -18)"><g class="label" style="font-weight: bolder" transform="translate(0,-12)"><foreignObject width="79.125" height="24"><div xmlns="http://www.w3.org/1999/xhtml" style="display: table-cell; white-space: nowrap; line-height: 1.5; max-width: 119px; text-align: center;"><span class="nodeLabel markdown-node-label" style=""><p>KLinePath</p></span></div></foreignObject></g></g><g class="members-group text" transform="translate(-39.5625, 30)"/><g class="methods-group text" transform="translate(-39.5625, 60)"/><g class="divider" style=""><path d="M-51.5625 6 C-16.82179536823189 6, 17.91890926353622 6, 51.5625 6 M-51.5625 6 C-30.25025489171908 6, -8.938009783438162 6, 51.5625 6" stroke="#9370DB" stroke-width="1.3" fill="none" stroke-dasharray="0 0" style=""/></g></g><g class="node default" id="classId-KMesh-4" transform="translate(431.828125, 318)"><g class="basic label-container"><path d="M-38.2265625 -42 L38.2265625 -42 L38.2265625 42 L-38.2265625 42" stroke="none" stroke-width="0" fill="#ECECFF" style=""/><path d="M-38.2265625 -42 C-20.115234782251303 -42, -2.003907064502606 -42, 38.2265625 -42 M-38.2265625 -42 C-8.443086417391434 -42, 21.34038966521713 -42, 38.2265625 -42 M38.2265625 -42 C38.2265625 -18.7672469512944, 38.2265625 4.4655060974112, 38.2265625 42 M38.2265625 -42 C38.2265625 -21.211611787178658, 38.2265625 -0.4232235743573156, 38.2265625 42 M38.2265625 42 C9.221429121493433 42, -19.783704257013135 42, -38.2265625 42 M38.2265625 42 C12.917832879134778 42, -12.390896741730444 42, -38.2265625 42 M-38.2265625 42 C-38.2265625 11.286421308459886, -38.2265625 -19.427157383080228, -38.2265625 -42 M-38.2265625 42 C-38.2265625 19.99218037772631, -38.2265625 -2.01563924454738, -38.2265625 -42" stroke="#9370DB" stroke-width="1.3" fill="none" stroke-dasharray="0 0" style=""/></g><g class="annotation-group text" transform="translate(0, -18)"/><g class="label-group text" transform="translate(-26.2265625, -18)"><g class="label" style="font-weight: bolder" transform="translate(0,-12)"><foreignObject width="52.453125" height="24"><div xmlns="http://www.w3.org/1999/xhtml" style="display: table-cell; white-space: nowrap; line-height: 1.5; max-width: 97px; text-align: center;"><span class="nodeLabel markdown-node-label" style=""><p>KMesh</p></span></div></foreignObject></g></g><g class="members-group text" transform="translate(-26.2265625, 30)"/><g class="methods-group text" transform="translate(-26.2265625, 60)"/><g class="divider" style=""><path d="M-38.2265625 6 C-9.594016428658058 6, 19.038529642683883 6, 38.2265625 6 M-38.2265625 6 C-21.433339857029654 6, -4.640117214059309 6, 38.2265625 6" stroke="#9370DB" stroke-width="1.3" fill="none" stroke-dasharray="0 0" style=""/></g></g><g class="node default" id="classId-KSpace-5" transform="translate(300.03125, 184)"><g class="basic label-container"><path d="M-41.3515625 -42 L41.3515625 -42 L41.3515625 42 L-41.3515625 42" stroke="none" stroke-width="0" fill="#ECECFF" style=""/><path d="M-41.3515625 -42 C-13.901209034844385 -42, 13.54914443031123 -42, 41.3515625 -42 M-41.3515625 -42 C-10.684014989112423 -42, 19.983532521775153 -42, 41.3515625 -42 M41.3515625 -42 C41.3515625 -12.621276600637962, 41.3515625 16.757446798724075, 41.3515625 42 M41.3515625 -42 C41.3515625 -15.838775859056017, 41.3515625 10.322448281887965, 41.3515625 42 M41.3515625 42 C20.051356278228187 42, -1.2488499435436253 42, -41.3515625 42 M41.3515625 42 C20.880532727545322 42, 0.4095029550906446 42, -41.3515625 42 M-41.3515625 42 C-41.3515625 15.697856426306892, -41.3515625 -10.604287147386216, -41.3515625 -42 M-41.3515625 42 C-41.3515625 17.861902476951, -41.3515625 -6.276195046098003, -41.3515625 -42" stroke="#9370DB" stroke-width="1.3" fill="none" stroke-dasharray="0 0" style=""/></g><g class="annotation-group text" transform="translate(0, -18)"/><g class="label-group text" transform="translate(-29.3515625, -18)"><g class="label" style="font-weight: bolder" transform="translate(0,-12)"><foreignObject width="58.703125" height="24"><div xmlns="http://www.w3.org/1999/xhtml" style="display: table-cell; white-space: nowrap; line-height: 1.5; max-width: 100px; text-align: center;"><span class="nodeLabel markdown-node-label" style=""><p>KSpace</p></span></div></foreignObject></g></g><g class="members-group text" transform="translate(-29.3515625, 30)"/><g class="methods-group text" transform="translate(-29.3515625, 60)"/><g class="divider" style=""><path d="M-41.3515625 6 C-17.080241127869492 6, 7.191080244261016 6, 41.3515625 6 M-41.3515625 6 C-12.46901697722673 6, 16.41352854554654 6, 41.3515625 6" stroke="#9370DB" stroke-width="1.3" fill="none" stroke-dasharray="0 0" style=""/></g></g><g class="node default" id="classId-Mesh-6" transform="translate(441.828125, 184)"><g class="basic label-container"><path d="M-32.453125 -42 L32.453125 -42 L32.453125 42 L-32.453125 42" stroke="none" stroke-width="0" fill="#ECECFF" style=""/><path d="M-32.453125 -42 C-15.692019438381191 -42, 1.0690861232376179 -42, 32.453125 -42 M-32.453125 -42 C-8.923311266504879 -42, 14.606502466990243 -42, 32.453125 -42 M32.453125 -42 C32.453125 -17.635227221675006, 32.453125 6.729545556649988, 32.453125 42 M32.453125 -42 C32.453125 -20.027908820861207, 32.453125 1.9441823582775868, 32.453125 42 M32.453125 42 C13.417702633839642 42, -5.617719732320715 42, -32.453125 42 M32.453125 42 C14.377725644743606 42, -3.697673710512788 42, -32.453125 42 M-32.453125 42 C-32.453125 16.814789608486592, -32.453125 -8.370420783026816, -32.453125 -42 M-32.453125 42 C-32.453125 11.394312376833351, -32.453125 -19.211375246333297, -32.453125 -42" stroke="#9370DB" stroke-width="1.3" fill="none" stroke-dasharray="0 0" style=""/></g><g class="annotation-group text" transform="translate(0, -18)"/><g class="label-group text" transform="translate(-20.453125, -18)"><g class="label" style="font-weight: bolder" transform="translate(0,-12)"><foreignObject width="40.90625" height="24"><div xmlns="http://www.w3.org/1999/xhtml" style="display: table-cell; white-space: nowrap; line-height: 1.5; max-width: 86px; text-align: center;"><span class="nodeLabel markdown-node-label" style=""><p>Mesh</p></span></div></foreignObject></g></g><g class="members-group text" transform="translate(-20.453125, 30)"/><g class="methods-group text" transform="translate(-20.453125, 60)"/><g class="divider" style=""><path d="M-32.453125 6 C-9.530747060118397 6, 13.391630879763206 6, 32.453125 6 M-32.453125 6 C-12.557586212849838 6, 7.337952574300324 6, 32.453125 6" stroke="#9370DB" stroke-width="1.3" fill="none" stroke-dasharray="0 0" style=""/></g></g><g class="node default" id="classId-NumericalSettings-7" transform="translate(440.28125, 50)"><g class="basic label-container"><path d="M-82.2421875 -42 L82.2421875 -42 L82.2421875 42 L-82.2421875 42" stroke="none" stroke-width="0" fill="#ECECFF" style=""/><path d="M-82.2421875 -42 C-24.14173792799601 -42, 33.95871164400798 -42, 82.2421875 -42 M-82.2421875 -42 C-16.50403107248117 -42, 49.23412535503766 -42, 82.2421875 -42 M82.2421875 -42 C82.2421875 -21.667489838034246, 82.2421875 -1.3349796760684924, 82.2421875 42 M82.2421875 -42 C82.2421875 -21.558112675412076, 82.2421875 -1.116225350824152, 82.2421875 42 M82.2421875 42 C44.36092833753753 42, 6.47966917507506 42, -82.2421875 42 M82.2421875 42 C41.505082784845605 42, 0.7679780696912104 42, -82.2421875 42 M-82.2421875 42 C-82.2421875 10.84404712702311, -82.2421875 -20.31190574595378, -82.2421875 -42 M-82.2421875 42 C-82.2421875 20.093265304473572, -82.2421875 -1.8134693910528554, -82.2421875 -42" stroke="#9370DB" stroke-width="1.3" fill="none" stroke-dasharray="0 0" style=""/></g><g class="annotation-group text" transform="translate(0, -18)"/><g class="label-group text" transform="translate(-70.2421875, -18)"><g class="label" style="font-weight: bolder" transform="translate(0,-12)"><foreignObject width="140.484375" height="24"><div xmlns="http://www.w3.org/1999/xhtml" style="display: table-cell; white-space: nowrap; line-height: 1.5; max-width: 169px; text-align: center;"><span class="nodeLabel markdown-node-label" style=""><p>NumericalSettings</p></span></div></foreignObject></g></g><g class="members-group text" transform="translate(-70.2421875, 30)"/><g class="methods-group text" transform="translate(-70.2421875, 60)"/><g class="divider" style=""><path d="M-82.2421875 6 C-45.41479510701446 6, -8.587402714028926 6, 82.2421875 6 M-82.2421875 6 C-49.15571655519778 6, -16.069245610395555 6, 82.2421875 6" stroke="#9370DB" stroke-width="1.3" fill="none" stroke-dasharray="0 0" style=""/></g></g><g class="node default" id="classId-PlaneWaveBasisSet-8" transform="translate(266.03515625, 452)"><g class="basic label-container"><path d="M-87.7421875 -42 L87.7421875 -42 L87.7421875 42 L-87.7421875 42" stroke="none" stroke-width="0" fill="#ECECFF" style=""/><path d="M-87.7421875 -42 C-32.888108886102486 -42, 21.965969727795027 -42, 87.7421875 -42 M-87.7421875 -42 C-24.055877013513047 -42, 39.630433472973905 -42, 87.7421875 -42 M87.7421875 -42 C87.7421875 -16.258379352905205, 87.7421875 9.48324129418959, 87.7421875 42 M87.7421875 -42 C87.7421875 -11.521063122525234, 87.7421875 18.95787375494953, 87.7421875 42 M87.7421875 42 C38.56681331683107 42, -10.608560866337854 42, -87.7421875 42 M87.7421875 42 C49.92185770698928 42, 12.101527913978558 42, -87.7421875 42 M-87.7421875 42 C-87.7421875 13.815366065001825, -87.7421875 -14.36926786999635, -87.7421875 -42 M-87.7421875 42 C-87.7421875 20.84826175516739, -87.7421875 -0.303476489665222, -87.7421875 -42" stroke="#9370DB" stroke-width="1.3" fill="none" stroke-dasharray="0 0" style=""/></g><g class="annotation-group text" transform="translate(0, -18)"/><g class="label-group text" transform="translate(-75.7421875, -18)"><g class="label" style="font-weight: bolder" transform="translate(0,-12)"><foreignObject width="151.484375" height="24"><div xmlns="http://www.w3.org/1999/xhtml" style="display: table-cell; white-space: nowrap; line-height: 1.5; max-width: 177px; text-align: center;"><span class="nodeLabel markdown-node-label" style=""><p>PlaneWaveBasisSet</p></span></div></foreignObject></g></g><g class="members-group text" transform="translate(-75.7421875, 30)"/><g class="methods-group text" transform="translate(-75.7421875, 60)"/><g class="divider" style=""><path d="M-87.7421875 6 C-40.72708363183629 6, 6.2880202363274265 6, 87.7421875 6 M-87.7421875 6 C-28.370042239754717 6, 31.002103020490566 6, 87.7421875 6" stroke="#9370DB" stroke-width="1.3" fill="none" stroke-dasharray="0 0" style=""/></g></g><g class="node default" id="classId-SelfConsistency-9" transform="translate(598.5234375, 184)"><g class="basic label-container"><path d="M-74.2421875 -42 L74.2421875 -42 L74.2421875 42 L-74.2421875 42" stroke="none" stroke-width="0" fill="#ECECFF" style=""/><path d="M-74.2421875 -42 C-17.43975719832615 -42, 39.3626731033477 -42, 74.2421875 -42 M-74.2421875 -42 C-23.462447160841926 -42, 27.31729317831615 -42, 74.2421875 -42 M74.2421875 -42 C74.2421875 -24.219028736798776, 74.2421875 -6.438057473597553, 74.2421875 42 M74.2421875 -42 C74.2421875 -18.15074005114564, 74.2421875 5.698519897708721, 74.2421875 42 M74.2421875 42 C29.158934127571662 42, -15.924319244856676 42, -74.2421875 42 M74.2421875 42 C31.874714643432966 42, -10.492758213134067 42, -74.2421875 42 M-74.2421875 42 C-74.2421875 16.144041245794103, -74.2421875 -9.711917508411794, -74.2421875 -42 M-74.2421875 42 C-74.2421875 12.330045497874472, -74.2421875 -17.339909004251055, -74.2421875 -42" stroke="#9370DB" stroke-width="1.3" fill="none" stroke-dasharray="0 0" style=""/></g><g class="annotation-group text" transform="translate(0, -18)"/><g class="label-group text" transform="translate(-62.2421875, -18)"><g class="label" style="font-weight: bolder" transform="translate(0,-12)"><foreignObject width="124.484375" height="24"><div xmlns="http://www.w3.org/1999/xhtml" style="display: table-cell; white-space: nowrap; line-height: 1.5; max-width: 154px; text-align: center;"><span class="nodeLabel markdown-node-label" style=""><p>SelfConsistency</p></span></div></foreignObject></g></g><g class="members-group text" transform="translate(-62.2421875, 30)"/><g class="methods-group text" transform="translate(-62.2421875, 60)"/><g class="divider" style=""><path d="M-74.2421875 6 C-28.705289471362263 6, 16.831608557275473 6, 74.2421875 6 M-74.2421875 6 C-16.47435253203016 6, 41.29348243593968 6, 74.2421875 6" stroke="#9370DB" stroke-width="1.3" fill="none" stroke-dasharray="0 0" style=""/></g></g><g class="node default" id="classId-Smearing-10" transform="translate(771.2265625, 184)"><g class="basic label-container"><path d="M-48.4609375 -42 L48.4609375 -42 L48.4609375 42 L-48.4609375 42" stroke="none" stroke-width="0" fill="#ECECFF" style=""/><path d="M-48.4609375 -42 C-25.596745590714644 -42, -2.7325536814292875 -42, 48.4609375 -42 M-48.4609375 -42 C-13.60469756423251 -42, 21.25154237153498 -42, 48.4609375 -42 M48.4609375 -42 C48.4609375 -10.12398757275016, 48.4609375 21.75202485449968, 48.4609375 42 M48.4609375 -42 C48.4609375 -17.5812765008481, 48.4609375 6.837446998303797, 48.4609375 42 M48.4609375 42 C11.278655152866925 42, -25.90362719426615 42, -48.4609375 42 M48.4609375 42 C16.8631165560807 42, -14.734704387838597 42, -48.4609375 42 M-48.4609375 42 C-48.4609375 24.14872002408661, -48.4609375 6.297440048173222, -48.4609375 -42 M-48.4609375 42 C-48.4609375 13.209310118857665, -48.4609375 -15.58137976228467, -48.4609375 -42" stroke="#9370DB" stroke-width="1.3" fill="none" stroke-dasharray="0 0" style=""/></g><g class="annotation-group text" transform="translate(0, -18)"/><g class="label-group text" transform="translate(-36.4609375, -18)"><g class="label" style="font-weight: bolder" transform="translate(0,-12)"><foreignObject width="72.921875" height="24"><div xmlns="http://www.w3.org/1999/xhtml" style="display: table-cell; white-space: nowrap; line-height: 1.5; max-width: 111px; text-align: center;"><span class="nodeLabel markdown-node-label" style=""><p>Smearing</p></span></div></foreignObject></g></g><g class="members-group text" transform="translate(-36.4609375, 30)"/><g class="methods-group text" transform="translate(-36.4609375, 60)"/><g class="divider" style=""><path d="M-48.4609375 6 C-14.7252015558662 6, 19.0105343882676 6, 48.4609375 6 M-48.4609375 6 C-9.823696291073794 6, 28.81354491785241 6, 48.4609375 6" stroke="#9370DB" stroke-width="1.3" fill="none" stroke-dasharray="0 0" style=""/></g></g></g></g></g></svg>