<?xml version="1.0" encoding="UTF-8"?>
<svg id="my-svg" width="100%" xmlns="http://www.w3.org/2000/svg" xmlns:xlink="http://www.w3.org/1999/xlink" class="classDiagram" style="max-width: 324.084px; background-color: white;" viewBox="0 0 324.0835876464844 332.1499938964844" role="graphics-document document" aria-roledescription="class"><style>#my-svg{font-family:"trebuchet ms",verdana,arial,sans-serif;font-size:16px;fill:#333;}@keyframes edge-animation-frame{from{stroke-dashoffset:0;}}@keyframes dash{to{stroke-dashoffset:0;}}#my-svg .edge-animation-slow{stroke-dasharray:9,5!important;stroke-dashoffset:900;animation:dash 50s linear infinite;stroke-linecap:round;}#my-svg .edge-animation-fast{stroke-dasharray:9,5!important;stroke-dashoffset:900;animation:dash 20s linear infinite;stroke-linecap:round;}#my-svg .error-icon{fill:#552222;}#my-svg .error-text{fill:#552222;stroke:#552222;}#my-svg .edge-thickness-normal{stroke-width:1px;}#my-svg .edge-thickness-thick{stroke-width:3.5px;}#my-svg .edge-pattern-solid{stroke-dasharray:0;}#my-svg .edge-thickness-invisible{stroke-width:0;fill:none;}#my-svg .edge-pattern-dashed{stroke-dasharray:3;}#my-svg .edge-pattern-dotted{stroke-dasharray:2;}#my-svg .marker{fill:#333333;stroke:#333333;}#my-svg .marker.cross{stroke:#333333;}#my-svg svg{font-family:"trebuchet ms",verdana,arial,sans-serif;font-size:16px;}#my-svg p{margin:0;}#my-svg g.classGroup text{fill:#9370DB;stroke:none;font-family:"trebuchet ms",verdana,arial,sans-serif;font-size:10px;}#my-svg g.classGroup text .title{font-weight:bolder;}#my-svg .nodeLabel,#my-svg .edgeLabel{color:#131300;}#my-svg .edgeLabel .label rect{fill:#ECECFF;}#my-svg .label text{fill:#131300;}#my-svg .labelBkg{background:#ECECFF;}#my-svg .edgeLabel .label span{background:#ECECFF;}#my-svg .classTitle{font-weight:bolder;}#my-svg .node rect,#my-svg .node circle,#my-svg .node ellipse,#my-svg .node polygon,#my-svg .node path{fill:#ECECFF;stroke:#9370DB;stroke-width:1px;}#my-svg .divider{stroke:#9370DB;stroke-width:1;}#my-svg g.clickable{cursor:pointer;}#my-svg g.classGroup rect{fill:#ECECFF;stroke:#9370DB;}#my-svg g.classGroup line{stroke:#9370DB;stroke-width:1;}#my-svg .classLabel .box{stroke:none;stroke-width:0;fill:#ECECFF;opacity:0.5;}#my-svg .classLabel .label{fill:#9370DB;font-size:10px;}#my-svg .relation{stroke:#333333;stroke-width:1;fill:none;}#my-svg .dashed-line{stroke-dasharray:3;}#my-svg .dotted-line{stroke-dasharray:1 2;}#my-svg #compositionStart,#my-svg .composition{fill:#333333!important;stroke:#333333!important;stroke-width:1;}#my-svg #compositionEnd,#my-svg .composition{fill:#333333!important;stroke:#333333!important;stroke-width:1;}#my-svg #dependencyStart,#my-svg .dependency{fill:#333333!important;stroke:#333333!important;stroke-width:1;}#my-svg #dependencyStart,#my-svg .dependency{fill:#333333!important;stroke:#333333!important;stroke-width:1;}#my-svg #extensionStart,#my-svg .extension{fill:transparent!important;stroke:#333333!important;stroke-width:1;}#my-svg #extensionEnd,#my-svg .extension{fill:transparent!important;stroke:#333333!important;stroke-width:1;}#my-svg #aggregationStart,#my-svg .aggregation{fill:transparent!important;stroke:#333333!important;stroke-width:1;}#my-svg #aggregationEnd,#my-svg .aggregation{fill:transparent!important;stroke:#333333!important;stroke-width:1;}#my-svg #lollipopStart,#my-svg .lollipop{fill:#ECECFF!important;stroke:#333333!important;stroke-width:1;}#my-svg #lollipopEnd,#my-svg .lollipop{fill:#ECECFF!important;stroke:#333333!important;stroke-width:1;}#my-svg .edgeTerminals{font-size:11px;line-height:initial;}#my-svg .classTitleText{text-anchor:middle;font-size:18px;fill:#333;}#my-svg .label-icon{display:inline-block;height:1em;overflow:visible;vertical-align:-0.125em;}#my-svg .node .label-icon path{fill:currentColor;stroke:revert;stroke-width:revert;}#my-svg :root{--mermaid-font-family:"trebuchet ms",verdana,arial,sans-serif;}</style><g><defs><marker id="my-svg_class-aggregationStart" class="marker aggregation class" refX="18" refY="7" markerWidth="190" markerHeight="240" orient="auto"><path d="M 18,7 L9,13 L1,7 L9,1 Z"/></marker></defs><defs><marker id="my-svg_class-aggregationEnd" class="marker aggregation class" refX="1" refY="7" markerWidth="20" markerHeight="28" orient="auto"><path d="M 18,7 L9,13 L1,7 L9,1 Z"/></marker></defs><defs><marker id="my-svg_class-extensionStart" class="marker extension class" refX="18" refY="7" markerWidth="190" markerHeight="240" orient="auto"><path d="M 1,7 L18,13 V 1 Z"/></marker></defs><defs><marker id="my-svg_class-extensionEnd" class="marker extension class" refX="1" refY="7" markerWidth="20" markerHeight="28" orient="auto"><path d="M 1,1 V 13 L18,7 Z"/></marker></defs><defs><marker id="my-svg_class-compositionStart" class="marker composition class" refX="18" refY="7" markerWidth="190" markerHeight="240" orient="auto"><path d="M 18,7 L9,13 L1,7 L9,1 Z"/></marker></defs><defs><marker id="my-svg_class-compositionEnd" class="marker composition class" refX="1" refY="7" markerWidth="20" markerHeight="28" orient="auto"><path d="M 18,7 L9,13 L1,7 L9,1 Z"/></marker></defs><defs><marker id="my-svg_class-dependencyStart" class="marker dependency class" refX="6" refY="7" markerWidth="190" markerHeight="240" orient="auto"><path d="M 5,7 L9,13 L1,7 L9,1 Z"/></marker></defs><defs><marker id="my-svg_class-dependencyEnd" class="marker dependency class" refX="13" refY="7" markerWidth="20" markerHeight="28" orient="auto"><path d="M 18,7 L9,13 L14,7 L9,1 Z"/></marker></defs><defs><marker id="my-svg_class-lollipopStart" class="marker lollipop class" refX="13" refY="7" markerWidth="190" markerHeight="240" orient="auto"><circle stroke="black" fill="transparent" cx="7" cy="7" r="6"/></marker></defs><defs><marker id="my-svg_class-lollipopEnd" class="marker lollipop class" refX="1" refY="7" markerWidth="190" markerHeight="240" orient="auto"><circle stroke="black" fill="transparent" cx="7" cy="7" r="6"/></marker></defs><g class="root"><g class="clusters"/><g class="edgePaths"><path d="M46.804,108.329L45.631,111.775C44.458,115.22,42.112,122.11,43.038,131.722C43.965,141.333,48.164,153.667,50.264,159.833L52.364,166" id="id_Outputs_SCFOutputs_1" class="edge-thickness-normal edge-pattern-solid relation" style=";;;" data-edge="true" data-et="edge" data-id="id_Outputs_SCFOutputs_1" data-points="W3sieCI6NTIuMzYzNjI3MzczNDE3NzIsInkiOjkyfSx7IngiOjM5Ljc2NTYyNSwieSI6MTI5fSx7IngiOjUyLjM2MzYyNzM3MzQxNzcyLCJ5IjoxNjZ9XQ==" marker-start="url(#my-svg_class-extensionStart)"/><path d="M221.342,92L218.791,98.167C216.241,104.333,211.139,116.667,208.588,135.992C206.037,155.317,206.037,181.633,206.037,194.792L206.037,207.95" id="PhysicalProperty-cyclic-special-1" class="edge-thickness-normal edge-pattern-solid relation" style=";;;" data-edge="true" data-et="edge" data-id="PhysicalProperty-cyclic-special-1" data-points="W3sieCI6MjIxLjM0MjM5NTE3NDQyMzE2LCJ5Ijo5Mn0seyJ4IjoyMDYuMDM2NzE4NzUwMzcyNTMsInkiOjEyOX0seyJ4IjoyMDYuMDM2NzE4NzUwMzcyNTMsInkiOjIwNy45NDk5OTk5OTkyNTQ5NH1d"/><path d="M206.037,208.05L206.037,221.208C206.037,234.367,206.037,260.683,211.476,280.008C216.915,299.333,227.794,311.667,233.233,317.833L238.672,324" id="PhysicalProperty-cyclic-special-mid" class="edge-thickness-normal edge-pattern-solid relation" style=";;;" data-edge="true" data-et="edge" data-id="PhysicalProperty-cyclic-special-mid" data-points="W3sieCI6MjA2LjAzNjcxODc1MDM3MjUzLCJ5IjoyMDguMDUwMDAwMDAwNzQ1MDZ9LHsieCI6MjA2LjAzNjcxODc1MDM3MjUzLCJ5IjoyODd9LHsieCI6MjM4LjY3MjMwNDEwNzM0MTA2LCJ5IjozMjR9XQ=="/><path d="M238.761,324L244.2,317.833C249.639,311.667,260.518,299.333,265.957,280C271.396,260.667,271.396,234.333,271.396,208C271.396,181.667,271.396,155.333,269.227,136.924C267.059,118.515,262.721,108.03,260.553,102.787L258.384,97.544" id="PhysicalProperty-cyclic-special-2" class="edge-thickness-normal edge-pattern-solid relation" style=";;;" data-edge="true" data-et="edge" data-id="PhysicalProperty-cyclic-special-2" data-points="W3sieCI6MjM4Ljc2MDUwODM5MzQwNCwieSI6MzI0fSx7IngiOjI3MS4zOTYwOTM3NTAzNzI1MywieSI6Mjg3fSx7IngiOjI3MS4zOTYwOTM3NTAzNzI1MywieSI6MjA4fSx7IngiOjI3MS4zOTYwOTM3NTAzNzI1MywieSI6MTI5fSx7IngiOjI1Ni4wOTA0MTczMjYzMjE4NywieSI6OTJ9XQ==" marker-end="url(#my-svg_class-dependencyEnd)"/><path d="M97.562,166L102.098,159.833C106.635,153.667,115.708,141.333,116.301,129.806C116.893,118.278,109.005,107.555,105.061,102.194L101.117,96.833" id="id_SCFOutputs_Outputs_3" class="edge-thickness-normal edge-pattern-solid relation" style=";;;" data-edge="true" data-et="edge" data-id="id_SCFOutputs_Outputs_3" data-points="W3sieCI6OTcuNTYxODA3NzUzMTY0NTYsInkiOjE2Nn0seyJ4IjoxMjQuNzgxMjUsInkiOjEyOX0seyJ4Ijo5Ny41NjE4MDc3NTMxNjQ1NiwieSI6OTJ9XQ==" marker-end="url(#my-svg_class-dependencyEnd)"/></g><g class="edgeLabels"><g class="edgeLabel"><g class="label" data-id="id_Outputs_SCFOutputs_1" transform="translate(0, 0)"><foreignObject width="0" height="0"><div xmlns="http://www.w3.org/1999/xhtml" class="labelBkg" style="display: table-cell; white-space: nowrap; line-height: 1.5; max-width: 200px; text-align: center;"><span class="edgeLabel"></span></div></foreignObject></g></g><g class="edgeLabel"><g class="label" data-id="PhysicalProperty-cyclic-special-1" transform="translate(0, 0)"><foreignObject width="0" height="0"><div xmlns="http://www.w3.org/1999/xhtml" class="labelBkg" style="display: table-cell; white-space: nowrap; line-height: 1.5; max-width: 200px; text-align: center;"><span class="edgeLabel"></span></div></foreignObject></g></g><g class="edgeLabel" transform="translate(206.03671875037253, 287)"><g class="label" data-id="PhysicalProperty-cyclic-special-mid" transform="translate(-45.359375, -12)"><foreignObject width="90.71875" height="24"><div xmlns="http://www.w3.org/1999/xhtml" class="labelBkg" style="display: table-cell; white-space: nowrap; line-height: 1.5; max-width: 200px; text-align: center;"><span class="edgeLabel"><p>contributions</p></span></div></foreignObject></g></g><g class="edgeLabel"><g class="label" data-id="PhysicalProperty-cyclic-special-2" transform="translate(0, 0)"><foreignObject width="0" height="0"><div xmlns="http://www.w3.org/1999/xhtml" class="labelBkg" style="display: table-cell; white-space: nowrap; line-height: 1.5; max-width: 200px; text-align: center;"><span class="edgeLabel"></span></div></foreignObject></g></g><g class="edgeLabel" transform="translate(124.78125, 129)"><g class="label" data-id="id_SCFOutputs_Outputs_3" transform="translate(-33.796875, -12)"><foreignObject width="67.59375" height="24"><div xmlns="http://www.w3.org/1999/xhtml" class="labelBkg" style="display: table-cell; white-space: nowrap; line-height: 1.5; max-width: 200px; text-align: center;"><span class="edgeLabel"><p>scf_steps</p></span></div></foreignObject></g></g></g><g class="nodes"><g class="node default" id="classId-Outputs-0" transform="translate(66.6640625, 50)"><g class="basic label-container"><path d="M-42.6640625 -42 L42.6640625 -42 L42.6640625 42 L-42.6640625 42" stroke="none" stroke-width="0" fill="#ECECFF" style=""/><path d="M-42.6640625 -42 C-15.80791787653024 -42, 11.04822674693952 -42, 42.6640625 -42 M-42.6640625 -42 C-20.457651629210194 -42, 1.748759241579613 -42, 42.6640625 -42 M42.6640625 -42 C42.6640625 -21.437432412322046, 42.6640625 -0.8748648246440922, 42.6640625 42 M42.6640625 -42 C42.6640625 -20.13223473307321, 42.6640625 1.7355305338535771, 42.6640625 42 M42.6640625 42 C11.422123974021503 42, -19.819814551956995 42, -42.6640625 42 M42.6640625 42 C20.643250714975803 42, -1.3775610700483938 42, -42.6640625 42 M-42.6640625 42 C-42.6640625 24.834560195773268, -42.6640625 7.669120391546535, -42.6640625 -42 M-42.6640625 42 C-42.6640625 12.525727613064554, -42.6640625 -16.948544773870893, -42.6640625 -42" stroke="#9370DB" stroke-width="1.3" fill="none" stroke-dasharray="0 0" style=""/></g><g class="annotation-group text" transform="translate(0, -18)"/><g class="label-group text" transform="translate(-30.6640625, -18)"><g class="label" style="font-weight: bolder" transform="translate(0,-12)"><foreignObject width="61.328125" height="24"><div xmlns="http://www.w3.org/1999/xhtml" style="display: table-cell; white-space: nowrap; line-height: 1.5; max-width: 101px; text-align: center;"><span class="nodeLabel markdown-node-label" style=""><p>Outputs</p></span></div></foreignObject></g></g><g class="members-group text" transform="translate(-30.6640625, 30)"/><g class="methods-group text" transform="translate(-30.6640625, 60)"/><g class="divider" style=""><path d="M-42.6640625 6 C-20.228171358401273 6, 2.2077197831974544 6, 42.6640625 6 M-42.6640625 6 C-14.72813402328552 6, 13.20779445342896 6, 42.6640625 6" stroke="#9370DB" stroke-width="1.3" fill="none" stroke-dasharray="0 0" style=""/></g></g><g class="node default" id="classId-PhysicalProperty-1" transform="translate(238.71640625037253, 50)"><g class="basic label-container"><path d="M-77.3671875 -42 L77.3671875 -42 L77.3671875 42 L-77.3671875 42" stroke="none" stroke-width="0" fill="#ECECFF" style=""/><path d="M-77.3671875 -42 C-36.24051054644076 -42, 4.8861664071184805 -42, 77.3671875 -42 M-77.3671875 -42 C-36.105715539937734 -42, 5.155756420124533 -42, 77.3671875 -42 M77.3671875 -42 C77.3671875 -10.17326839988283, 77.3671875 21.65346320023434, 77.3671875 42 M77.3671875 -42 C77.3671875 -19.05575065547917, 77.3671875 3.8884986890416613, 77.3671875 42 M77.3671875 42 C22.87880474193102 42, -31.60957801613796 42, -77.3671875 42 M77.3671875 42 C31.41648968935302 42, -14.534208121293958 42, -77.3671875 42 M-77.3671875 42 C-77.3671875 19.21021061059505, -77.3671875 -3.5795787788099034, -77.3671875 -42 M-77.3671875 42 C-77.3671875 24.11947223750046, -77.3671875 6.23894447500092, -77.3671875 -42" stroke="#9370DB" stroke-width="1.3" fill="none" stroke-dasharray="0 0" style=""/></g><g class="annotation-group text" transform="translate(0, -18)"/><g class="label-group text" transform="translate(-65.3671875, -18)"><g class="label" style="font-weight: bolder" transform="translate(0,-12)"><foreignObject width="130.734375" height="24"><div xmlns="http://www.w3.org/1999/xhtml" style="display: table-cell; white-space: nowrap; line-height: 1.5; max-width: 159px; text-align: center;"><span class="nodeLabel markdown-node-label" style=""><p>PhysicalProperty</p></span></div></foreignObject></g></g><g class="members-group text" transform="translate(-65.3671875, 30)"/><g class="methods-group text" transform="translate(-65.3671875, 60)"/><g class="divider" style=""><path d="M-77.3671875 6 C-41.270348612953484 6, -5.173509725906968 6, 77.3671875 6 M-77.3671875 6 C-45.41790949895132 6, -13.468631497902642 6, 77.3671875 6" stroke="#9370DB" stroke-width="1.3" fill="none" stroke-dasharray="0 0" style=""/></g></g><g class="node default" id="classId-SCFOutputs-2" transform="translate(66.6640625, 208)"><g class="basic label-container"><path d="M-58.6640625 -42 L58.6640625 -42 L58.6640625 42 L-58.6640625 42" stroke="none" stroke-width="0" fill="#ECECFF" style=""/><path d="M-58.6640625 -42 C-24.295721925375005 -42, 10.07261864924999 -42, 58.6640625 -42 M-58.6640625 -42 C-27.47999459898859 -42, 3.7040733020228203 -42, 58.6640625 -42 M58.6640625 -42 C58.6640625 -18.64374749517762, 58.6640625 4.712505009644758, 58.6640625 42 M58.6640625 -42 C58.6640625 -10.41049965646161, 58.6640625 21.17900068707678, 58.6640625 42 M58.6640625 42 C22.907259980187142 42, -12.849542539625716 42, -58.6640625 42 M58.6640625 42 C20.429074066504747 42, -17.805914366990507 42, -58.6640625 42 M-58.6640625 42 C-58.6640625 11.352877074269081, -58.6640625 -19.294245851461838, -58.6640625 -42 M-58.6640625 42 C-58.6640625 14.715204670839, -58.6640625 -12.569590658322, -58.6640625 -42" stroke="#9370DB" stroke-width="1.3" fill="none" stroke-dasharray="0 0" style=""/></g><g class="annotation-group text" transform="translate(0, -18)"/><g class="label-group text" transform="translate(-46.6640625, -18)"><g class="label" style="font-weight: bolder" transform="translate(0,-12)"><foreignObject width="93.328125" height="24"><div xmlns="http://www.w3.org/1999/xhtml" style="display: table-cell; white-space: nowrap; line-height: 1.5; max-width: 129px; text-align: center;"><span class="nodeLabel markdown-node-label" style=""><p>SCFOutputs</p></span></div></foreignObject></g></g><g class="members-group text" transform="translate(-46.6640625, 30)"/><g class="methods-group text" transform="translate(-46.6640625, 60)"/><g class="divider" style=""><path d="M-58.6640625 6 C-21.887964918244165 6, 14.88813266351167 6, 58.6640625 6 M-58.6640625 6 C-12.578787456518882 6, 33.50648758696224 6, 58.6640625 6" stroke="#9370DB" stroke-width="1.3" fill="none" stroke-dasharray="0 0" style=""/></g></g><g class="label edgeLabel" id="PhysicalProperty---PhysicalProperty---1" transform="translate(206.03671875037253, 208)"><rect width="0.1" height="0.1"/><g class="label" style="" transform="translate(0, 0)"><rect/><foreignObject width="0" height="0"><div xmlns="http://www.w3.org/1999/xhtml" style="display: table-cell; white-space: nowrap; line-height: 1.5; max-width: 10px; text-align: center;"><span class="nodeLabel"></span></div></foreignObject></g></g><g class="label edgeLabel" id="PhysicalProperty---PhysicalProperty---2" transform="translate(238.71640625037253, 324.05000000074506)"><rect width="0.1" height="0.1"/><g class="label" style="" transform="translate(0, 0)"><rect/><foreignObject width="0" height="0"><div xmlns="http://www.w3.org/1999/xhtml" style="display: table-cell; white-space: nowrap; line-height: 1.5; max-width: 10px; text-align: center;"><span class="nodeLabel"></span></div></foreignObject></g></g></g></g></g></svg>