<?xml version="1.0" encoding="UTF-8"?>
<svg id="my-svg" width="100%" xmlns="http://www.w3.org/2000/svg" xmlns:xlink="http://www.w3.org/1999/xlink" class="classDiagram" style="max-width: 515.188px; background-color: white;" viewBox="0 0 515.1875 368" role="graphics-document document" aria-roledescription="class"><style>#my-svg{font-family:"trebuchet ms",verdana,arial,sans-serif;font-size:16px;fill:#333;}@keyframes edge-animation-frame{from{stroke-dashoffset:0;}}@keyframes dash{to{stroke-dashoffset:0;}}#my-svg .edge-animation-slow{stroke-dasharray:9,5!important;stroke-dashoffset:900;animation:dash 50s linear infinite;stroke-linecap:round;}#my-svg .edge-animation-fast{stroke-dasharray:9,5!important;stroke-dashoffset:900;animation:dash 20s linear infinite;stroke-linecap:round;}#my-svg .error-icon{fill:#552222;}#my-svg .error-text{fill:#552222;stroke:#552222;}#my-svg .edge-thickness-normal{stroke-width:1px;}#my-svg .edge-thickness-thick{stroke-width:3.5px;}#my-svg .edge-pattern-solid{stroke-dasharray:0;}#my-svg .edge-thickness-invisible{stroke-width:0;fill:none;}#my-svg .edge-pattern-dashed{stroke-dasharray:3;}#my-svg .edge-pattern-dotted{stroke-dasharray:2;}#my-svg .marker{fill:#333333;stroke:#333333;}#my-svg .marker.cross{stroke:#333333;}#my-svg svg{font-family:"trebuchet ms",verdana,arial,sans-serif;font-size:16px;}#my-svg p{margin:0;}#my-svg g.classGroup text{fill:#9370DB;stroke:none;font-family:"trebuchet ms",verdana,arial,sans-serif;font-size:10px;}#my-svg g.classGroup text .title{font-weight:bolder;}#my-svg .nodeLabel,#my-svg .edgeLabel{color:#131300;}#my-svg .edgeLabel .label rect{fill:#ECECFF;}#my-svg .label text{fill:#131300;}#my-svg .labelBkg{background:#ECECFF;}#my-svg .edgeLabel .label span{background:#ECECFF;}#my-svg .classTitle{font-weight:bolder;}#my-svg .node rect,#my-svg .node circle,#my-svg .node ellipse,#my-svg .node polygon,#my-svg .node path{fill:#ECECFF;stroke:#9370DB;stroke-width:1px;}#my-svg .divider{stroke:#9370DB;stroke-width:1;}#my-svg g.clickable{cursor:pointer;}#my-svg g.classGroup rect{fill:#ECECFF;stroke:#9370DB;}#my-svg g.classGroup line{stroke:#9370DB;stroke-width:1;}#my-svg .classLabel .box{stroke:none;stroke-width:0;fill:#ECECFF;opacity:0.5;}#my-svg .classLabel .label{fill:#9370DB;font-size:10px;}#my-svg .relation{stroke:#333333;stroke-width:1;fill:none;}#my-svg .dashed-line{stroke-dasharray:3;}#my-svg .dotted-line{stroke-dasharray:1 2;}#my-svg #compositionStart,#my-svg .composition{fill:#333333!important;stroke:#333333!important;stroke-width:1;}#my-svg #compositionEnd,#my-svg .composition{fill:#333333!important;stroke:#333333!important;stroke-width:1;}#my-svg #dependencyStart,#my-svg .dependency{fill:#333333!important;stroke:#333333!important;stroke-width:1;}#my-svg #dependencyStart,#my-svg .dependency{fill:#333333!important;stroke:#333333!important;stroke-width:1;}#my-svg #extensionStart,#my-svg .extension{fill:transparent!important;stroke:#333333!important;stroke-width:1;}#my-svg #extensionEnd,#my-svg .extension{fill:transparent!important;stroke:#333333!important;stroke-width:1;}#my-svg #aggregationStart,#my-svg .aggregation{fill:transparent!important;stroke:#333333!important;stroke-width:1;}#my-svg #aggregationEnd,#my-svg .aggregation{fill:transparent!important;stroke:#333333!important;stroke-width:1;}#my-svg #lollipopStart,#my-svg .lollipop{fill:#ECECFF!important;stroke:#333333!important;stroke-width:1;}#my-svg #lollipopEnd,#my-svg .lollipop{fill:#ECECFF!important;stroke:#333333!important;stroke-width:1;}#my-svg .edgeTerminals{font-size:11px;line-height:initial;}#my-svg .classTitleText{text-anchor:middle;font-size:18px;fill:#333;}#my-svg .label-icon{display:inline-block;height:1em;overflow:visible;vertical-align:-0.125em;}#my-svg .node .label-icon path{fill:currentColor;stroke:revert;stroke-width:revert;}#my-svg :root{--mermaid-font-family:"trebuchet ms",verdana,arial,sans-serif;}</style><g><defs><marker id="my-svg_class-aggregationStart" class="marker aggregation class" refX="18" refY="7" markerWidth="190" markerHeight="240" orient="auto"><path d="M 18,7 L9,13 L1,7 L9,1 Z"/></marker></defs><defs><marker id="my-svg_class-aggregationEnd" class="marker aggregation class" refX="1" refY="7" markerWidth="20" markerHeight="28" orient="auto"><path d="M 18,7 L9,13 L1,7 L9,1 Z"/></marker></defs><defs><marker id="my-svg_class-extensionStart" class="marker extension class" refX="18" refY="7" markerWidth="190" markerHeight="240" orient="auto"><path d="M 1,7 L18,13 V 1 Z"/></marker></defs><defs><marker id="my-svg_class-extensionEnd" class="marker extension class" refX="1" refY="7" markerWidth="20" markerHeight="28" orient="auto"><path d="M 1,1 V 13 L18,7 Z"/></marker></defs><defs><marker id="my-svg_class-compositionStart" class="marker composition class" refX="18" refY="7" markerWidth="190" markerHeight="240" orient="auto"><path d="M 18,7 L9,13 L1,7 L9,1 Z"/></marker></defs><defs><marker id="my-svg_class-compositionEnd" class="marker composition class" refX="1" refY="7" markerWidth="20" markerHeight="28" orient="auto"><path d="M 18,7 L9,13 L1,7 L9,1 Z"/></marker></defs><defs><marker id="my-svg_class-dependencyStart" class="marker dependency class" refX="6" refY="7" markerWidth="190" markerHeight="240" orient="auto"><path d="M 5,7 L9,13 L1,7 L9,1 Z"/></marker></defs><defs><marker id="my-svg_class-dependencyEnd" class="marker dependency class" refX="13" refY="7" markerWidth="20" markerHeight="28" orient="auto"><path d="M 18,7 L9,13 L14,7 L9,1 Z"/></marker></defs><defs><marker id="my-svg_class-lollipopStart" class="marker lollipop class" refX="13" refY="7" markerWidth="190" markerHeight="240" orient="auto"><circle stroke="black" fill="transparent" cx="7" cy="7" r="6"/></marker></defs><defs><marker id="my-svg_class-lollipopEnd" class="marker lollipop class" refX="1" refY="7" markerWidth="190" markerHeight="240" orient="auto"><circle stroke="black" fill="transparent" cx="7" cy="7" r="6"/></marker></defs><g class="root"><g class="clusters"/><g class="edgePaths"><path d="M261.463,102.695L258.445,105.079C255.428,107.463,249.394,112.232,246.377,118.782C243.359,125.333,243.359,133.667,243.359,137.833L243.359,142" id="id_ParticleState_AtomsState_1" class="edge-thickness-normal edge-pattern-solid relation" style=";;;" data-edge="true" data-et="edge" data-id="id_ParticleState_AtomsState_1" data-points="W3sieCI6Mjc0Ljk5NzA4NDg4ODA1OTcsInkiOjkyfSx7IngiOjI0My4zNTkzNzUsInkiOjExN30seyJ4IjoyNDMuMzU5Mzc1LCJ5IjoxNDJ9XQ==" marker-start="url(#my-svg_class-extensionStart)"/><path d="M394.834,102.695L397.851,105.079C400.869,107.463,406.903,112.232,409.92,118.782C412.938,125.333,412.938,133.667,412.938,137.833L412.938,142" id="id_ParticleState_CGBeadState_2" class="edge-thickness-normal edge-pattern-solid relation" style=";;;" data-edge="true" data-et="edge" data-id="id_ParticleState_CGBeadState_2" data-points="W3sieCI6MzgxLjI5OTc5MDExMTk0MDMsInkiOjkyfSx7IngiOjQxMi45Mzc1LCJ5IjoxMTd9LHsieCI6NDEyLjkzNzUsInkiOjE0Mn1d" marker-start="url(#my-svg_class-extensionStart)"/><path d="M186.906,204.141L165.016,211.951C143.125,219.76,99.344,235.38,77.453,246.357C55.563,257.333,55.563,263.667,55.563,266.833L55.563,270" id="id_AtomsState_CoreHole_3" class="edge-thickness-normal edge-pattern-solid relation" style=";;;" data-edge="true" data-et="edge" data-id="id_AtomsState_CoreHole_3" data-points="W3sieCI6MTg2LjkwNjI1LCJ5IjoyMDQuMTQwNjkzOTAxMzIyOX0seyJ4Ijo1NS41NjI1LCJ5IjoyNTF9LHsieCI6NTUuNTYyNSwieSI6Mjc2fV0=" marker-end="url(#my-svg_class-dependencyEnd)"/><path d="M243.359,226L243.359,230.167C243.359,234.333,243.359,242.667,243.359,250C243.359,257.333,243.359,263.667,243.359,266.833L243.359,270" id="id_AtomsState_HubbardInteractions_4" class="edge-thickness-normal edge-pattern-solid relation" style=";;;" data-edge="true" data-et="edge" data-id="id_AtomsState_HubbardInteractions_4" data-points="W3sieCI6MjQzLjM1OTM3NSwieSI6MjI2fSx7IngiOjI0My4zNTkzNzUsInkiOjI1MX0seyJ4IjoyNDMuMzU5Mzc1LCJ5IjoyNzZ9XQ==" marker-end="url(#my-svg_class-dependencyEnd)"/><path d="M299.813,202.722L324.076,210.768C348.339,218.814,396.865,234.907,421.128,246.12C445.391,257.333,445.391,263.667,445.391,266.833L445.391,270" id="id_AtomsState_OrbitalsState_5" class="edge-thickness-normal edge-pattern-solid relation" style=";;;" data-edge="true" data-et="edge" data-id="id_AtomsState_OrbitalsState_5" data-points="W3sieCI6Mjk5LjgxMjUsInkiOjIwMi43MjE2NTUwNjU3Mzg2fSx7IngiOjQ0NS4zOTA2MjUsInkiOjI1MX0seyJ4Ijo0NDUuMzkwNjI1LCJ5IjoyNzZ9XQ==" marker-end="url(#my-svg_class-dependencyEnd)"/></g><g class="edgeLabels"><g class="edgeLabel"><g class="label" data-id="id_ParticleState_AtomsState_1" transform="translate(0, 0)"><foreignObject width="0" height="0"><div xmlns="http://www.w3.org/1999/xhtml" class="labelBkg" style="display: table-cell; white-space: nowrap; line-height: 1.5; max-width: 200px; text-align: center;"><span class="edgeLabel"></span></div></foreignObject></g></g><g class="edgeLabel"><g class="label" data-id="id_ParticleState_CGBeadState_2" transform="translate(0, 0)"><foreignObject width="0" height="0"><div xmlns="http://www.w3.org/1999/xhtml" class="labelBkg" style="display: table-cell; white-space: nowrap; line-height: 1.5; max-width: 200px; text-align: center;"><span class="edgeLabel"></span></div></foreignObject></g></g><g class="edgeLabel"><g class="label" data-id="id_AtomsState_CoreHole_3" transform="translate(0, 0)"><foreignObject width="0" height="0"><div xmlns="http://www.w3.org/1999/xhtml" class="labelBkg" style="display: table-cell; white-space: nowrap; line-height: 1.5; max-width: 200px; text-align: center;"><span class="edgeLabel"></span></div></foreignObject></g></g><g class="edgeLabel"><g class="label" data-id="id_AtomsState_HubbardInteractions_4" transform="translate(0, 0)"><foreignObject width="0" height="0"><div xmlns="http://www.w3.org/1999/xhtml" class="labelBkg" style="display: table-cell; white-space: nowrap; line-height: 1.5; max-width: 200px; text-align: center;"><span class="edgeLabel"></span></div></foreignObject></g></g><g class="edgeLabel"><g class="label" data-id="id_AtomsState_OrbitalsState_5" transform="translate(0, 0)"><foreignObject width="0" height="0"><div xmlns="http://www.w3.org/1999/xhtml" class="labelBkg" style="display: table-cell; white-space: nowrap; line-height: 1.5; max-width: 200px; text-align: center;"><span class="edgeLabel"></span></div></foreignObject></g></g></g><g class="nodes"><g class="node default" id="classId-AtomsState-0" transform="translate(243.359375, 184)"><g class="basic label-container"><path d="M-56.453125 -42 L56.453125 -42 L56.453125 42 L-56.453125 42" stroke="none" stroke-width="0" fill="#ECECFF" style=""/><path d="M-56.453125 -42 C-20.06727254818061 -42, 16.318579903638778 -42, 56.453125 -42 M-56.453125 -42 C-12.973100954949388 -42, 30.506923090101225 -42, 56.453125 -42 M56.453125 -42 C56.453125 -19.064307998241343, 56.453125 3.8713840035173135, 56.453125 42 M56.453125 -42 C56.453125 -24.328035165237385, 56.453125 -6.656070330474769, 56.453125 42 M56.453125 42 C24.683614498367344 42, -7.0858960032653115 42, -56.453125 42 M56.453125 42 C25.35367356627878 42, -5.745777867442442 42, -56.453125 42 M-56.453125 42 C-56.453125 12.85693705399304, -56.453125 -16.28612589201392, -56.453125 -42 M-56.453125 42 C-56.453125 13.780263812271638, -56.453125 -14.439472375456724, -56.453125 -42" stroke="#9370DB" stroke-width="1.3" fill="none" stroke-dasharray="0 0" style=""/></g><g class="annotation-group text" transform="translate(0, -18)"/><g class="label-group text" transform="translate(-44.453125, -18)"><g class="label" style="font-weight: bolder" transform="translate(0,-12)"><foreignObject width="88.90625" height="24"><div xmlns="http://www.w3.org/1999/xhtml" style="display: table-cell; white-space: nowrap; line-height: 1.5; max-width: 125px; text-align: center;"><span class="nodeLabel markdown-node-label" style=""><p>AtomsState</p></span></div></foreignObject></g></g><g class="members-group text" transform="translate(-44.453125, 30)"/><g class="methods-group text" transform="translate(-44.453125, 60)"/><g class="divider" style=""><path d="M-56.453125 6 C-15.772476449104929 6, 24.908172101790143 6, 56.453125 6 M-56.453125 6 C-23.475626133847165 6, 9.50187273230567 6, 56.453125 6" stroke="#9370DB" stroke-width="1.3" fill="none" stroke-dasharray="0 0" style=""/></g></g><g class="node default" id="classId-CGBeadState-1" transform="translate(412.9375, 184)"><g class="basic label-container"><path d="M-63.125 -42 L63.125 -42 L63.125 42 L-63.125 42" stroke="none" stroke-width="0" fill="#ECECFF" style=""/><path d="M-63.125 -42 C-21.9552562710222 -42, 19.2144874579556 -42, 63.125 -42 M-63.125 -42 C-14.698848971444434 -42, 33.72730205711113 -42, 63.125 -42 M63.125 -42 C63.125 -10.82745344060832, 63.125 20.34509311878336, 63.125 42 M63.125 -42 C63.125 -22.221475376991812, 63.125 -2.4429507539836237, 63.125 42 M63.125 42 C15.881132448273078 42, -31.362735103453844 42, -63.125 42 M63.125 42 C22.647785898059055 42, -17.82942820388189 42, -63.125 42 M-63.125 42 C-63.125 23.85895970773155, -63.125 5.717919415463101, -63.125 -42 M-63.125 42 C-63.125 16.761807424957034, -63.125 -8.476385150085932, -63.125 -42" stroke="#9370DB" stroke-width="1.3" fill="none" stroke-dasharray="0 0" style=""/></g><g class="annotation-group text" transform="translate(0, -18)"/><g class="label-group text" transform="translate(-51.125, -18)"><g class="label" style="font-weight: bolder" transform="translate(0,-12)"><foreignObject width="102.25" height="24"><div xmlns="http://www.w3.org/1999/xhtml" style="display: table-cell; white-space: nowrap; line-height: 1.5; max-width: 137px; text-align: center;"><span class="nodeLabel markdown-node-label" style=""><p>CGBeadState</p></span></div></foreignObject></g></g><g class="members-group text" transform="translate(-51.125, 30)"/><g class="methods-group text" transform="translate(-51.125, 60)"/><g class="divider" style=""><path d="M-63.125 6 C-29.21966241674692 6, 4.685675166506158 6, 63.125 6 M-63.125 6 C-31.078365145266382 6, 0.9682697094672363 6, 63.125 6" stroke="#9370DB" stroke-width="1.3" fill="none" stroke-dasharray="0 0" style=""/></g></g><g class="node default" id="classId-CoreHole-2" transform="translate(55.5625, 318)"><g class="basic label-container"><path d="M-47.5625 -42 L47.5625 -42 L47.5625 42 L-47.5625 42" stroke="none" stroke-width="0" fill="#ECECFF" style=""/><path d="M-47.5625 -42 C-14.908994594533276 -42, 17.74451081093345 -42, 47.5625 -42 M-47.5625 -42 C-19.153406657876797 -42, 9.255686684246406 -42, 47.5625 -42 M47.5625 -42 C47.5625 -16.231299870968478, 47.5625 9.537400258063045, 47.5625 42 M47.5625 -42 C47.5625 -10.885725928966153, 47.5625 20.228548142067694, 47.5625 42 M47.5625 42 C18.548206059987965 42, -10.46608788002407 42, -47.5625 42 M47.5625 42 C11.54231813393686 42, -24.47786373212628 42, -47.5625 42 M-47.5625 42 C-47.5625 24.26943385421815, -47.5625 6.5388677084363, -47.5625 -42 M-47.5625 42 C-47.5625 17.587227575698464, -47.5625 -6.825544848603073, -47.5625 -42" stroke="#9370DB" stroke-width="1.3" fill="none" stroke-dasharray="0 0" style=""/></g><g class="annotation-group text" transform="translate(0, -18)"/><g class="label-group text" transform="translate(-35.5625, -18)"><g class="label" style="font-weight: bolder" transform="translate(0,-12)"><foreignObject width="71.125" height="24"><div xmlns="http://www.w3.org/1999/xhtml" style="display: table-cell; white-space: nowrap; line-height: 1.5; max-width: 112px; text-align: center;"><span class="nodeLabel markdown-node-label" style=""><p>CoreHole</p></span></div></foreignObject></g></g><g class="members-group text" transform="translate(-35.5625, 30)"/><g class="methods-group text" transform="translate(-35.5625, 60)"/><g class="divider" style=""><path d="M-47.5625 6 C-27.957614785071247 6, -8.352729570142493 6, 47.5625 6 M-47.5625 6 C-24.84141147437403 6, -2.1203229487480613 6, 47.5625 6" stroke="#9370DB" stroke-width="1.3" fill="none" stroke-dasharray="0 0" style=""/></g></g><g class="node default" id="classId-HubbardInteractions-3" transform="translate(243.359375, 318)"><g class="basic label-container"><path d="M-90.234375 -42 L90.234375 -42 L90.234375 42 L-90.234375 42" stroke="none" stroke-width="0" fill="#ECECFF" style=""/><path d="M-90.234375 -42 C-26.674055153159728 -42, 36.886264693680545 -42, 90.234375 -42 M-90.234375 -42 C-47.242322804228614 -42, -4.250270608457228 -42, 90.234375 -42 M90.234375 -42 C90.234375 -19.66954907159913, 90.234375 2.6609018568017433, 90.234375 42 M90.234375 -42 C90.234375 -14.277116882410105, 90.234375 13.44576623517979, 90.234375 42 M90.234375 42 C48.182892353100534 42, 6.131409706201069 42, -90.234375 42 M90.234375 42 C47.503585834197644 42, 4.772796668395287 42, -90.234375 42 M-90.234375 42 C-90.234375 10.245193075420417, -90.234375 -21.509613849159166, -90.234375 -42 M-90.234375 42 C-90.234375 16.89673222333763, -90.234375 -8.206535553324741, -90.234375 -42" stroke="#9370DB" stroke-width="1.3" fill="none" stroke-dasharray="0 0" style=""/></g><g class="annotation-group text" transform="translate(0, -18)"/><g class="label-group text" transform="translate(-78.234375, -18)"><g class="label" style="font-weight: bolder" transform="translate(0,-12)"><foreignObject width="156.46875" height="24"><div xmlns="http://www.w3.org/1999/xhtml" style="display: table-cell; white-space: nowrap; line-height: 1.5; max-width: 182px; text-align: center;"><span class="nodeLabel markdown-node-label" style=""><p>HubbardInteractions</p></span></div></foreignObject></g></g><g class="members-group text" transform="translate(-78.234375, 30)"/><g class="methods-group text" transform="translate(-78.234375, 60)"/><g class="divider" style=""><path d="M-90.234375 6 C-43.75027947650432 6, 2.7338160469913646 6, 90.234375 6 M-90.234375 6 C-40.13098142474728 6, 9.972412150505434 6, 90.234375 6" stroke="#9370DB" stroke-width="1.3" fill="none" stroke-dasharray="0 0" style=""/></g></g><g class="node default" id="classId-OrbitalsState-4" transform="translate(445.390625, 318)"><g class="basic label-container"><path d="M-61.796875 -42 L61.796875 -42 L61.796875 42 L-61.796875 42" stroke="none" stroke-width="0" fill="#ECECFF" style=""/><path d="M-61.796875 -42 C-32.65112203393897 -42, -3.505369067877936 -42, 61.796875 -42 M-61.796875 -42 C-22.47936012096155 -42, 16.838154758076897 -42, 61.796875 -42 M61.796875 -42 C61.796875 -21.453721698642845, 61.796875 -0.9074433972856895, 61.796875 42 M61.796875 -42 C61.796875 -21.117020143871514, 61.796875 -0.23404028774302787, 61.796875 42 M61.796875 42 C20.735029570423272 42, -20.326815859153456 42, -61.796875 42 M61.796875 42 C18.83562145839204 42, -24.12563208321592 42, -61.796875 42 M-61.796875 42 C-61.796875 15.981425164057132, -61.796875 -10.037149671885736, -61.796875 -42 M-61.796875 42 C-61.796875 14.577618889002046, -61.796875 -12.844762221995907, -61.796875 -42" stroke="#9370DB" stroke-width="1.3" fill="none" stroke-dasharray="0 0" style=""/></g><g class="annotation-group text" transform="translate(0, -18)"/><g class="label-group text" transform="translate(-49.796875, -18)"><g class="label" style="font-weight: bolder" transform="translate(0,-12)"><foreignObject width="99.59375" height="24"><div xmlns="http://www.w3.org/1999/xhtml" style="display: table-cell; white-space: nowrap; line-height: 1.5; max-width: 134px; text-align: center;"><span class="nodeLabel markdown-node-label" style=""><p>OrbitalsState</p></span></div></foreignObject></g></g><g class="members-group text" transform="translate(-49.796875, 30)"/><g class="methods-group text" transform="translate(-49.796875, 60)"/><g class="divider" style=""><path d="M-61.796875 6 C-19.8736244504249 6, 22.049626099150203 6, 61.796875 6 M-61.796875 6 C-29.7458528360402 6, 2.3051693279196 6, 61.796875 6" stroke="#9370DB" stroke-width="1.3" fill="none" stroke-dasharray="0 0" style=""/></g></g><g class="node default" id="classId-ParticleState-5" transform="translate(328.1484375, 50)"><g class="basic label-container"><path d="M-60.46875 -42 L60.46875 -42 L60.46875 42 L-60.46875 42" stroke="none" stroke-width="0" fill="#ECECFF" style=""/><path d="M-60.46875 -42 C-35.89413920041173 -42, -11.319528400823458 -42, 60.46875 -42 M-60.46875 -42 C-24.79458817451325 -42, 10.879573650973498 -42, 60.46875 -42 M60.46875 -42 C60.46875 -24.820664031911335, 60.46875 -7.6413280638226695, 60.46875 42 M60.46875 -42 C60.46875 -10.470390687325605, 60.46875 21.05921862534879, 60.46875 42 M60.46875 42 C35.0983975854179 42, 9.728045170835806 42, -60.46875 42 M60.46875 42 C23.141218558613346 42, -14.186312882773308 42, -60.46875 42 M-60.46875 42 C-60.46875 9.96786723900837, -60.46875 -22.06426552198326, -60.46875 -42 M-60.46875 42 C-60.46875 9.764759795763837, -60.46875 -22.470480408472326, -60.46875 -42" stroke="#9370DB" stroke-width="1.3" fill="none" stroke-dasharray="0 0" style=""/></g><g class="annotation-group text" transform="translate(0, -18)"/><g class="label-group text" transform="translate(-48.46875, -18)"><g class="label" style="font-weight: bolder" transform="translate(0,-12)"><foreignObject width="96.9375" height="24"><div xmlns="http://www.w3.org/1999/xhtml" style="display: table-cell; white-space: nowrap; line-height: 1.5; max-width: 131px; text-align: center;"><span class="nodeLabel markdown-node-label" style=""><p>ParticleState</p></span></div></foreignObject></g></g><g class="members-group text" transform="translate(-48.46875, 30)"/><g class="methods-group text" transform="translate(-48.46875, 60)"/><g class="divider" style=""><path d="M-60.46875 6 C-13.430506329864627 6, 33.607737340270745 6, 60.46875 6 M-60.46875 6 C-35.233248083331155 6, -9.99774616666231 6, 60.46875 6" stroke="#9370DB" stroke-width="1.3" fill="none" stroke-dasharray="0 0" style=""/></g></g></g></g></g></svg>