<?xml version="1.0" encoding="UTF-8"?>
<svg id="my-svg" width="100%" xmlns="http://www.w3.org/2000/svg" xmlns:xlink="http://www.w3.org/1999/xlink" class="classDiagram" style="max-width: 515.188px; background-color: white;" viewBox="0 0 515.1875 368" role="graphics-document document" aria-roledescription="class"><style>#my-svg{font-family:"trebuchet ms",verdana,arial,sans-serif;font-size:16px;fill:#333;}@keyframes edge-animation-frame{from{stroke-dashoffset:0;}}@keyframes dash{to{stroke-dashoffset:0;}}#my-svg .edge-animation-slow{stroke-dasharray:9,5!important;stroke-dashoffset:900;animation:dash 50s linear infinite;stroke-linecap:round;}#my-svg .edge-animation-fast{stroke-dasharray:9,5!important;stroke-dashoffset:900;animation:dash 20s linear infinite;stroke-linecap:round;}#my-svg .error-icon{fill:#552222;}#my-svg .error-text{fill:#552222;stroke:#552222;}#my-svg .edge-thickness-normal{stroke-width:1px;}#my-svg .edge-thickness-thick{stroke-width:3.5px;}#my-svg .edge-pattern-solid{stroke-dasharray:0;}#my-svg .edge-thickness-invisible{stroke-width:0;fill:none;}#my-svg .edge-pattern-dashed{stroke-dasharray:3;}#my-svg .edge-pattern-dotted{stroke-dasharray:2;}#my-svg .marker{fill:#333333;stroke:#333333;}#my-svg .marker.cross{stroke:#333333;}#my-svg svg{font-family:"trebuchet ms",verdana,arial,sans-serif;font-size:16px;}#my-svg p{margin:0;}#my-svg g.classGroup text{fill:#9370DB;stroke:none;font-family:"trebuchet ms",verdana,arial,sans-serif;font-size:10px;}#my-svg g.classGroup text .title{font-weight:bolder;}#my-svg .nodeLabel,#my-svg .edgeLabel{color:#131300;}#my-svg .edgeLabel .label rect{fill:#ECECFF;}#my-svg .label text{fill:#131300;}#my-svg .labelBkg{background:#ECECFF;}#my-svg .edgeLabel .label span{background:#ECECFF;}#my-svg .classTitle{font-weight:bolder;}#my-svg .node rect,#my-svg .node circle,#my-svg .node ellipse,#my-svg .node polygon,#my-svg .node path{fill:#ECECFF;stroke:#9370DB;stroke-width:1px;}#my-svg .divider{stroke:#9370DB;stroke-width:1;}#my-svg g.clickable{cursor:pointer;}#my-svg g.classGroup rect{fill:#ECECFF;stroke:#9370DB;}#my-svg g.classGroup line{stroke:#9370DB;stroke-width:1;}#my-svg .classLabel .box{stroke:none;stroke-width:0;fill:#ECECFF;opacity:0.5;}#my-svg .classLabel .label{fill:#9370DB;font-size:10px;}#my-svg .relation{stroke:#333333;stroke-width:1;fill:none;}#my-svg .dashed-line{stroke-dasharray:3;}#my-svg .dotted-line{stroke-dasharray:1 2;}#my-svg #compositionStart,#my-svg .composition{fill:#333333!important;stroke:#333333!important;stroke-width:1;}#my-svg #compositionEnd,#my-svg .composition{fill:#333333!important;stroke:#333333!important;stroke-width:1;}#my-svg #dependencyStart,#my-svg .dependency{fill:#333333!important;stroke:#333333!important;stroke-width:1;}#my-svg #dependencyStart,#my-svg .dependency{fill:#333333!important;stroke:#333333!important;stroke-width:1;}#my-svg #extensionStart,#my-svg .extension{fill:transparent!important;stroke:#333333!important;stroke-width:1;}#my-svg #extensionEnd,#my-svg .extension{fill:transparent!important;stroke:#333333!important;stroke-width:1;}#my-svg #aggregationStart,#my-svg .aggregation{fill:transparent!important;stroke:#333333!important;stroke-width:1;}#my-svg #aggregationEnd,#my-svg .aggregation{fill:transparent!important;stroke:#333333!important;stroke-width:1;}#my-svg #lollipopStart,#my-svg .lollipop{fill:#ECECFF!important;stroke:#333333!important;stroke-width:1;}#my-svg #lollipopEnd,#my-svg .lollipop{fill:#ECECFF!important;stroke:#333333!important;stroke-width:1;}#my-svg .edgeTerminals{font-size:11px;line-height:initial;}#my-svg .classTitleText{text-anchor:middle;font-size:18px;fill:#333;}#my-svg .label-icon{display:inline-block;height:1em;overflow:visible;vertical-align:-0.125em;}#my-svg .node .label-icon path{fill:currentColor;stroke:revert;stroke-width:revert;}#my-svg :root{--mermaid-font-family:"trebuchet ms",verdana,arial,sans-serif;}</style><g><defs><marker id="my-svg_class-aggregationStart" class="marker aggregation class" refX="18" refY="7" markerWidth="190" markerHeight="240" orient="auto"><path d="M 18,7 L9,13 L1,7 L9,1 Z"/></marker></defs><defs><marker id="my-svg_class-aggregationEnd" class="marker aggregation class" refX="1" refY="7" markerWidth="20" markerHeight="28" orient="auto"><path d="M 18,7 L9,13 L1,7 L9,1 Z"/></marker></defs><defs><marker id="my-svg_class-extensionStart" class="marker extension class" refX="18" refY="7" markerWidth="190" markerHeight="240" orient="auto"><path d="M 1,7 L18,13 V 1 Z"/></marker></defs><defs><marker id="my-svg_class-extensionEnd" class="marker extension class" refX="1" refY="7" markerWidth="20" markerHeight="28" orient="auto"><path d="M 1,1 V 13 L18,7 Z"/></marker></defs><defs><marker id="my-svg_class-compositionStart" class="marker composition class" refX="18" refY="7" markerWidth="190" markerHeight="240" orient="auto"><path d="M 18,7 L9,13 L1,7 L9,1 Z"/></marker></defs><defs><marker id="my-svg_class-compositionEnd" class="marker composition class" refX="1" refY="7" markerWidth="20" markerHeight="28" orient="auto"><path d="M 18,7 L9,13 L1,7 L9,1 Z"/></marker></defs><defs><marker id="my-svg_class-dependencyStart" class="marker dependency class" refX="6" refY="7" markerWidth="190" markerHeight="240" orient="auto"><path d="M 5,7 L9,13 L1,7 L9,1 Z"/></marker></defs><defs><marker id="my-svg_class-dependencyEnd" class="marker dependency class" refX="13" refY="7" markerWidth="20" markerHeight="28" orient="auto"><path d="M 18,7 L9,13 L14,7 L9,1 Z"/></marker></defs><defs><marker id="my-svg_class-lollipopStart" class="marker lollipop class" refX="13" refY="7" markerWidth="190" markerHeight="240" orient="auto"><circle stroke="black" fill="transparent" cx="7" cy="7" r="6"/></marker></defs><defs><marker id="my-svg_class-lollipopEnd" class="marker lollipop class" refX="1" refY="7" markerWidth="190" markerHeight="240" orient="auto"><circle stroke="black" fill="transparent" cx="7" cy="7" r="6"/></marker></defs><g class="root"><g class="clusters"/><g class="edgePaths"><path d="M261.463,102.695L258.445,105.079C255.428,107.463,249.394,112.232,246.377,118.782C243.359,125.333,243.359,133.667,243.359,137.833L243.359,142" id="id_ParticleState_AtomsState_1" class="edge-thickness-normal edge-pattern-solid relation" style=";;;" data-edge="true" data-et="edge" data-id="id_ParticleState_AtomsState_1" data-points="W3sieCI6Mjc0Ljk5NzA4NDg4ODA1OTcsInkiOjkyfSx7IngiOjI0My4zNTkzNzUsInkiOjExN30seyJ4IjoyNDMuMzU5Mzc1LCJ5IjoxNDJ9XQ==" marker-start="url(#my-svg_class-extensionStart)"/><path d="M394.834,102.695L397.851,105.079C400.869,107.463,406.903,112.232,409.92,118.782C412.938,125.333,412.938,133.667,412.938,137.833L412.938,142" id="id_ParticleState_CGBeadState_2" class="edge-thickness-normal edge-pattern-solid relation" style=";;;" data-edge="true" data-et="edge" data-id="id_ParticleState_CGBeadState_2" data-points="W3sieCI6MzgxLjI5OTc5MDExMTk0MDMsInkiOjkyfSx7IngiOjQxMi45Mzc1LCJ5IjoxMTd9LHsieCI6NDEyLjkzNzUsInkiOjE0Mn1d" marker-start="url(#my-svg_class-extensionStart)"/><path d="M186.906,204.141L165.016,211.951C143.125,219.76,99.344,235.38,77.453,246.357C55.563,257.333,55.563,263.667,55.563,266.833L55.563,270" id="id_AtomsState_CoreHole_3" class="edge-thickness-normal edge-pattern-solid relation" style=";;;" data-edge="true" data-et="edge" data-id="id_AtomsState_CoreHole_3" data-points="W3sieCI6MTg2LjkwNjI1LCJ5IjoyMDQuMTQwNjkzOTAxMzIyOX0seyJ4Ijo1NS41NjI1LCJ5IjoyNTF9LHsieCI6NTUuNTYyNSwieSI6Mjc2fV0=" marker-end="url(#my-svg_class-dependencyEnd)"/><path d="M243.359,226L243.359,230.167C243.359,234.333,243.359,242.667,243.359,250C243.359,257.333,243.359,263.667,243.359,266.833L243.359,270" id="id_AtomsState_HubbardInteractions_4" class="edge-thickness-normal edge-pattern-solid relation" style=";;;" data-edge="true" data-et="edge" data-id="id_AtomsState_HubbardInteractions_4" data-points="W3sieCI6MjQzLjM1OTM3NSwieSI6MjI2fSx7IngiOjI0My4zNTkzNzUsInkiOjI1MX0seyJ4IjoyNDMuMzU5Mzc1LCJ5IjoyNzZ9XQ==" marker-end="url(#my-svg_class-dependencyEnd)"/><path d="M299.813,202.722L324.076,210.768C348.339,218.814,396.865,234.907,421.128,246.12C445.391,257.333,445.391,263.667,445.391,266.833L445.391,270" id="id_AtomsState_OrbitalsState_5" class="edge-thickness-normal edge-pattern-solid relation" style=";;;" data-edge="true" data-et="edge" data-id="id_AtomsState_OrbitalsState_5" data-points="W3sieCI6Mjk5LjgxMjUsInkiOjIwMi43MjE2NTUwNjU3Mzg2fSx7IngiOjQ0NS4zOTA2MjUsInkiOjI1MX0seyJ4Ijo0NDUuMzkwNjI1LCJ5IjoyNzZ9XQ==" marker-end="url(#my-svg_class-dependencyEnd)"/></g><g class="edgeLabels"><g class="edgeLabel"><g class="label" data-id="id_ParticleState_AtomsState_1" transform="translate(0, 0)"><foreignObject width="0" height="0"><div xmlns="http://www.w3.org/1999/xhtml" class="labelBkg" style="display: table-cell; white-space: nowrap; line-height: 1.5; max-width: 200px; text-align: center;"><span class="edgeLabel"></span></div></foreignObject></g></g><g class="edgeLabel"><g class="label" data-id="id_ParticleState_CGBeadState_2" transform="translate(0, 0)"><foreignObject width="0" height="0"><div xmlns="http://www.w3.org/1999/xhtml" class="labelBkg" style="display: table-cell; white-space: nowrap; line-height: 1.5; max-width: 200px; text-align: center;"><span class="edgeLabel"></span></div></foreignObject></g></g><g class="edgeLabel"><g class="label" data-id="id_AtomsState_CoreHole_3" transform="translate(0, 0)"><foreignObject width="0" height="0"><div xmlns="http://www.w3.org/1999/xhtml" class="labelBkg" style="display: table-cell; white-space: nowrap; line-height: 1.5; max-width: 200px; text-align: center;"><span class="edgeLabel"></span></div></foreignObject></g></g><g class="edgeLabel"><g class="label" data-id="id_AtomsState_HubbardInteractions_4" transform="translate(0, 0)"><foreignObject width="0" height="0"><div xmlns="http://www.w3.org/1999/xhtml" class="labelBkg" style="display: table-cell; white-space: nowrap; line-height: 1.5; max-width: 200px; text-align: center;"><span class="edgeLabel"></span></div></foreignObject></g></g><g class="edgeLabel"><g class="label" data-id="id_AtomsState_OrbitalsState_5" transform="translate(0, 0)"><foreignObject width="0" height="0"><div xmlns="http://www.w3.org/1999/xhtml" class="labelBkg" style="display: table-cell; white-space: nowrap; line-height: 1.5; max-width: 200px; text-align: center;"><span class="edgeLabel"></span></div></foreignObject></g></g></g><g class="nodes"><g class="node default" id="classId-AtomsState-0" transform="translate(243.359375, 184)"><g class="basic label-container"><path d="M-56.453125 -42 L56.453125 -42 L56.453125 42 L-56.453125 42" stroke="none" stroke-width="0" fill="#ECECFF" style=""/><path d="M-56.453125 -42 C-16.8216712804322 -42, 22.809782439135603 -42, 56.453125 -42 M-56.453125 -42 C-28.305567393785513 -42, -0.15800978757102513 -42, 56.453125 -42 M56.453125 -42 C56.453125 -16.657813747542225, 56.453125 8.684372504915551, 56.453125 42 M56.453125 -42 C56.453125 -15.160950501356503, 56.453125 11.678098997286995, 56.453125 42 M56.453125 42 C11.642108688112032 42, -33.16890762377594 42, -56.453125 42 M56.453125 42 C24.465900555504437 42, -7.521323888991127 42, -56.453125 42 M-56.453125 42 C-56.453125 15.502907530567274, -56.453125 -10.994184938865452, -56.453125 -42 M-56.453125 42 C-56.453125 17.774478053833125, -56.453125 -6.45104389233375, -56.453125 -42" stroke="#9370DB" stroke-width="1.3" fill="none" stroke-dasharray="0 0" style=""/></g><g class="annotation-group text" transform="translate(0, -18)"/><g class="label-group text" transform="translate(-44.453125, -18)"><g class="label" style="font-weight: bolder" transform="translate(0,-12)"><foreignObject width="88.90625" height="24"><div xmlns="http://www.w3.org/1999/xhtml" style="display: table-cell; white-space: nowrap; line-height: 1.5; max-width: 125px; text-align: center;"><span class="nodeLabel markdown-node-label" style=""><p>AtomsState</p></span></div></foreignObject></g></g><g class="members-group text" transform="translate(-44.453125, 30)"/><g class="methods-group text" transform="translate(-44.453125, 60)"/><g class="divider" style=""><path d="M-56.453125 6 C-23.918227242656847 6, 8.616670514686305 6, 56.453125 6 M-56.453125 6 C-33.35025057768745 6, -10.247376155374887 6, 56.453125 6" stroke="#9370DB" stroke-width="1.3" fill="none" stroke-dasharray="0 0" style=""/></g></g><g class="node default" id="classId-CGBeadState-1" transform="translate(412.9375, 184)"><g class="basic label-container"><path d="M-63.125 -42 L63.125 -42 L63.125 42 L-63.125 42" stroke="none" stroke-width="0" fill="#ECECFF" style=""/><path d="M-63.125 -42 C-26.671359694029903 -42, 9.782280611940195 -42, 63.125 -42 M-63.125 -42 C-30.400467333673944 -42, 2.3240653326521112 -42, 63.125 -42 M63.125 -42 C63.125 -22.321707869149893, 63.125 -2.6434157382997867, 63.125 42 M63.125 -42 C63.125 -22.83017617412859, 63.125 -3.6603523482571774, 63.125 42 M63.125 42 C31.71834162637902 42, 0.3116832527580371 42, -63.125 42 M63.125 42 C25.68825530076527 42, -11.74848939846946 42, -63.125 42 M-63.125 42 C-63.125 20.944789542221958, -63.125 -0.1104209155560838, -63.125 -42 M-63.125 42 C-63.125 13.985208750063691, -63.125 -14.029582499872618, -63.125 -42" stroke="#9370DB" stroke-width="1.3" fill="none" stroke-dasharray="0 0" style=""/></g><g class="annotation-group text" transform="translate(0, -18)"/><g class="label-group text" transform="translate(-51.125, -18)"><g class="label" style="font-weight: bolder" transform="translate(0,-12)"><foreignObject width="102.25" height="24"><div xmlns="http://www.w3.org/1999/xhtml" style="display: table-cell; white-space: nowrap; line-height: 1.5; max-width: 137px; text-align: center;"><span class="nodeLabel markdown-node-label" style=""><p>CGBeadState</p></span></div></foreignObject></g></g><g class="members-group text" transform="translate(-51.125, 30)"/><g class="methods-group text" transform="translate(-51.125, 60)"/><g class="divider" style=""><path d="M-63.125 6 C-32.26763422233225 6, -1.4102684446644886 6, 63.125 6 M-63.125 6 C-34.84666238036586 6, -6.568324760731727 6, 63.125 6" stroke="#9370DB" stroke-width="1.3" fill="none" stroke-dasharray="0 0" style=""/></g></g><g class="node default" id="classId-CoreHole-2" transform="translate(55.5625, 318)"><g class="basic label-container"><path d="M-47.5625 -42 L47.5625 -42 L47.5625 42 L-47.5625 42" stroke="none" stroke-width="0" fill="#ECECFF" style=""/><path d="M-47.5625 -42 C-21.54982668935059 -42, 4.462846621298823 -42, 47.5625 -42 M-47.5625 -42 C-12.575337524140089 -42, 22.411824951719822 -42, 47.5625 -42 M47.5625 -42 C47.5625 -17.327280152173888, 47.5625 7.3454396956522245, 47.5625 42 M47.5625 -42 C47.5625 -10.378031269038363, 47.5625 21.243937461923274, 47.5625 42 M47.5625 42 C23.796030874720294 42, 0.02956174944058887 42, -47.5625 42 M47.5625 42 C24.428811848758237 42, 1.2951236975164733 42, -47.5625 42 M-47.5625 42 C-47.5625 24.057602397293575, -47.5625 6.11520479458715, -47.5625 -42 M-47.5625 42 C-47.5625 10.723664198968194, -47.5625 -20.55267160206361, -47.5625 -42" stroke="#9370DB" stroke-width="1.3" fill="none" stroke-dasharray="0 0" style=""/></g><g class="annotation-group text" transform="translate(0, -18)"/><g class="label-group text" transform="translate(-35.5625, -18)"><g class="label" style="font-weight: bolder" transform="translate(0,-12)"><foreignObject width="71.125" height="24"><div xmlns="http://www.w3.org/1999/xhtml" style="display: table-cell; white-space: nowrap; line-height: 1.5; max-width: 112px; text-align: center;"><span class="nodeLabel markdown-node-label" style=""><p>CoreHole</p></span></div></foreignObject></g></g><g class="members-group text" transform="translate(-35.5625, 30)"/><g class="methods-group text" transform="translate(-35.5625, 60)"/><g class="divider" style=""><path d="M-47.5625 6 C-10.139355603916655 6, 27.28378879216669 6, 47.5625 6 M-47.5625 6 C-12.410960712228523 6, 22.740578575542955 6, 47.5625 6" stroke="#9370DB" stroke-width="1.3" fill="none" stroke-dasharray="0 0" style=""/></g></g><g class="node default" id="classId-HubbardInteractions-3" transform="translate(243.359375, 318)"><g class="basic label-container"><path d="M-90.234375 -42 L90.234375 -42 L90.234375 42 L-90.234375 42" stroke="none" stroke-width="0" fill="#ECECFF" style=""/><path d="M-90.234375 -42 C-33.35974673942956 -42, 23.51488152114088 -42, 90.234375 -42 M-90.234375 -42 C-49.057246370932624 -42, -7.880117741865249 -42, 90.234375 -42 M90.234375 -42 C90.234375 -22.14698909243842, 90.234375 -2.293978184876842, 90.234375 42 M90.234375 -42 C90.234375 -12.305201063338988, 90.234375 17.389597873322025, 90.234375 42 M90.234375 42 C48.64396107756733 42, 7.053547155134666 42, -90.234375 42 M90.234375 42 C48.01446969755645 42, 5.7945643951129 42, -90.234375 42 M-90.234375 42 C-90.234375 9.245295015368129, -90.234375 -23.509409969263743, -90.234375 -42 M-90.234375 42 C-90.234375 23.145888198561813, -90.234375 4.291776397123627, -90.234375 -42" stroke="#9370DB" stroke-width="1.3" fill="none" stroke-dasharray="0 0" style=""/></g><g class="annotation-group text" transform="translate(0, -18)"/><g class="label-group text" transform="translate(-78.234375, -18)"><g class="label" style="font-weight: bolder" transform="translate(0,-12)"><foreignObject width="156.46875" height="24"><div xmlns="http://www.w3.org/1999/xhtml" style="display: table-cell; white-space: nowrap; line-height: 1.5; max-width: 182px; text-align: center;"><span class="nodeLabel markdown-node-label" style=""><p>HubbardInteractions</p></span></div></foreignObject></g></g><g class="members-group text" transform="translate(-78.234375, 30)"/><g class="methods-group text" transform="translate(-78.234375, 60)"/><g class="divider" style=""><path d="M-90.234375 6 C-41.57814768975802 6, 7.078079620483962 6, 90.234375 6 M-90.234375 6 C-46.6497756649137 6, -3.065176329827395 6, 90.234375 6" stroke="#9370DB" stroke-width="1.3" fill="none" stroke-dasharray="0 0" style=""/></g></g><g class="node default" id="classId-OrbitalsState-4" transform="translate(445.390625, 318)"><g class="basic label-container"><path d="M-61.796875 -42 L61.796875 -42 L61.796875 42 L-61.796875 42" stroke="none" stroke-width="0" fill="#ECECFF" style=""/><path d="M-61.796875 -42 C-31.860903395035955 -42, -1.9249317900719092 -42, 61.796875 -42 M-61.796875 -42 C-34.277901095652794 -42, -6.758927191305588 -42, 61.796875 -42 M61.796875 -42 C61.796875 -15.55371993163914, 61.796875 10.89256013672172, 61.796875 42 M61.796875 -42 C61.796875 -19.925818030535588, 61.796875 2.1483639389288243, 61.796875 42 M61.796875 42 C31.151517769000602 42, 0.506160538001204 42, -61.796875 42 M61.796875 42 C32.76973879128976 42, 3.742602582579522 42, -61.796875 42 M-61.796875 42 C-61.796875 9.367236341526784, -61.796875 -23.265527316946432, -61.796875 -42 M-61.796875 42 C-61.796875 12.857806371170511, -61.796875 -16.284387257658977, -61.796875 -42" stroke="#9370DB" stroke-width="1.3" fill="none" stroke-dasharray="0 0" style=""/></g><g class="annotation-group text" transform="translate(0, -18)"/><g class="label-group text" transform="translate(-49.796875, -18)"><g class="label" style="font-weight: bolder" transform="translate(0,-12)"><foreignObject width="99.59375" height="24"><div xmlns="http://www.w3.org/1999/xhtml" style="display: table-cell; white-space: nowrap; line-height: 1.5; max-width: 134px; text-align: center;"><span class="nodeLabel markdown-node-label" style=""><p>OrbitalsState</p></span></div></foreignObject></g></g><g class="members-group text" transform="translate(-49.796875, 30)"/><g class="methods-group text" transform="translate(-49.796875, 60)"/><g class="divider" style=""><path d="M-61.796875 6 C-26.64192595052546 6, 8.513023098949077 6, 61.796875 6 M-61.796875 6 C-13.32832883765714 6, 35.14021732468572 6, 61.796875 6" stroke="#9370DB" stroke-width="1.3" fill="none" stroke-dasharray="0 0" style=""/></g></g><g class="node default" id="classId-ParticleState-5" transform="translate(328.1484375, 50)"><g class="basic label-container"><path d="M-60.46875 -42 L60.46875 -42 L60.46875 42 L-60.46875 42" stroke="none" stroke-width="0" fill="#ECECFF" style=""/><path d="M-60.46875 -42 C-19.155824421241142 -42, 22.157101157517715 -42, 60.46875 -42 M-60.46875 -42 C-26.913945677535935 -42, 6.64085864492813 -42, 60.46875 -42 M60.46875 -42 C60.46875 -25.17190766946892, 60.46875 -8.343815338937837, 60.46875 42 M60.46875 -42 C60.46875 -12.555463318774184, 60.46875 16.889073362451633, 60.46875 42 M60.46875 42 C31.902701780395816 42, 3.336653560791632 42, -60.46875 42 M60.46875 42 C29.143713959229125 42, -2.181322081541751 42, -60.46875 42 M-60.46875 42 C-60.46875 14.999964580102912, -60.46875 -12.000070839794176, -60.46875 -42 M-60.46875 42 C-60.46875 17.460896268957082, -60.46875 -7.078207462085835, -60.46875 -42" stroke="#9370DB" stroke-width="1.3" fill="none" stroke-dasharray="0 0" style=""/></g><g class="annotation-group text" transform="translate(0, -18)"/><g class="label-group text" transform="translate(-48.46875, -18)"><g class="label" style="font-weight: bolder" transform="translate(0,-12)"><foreignObject width="96.9375" height="24"><div xmlns="http://www.w3.org/1999/xhtml" style="display: table-cell; white-space: nowrap; line-height: 1.5; max-width: 131px; text-align: center;"><span class="nodeLabel markdown-node-label" style=""><p>ParticleState</p></span></div></foreignObject></g></g><g class="members-group text" transform="translate(-48.46875, 30)"/><g class="methods-group text" transform="translate(-48.46875, 60)"/><g class="divider" style=""><path d="M-60.46875 6 C-31.35897005750455 6, -2.2491901150090996 6, 60.46875 6 M-60.46875 6 C-31.25740384408143 6, -2.046057688162861 6, 60.46875 6" stroke="#9370DB" stroke-width="1.3" fill="none" stroke-dasharray="0 0" style=""/></g></g></g></g></g></svg>