<?xml version="1.0" encoding="UTF-8"?>
<svg id="my-svg" width="100%" xmlns="http://www.w3.org/2000/svg" xmlns:xlink="http://www.w3.org/1999/xlink" class="classDiagram" style="max-width: 515.188px; background-color: white;" viewBox="0 0 515.1875 392" role="graphics-document document" aria-roledescription="class"><style>#my-svg{font-family:"trebuchet ms",verdana,arial,sans-serif;font-size:16px;fill:#333;}@keyframes edge-animation-frame{from{stroke-dashoffset:0;}}@keyframes dash{to{stroke-dashoffset:0;}}#my-svg .edge-animation-slow{stroke-dasharray:9,5!important;stroke-dashoffset:900;animation:dash 50s linear infinite;stroke-linecap:round;}#my-svg .edge-animation-fast{stroke-dasharray:9,5!important;stroke-dashoffset:900;animation:dash 20s linear infinite;stroke-linecap:round;}#my-svg .error-icon{fill:#552222;}#my-svg .error-text{fill:#552222;stroke:#552222;}#my-svg .edge-thickness-normal{stroke-width:1px;}#my-svg .edge-thickness-thick{stroke-width:3.5px;}#my-svg .edge-pattern-solid{stroke-dasharray:0;}#my-svg .edge-thickness-invisible{stroke-width:0;fill:none;}#my-svg .edge-pattern-dashed{stroke-dasharray:3;}#my-svg .edge-pattern-dotted{stroke-dasharray:2;}#my-svg .marker{fill:#333333;stroke:#333333;}#my-svg .marker.cross{stroke:#333333;}#my-svg svg{font-family:"trebuchet ms",verdana,arial,sans-serif;font-size:16px;}#my-svg p{margin:0;}#my-svg g.classGroup text{fill:#9370DB;stroke:none;font-family:"trebuchet ms",verdana,arial,sans-serif;font-size:10px;}#my-svg g.classGroup text .title{font-weight:bolder;}#my-svg .nodeLabel,#my-svg .edgeLabel{color:#131300;}#my-svg .edgeLabel .label rect{fill:#ECECFF;}#my-svg .label text{fill:#131300;}#my-svg .labelBkg{background:#ECECFF;}#my-svg .edgeLabel .label span{background:#ECECFF;}#my-svg .classTitle{font-weight:bolder;}#my-svg .node rect,#my-svg .node circle,#my-svg .node ellipse,#my-svg .node polygon,#my-svg .node path{fill:#ECECFF;stroke:#9370DB;stroke-width:1px;}#my-svg .divider{stroke:#9370DB;stroke-width:1;}#my-svg g.clickable{cursor:pointer;}#my-svg g.classGroup rect{fill:#ECECFF;stroke:#9370DB;}#my-svg g.classGroup line{stroke:#9370DB;stroke-width:1;}#my-svg .classLabel .box{stroke:none;stroke-width:0;fill:#ECECFF;opacity:0.5;}#my-svg .classLabel .label{fill:#9370DB;font-size:10px;}#my-svg .relation{stroke:#333333;stroke-width:1;fill:none;}#my-svg .dashed-line{stroke-dasharray:3;}#my-svg .dotted-line{stroke-dasharray:1 2;}#my-svg #compositionStart,#my-svg .composition{fill:#333333!important;stroke:#333333!important;stroke-width:1;}#my-svg #compositionEnd,#my-svg .composition{fill:#333333!important;stroke:#333333!important;stroke-width:1;}#my-svg #dependencyStart,#my-svg .dependency{fill:#333333!important;stroke:#333333!important;stroke-width:1;}#my-svg #dependencyStart,#my-svg .dependency{fill:#333333!important;stroke:#333333!important;stroke-width:1;}#my-svg #extensionStart,#my-svg .extension{fill:transparent!important;stroke:#333333!important;stroke-width:1;}#my-svg #extensionEnd,#my-svg .extension{fill:transparent!important;stroke:#333333!important;stroke-width:1;}#my-svg #aggregationStart,#my-svg .aggregation{fill:transparent!important;stroke:#333333!important;stroke-width:1;}#my-svg #aggregationEnd,#my-svg .aggregation{fill:transparent!important;stroke:#333333!important;stroke-width:1;}#my-svg #lollipopStart,#my-svg .lollipop{fill:#ECECFF!important;stroke:#333333!important;stroke-width:1;}#my-svg #lollipopEnd,#my-svg .lollipop{fill:#ECECFF!important;stroke:#333333!important;stroke-width:1;}#my-svg .edgeTerminals{font-size:11px;line-height:initial;}#my-svg .classTitleText{text-anchor:middle;font-size:18px;fill:#333;}#my-svg .label-icon{display:inline-block;height:1em;overflow:visible;vertical-align:-0.125em;}#my-svg .node .label-icon path{fill:currentColor;stroke:revert;stroke-width:revert;}#my-svg :root{--mermaid-font-family:"trebuchet ms",verdana,arial,sans-serif;}</style><g><defs><marker id="my-svg_class-aggregationStart" class="marker aggregation class" refX="18" refY="7" markerWidth="190" markerHeight="240" orient="auto"><path d="M 18,7 L9,13 L1,7 L9,1 Z"/></marker></defs><defs><marker id="my-svg_class-aggregationEnd" class="marker aggregation class" refX="1" refY="7" markerWidth="20" markerHeight="28" orient="auto"><path d="M 18,7 L9,13 L1,7 L9,1 Z"/></marker></defs><defs><marker id="my-svg_class-extensionStart" class="marker extension class" refX="18" refY="7" markerWidth="190" markerHeight="240" orient="auto"><path d="M 1,7 L18,13 V 1 Z"/></marker></defs><defs><marker id="my-svg_class-extensionEnd" class="marker extension class" refX="1" refY="7" markerWidth="20" markerHeight="28" orient="auto"><path d="M 1,1 V 13 L18,7 Z"/></marker></defs><defs><marker id="my-svg_class-compositionStart" class="marker composition class" refX="18" refY="7" markerWidth="190" markerHeight="240" orient="auto"><path d="M 18,7 L9,13 L1,7 L9,1 Z"/></marker></defs><defs><marker id="my-svg_class-compositionEnd" class="marker composition class" refX="1" refY="7" markerWidth="20" markerHeight="28" orient="auto"><path d="M 18,7 L9,13 L1,7 L9,1 Z"/></marker></defs><defs><marker id="my-svg_class-dependencyStart" class="marker dependency class" refX="6" refY="7" markerWidth="190" markerHeight="240" orient="auto"><path d="M 5,7 L9,13 L1,7 L9,1 Z"/></marker></defs><defs><marker id="my-svg_class-dependencyEnd" class="marker dependency class" refX="13" refY="7" markerWidth="20" markerHeight="28" orient="auto"><path d="M 18,7 L9,13 L14,7 L9,1 Z"/></marker></defs><defs><marker id="my-svg_class-lollipopStart" class="marker lollipop class" refX="13" refY="7" markerWidth="190" markerHeight="240" orient="auto"><circle stroke="black" fill="transparent" cx="7" cy="7" r="6"/></marker></defs><defs><marker id="my-svg_class-lollipopEnd" class="marker lollipop class" refX="1" refY="7" markerWidth="190" markerHeight="240" orient="auto"><circle stroke="black" fill="transparent" cx="7" cy="7" r="6"/></marker></defs><g class="root"><g class="clusters"/><g class="edgePaths"><path d="M261.463,102.695L258.445,105.079C255.428,107.463,249.394,112.232,246.377,118.782C243.359,125.333,243.359,133.667,243.359,137.833L243.359,142" id="id_ParticleState_AtomsState_1" class="edge-thickness-normal edge-pattern-solid relation" style=";;;" data-edge="true" data-et="edge" data-id="id_ParticleState_AtomsState_1" data-points="W3sieCI6Mjc0Ljk5NzA4NDg4ODA1OTcsInkiOjkyfSx7IngiOjI0My4zNTkzNzUsInkiOjExN30seyJ4IjoyNDMuMzU5Mzc1LCJ5IjoxNDJ9XQ==" marker-start="url(#my-svg_class-extensionStart)"/><path d="M394.834,102.695L397.851,105.079C400.869,107.463,406.903,112.232,409.92,118.782C412.938,125.333,412.938,133.667,412.938,137.833L412.938,142" id="id_ParticleState_CGBeadState_2" class="edge-thickness-normal edge-pattern-solid relation" style=";;;" data-edge="true" data-et="edge" data-id="id_ParticleState_CGBeadState_2" data-points="W3sieCI6MzgxLjI5OTc5MDExMTk0MDMsInkiOjkyfSx7IngiOjQxMi45Mzc1LCJ5IjoxMTd9LHsieCI6NDEyLjkzNzUsInkiOjE0Mn1d" marker-start="url(#my-svg_class-extensionStart)"/><path d="M186.906,207.748L165.016,216.957C143.125,226.165,99.344,244.583,77.453,258.958C55.563,273.333,55.563,283.667,55.563,288.833L55.563,294" id="id_AtomsState_CoreHole_3" class="edge-thickness-normal edge-pattern-solid relation" style=";;;" data-edge="true" data-et="edge" data-id="id_AtomsState_CoreHole_3" data-points="W3sieCI6MTg2LjkwNjI1LCJ5IjoyMDcuNzQ3OTgyMzYxMjYxMzR9LHsieCI6NTUuNTYyNSwieSI6MjYzfSx7IngiOjU1LjU2MjUsInkiOjMwMH1d" marker-end="url(#my-svg_class-dependencyEnd)"/><path d="M243.359,226L243.359,232.167C243.359,238.333,243.359,250.667,243.359,262C243.359,273.333,243.359,283.667,243.359,288.833L243.359,294" id="id_AtomsState_HubbardInteractions_4" class="edge-thickness-normal edge-pattern-solid relation" style=";;;" data-edge="true" data-et="edge" data-id="id_AtomsState_HubbardInteractions_4" data-points="W3sieCI6MjQzLjM1OTM3NSwieSI6MjI2fSx7IngiOjI0My4zNTkzNzUsInkiOjI2M30seyJ4IjoyNDMuMzU5Mzc1LCJ5IjozMDB9XQ==" marker-end="url(#my-svg_class-dependencyEnd)"/><path d="M299.813,206.075L324.076,215.562C348.339,225.05,396.865,244.025,421.128,258.679C445.391,273.333,445.391,283.667,445.391,288.833L445.391,294" id="id_AtomsState_OrbitalsState_5" class="edge-thickness-normal edge-pattern-solid relation" style=";;;" data-edge="true" data-et="edge" data-id="id_AtomsState_OrbitalsState_5" data-points="W3sieCI6Mjk5LjgxMjUsInkiOjIwNi4wNzQ3ODczMTYzMTg2M30seyJ4Ijo0NDUuMzkwNjI1LCJ5IjoyNjN9LHsieCI6NDQ1LjM5MDYyNSwieSI6MzAwfV0=" marker-end="url(#my-svg_class-dependencyEnd)"/></g><g class="edgeLabels"><g class="edgeLabel"><g class="label" data-id="id_ParticleState_AtomsState_1" transform="translate(0, 0)"><foreignObject width="0" height="0"><div xmlns="http://www.w3.org/1999/xhtml" class="labelBkg" style="display: table-cell; white-space: nowrap; line-height: 1.5; max-width: 200px; text-align: center;"><span class="edgeLabel"></span></div></foreignObject></g></g><g class="edgeLabel"><g class="label" data-id="id_ParticleState_CGBeadState_2" transform="translate(0, 0)"><foreignObject width="0" height="0"><div xmlns="http://www.w3.org/1999/xhtml" class="labelBkg" style="display: table-cell; white-space: nowrap; line-height: 1.5; max-width: 200px; text-align: center;"><span class="edgeLabel"></span></div></foreignObject></g></g><g class="edgeLabel" transform="translate(55.5625, 263)"><g class="label" data-id="id_AtomsState_CoreHole_3" transform="translate(-35.140625, -12)"><foreignObject width="70.28125" height="24"><div xmlns="http://www.w3.org/1999/xhtml" class="labelBkg" style="display: table-cell; white-space: nowrap; line-height: 1.5; max-width: 200px; text-align: center;"><span class="edgeLabel"><p>core_hole</p></span></div></foreignObject></g></g><g class="edgeLabel" transform="translate(243.359375, 263)"><g class="label" data-id="id_AtomsState_HubbardInteractions_4" transform="translate(-74.71875, -12)"><foreignObject width="149.4375" height="24"><div xmlns="http://www.w3.org/1999/xhtml" class="labelBkg" style="display: table-cell; white-space: nowrap; line-height: 1.5; max-width: 200px; text-align: center;"><span class="edgeLabel"><p>hubbard_interactions</p></span></div></foreignObject></g></g><g class="edgeLabel" transform="translate(445.390625, 263)"><g class="label" data-id="id_AtomsState_OrbitalsState_5" transform="translate(-47.5859375, -12)"><foreignObject width="95.171875" height="24"><div xmlns="http://www.w3.org/1999/xhtml" class="labelBkg" style="display: table-cell; white-space: nowrap; line-height: 1.5; max-width: 200px; text-align: center;"><span class="edgeLabel"><p>orbitals_state</p></span></div></foreignObject></g></g></g><g class="nodes"><g class="node default" id="classId-AtomsState-0" transform="translate(243.359375, 184)"><g class="basic label-container"><path d="M-56.453125 -42 L56.453125 -42 L56.453125 42 L-56.453125 42" stroke="none" stroke-width="0" fill="#ECECFF" style=""/><path d="M-56.453125 -42 C-25.234730488342937 -42, 5.983664023314127 -42, 56.453125 -42 M-56.453125 -42 C-22.101993233677902 -42, 12.249138532644196 -42, 56.453125 -42 M56.453125 -42 C56.453125 -23.655679749300457, 56.453125 -5.311359498600915, 56.453125 42 M56.453125 -42 C56.453125 -12.726450449038346, 56.453125 16.54709910192331, 56.453125 42 M56.453125 42 C21.446435901007774 42, -13.560253197984451 42, -56.453125 42 M56.453125 42 C14.746310519262508 42, -26.960503961474984 42, -56.453125 42 M-56.453125 42 C-56.453125 10.817964797197405, -56.453125 -20.36407040560519, -56.453125 -42 M-56.453125 42 C-56.453125 16.42537696765153, -56.453125 -9.14924606469694, -56.453125 -42" stroke="#9370DB" stroke-width="1.3" fill="none" stroke-dasharray="0 0" style=""/></g><g class="annotation-group text" transform="translate(0, -18)"/><g class="label-group text" transform="translate(-44.453125, -18)"><g class="label" style="font-weight: bolder" transform="translate(0,-12)"><foreignObject width="88.90625" height="24"><div xmlns="http://www.w3.org/1999/xhtml" style="display: table-cell; white-space: nowrap; line-height: 1.5; max-width: 125px; text-align: center;"><span class="nodeLabel markdown-node-label" style=""><p>AtomsState</p></span></div></foreignObject></g></g><g class="members-group text" transform="translate(-44.453125, 30)"/><g class="methods-group text" transform="translate(-44.453125, 60)"/><g class="divider" style=""><path d="M-56.453125 6 C-19.474983351901734 6, 17.50315829619653 6, 56.453125 6 M-56.453125 6 C-30.96881018249211 6, -5.48449536498422 6, 56.453125 6" stroke="#9370DB" stroke-width="1.3" fill="none" stroke-dasharray="0 0" style=""/></g></g><g class="node default" id="classId-CGBeadState-1" transform="translate(412.9375, 184)"><g class="basic label-container"><path d="M-63.125 -42 L63.125 -42 L63.125 42 L-63.125 42" stroke="none" stroke-width="0" fill="#ECECFF" style=""/><path d="M-63.125 -42 C-23.61512862267567 -42, 15.89474275464866 -42, 63.125 -42 M-63.125 -42 C-14.478654950832045 -42, 34.16769009833591 -42, 63.125 -42 M63.125 -42 C63.125 -11.364908294868261, 63.125 19.270183410263478, 63.125 42 M63.125 -42 C63.125 -18.56505118380064, 63.125 4.869897632398718, 63.125 42 M63.125 42 C28.313728214943907 42, -6.497543570112185 42, -63.125 42 M63.125 42 C31.7994722319981 42, 0.4739444639961974 42, -63.125 42 M-63.125 42 C-63.125 19.79061385434957, -63.125 -2.4187722913008614, -63.125 -42 M-63.125 42 C-63.125 9.270284709475298, -63.125 -23.459430581049403, -63.125 -42" stroke="#9370DB" stroke-width="1.3" fill="none" stroke-dasharray="0 0" style=""/></g><g class="annotation-group text" transform="translate(0, -18)"/><g class="label-group text" transform="translate(-51.125, -18)"><g class="label" style="font-weight: bolder" transform="translate(0,-12)"><foreignObject width="102.25" height="24"><div xmlns="http://www.w3.org/1999/xhtml" style="display: table-cell; white-space: nowrap; line-height: 1.5; max-width: 137px; text-align: center;"><span class="nodeLabel markdown-node-label" style=""><p>CGBeadState</p></span></div></foreignObject></g></g><g class="members-group text" transform="translate(-51.125, 30)"/><g class="methods-group text" transform="translate(-51.125, 60)"/><g class="divider" style=""><path d="M-63.125 6 C-20.455751338470378 6, 22.213497323059244 6, 63.125 6 M-63.125 6 C-31.060129947997687 6, 1.0047401040046253 6, 63.125 6" stroke="#9370DB" stroke-width="1.3" fill="none" stroke-dasharray="0 0" style=""/></g></g><g class="node default" id="classId-CoreHole-2" transform="translate(55.5625, 342)"><g class="basic label-container"><path d="M-47.5625 -42 L47.5625 -42 L47.5625 42 L-47.5625 42" stroke="none" stroke-width="0" fill="#ECECFF" style=""/><path d="M-47.5625 -42 C-21.5541533902907 -42, 4.454193219418599 -42, 47.5625 -42 M-47.5625 -42 C-23.517330425194036 -42, 0.5278391496119283 -42, 47.5625 -42 M47.5625 -42 C47.5625 -17.831524886777302, 47.5625 6.336950226445396, 47.5625 42 M47.5625 -42 C47.5625 -21.69182498723574, 47.5625 -1.3836499744714814, 47.5625 42 M47.5625 42 C25.013836241811095 42, 2.46517248362219 42, -47.5625 42 M47.5625 42 C20.997944641003897 42, -5.566610717992205 42, -47.5625 42 M-47.5625 42 C-47.5625 18.68050101430349, -47.5625 -4.638997971393017, -47.5625 -42 M-47.5625 42 C-47.5625 17.464866324655315, -47.5625 -7.07026735068937, -47.5625 -42" stroke="#9370DB" stroke-width="1.3" fill="none" stroke-dasharray="0 0" style=""/></g><g class="annotation-group text" transform="translate(0, -18)"/><g class="label-group text" transform="translate(-35.5625, -18)"><g class="label" style="font-weight: bolder" transform="translate(0,-12)"><foreignObject width="71.125" height="24"><div xmlns="http://www.w3.org/1999/xhtml" style="display: table-cell; white-space: nowrap; line-height: 1.5; max-width: 112px; text-align: center;"><span class="nodeLabel markdown-node-label" style=""><p>CoreHole</p></span></div></foreignObject></g></g><g class="members-group text" transform="translate(-35.5625, 30)"/><g class="methods-group text" transform="translate(-35.5625, 60)"/><g class="divider" style=""><path d="M-47.5625 6 C-10.157689766914686 6, 27.247120466170628 6, 47.5625 6 M-47.5625 6 C-25.132873845681914 6, -2.7032476913638277 6, 47.5625 6" stroke="#9370DB" stroke-width="1.3" fill="none" stroke-dasharray="0 0" style=""/></g></g><g class="node default" id="classId-HubbardInteractions-3" transform="translate(243.359375, 342)"><g class="basic label-container"><path d="M-90.234375 -42 L90.234375 -42 L90.234375 42 L-90.234375 42" stroke="none" stroke-width="0" fill="#ECECFF" style=""/><path d="M-90.234375 -42 C-36.16206785046458 -42, 17.910239299070838 -42, 90.234375 -42 M-90.234375 -42 C-47.38670762463715 -42, -4.539040249274294 -42, 90.234375 -42 M90.234375 -42 C90.234375 -20.011312750125573, 90.234375 1.977374499748855, 90.234375 42 M90.234375 -42 C90.234375 -9.969440149496158, 90.234375 22.061119701007684, 90.234375 42 M90.234375 42 C37.98159655557643 42, -14.271181888847138 42, -90.234375 42 M90.234375 42 C23.198684679880273 42, -43.837005640239454 42, -90.234375 42 M-90.234375 42 C-90.234375 11.417426989693652, -90.234375 -19.165146020612696, -90.234375 -42 M-90.234375 42 C-90.234375 10.76323629511803, -90.234375 -20.47352740976394, -90.234375 -42" stroke="#9370DB" stroke-width="1.3" fill="none" stroke-dasharray="0 0" style=""/></g><g class="annotation-group text" transform="translate(0, -18)"/><g class="label-group text" transform="translate(-78.234375, -18)"><g class="label" style="font-weight: bolder" transform="translate(0,-12)"><foreignObject width="156.46875" height="24"><div xmlns="http://www.w3.org/1999/xhtml" style="display: table-cell; white-space: nowrap; line-height: 1.5; max-width: 182px; text-align: center;"><span class="nodeLabel markdown-node-label" style=""><p>HubbardInteractions</p></span></div></foreignObject></g></g><g class="members-group text" transform="translate(-78.234375, 30)"/><g class="methods-group text" transform="translate(-78.234375, 60)"/><g class="divider" style=""><path d="M-90.234375 6 C-50.86854791756834 6, -11.502720835136685 6, 90.234375 6 M-90.234375 6 C-30.62105603920979 6, 28.99226292158042 6, 90.234375 6" stroke="#9370DB" stroke-width="1.3" fill="none" stroke-dasharray="0 0" style=""/></g></g><g class="node default" id="classId-OrbitalsState-4" transform="translate(445.390625, 342)"><g class="basic label-container"><path d="M-61.796875 -42 L61.796875 -42 L61.796875 42 L-61.796875 42" stroke="none" stroke-width="0" fill="#ECECFF" style=""/><path d="M-61.796875 -42 C-19.983703515717252 -42, 21.829467968565496 -42, 61.796875 -42 M-61.796875 -42 C-20.748806140150222 -42, 20.299262719699556 -42, 61.796875 -42 M61.796875 -42 C61.796875 -15.404742932552146, 61.796875 11.190514134895707, 61.796875 42 M61.796875 -42 C61.796875 -15.626801949285145, 61.796875 10.74639610142971, 61.796875 42 M61.796875 42 C20.594809016016036 42, -20.607256967967928 42, -61.796875 42 M61.796875 42 C34.00466637057877 42, 6.212457741157536 42, -61.796875 42 M-61.796875 42 C-61.796875 22.171791817597747, -61.796875 2.3435836351954933, -61.796875 -42 M-61.796875 42 C-61.796875 25.090673756040704, -61.796875 8.181347512081409, -61.796875 -42" stroke="#9370DB" stroke-width="1.3" fill="none" stroke-dasharray="0 0" style=""/></g><g class="annotation-group text" transform="translate(0, -18)"/><g class="label-group text" transform="translate(-49.796875, -18)"><g class="label" style="font-weight: bolder" transform="translate(0,-12)"><foreignObject width="99.59375" height="24"><div xmlns="http://www.w3.org/1999/xhtml" style="display: table-cell; white-space: nowrap; line-height: 1.5; max-width: 134px; text-align: center;"><span class="nodeLabel markdown-node-label" style=""><p>OrbitalsState</p></span></div></foreignObject></g></g><g class="members-group text" transform="translate(-49.796875, 30)"/><g class="methods-group text" transform="translate(-49.796875, 60)"/><g class="divider" style=""><path d="M-61.796875 6 C-23.77225442249268 6, 14.252366155014641 6, 61.796875 6 M-61.796875 6 C-29.250297949382208 6, 3.2962791012355837 6, 61.796875 6" stroke="#9370DB" stroke-width="1.3" fill="none" stroke-dasharray="0 0" style=""/></g></g><g class="node default" id="classId-ParticleState-5" transform="translate(328.1484375, 50)"><g class="basic label-container"><path d="M-60.46875 -42 L60.46875 -42 L60.46875 42 L-60.46875 42" stroke="none" stroke-width="0" fill="#ECECFF" style=""/><path d="M-60.46875 -42 C-35.93005352488974 -42, -11.391357049779494 -42, 60.46875 -42 M-60.46875 -42 C-35.743593984512245 -42, -11.018437969024497 -42, 60.46875 -42 M60.46875 -42 C60.46875 -14.385702785856523, 60.46875 13.228594428286954, 60.46875 42 M60.46875 -42 C60.46875 -16.255073071882595, 60.46875 9.48985385623481, 60.46875 42 M60.46875 42 C31.05886043747284 42, 1.6489708749456824 42, -60.46875 42 M60.46875 42 C14.975271625698248 42, -30.518206748603504 42, -60.46875 42 M-60.46875 42 C-60.46875 23.79930772049602, -60.46875 5.598615440992042, -60.46875 -42 M-60.46875 42 C-60.46875 24.52565404156907, -60.46875 7.051308083138139, -60.46875 -42" stroke="#9370DB" stroke-width="1.3" fill="none" stroke-dasharray="0 0" style=""/></g><g class="annotation-group text" transform="translate(0, -18)"/><g class="label-group text" transform="translate(-48.46875, -18)"><g class="label" style="font-weight: bolder" transform="translate(0,-12)"><foreignObject width="96.9375" height="24"><div xmlns="http://www.w3.org/1999/xhtml" style="display: table-cell; white-space: nowrap; line-height: 1.5; max-width: 131px; text-align: center;"><span class="nodeLabel markdown-node-label" style=""><p>ParticleState</p></span></div></foreignObject></g></g><g class="members-group text" transform="translate(-48.46875, 30)"/><g class="methods-group text" transform="translate(-48.46875, 60)"/><g class="divider" style=""><path d="M-60.46875 6 C-24.903898211245803 6, 10.660953577508394 6, 60.46875 6 M-60.46875 6 C-34.29676111734267 6, -8.124772234685345 6, 60.46875 6" stroke="#9370DB" stroke-width="1.3" fill="none" stroke-dasharray="0 0" style=""/></g></g></g></g></g></svg>