<?xml version="1.0" encoding="UTF-8"?>
<svg id="my-svg" width="100%" xmlns="http://www.w3.org/2000/svg" xmlns:xlink="http://www.w3.org/1999/xlink" class="classDiagram" style="max-width: 261.578px; background-color: white;" viewBox="0 0 261.578125 234" role="graphics-document document" aria-roledescription="class"><style>#my-svg{font-family:"trebuchet ms",verdana,arial,sans-serif;font-size:16px;fill:#333;}@keyframes edge-animation-frame{from{stroke-dashoffset:0;}}@keyframes dash{to{stroke-dashoffset:0;}}#my-svg .edge-animation-slow{stroke-dasharray:9,5!important;stroke-dashoffset:900;animation:dash 50s linear infinite;stroke-linecap:round;}#my-svg .edge-animation-fast{stroke-dasharray:9,5!important;stroke-dashoffset:900;animation:dash 20s linear infinite;stroke-linecap:round;}#my-svg .error-icon{fill:#552222;}#my-svg .error-text{fill:#552222;stroke:#552222;}#my-svg .edge-thickness-normal{stroke-width:1px;}#my-svg .edge-thickness-thick{stroke-width:3.5px;}#my-svg .edge-pattern-solid{stroke-dasharray:0;}#my-svg .edge-thickness-invisible{stroke-width:0;fill:none;}#my-svg .edge-pattern-dashed{stroke-dasharray:3;}#my-svg .edge-pattern-dotted{stroke-dasharray:2;}#my-svg .marker{fill:#333333;stroke:#333333;}#my-svg .marker.cross{stroke:#333333;}#my-svg svg{font-family:"trebuchet ms",verdana,arial,sans-serif;font-size:16px;}#my-svg p{margin:0;}#my-svg g.classGroup text{fill:#9370DB;stroke:none;font-family:"trebuchet ms",verdana,arial,sans-serif;font-size:10px;}#my-svg g.classGroup text .title{font-weight:bolder;}#my-svg .nodeLabel,#my-svg .edgeLabel{color:#131300;}#my-svg .edgeLabel .label rect{fill:#ECECFF;}#my-svg .label text{fill:#131300;}#my-svg .labelBkg{background:#ECECFF;}#my-svg .edgeLabel .label span{background:#ECECFF;}#my-svg .classTitle{font-weight:bolder;}#my-svg .node rect,#my-svg .node circle,#my-svg .node ellipse,#my-svg .node polygon,#my-svg .node path{fill:#ECECFF;stroke:#9370DB;stroke-width:1px;}#my-svg .divider{stroke:#9370DB;stroke-width:1;}#my-svg g.clickable{cursor:pointer;}#my-svg g.classGroup rect{fill:#ECECFF;stroke:#9370DB;}#my-svg g.classGroup line{stroke:#9370DB;stroke-width:1;}#my-svg .classLabel .box{stroke:none;stroke-width:0;fill:#ECECFF;opacity:0.5;}#my-svg .classLabel .label{fill:#9370DB;font-size:10px;}#my-svg .relation{stroke:#333333;stroke-width:1;fill:none;}#my-svg .dashed-line{stroke-dasharray:3;}#my-svg .dotted-line{stroke-dasharray:1 2;}#my-svg #compositionStart,#my-svg .composition{fill:#333333!important;stroke:#333333!important;stroke-width:1;}#my-svg #compositionEnd,#my-svg .composition{fill:#333333!important;stroke:#333333!important;stroke-width:1;}#my-svg #dependencyStart,#my-svg .dependency{fill:#333333!important;stroke:#333333!important;stroke-width:1;}#my-svg #dependencyStart,#my-svg .dependency{fill:#333333!important;stroke:#333333!important;stroke-width:1;}#my-svg #extensionStart,#my-svg .extension{fill:transparent!important;stroke:#333333!important;stroke-width:1;}#my-svg #extensionEnd,#my-svg .extension{fill:transparent!important;stroke:#333333!important;stroke-width:1;}#my-svg #aggregationStart,#my-svg .aggregation{fill:transparent!important;stroke:#333333!important;stroke-width:1;}#my-svg #aggregationEnd,#my-svg .aggregation{fill:transparent!important;stroke:#333333!important;stroke-width:1;}#my-svg #lollipopStart,#my-svg .lollipop{fill:#ECECFF!important;stroke:#333333!important;stroke-width:1;}#my-svg #lollipopEnd,#my-svg .lollipop{fill:#ECECFF!important;stroke:#333333!important;stroke-width:1;}#my-svg .edgeTerminals{font-size:11px;line-height:initial;}#my-svg .classTitleText{text-anchor:middle;font-size:18px;fill:#333;}#my-svg .label-icon{display:inline-block;height:1em;overflow:visible;vertical-align:-0.125em;}#my-svg .node .label-icon path{fill:currentColor;stroke:revert;stroke-width:revert;}#my-svg :root{--mermaid-font-family:"trebuchet ms",verdana,arial,sans-serif;}</style><g><defs><marker id="my-svg_class-aggregationStart" class="marker aggregation class" refX="18" refY="7" markerWidth="190" markerHeight="240" orient="auto"><path d="M 18,7 L9,13 L1,7 L9,1 Z"/></marker></defs><defs><marker id="my-svg_class-aggregationEnd" class="marker aggregation class" refX="1" refY="7" markerWidth="20" markerHeight="28" orient="auto"><path d="M 18,7 L9,13 L1,7 L9,1 Z"/></marker></defs><defs><marker id="my-svg_class-extensionStart" class="marker extension class" refX="18" refY="7" markerWidth="190" markerHeight="240" orient="auto"><path d="M 1,7 L18,13 V 1 Z"/></marker></defs><defs><marker id="my-svg_class-extensionEnd" class="marker extension class" refX="1" refY="7" markerWidth="20" markerHeight="28" orient="auto"><path d="M 1,1 V 13 L18,7 Z"/></marker></defs><defs><marker id="my-svg_class-compositionStart" class="marker composition class" refX="18" refY="7" markerWidth="190" markerHeight="240" orient="auto"><path d="M 18,7 L9,13 L1,7 L9,1 Z"/></marker></defs><defs><marker id="my-svg_class-compositionEnd" class="marker composition class" refX="1" refY="7" markerWidth="20" markerHeight="28" orient="auto"><path d="M 18,7 L9,13 L1,7 L9,1 Z"/></marker></defs><defs><marker id="my-svg_class-dependencyStart" class="marker dependency class" refX="6" refY="7" markerWidth="190" markerHeight="240" orient="auto"><path d="M 5,7 L9,13 L1,7 L9,1 Z"/></marker></defs><defs><marker id="my-svg_class-dependencyEnd" class="marker dependency class" refX="13" refY="7" markerWidth="20" markerHeight="28" orient="auto"><path d="M 18,7 L9,13 L14,7 L9,1 Z"/></marker></defs><defs><marker id="my-svg_class-lollipopStart" class="marker lollipop class" refX="13" refY="7" markerWidth="190" markerHeight="240" orient="auto"><circle stroke="black" fill="transparent" cx="7" cy="7" r="6"/></marker></defs><defs><marker id="my-svg_class-lollipopEnd" class="marker lollipop class" refX="1" refY="7" markerWidth="190" markerHeight="240" orient="auto"><circle stroke="black" fill="transparent" cx="7" cy="7" r="6"/></marker></defs><g class="root"><g class="clusters"/><g class="edgePaths"><path d="M75.684,103.587L73.218,105.822C70.753,108.058,65.822,112.529,63.356,118.931C60.891,125.333,60.891,133.667,60.891,137.833L60.891,142" id="id_BaseSimulation_Simulation_1" class="edge-thickness-normal edge-pattern-solid relation" style=";;;" data-edge="true" data-et="edge" data-id="id_BaseSimulation_Simulation_1" data-points="W3sieCI6ODguNDYzMjExMjg3MzEzNDQsInkiOjkyfSx7IngiOjYwLjg5MDYyNSwieSI6MTE3fSx7IngiOjYwLjg5MDYyNSwieSI6MTQyfV0=" marker-start="url(#my-svg_class-extensionStart)"/><path d="M181.107,92L185.703,96.167C190.298,100.333,199.489,108.667,204.084,116C208.68,123.333,208.68,129.667,208.68,132.833L208.68,136" id="id_BaseSimulation_Program_2" class="edge-thickness-normal edge-pattern-solid relation" style=";;;" data-edge="true" data-et="edge" data-id="id_BaseSimulation_Program_2" data-points="W3sieCI6MTgxLjEwNzEwMTIxMjY4NjU2LCJ5Ijo5Mn0seyJ4IjoyMDguNjc5Njg3NSwieSI6MTE3fSx7IngiOjIwOC42Nzk2ODc1LCJ5IjoxNDJ9XQ==" marker-end="url(#my-svg_class-dependencyEnd)"/></g><g class="edgeLabels"><g class="edgeLabel"><g class="label" data-id="id_BaseSimulation_Simulation_1" transform="translate(0, 0)"><foreignObject width="0" height="0"><div xmlns="http://www.w3.org/1999/xhtml" class="labelBkg" style="display: table-cell; white-space: nowrap; line-height: 1.5; max-width: 200px; text-align: center;"><span class="edgeLabel"></span></div></foreignObject></g></g><g class="edgeLabel"><g class="label" data-id="id_BaseSimulation_Program_2" transform="translate(0, 0)"><foreignObject width="0" height="0"><div xmlns="http://www.w3.org/1999/xhtml" class="labelBkg" style="display: table-cell; white-space: nowrap; line-height: 1.5; max-width: 200px; text-align: center;"><span class="edgeLabel"></span></div></foreignObject></g></g></g><g class="nodes"><g class="node default" id="classId-BaseSimulation-0" transform="translate(134.78515625, 50)"><g class="basic label-container"><path d="M-72.015625 -42 L72.015625 -42 L72.015625 42 L-72.015625 42" stroke="none" stroke-width="0" fill="#ECECFF" style=""/><path d="M-72.015625 -42 C-20.00240934899589 -42, 32.01080630200822 -42, 72.015625 -42 M-72.015625 -42 C-21.20226465905192 -42, 29.61109568189616 -42, 72.015625 -42 M72.015625 -42 C72.015625 -11.831294206047147, 72.015625 18.337411587905706, 72.015625 42 M72.015625 -42 C72.015625 -11.75921665390267, 72.015625 18.48156669219466, 72.015625 42 M72.015625 42 C17.11279768758787 42, -37.79002962482426 42, -72.015625 42 M72.015625 42 C41.662911170269396 42, 11.3101973405388 42, -72.015625 42 M-72.015625 42 C-72.015625 24.87582521192001, -72.015625 7.751650423840019, -72.015625 -42 M-72.015625 42 C-72.015625 20.249278568557674, -72.015625 -1.5014428628846517, -72.015625 -42" stroke="#9370DB" stroke-width="1.3" fill="none" stroke-dasharray="0 0" style=""/></g><g class="annotation-group text" transform="translate(0, -18)"/><g class="label-group text" transform="translate(-60.015625, -18)"><g class="label" style="font-weight: bolder" transform="translate(0,-12)"><foreignObject width="120.03125" height="24"><div xmlns="http://www.w3.org/1999/xhtml" style="display: table-cell; white-space: nowrap; line-height: 1.5; max-width: 151px; text-align: center;"><span class="nodeLabel markdown-node-label" style=""><p>BaseSimulation</p></span></div></foreignObject></g></g><g class="members-group text" transform="translate(-60.015625, 30)"/><g class="methods-group text" transform="translate(-60.015625, 60)"/><g class="divider" style=""><path d="M-72.015625 6 C-32.10488244152699 6, 7.805860116946022 6, 72.015625 6 M-72.015625 6 C-27.017316440784235 6, 17.98099211843153 6, 72.015625 6" stroke="#9370DB" stroke-width="1.3" fill="none" stroke-dasharray="0 0" style=""/></g></g><g class="node default" id="classId-Program-1" transform="translate(208.6796875, 184)"><g class="basic label-container"><path d="M-44.8984375 -42 L44.8984375 -42 L44.8984375 42 L-44.8984375 42" stroke="none" stroke-width="0" fill="#ECECFF" style=""/><path d="M-44.8984375 -42 C-18.05414655631881 -42, 8.790144387362382 -42, 44.8984375 -42 M-44.8984375 -42 C-22.374725366352976 -42, 0.1489867672940477 -42, 44.8984375 -42 M44.8984375 -42 C44.8984375 -17.70164347009446, 44.8984375 6.59671305981108, 44.8984375 42 M44.8984375 -42 C44.8984375 -23.009944465308475, 44.8984375 -4.0198889306169505, 44.8984375 42 M44.8984375 42 C10.009097554480405 42, -24.88024239103919 42, -44.8984375 42 M44.8984375 42 C9.986386692350138 42, -24.925664115299725 42, -44.8984375 42 M-44.8984375 42 C-44.8984375 9.609860351656813, -44.8984375 -22.780279296686373, -44.8984375 -42 M-44.8984375 42 C-44.8984375 14.038370544619251, -44.8984375 -13.923258910761497, -44.8984375 -42" stroke="#9370DB" stroke-width="1.3" fill="none" stroke-dasharray="0 0" style=""/></g><g class="annotation-group text" transform="translate(0, -18)"/><g class="label-group text" transform="translate(-32.8984375, -18)"><g class="label" style="font-weight: bolder" transform="translate(0,-12)"><foreignObject width="65.796875" height="24"><div xmlns="http://www.w3.org/1999/xhtml" style="display: table-cell; white-space: nowrap; line-height: 1.5; max-width: 106px; text-align: center;"><span class="nodeLabel markdown-node-label" style=""><p>Program</p></span></div></foreignObject></g></g><g class="members-group text" transform="translate(-32.8984375, 30)"/><g class="methods-group text" transform="translate(-32.8984375, 60)"/><g class="divider" style=""><path d="M-44.8984375 6 C-15.829390530393624 6, 13.239656439212752 6, 44.8984375 6 M-44.8984375 6 C-26.617083461137042 6, -8.335729422274085 6, 44.8984375 6" stroke="#9370DB" stroke-width="1.3" fill="none" stroke-dasharray="0 0" style=""/></g></g><g class="node default" id="classId-Simulation-2" transform="translate(60.890625, 184)"><g class="basic label-container"><path d="M-52.890625 -42 L52.890625 -42 L52.890625 42 L-52.890625 42" stroke="none" stroke-width="0" fill="#ECECFF" style=""/><path d="M-52.890625 -42 C-25.794138965849314 -42, 1.3023470683013727 -42, 52.890625 -42 M-52.890625 -42 C-24.138059321510305 -42, 4.6145063569793905 -42, 52.890625 -42 M52.890625 -42 C52.890625 -16.701033712425893, 52.890625 8.597932575148214, 52.890625 42 M52.890625 -42 C52.890625 -15.341991595094285, 52.890625 11.31601680981143, 52.890625 42 M52.890625 42 C17.870284982299175 42, -17.15005503540165 42, -52.890625 42 M52.890625 42 C26.294521165296082 42, -0.3015826694078356 42, -52.890625 42 M-52.890625 42 C-52.890625 15.843970978744665, -52.890625 -10.312058042510671, -52.890625 -42 M-52.890625 42 C-52.890625 20.283748732518898, -52.890625 -1.4325025349622038, -52.890625 -42" stroke="#9370DB" stroke-width="1.3" fill="none" stroke-dasharray="0 0" style=""/></g><g class="annotation-group text" transform="translate(0, -18)"/><g class="label-group text" transform="translate(-40.890625, -18)"><g class="label" style="font-weight: bolder" transform="translate(0,-12)"><foreignObject width="81.78125" height="24"><div xmlns="http://www.w3.org/1999/xhtml" style="display: table-cell; white-space: nowrap; line-height: 1.5; max-width: 120px; text-align: center;"><span class="nodeLabel markdown-node-label" style=""><p>Simulation</p></span></div></foreignObject></g></g><g class="members-group text" transform="translate(-40.890625, 30)"/><g class="methods-group text" transform="translate(-40.890625, 60)"/><g class="divider" style=""><path d="M-52.890625 6 C-28.388033528951173 6, -3.8854420579023454 6, 52.890625 6 M-52.890625 6 C-26.335633866310975 6, 0.21935726737805084 6, 52.890625 6" stroke="#9370DB" stroke-width="1.3" fill="none" stroke-dasharray="0 0" style=""/></g></g></g></g></g></svg>