<?xml version="1.0" encoding="UTF-8"?>
<svg id="my-svg" width="100%" xmlns="http://www.w3.org/2000/svg" xmlns:xlink="http://www.w3.org/1999/xlink" class="classDiagram" style="max-width: 455.562px; background-color: white;" viewBox="0 0 455.5625 416" role="graphics-document document" aria-roledescription="class"><style>#my-svg{font-family:"trebuchet ms",verdana,arial,sans-serif;font-size:16px;fill:#333;}@keyframes edge-animation-frame{from{stroke-dashoffset:0;}}@keyframes dash{to{stroke-dashoffset:0;}}#my-svg .edge-animation-slow{stroke-dasharray:9,5!important;stroke-dashoffset:900;animation:dash 50s linear infinite;stroke-linecap:round;}#my-svg .edge-animation-fast{stroke-dasharray:9,5!important;stroke-dashoffset:900;animation:dash 20s linear infinite;stroke-linecap:round;}#my-svg .error-icon{fill:#552222;}#my-svg .error-text{fill:#552222;stroke:#552222;}#my-svg .edge-thickness-normal{stroke-width:1px;}#my-svg .edge-thickness-thick{stroke-width:3.5px;}#my-svg .edge-pattern-solid{stroke-dasharray:0;}#my-svg .edge-thickness-invisible{stroke-width:0;fill:none;}#my-svg .edge-pattern-dashed{stroke-dasharray:3;}#my-svg .edge-pattern-dotted{stroke-dasharray:2;}#my-svg .marker{fill:#333333;stroke:#333333;}#my-svg .marker.cross{stroke:#333333;}#my-svg svg{font-family:"trebuchet ms",verdana,arial,sans-serif;font-size:16px;}#my-svg p{margin:0;}#my-svg g.classGroup text{fill:#9370DB;stroke:none;font-family:"trebuchet ms",verdana,arial,sans-serif;font-size:10px;}#my-svg g.classGroup text .title{font-weight:bolder;}#my-svg .nodeLabel,#my-svg .edgeLabel{color:#131300;}#my-svg .edgeLabel .label rect{fill:#ECECFF;}#my-svg .label text{fill:#131300;}#my-svg .labelBkg{background:#ECECFF;}#my-svg .edgeLabel .label span{background:#ECECFF;}#my-svg .classTitle{font-weight:bolder;}#my-svg .node rect,#my-svg .node circle,#my-svg .node ellipse,#my-svg .node polygon,#my-svg .node path{fill:#ECECFF;stroke:#9370DB;stroke-width:1px;}#my-svg .divider{stroke:#9370DB;stroke-width:1;}#my-svg g.clickable{cursor:pointer;}#my-svg g.classGroup rect{fill:#ECECFF;stroke:#9370DB;}#my-svg g.classGroup line{stroke:#9370DB;stroke-width:1;}#my-svg .classLabel .box{stroke:none;stroke-width:0;fill:#ECECFF;opacity:0.5;}#my-svg .classLabel .label{fill:#9370DB;font-size:10px;}#my-svg .relation{stroke:#333333;stroke-width:1;fill:none;}#my-svg .dashed-line{stroke-dasharray:3;}#my-svg .dotted-line{stroke-dasharray:1 2;}#my-svg #compositionStart,#my-svg .composition{fill:#333333!important;stroke:#333333!important;stroke-width:1;}#my-svg #compositionEnd,#my-svg .composition{fill:#333333!important;stroke:#333333!important;stroke-width:1;}#my-svg #dependencyStart,#my-svg .dependency{fill:#333333!important;stroke:#333333!important;stroke-width:1;}#my-svg #dependencyStart,#my-svg .dependency{fill:#333333!important;stroke:#333333!important;stroke-width:1;}#my-svg #extensionStart,#my-svg .extension{fill:transparent!important;stroke:#333333!important;stroke-width:1;}#my-svg #extensionEnd,#my-svg .extension{fill:transparent!important;stroke:#333333!important;stroke-width:1;}#my-svg #aggregationStart,#my-svg .aggregation{fill:transparent!important;stroke:#333333!important;stroke-width:1;}#my-svg #aggregationEnd,#my-svg .aggregation{fill:transparent!important;stroke:#333333!important;stroke-width:1;}#my-svg #lollipopStart,#my-svg .lollipop{fill:#ECECFF!important;stroke:#333333!important;stroke-width:1;}#my-svg #lollipopEnd,#my-svg .lollipop{fill:#ECECFF!important;stroke:#333333!important;stroke-width:1;}#my-svg .edgeTerminals{font-size:11px;line-height:initial;}#my-svg .classTitleText{text-anchor:middle;font-size:18px;fill:#333;}#my-svg .label-icon{display:inline-block;height:1em;overflow:visible;vertical-align:-0.125em;}#my-svg .node .label-icon path{fill:currentColor;stroke:revert;stroke-width:revert;}#my-svg :root{--mermaid-font-family:"trebuchet ms",verdana,arial,sans-serif;}</style><g><defs><marker id="my-svg_class-aggregationStart" class="marker aggregation class" refX="18" refY="7" markerWidth="190" markerHeight="240" orient="auto"><path d="M 18,7 L9,13 L1,7 L9,1 Z"/></marker></defs><defs><marker id="my-svg_class-aggregationEnd" class="marker aggregation class" refX="1" refY="7" markerWidth="20" markerHeight="28" orient="auto"><path d="M 18,7 L9,13 L1,7 L9,1 Z"/></marker></defs><defs><marker id="my-svg_class-extensionStart" class="marker extension class" refX="18" refY="7" markerWidth="190" markerHeight="240" orient="auto"><path d="M 1,7 L18,13 V 1 Z"/></marker></defs><defs><marker id="my-svg_class-extensionEnd" class="marker extension class" refX="1" refY="7" markerWidth="20" markerHeight="28" orient="auto"><path d="M 1,1 V 13 L18,7 Z"/></marker></defs><defs><marker id="my-svg_class-compositionStart" class="marker composition class" refX="18" refY="7" markerWidth="190" markerHeight="240" orient="auto"><path d="M 18,7 L9,13 L1,7 L9,1 Z"/></marker></defs><defs><marker id="my-svg_class-compositionEnd" class="marker composition class" refX="1" refY="7" markerWidth="20" markerHeight="28" orient="auto"><path d="M 18,7 L9,13 L1,7 L9,1 Z"/></marker></defs><defs><marker id="my-svg_class-dependencyStart" class="marker dependency class" refX="6" refY="7" markerWidth="190" markerHeight="240" orient="auto"><path d="M 5,7 L9,13 L1,7 L9,1 Z"/></marker></defs><defs><marker id="my-svg_class-dependencyEnd" class="marker dependency class" refX="13" refY="7" markerWidth="20" markerHeight="28" orient="auto"><path d="M 18,7 L9,13 L14,7 L9,1 Z"/></marker></defs><defs><marker id="my-svg_class-lollipopStart" class="marker lollipop class" refX="13" refY="7" markerWidth="190" markerHeight="240" orient="auto"><circle stroke="black" fill="transparent" cx="7" cy="7" r="6"/></marker></defs><defs><marker id="my-svg_class-lollipopEnd" class="marker lollipop class" refX="1" refY="7" markerWidth="190" markerHeight="240" orient="auto"><circle stroke="black" fill="transparent" cx="7" cy="7" r="6"/></marker></defs><g class="root"><g class="clusters"/><g class="edgePaths"><path d="M225.839,104.598L229.643,108.665C233.447,112.732,241.056,120.866,244.86,131.1C248.664,141.333,248.664,153.667,248.664,159.833L248.664,166" id="id_BaseSimulation_Simulation_1" class="edge-thickness-normal edge-pattern-solid relation" style=";;;" data-edge="true" data-et="edge" data-id="id_BaseSimulation_Simulation_1" data-points="W3sieCI6MjE0LjA1NTIzMTQwODIyNzg1LCJ5Ijo5Mn0seyJ4IjoyNDguNjY0MDYyNSwieSI6MTI5fSx7IngiOjI0OC42NjQwNjI1LCJ5IjoxNjZ9XQ==" marker-start="url(#my-svg_class-extensionStart)"/><path d="M135.484,92L129.716,98.167C123.948,104.333,112.411,116.667,106.643,128C100.875,139.333,100.875,149.667,100.875,154.833L100.875,160" id="id_BaseSimulation_Program_2" class="edge-thickness-normal edge-pattern-solid relation" style=";;;" data-edge="true" data-et="edge" data-id="id_BaseSimulation_Program_2" data-points="W3sieCI6MTM1LjQ4MzgzMTA5MTc3MjE1LCJ5Ijo5Mn0seyJ4IjoxMDAuODc1LCJ5IjoxMjl9LHsieCI6MTAwLjg3NSwieSI6MTY2fV0=" marker-end="url(#my-svg_class-dependencyEnd)"/><path d="M195.773,231.591L175.069,240.826C154.365,250.061,112.956,268.53,92.251,282.932C71.547,297.333,71.547,307.667,71.547,312.833L71.547,318" id="id_Simulation_ModelMethod_3" class="edge-thickness-normal edge-pattern-solid relation" style=";;;" data-edge="true" data-et="edge" data-id="id_Simulation_ModelMethod_3" data-points="W3sieCI6MTk1Ljc3MzQzNzUsInkiOjIzMS41OTA5MzExNDU1MTYzfSx7IngiOjcxLjU0Njg3NSwieSI6Mjg3fSx7IngiOjcxLjU0Njg3NSwieSI6MzI0fV0=" marker-end="url(#my-svg_class-dependencyEnd)"/><path d="M248.664,250L248.664,256.167C248.664,262.333,248.664,274.667,248.664,286C248.664,297.333,248.664,307.667,248.664,312.833L248.664,318" id="id_Simulation_ModelSystem_4" class="edge-thickness-normal edge-pattern-solid relation" style=";;;" data-edge="true" data-et="edge" data-id="id_Simulation_ModelSystem_4" data-points="W3sieCI6MjQ4LjY2NDA2MjUsInkiOjI1MH0seyJ4IjoyNDguNjY0MDYyNSwieSI6Mjg3fSx7IngiOjI0OC42NjQwNjI1LCJ5IjozMjR9XQ==" marker-end="url(#my-svg_class-dependencyEnd)"/><path d="M301.555,234.744L318.779,243.453C336.003,252.163,370.451,269.581,387.674,283.457C404.898,297.333,404.898,307.667,404.898,312.833L404.898,318" id="id_Simulation_Outputs_5" class="edge-thickness-normal edge-pattern-solid relation" style=";;;" data-edge="true" data-et="edge" data-id="id_Simulation_Outputs_5" data-points="W3sieCI6MzAxLjU1NDY4NzUsInkiOjIzNC43NDQxNzQ0MTc0NDE3NH0seyJ4Ijo0MDQuODk4NDM3NSwieSI6Mjg3fSx7IngiOjQwNC44OTg0Mzc1LCJ5IjozMjR9XQ==" marker-end="url(#my-svg_class-dependencyEnd)"/></g><g class="edgeLabels"><g class="edgeLabel"><g class="label" data-id="id_BaseSimulation_Simulation_1" transform="translate(0, 0)"><foreignObject width="0" height="0"><div xmlns="http://www.w3.org/1999/xhtml" class="labelBkg" style="display: table-cell; white-space: nowrap; line-height: 1.5; max-width: 200px; text-align: center;"><span class="edgeLabel"></span></div></foreignObject></g></g><g class="edgeLabel" transform="translate(100.875, 129)"><g class="label" data-id="id_BaseSimulation_Program_2" transform="translate(-29.7890625, -12)"><foreignObject width="59.578125" height="24"><div xmlns="http://www.w3.org/1999/xhtml" class="labelBkg" style="display: table-cell; white-space: nowrap; line-height: 1.5; max-width: 200px; text-align: center;"><span class="edgeLabel"><p>program</p></span></div></foreignObject></g></g><g class="edgeLabel" transform="translate(71.546875, 287)"><g class="label" data-id="id_Simulation_ModelMethod_3" transform="translate(-52.921875, -12)"><foreignObject width="105.84375" height="24"><div xmlns="http://www.w3.org/1999/xhtml" class="labelBkg" style="display: table-cell; white-space: nowrap; line-height: 1.5; max-width: 200px; text-align: center;"><span class="edgeLabel"><p>model_method</p></span></div></foreignObject></g></g><g class="edgeLabel" transform="translate(248.6640625, 287)"><g class="label" data-id="id_Simulation_ModelSystem_4" transform="translate(-51.578125, -12)"><foreignObject width="103.15625" height="24"><div xmlns="http://www.w3.org/1999/xhtml" class="labelBkg" style="display: table-cell; white-space: nowrap; line-height: 1.5; max-width: 200px; text-align: center;"><span class="edgeLabel"><p>model_system</p></span></div></foreignObject></g></g><g class="edgeLabel" transform="translate(404.8984375, 287)"><g class="label" data-id="id_Simulation_Outputs_5" transform="translate(-26.2421875, -12)"><foreignObject width="52.484375" height="24"><div xmlns="http://www.w3.org/1999/xhtml" class="labelBkg" style="display: table-cell; white-space: nowrap; line-height: 1.5; max-width: 200px; text-align: center;"><span class="edgeLabel"><p>outputs</p></span></div></foreignObject></g></g></g><g class="nodes"><g class="node default" id="classId-BaseSimulation-0" transform="translate(174.76953125, 50)"><g class="basic label-container"><path d="M-72.015625 -42 L72.015625 -42 L72.015625 42 L-72.015625 42" stroke="none" stroke-width="0" fill="#ECECFF" style=""/><path d="M-72.015625 -42 C-27.63633004561892 -42, 16.74296490876216 -42, 72.015625 -42 M-72.015625 -42 C-33.57924909180487 -42, 4.857126816390263 -42, 72.015625 -42 M72.015625 -42 C72.015625 -10.702586095134663, 72.015625 20.594827809730674, 72.015625 42 M72.015625 -42 C72.015625 -10.011995071712214, 72.015625 21.976009856575573, 72.015625 42 M72.015625 42 C34.260422919892854 42, -3.494779160214293 42, -72.015625 42 M72.015625 42 C35.552462652722085 42, -0.9106996945558308 42, -72.015625 42 M-72.015625 42 C-72.015625 16.451648375618042, -72.015625 -9.096703248763916, -72.015625 -42 M-72.015625 42 C-72.015625 18.37827470239583, -72.015625 -5.243450595208337, -72.015625 -42" stroke="#9370DB" stroke-width="1.3" fill="none" stroke-dasharray="0 0" style=""/></g><g class="annotation-group text" transform="translate(0, -18)"/><g class="label-group text" transform="translate(-60.015625, -18)"><g class="label" style="font-weight: bolder" transform="translate(0,-12)"><foreignObject width="120.03125" height="24"><div xmlns="http://www.w3.org/1999/xhtml" style="display: table-cell; white-space: nowrap; line-height: 1.5; max-width: 151px; text-align: center;"><span class="nodeLabel markdown-node-label" style=""><p>BaseSimulation</p></span></div></foreignObject></g></g><g class="members-group text" transform="translate(-60.015625, 30)"/><g class="methods-group text" transform="translate(-60.015625, 60)"/><g class="divider" style=""><path d="M-72.015625 6 C-22.146776983939667 6, 27.722071032120667 6, 72.015625 6 M-72.015625 6 C-32.67689292985347 6, 6.661839140293054 6, 72.015625 6" stroke="#9370DB" stroke-width="1.3" fill="none" stroke-dasharray="0 0" style=""/></g></g><g class="node default" id="classId-ModelMethod-1" transform="translate(71.546875, 366)"><g class="basic label-container"><path d="M-63.546875 -42 L63.546875 -42 L63.546875 42 L-63.546875 42" stroke="none" stroke-width="0" fill="#ECECFF" style=""/><path d="M-63.546875 -42 C-17.99878535527951 -42, 27.549304289440983 -42, 63.546875 -42 M-63.546875 -42 C-23.60778765569247 -42, 16.33129968861506 -42, 63.546875 -42 M63.546875 -42 C63.546875 -19.2213482869472, 63.546875 3.557303426105598, 63.546875 42 M63.546875 -42 C63.546875 -14.29814313615249, 63.546875 13.40371372769502, 63.546875 42 M63.546875 42 C19.40994588785089 42, -24.726983224298223 42, -63.546875 42 M63.546875 42 C31.733490283514367 42, -0.07989443297126542 42, -63.546875 42 M-63.546875 42 C-63.546875 8.544735655255344, -63.546875 -24.91052868948931, -63.546875 -42 M-63.546875 42 C-63.546875 18.513123698186906, -63.546875 -4.973752603626188, -63.546875 -42" stroke="#9370DB" stroke-width="1.3" fill="none" stroke-dasharray="0 0" style=""/></g><g class="annotation-group text" transform="translate(0, -18)"/><g class="label-group text" transform="translate(-51.546875, -18)"><g class="label" style="font-weight: bolder" transform="translate(0,-12)"><foreignObject width="103.09375" height="24"><div xmlns="http://www.w3.org/1999/xhtml" style="display: table-cell; white-space: nowrap; line-height: 1.5; max-width: 142px; text-align: center;"><span class="nodeLabel markdown-node-label" style=""><p>ModelMethod</p></span></div></foreignObject></g></g><g class="members-group text" transform="translate(-51.546875, 30)"/><g class="methods-group text" transform="translate(-51.546875, 60)"/><g class="divider" style=""><path d="M-63.546875 6 C-21.76754744436211 6, 20.011780111275783 6, 63.546875 6 M-63.546875 6 C-20.921419247359758 6, 21.704036505280484 6, 63.546875 6" stroke="#9370DB" stroke-width="1.3" fill="none" stroke-dasharray="0 0" style=""/></g></g><g class="node default" id="classId-ModelSystem-2" transform="translate(248.6640625, 366)"><g class="basic label-container"><path d="M-63.5703125 -42 L63.5703125 -42 L63.5703125 42 L-63.5703125 42" stroke="none" stroke-width="0" fill="#ECECFF" style=""/><path d="M-63.5703125 -42 C-14.436788773234703 -42, 34.696734953530594 -42, 63.5703125 -42 M-63.5703125 -42 C-14.944770663314905 -42, 33.68077117337019 -42, 63.5703125 -42 M63.5703125 -42 C63.5703125 -16.522255992346267, 63.5703125 8.955488015307466, 63.5703125 42 M63.5703125 -42 C63.5703125 -20.012733483808347, 63.5703125 1.974533032383306, 63.5703125 42 M63.5703125 42 C30.670885438938853 42, -2.228541622122293 42, -63.5703125 42 M63.5703125 42 C31.075084773638856 42, -1.420142952722287 42, -63.5703125 42 M-63.5703125 42 C-63.5703125 15.512299227044206, -63.5703125 -10.975401545911588, -63.5703125 -42 M-63.5703125 42 C-63.5703125 11.17958328400929, -63.5703125 -19.64083343198142, -63.5703125 -42" stroke="#9370DB" stroke-width="1.3" fill="none" stroke-dasharray="0 0" style=""/></g><g class="annotation-group text" transform="translate(0, -18)"/><g class="label-group text" transform="translate(-51.5703125, -18)"><g class="label" style="font-weight: bolder" transform="translate(0,-12)"><foreignObject width="103.140625" height="24"><div xmlns="http://www.w3.org/1999/xhtml" style="display: table-cell; white-space: nowrap; line-height: 1.5; max-width: 139px; text-align: center;"><span class="nodeLabel markdown-node-label" style=""><p>ModelSystem</p></span></div></foreignObject></g></g><g class="members-group text" transform="translate(-51.5703125, 30)"/><g class="methods-group text" transform="translate(-51.5703125, 60)"/><g class="divider" style=""><path d="M-63.5703125 6 C-17.032189658294364 6, 29.505933183411273 6, 63.5703125 6 M-63.5703125 6 C-22.519026445981062 6, 18.532259608037876 6, 63.5703125 6" stroke="#9370DB" stroke-width="1.3" fill="none" stroke-dasharray="0 0" style=""/></g></g><g class="node default" id="classId-Outputs-3" transform="translate(404.8984375, 366)"><g class="basic label-container"><path d="M-42.6640625 -42 L42.6640625 -42 L42.6640625 42 L-42.6640625 42" stroke="none" stroke-width="0" fill="#ECECFF" style=""/><path d="M-42.6640625 -42 C-14.395159540813605 -42, 13.87374341837279 -42, 42.6640625 -42 M-42.6640625 -42 C-8.783275875939893 -42, 25.097510748120214 -42, 42.6640625 -42 M42.6640625 -42 C42.6640625 -9.953427385118879, 42.6640625 22.093145229762243, 42.6640625 42 M42.6640625 -42 C42.6640625 -11.4327557437264, 42.6640625 19.1344885125472, 42.6640625 42 M42.6640625 42 C25.314870427807946 42, 7.965678355615893 42, -42.6640625 42 M42.6640625 42 C19.259244091880177 42, -4.145574316239646 42, -42.6640625 42 M-42.6640625 42 C-42.6640625 10.094421249463917, -42.6640625 -21.811157501072167, -42.6640625 -42 M-42.6640625 42 C-42.6640625 11.768097763046466, -42.6640625 -18.463804473907068, -42.6640625 -42" stroke="#9370DB" stroke-width="1.3" fill="none" stroke-dasharray="0 0" style=""/></g><g class="annotation-group text" transform="translate(0, -18)"/><g class="label-group text" transform="translate(-30.6640625, -18)"><g class="label" style="font-weight: bolder" transform="translate(0,-12)"><foreignObject width="61.328125" height="24"><div xmlns="http://www.w3.org/1999/xhtml" style="display: table-cell; white-space: nowrap; line-height: 1.5; max-width: 101px; text-align: center;"><span class="nodeLabel markdown-node-label" style=""><p>Outputs</p></span></div></foreignObject></g></g><g class="members-group text" transform="translate(-30.6640625, 30)"/><g class="methods-group text" transform="translate(-30.6640625, 60)"/><g class="divider" style=""><path d="M-42.6640625 6 C-8.64229585103675 6, 25.3794707979265 6, 42.6640625 6 M-42.6640625 6 C-8.617547281950309 6, 25.428967936099383 6, 42.6640625 6" stroke="#9370DB" stroke-width="1.3" fill="none" stroke-dasharray="0 0" style=""/></g></g><g class="node default" id="classId-Program-4" transform="translate(100.875, 208)"><g class="basic label-container"><path d="M-44.8984375 -42 L44.8984375 -42 L44.8984375 42 L-44.8984375 42" stroke="none" stroke-width="0" fill="#ECECFF" style=""/><path d="M-44.8984375 -42 C-16.594684773507158 -42, 11.709067952985684 -42, 44.8984375 -42 M-44.8984375 -42 C-10.034158518912399 -42, 24.830120462175202 -42, 44.8984375 -42 M44.8984375 -42 C44.8984375 -10.607537600977164, 44.8984375 20.784924798045672, 44.8984375 42 M44.8984375 -42 C44.8984375 -25.08636339516504, 44.8984375 -8.172726790330081, 44.8984375 42 M44.8984375 42 C10.801777279373013 42, -23.294882941253974 42, -44.8984375 42 M44.8984375 42 C18.10239038652962 42, -8.693656726940759 42, -44.8984375 42 M-44.8984375 42 C-44.8984375 17.1826142999551, -44.8984375 -7.634771400089797, -44.8984375 -42 M-44.8984375 42 C-44.8984375 16.332157080323704, -44.8984375 -9.335685839352593, -44.8984375 -42" stroke="#9370DB" stroke-width="1.3" fill="none" stroke-dasharray="0 0" style=""/></g><g class="annotation-group text" transform="translate(0, -18)"/><g class="label-group text" transform="translate(-32.8984375, -18)"><g class="label" style="font-weight: bolder" transform="translate(0,-12)"><foreignObject width="65.796875" height="24"><div xmlns="http://www.w3.org/1999/xhtml" style="display: table-cell; white-space: nowrap; line-height: 1.5; max-width: 106px; text-align: center;"><span class="nodeLabel markdown-node-label" style=""><p>Program</p></span></div></foreignObject></g></g><g class="members-group text" transform="translate(-32.8984375, 30)"/><g class="methods-group text" transform="translate(-32.8984375, 60)"/><g class="divider" style=""><path d="M-44.8984375 6 C-19.129889657024556 6, 6.638658185950888 6, 44.8984375 6 M-44.8984375 6 C-17.399165993254428 6, 10.100105513491144 6, 44.8984375 6" stroke="#9370DB" stroke-width="1.3" fill="none" stroke-dasharray="0 0" style=""/></g></g><g class="node default" id="classId-Simulation-5" transform="translate(248.6640625, 208)"><g class="basic label-container"><path d="M-52.890625 -42 L52.890625 -42 L52.890625 42 L-52.890625 42" stroke="none" stroke-width="0" fill="#ECECFF" style=""/><path d="M-52.890625 -42 C-28.443294164134624 -42, -3.995963328269248 -42, 52.890625 -42 M-52.890625 -42 C-30.935300320070866 -42, -8.979975640141731 -42, 52.890625 -42 M52.890625 -42 C52.890625 -20.587108843981433, 52.890625 0.8257823120371341, 52.890625 42 M52.890625 -42 C52.890625 -12.533043695132033, 52.890625 16.933912609735934, 52.890625 42 M52.890625 42 C21.467138422848105 42, -9.95634815430379 42, -52.890625 42 M52.890625 42 C25.91587878599303 42, -1.05886742801394 42, -52.890625 42 M-52.890625 42 C-52.890625 23.75529910376008, -52.890625 5.510598207520161, -52.890625 -42 M-52.890625 42 C-52.890625 9.083510026840479, -52.890625 -23.832979946319043, -52.890625 -42" stroke="#9370DB" stroke-width="1.3" fill="none" stroke-dasharray="0 0" style=""/></g><g class="annotation-group text" transform="translate(0, -18)"/><g class="label-group text" transform="translate(-40.890625, -18)"><g class="label" style="font-weight: bolder" transform="translate(0,-12)"><foreignObject width="81.78125" height="24"><div xmlns="http://www.w3.org/1999/xhtml" style="display: table-cell; white-space: nowrap; line-height: 1.5; max-width: 120px; text-align: center;"><span class="nodeLabel markdown-node-label" style=""><p>Simulation</p></span></div></foreignObject></g></g><g class="members-group text" transform="translate(-40.890625, 30)"/><g class="methods-group text" transform="translate(-40.890625, 60)"/><g class="divider" style=""><path d="M-52.890625 6 C-26.31014367470144 6, 0.27033765059712067 6, 52.890625 6 M-52.890625 6 C-25.25891934397988 6, 2.3727863120402404 6, 52.890625 6" stroke="#9370DB" stroke-width="1.3" fill="none" stroke-dasharray="0 0" style=""/></g></g></g></g></g></svg>