<?xml version="1.0" encoding="UTF-8"?>
<svg id="my-svg" width="100%" xmlns="http://www.w3.org/2000/svg" xmlns:xlink="http://www.w3.org/1999/xlink" class="classDiagram" style="max-width: 455.562px; background-color: white;" viewBox="0 0 455.5625 416" role="graphics-document document" aria-roledescription="class"><style>#my-svg{font-family:"trebuchet ms",verdana,arial,sans-serif;font-size:16px;fill:#333;}@keyframes edge-animation-frame{from{stroke-dashoffset:0;}}@keyframes dash{to{stroke-dashoffset:0;}}#my-svg .edge-animation-slow{stroke-dasharray:9,5!important;stroke-dashoffset:900;animation:dash 50s linear infinite;stroke-linecap:round;}#my-svg .edge-animation-fast{stroke-dasharray:9,5!important;stroke-dashoffset:900;animation:dash 20s linear infinite;stroke-linecap:round;}#my-svg .error-icon{fill:#552222;}#my-svg .error-text{fill:#552222;stroke:#552222;}#my-svg .edge-thickness-normal{stroke-width:1px;}#my-svg .edge-thickness-thick{stroke-width:3.5px;}#my-svg .edge-pattern-solid{stroke-dasharray:0;}#my-svg .edge-thickness-invisible{stroke-width:0;fill:none;}#my-svg .edge-pattern-dashed{stroke-dasharray:3;}#my-svg .edge-pattern-dotted{stroke-dasharray:2;}#my-svg .marker{fill:#333333;stroke:#333333;}#my-svg .marker.cross{stroke:#333333;}#my-svg svg{font-family:"trebuchet ms",verdana,arial,sans-serif;font-size:16px;}#my-svg p{margin:0;}#my-svg g.classGroup text{fill:#9370DB;stroke:none;font-family:"trebuchet ms",verdana,arial,sans-serif;font-size:10px;}#my-svg g.classGroup text .title{font-weight:bolder;}#my-svg .nodeLabel,#my-svg .edgeLabel{color:#131300;}#my-svg .edgeLabel .label rect{fill:#ECECFF;}#my-svg .label text{fill:#131300;}#my-svg .labelBkg{background:#ECECFF;}#my-svg .edgeLabel .label span{background:#ECECFF;}#my-svg .classTitle{font-weight:bolder;}#my-svg .node rect,#my-svg .node circle,#my-svg .node ellipse,#my-svg .node polygon,#my-svg .node path{fill:#ECECFF;stroke:#9370DB;stroke-width:1px;}#my-svg .divider{stroke:#9370DB;stroke-width:1;}#my-svg g.clickable{cursor:pointer;}#my-svg g.classGroup rect{fill:#ECECFF;stroke:#9370DB;}#my-svg g.classGroup line{stroke:#9370DB;stroke-width:1;}#my-svg .classLabel .box{stroke:none;stroke-width:0;fill:#ECECFF;opacity:0.5;}#my-svg .classLabel .label{fill:#9370DB;font-size:10px;}#my-svg .relation{stroke:#333333;stroke-width:1;fill:none;}#my-svg .dashed-line{stroke-dasharray:3;}#my-svg .dotted-line{stroke-dasharray:1 2;}#my-svg #compositionStart,#my-svg .composition{fill:#333333!important;stroke:#333333!important;stroke-width:1;}#my-svg #compositionEnd,#my-svg .composition{fill:#333333!important;stroke:#333333!important;stroke-width:1;}#my-svg #dependencyStart,#my-svg .dependency{fill:#333333!important;stroke:#333333!important;stroke-width:1;}#my-svg #dependencyStart,#my-svg .dependency{fill:#333333!important;stroke:#333333!important;stroke-width:1;}#my-svg #extensionStart,#my-svg .extension{fill:transparent!important;stroke:#333333!important;stroke-width:1;}#my-svg #extensionEnd,#my-svg .extension{fill:transparent!important;stroke:#333333!important;stroke-width:1;}#my-svg #aggregationStart,#my-svg .aggregation{fill:transparent!important;stroke:#333333!important;stroke-width:1;}#my-svg #aggregationEnd,#my-svg .aggregation{fill:transparent!important;stroke:#333333!important;stroke-width:1;}#my-svg #lollipopStart,#my-svg .lollipop{fill:#ECECFF!important;stroke:#333333!important;stroke-width:1;}#my-svg #lollipopEnd,#my-svg .lollipop{fill:#ECECFF!important;stroke:#333333!important;stroke-width:1;}#my-svg .edgeTerminals{font-size:11px;line-height:initial;}#my-svg .classTitleText{text-anchor:middle;font-size:18px;fill:#333;}#my-svg .label-icon{display:inline-block;height:1em;overflow:visible;vertical-align:-0.125em;}#my-svg .node .label-icon path{fill:currentColor;stroke:revert;stroke-width:revert;}#my-svg :root{--mermaid-font-family:"trebuchet ms",verdana,arial,sans-serif;}</style><g><defs><marker id="my-svg_class-aggregationStart" class="marker aggregation class" refX="18" refY="7" markerWidth="190" markerHeight="240" orient="auto"><path d="M 18,7 L9,13 L1,7 L9,1 Z"/></marker></defs><defs><marker id="my-svg_class-aggregationEnd" class="marker aggregation class" refX="1" refY="7" markerWidth="20" markerHeight="28" orient="auto"><path d="M 18,7 L9,13 L1,7 L9,1 Z"/></marker></defs><defs><marker id="my-svg_class-extensionStart" class="marker extension class" refX="18" refY="7" markerWidth="190" markerHeight="240" orient="auto"><path d="M 1,7 L18,13 V 1 Z"/></marker></defs><defs><marker id="my-svg_class-extensionEnd" class="marker extension class" refX="1" refY="7" markerWidth="20" markerHeight="28" orient="auto"><path d="M 1,1 V 13 L18,7 Z"/></marker></defs><defs><marker id="my-svg_class-compositionStart" class="marker composition class" refX="18" refY="7" markerWidth="190" markerHeight="240" orient="auto"><path d="M 18,7 L9,13 L1,7 L9,1 Z"/></marker></defs><defs><marker id="my-svg_class-compositionEnd" class="marker composition class" refX="1" refY="7" markerWidth="20" markerHeight="28" orient="auto"><path d="M 18,7 L9,13 L1,7 L9,1 Z"/></marker></defs><defs><marker id="my-svg_class-dependencyStart" class="marker dependency class" refX="6" refY="7" markerWidth="190" markerHeight="240" orient="auto"><path d="M 5,7 L9,13 L1,7 L9,1 Z"/></marker></defs><defs><marker id="my-svg_class-dependencyEnd" class="marker dependency class" refX="13" refY="7" markerWidth="20" markerHeight="28" orient="auto"><path d="M 18,7 L9,13 L14,7 L9,1 Z"/></marker></defs><defs><marker id="my-svg_class-lollipopStart" class="marker lollipop class" refX="13" refY="7" markerWidth="190" markerHeight="240" orient="auto"><circle stroke="black" fill="transparent" cx="7" cy="7" r="6"/></marker></defs><defs><marker id="my-svg_class-lollipopEnd" class="marker lollipop class" refX="1" refY="7" markerWidth="190" markerHeight="240" orient="auto"><circle stroke="black" fill="transparent" cx="7" cy="7" r="6"/></marker></defs><g class="root"><g class="clusters"/><g class="edgePaths"><path d="M225.839,104.598L229.643,108.665C233.447,112.732,241.056,120.866,244.86,131.1C248.664,141.333,248.664,153.667,248.664,159.833L248.664,166" id="id_BaseSimulation_Simulation_1" class="edge-thickness-normal edge-pattern-solid relation" style=";;;" data-edge="true" data-et="edge" data-id="id_BaseSimulation_Simulation_1" data-points="W3sieCI6MjE0LjA1NTIzMTQwODIyNzg1LCJ5Ijo5Mn0seyJ4IjoyNDguNjY0MDYyNSwieSI6MTI5fSx7IngiOjI0OC42NjQwNjI1LCJ5IjoxNjZ9XQ==" marker-start="url(#my-svg_class-extensionStart)"/><path d="M135.484,92L129.716,98.167C123.948,104.333,112.411,116.667,106.643,128C100.875,139.333,100.875,149.667,100.875,154.833L100.875,160" id="id_BaseSimulation_Program_2" class="edge-thickness-normal edge-pattern-solid relation" style=";;;" data-edge="true" data-et="edge" data-id="id_BaseSimulation_Program_2" data-points="W3sieCI6MTM1LjQ4MzgzMTA5MTc3MjE1LCJ5Ijo5Mn0seyJ4IjoxMDAuODc1LCJ5IjoxMjl9LHsieCI6MTAwLjg3NSwieSI6MTY2fV0=" marker-end="url(#my-svg_class-dependencyEnd)"/><path d="M195.773,231.591L175.069,240.826C154.365,250.061,112.956,268.53,92.251,282.932C71.547,297.333,71.547,307.667,71.547,312.833L71.547,318" id="id_Simulation_ModelMethod_3" class="edge-thickness-normal edge-pattern-solid relation" style=";;;" data-edge="true" data-et="edge" data-id="id_Simulation_ModelMethod_3" data-points="W3sieCI6MTk1Ljc3MzQzNzUsInkiOjIzMS41OTA5MzExNDU1MTYzfSx7IngiOjcxLjU0Njg3NSwieSI6Mjg3fSx7IngiOjcxLjU0Njg3NSwieSI6MzI0fV0=" marker-end="url(#my-svg_class-dependencyEnd)"/><path d="M248.664,250L248.664,256.167C248.664,262.333,248.664,274.667,248.664,286C248.664,297.333,248.664,307.667,248.664,312.833L248.664,318" id="id_Simulation_ModelSystem_4" class="edge-thickness-normal edge-pattern-solid relation" style=";;;" data-edge="true" data-et="edge" data-id="id_Simulation_ModelSystem_4" data-points="W3sieCI6MjQ4LjY2NDA2MjUsInkiOjI1MH0seyJ4IjoyNDguNjY0MDYyNSwieSI6Mjg3fSx7IngiOjI0OC42NjQwNjI1LCJ5IjozMjR9XQ==" marker-end="url(#my-svg_class-dependencyEnd)"/><path d="M301.555,234.744L318.779,243.453C336.003,252.163,370.451,269.581,387.674,283.457C404.898,297.333,404.898,307.667,404.898,312.833L404.898,318" id="id_Simulation_Outputs_5" class="edge-thickness-normal edge-pattern-solid relation" style=";;;" data-edge="true" data-et="edge" data-id="id_Simulation_Outputs_5" data-points="W3sieCI6MzAxLjU1NDY4NzUsInkiOjIzNC43NDQxNzQ0MTc0NDE3NH0seyJ4Ijo0MDQuODk4NDM3NSwieSI6Mjg3fSx7IngiOjQwNC44OTg0Mzc1LCJ5IjozMjR9XQ==" marker-end="url(#my-svg_class-dependencyEnd)"/></g><g class="edgeLabels"><g class="edgeLabel"><g class="label" data-id="id_BaseSimulation_Simulation_1" transform="translate(0, 0)"><foreignObject width="0" height="0"><div xmlns="http://www.w3.org/1999/xhtml" class="labelBkg" style="display: table-cell; white-space: nowrap; line-height: 1.5; max-width: 200px; text-align: center;"><span class="edgeLabel"></span></div></foreignObject></g></g><g class="edgeLabel" transform="translate(100.875, 129)"><g class="label" data-id="id_BaseSimulation_Program_2" transform="translate(-29.7890625, -12)"><foreignObject width="59.578125" height="24"><div xmlns="http://www.w3.org/1999/xhtml" class="labelBkg" style="display: table-cell; white-space: nowrap; line-height: 1.5; max-width: 200px; text-align: center;"><span class="edgeLabel"><p>program</p></span></div></foreignObject></g></g><g class="edgeLabel" transform="translate(71.546875, 287)"><g class="label" data-id="id_Simulation_ModelMethod_3" transform="translate(-52.921875, -12)"><foreignObject width="105.84375" height="24"><div xmlns="http://www.w3.org/1999/xhtml" class="labelBkg" style="display: table-cell; white-space: nowrap; line-height: 1.5; max-width: 200px; text-align: center;"><span class="edgeLabel"><p>model_method</p></span></div></foreignObject></g></g><g class="edgeLabel" transform="translate(248.6640625, 287)"><g class="label" data-id="id_Simulation_ModelSystem_4" transform="translate(-51.578125, -12)"><foreignObject width="103.15625" height="24"><div xmlns="http://www.w3.org/1999/xhtml" class="labelBkg" style="display: table-cell; white-space: nowrap; line-height: 1.5; max-width: 200px; text-align: center;"><span class="edgeLabel"><p>model_system</p></span></div></foreignObject></g></g><g class="edgeLabel" transform="translate(404.8984375, 287)"><g class="label" data-id="id_Simulation_Outputs_5" transform="translate(-26.2421875, -12)"><foreignObject width="52.484375" height="24"><div xmlns="http://www.w3.org/1999/xhtml" class="labelBkg" style="display: table-cell; white-space: nowrap; line-height: 1.5; max-width: 200px; text-align: center;"><span class="edgeLabel"><p>outputs</p></span></div></foreignObject></g></g></g><g class="nodes"><g class="node default" id="classId-BaseSimulation-0" transform="translate(174.76953125, 50)"><g class="basic label-container"><path d="M-72.015625 -42 L72.015625 -42 L72.015625 42 L-72.015625 42" stroke="none" stroke-width="0" fill="#ECECFF" style=""/><path d="M-72.015625 -42 C-35.076744318494725 -42, 1.8621363630105492 -42, 72.015625 -42 M-72.015625 -42 C-38.5289184247594 -42, -5.042211849518793 -42, 72.015625 -42 M72.015625 -42 C72.015625 -20.544529311605572, 72.015625 0.9109413767888555, 72.015625 42 M72.015625 -42 C72.015625 -21.55666585914166, 72.015625 -1.1133317182833196, 72.015625 42 M72.015625 42 C41.75605577215349 42, 11.496486544306968 42, -72.015625 42 M72.015625 42 C27.02632705641207 42, -17.962970887175857 42, -72.015625 42 M-72.015625 42 C-72.015625 12.798796375597519, -72.015625 -16.402407248804963, -72.015625 -42 M-72.015625 42 C-72.015625 10.360668245916063, -72.015625 -21.278663508167874, -72.015625 -42" stroke="#9370DB" stroke-width="1.3" fill="none" stroke-dasharray="0 0" style=""/></g><g class="annotation-group text" transform="translate(0, -18)"/><g class="label-group text" transform="translate(-60.015625, -18)"><g class="label" style="font-weight: bolder" transform="translate(0,-12)"><foreignObject width="120.03125" height="24"><div xmlns="http://www.w3.org/1999/xhtml" style="display: table-cell; white-space: nowrap; line-height: 1.5; max-width: 151px; text-align: center;"><span class="nodeLabel markdown-node-label" style=""><p>BaseSimulation</p></span></div></foreignObject></g></g><g class="members-group text" transform="translate(-60.015625, 30)"/><g class="methods-group text" transform="translate(-60.015625, 60)"/><g class="divider" style=""><path d="M-72.015625 6 C-26.366993639008236 6, 19.28163772198353 6, 72.015625 6 M-72.015625 6 C-18.71105855012214 6, 34.59350789975572 6, 72.015625 6" stroke="#9370DB" stroke-width="1.3" fill="none" stroke-dasharray="0 0" style=""/></g></g><g class="node default" id="classId-ModelMethod-1" transform="translate(71.546875, 366)"><g class="basic label-container"><path d="M-63.546875 -42 L63.546875 -42 L63.546875 42 L-63.546875 42" stroke="none" stroke-width="0" fill="#ECECFF" style=""/><path d="M-63.546875 -42 C-20.361166190211335 -42, 22.82454261957733 -42, 63.546875 -42 M-63.546875 -42 C-18.55258657415063 -42, 26.44170185169874 -42, 63.546875 -42 M63.546875 -42 C63.546875 -18.69979961456645, 63.546875 4.600400770867097, 63.546875 42 M63.546875 -42 C63.546875 -14.750133777053811, 63.546875 12.499732445892377, 63.546875 42 M63.546875 42 C34.838607686063696 42, 6.130340372127385 42, -63.546875 42 M63.546875 42 C37.170722853599415 42, 10.794570707198822 42, -63.546875 42 M-63.546875 42 C-63.546875 21.74655750383911, -63.546875 1.4931150076782203, -63.546875 -42 M-63.546875 42 C-63.546875 10.137361618983917, -63.546875 -21.725276762032166, -63.546875 -42" stroke="#9370DB" stroke-width="1.3" fill="none" stroke-dasharray="0 0" style=""/></g><g class="annotation-group text" transform="translate(0, -18)"/><g class="label-group text" transform="translate(-51.546875, -18)"><g class="label" style="font-weight: bolder" transform="translate(0,-12)"><foreignObject width="103.09375" height="24"><div xmlns="http://www.w3.org/1999/xhtml" style="display: table-cell; white-space: nowrap; line-height: 1.5; max-width: 142px; text-align: center;"><span class="nodeLabel markdown-node-label" style=""><p>ModelMethod</p></span></div></foreignObject></g></g><g class="members-group text" transform="translate(-51.546875, 30)"/><g class="methods-group text" transform="translate(-51.546875, 60)"/><g class="divider" style=""><path d="M-63.546875 6 C-20.490789885024526 6, 22.565295229950948 6, 63.546875 6 M-63.546875 6 C-17.465943168331876 6, 28.61498866333625 6, 63.546875 6" stroke="#9370DB" stroke-width="1.3" fill="none" stroke-dasharray="0 0" style=""/></g></g><g class="node default" id="classId-ModelSystem-2" transform="translate(248.6640625, 366)"><g class="basic label-container"><path d="M-63.5703125 -42 L63.5703125 -42 L63.5703125 42 L-63.5703125 42" stroke="none" stroke-width="0" fill="#ECECFF" style=""/><path d="M-63.5703125 -42 C-17.804620211533255 -42, 27.96107207693349 -42, 63.5703125 -42 M-63.5703125 -42 C-33.10825987611676 -42, -2.6462072522335163 -42, 63.5703125 -42 M63.5703125 -42 C63.5703125 -10.659989023448226, 63.5703125 20.680021953103548, 63.5703125 42 M63.5703125 -42 C63.5703125 -14.143787933865795, 63.5703125 13.71242413226841, 63.5703125 42 M63.5703125 42 C35.87613273775932 42, 8.181952975518634 42, -63.5703125 42 M63.5703125 42 C21.029470300457298 42, -21.511371899085404 42, -63.5703125 42 M-63.5703125 42 C-63.5703125 22.100297066764423, -63.5703125 2.2005941335288455, -63.5703125 -42 M-63.5703125 42 C-63.5703125 14.089957382306178, -63.5703125 -13.820085235387644, -63.5703125 -42" stroke="#9370DB" stroke-width="1.3" fill="none" stroke-dasharray="0 0" style=""/></g><g class="annotation-group text" transform="translate(0, -18)"/><g class="label-group text" transform="translate(-51.5703125, -18)"><g class="label" style="font-weight: bolder" transform="translate(0,-12)"><foreignObject width="103.140625" height="24"><div xmlns="http://www.w3.org/1999/xhtml" style="display: table-cell; white-space: nowrap; line-height: 1.5; max-width: 139px; text-align: center;"><span class="nodeLabel markdown-node-label" style=""><p>ModelSystem</p></span></div></foreignObject></g></g><g class="members-group text" transform="translate(-51.5703125, 30)"/><g class="methods-group text" transform="translate(-51.5703125, 60)"/><g class="divider" style=""><path d="M-63.5703125 6 C-30.500282849909325 6, 2.569746800181349 6, 63.5703125 6 M-63.5703125 6 C-34.05280546374557 6, -4.535298427491142 6, 63.5703125 6" stroke="#9370DB" stroke-width="1.3" fill="none" stroke-dasharray="0 0" style=""/></g></g><g class="node default" id="classId-Outputs-3" transform="translate(404.8984375, 366)"><g class="basic label-container"><path d="M-42.6640625 -42 L42.6640625 -42 L42.6640625 42 L-42.6640625 42" stroke="none" stroke-width="0" fill="#ECECFF" style=""/><path d="M-42.6640625 -42 C-15.399119400618599 -42, 11.865823698762803 -42, 42.6640625 -42 M-42.6640625 -42 C-21.414304855333572 -42, -0.16454721066714484 -42, 42.6640625 -42 M42.6640625 -42 C42.6640625 -9.17987534998801, 42.6640625 23.64024930002398, 42.6640625 42 M42.6640625 -42 C42.6640625 -11.777729172362541, 42.6640625 18.444541655274918, 42.6640625 42 M42.6640625 42 C12.296935253324161 42, -18.070191993351678 42, -42.6640625 42 M42.6640625 42 C9.86321933383568 42, -22.93762383232864 42, -42.6640625 42 M-42.6640625 42 C-42.6640625 20.9369567160308, -42.6640625 -0.12608656793840112, -42.6640625 -42 M-42.6640625 42 C-42.6640625 14.451792190488923, -42.6640625 -13.096415619022153, -42.6640625 -42" stroke="#9370DB" stroke-width="1.3" fill="none" stroke-dasharray="0 0" style=""/></g><g class="annotation-group text" transform="translate(0, -18)"/><g class="label-group text" transform="translate(-30.6640625, -18)"><g class="label" style="font-weight: bolder" transform="translate(0,-12)"><foreignObject width="61.328125" height="24"><div xmlns="http://www.w3.org/1999/xhtml" style="display: table-cell; white-space: nowrap; line-height: 1.5; max-width: 101px; text-align: center;"><span class="nodeLabel markdown-node-label" style=""><p>Outputs</p></span></div></foreignObject></g></g><g class="members-group text" transform="translate(-30.6640625, 30)"/><g class="methods-group text" transform="translate(-30.6640625, 60)"/><g class="divider" style=""><path d="M-42.6640625 6 C-10.35912380016574 6, 21.94581489966852 6, 42.6640625 6 M-42.6640625 6 C-11.9252344685056 6, 18.8135935629888 6, 42.6640625 6" stroke="#9370DB" stroke-width="1.3" fill="none" stroke-dasharray="0 0" style=""/></g></g><g class="node default" id="classId-Program-4" transform="translate(100.875, 208)"><g class="basic label-container"><path d="M-44.8984375 -42 L44.8984375 -42 L44.8984375 42 L-44.8984375 42" stroke="none" stroke-width="0" fill="#ECECFF" style=""/><path d="M-44.8984375 -42 C-25.95328584837174 -42, -7.008134196743477 -42, 44.8984375 -42 M-44.8984375 -42 C-12.718879233848732 -42, 19.460679032302536 -42, 44.8984375 -42 M44.8984375 -42 C44.8984375 -8.606286627288895, 44.8984375 24.78742674542221, 44.8984375 42 M44.8984375 -42 C44.8984375 -18.977930012100085, 44.8984375 4.04413997579983, 44.8984375 42 M44.8984375 42 C15.524724752022752 42, -13.848987995954495 42, -44.8984375 42 M44.8984375 42 C16.287100524578292 42, -12.324236450843415 42, -44.8984375 42 M-44.8984375 42 C-44.8984375 20.384468769822114, -44.8984375 -1.2310624603557727, -44.8984375 -42 M-44.8984375 42 C-44.8984375 20.108767412129346, -44.8984375 -1.782465175741308, -44.8984375 -42" stroke="#9370DB" stroke-width="1.3" fill="none" stroke-dasharray="0 0" style=""/></g><g class="annotation-group text" transform="translate(0, -18)"/><g class="label-group text" transform="translate(-32.8984375, -18)"><g class="label" style="font-weight: bolder" transform="translate(0,-12)"><foreignObject width="65.796875" height="24"><div xmlns="http://www.w3.org/1999/xhtml" style="display: table-cell; white-space: nowrap; line-height: 1.5; max-width: 106px; text-align: center;"><span class="nodeLabel markdown-node-label" style=""><p>Program</p></span></div></foreignObject></g></g><g class="members-group text" transform="translate(-32.8984375, 30)"/><g class="methods-group text" transform="translate(-32.8984375, 60)"/><g class="divider" style=""><path d="M-44.8984375 6 C-15.265672539549051 6, 14.367092420901898 6, 44.8984375 6 M-44.8984375 6 C-26.605927824309433 6, -8.313418148618865 6, 44.8984375 6" stroke="#9370DB" stroke-width="1.3" fill="none" stroke-dasharray="0 0" style=""/></g></g><g class="node default" id="classId-Simulation-5" transform="translate(248.6640625, 208)"><g class="basic label-container"><path d="M-52.890625 -42 L52.890625 -42 L52.890625 42 L-52.890625 42" stroke="none" stroke-width="0" fill="#ECECFF" style=""/><path d="M-52.890625 -42 C-24.89797702776349 -42, 3.094670944473023 -42, 52.890625 -42 M-52.890625 -42 C-11.56181927408381 -42, 29.76698645183238 -42, 52.890625 -42 M52.890625 -42 C52.890625 -13.01294939138895, 52.890625 15.974101217222099, 52.890625 42 M52.890625 -42 C52.890625 -12.502076078285722, 52.890625 16.995847843428557, 52.890625 42 M52.890625 42 C24.83139090243471 42, -3.227843195130582 42, -52.890625 42 M52.890625 42 C15.667743547677063 42, -21.555137904645875 42, -52.890625 42 M-52.890625 42 C-52.890625 14.858761669450203, -52.890625 -12.282476661099594, -52.890625 -42 M-52.890625 42 C-52.890625 19.169127558025785, -52.890625 -3.6617448839484297, -52.890625 -42" stroke="#9370DB" stroke-width="1.3" fill="none" stroke-dasharray="0 0" style=""/></g><g class="annotation-group text" transform="translate(0, -18)"/><g class="label-group text" transform="translate(-40.890625, -18)"><g class="label" style="font-weight: bolder" transform="translate(0,-12)"><foreignObject width="81.78125" height="24"><div xmlns="http://www.w3.org/1999/xhtml" style="display: table-cell; white-space: nowrap; line-height: 1.5; max-width: 120px; text-align: center;"><span class="nodeLabel markdown-node-label" style=""><p>Simulation</p></span></div></foreignObject></g></g><g class="members-group text" transform="translate(-40.890625, 30)"/><g class="methods-group text" transform="translate(-40.890625, 60)"/><g class="divider" style=""><path d="M-52.890625 6 C-17.653232987802028 6, 17.584159024395944 6, 52.890625 6 M-52.890625 6 C-13.150997613253125 6, 26.58862977349375 6, 52.890625 6" stroke="#9370DB" stroke-width="1.3" fill="none" stroke-dasharray="0 0" style=""/></g></g></g></g></g></svg>