<?xml version="1.0" encoding="UTF-8"?>
<svg id="my-svg" width="100%" xmlns="http://www.w3.org/2000/svg" xmlns:xlink="http://www.w3.org/1999/xlink" class="classDiagram" style="max-width: 455.562px; background-color: white;" viewBox="0 0 455.5625 416" role="graphics-document document" aria-roledescription="class"><style>#my-svg{font-family:"trebuchet ms",verdana,arial,sans-serif;font-size:16px;fill:#333;}@keyframes edge-animation-frame{from{stroke-dashoffset:0;}}@keyframes dash{to{stroke-dashoffset:0;}}#my-svg .edge-animation-slow{stroke-dasharray:9,5!important;stroke-dashoffset:900;animation:dash 50s linear infinite;stroke-linecap:round;}#my-svg .edge-animation-fast{stroke-dasharray:9,5!important;stroke-dashoffset:900;animation:dash 20s linear infinite;stroke-linecap:round;}#my-svg .error-icon{fill:#552222;}#my-svg .error-text{fill:#552222;stroke:#552222;}#my-svg .edge-thickness-normal{stroke-width:1px;}#my-svg .edge-thickness-thick{stroke-width:3.5px;}#my-svg .edge-pattern-solid{stroke-dasharray:0;}#my-svg .edge-thickness-invisible{stroke-width:0;fill:none;}#my-svg .edge-pattern-dashed{stroke-dasharray:3;}#my-svg .edge-pattern-dotted{stroke-dasharray:2;}#my-svg .marker{fill:#333333;stroke:#333333;}#my-svg .marker.cross{stroke:#333333;}#my-svg svg{font-family:"trebuchet ms",verdana,arial,sans-serif;font-size:16px;}#my-svg p{margin:0;}#my-svg g.classGroup text{fill:#9370DB;stroke:none;font-family:"trebuchet ms",verdana,arial,sans-serif;font-size:10px;}#my-svg g.classGroup text .title{font-weight:bolder;}#my-svg .nodeLabel,#my-svg .edgeLabel{color:#131300;}#my-svg .edgeLabel .label rect{fill:#ECECFF;}#my-svg .label text{fill:#131300;}#my-svg .labelBkg{background:#ECECFF;}#my-svg .edgeLabel .label span{background:#ECECFF;}#my-svg .classTitle{font-weight:bolder;}#my-svg .node rect,#my-svg .node circle,#my-svg .node ellipse,#my-svg .node polygon,#my-svg .node path{fill:#ECECFF;stroke:#9370DB;stroke-width:1px;}#my-svg .divider{stroke:#9370DB;stroke-width:1;}#my-svg g.clickable{cursor:pointer;}#my-svg g.classGroup rect{fill:#ECECFF;stroke:#9370DB;}#my-svg g.classGroup line{stroke:#9370DB;stroke-width:1;}#my-svg .classLabel .box{stroke:none;stroke-width:0;fill:#ECECFF;opacity:0.5;}#my-svg .classLabel .label{fill:#9370DB;font-size:10px;}#my-svg .relation{stroke:#333333;stroke-width:1;fill:none;}#my-svg .dashed-line{stroke-dasharray:3;}#my-svg .dotted-line{stroke-dasharray:1 2;}#my-svg #compositionStart,#my-svg .composition{fill:#333333!important;stroke:#333333!important;stroke-width:1;}#my-svg #compositionEnd,#my-svg .composition{fill:#333333!important;stroke:#333333!important;stroke-width:1;}#my-svg #dependencyStart,#my-svg .dependency{fill:#333333!important;stroke:#333333!important;stroke-width:1;}#my-svg #dependencyStart,#my-svg .dependency{fill:#333333!important;stroke:#333333!important;stroke-width:1;}#my-svg #extensionStart,#my-svg .extension{fill:transparent!important;stroke:#333333!important;stroke-width:1;}#my-svg #extensionEnd,#my-svg .extension{fill:transparent!important;stroke:#333333!important;stroke-width:1;}#my-svg #aggregationStart,#my-svg .aggregation{fill:transparent!important;stroke:#333333!important;stroke-width:1;}#my-svg #aggregationEnd,#my-svg .aggregation{fill:transparent!important;stroke:#333333!important;stroke-width:1;}#my-svg #lollipopStart,#my-svg .lollipop{fill:#ECECFF!important;stroke:#333333!important;stroke-width:1;}#my-svg #lollipopEnd,#my-svg .lollipop{fill:#ECECFF!important;stroke:#333333!important;stroke-width:1;}#my-svg .edgeTerminals{font-size:11px;line-height:initial;}#my-svg .classTitleText{text-anchor:middle;font-size:18px;fill:#333;}#my-svg .label-icon{display:inline-block;height:1em;overflow:visible;vertical-align:-0.125em;}#my-svg .node .label-icon path{fill:currentColor;stroke:revert;stroke-width:revert;}#my-svg :root{--mermaid-font-family:"trebuchet ms",verdana,arial,sans-serif;}</style><g><defs><marker id="my-svg_class-aggregationStart" class="marker aggregation class" refX="18" refY="7" markerWidth="190" markerHeight="240" orient="auto"><path d="M 18,7 L9,13 L1,7 L9,1 Z"/></marker></defs><defs><marker id="my-svg_class-aggregationEnd" class="marker aggregation class" refX="1" refY="7" markerWidth="20" markerHeight="28" orient="auto"><path d="M 18,7 L9,13 L1,7 L9,1 Z"/></marker></defs><defs><marker id="my-svg_class-extensionStart" class="marker extension class" refX="18" refY="7" markerWidth="190" markerHeight="240" orient="auto"><path d="M 1,7 L18,13 V 1 Z"/></marker></defs><defs><marker id="my-svg_class-extensionEnd" class="marker extension class" refX="1" refY="7" markerWidth="20" markerHeight="28" orient="auto"><path d="M 1,1 V 13 L18,7 Z"/></marker></defs><defs><marker id="my-svg_class-compositionStart" class="marker composition class" refX="18" refY="7" markerWidth="190" markerHeight="240" orient="auto"><path d="M 18,7 L9,13 L1,7 L9,1 Z"/></marker></defs><defs><marker id="my-svg_class-compositionEnd" class="marker composition class" refX="1" refY="7" markerWidth="20" markerHeight="28" orient="auto"><path d="M 18,7 L9,13 L1,7 L9,1 Z"/></marker></defs><defs><marker id="my-svg_class-dependencyStart" class="marker dependency class" refX="6" refY="7" markerWidth="190" markerHeight="240" orient="auto"><path d="M 5,7 L9,13 L1,7 L9,1 Z"/></marker></defs><defs><marker id="my-svg_class-dependencyEnd" class="marker dependency class" refX="13" refY="7" markerWidth="20" markerHeight="28" orient="auto"><path d="M 18,7 L9,13 L14,7 L9,1 Z"/></marker></defs><defs><marker id="my-svg_class-lollipopStart" class="marker lollipop class" refX="13" refY="7" markerWidth="190" markerHeight="240" orient="auto"><circle stroke="black" fill="transparent" cx="7" cy="7" r="6"/></marker></defs><defs><marker id="my-svg_class-lollipopEnd" class="marker lollipop class" refX="1" refY="7" markerWidth="190" markerHeight="240" orient="auto"><circle stroke="black" fill="transparent" cx="7" cy="7" r="6"/></marker></defs><g class="root"><g class="clusters"/><g class="edgePaths"><path d="M225.839,104.598L229.643,108.665C233.447,112.732,241.056,120.866,244.86,131.1C248.664,141.333,248.664,153.667,248.664,159.833L248.664,166" id="id_BaseSimulation_Simulation_1" class="edge-thickness-normal edge-pattern-solid relation" style=";;;" data-edge="true" data-et="edge" data-id="id_BaseSimulation_Simulation_1" data-points="W3sieCI6MjE0LjA1NTIzMTQwODIyNzg1LCJ5Ijo5Mn0seyJ4IjoyNDguNjY0MDYyNSwieSI6MTI5fSx7IngiOjI0OC42NjQwNjI1LCJ5IjoxNjZ9XQ==" marker-start="url(#my-svg_class-extensionStart)"/><path d="M135.484,92L129.716,98.167C123.948,104.333,112.411,116.667,106.643,128C100.875,139.333,100.875,149.667,100.875,154.833L100.875,160" id="id_BaseSimulation_Program_2" class="edge-thickness-normal edge-pattern-solid relation" style=";;;" data-edge="true" data-et="edge" data-id="id_BaseSimulation_Program_2" data-points="W3sieCI6MTM1LjQ4MzgzMTA5MTc3MjE1LCJ5Ijo5Mn0seyJ4IjoxMDAuODc1LCJ5IjoxMjl9LHsieCI6MTAwLjg3NSwieSI6MTY2fV0=" marker-end="url(#my-svg_class-dependencyEnd)"/><path d="M195.773,231.591L175.069,240.826C154.365,250.061,112.956,268.53,92.251,282.932C71.547,297.333,71.547,307.667,71.547,312.833L71.547,318" id="id_Simulation_ModelMethod_3" class="edge-thickness-normal edge-pattern-solid relation" style=";;;" data-edge="true" data-et="edge" data-id="id_Simulation_ModelMethod_3" data-points="W3sieCI6MTk1Ljc3MzQzNzUsInkiOjIzMS41OTA5MzExNDU1MTYzfSx7IngiOjcxLjU0Njg3NSwieSI6Mjg3fSx7IngiOjcxLjU0Njg3NSwieSI6MzI0fV0=" marker-end="url(#my-svg_class-dependencyEnd)"/><path d="M248.664,250L248.664,256.167C248.664,262.333,248.664,274.667,248.664,286C248.664,297.333,248.664,307.667,248.664,312.833L248.664,318" id="id_Simulation_ModelSystem_4" class="edge-thickness-normal edge-pattern-solid relation" style=";;;" data-edge="true" data-et="edge" data-id="id_Simulation_ModelSystem_4" data-points="W3sieCI6MjQ4LjY2NDA2MjUsInkiOjI1MH0seyJ4IjoyNDguNjY0MDYyNSwieSI6Mjg3fSx7IngiOjI0OC42NjQwNjI1LCJ5IjozMjR9XQ==" marker-end="url(#my-svg_class-dependencyEnd)"/><path d="M301.555,234.744L318.779,243.453C336.003,252.163,370.451,269.581,387.674,283.457C404.898,297.333,404.898,307.667,404.898,312.833L404.898,318" id="id_Simulation_Outputs_5" class="edge-thickness-normal edge-pattern-solid relation" style=";;;" data-edge="true" data-et="edge" data-id="id_Simulation_Outputs_5" data-points="W3sieCI6MzAxLjU1NDY4NzUsInkiOjIzNC43NDQxNzQ0MTc0NDE3NH0seyJ4Ijo0MDQuODk4NDM3NSwieSI6Mjg3fSx7IngiOjQwNC44OTg0Mzc1LCJ5IjozMjR9XQ==" marker-end="url(#my-svg_class-dependencyEnd)"/></g><g class="edgeLabels"><g class="edgeLabel"><g class="label" data-id="id_BaseSimulation_Simulation_1" transform="translate(0, 0)"><foreignObject width="0" height="0"><div xmlns="http://www.w3.org/1999/xhtml" class="labelBkg" style="display: table-cell; white-space: nowrap; line-height: 1.5; max-width: 200px; text-align: center;"><span class="edgeLabel"></span></div></foreignObject></g></g><g class="edgeLabel" transform="translate(100.875, 129)"><g class="label" data-id="id_BaseSimulation_Program_2" transform="translate(-29.7890625, -12)"><foreignObject width="59.578125" height="24"><div xmlns="http://www.w3.org/1999/xhtml" class="labelBkg" style="display: table-cell; white-space: nowrap; line-height: 1.5; max-width: 200px; text-align: center;"><span class="edgeLabel"><p>program</p></span></div></foreignObject></g></g><g class="edgeLabel" transform="translate(71.546875, 287)"><g class="label" data-id="id_Simulation_ModelMethod_3" transform="translate(-52.921875, -12)"><foreignObject width="105.84375" height="24"><div xmlns="http://www.w3.org/1999/xhtml" class="labelBkg" style="display: table-cell; white-space: nowrap; line-height: 1.5; max-width: 200px; text-align: center;"><span class="edgeLabel"><p>model_method</p></span></div></foreignObject></g></g><g class="edgeLabel" transform="translate(248.6640625, 287)"><g class="label" data-id="id_Simulation_ModelSystem_4" transform="translate(-51.578125, -12)"><foreignObject width="103.15625" height="24"><div xmlns="http://www.w3.org/1999/xhtml" class="labelBkg" style="display: table-cell; white-space: nowrap; line-height: 1.5; max-width: 200px; text-align: center;"><span class="edgeLabel"><p>model_system</p></span></div></foreignObject></g></g><g class="edgeLabel" transform="translate(404.8984375, 287)"><g class="label" data-id="id_Simulation_Outputs_5" transform="translate(-26.2421875, -12)"><foreignObject width="52.484375" height="24"><div xmlns="http://www.w3.org/1999/xhtml" class="labelBkg" style="display: table-cell; white-space: nowrap; line-height: 1.5; max-width: 200px; text-align: center;"><span class="edgeLabel"><p>outputs</p></span></div></foreignObject></g></g></g><g class="nodes"><g class="node default" id="classId-BaseSimulation-0" transform="translate(174.76953125, 50)"><g class="basic label-container"><path d="M-72.015625 -42 L72.015625 -42 L72.015625 42 L-72.015625 42" stroke="none" stroke-width="0" fill="#ECECFF" style=""/><path d="M-72.015625 -42 C-40.518349791222256 -42, -9.021074582444513 -42, 72.015625 -42 M-72.015625 -42 C-28.985586883200945 -42, 14.04445123359811 -42, 72.015625 -42 M72.015625 -42 C72.015625 -9.216189077631554, 72.015625 23.56762184473689, 72.015625 42 M72.015625 -42 C72.015625 -15.742952238571675, 72.015625 10.51409552285665, 72.015625 42 M72.015625 42 C20.053113973028722 42, -31.909397053942556 42, -72.015625 42 M72.015625 42 C24.907000428397296 42, -22.201624143205407 42, -72.015625 42 M-72.015625 42 C-72.015625 20.43528142342006, -72.015625 -1.129437153159877, -72.015625 -42 M-72.015625 42 C-72.015625 23.428304363338643, -72.015625 4.856608726677287, -72.015625 -42" stroke="#9370DB" stroke-width="1.3" fill="none" stroke-dasharray="0 0" style=""/></g><g class="annotation-group text" transform="translate(0, -18)"/><g class="label-group text" transform="translate(-60.015625, -18)"><g class="label" style="font-weight: bolder" transform="translate(0,-12)"><foreignObject width="120.03125" height="24"><div xmlns="http://www.w3.org/1999/xhtml" style="display: table-cell; white-space: nowrap; line-height: 1.5; max-width: 151px; text-align: center;"><span class="nodeLabel markdown-node-label" style=""><p>BaseSimulation</p></span></div></foreignObject></g></g><g class="members-group text" transform="translate(-60.015625, 30)"/><g class="methods-group text" transform="translate(-60.015625, 60)"/><g class="divider" style=""><path d="M-72.015625 6 C-16.67769573099615 6, 38.6602335380077 6, 72.015625 6 M-72.015625 6 C-41.66787557401591 6, -11.320126148031825 6, 72.015625 6" stroke="#9370DB" stroke-width="1.3" fill="none" stroke-dasharray="0 0" style=""/></g></g><g class="node default" id="classId-ModelMethod-1" transform="translate(71.546875, 366)"><g class="basic label-container"><path d="M-63.546875 -42 L63.546875 -42 L63.546875 42 L-63.546875 42" stroke="none" stroke-width="0" fill="#ECECFF" style=""/><path d="M-63.546875 -42 C-24.85793604684322 -42, 13.831002906313557 -42, 63.546875 -42 M-63.546875 -42 C-18.48814069006437 -42, 26.57059361987126 -42, 63.546875 -42 M63.546875 -42 C63.546875 -17.50066419231487, 63.546875 6.998671615370263, 63.546875 42 M63.546875 -42 C63.546875 -20.385203584038532, 63.546875 1.2295928319229361, 63.546875 42 M63.546875 42 C26.64659198020528 42, -10.253691039589441 42, -63.546875 42 M63.546875 42 C16.865096241832816 42, -29.816682516334367 42, -63.546875 42 M-63.546875 42 C-63.546875 10.07177195590208, -63.546875 -21.85645608819584, -63.546875 -42 M-63.546875 42 C-63.546875 13.930740196991735, -63.546875 -14.13851960601653, -63.546875 -42" stroke="#9370DB" stroke-width="1.3" fill="none" stroke-dasharray="0 0" style=""/></g><g class="annotation-group text" transform="translate(0, -18)"/><g class="label-group text" transform="translate(-51.546875, -18)"><g class="label" style="font-weight: bolder" transform="translate(0,-12)"><foreignObject width="103.09375" height="24"><div xmlns="http://www.w3.org/1999/xhtml" style="display: table-cell; white-space: nowrap; line-height: 1.5; max-width: 142px; text-align: center;"><span class="nodeLabel markdown-node-label" style=""><p>ModelMethod</p></span></div></foreignObject></g></g><g class="members-group text" transform="translate(-51.546875, 30)"/><g class="methods-group text" transform="translate(-51.546875, 60)"/><g class="divider" style=""><path d="M-63.546875 6 C-21.835973673594914 6, 19.87492765281017 6, 63.546875 6 M-63.546875 6 C-36.882222072483344 6, -10.217569144966681 6, 63.546875 6" stroke="#9370DB" stroke-width="1.3" fill="none" stroke-dasharray="0 0" style=""/></g></g><g class="node default" id="classId-ModelSystem-2" transform="translate(248.6640625, 366)"><g class="basic label-container"><path d="M-63.5703125 -42 L63.5703125 -42 L63.5703125 42 L-63.5703125 42" stroke="none" stroke-width="0" fill="#ECECFF" style=""/><path d="M-63.5703125 -42 C-20.31934574959255 -42, 22.9316210008149 -42, 63.5703125 -42 M-63.5703125 -42 C-23.81121965206637 -42, 15.94787319586726 -42, 63.5703125 -42 M63.5703125 -42 C63.5703125 -20.2732882025652, 63.5703125 1.453423594869598, 63.5703125 42 M63.5703125 -42 C63.5703125 -17.4149068593693, 63.5703125 7.170186281261401, 63.5703125 42 M63.5703125 42 C36.263514503496744 42, 8.956716506993487 42, -63.5703125 42 M63.5703125 42 C32.573846451330766 42, 1.5773804026615252 42, -63.5703125 42 M-63.5703125 42 C-63.5703125 14.693991055200293, -63.5703125 -12.612017889599414, -63.5703125 -42 M-63.5703125 42 C-63.5703125 8.740458774607866, -63.5703125 -24.519082450784268, -63.5703125 -42" stroke="#9370DB" stroke-width="1.3" fill="none" stroke-dasharray="0 0" style=""/></g><g class="annotation-group text" transform="translate(0, -18)"/><g class="label-group text" transform="translate(-51.5703125, -18)"><g class="label" style="font-weight: bolder" transform="translate(0,-12)"><foreignObject width="103.140625" height="24"><div xmlns="http://www.w3.org/1999/xhtml" style="display: table-cell; white-space: nowrap; line-height: 1.5; max-width: 139px; text-align: center;"><span class="nodeLabel markdown-node-label" style=""><p>ModelSystem</p></span></div></foreignObject></g></g><g class="members-group text" transform="translate(-51.5703125, 30)"/><g class="methods-group text" transform="translate(-51.5703125, 60)"/><g class="divider" style=""><path d="M-63.5703125 6 C-31.67993184038878 6, 0.2104488192224423 6, 63.5703125 6 M-63.5703125 6 C-13.872594710097992 6, 35.825123079804015 6, 63.5703125 6" stroke="#9370DB" stroke-width="1.3" fill="none" stroke-dasharray="0 0" style=""/></g></g><g class="node default" id="classId-Outputs-3" transform="translate(404.8984375, 366)"><g class="basic label-container"><path d="M-42.6640625 -42 L42.6640625 -42 L42.6640625 42 L-42.6640625 42" stroke="none" stroke-width="0" fill="#ECECFF" style=""/><path d="M-42.6640625 -42 C-19.288252302796003 -42, 4.087557894407993 -42, 42.6640625 -42 M-42.6640625 -42 C-22.06198907293593 -42, -1.4599156458718596 -42, 42.6640625 -42 M42.6640625 -42 C42.6640625 -18.51064930894887, 42.6640625 4.978701382102258, 42.6640625 42 M42.6640625 -42 C42.6640625 -24.952107859138838, 42.6640625 -7.904215718277676, 42.6640625 42 M42.6640625 42 C11.890145072873459 42, -18.883772354253082 42, -42.6640625 42 M42.6640625 42 C10.97693458598394 42, -20.71019332803212 42, -42.6640625 42 M-42.6640625 42 C-42.6640625 19.379429607181827, -42.6640625 -3.2411407856363468, -42.6640625 -42 M-42.6640625 42 C-42.6640625 23.873379398853114, -42.6640625 5.746758797706228, -42.6640625 -42" stroke="#9370DB" stroke-width="1.3" fill="none" stroke-dasharray="0 0" style=""/></g><g class="annotation-group text" transform="translate(0, -18)"/><g class="label-group text" transform="translate(-30.6640625, -18)"><g class="label" style="font-weight: bolder" transform="translate(0,-12)"><foreignObject width="61.328125" height="24"><div xmlns="http://www.w3.org/1999/xhtml" style="display: table-cell; white-space: nowrap; line-height: 1.5; max-width: 101px; text-align: center;"><span class="nodeLabel markdown-node-label" style=""><p>Outputs</p></span></div></foreignObject></g></g><g class="members-group text" transform="translate(-30.6640625, 30)"/><g class="methods-group text" transform="translate(-30.6640625, 60)"/><g class="divider" style=""><path d="M-42.6640625 6 C-14.391422126574145 6, 13.88121824685171 6, 42.6640625 6 M-42.6640625 6 C-14.049935682235933 6, 14.564191135528134 6, 42.6640625 6" stroke="#9370DB" stroke-width="1.3" fill="none" stroke-dasharray="0 0" style=""/></g></g><g class="node default" id="classId-Program-4" transform="translate(100.875, 208)"><g class="basic label-container"><path d="M-44.8984375 -42 L44.8984375 -42 L44.8984375 42 L-44.8984375 42" stroke="none" stroke-width="0" fill="#ECECFF" style=""/><path d="M-44.8984375 -42 C-26.565157770509263 -42, -8.231878041018525 -42, 44.8984375 -42 M-44.8984375 -42 C-21.293830972004745 -42, 2.31077555599051 -42, 44.8984375 -42 M44.8984375 -42 C44.8984375 -11.826228043817338, 44.8984375 18.347543912365325, 44.8984375 42 M44.8984375 -42 C44.8984375 -8.641707872235791, 44.8984375 24.716584255528417, 44.8984375 42 M44.8984375 42 C12.99451787805977 42, -18.90940174388046 42, -44.8984375 42 M44.8984375 42 C19.014725549944444 42, -6.868986400111112 42, -44.8984375 42 M-44.8984375 42 C-44.8984375 24.82890884250131, -44.8984375 7.65781768500262, -44.8984375 -42 M-44.8984375 42 C-44.8984375 9.306150027774251, -44.8984375 -23.387699944451498, -44.8984375 -42" stroke="#9370DB" stroke-width="1.3" fill="none" stroke-dasharray="0 0" style=""/></g><g class="annotation-group text" transform="translate(0, -18)"/><g class="label-group text" transform="translate(-32.8984375, -18)"><g class="label" style="font-weight: bolder" transform="translate(0,-12)"><foreignObject width="65.796875" height="24"><div xmlns="http://www.w3.org/1999/xhtml" style="display: table-cell; white-space: nowrap; line-height: 1.5; max-width: 106px; text-align: center;"><span class="nodeLabel markdown-node-label" style=""><p>Program</p></span></div></foreignObject></g></g><g class="members-group text" transform="translate(-32.8984375, 30)"/><g class="methods-group text" transform="translate(-32.8984375, 60)"/><g class="divider" style=""><path d="M-44.8984375 6 C-17.776921558919984 6, 9.344594382160032 6, 44.8984375 6 M-44.8984375 6 C-12.924134391462335 6, 19.05016871707533 6, 44.8984375 6" stroke="#9370DB" stroke-width="1.3" fill="none" stroke-dasharray="0 0" style=""/></g></g><g class="node default" id="classId-Simulation-5" transform="translate(248.6640625, 208)"><g class="basic label-container"><path d="M-52.890625 -42 L52.890625 -42 L52.890625 42 L-52.890625 42" stroke="none" stroke-width="0" fill="#ECECFF" style=""/><path d="M-52.890625 -42 C-22.648907727278324 -42, 7.592809545443352 -42, 52.890625 -42 M-52.890625 -42 C-31.125932279474434 -42, -9.361239558948867 -42, 52.890625 -42 M52.890625 -42 C52.890625 -17.25139509040736, 52.890625 7.497209819185279, 52.890625 42 M52.890625 -42 C52.890625 -20.074495518905724, 52.890625 1.8510089621885513, 52.890625 42 M52.890625 42 C20.21647049470748 42, -12.45768401058504 42, -52.890625 42 M52.890625 42 C12.200731729655871 42, -28.489161540688258 42, -52.890625 42 M-52.890625 42 C-52.890625 9.928991808487098, -52.890625 -22.142016383025805, -52.890625 -42 M-52.890625 42 C-52.890625 24.763296225241998, -52.890625 7.526592450483996, -52.890625 -42" stroke="#9370DB" stroke-width="1.3" fill="none" stroke-dasharray="0 0" style=""/></g><g class="annotation-group text" transform="translate(0, -18)"/><g class="label-group text" transform="translate(-40.890625, -18)"><g class="label" style="font-weight: bolder" transform="translate(0,-12)"><foreignObject width="81.78125" height="24"><div xmlns="http://www.w3.org/1999/xhtml" style="display: table-cell; white-space: nowrap; line-height: 1.5; max-width: 120px; text-align: center;"><span class="nodeLabel markdown-node-label" style=""><p>Simulation</p></span></div></foreignObject></g></g><g class="members-group text" transform="translate(-40.890625, 30)"/><g class="methods-group text" transform="translate(-40.890625, 60)"/><g class="divider" style=""><path d="M-52.890625 6 C-30.676741350402956 6, -8.462857700805912 6, 52.890625 6 M-52.890625 6 C-10.928259620021905 6, 31.03410575995619 6, 52.890625 6" stroke="#9370DB" stroke-width="1.3" fill="none" stroke-dasharray="0 0" style=""/></g></g></g></g></g></svg>