<?xml version="1.0" encoding="UTF-8"?>
<svg id="my-svg" width="100%" xmlns="http://www.w3.org/2000/svg" xmlns:xlink="http://www.w3.org/1999/xlink" class="classDiagram" style="max-width: 349.101px; background-color: white;" viewBox="0 0 349.10137939453125 416" role="graphics-document document" aria-roledescription="class"><style>#my-svg{font-family:"trebuchet ms",verdana,arial,sans-serif;font-size:16px;fill:#333;}@keyframes edge-animation-frame{from{stroke-dashoffset:0;}}@keyframes dash{to{stroke-dashoffset:0;}}#my-svg .edge-animation-slow{stroke-dasharray:9,5!important;stroke-dashoffset:900;animation:dash 50s linear infinite;stroke-linecap:round;}#my-svg .edge-animation-fast{stroke-dasharray:9,5!important;stroke-dashoffset:900;animation:dash 20s linear infinite;stroke-linecap:round;}#my-svg .error-icon{fill:#552222;}#my-svg .error-text{fill:#552222;stroke:#552222;}#my-svg .edge-thickness-normal{stroke-width:1px;}#my-svg .edge-thickness-thick{stroke-width:3.5px;}#my-svg .edge-pattern-solid{stroke-dasharray:0;}#my-svg .edge-thickness-invisible{stroke-width:0;fill:none;}#my-svg .edge-pattern-dashed{stroke-dasharray:3;}#my-svg .edge-pattern-dotted{stroke-dasharray:2;}#my-svg .marker{fill:#333333;stroke:#333333;}#my-svg .marker.cross{stroke:#333333;}#my-svg svg{font-family:"trebuchet ms",verdana,arial,sans-serif;font-size:16px;}#my-svg p{margin:0;}#my-svg g.classGroup text{fill:#9370DB;stroke:none;font-family:"trebuchet ms",verdana,arial,sans-serif;font-size:10px;}#my-svg g.classGroup text .title{font-weight:bolder;}#my-svg .nodeLabel,#my-svg .edgeLabel{color:#131300;}#my-svg .edgeLabel .label rect{fill:#ECECFF;}#my-svg .label text{fill:#131300;}#my-svg .labelBkg{background:#ECECFF;}#my-svg .edgeLabel .label span{background:#ECECFF;}#my-svg .classTitle{font-weight:bolder;}#my-svg .node rect,#my-svg .node circle,#my-svg .node ellipse,#my-svg .node polygon,#my-svg .node path{fill:#ECECFF;stroke:#9370DB;stroke-width:1px;}#my-svg .divider{stroke:#9370DB;stroke-width:1;}#my-svg g.clickable{cursor:pointer;}#my-svg g.classGroup rect{fill:#ECECFF;stroke:#9370DB;}#my-svg g.classGroup line{stroke:#9370DB;stroke-width:1;}#my-svg .classLabel .box{stroke:none;stroke-width:0;fill:#ECECFF;opacity:0.5;}#my-svg .classLabel .label{fill:#9370DB;font-size:10px;}#my-svg .relation{stroke:#333333;stroke-width:1;fill:none;}#my-svg .dashed-line{stroke-dasharray:3;}#my-svg .dotted-line{stroke-dasharray:1 2;}#my-svg #compositionStart,#my-svg .composition{fill:#333333!important;stroke:#333333!important;stroke-width:1;}#my-svg #compositionEnd,#my-svg .composition{fill:#333333!important;stroke:#333333!important;stroke-width:1;}#my-svg #dependencyStart,#my-svg .dependency{fill:#333333!important;stroke:#333333!important;stroke-width:1;}#my-svg #dependencyStart,#my-svg .dependency{fill:#333333!important;stroke:#333333!important;stroke-width:1;}#my-svg #extensionStart,#my-svg .extension{fill:transparent!important;stroke:#333333!important;stroke-width:1;}#my-svg #extensionEnd,#my-svg .extension{fill:transparent!important;stroke:#333333!important;stroke-width:1;}#my-svg #aggregationStart,#my-svg .aggregation{fill:transparent!important;stroke:#333333!important;stroke-width:1;}#my-svg #aggregationEnd,#my-svg .aggregation{fill:transparent!important;stroke:#333333!important;stroke-width:1;}#my-svg #lollipopStart,#my-svg .lollipop{fill:#ECECFF!important;stroke:#333333!important;stroke-width:1;}#my-svg #lollipopEnd,#my-svg .lollipop{fill:#ECECFF!important;stroke:#333333!important;stroke-width:1;}#my-svg .edgeTerminals{font-size:11px;line-height:initial;}#my-svg .classTitleText{text-anchor:middle;font-size:18px;fill:#333;}#my-svg .label-icon{display:inline-block;height:1em;overflow:visible;vertical-align:-0.125em;}#my-svg .node .label-icon path{fill:currentColor;stroke:revert;stroke-width:revert;}#my-svg :root{--mermaid-font-family:"trebuchet ms",verdana,arial,sans-serif;}</style><g><defs><marker id="my-svg_class-aggregationStart" class="marker aggregation class" refX="18" refY="7" markerWidth="190" markerHeight="240" orient="auto"><path d="M 18,7 L9,13 L1,7 L9,1 Z"/></marker></defs><defs><marker id="my-svg_class-aggregationEnd" class="marker aggregation class" refX="1" refY="7" markerWidth="20" markerHeight="28" orient="auto"><path d="M 18,7 L9,13 L1,7 L9,1 Z"/></marker></defs><defs><marker id="my-svg_class-extensionStart" class="marker extension class" refX="18" refY="7" markerWidth="190" markerHeight="240" orient="auto"><path d="M 1,7 L18,13 V 1 Z"/></marker></defs><defs><marker id="my-svg_class-extensionEnd" class="marker extension class" refX="1" refY="7" markerWidth="20" markerHeight="28" orient="auto"><path d="M 1,1 V 13 L18,7 Z"/></marker></defs><defs><marker id="my-svg_class-compositionStart" class="marker composition class" refX="18" refY="7" markerWidth="190" markerHeight="240" orient="auto"><path d="M 18,7 L9,13 L1,7 L9,1 Z"/></marker></defs><defs><marker id="my-svg_class-compositionEnd" class="marker composition class" refX="1" refY="7" markerWidth="20" markerHeight="28" orient="auto"><path d="M 18,7 L9,13 L1,7 L9,1 Z"/></marker></defs><defs><marker id="my-svg_class-dependencyStart" class="marker dependency class" refX="6" refY="7" markerWidth="190" markerHeight="240" orient="auto"><path d="M 5,7 L9,13 L1,7 L9,1 Z"/></marker></defs><defs><marker id="my-svg_class-dependencyEnd" class="marker dependency class" refX="13" refY="7" markerWidth="20" markerHeight="28" orient="auto"><path d="M 18,7 L9,13 L14,7 L9,1 Z"/></marker></defs><defs><marker id="my-svg_class-lollipopStart" class="marker lollipop class" refX="13" refY="7" markerWidth="190" markerHeight="240" orient="auto"><circle stroke="black" fill="transparent" cx="7" cy="7" r="6"/></marker></defs><defs><marker id="my-svg_class-lollipopEnd" class="marker lollipop class" refX="1" refY="7" markerWidth="190" markerHeight="240" orient="auto"><circle stroke="black" fill="transparent" cx="7" cy="7" r="6"/></marker></defs><g class="root"><g class="clusters"/><g class="edgePaths"><path d="M152.479,101.602L145.663,106.168C138.848,110.734,125.217,119.867,118.401,130.6C111.586,141.333,111.586,153.667,111.586,159.833L111.586,166" id="id_SpectralProfile_AbsorptionSpectrum_1" class="edge-thickness-normal edge-pattern-solid relation" style=";;;" data-edge="true" data-et="edge" data-id="id_SpectralProfile_AbsorptionSpectrum_1" data-points="W3sieCI6MTY2LjgwOTY4MTU2NjQ1NTcsInkiOjkyfSx7IngiOjExMS41ODU5Mzc1LCJ5IjoxMjl9LHsieCI6MTExLjU4NTkzNzUsInkiOjE2Nn1d" marker-start="url(#my-svg_class-extensionStart)"/><path d="M58.934,262.395L54.965,266.495C50.995,270.596,43.056,278.798,42.071,289.066C41.086,299.333,47.055,311.667,50.04,317.833L53.024,324" id="id_AbsorptionSpectrum_XASSpectrum_2" class="edge-thickness-normal edge-pattern-solid relation" style=";;;" data-edge="true" data-et="edge" data-id="id_AbsorptionSpectrum_XASSpectrum_2" data-points="W3sieCI6NzAuOTMxNjY1MzQ4MTAxMjYsInkiOjI1MH0seyJ4IjozNS4xMTcxODc1LCJ5IjoyODd9LHsieCI6NTMuMDI0NDI2NDI0MDUwNjMsInkiOjMyNH1d" marker-start="url(#my-svg_class-extensionStart)"/><path d="M209.169,92L206.184,98.167C203.2,104.333,197.231,116.667,203.76,129.961C210.29,143.254,229.318,157.509,238.832,164.636L248.346,171.763" id="id_SpectralProfile_Energy2_3" class="edge-thickness-normal edge-pattern-solid relation" style=";;;" data-edge="true" data-et="edge" data-id="id_SpectralProfile_Energy2_3" data-points="W3sieCI6MjA5LjE2ODk1NzY3NDA1MDYzLCJ5Ijo5Mn0seyJ4IjoxOTEuMjYxNzE4NzUsInkiOjEyOX0seyJ4IjoyNTMuMTQ4NDM3NSwieSI6MTc1LjM2MDU5NTYyMTczNTc0fV0=" marker-end="url(#my-svg_class-dependencyEnd)"/><path d="M269.376,92L275.231,98.167C281.086,104.333,292.797,116.667,298.143,128.005C303.488,139.343,302.468,149.686,301.958,154.857L301.448,160.029" id="id_SpectralProfile_Energy2_4" class="edge-thickness-normal edge-pattern-solid relation" style=";;;" data-edge="true" data-et="edge" data-id="id_SpectralProfile_Energy2_4" data-points="W3sieCI6MjY5LjM3NTc0MTY5MzAzOCwieSI6OTJ9LHsieCI6MzA0LjUwNzgxMjUsInkiOjEyOX0seyJ4IjozMDAuODU5NzcwNTY5NjIwMjUsInkiOjE2Nn1d" marker-end="url(#my-svg_class-dependencyEnd)"/><path d="M93.679,324L96.663,317.833C99.648,311.667,105.617,299.333,108.601,288C111.586,276.667,111.586,266.333,111.586,261.167L111.586,256" id="id_XASSpectrum_AbsorptionSpectrum_5" class="edge-thickness-normal edge-pattern-solid relation" style=";;;" data-edge="true" data-et="edge" data-id="id_XASSpectrum_AbsorptionSpectrum_5" data-points="W3sieCI6OTMuNjc4Njk4NTc1OTQ5MzcsInkiOjMyNH0seyJ4IjoxMTEuNTg1OTM3NSwieSI6Mjg3fSx7IngiOjExMS41ODU5Mzc1LCJ5IjoyNTB9XQ==" marker-end="url(#my-svg_class-dependencyEnd)"/><path d="M138.703,336.226L156.711,328.022C174.719,319.817,210.734,303.409,219.055,289.542C227.375,275.676,208,264.352,198.313,258.69L188.625,253.028" id="id_XASSpectrum_AbsorptionSpectrum_6" class="edge-thickness-normal edge-pattern-solid relation" style=";;;" data-edge="true" data-et="edge" data-id="id_XASSpectrum_AbsorptionSpectrum_6" data-points="W3sieCI6MTM4LjcwMzEyNSwieSI6MzM2LjIyNTk1MTc5MDk0Mzl9LHsieCI6MjQ2Ljc1LCJ5IjoyODd9LHsieCI6MTgzLjQ0NTMxMjUsInkiOjI1MH1d" marker-end="url(#my-svg_class-dependencyEnd)"/></g><g class="edgeLabels"><g class="edgeLabel"><g class="label" data-id="id_SpectralProfile_AbsorptionSpectrum_1" transform="translate(0, 0)"><foreignObject width="0" height="0"><div xmlns="http://www.w3.org/1999/xhtml" class="labelBkg" style="display: table-cell; white-space: nowrap; line-height: 1.5; max-width: 200px; text-align: center;"><span class="edgeLabel"></span></div></foreignObject></g></g><g class="edgeLabel"><g class="label" data-id="id_AbsorptionSpectrum_XASSpectrum_2" transform="translate(0, 0)"><foreignObject width="0" height="0"><div xmlns="http://www.w3.org/1999/xhtml" class="labelBkg" style="display: table-cell; white-space: nowrap; line-height: 1.5; max-width: 200px; text-align: center;"><span class="edgeLabel"></span></div></foreignObject></g></g><g class="edgeLabel" transform="translate(205.7559, 139.85789)"><g class="label" data-id="id_SpectralProfile_Energy2_3" transform="translate(-30.6875, -12)"><foreignObject width="61.375" height="24"><div xmlns="http://www.w3.org/1999/xhtml" class="labelBkg" style="display: table-cell; white-space: nowrap; line-height: 1.5; max-width: 200px; text-align: center;"><span class="edgeLabel"><p>energies</p></span></div></foreignObject></g></g><g class="edgeLabel" transform="translate(299.74199, 123.98079)"><g class="label" data-id="id_SpectralProfile_Energy2_4" transform="translate(-41.359375, -12)"><foreignObject width="82.71875" height="24"><div xmlns="http://www.w3.org/1999/xhtml" class="labelBkg" style="display: table-cell; white-space: nowrap; line-height: 1.5; max-width: 200px; text-align: center;"><span class="edgeLabel"><p>frequencies</p></span></div></foreignObject></g></g><g class="edgeLabel" transform="translate(111.5859375, 287)"><g class="label" data-id="id_XASSpectrum_AbsorptionSpectrum_5" transform="translate(-56.46875, -12)"><foreignObject width="112.9375" height="24"><div xmlns="http://www.w3.org/1999/xhtml" class="labelBkg" style="display: table-cell; white-space: nowrap; line-height: 1.5; max-width: 200px; text-align: center;"><span class="edgeLabel"><p>exafs_spectrum</p></span></div></foreignObject></g></g><g class="edgeLabel" transform="translate(226.08941, 296.41293)"><g class="label" data-id="id_XASSpectrum_AbsorptionSpectrum_6" transform="translate(-58.6953125, -12)"><foreignObject width="117.390625" height="24"><div xmlns="http://www.w3.org/1999/xhtml" class="labelBkg" style="display: table-cell; white-space: nowrap; line-height: 1.5; max-width: 200px; text-align: center;"><span class="edgeLabel"><p>xanes_spectrum</p></span></div></foreignObject></g></g></g><g class="nodes"><g class="node default" id="classId-AbsorptionSpectrum-0" transform="translate(111.5859375, 208)"><g class="basic label-container"><path d="M-91.5625 -42 L91.5625 -42 L91.5625 42 L-91.5625 42" stroke="none" stroke-width="0" fill="#ECECFF" style=""/><path d="M-91.5625 -42 C-23.891123031530228 -42, 43.780253936939545 -42, 91.5625 -42 M-91.5625 -42 C-22.310195103545794 -42, 46.94210979290841 -42, 91.5625 -42 M91.5625 -42 C91.5625 -24.554848123418285, 91.5625 -7.10969624683657, 91.5625 42 M91.5625 -42 C91.5625 -16.25325044357733, 91.5625 9.493499112845342, 91.5625 42 M91.5625 42 C43.37025036060846 42, -4.821999278783082 42, -91.5625 42 M91.5625 42 C29.250351539850342 42, -33.061796920299315 42, -91.5625 42 M-91.5625 42 C-91.5625 24.09678086279325, -91.5625 6.193561725586498, -91.5625 -42 M-91.5625 42 C-91.5625 22.648630385889213, -91.5625 3.2972607717784257, -91.5625 -42" stroke="#9370DB" stroke-width="1.3" fill="none" stroke-dasharray="0 0" style=""/></g><g class="annotation-group text" transform="translate(0, -18)"/><g class="label-group text" transform="translate(-79.5625, -18)"><g class="label" style="font-weight: bolder" transform="translate(0,-12)"><foreignObject width="159.125" height="24"><div xmlns="http://www.w3.org/1999/xhtml" style="display: table-cell; white-space: nowrap; line-height: 1.5; max-width: 184px; text-align: center;"><span class="nodeLabel markdown-node-label" style=""><p>AbsorptionSpectrum</p></span></div></foreignObject></g></g><g class="members-group text" transform="translate(-79.5625, 30)"/><g class="methods-group text" transform="translate(-79.5625, 60)"/><g class="divider" style=""><path d="M-91.5625 6 C-44.98916454053239 6, 1.5841709189352144 6, 91.5625 6 M-91.5625 6 C-48.980947420217525 6, -6.3993948404350505 6, 91.5625 6" stroke="#9370DB" stroke-width="1.3" fill="none" stroke-dasharray="0 0" style=""/></g></g><g class="node default" id="classId-Energy2-1" transform="translate(296.71875, 208)"><g class="basic label-container"><path d="M-43.5703125 -42 L43.5703125 -42 L43.5703125 42 L-43.5703125 42" stroke="none" stroke-width="0" fill="#ECECFF" style=""/><path d="M-43.5703125 -42 C-12.799421238284985 -42, 17.97147002343003 -42, 43.5703125 -42 M-43.5703125 -42 C-9.39347767719292 -42, 24.78335714561416 -42, 43.5703125 -42 M43.5703125 -42 C43.5703125 -11.052236950459442, 43.5703125 19.895526099081117, 43.5703125 42 M43.5703125 -42 C43.5703125 -15.306423570266361, 43.5703125 11.387152859467278, 43.5703125 42 M43.5703125 42 C12.278432280554064 42, -19.013447938891872 42, -43.5703125 42 M43.5703125 42 C16.028904927772075 42, -11.51250264445585 42, -43.5703125 42 M-43.5703125 42 C-43.5703125 13.45027305730462, -43.5703125 -15.099453885390759, -43.5703125 -42 M-43.5703125 42 C-43.5703125 19.339848778025313, -43.5703125 -3.320302443949373, -43.5703125 -42" stroke="#9370DB" stroke-width="1.3" fill="none" stroke-dasharray="0 0" style=""/></g><g class="annotation-group text" transform="translate(0, -18)"/><g class="label-group text" transform="translate(-31.5703125, -18)"><g class="label" style="font-weight: bolder" transform="translate(0,-12)"><foreignObject width="63.140625" height="24"><div xmlns="http://www.w3.org/1999/xhtml" style="display: table-cell; white-space: nowrap; line-height: 1.5; max-width: 104px; text-align: center;"><span class="nodeLabel markdown-node-label" style=""><p>Energy2</p></span></div></foreignObject></g></g><g class="members-group text" transform="translate(-31.5703125, 30)"/><g class="methods-group text" transform="translate(-31.5703125, 60)"/><g class="divider" style=""><path d="M-43.5703125 6 C-11.438869364670602 6, 20.692573770658797 6, 43.5703125 6 M-43.5703125 6 C-11.738022641868668 6, 20.094267216262665 6, 43.5703125 6" stroke="#9370DB" stroke-width="1.3" fill="none" stroke-dasharray="0 0" style=""/></g></g><g class="node default" id="classId-SpectralProfile-2" transform="translate(229.49609375, 50)"><g class="basic label-container"><path d="M-68.46875 -42 L68.46875 -42 L68.46875 42 L-68.46875 42" stroke="none" stroke-width="0" fill="#ECECFF" style=""/><path d="M-68.46875 -42 C-38.8523172237536 -42, -9.235884447507196 -42, 68.46875 -42 M-68.46875 -42 C-29.699764351643843 -42, 9.069221296712314 -42, 68.46875 -42 M68.46875 -42 C68.46875 -22.193726813983066, 68.46875 -2.3874536279661314, 68.46875 42 M68.46875 -42 C68.46875 -8.587375876744346, 68.46875 24.825248246511308, 68.46875 42 M68.46875 42 C15.9240533125516 42, -36.6206433748968 42, -68.46875 42 M68.46875 42 C18.27686425202947 42, -31.915021495941062 42, -68.46875 42 M-68.46875 42 C-68.46875 15.496602555386907, -68.46875 -11.006794889226185, -68.46875 -42 M-68.46875 42 C-68.46875 10.72510314775096, -68.46875 -20.54979370449808, -68.46875 -42" stroke="#9370DB" stroke-width="1.3" fill="none" stroke-dasharray="0 0" style=""/></g><g class="annotation-group text" transform="translate(0, -18)"/><g class="label-group text" transform="translate(-56.46875, -18)"><g class="label" style="font-weight: bolder" transform="translate(0,-12)"><foreignObject width="112.9375" height="24"><div xmlns="http://www.w3.org/1999/xhtml" style="display: table-cell; white-space: nowrap; line-height: 1.5; max-width: 146px; text-align: center;"><span class="nodeLabel markdown-node-label" style=""><p>SpectralProfile</p></span></div></foreignObject></g></g><g class="members-group text" transform="translate(-56.46875, 30)"/><g class="methods-group text" transform="translate(-56.46875, 60)"/><g class="divider" style=""><path d="M-68.46875 6 C-20.468538792632415 6, 27.53167241473517 6, 68.46875 6 M-68.46875 6 C-28.465671373454143 6, 11.537407253091715 6, 68.46875 6" stroke="#9370DB" stroke-width="1.3" fill="none" stroke-dasharray="0 0" style=""/></g></g><g class="node default" id="classId-XASSpectrum-3" transform="translate(73.3515625, 366)"><g class="basic label-container"><path d="M-65.3515625 -42 L65.3515625 -42 L65.3515625 42 L-65.3515625 42" stroke="none" stroke-width="0" fill="#ECECFF" style=""/><path d="M-65.3515625 -42 C-37.42808169339318 -42, -9.504600886786363 -42, 65.3515625 -42 M-65.3515625 -42 C-18.62063914019032 -42, 28.11028421961936 -42, 65.3515625 -42 M65.3515625 -42 C65.3515625 -17.14367072522467, 65.3515625 7.71265854955066, 65.3515625 42 M65.3515625 -42 C65.3515625 -12.642484774882067, 65.3515625 16.715030450235865, 65.3515625 42 M65.3515625 42 C35.169542513038635 42, 4.987522526077271 42, -65.3515625 42 M65.3515625 42 C30.70351360048847 42, -3.944535299023059 42, -65.3515625 42 M-65.3515625 42 C-65.3515625 11.342738824531217, -65.3515625 -19.314522350937565, -65.3515625 -42 M-65.3515625 42 C-65.3515625 13.078151479534192, -65.3515625 -15.843697040931616, -65.3515625 -42" stroke="#9370DB" stroke-width="1.3" fill="none" stroke-dasharray="0 0" style=""/></g><g class="annotation-group text" transform="translate(0, -18)"/><g class="label-group text" transform="translate(-53.3515625, -18)"><g class="label" style="font-weight: bolder" transform="translate(0,-12)"><foreignObject width="106.703125" height="24"><div xmlns="http://www.w3.org/1999/xhtml" style="display: table-cell; white-space: nowrap; line-height: 1.5; max-width: 144px; text-align: center;"><span class="nodeLabel markdown-node-label" style=""><p>XASSpectrum</p></span></div></foreignObject></g></g><g class="members-group text" transform="translate(-53.3515625, 30)"/><g class="methods-group text" transform="translate(-53.3515625, 60)"/><g class="divider" style=""><path d="M-65.3515625 6 C-28.731175352345723 6, 7.8892117953085545 6, 65.3515625 6 M-65.3515625 6 C-20.18344583599921 6, 24.984670828001583 6, 65.3515625 6" stroke="#9370DB" stroke-width="1.3" fill="none" stroke-dasharray="0 0" style=""/></g></g></g></g></g></svg>