<?xml version="1.0" encoding="UTF-8"?>
<svg id="my-svg" width="100%" xmlns="http://www.w3.org/2000/svg" xmlns:xlink="http://www.w3.org/1999/xlink" class="classDiagram" style="max-width: 508.301px; background-color: white;" viewBox="0 0 508.30078125 416" role="graphics-document document" aria-roledescription="class"><style>#my-svg{font-family:"trebuchet ms",verdana,arial,sans-serif;font-size:16px;fill:#333;}@keyframes edge-animation-frame{from{stroke-dashoffset:0;}}@keyframes dash{to{stroke-dashoffset:0;}}#my-svg .edge-animation-slow{stroke-dasharray:9,5!important;stroke-dashoffset:900;animation:dash 50s linear infinite;stroke-linecap:round;}#my-svg .edge-animation-fast{stroke-dasharray:9,5!important;stroke-dashoffset:900;animation:dash 20s linear infinite;stroke-linecap:round;}#my-svg .error-icon{fill:#552222;}#my-svg .error-text{fill:#552222;stroke:#552222;}#my-svg .edge-thickness-normal{stroke-width:1px;}#my-svg .edge-thickness-thick{stroke-width:3.5px;}#my-svg .edge-pattern-solid{stroke-dasharray:0;}#my-svg .edge-thickness-invisible{stroke-width:0;fill:none;}#my-svg .edge-pattern-dashed{stroke-dasharray:3;}#my-svg .edge-pattern-dotted{stroke-dasharray:2;}#my-svg .marker{fill:#333333;stroke:#333333;}#my-svg .marker.cross{stroke:#333333;}#my-svg svg{font-family:"trebuchet ms",verdana,arial,sans-serif;font-size:16px;}#my-svg p{margin:0;}#my-svg g.classGroup text{fill:#9370DB;stroke:none;font-family:"trebuchet ms",verdana,arial,sans-serif;font-size:10px;}#my-svg g.classGroup text .title{font-weight:bolder;}#my-svg .nodeLabel,#my-svg .edgeLabel{color:#131300;}#my-svg .edgeLabel .label rect{fill:#ECECFF;}#my-svg .label text{fill:#131300;}#my-svg .labelBkg{background:#ECECFF;}#my-svg .edgeLabel .label span{background:#ECECFF;}#my-svg .classTitle{font-weight:bolder;}#my-svg .node rect,#my-svg .node circle,#my-svg .node ellipse,#my-svg .node polygon,#my-svg .node path{fill:#ECECFF;stroke:#9370DB;stroke-width:1px;}#my-svg .divider{stroke:#9370DB;stroke-width:1;}#my-svg g.clickable{cursor:pointer;}#my-svg g.classGroup rect{fill:#ECECFF;stroke:#9370DB;}#my-svg g.classGroup line{stroke:#9370DB;stroke-width:1;}#my-svg .classLabel .box{stroke:none;stroke-width:0;fill:#ECECFF;opacity:0.5;}#my-svg .classLabel .label{fill:#9370DB;font-size:10px;}#my-svg .relation{stroke:#333333;stroke-width:1;fill:none;}#my-svg .dashed-line{stroke-dasharray:3;}#my-svg .dotted-line{stroke-dasharray:1 2;}#my-svg #compositionStart,#my-svg .composition{fill:#333333!important;stroke:#333333!important;stroke-width:1;}#my-svg #compositionEnd,#my-svg .composition{fill:#333333!important;stroke:#333333!important;stroke-width:1;}#my-svg #dependencyStart,#my-svg .dependency{fill:#333333!important;stroke:#333333!important;stroke-width:1;}#my-svg #dependencyStart,#my-svg .dependency{fill:#333333!important;stroke:#333333!important;stroke-width:1;}#my-svg #extensionStart,#my-svg .extension{fill:transparent!important;stroke:#333333!important;stroke-width:1;}#my-svg #extensionEnd,#my-svg .extension{fill:transparent!important;stroke:#333333!important;stroke-width:1;}#my-svg #aggregationStart,#my-svg .aggregation{fill:transparent!important;stroke:#333333!important;stroke-width:1;}#my-svg #aggregationEnd,#my-svg .aggregation{fill:transparent!important;stroke:#333333!important;stroke-width:1;}#my-svg #lollipopStart,#my-svg .lollipop{fill:#ECECFF!important;stroke:#333333!important;stroke-width:1;}#my-svg #lollipopEnd,#my-svg .lollipop{fill:#ECECFF!important;stroke:#333333!important;stroke-width:1;}#my-svg .edgeTerminals{font-size:11px;line-height:initial;}#my-svg .classTitleText{text-anchor:middle;font-size:18px;fill:#333;}#my-svg .label-icon{display:inline-block;height:1em;overflow:visible;vertical-align:-0.125em;}#my-svg .node .label-icon path{fill:currentColor;stroke:revert;stroke-width:revert;}#my-svg :root{--mermaid-font-family:"trebuchet ms",verdana,arial,sans-serif;}</style><g><defs><marker id="my-svg_class-aggregationStart" class="marker aggregation class" refX="18" refY="7" markerWidth="190" markerHeight="240" orient="auto"><path d="M 18,7 L9,13 L1,7 L9,1 Z"/></marker></defs><defs><marker id="my-svg_class-aggregationEnd" class="marker aggregation class" refX="1" refY="7" markerWidth="20" markerHeight="28" orient="auto"><path d="M 18,7 L9,13 L1,7 L9,1 Z"/></marker></defs><defs><marker id="my-svg_class-extensionStart" class="marker extension class" refX="18" refY="7" markerWidth="190" markerHeight="240" orient="auto"><path d="M 1,7 L18,13 V 1 Z"/></marker></defs><defs><marker id="my-svg_class-extensionEnd" class="marker extension class" refX="1" refY="7" markerWidth="20" markerHeight="28" orient="auto"><path d="M 1,1 V 13 L18,7 Z"/></marker></defs><defs><marker id="my-svg_class-compositionStart" class="marker composition class" refX="18" refY="7" markerWidth="190" markerHeight="240" orient="auto"><path d="M 18,7 L9,13 L1,7 L9,1 Z"/></marker></defs><defs><marker id="my-svg_class-compositionEnd" class="marker composition class" refX="1" refY="7" markerWidth="20" markerHeight="28" orient="auto"><path d="M 18,7 L9,13 L1,7 L9,1 Z"/></marker></defs><defs><marker id="my-svg_class-dependencyStart" class="marker dependency class" refX="6" refY="7" markerWidth="190" markerHeight="240" orient="auto"><path d="M 5,7 L9,13 L1,7 L9,1 Z"/></marker></defs><defs><marker id="my-svg_class-dependencyEnd" class="marker dependency class" refX="13" refY="7" markerWidth="20" markerHeight="28" orient="auto"><path d="M 18,7 L9,13 L14,7 L9,1 Z"/></marker></defs><defs><marker id="my-svg_class-lollipopStart" class="marker lollipop class" refX="13" refY="7" markerWidth="190" markerHeight="240" orient="auto"><circle stroke="black" fill="transparent" cx="7" cy="7" r="6"/></marker></defs><defs><marker id="my-svg_class-lollipopEnd" class="marker lollipop class" refX="1" refY="7" markerWidth="190" markerHeight="240" orient="auto"><circle stroke="black" fill="transparent" cx="7" cy="7" r="6"/></marker></defs><g class="root"><g class="clusters"/><g class="edgePaths"><path d="M140.455,101.602L133.64,106.168C126.824,110.734,113.193,119.867,106.378,130.6C99.563,141.333,99.563,153.667,99.563,159.833L99.563,166" id="id_SpectralProfile_AbsorptionSpectrum_1" class="edge-thickness-normal edge-pattern-solid relation" style=";;;" data-edge="true" data-et="edge" data-id="id_SpectralProfile_AbsorptionSpectrum_1" data-points="W3sieCI6MTU0Ljc4NjI0NDA2NjQ1NTcsInkiOjkyfSx7IngiOjk5LjU2MjUsInkiOjEyOX0seyJ4Ijo5OS41NjI1LCJ5IjoxNjZ9XQ==" marker-start="url(#my-svg_class-extensionStart)"/><path d="M55.654,263.531L52.562,267.443C49.469,271.354,43.283,279.177,43.175,289.255C43.067,299.333,49.036,311.667,52.02,317.833L55.005,324" id="id_AbsorptionSpectrum_XASSpectrum_2" class="edge-thickness-normal edge-pattern-solid relation" style=";;;" data-edge="true" data-et="edge" data-id="id_AbsorptionSpectrum_XASSpectrum_2" data-points="W3sieCI6NjYuMzUzMzQyNTYzMjkxMTQsInkiOjI1MH0seyJ4IjozNy4wOTc2NTYyNSwieSI6Mjg3fSx7IngiOjU1LjAwNDg5NTE3NDA1MDYzLCJ5IjozMjR9XQ==" marker-start="url(#my-svg_class-extensionStart)"/><path d="M444.73,92L444.73,98.167C444.73,104.333,444.73,116.667,444.73,128C444.73,139.333,444.73,149.667,444.73,154.833L444.73,160" id="id_Permittivity_Frequency_3" class="edge-thickness-normal edge-pattern-solid relation" style=";;;" data-edge="true" data-et="edge" data-id="id_Permittivity_Frequency_3" data-points="W3sieCI6NDQ0LjczMDQ2ODc1LCJ5Ijo5Mn0seyJ4Ijo0NDQuNzMwNDY4NzUsInkiOjEyOX0seyJ4Ijo0NDQuNzMwNDY4NzUsInkiOjE2Nn1d" marker-end="url(#my-svg_class-dependencyEnd)"/><path d="M204.591,92L202.699,98.167C200.808,104.333,197.025,116.667,202.357,129.073C207.69,141.48,222.137,153.96,229.361,160.2L236.584,166.44" id="id_SpectralProfile_Energy2_4" class="edge-thickness-normal edge-pattern-solid relation" style=";;;" data-edge="true" data-et="edge" data-id="id_SpectralProfile_Energy2_4" data-points="W3sieCI6MjA0LjU5MDYzNDg4OTI0MDUsInkiOjkyfSx7IngiOjE5My4yNDIxODc1LCJ5IjoxMjl9LHsieCI6MjQxLjEyNSwieSI6MTcwLjM2MjYzNDU0NjM4NjQ2fV0=" marker-end="url(#my-svg_class-dependencyEnd)"/><path d="M264.797,92L271.746,98.167C278.694,104.333,292.591,116.667,298.105,128.036C303.618,139.405,300.747,149.811,299.312,155.013L297.877,160.216" id="id_SpectralProfile_Energy2_5" class="edge-thickness-normal edge-pattern-solid relation" style=";;;" data-edge="true" data-et="edge" data-id="id_SpectralProfile_Energy2_5" data-points="W3sieCI6MjY0Ljc5NzQxODkwODIyNzgsInkiOjkyfSx7IngiOjMwNi40ODgyODEyNSwieSI6MTI5fSx7IngiOjI5Ni4yODE0NDc3ODQ4MTAxLCJ5IjoxNjZ9XQ==" marker-end="url(#my-svg_class-dependencyEnd)"/><path d="M95.659,324L98.644,317.833C101.628,311.667,107.597,299.333,109.663,287.985C111.729,276.636,109.892,266.272,108.973,261.09L108.055,255.908" id="id_XASSpectrum_AbsorptionSpectrum_6" class="edge-thickness-normal edge-pattern-solid relation" style=";;;" data-edge="true" data-et="edge" data-id="id_XASSpectrum_AbsorptionSpectrum_6" data-points="W3sieCI6OTUuNjU5MTY3MzI1OTQ5MzcsInkiOjMyNH0seyJ4IjoxMTMuNTY2NDA2MjUsInkiOjI4N30seyJ4IjoxMDcuMDA3NjE0NzE1MTg5ODcsInkiOjI1MH1d" marker-end="url(#my-svg_class-dependencyEnd)"/><path d="M140.684,336.226L158.691,328.022C176.699,319.817,212.715,303.409,219.962,289.506C227.21,275.603,205.69,264.205,194.929,258.507L184.169,252.808" id="id_XASSpectrum_AbsorptionSpectrum_7" class="edge-thickness-normal edge-pattern-solid relation" style=";;;" data-edge="true" data-et="edge" data-id="id_XASSpectrum_AbsorptionSpectrum_7" data-points="W3sieCI6MTQwLjY4MzU5Mzc1LCJ5IjozMzYuMjI1OTUxNzkwOTQzOX0seyJ4IjoyNDguNzMwNDY4NzUsInkiOjI4N30seyJ4IjoxNzguODY2OTg5NzE1MTg5ODcsInkiOjI1MH1d" marker-end="url(#my-svg_class-dependencyEnd)"/></g><g class="edgeLabels"><g class="edgeLabel"><g class="label" data-id="id_SpectralProfile_AbsorptionSpectrum_1" transform="translate(0, 0)"><foreignObject width="0" height="0"><div xmlns="http://www.w3.org/1999/xhtml" class="labelBkg" style="display: table-cell; white-space: nowrap; line-height: 1.5; max-width: 200px; text-align: center;"><span class="edgeLabel"></span></div></foreignObject></g></g><g class="edgeLabel"><g class="label" data-id="id_AbsorptionSpectrum_XASSpectrum_2" transform="translate(0, 0)"><foreignObject width="0" height="0"><div xmlns="http://www.w3.org/1999/xhtml" class="labelBkg" style="display: table-cell; white-space: nowrap; line-height: 1.5; max-width: 200px; text-align: center;"><span class="edgeLabel"></span></div></foreignObject></g></g><g class="edgeLabel" transform="translate(444.73046875, 129)"><g class="label" data-id="id_Permittivity_Frequency_3" transform="translate(-41.359375, -12)"><foreignObject width="82.71875" height="24"><div xmlns="http://www.w3.org/1999/xhtml" class="labelBkg" style="display: table-cell; white-space: nowrap; line-height: 1.5; max-width: 200px; text-align: center;"><span class="edgeLabel"><p>frequencies</p></span></div></foreignObject></g></g><g class="edgeLabel" transform="translate(193.2421875, 129)"><g class="label" data-id="id_SpectralProfile_Energy2_4" transform="translate(-30.6875, -12)"><foreignObject width="61.375" height="24"><div xmlns="http://www.w3.org/1999/xhtml" class="labelBkg" style="display: table-cell; white-space: nowrap; line-height: 1.5; max-width: 200px; text-align: center;"><span class="edgeLabel"><p>energies</p></span></div></foreignObject></g></g><g class="edgeLabel" transform="translate(299.99639, 123.23855)"><g class="label" data-id="id_SpectralProfile_Energy2_5" transform="translate(-41.359375, -12)"><foreignObject width="82.71875" height="24"><div xmlns="http://www.w3.org/1999/xhtml" class="labelBkg" style="display: table-cell; white-space: nowrap; line-height: 1.5; max-width: 200px; text-align: center;"><span class="edgeLabel"><p>frequencies</p></span></div></foreignObject></g></g><g class="edgeLabel" transform="translate(112.79777, 288.58816)"><g class="label" data-id="id_XASSpectrum_AbsorptionSpectrum_6" transform="translate(-56.46875, -12)"><foreignObject width="112.9375" height="24"><div xmlns="http://www.w3.org/1999/xhtml" class="labelBkg" style="display: table-cell; white-space: nowrap; line-height: 1.5; max-width: 200px; text-align: center;"><span class="edgeLabel"><p>exafs_spectrum</p></span></div></foreignObject></g></g><g class="edgeLabel" transform="translate(230.67788, 295.22473)"><g class="label" data-id="id_XASSpectrum_AbsorptionSpectrum_7" transform="translate(-58.6953125, -12)"><foreignObject width="117.390625" height="24"><div xmlns="http://www.w3.org/1999/xhtml" class="labelBkg" style="display: table-cell; white-space: nowrap; line-height: 1.5; max-width: 200px; text-align: center;"><span class="edgeLabel"><p>xanes_spectrum</p></span></div></foreignObject></g></g></g><g class="nodes"><g class="node default" id="classId-AbsorptionSpectrum-0" transform="translate(99.5625, 208)"><g class="basic label-container"><path d="M-91.5625 -42 L91.5625 -42 L91.5625 42 L-91.5625 42" stroke="none" stroke-width="0" fill="#ECECFF" style=""/><path d="M-91.5625 -42 C-39.52589426781188 -42, 12.510711464376243 -42, 91.5625 -42 M-91.5625 -42 C-43.162953860378096 -42, 5.236592279243808 -42, 91.5625 -42 M91.5625 -42 C91.5625 -20.099419246047145, 91.5625 1.8011615079057108, 91.5625 42 M91.5625 -42 C91.5625 -23.353068660112353, 91.5625 -4.706137320224705, 91.5625 42 M91.5625 42 C51.35847290113541 42, 11.154445802270814 42, -91.5625 42 M91.5625 42 C21.79145132254274 42, -47.97959735491452 42, -91.5625 42 M-91.5625 42 C-91.5625 19.879775102031868, -91.5625 -2.2404497959362644, -91.5625 -42 M-91.5625 42 C-91.5625 9.257658582044883, -91.5625 -23.484682835910235, -91.5625 -42" stroke="#9370DB" stroke-width="1.3" fill="none" stroke-dasharray="0 0" style=""/></g><g class="annotation-group text" transform="translate(0, -18)"/><g class="label-group text" transform="translate(-79.5625, -18)"><g class="label" style="font-weight: bolder" transform="translate(0,-12)"><foreignObject width="159.125" height="24"><div xmlns="http://www.w3.org/1999/xhtml" style="display: table-cell; white-space: nowrap; line-height: 1.5; max-width: 184px; text-align: center;"><span class="nodeLabel markdown-node-label" style=""><p>AbsorptionSpectrum</p></span></div></foreignObject></g></g><g class="members-group text" transform="translate(-79.5625, 30)"/><g class="methods-group text" transform="translate(-79.5625, 60)"/><g class="divider" style=""><path d="M-91.5625 6 C-28.95969142752523 6, 33.64311714494954 6, 91.5625 6 M-91.5625 6 C-36.27630720705852 6, 19.009885585882955 6, 91.5625 6" stroke="#9370DB" stroke-width="1.3" fill="none" stroke-dasharray="0 0" style=""/></g></g><g class="node default" id="classId-Energy2-1" transform="translate(284.6953125, 208)"><g class="basic label-container"><path d="M-43.5703125 -42 L43.5703125 -42 L43.5703125 42 L-43.5703125 42" stroke="none" stroke-width="0" fill="#ECECFF" style=""/><path d="M-43.5703125 -42 C-15.760958870062076 -42, 12.048394759875848 -42, 43.5703125 -42 M-43.5703125 -42 C-18.586734966793262 -42, 6.396842566413476 -42, 43.5703125 -42 M43.5703125 -42 C43.5703125 -8.656179180611396, 43.5703125 24.687641638777208, 43.5703125 42 M43.5703125 -42 C43.5703125 -14.118853502736805, 43.5703125 13.76229299452639, 43.5703125 42 M43.5703125 42 C21.63967582206717 42, -0.2909608558656629 42, -43.5703125 42 M43.5703125 42 C11.794397016180636 42, -19.98151846763873 42, -43.5703125 42 M-43.5703125 42 C-43.5703125 16.339712897821457, -43.5703125 -9.320574204357087, -43.5703125 -42 M-43.5703125 42 C-43.5703125 13.546481275289022, -43.5703125 -14.907037449421956, -43.5703125 -42" stroke="#9370DB" stroke-width="1.3" fill="none" stroke-dasharray="0 0" style=""/></g><g class="annotation-group text" transform="translate(0, -18)"/><g class="label-group text" transform="translate(-31.5703125, -18)"><g class="label" style="font-weight: bolder" transform="translate(0,-12)"><foreignObject width="63.140625" height="24"><div xmlns="http://www.w3.org/1999/xhtml" style="display: table-cell; white-space: nowrap; line-height: 1.5; max-width: 104px; text-align: center;"><span class="nodeLabel markdown-node-label" style=""><p>Energy2</p></span></div></foreignObject></g></g><g class="members-group text" transform="translate(-31.5703125, 30)"/><g class="methods-group text" transform="translate(-31.5703125, 60)"/><g class="divider" style=""><path d="M-43.5703125 6 C-16.72108080816204 6, 10.128150883675922 6, 43.5703125 6 M-43.5703125 6 C-25.300300446762762 6, -7.030288393525524 6, 43.5703125 6" stroke="#9370DB" stroke-width="1.3" fill="none" stroke-dasharray="0 0" style=""/></g></g><g class="node default" id="classId-Frequency-2" transform="translate(444.73046875, 208)"><g class="basic label-container"><path d="M-52.4609375 -42 L52.4609375 -42 L52.4609375 42 L-52.4609375 42" stroke="none" stroke-width="0" fill="#ECECFF" style=""/><path d="M-52.4609375 -42 C-16.704004992360908 -42, 19.052927515278185 -42, 52.4609375 -42 M-52.4609375 -42 C-26.707459008846865 -42, -0.9539805176937293 -42, 52.4609375 -42 M52.4609375 -42 C52.4609375 -8.928123982509433, 52.4609375 24.143752034981134, 52.4609375 42 M52.4609375 -42 C52.4609375 -21.031918381695256, 52.4609375 -0.06383676339051192, 52.4609375 42 M52.4609375 42 C14.328156691661931 42, -23.804624116676138 42, -52.4609375 42 M52.4609375 42 C27.318872949298814 42, 2.176808398597629 42, -52.4609375 42 M-52.4609375 42 C-52.4609375 21.479235308687308, -52.4609375 0.9584706173746156, -52.4609375 -42 M-52.4609375 42 C-52.4609375 24.690386884645246, -52.4609375 7.380773769290492, -52.4609375 -42" stroke="#9370DB" stroke-width="1.3" fill="none" stroke-dasharray="0 0" style=""/></g><g class="annotation-group text" transform="translate(0, -18)"/><g class="label-group text" transform="translate(-40.4609375, -18)"><g class="label" style="font-weight: bolder" transform="translate(0,-12)"><foreignObject width="80.921875" height="24"><div xmlns="http://www.w3.org/1999/xhtml" style="display: table-cell; white-space: nowrap; line-height: 1.5; max-width: 118px; text-align: center;"><span class="nodeLabel markdown-node-label" style=""><p>Frequency</p></span></div></foreignObject></g></g><g class="members-group text" transform="translate(-40.4609375, 30)"/><g class="methods-group text" transform="translate(-40.4609375, 60)"/><g class="divider" style=""><path d="M-52.4609375 6 C-28.20550085957803 6, -3.9500642191560615 6, 52.4609375 6 M-52.4609375 6 C-23.462085048287346 6, 5.5367674034253085 6, 52.4609375 6" stroke="#9370DB" stroke-width="1.3" fill="none" stroke-dasharray="0 0" style=""/></g></g><g class="node default" id="classId-Permittivity-3" transform="translate(444.73046875, 50)"><g class="basic label-container"><path d="M-55.5703125 -42 L55.5703125 -42 L55.5703125 42 L-55.5703125 42" stroke="none" stroke-width="0" fill="#ECECFF" style=""/><path d="M-55.5703125 -42 C-30.122880151741988 -42, -4.675447803483976 -42, 55.5703125 -42 M-55.5703125 -42 C-11.571580303177612 -42, 32.427151893644776 -42, 55.5703125 -42 M55.5703125 -42 C55.5703125 -8.773015837647513, 55.5703125 24.453968324704974, 55.5703125 42 M55.5703125 -42 C55.5703125 -20.794610657043222, 55.5703125 0.4107786859135558, 55.5703125 42 M55.5703125 42 C29.61770959911499 42, 3.6651066982299767 42, -55.5703125 42 M55.5703125 42 C33.12150095868482 42, 10.672689417369646 42, -55.5703125 42 M-55.5703125 42 C-55.5703125 12.60325264249699, -55.5703125 -16.79349471500602, -55.5703125 -42 M-55.5703125 42 C-55.5703125 13.238815681845047, -55.5703125 -15.522368636309906, -55.5703125 -42" stroke="#9370DB" stroke-width="1.3" fill="none" stroke-dasharray="0 0" style=""/></g><g class="annotation-group text" transform="translate(0, -18)"/><g class="label-group text" transform="translate(-43.5703125, -18)"><g class="label" style="font-weight: bolder" transform="translate(0,-12)"><foreignObject width="87.140625" height="24"><div xmlns="http://www.w3.org/1999/xhtml" style="display: table-cell; white-space: nowrap; line-height: 1.5; max-width: 126px; text-align: center;"><span class="nodeLabel markdown-node-label" style=""><p>Permittivity</p></span></div></foreignObject></g></g><g class="members-group text" transform="translate(-43.5703125, 30)"/><g class="methods-group text" transform="translate(-43.5703125, 60)"/><g class="divider" style=""><path d="M-55.5703125 6 C-11.7666792014356 6, 32.0369540971288 6, 55.5703125 6 M-55.5703125 6 C-25.63571252364523 6, 4.298887452709543 6, 55.5703125 6" stroke="#9370DB" stroke-width="1.3" fill="none" stroke-dasharray="0 0" style=""/></g></g><g class="node default" id="classId-SpectralProfile-4" transform="translate(217.47265625, 50)"><g class="basic label-container"><path d="M-68.46875 -42 L68.46875 -42 L68.46875 42 L-68.46875 42" stroke="none" stroke-width="0" fill="#ECECFF" style=""/><path d="M-68.46875 -42 C-40.00779754744769 -42, -11.546845094895374 -42, 68.46875 -42 M-68.46875 -42 C-27.807193508773956 -42, 12.854362982452088 -42, 68.46875 -42 M68.46875 -42 C68.46875 -20.383786458233423, 68.46875 1.2324270835331532, 68.46875 42 M68.46875 -42 C68.46875 -21.861938756561646, 68.46875 -1.7238775131232913, 68.46875 42 M68.46875 42 C23.89194545313302 42, -20.684859093733962 42, -68.46875 42 M68.46875 42 C32.232992217227576 42, -4.002765565544848 42, -68.46875 42 M-68.46875 42 C-68.46875 17.209853031627972, -68.46875 -7.580293936744056, -68.46875 -42 M-68.46875 42 C-68.46875 18.38976369780816, -68.46875 -5.22047260438368, -68.46875 -42" stroke="#9370DB" stroke-width="1.3" fill="none" stroke-dasharray="0 0" style=""/></g><g class="annotation-group text" transform="translate(0, -18)"/><g class="label-group text" transform="translate(-56.46875, -18)"><g class="label" style="font-weight: bolder" transform="translate(0,-12)"><foreignObject width="112.9375" height="24"><div xmlns="http://www.w3.org/1999/xhtml" style="display: table-cell; white-space: nowrap; line-height: 1.5; max-width: 146px; text-align: center;"><span class="nodeLabel markdown-node-label" style=""><p>SpectralProfile</p></span></div></foreignObject></g></g><g class="members-group text" transform="translate(-56.46875, 30)"/><g class="methods-group text" transform="translate(-56.46875, 60)"/><g class="divider" style=""><path d="M-68.46875 6 C-23.350350955165695 6, 21.76804808966861 6, 68.46875 6 M-68.46875 6 C-40.19708809288962 6, -11.925426185779244 6, 68.46875 6" stroke="#9370DB" stroke-width="1.3" fill="none" stroke-dasharray="0 0" style=""/></g></g><g class="node default" id="classId-XASSpectrum-5" transform="translate(75.33203125, 366)"><g class="basic label-container"><path d="M-65.3515625 -42 L65.3515625 -42 L65.3515625 42 L-65.3515625 42" stroke="none" stroke-width="0" fill="#ECECFF" style=""/><path d="M-65.3515625 -42 C-14.11745704346582 -42, 37.11664841306836 -42, 65.3515625 -42 M-65.3515625 -42 C-33.40837421984901 -42, -1.4651859396980242 -42, 65.3515625 -42 M65.3515625 -42 C65.3515625 -21.207276348103115, 65.3515625 -0.41455269620622914, 65.3515625 42 M65.3515625 -42 C65.3515625 -10.995117095539339, 65.3515625 20.009765808921323, 65.3515625 42 M65.3515625 42 C37.21299544744986 42, 9.074428394899726 42, -65.3515625 42 M65.3515625 42 C22.98368952999411 42, -19.384183440011782 42, -65.3515625 42 M-65.3515625 42 C-65.3515625 15.774054057353585, -65.3515625 -10.45189188529283, -65.3515625 -42 M-65.3515625 42 C-65.3515625 18.881030831580055, -65.3515625 -4.237938336839889, -65.3515625 -42" stroke="#9370DB" stroke-width="1.3" fill="none" stroke-dasharray="0 0" style=""/></g><g class="annotation-group text" transform="translate(0, -18)"/><g class="label-group text" transform="translate(-53.3515625, -18)"><g class="label" style="font-weight: bolder" transform="translate(0,-12)"><foreignObject width="106.703125" height="24"><div xmlns="http://www.w3.org/1999/xhtml" style="display: table-cell; white-space: nowrap; line-height: 1.5; max-width: 144px; text-align: center;"><span class="nodeLabel markdown-node-label" style=""><p>XASSpectrum</p></span></div></foreignObject></g></g><g class="members-group text" transform="translate(-53.3515625, 30)"/><g class="methods-group text" transform="translate(-53.3515625, 60)"/><g class="divider" style=""><path d="M-65.3515625 6 C-33.07613764355391 6, -0.8007127871078268 6, 65.3515625 6 M-65.3515625 6 C-37.4524913699813 6, -9.553420239962612 6, 65.3515625 6" stroke="#9370DB" stroke-width="1.3" fill="none" stroke-dasharray="0 0" style=""/></g></g></g></g></g></svg>