<?xml version="1.0" encoding="UTF-8"?>
<svg id="my-svg" width="100%" xmlns="http://www.w3.org/2000/svg" xmlns:xlink="http://www.w3.org/1999/xlink" class="classDiagram" style="max-width: 349.101px; background-color: white;" viewBox="0 0 349.10137939453125 416" role="graphics-document document" aria-roledescription="class"><style>#my-svg{font-family:"trebuchet ms",verdana,arial,sans-serif;font-size:16px;fill:#333;}@keyframes edge-animation-frame{from{stroke-dashoffset:0;}}@keyframes dash{to{stroke-dashoffset:0;}}#my-svg .edge-animation-slow{stroke-dasharray:9,5!important;stroke-dashoffset:900;animation:dash 50s linear infinite;stroke-linecap:round;}#my-svg .edge-animation-fast{stroke-dasharray:9,5!important;stroke-dashoffset:900;animation:dash 20s linear infinite;stroke-linecap:round;}#my-svg .error-icon{fill:#552222;}#my-svg .error-text{fill:#552222;stroke:#552222;}#my-svg .edge-thickness-normal{stroke-width:1px;}#my-svg .edge-thickness-thick{stroke-width:3.5px;}#my-svg .edge-pattern-solid{stroke-dasharray:0;}#my-svg .edge-thickness-invisible{stroke-width:0;fill:none;}#my-svg .edge-pattern-dashed{stroke-dasharray:3;}#my-svg .edge-pattern-dotted{stroke-dasharray:2;}#my-svg .marker{fill:#333333;stroke:#333333;}#my-svg .marker.cross{stroke:#333333;}#my-svg svg{font-family:"trebuchet ms",verdana,arial,sans-serif;font-size:16px;}#my-svg p{margin:0;}#my-svg g.classGroup text{fill:#9370DB;stroke:none;font-family:"trebuchet ms",verdana,arial,sans-serif;font-size:10px;}#my-svg g.classGroup text .title{font-weight:bolder;}#my-svg .nodeLabel,#my-svg .edgeLabel{color:#131300;}#my-svg .edgeLabel .label rect{fill:#ECECFF;}#my-svg .label text{fill:#131300;}#my-svg .labelBkg{background:#ECECFF;}#my-svg .edgeLabel .label span{background:#ECECFF;}#my-svg .classTitle{font-weight:bolder;}#my-svg .node rect,#my-svg .node circle,#my-svg .node ellipse,#my-svg .node polygon,#my-svg .node path{fill:#ECECFF;stroke:#9370DB;stroke-width:1px;}#my-svg .divider{stroke:#9370DB;stroke-width:1;}#my-svg g.clickable{cursor:pointer;}#my-svg g.classGroup rect{fill:#ECECFF;stroke:#9370DB;}#my-svg g.classGroup line{stroke:#9370DB;stroke-width:1;}#my-svg .classLabel .box{stroke:none;stroke-width:0;fill:#ECECFF;opacity:0.5;}#my-svg .classLabel .label{fill:#9370DB;font-size:10px;}#my-svg .relation{stroke:#333333;stroke-width:1;fill:none;}#my-svg .dashed-line{stroke-dasharray:3;}#my-svg .dotted-line{stroke-dasharray:1 2;}#my-svg #compositionStart,#my-svg .composition{fill:#333333!important;stroke:#333333!important;stroke-width:1;}#my-svg #compositionEnd,#my-svg .composition{fill:#333333!important;stroke:#333333!important;stroke-width:1;}#my-svg #dependencyStart,#my-svg .dependency{fill:#333333!important;stroke:#333333!important;stroke-width:1;}#my-svg #dependencyStart,#my-svg .dependency{fill:#333333!important;stroke:#333333!important;stroke-width:1;}#my-svg #extensionStart,#my-svg .extension{fill:transparent!important;stroke:#333333!important;stroke-width:1;}#my-svg #extensionEnd,#my-svg .extension{fill:transparent!important;stroke:#333333!important;stroke-width:1;}#my-svg #aggregationStart,#my-svg .aggregation{fill:transparent!important;stroke:#333333!important;stroke-width:1;}#my-svg #aggregationEnd,#my-svg .aggregation{fill:transparent!important;stroke:#333333!important;stroke-width:1;}#my-svg #lollipopStart,#my-svg .lollipop{fill:#ECECFF!important;stroke:#333333!important;stroke-width:1;}#my-svg #lollipopEnd,#my-svg .lollipop{fill:#ECECFF!important;stroke:#333333!important;stroke-width:1;}#my-svg .edgeTerminals{font-size:11px;line-height:initial;}#my-svg .classTitleText{text-anchor:middle;font-size:18px;fill:#333;}#my-svg .label-icon{display:inline-block;height:1em;overflow:visible;vertical-align:-0.125em;}#my-svg .node .label-icon path{fill:currentColor;stroke:revert;stroke-width:revert;}#my-svg :root{--mermaid-font-family:"trebuchet ms",verdana,arial,sans-serif;}</style><g><defs><marker id="my-svg_class-aggregationStart" class="marker aggregation class" refX="18" refY="7" markerWidth="190" markerHeight="240" orient="auto"><path d="M 18,7 L9,13 L1,7 L9,1 Z"/></marker></defs><defs><marker id="my-svg_class-aggregationEnd" class="marker aggregation class" refX="1" refY="7" markerWidth="20" markerHeight="28" orient="auto"><path d="M 18,7 L9,13 L1,7 L9,1 Z"/></marker></defs><defs><marker id="my-svg_class-extensionStart" class="marker extension class" refX="18" refY="7" markerWidth="190" markerHeight="240" orient="auto"><path d="M 1,7 L18,13 V 1 Z"/></marker></defs><defs><marker id="my-svg_class-extensionEnd" class="marker extension class" refX="1" refY="7" markerWidth="20" markerHeight="28" orient="auto"><path d="M 1,1 V 13 L18,7 Z"/></marker></defs><defs><marker id="my-svg_class-compositionStart" class="marker composition class" refX="18" refY="7" markerWidth="190" markerHeight="240" orient="auto"><path d="M 18,7 L9,13 L1,7 L9,1 Z"/></marker></defs><defs><marker id="my-svg_class-compositionEnd" class="marker composition class" refX="1" refY="7" markerWidth="20" markerHeight="28" orient="auto"><path d="M 18,7 L9,13 L1,7 L9,1 Z"/></marker></defs><defs><marker id="my-svg_class-dependencyStart" class="marker dependency class" refX="6" refY="7" markerWidth="190" markerHeight="240" orient="auto"><path d="M 5,7 L9,13 L1,7 L9,1 Z"/></marker></defs><defs><marker id="my-svg_class-dependencyEnd" class="marker dependency class" refX="13" refY="7" markerWidth="20" markerHeight="28" orient="auto"><path d="M 18,7 L9,13 L14,7 L9,1 Z"/></marker></defs><defs><marker id="my-svg_class-lollipopStart" class="marker lollipop class" refX="13" refY="7" markerWidth="190" markerHeight="240" orient="auto"><circle stroke="black" fill="transparent" cx="7" cy="7" r="6"/></marker></defs><defs><marker id="my-svg_class-lollipopEnd" class="marker lollipop class" refX="1" refY="7" markerWidth="190" markerHeight="240" orient="auto"><circle stroke="black" fill="transparent" cx="7" cy="7" r="6"/></marker></defs><g class="root"><g class="clusters"/><g class="edgePaths"><path d="M152.479,101.602L145.663,106.168C138.848,110.734,125.217,119.867,118.401,130.6C111.586,141.333,111.586,153.667,111.586,159.833L111.586,166" id="id_SpectralProfile_AbsorptionSpectrum_1" class="edge-thickness-normal edge-pattern-solid relation" style=";;;" data-edge="true" data-et="edge" data-id="id_SpectralProfile_AbsorptionSpectrum_1" data-points="W3sieCI6MTY2LjgwOTY4MTU2NjQ1NTcsInkiOjkyfSx7IngiOjExMS41ODU5Mzc1LCJ5IjoxMjl9LHsieCI6MTExLjU4NTkzNzUsInkiOjE2Nn1d" marker-start="url(#my-svg_class-extensionStart)"/><path d="M58.934,262.395L54.965,266.495C50.995,270.596,43.056,278.798,42.071,289.066C41.086,299.333,47.055,311.667,50.04,317.833L53.024,324" id="id_AbsorptionSpectrum_XASSpectrum_2" class="edge-thickness-normal edge-pattern-solid relation" style=";;;" data-edge="true" data-et="edge" data-id="id_AbsorptionSpectrum_XASSpectrum_2" data-points="W3sieCI6NzAuOTMxNjY1MzQ4MTAxMjYsInkiOjI1MH0seyJ4IjozNS4xMTcxODc1LCJ5IjoyODd9LHsieCI6NTMuMDI0NDI2NDI0MDUwNjMsInkiOjMyNH1d" marker-start="url(#my-svg_class-extensionStart)"/><path d="M209.169,92L206.184,98.167C203.2,104.333,197.231,116.667,203.76,129.961C210.29,143.254,229.318,157.509,238.832,164.636L248.346,171.763" id="id_SpectralProfile_Energy2_3" class="edge-thickness-normal edge-pattern-solid relation" style=";;;" data-edge="true" data-et="edge" data-id="id_SpectralProfile_Energy2_3" data-points="W3sieCI6MjA5LjE2ODk1NzY3NDA1MDYzLCJ5Ijo5Mn0seyJ4IjoxOTEuMjYxNzE4NzUsInkiOjEyOX0seyJ4IjoyNTMuMTQ4NDM3NSwieSI6MTc1LjM2MDU5NTYyMTczNTc0fV0=" marker-end="url(#my-svg_class-dependencyEnd)"/><path d="M269.376,92L275.231,98.167C281.086,104.333,292.797,116.667,298.143,128.005C303.488,139.343,302.468,149.686,301.958,154.857L301.448,160.029" id="id_SpectralProfile_Energy2_4" class="edge-thickness-normal edge-pattern-solid relation" style=";;;" data-edge="true" data-et="edge" data-id="id_SpectralProfile_Energy2_4" data-points="W3sieCI6MjY5LjM3NTc0MTY5MzAzOCwieSI6OTJ9LHsieCI6MzA0LjUwNzgxMjUsInkiOjEyOX0seyJ4IjozMDAuODU5NzcwNTY5NjIwMjUsInkiOjE2Nn1d" marker-end="url(#my-svg_class-dependencyEnd)"/><path d="M93.679,324L96.663,317.833C99.648,311.667,105.617,299.333,108.601,288C111.586,276.667,111.586,266.333,111.586,261.167L111.586,256" id="id_XASSpectrum_AbsorptionSpectrum_5" class="edge-thickness-normal edge-pattern-solid relation" style=";;;" data-edge="true" data-et="edge" data-id="id_XASSpectrum_AbsorptionSpectrum_5" data-points="W3sieCI6OTMuNjc4Njk4NTc1OTQ5MzcsInkiOjMyNH0seyJ4IjoxMTEuNTg1OTM3NSwieSI6Mjg3fSx7IngiOjExMS41ODU5Mzc1LCJ5IjoyNTB9XQ==" marker-end="url(#my-svg_class-dependencyEnd)"/><path d="M138.703,336.226L156.711,328.022C174.719,319.817,210.734,303.409,219.055,289.542C227.375,275.676,208,264.352,198.313,258.69L188.625,253.028" id="id_XASSpectrum_AbsorptionSpectrum_6" class="edge-thickness-normal edge-pattern-solid relation" style=";;;" data-edge="true" data-et="edge" data-id="id_XASSpectrum_AbsorptionSpectrum_6" data-points="W3sieCI6MTM4LjcwMzEyNSwieSI6MzM2LjIyNTk1MTc5MDk0Mzl9LHsieCI6MjQ2Ljc1LCJ5IjoyODd9LHsieCI6MTgzLjQ0NTMxMjUsInkiOjI1MH1d" marker-end="url(#my-svg_class-dependencyEnd)"/></g><g class="edgeLabels"><g class="edgeLabel"><g class="label" data-id="id_SpectralProfile_AbsorptionSpectrum_1" transform="translate(0, 0)"><foreignObject width="0" height="0"><div xmlns="http://www.w3.org/1999/xhtml" class="labelBkg" style="display: table-cell; white-space: nowrap; line-height: 1.5; max-width: 200px; text-align: center;"><span class="edgeLabel"></span></div></foreignObject></g></g><g class="edgeLabel"><g class="label" data-id="id_AbsorptionSpectrum_XASSpectrum_2" transform="translate(0, 0)"><foreignObject width="0" height="0"><div xmlns="http://www.w3.org/1999/xhtml" class="labelBkg" style="display: table-cell; white-space: nowrap; line-height: 1.5; max-width: 200px; text-align: center;"><span class="edgeLabel"></span></div></foreignObject></g></g><g class="edgeLabel" transform="translate(205.7559, 139.85789)"><g class="label" data-id="id_SpectralProfile_Energy2_3" transform="translate(-30.6875, -12)"><foreignObject width="61.375" height="24"><div xmlns="http://www.w3.org/1999/xhtml" class="labelBkg" style="display: table-cell; white-space: nowrap; line-height: 1.5; max-width: 200px; text-align: center;"><span class="edgeLabel"><p>energies</p></span></div></foreignObject></g></g><g class="edgeLabel" transform="translate(299.74199, 123.98079)"><g class="label" data-id="id_SpectralProfile_Energy2_4" transform="translate(-41.359375, -12)"><foreignObject width="82.71875" height="24"><div xmlns="http://www.w3.org/1999/xhtml" class="labelBkg" style="display: table-cell; white-space: nowrap; line-height: 1.5; max-width: 200px; text-align: center;"><span class="edgeLabel"><p>frequencies</p></span></div></foreignObject></g></g><g class="edgeLabel" transform="translate(111.5859375, 287)"><g class="label" data-id="id_XASSpectrum_AbsorptionSpectrum_5" transform="translate(-56.46875, -12)"><foreignObject width="112.9375" height="24"><div xmlns="http://www.w3.org/1999/xhtml" class="labelBkg" style="display: table-cell; white-space: nowrap; line-height: 1.5; max-width: 200px; text-align: center;"><span class="edgeLabel"><p>exafs_spectrum</p></span></div></foreignObject></g></g><g class="edgeLabel" transform="translate(226.08941, 296.41293)"><g class="label" data-id="id_XASSpectrum_AbsorptionSpectrum_6" transform="translate(-58.6953125, -12)"><foreignObject width="117.390625" height="24"><div xmlns="http://www.w3.org/1999/xhtml" class="labelBkg" style="display: table-cell; white-space: nowrap; line-height: 1.5; max-width: 200px; text-align: center;"><span class="edgeLabel"><p>xanes_spectrum</p></span></div></foreignObject></g></g></g><g class="nodes"><g class="node default" id="classId-AbsorptionSpectrum-0" transform="translate(111.5859375, 208)"><g class="basic label-container"><path d="M-91.5625 -42 L91.5625 -42 L91.5625 42 L-91.5625 42" stroke="none" stroke-width="0" fill="#ECECFF" style=""/><path d="M-91.5625 -42 C-18.833334127141512 -42, 53.895831745716976 -42, 91.5625 -42 M-91.5625 -42 C-26.842640513163886 -42, 37.87721897367223 -42, 91.5625 -42 M91.5625 -42 C91.5625 -11.968280933392705, 91.5625 18.06343813321459, 91.5625 42 M91.5625 -42 C91.5625 -23.305485713760905, 91.5625 -4.610971427521811, 91.5625 42 M91.5625 42 C21.66834512538378 42, -48.22580974923244 42, -91.5625 42 M91.5625 42 C46.7758737555006 42, 1.9892475110011958 42, -91.5625 42 M-91.5625 42 C-91.5625 22.3252231491234, -91.5625 2.6504462982467984, -91.5625 -42 M-91.5625 42 C-91.5625 21.452585116461393, -91.5625 0.9051702329227851, -91.5625 -42" stroke="#9370DB" stroke-width="1.3" fill="none" stroke-dasharray="0 0" style=""/></g><g class="annotation-group text" transform="translate(0, -18)"/><g class="label-group text" transform="translate(-79.5625, -18)"><g class="label" style="font-weight: bolder" transform="translate(0,-12)"><foreignObject width="159.125" height="24"><div xmlns="http://www.w3.org/1999/xhtml" style="display: table-cell; white-space: nowrap; line-height: 1.5; max-width: 184px; text-align: center;"><span class="nodeLabel markdown-node-label" style=""><p>AbsorptionSpectrum</p></span></div></foreignObject></g></g><g class="members-group text" transform="translate(-79.5625, 30)"/><g class="methods-group text" transform="translate(-79.5625, 60)"/><g class="divider" style=""><path d="M-91.5625 6 C-22.425123596234556 6, 46.71225280753089 6, 91.5625 6 M-91.5625 6 C-41.07190805342916 6, 9.418683893141676 6, 91.5625 6" stroke="#9370DB" stroke-width="1.3" fill="none" stroke-dasharray="0 0" style=""/></g></g><g class="node default" id="classId-Energy2-1" transform="translate(296.71875, 208)"><g class="basic label-container"><path d="M-43.5703125 -42 L43.5703125 -42 L43.5703125 42 L-43.5703125 42" stroke="none" stroke-width="0" fill="#ECECFF" style=""/><path d="M-43.5703125 -42 C-21.336164401438438 -42, 0.8979836971231236 -42, 43.5703125 -42 M-43.5703125 -42 C-15.092872761978434 -42, 13.384566976043132 -42, 43.5703125 -42 M43.5703125 -42 C43.5703125 -11.058151636194822, 43.5703125 19.883696727610356, 43.5703125 42 M43.5703125 -42 C43.5703125 -12.522679524697882, 43.5703125 16.954640950604237, 43.5703125 42 M43.5703125 42 C18.05036189959215 42, -7.469588700815699 42, -43.5703125 42 M43.5703125 42 C23.873273573480216 42, 4.176234646960431 42, -43.5703125 42 M-43.5703125 42 C-43.5703125 22.914776839894913, -43.5703125 3.829553679789825, -43.5703125 -42 M-43.5703125 42 C-43.5703125 17.863267189863542, -43.5703125 -6.2734656202729155, -43.5703125 -42" stroke="#9370DB" stroke-width="1.3" fill="none" stroke-dasharray="0 0" style=""/></g><g class="annotation-group text" transform="translate(0, -18)"/><g class="label-group text" transform="translate(-31.5703125, -18)"><g class="label" style="font-weight: bolder" transform="translate(0,-12)"><foreignObject width="63.140625" height="24"><div xmlns="http://www.w3.org/1999/xhtml" style="display: table-cell; white-space: nowrap; line-height: 1.5; max-width: 104px; text-align: center;"><span class="nodeLabel markdown-node-label" style=""><p>Energy2</p></span></div></foreignObject></g></g><g class="members-group text" transform="translate(-31.5703125, 30)"/><g class="methods-group text" transform="translate(-31.5703125, 60)"/><g class="divider" style=""><path d="M-43.5703125 6 C-11.622353478520505 6, 20.32560554295899 6, 43.5703125 6 M-43.5703125 6 C-10.828532647488387 6, 21.913247205023225 6, 43.5703125 6" stroke="#9370DB" stroke-width="1.3" fill="none" stroke-dasharray="0 0" style=""/></g></g><g class="node default" id="classId-SpectralProfile-2" transform="translate(229.49609375, 50)"><g class="basic label-container"><path d="M-68.46875 -42 L68.46875 -42 L68.46875 42 L-68.46875 42" stroke="none" stroke-width="0" fill="#ECECFF" style=""/><path d="M-68.46875 -42 C-40.06147906373604 -42, -11.654208127472074 -42, 68.46875 -42 M-68.46875 -42 C-16.3510526637737 -42, 35.7666446724526 -42, 68.46875 -42 M68.46875 -42 C68.46875 -24.698161855928443, 68.46875 -7.396323711856887, 68.46875 42 M68.46875 -42 C68.46875 -18.093773108668223, 68.46875 5.812453782663553, 68.46875 42 M68.46875 42 C36.31464043536111 42, 4.160530870722226 42, -68.46875 42 M68.46875 42 C25.070591081808956 42, -18.327567836382087 42, -68.46875 42 M-68.46875 42 C-68.46875 24.453270302035595, -68.46875 6.906540604071189, -68.46875 -42 M-68.46875 42 C-68.46875 21.179028171565054, -68.46875 0.3580563431301087, -68.46875 -42" stroke="#9370DB" stroke-width="1.3" fill="none" stroke-dasharray="0 0" style=""/></g><g class="annotation-group text" transform="translate(0, -18)"/><g class="label-group text" transform="translate(-56.46875, -18)"><g class="label" style="font-weight: bolder" transform="translate(0,-12)"><foreignObject width="112.9375" height="24"><div xmlns="http://www.w3.org/1999/xhtml" style="display: table-cell; white-space: nowrap; line-height: 1.5; max-width: 146px; text-align: center;"><span class="nodeLabel markdown-node-label" style=""><p>SpectralProfile</p></span></div></foreignObject></g></g><g class="members-group text" transform="translate(-56.46875, 30)"/><g class="methods-group text" transform="translate(-56.46875, 60)"/><g class="divider" style=""><path d="M-68.46875 6 C-15.55500557931515 6, 37.3587388413697 6, 68.46875 6 M-68.46875 6 C-32.238762472930055 6, 3.991225054139889 6, 68.46875 6" stroke="#9370DB" stroke-width="1.3" fill="none" stroke-dasharray="0 0" style=""/></g></g><g class="node default" id="classId-XASSpectrum-3" transform="translate(73.3515625, 366)"><g class="basic label-container"><path d="M-65.3515625 -42 L65.3515625 -42 L65.3515625 42 L-65.3515625 42" stroke="none" stroke-width="0" fill="#ECECFF" style=""/><path d="M-65.3515625 -42 C-24.41887804746824 -42, 16.51380640506352 -42, 65.3515625 -42 M-65.3515625 -42 C-19.089019306846296 -42, 27.173523886307407 -42, 65.3515625 -42 M65.3515625 -42 C65.3515625 -18.292172474986064, 65.3515625 5.415655050027873, 65.3515625 42 M65.3515625 -42 C65.3515625 -8.923803014965266, 65.3515625 24.15239397006947, 65.3515625 42 M65.3515625 42 C38.94612410485864 42, 12.540685709717273 42, -65.3515625 42 M65.3515625 42 C35.23178264473461 42, 5.112002789469209 42, -65.3515625 42 M-65.3515625 42 C-65.3515625 22.123517964522705, -65.3515625 2.24703592904541, -65.3515625 -42 M-65.3515625 42 C-65.3515625 9.909339874019025, -65.3515625 -22.18132025196195, -65.3515625 -42" stroke="#9370DB" stroke-width="1.3" fill="none" stroke-dasharray="0 0" style=""/></g><g class="annotation-group text" transform="translate(0, -18)"/><g class="label-group text" transform="translate(-53.3515625, -18)"><g class="label" style="font-weight: bolder" transform="translate(0,-12)"><foreignObject width="106.703125" height="24"><div xmlns="http://www.w3.org/1999/xhtml" style="display: table-cell; white-space: nowrap; line-height: 1.5; max-width: 144px; text-align: center;"><span class="nodeLabel markdown-node-label" style=""><p>XASSpectrum</p></span></div></foreignObject></g></g><g class="members-group text" transform="translate(-53.3515625, 30)"/><g class="methods-group text" transform="translate(-53.3515625, 60)"/><g class="divider" style=""><path d="M-65.3515625 6 C-38.23714489502956 6, -11.122727290059117 6, 65.3515625 6 M-65.3515625 6 C-22.838475275812556 6, 19.67461194837489 6, 65.3515625 6" stroke="#9370DB" stroke-width="1.3" fill="none" stroke-dasharray="0 0" style=""/></g></g></g></g></g></svg>