<?xml version="1.0" encoding="UTF-8"?>
<svg id="my-svg" width="100%" xmlns="http://www.w3.org/2000/svg" xmlns:xlink="http://www.w3.org/1999/xlink" class="classDiagram" style="max-width: 508.301px; background-color: white;" viewBox="0 0 508.30078125 416" role="graphics-document document" aria-roledescription="class"><style>#my-svg{font-family:"trebuchet ms",verdana,arial,sans-serif;font-size:16px;fill:#333;}@keyframes edge-animation-frame{from{stroke-dashoffset:0;}}@keyframes dash{to{stroke-dashoffset:0;}}#my-svg .edge-animation-slow{stroke-dasharray:9,5!important;stroke-dashoffset:900;animation:dash 50s linear infinite;stroke-linecap:round;}#my-svg .edge-animation-fast{stroke-dasharray:9,5!important;stroke-dashoffset:900;animation:dash 20s linear infinite;stroke-linecap:round;}#my-svg .error-icon{fill:#552222;}#my-svg .error-text{fill:#552222;stroke:#552222;}#my-svg .edge-thickness-normal{stroke-width:1px;}#my-svg .edge-thickness-thick{stroke-width:3.5px;}#my-svg .edge-pattern-solid{stroke-dasharray:0;}#my-svg .edge-thickness-invisible{stroke-width:0;fill:none;}#my-svg .edge-pattern-dashed{stroke-dasharray:3;}#my-svg .edge-pattern-dotted{stroke-dasharray:2;}#my-svg .marker{fill:#333333;stroke:#333333;}#my-svg .marker.cross{stroke:#333333;}#my-svg svg{font-family:"trebuchet ms",verdana,arial,sans-serif;font-size:16px;}#my-svg p{margin:0;}#my-svg g.classGroup text{fill:#9370DB;stroke:none;font-family:"trebuchet ms",verdana,arial,sans-serif;font-size:10px;}#my-svg g.classGroup text .title{font-weight:bolder;}#my-svg .nodeLabel,#my-svg .edgeLabel{color:#131300;}#my-svg .edgeLabel .label rect{fill:#ECECFF;}#my-svg .label text{fill:#131300;}#my-svg .labelBkg{background:#ECECFF;}#my-svg .edgeLabel .label span{background:#ECECFF;}#my-svg .classTitle{font-weight:bolder;}#my-svg .node rect,#my-svg .node circle,#my-svg .node ellipse,#my-svg .node polygon,#my-svg .node path{fill:#ECECFF;stroke:#9370DB;stroke-width:1px;}#my-svg .divider{stroke:#9370DB;stroke-width:1;}#my-svg g.clickable{cursor:pointer;}#my-svg g.classGroup rect{fill:#ECECFF;stroke:#9370DB;}#my-svg g.classGroup line{stroke:#9370DB;stroke-width:1;}#my-svg .classLabel .box{stroke:none;stroke-width:0;fill:#ECECFF;opacity:0.5;}#my-svg .classLabel .label{fill:#9370DB;font-size:10px;}#my-svg .relation{stroke:#333333;stroke-width:1;fill:none;}#my-svg .dashed-line{stroke-dasharray:3;}#my-svg .dotted-line{stroke-dasharray:1 2;}#my-svg #compositionStart,#my-svg .composition{fill:#333333!important;stroke:#333333!important;stroke-width:1;}#my-svg #compositionEnd,#my-svg .composition{fill:#333333!important;stroke:#333333!important;stroke-width:1;}#my-svg #dependencyStart,#my-svg .dependency{fill:#333333!important;stroke:#333333!important;stroke-width:1;}#my-svg #dependencyStart,#my-svg .dependency{fill:#333333!important;stroke:#333333!important;stroke-width:1;}#my-svg #extensionStart,#my-svg .extension{fill:transparent!important;stroke:#333333!important;stroke-width:1;}#my-svg #extensionEnd,#my-svg .extension{fill:transparent!important;stroke:#333333!important;stroke-width:1;}#my-svg #aggregationStart,#my-svg .aggregation{fill:transparent!important;stroke:#333333!important;stroke-width:1;}#my-svg #aggregationEnd,#my-svg .aggregation{fill:transparent!important;stroke:#333333!important;stroke-width:1;}#my-svg #lollipopStart,#my-svg .lollipop{fill:#ECECFF!important;stroke:#333333!important;stroke-width:1;}#my-svg #lollipopEnd,#my-svg .lollipop{fill:#ECECFF!important;stroke:#333333!important;stroke-width:1;}#my-svg .edgeTerminals{font-size:11px;line-height:initial;}#my-svg .classTitleText{text-anchor:middle;font-size:18px;fill:#333;}#my-svg .label-icon{display:inline-block;height:1em;overflow:visible;vertical-align:-0.125em;}#my-svg .node .label-icon path{fill:currentColor;stroke:revert;stroke-width:revert;}#my-svg :root{--mermaid-font-family:"trebuchet ms",verdana,arial,sans-serif;}</style><g><defs><marker id="my-svg_class-aggregationStart" class="marker aggregation class" refX="18" refY="7" markerWidth="190" markerHeight="240" orient="auto"><path d="M 18,7 L9,13 L1,7 L9,1 Z"/></marker></defs><defs><marker id="my-svg_class-aggregationEnd" class="marker aggregation class" refX="1" refY="7" markerWidth="20" markerHeight="28" orient="auto"><path d="M 18,7 L9,13 L1,7 L9,1 Z"/></marker></defs><defs><marker id="my-svg_class-extensionStart" class="marker extension class" refX="18" refY="7" markerWidth="190" markerHeight="240" orient="auto"><path d="M 1,7 L18,13 V 1 Z"/></marker></defs><defs><marker id="my-svg_class-extensionEnd" class="marker extension class" refX="1" refY="7" markerWidth="20" markerHeight="28" orient="auto"><path d="M 1,1 V 13 L18,7 Z"/></marker></defs><defs><marker id="my-svg_class-compositionStart" class="marker composition class" refX="18" refY="7" markerWidth="190" markerHeight="240" orient="auto"><path d="M 18,7 L9,13 L1,7 L9,1 Z"/></marker></defs><defs><marker id="my-svg_class-compositionEnd" class="marker composition class" refX="1" refY="7" markerWidth="20" markerHeight="28" orient="auto"><path d="M 18,7 L9,13 L1,7 L9,1 Z"/></marker></defs><defs><marker id="my-svg_class-dependencyStart" class="marker dependency class" refX="6" refY="7" markerWidth="190" markerHeight="240" orient="auto"><path d="M 5,7 L9,13 L1,7 L9,1 Z"/></marker></defs><defs><marker id="my-svg_class-dependencyEnd" class="marker dependency class" refX="13" refY="7" markerWidth="20" markerHeight="28" orient="auto"><path d="M 18,7 L9,13 L14,7 L9,1 Z"/></marker></defs><defs><marker id="my-svg_class-lollipopStart" class="marker lollipop class" refX="13" refY="7" markerWidth="190" markerHeight="240" orient="auto"><circle stroke="black" fill="transparent" cx="7" cy="7" r="6"/></marker></defs><defs><marker id="my-svg_class-lollipopEnd" class="marker lollipop class" refX="1" refY="7" markerWidth="190" markerHeight="240" orient="auto"><circle stroke="black" fill="transparent" cx="7" cy="7" r="6"/></marker></defs><g class="root"><g class="clusters"/><g class="edgePaths"><path d="M140.455,101.602L133.64,106.168C126.824,110.734,113.193,119.867,106.378,130.6C99.563,141.333,99.563,153.667,99.563,159.833L99.563,166" id="id_SpectralProfile_AbsorptionSpectrum_1" class="edge-thickness-normal edge-pattern-solid relation" style=";;;" data-edge="true" data-et="edge" data-id="id_SpectralProfile_AbsorptionSpectrum_1" data-points="W3sieCI6MTU0Ljc4NjI0NDA2NjQ1NTcsInkiOjkyfSx7IngiOjk5LjU2MjUsInkiOjEyOX0seyJ4Ijo5OS41NjI1LCJ5IjoxNjZ9XQ==" marker-start="url(#my-svg_class-extensionStart)"/><path d="M55.654,263.531L52.562,267.443C49.469,271.354,43.283,279.177,43.175,289.255C43.067,299.333,49.036,311.667,52.02,317.833L55.005,324" id="id_AbsorptionSpectrum_XASSpectrum_2" class="edge-thickness-normal edge-pattern-solid relation" style=";;;" data-edge="true" data-et="edge" data-id="id_AbsorptionSpectrum_XASSpectrum_2" data-points="W3sieCI6NjYuMzUzMzQyNTYzMjkxMTQsInkiOjI1MH0seyJ4IjozNy4wOTc2NTYyNSwieSI6Mjg3fSx7IngiOjU1LjAwNDg5NTE3NDA1MDYzLCJ5IjozMjR9XQ==" marker-start="url(#my-svg_class-extensionStart)"/><path d="M444.73,92L444.73,98.167C444.73,104.333,444.73,116.667,444.73,128C444.73,139.333,444.73,149.667,444.73,154.833L444.73,160" id="id_Permittivity_Frequency_3" class="edge-thickness-normal edge-pattern-solid relation" style=";;;" data-edge="true" data-et="edge" data-id="id_Permittivity_Frequency_3" data-points="W3sieCI6NDQ0LjczMDQ2ODc1LCJ5Ijo5Mn0seyJ4Ijo0NDQuNzMwNDY4NzUsInkiOjEyOX0seyJ4Ijo0NDQuNzMwNDY4NzUsInkiOjE2Nn1d" marker-end="url(#my-svg_class-dependencyEnd)"/><path d="M204.591,92L202.699,98.167C200.808,104.333,197.025,116.667,202.357,129.073C207.69,141.48,222.137,153.96,229.361,160.2L236.584,166.44" id="id_SpectralProfile_Energy2_4" class="edge-thickness-normal edge-pattern-solid relation" style=";;;" data-edge="true" data-et="edge" data-id="id_SpectralProfile_Energy2_4" data-points="W3sieCI6MjA0LjU5MDYzNDg4OTI0MDUsInkiOjkyfSx7IngiOjE5My4yNDIxODc1LCJ5IjoxMjl9LHsieCI6MjQxLjEyNSwieSI6MTcwLjM2MjYzNDU0NjM4NjQ2fV0=" marker-end="url(#my-svg_class-dependencyEnd)"/><path d="M264.797,92L271.746,98.167C278.694,104.333,292.591,116.667,298.105,128.036C303.618,139.405,300.747,149.811,299.312,155.013L297.877,160.216" id="id_SpectralProfile_Energy2_5" class="edge-thickness-normal edge-pattern-solid relation" style=";;;" data-edge="true" data-et="edge" data-id="id_SpectralProfile_Energy2_5" data-points="W3sieCI6MjY0Ljc5NzQxODkwODIyNzgsInkiOjkyfSx7IngiOjMwNi40ODgyODEyNSwieSI6MTI5fSx7IngiOjI5Ni4yODE0NDc3ODQ4MTAxLCJ5IjoxNjZ9XQ==" marker-end="url(#my-svg_class-dependencyEnd)"/><path d="M95.659,324L98.644,317.833C101.628,311.667,107.597,299.333,109.663,287.985C111.729,276.636,109.892,266.272,108.973,261.09L108.055,255.908" id="id_XASSpectrum_AbsorptionSpectrum_6" class="edge-thickness-normal edge-pattern-solid relation" style=";;;" data-edge="true" data-et="edge" data-id="id_XASSpectrum_AbsorptionSpectrum_6" data-points="W3sieCI6OTUuNjU5MTY3MzI1OTQ5MzcsInkiOjMyNH0seyJ4IjoxMTMuNTY2NDA2MjUsInkiOjI4N30seyJ4IjoxMDcuMDA3NjE0NzE1MTg5ODcsInkiOjI1MH1d" marker-end="url(#my-svg_class-dependencyEnd)"/><path d="M140.684,336.226L158.691,328.022C176.699,319.817,212.715,303.409,219.962,289.506C227.21,275.603,205.69,264.205,194.929,258.507L184.169,252.808" id="id_XASSpectrum_AbsorptionSpectrum_7" class="edge-thickness-normal edge-pattern-solid relation" style=";;;" data-edge="true" data-et="edge" data-id="id_XASSpectrum_AbsorptionSpectrum_7" data-points="W3sieCI6MTQwLjY4MzU5Mzc1LCJ5IjozMzYuMjI1OTUxNzkwOTQzOX0seyJ4IjoyNDguNzMwNDY4NzUsInkiOjI4N30seyJ4IjoxNzguODY2OTg5NzE1MTg5ODcsInkiOjI1MH1d" marker-end="url(#my-svg_class-dependencyEnd)"/></g><g class="edgeLabels"><g class="edgeLabel"><g class="label" data-id="id_SpectralProfile_AbsorptionSpectrum_1" transform="translate(0, 0)"><foreignObject width="0" height="0"><div xmlns="http://www.w3.org/1999/xhtml" class="labelBkg" style="display: table-cell; white-space: nowrap; line-height: 1.5; max-width: 200px; text-align: center;"><span class="edgeLabel"></span></div></foreignObject></g></g><g class="edgeLabel"><g class="label" data-id="id_AbsorptionSpectrum_XASSpectrum_2" transform="translate(0, 0)"><foreignObject width="0" height="0"><div xmlns="http://www.w3.org/1999/xhtml" class="labelBkg" style="display: table-cell; white-space: nowrap; line-height: 1.5; max-width: 200px; text-align: center;"><span class="edgeLabel"></span></div></foreignObject></g></g><g class="edgeLabel" transform="translate(444.73046875, 129)"><g class="label" data-id="id_Permittivity_Frequency_3" transform="translate(-41.359375, -12)"><foreignObject width="82.71875" height="24"><div xmlns="http://www.w3.org/1999/xhtml" class="labelBkg" style="display: table-cell; white-space: nowrap; line-height: 1.5; max-width: 200px; text-align: center;"><span class="edgeLabel"><p>frequencies</p></span></div></foreignObject></g></g><g class="edgeLabel" transform="translate(193.2421875, 129)"><g class="label" data-id="id_SpectralProfile_Energy2_4" transform="translate(-30.6875, -12)"><foreignObject width="61.375" height="24"><div xmlns="http://www.w3.org/1999/xhtml" class="labelBkg" style="display: table-cell; white-space: nowrap; line-height: 1.5; max-width: 200px; text-align: center;"><span class="edgeLabel"><p>energies</p></span></div></foreignObject></g></g><g class="edgeLabel" transform="translate(299.99639, 123.23855)"><g class="label" data-id="id_SpectralProfile_Energy2_5" transform="translate(-41.359375, -12)"><foreignObject width="82.71875" height="24"><div xmlns="http://www.w3.org/1999/xhtml" class="labelBkg" style="display: table-cell; white-space: nowrap; line-height: 1.5; max-width: 200px; text-align: center;"><span class="edgeLabel"><p>frequencies</p></span></div></foreignObject></g></g><g class="edgeLabel" transform="translate(112.79777, 288.58816)"><g class="label" data-id="id_XASSpectrum_AbsorptionSpectrum_6" transform="translate(-56.46875, -12)"><foreignObject width="112.9375" height="24"><div xmlns="http://www.w3.org/1999/xhtml" class="labelBkg" style="display: table-cell; white-space: nowrap; line-height: 1.5; max-width: 200px; text-align: center;"><span class="edgeLabel"><p>exafs_spectrum</p></span></div></foreignObject></g></g><g class="edgeLabel" transform="translate(230.67788, 295.22473)"><g class="label" data-id="id_XASSpectrum_AbsorptionSpectrum_7" transform="translate(-58.6953125, -12)"><foreignObject width="117.390625" height="24"><div xmlns="http://www.w3.org/1999/xhtml" class="labelBkg" style="display: table-cell; white-space: nowrap; line-height: 1.5; max-width: 200px; text-align: center;"><span class="edgeLabel"><p>xanes_spectrum</p></span></div></foreignObject></g></g></g><g class="nodes"><g class="node default" id="classId-AbsorptionSpectrum-0" transform="translate(99.5625, 208)"><g class="basic label-container"><path d="M-91.5625 -42 L91.5625 -42 L91.5625 42 L-91.5625 42" stroke="none" stroke-width="0" fill="#ECECFF" style=""/><path d="M-91.5625 -42 C-36.82646673530439 -42, 17.909566529391213 -42, 91.5625 -42 M-91.5625 -42 C-25.00752284302142 -42, 41.54745431395716 -42, 91.5625 -42 M91.5625 -42 C91.5625 -18.039509884295533, 91.5625 5.920980231408933, 91.5625 42 M91.5625 -42 C91.5625 -22.004101696459916, 91.5625 -2.0082033929198317, 91.5625 42 M91.5625 42 C27.43252412778277 42, -36.69745174443446 42, -91.5625 42 M91.5625 42 C50.51776208973964 42, 9.473024179479282 42, -91.5625 42 M-91.5625 42 C-91.5625 14.114015280363315, -91.5625 -13.77196943927337, -91.5625 -42 M-91.5625 42 C-91.5625 20.98567926106951, -91.5625 -0.02864147786097959, -91.5625 -42" stroke="#9370DB" stroke-width="1.3" fill="none" stroke-dasharray="0 0" style=""/></g><g class="annotation-group text" transform="translate(0, -18)"/><g class="label-group text" transform="translate(-79.5625, -18)"><g class="label" style="font-weight: bolder" transform="translate(0,-12)"><foreignObject width="159.125" height="24"><div xmlns="http://www.w3.org/1999/xhtml" style="display: table-cell; white-space: nowrap; line-height: 1.5; max-width: 184px; text-align: center;"><span class="nodeLabel markdown-node-label" style=""><p>AbsorptionSpectrum</p></span></div></foreignObject></g></g><g class="members-group text" transform="translate(-79.5625, 30)"/><g class="methods-group text" transform="translate(-79.5625, 60)"/><g class="divider" style=""><path d="M-91.5625 6 C-34.42874765286891 6, 22.705004694262186 6, 91.5625 6 M-91.5625 6 C-22.36296544409204 6, 46.83656911181592 6, 91.5625 6" stroke="#9370DB" stroke-width="1.3" fill="none" stroke-dasharray="0 0" style=""/></g></g><g class="node default" id="classId-Energy2-1" transform="translate(284.6953125, 208)"><g class="basic label-container"><path d="M-43.5703125 -42 L43.5703125 -42 L43.5703125 42 L-43.5703125 42" stroke="none" stroke-width="0" fill="#ECECFF" style=""/><path d="M-43.5703125 -42 C-24.76637931088121 -42, -5.962446121762419 -42, 43.5703125 -42 M-43.5703125 -42 C-23.510586701442534 -42, -3.4508609028850685 -42, 43.5703125 -42 M43.5703125 -42 C43.5703125 -15.018109936696934, 43.5703125 11.963780126606132, 43.5703125 42 M43.5703125 -42 C43.5703125 -23.694747309564665, 43.5703125 -5.38949461912933, 43.5703125 42 M43.5703125 42 C16.238682746983308 42, -11.092947006033384 42, -43.5703125 42 M43.5703125 42 C22.462951489392328 42, 1.3555904787846558 42, -43.5703125 42 M-43.5703125 42 C-43.5703125 21.433779631037588, -43.5703125 0.8675592620751758, -43.5703125 -42 M-43.5703125 42 C-43.5703125 9.850401413044303, -43.5703125 -22.299197173911395, -43.5703125 -42" stroke="#9370DB" stroke-width="1.3" fill="none" stroke-dasharray="0 0" style=""/></g><g class="annotation-group text" transform="translate(0, -18)"/><g class="label-group text" transform="translate(-31.5703125, -18)"><g class="label" style="font-weight: bolder" transform="translate(0,-12)"><foreignObject width="63.140625" height="24"><div xmlns="http://www.w3.org/1999/xhtml" style="display: table-cell; white-space: nowrap; line-height: 1.5; max-width: 104px; text-align: center;"><span class="nodeLabel markdown-node-label" style=""><p>Energy2</p></span></div></foreignObject></g></g><g class="members-group text" transform="translate(-31.5703125, 30)"/><g class="methods-group text" transform="translate(-31.5703125, 60)"/><g class="divider" style=""><path d="M-43.5703125 6 C-9.422522155105966 6, 24.725268189788068 6, 43.5703125 6 M-43.5703125 6 C-17.254522477911358 6, 9.061267544177284 6, 43.5703125 6" stroke="#9370DB" stroke-width="1.3" fill="none" stroke-dasharray="0 0" style=""/></g></g><g class="node default" id="classId-Frequency-2" transform="translate(444.73046875, 208)"><g class="basic label-container"><path d="M-52.4609375 -42 L52.4609375 -42 L52.4609375 42 L-52.4609375 42" stroke="none" stroke-width="0" fill="#ECECFF" style=""/><path d="M-52.4609375 -42 C-23.067514174662886 -42, 6.325909150674228 -42, 52.4609375 -42 M-52.4609375 -42 C-28.07874483043322 -42, -3.696552160866439 -42, 52.4609375 -42 M52.4609375 -42 C52.4609375 -11.60955549349227, 52.4609375 18.78088901301546, 52.4609375 42 M52.4609375 -42 C52.4609375 -20.656513920798343, 52.4609375 0.6869721584033144, 52.4609375 42 M52.4609375 42 C19.594687291447734 42, -13.271562917104532 42, -52.4609375 42 M52.4609375 42 C22.11439178514261 42, -8.232153929714777 42, -52.4609375 42 M-52.4609375 42 C-52.4609375 12.954197566502724, -52.4609375 -16.09160486699455, -52.4609375 -42 M-52.4609375 42 C-52.4609375 18.426507724001887, -52.4609375 -5.146984551996226, -52.4609375 -42" stroke="#9370DB" stroke-width="1.3" fill="none" stroke-dasharray="0 0" style=""/></g><g class="annotation-group text" transform="translate(0, -18)"/><g class="label-group text" transform="translate(-40.4609375, -18)"><g class="label" style="font-weight: bolder" transform="translate(0,-12)"><foreignObject width="80.921875" height="24"><div xmlns="http://www.w3.org/1999/xhtml" style="display: table-cell; white-space: nowrap; line-height: 1.5; max-width: 118px; text-align: center;"><span class="nodeLabel markdown-node-label" style=""><p>Frequency</p></span></div></foreignObject></g></g><g class="members-group text" transform="translate(-40.4609375, 30)"/><g class="methods-group text" transform="translate(-40.4609375, 60)"/><g class="divider" style=""><path d="M-52.4609375 6 C-31.379475813124674 6, -10.298014126249349 6, 52.4609375 6 M-52.4609375 6 C-18.815629559692837 6, 14.829678380614325 6, 52.4609375 6" stroke="#9370DB" stroke-width="1.3" fill="none" stroke-dasharray="0 0" style=""/></g></g><g class="node default" id="classId-Permittivity-3" transform="translate(444.73046875, 50)"><g class="basic label-container"><path d="M-55.5703125 -42 L55.5703125 -42 L55.5703125 42 L-55.5703125 42" stroke="none" stroke-width="0" fill="#ECECFF" style=""/><path d="M-55.5703125 -42 C-25.173516285428274 -42, 5.223279929143452 -42, 55.5703125 -42 M-55.5703125 -42 C-31.7645003766969 -42, -7.958688253393802 -42, 55.5703125 -42 M55.5703125 -42 C55.5703125 -11.028882143542845, 55.5703125 19.94223571291431, 55.5703125 42 M55.5703125 -42 C55.5703125 -15.190285808530597, 55.5703125 11.619428382938807, 55.5703125 42 M55.5703125 42 C20.847292332257055 42, -13.87572783548589 42, -55.5703125 42 M55.5703125 42 C12.648063678414971 42, -30.274185143170058 42, -55.5703125 42 M-55.5703125 42 C-55.5703125 19.395121245475266, -55.5703125 -3.209757509049467, -55.5703125 -42 M-55.5703125 42 C-55.5703125 11.704022988217154, -55.5703125 -18.59195402356569, -55.5703125 -42" stroke="#9370DB" stroke-width="1.3" fill="none" stroke-dasharray="0 0" style=""/></g><g class="annotation-group text" transform="translate(0, -18)"/><g class="label-group text" transform="translate(-43.5703125, -18)"><g class="label" style="font-weight: bolder" transform="translate(0,-12)"><foreignObject width="87.140625" height="24"><div xmlns="http://www.w3.org/1999/xhtml" style="display: table-cell; white-space: nowrap; line-height: 1.5; max-width: 126px; text-align: center;"><span class="nodeLabel markdown-node-label" style=""><p>Permittivity</p></span></div></foreignObject></g></g><g class="members-group text" transform="translate(-43.5703125, 30)"/><g class="methods-group text" transform="translate(-43.5703125, 60)"/><g class="divider" style=""><path d="M-55.5703125 6 C-28.67193871928449 6, -1.7735649385689811 6, 55.5703125 6 M-55.5703125 6 C-24.49817638927778 6, 6.573959721444439 6, 55.5703125 6" stroke="#9370DB" stroke-width="1.3" fill="none" stroke-dasharray="0 0" style=""/></g></g><g class="node default" id="classId-SpectralProfile-4" transform="translate(217.47265625, 50)"><g class="basic label-container"><path d="M-68.46875 -42 L68.46875 -42 L68.46875 42 L-68.46875 42" stroke="none" stroke-width="0" fill="#ECECFF" style=""/><path d="M-68.46875 -42 C-21.046430002962055 -42, 26.37588999407589 -42, 68.46875 -42 M-68.46875 -42 C-23.814220470140263 -42, 20.840309059719473 -42, 68.46875 -42 M68.46875 -42 C68.46875 -13.194565269880119, 68.46875 15.610869460239762, 68.46875 42 M68.46875 -42 C68.46875 -24.42293479029166, 68.46875 -6.845869580583319, 68.46875 42 M68.46875 42 C39.89226157935009 42, 11.315773158700182 42, -68.46875 42 M68.46875 42 C37.82199422189559 42, 7.175238443791173 42, -68.46875 42 M-68.46875 42 C-68.46875 16.742958858570912, -68.46875 -8.514082282858176, -68.46875 -42 M-68.46875 42 C-68.46875 8.43949138097723, -68.46875 -25.12101723804554, -68.46875 -42" stroke="#9370DB" stroke-width="1.3" fill="none" stroke-dasharray="0 0" style=""/></g><g class="annotation-group text" transform="translate(0, -18)"/><g class="label-group text" transform="translate(-56.46875, -18)"><g class="label" style="font-weight: bolder" transform="translate(0,-12)"><foreignObject width="112.9375" height="24"><div xmlns="http://www.w3.org/1999/xhtml" style="display: table-cell; white-space: nowrap; line-height: 1.5; max-width: 146px; text-align: center;"><span class="nodeLabel markdown-node-label" style=""><p>SpectralProfile</p></span></div></foreignObject></g></g><g class="members-group text" transform="translate(-56.46875, 30)"/><g class="methods-group text" transform="translate(-56.46875, 60)"/><g class="divider" style=""><path d="M-68.46875 6 C-21.842544686346614 6, 24.783660627306773 6, 68.46875 6 M-68.46875 6 C-38.027658616151946 6, -7.586567232303892 6, 68.46875 6" stroke="#9370DB" stroke-width="1.3" fill="none" stroke-dasharray="0 0" style=""/></g></g><g class="node default" id="classId-XASSpectrum-5" transform="translate(75.33203125, 366)"><g class="basic label-container"><path d="M-65.3515625 -42 L65.3515625 -42 L65.3515625 42 L-65.3515625 42" stroke="none" stroke-width="0" fill="#ECECFF" style=""/><path d="M-65.3515625 -42 C-19.50875642310038 -42, 26.33404965379924 -42, 65.3515625 -42 M-65.3515625 -42 C-22.742724290812944 -42, 19.86611391837411 -42, 65.3515625 -42 M65.3515625 -42 C65.3515625 -14.654561940137611, 65.3515625 12.690876119724777, 65.3515625 42 M65.3515625 -42 C65.3515625 -18.4835318714781, 65.3515625 5.032936257043801, 65.3515625 42 M65.3515625 42 C36.994386648225586 42, 8.637210796451171 42, -65.3515625 42 M65.3515625 42 C13.443830235235772 42, -38.463902029528455 42, -65.3515625 42 M-65.3515625 42 C-65.3515625 10.24229770585967, -65.3515625 -21.51540458828066, -65.3515625 -42 M-65.3515625 42 C-65.3515625 21.46108311756018, -65.3515625 0.9221662351203577, -65.3515625 -42" stroke="#9370DB" stroke-width="1.3" fill="none" stroke-dasharray="0 0" style=""/></g><g class="annotation-group text" transform="translate(0, -18)"/><g class="label-group text" transform="translate(-53.3515625, -18)"><g class="label" style="font-weight: bolder" transform="translate(0,-12)"><foreignObject width="106.703125" height="24"><div xmlns="http://www.w3.org/1999/xhtml" style="display: table-cell; white-space: nowrap; line-height: 1.5; max-width: 144px; text-align: center;"><span class="nodeLabel markdown-node-label" style=""><p>XASSpectrum</p></span></div></foreignObject></g></g><g class="members-group text" transform="translate(-53.3515625, 30)"/><g class="methods-group text" transform="translate(-53.3515625, 60)"/><g class="divider" style=""><path d="M-65.3515625 6 C-23.964674094275985 6, 17.42221431144803 6, 65.3515625 6 M-65.3515625 6 C-35.141325649846166 6, -4.93108879969234 6, 65.3515625 6" stroke="#9370DB" stroke-width="1.3" fill="none" stroke-dasharray="0 0" style=""/></g></g></g></g></g></svg>