<?xml version="1.0" encoding="UTF-8"?>
<svg id="my-svg" width="100%" xmlns="http://www.w3.org/2000/svg" xmlns:xlink="http://www.w3.org/1999/xlink" class="classDiagram" style="max-width: 1215.16px; background-color: white;" viewBox="0 0 1215.16015625 416" role="graphics-document document" aria-roledescription="class"><style>#my-svg{font-family:"trebuchet ms",verdana,arial,sans-serif;font-size:16px;fill:#333;}@keyframes edge-animation-frame{from{stroke-dashoffset:0;}}@keyframes dash{to{stroke-dashoffset:0;}}#my-svg .edge-animation-slow{stroke-dasharray:9,5!important;stroke-dashoffset:900;animation:dash 50s linear infinite;stroke-linecap:round;}#my-svg .edge-animation-fast{stroke-dasharray:9,5!important;stroke-dashoffset:900;animation:dash 20s linear infinite;stroke-linecap:round;}#my-svg .error-icon{fill:#552222;}#my-svg .error-text{fill:#552222;stroke:#552222;}#my-svg .edge-thickness-normal{stroke-width:1px;}#my-svg .edge-thickness-thick{stroke-width:3.5px;}#my-svg .edge-pattern-solid{stroke-dasharray:0;}#my-svg .edge-thickness-invisible{stroke-width:0;fill:none;}#my-svg .edge-pattern-dashed{stroke-dasharray:3;}#my-svg .edge-pattern-dotted{stroke-dasharray:2;}#my-svg .marker{fill:#333333;stroke:#333333;}#my-svg .marker.cross{stroke:#333333;}#my-svg svg{font-family:"trebuchet ms",verdana,arial,sans-serif;font-size:16px;}#my-svg p{margin:0;}#my-svg g.classGroup text{fill:#9370DB;stroke:none;font-family:"trebuchet ms",verdana,arial,sans-serif;font-size:10px;}#my-svg g.classGroup text .title{font-weight:bolder;}#my-svg .nodeLabel,#my-svg .edgeLabel{color:#131300;}#my-svg .edgeLabel .label rect{fill:#ECECFF;}#my-svg .label text{fill:#131300;}#my-svg .labelBkg{background:#ECECFF;}#my-svg .edgeLabel .label span{background:#ECECFF;}#my-svg .classTitle{font-weight:bolder;}#my-svg .node rect,#my-svg .node circle,#my-svg .node ellipse,#my-svg .node polygon,#my-svg .node path{fill:#ECECFF;stroke:#9370DB;stroke-width:1px;}#my-svg .divider{stroke:#9370DB;stroke-width:1;}#my-svg g.clickable{cursor:pointer;}#my-svg g.classGroup rect{fill:#ECECFF;stroke:#9370DB;}#my-svg g.classGroup line{stroke:#9370DB;stroke-width:1;}#my-svg .classLabel .box{stroke:none;stroke-width:0;fill:#ECECFF;opacity:0.5;}#my-svg .classLabel .label{fill:#9370DB;font-size:10px;}#my-svg .relation{stroke:#333333;stroke-width:1;fill:none;}#my-svg .dashed-line{stroke-dasharray:3;}#my-svg .dotted-line{stroke-dasharray:1 2;}#my-svg #compositionStart,#my-svg .composition{fill:#333333!important;stroke:#333333!important;stroke-width:1;}#my-svg #compositionEnd,#my-svg .composition{fill:#333333!important;stroke:#333333!important;stroke-width:1;}#my-svg #dependencyStart,#my-svg .dependency{fill:#333333!important;stroke:#333333!important;stroke-width:1;}#my-svg #dependencyStart,#my-svg .dependency{fill:#333333!important;stroke:#333333!important;stroke-width:1;}#my-svg #extensionStart,#my-svg .extension{fill:transparent!important;stroke:#333333!important;stroke-width:1;}#my-svg #extensionEnd,#my-svg .extension{fill:transparent!important;stroke:#333333!important;stroke-width:1;}#my-svg #aggregationStart,#my-svg .aggregation{fill:transparent!important;stroke:#333333!important;stroke-width:1;}#my-svg #aggregationEnd,#my-svg .aggregation{fill:transparent!important;stroke:#333333!important;stroke-width:1;}#my-svg #lollipopStart,#my-svg .lollipop{fill:#ECECFF!important;stroke:#333333!important;stroke-width:1;}#my-svg #lollipopEnd,#my-svg .lollipop{fill:#ECECFF!important;stroke:#333333!important;stroke-width:1;}#my-svg .edgeTerminals{font-size:11px;line-height:initial;}#my-svg .classTitleText{text-anchor:middle;font-size:18px;fill:#333;}#my-svg .label-icon{display:inline-block;height:1em;overflow:visible;vertical-align:-0.125em;}#my-svg .node .label-icon path{fill:currentColor;stroke:revert;stroke-width:revert;}#my-svg :root{--mermaid-font-family:"trebuchet ms",verdana,arial,sans-serif;}</style><g><defs><marker id="my-svg_class-aggregationStart" class="marker aggregation class" refX="18" refY="7" markerWidth="190" markerHeight="240" orient="auto"><path d="M 18,7 L9,13 L1,7 L9,1 Z"/></marker></defs><defs><marker id="my-svg_class-aggregationEnd" class="marker aggregation class" refX="1" refY="7" markerWidth="20" markerHeight="28" orient="auto"><path d="M 18,7 L9,13 L1,7 L9,1 Z"/></marker></defs><defs><marker id="my-svg_class-extensionStart" class="marker extension class" refX="18" refY="7" markerWidth="190" markerHeight="240" orient="auto"><path d="M 1,7 L18,13 V 1 Z"/></marker></defs><defs><marker id="my-svg_class-extensionEnd" class="marker extension class" refX="1" refY="7" markerWidth="20" markerHeight="28" orient="auto"><path d="M 1,1 V 13 L18,7 Z"/></marker></defs><defs><marker id="my-svg_class-compositionStart" class="marker composition class" refX="18" refY="7" markerWidth="190" markerHeight="240" orient="auto"><path d="M 18,7 L9,13 L1,7 L9,1 Z"/></marker></defs><defs><marker id="my-svg_class-compositionEnd" class="marker composition class" refX="1" refY="7" markerWidth="20" markerHeight="28" orient="auto"><path d="M 18,7 L9,13 L1,7 L9,1 Z"/></marker></defs><defs><marker id="my-svg_class-dependencyStart" class="marker dependency class" refX="6" refY="7" markerWidth="190" markerHeight="240" orient="auto"><path d="M 5,7 L9,13 L1,7 L9,1 Z"/></marker></defs><defs><marker id="my-svg_class-dependencyEnd" class="marker dependency class" refX="13" refY="7" markerWidth="20" markerHeight="28" orient="auto"><path d="M 18,7 L9,13 L14,7 L9,1 Z"/></marker></defs><defs><marker id="my-svg_class-lollipopStart" class="marker lollipop class" refX="13" refY="7" markerWidth="190" markerHeight="240" orient="auto"><circle stroke="black" fill="transparent" cx="7" cy="7" r="6"/></marker></defs><defs><marker id="my-svg_class-lollipopEnd" class="marker lollipop class" refX="1" refY="7" markerWidth="190" markerHeight="240" orient="auto"><circle stroke="black" fill="transparent" cx="7" cy="7" r="6"/></marker></defs><g class="root"><g class="clusters"/><g class="edgePaths"><path d="M773.922,71.117L793.413,80.764C812.904,90.411,851.885,109.706,871.376,132.519C890.867,155.333,890.867,181.667,890.867,208C890.867,234.333,890.867,260.667,898.326,279.402C905.784,298.137,920.702,309.274,928.16,314.842L935.619,320.411" id="id_Outputs_AbsorptionSpectrum_1" class="edge-thickness-normal edge-pattern-solid relation" style=";;;" data-edge="true" data-et="edge" data-id="id_Outputs_AbsorptionSpectrum_1" data-points="W3sieCI6NzczLjkyMTg3NSwieSI6NzEuMTE2OTM1ODc4NjA5OX0seyJ4Ijo4OTAuODY3MTg3NSwieSI6MTI5fSx7IngiOjg5MC44NjcxODc1LCJ5IjoyMDh9LHsieCI6ODkwLjg2NzE4NzUsInkiOjI4N30seyJ4Ijo5NDAuNDI2NzcwMTc0MDUwNiwieSI6MzI0fV0=" marker-end="url(#my-svg_class-dependencyEnd)"/><path d="M688.594,56.496L609.234,68.58C529.875,80.664,371.156,104.832,291.797,122.083C212.438,139.333,212.438,149.667,212.438,154.833L212.438,160" id="id_Outputs_ElectronicGreensFunction_2" class="edge-thickness-normal edge-pattern-solid relation" style=";;;" data-edge="true" data-et="edge" data-id="id_Outputs_ElectronicGreensFunction_2" data-points="W3sieCI6Njg4LjU5Mzc1LCJ5Ijo1Ni40OTYzOTM1NjExMTM3MDZ9LHsieCI6MjEyLjQzNzUsInkiOjEyOX0seyJ4IjoyMTIuNDM3NSwieSI6MTY2fV0=" marker-end="url(#my-svg_class-dependencyEnd)"/><path d="M688.594,62.751L651.651,73.793C614.708,84.834,540.823,106.917,503.88,123.125C466.938,139.333,466.938,149.667,466.938,154.833L466.938,160" id="id_Outputs_ElectronicSelfEnergy_3" class="edge-thickness-normal edge-pattern-solid relation" style=";;;" data-edge="true" data-et="edge" data-id="id_Outputs_ElectronicSelfEnergy_3" data-points="W3sieCI6Njg4LjU5Mzc1LCJ5Ijo2Mi43NTE0MjYxMjI0MjQ4NX0seyJ4Ijo0NjYuOTM3NSwieSI6MTI5fSx7IngiOjQ2Ni45Mzc1LCJ5IjoxNjZ9XQ==" marker-end="url(#my-svg_class-dependencyEnd)"/><path d="M713.905,92L711.357,98.167C708.809,104.333,703.713,116.667,701.165,128C698.617,139.333,698.617,149.667,698.617,154.833L698.617,160" id="id_Outputs_QuasiparticleWeight_4" class="edge-thickness-normal edge-pattern-solid relation" style=";;;" data-edge="true" data-et="edge" data-id="id_Outputs_QuasiparticleWeight_4" data-points="W3sieCI6NzEzLjkwNDU2ODgyOTExMzksInkiOjkyfSx7IngiOjY5OC42MTcxODc1LCJ5IjoxMjl9LHsieCI6Njk4LjYxNzE4NzUsInkiOjE2Nn1d" marker-end="url(#my-svg_class-dependencyEnd)"/><path d="M773.922,59.64L825.082,71.2C876.242,82.76,978.563,105.88,1029.723,122.607C1080.883,139.333,1080.883,149.667,1080.883,154.833L1080.883,160" id="id_Outputs_XASSpectrum_5" class="edge-thickness-normal edge-pattern-solid relation" style=";;;" data-edge="true" data-et="edge" data-id="id_Outputs_XASSpectrum_5" data-points="W3sieCI6NzczLjkyMTg3NSwieSI6NTkuNjQwMjE3MTk2OTk2Nzl9LHsieCI6MTA4MC44ODI4MTI1LCJ5IjoxMjl9LHsieCI6MTA4MC44ODI4MTI1LCJ5IjoxNjZ9XQ==" marker-end="url(#my-svg_class-dependencyEnd)"/><path d="M1044.953,250L1039.678,256.167C1034.402,262.333,1023.852,274.667,1017.485,286.021C1011.118,297.376,1008.936,307.752,1007.844,312.94L1006.753,318.128" id="id_XASSpectrum_AbsorptionSpectrum_6" class="edge-thickness-normal edge-pattern-solid relation" style=";;;" data-edge="true" data-et="edge" data-id="id_XASSpectrum_AbsorptionSpectrum_6" data-points="W3sieCI6MTA0NC45NTMxMjUsInkiOjI1MH0seyJ4IjoxMDEzLjMwMDc4MTI1LCJ5IjoyODd9LHsieCI6MTAwNS41MTgwNDc4NjM5MjQsInkiOjMyNH1d" marker-end="url(#my-svg_class-dependencyEnd)"/><path d="M1116.813,250L1122.088,256.167C1127.363,262.333,1137.914,274.667,1132.229,286.538C1126.543,298.41,1104.621,309.82,1093.661,315.525L1082.7,321.23" id="id_XASSpectrum_AbsorptionSpectrum_7" class="edge-thickness-normal edge-pattern-solid relation" style=";;;" data-edge="true" data-et="edge" data-id="id_XASSpectrum_AbsorptionSpectrum_7" data-points="W3sieCI6MTExNi44MTI1LCJ5IjoyNTB9LHsieCI6MTE0OC40NjQ4NDM3NSwieSI6Mjg3fSx7IngiOjEwNzcuMzc3NDIyODYzOTI0LCJ5IjozMjR9XQ==" marker-end="url(#my-svg_class-dependencyEnd)"/></g><g class="edgeLabels"><g class="edgeLabel" transform="translate(890.8671875, 208)"><g class="label" data-id="id_Outputs_AbsorptionSpectrum_1" transform="translate(-68.046875, -12)"><foreignObject width="136.09375" height="24"><div xmlns="http://www.w3.org/1999/xhtml" class="labelBkg" style="display: table-cell; white-space: nowrap; line-height: 1.5; max-width: 200px; text-align: center;"><span class="edgeLabel"><p>absorption_spectra</p></span></div></foreignObject></g></g><g class="edgeLabel" transform="translate(212.4375, 129)"><g class="label" data-id="id_Outputs_ElectronicGreensFunction_2" transform="translate(-99.6171875, -12)"><foreignObject width="199.234375" height="24"><div xmlns="http://www.w3.org/1999/xhtml" class="labelBkg" style="display: table-cell; white-space: nowrap; line-height: 1.5; max-width: 200px; text-align: center;"><span class="edgeLabel"><p>electronic_greens_functions</p></span></div></foreignObject></g></g><g class="edgeLabel" transform="translate(466.9375, 129)"><g class="label" data-id="id_Outputs_ElectronicSelfEnergy_3" transform="translate(-86.2734375, -12)"><foreignObject width="172.546875" height="24"><div xmlns="http://www.w3.org/1999/xhtml" class="labelBkg" style="display: table-cell; white-space: nowrap; line-height: 1.5; max-width: 200px; text-align: center;"><span class="edgeLabel"><p>electronic_self_energies</p></span></div></foreignObject></g></g><g class="edgeLabel" transform="translate(698.6171875, 129)"><g class="label" data-id="id_Outputs_QuasiparticleWeight_4" transform="translate(-76.4921875, -12)"><foreignObject width="152.984375" height="24"><div xmlns="http://www.w3.org/1999/xhtml" class="labelBkg" style="display: table-cell; white-space: nowrap; line-height: 1.5; max-width: 200px; text-align: center;"><span class="edgeLabel"><p>quasiparticle_weights</p></span></div></foreignObject></g></g><g class="edgeLabel" transform="translate(1080.8828125, 129)"><g class="label" data-id="id_Outputs_XASSpectrum_5" transform="translate(-43.1328125, -12)"><foreignObject width="86.265625" height="24"><div xmlns="http://www.w3.org/1999/xhtml" class="labelBkg" style="display: table-cell; white-space: nowrap; line-height: 1.5; max-width: 200px; text-align: center;"><span class="edgeLabel"><p>xas_spectra</p></span></div></foreignObject></g></g><g class="edgeLabel" transform="translate(1016.83772, 282.8655)"><g class="label" data-id="id_XASSpectrum_AbsorptionSpectrum_6" transform="translate(-56.46875, -12)"><foreignObject width="112.9375" height="24"><div xmlns="http://www.w3.org/1999/xhtml" class="labelBkg" style="display: table-cell; white-space: nowrap; line-height: 1.5; max-width: 200px; text-align: center;"><span class="edgeLabel"><p>exafs_spectrum</p></span></div></foreignObject></g></g><g class="edgeLabel" transform="translate(1148.46484375, 287)"><g class="label" data-id="id_XASSpectrum_AbsorptionSpectrum_7" transform="translate(-58.6953125, -12)"><foreignObject width="117.390625" height="24"><div xmlns="http://www.w3.org/1999/xhtml" class="labelBkg" style="display: table-cell; white-space: nowrap; line-height: 1.5; max-width: 200px; text-align: center;"><span class="edgeLabel"><p>xanes_spectrum</p></span></div></foreignObject></g></g></g><g class="nodes"><g class="node default" id="classId-AbsorptionSpectrum-0" transform="translate(996.68359375, 366)"><g class="basic label-container"><path d="M-91.5625 -42 L91.5625 -42 L91.5625 42 L-91.5625 42" stroke="none" stroke-width="0" fill="#ECECFF" style=""/><path d="M-91.5625 -42 C-36.27736827994241 -42, 19.007763440115184 -42, 91.5625 -42 M-91.5625 -42 C-47.63354717778504 -42, -3.70459435557008 -42, 91.5625 -42 M91.5625 -42 C91.5625 -12.069522729324579, 91.5625 17.860954541350843, 91.5625 42 M91.5625 -42 C91.5625 -18.618327630803336, 91.5625 4.763344738393329, 91.5625 42 M91.5625 42 C51.07193602517443 42, 10.581372050348861 42, -91.5625 42 M91.5625 42 C31.658045351798606 42, -28.24640929640279 42, -91.5625 42 M-91.5625 42 C-91.5625 11.079554009166024, -91.5625 -19.84089198166795, -91.5625 -42 M-91.5625 42 C-91.5625 23.27781876567198, -91.5625 4.555637531343962, -91.5625 -42" stroke="#9370DB" stroke-width="1.3" fill="none" stroke-dasharray="0 0" style=""/></g><g class="annotation-group text" transform="translate(0, -18)"/><g class="label-group text" transform="translate(-79.5625, -18)"><g class="label" style="font-weight: bolder" transform="translate(0,-12)"><foreignObject width="159.125" height="24"><div xmlns="http://www.w3.org/1999/xhtml" style="display: table-cell; white-space: nowrap; line-height: 1.5; max-width: 184px; text-align: center;"><span class="nodeLabel markdown-node-label" style=""><p>AbsorptionSpectrum</p></span></div></foreignObject></g></g><g class="members-group text" transform="translate(-79.5625, 30)"/><g class="methods-group text" transform="translate(-79.5625, 60)"/><g class="divider" style=""><path d="M-91.5625 6 C-37.30359521885436 6, 16.955309562291276 6, 91.5625 6 M-91.5625 6 C-48.26500075370277 6, -4.967501507405544 6, 91.5625 6" stroke="#9370DB" stroke-width="1.3" fill="none" stroke-dasharray="0 0" style=""/></g><g class="divider" style=""><path d="M-91.5625 24 C-27.518744867152137 24, 36.52501026569573 24, 91.5625 24 M-91.5625 24 C-51.57011239068369 24, -11.57772478136738 24, 91.5625 24" stroke="#9370DB" stroke-width="1.3" fill="none" stroke-dasharray="0 0" style=""/></g></g><g class="node default" id="classId-BSE-1" transform="translate(36.453125, 50)"><g class="basic label-container"><path d="M-28.453125 -42 L28.453125 -42 L28.453125 42 L-28.453125 42" stroke="none" stroke-width="0" fill="#ECECFF" style=""/><path d="M-28.453125 -42 C-13.489735139292023 -42, 1.4736547214159543 -42, 28.453125 -42 M-28.453125 -42 C-15.460488830286197 -42, -2.467852660572394 -42, 28.453125 -42 M28.453125 -42 C28.453125 -10.223944542793955, 28.453125 21.55211091441209, 28.453125 42 M28.453125 -42 C28.453125 -24.964831362504995, 28.453125 -7.92966272500999, 28.453125 42 M28.453125 42 C8.587198629316923 42, -11.278727741366154 42, -28.453125 42 M28.453125 42 C14.16412430056965 42, -0.12487639886069957 42, -28.453125 42 M-28.453125 42 C-28.453125 13.44809778113105, -28.453125 -15.1038044377379, -28.453125 -42 M-28.453125 42 C-28.453125 20.298133915265822, -28.453125 -1.4037321694683556, -28.453125 -42" stroke="#9370DB" stroke-width="1.3" fill="none" stroke-dasharray="0 0" style=""/></g><g class="annotation-group text" transform="translate(0, -18)"/><g class="label-group text" transform="translate(-16.453125, -18)"><g class="label" style="font-weight: bolder" transform="translate(0,-12)"><foreignObject width="32.90625" height="24"><div xmlns="http://www.w3.org/1999/xhtml" style="display: table-cell; white-space: nowrap; line-height: 1.5; max-width: 79px; text-align: center;"><span class="nodeLabel markdown-node-label" style=""><p>BSE</p></span></div></foreignObject></g></g><g class="members-group text" transform="translate(-16.453125, 30)"/><g class="methods-group text" transform="translate(-16.453125, 60)"/><g class="divider" style=""><path d="M-28.453125 6 C-12.260831600592457 6, 3.9314617988150857 6, 28.453125 6 M-28.453125 6 C-16.773791091795005 6, -5.094457183590006 6, 28.453125 6" stroke="#9370DB" stroke-width="1.3" fill="none" stroke-dasharray="0 0" style=""/></g><g class="divider" style=""><path d="M-28.453125 24 C-9.077100665321272 24, 10.298923669357457 24, 28.453125 24 M-28.453125 24 C-9.621012280378416 24, 9.211100439243168 24, 28.453125 24" stroke="#9370DB" stroke-width="1.3" fill="none" stroke-dasharray="0 0" style=""/></g></g><g class="node default" id="classId-DFTGWModel-2" transform="translate(179.34375, 50)"><g class="basic label-container"><path d="M-64.4375 -42 L64.4375 -42 L64.4375 42 L-64.4375 42" stroke="none" stroke-width="0" fill="#ECECFF" style=""/><path d="M-64.4375 -42 C-18.052608576977377 -42, 28.332282846045246 -42, 64.4375 -42 M-64.4375 -42 C-17.523012687480147 -42, 29.391474625039706 -42, 64.4375 -42 M64.4375 -42 C64.4375 -18.933327202994583, 64.4375 4.133345594010834, 64.4375 42 M64.4375 -42 C64.4375 -12.714107695535262, 64.4375 16.571784608929477, 64.4375 42 M64.4375 42 C32.041675681020735 42, -0.3541486379585308 42, -64.4375 42 M64.4375 42 C15.740930350402287 42, -32.955639299195425 42, -64.4375 42 M-64.4375 42 C-64.4375 9.78640760567584, -64.4375 -22.42718478864832, -64.4375 -42 M-64.4375 42 C-64.4375 11.479440042520896, -64.4375 -19.04111991495821, -64.4375 -42" stroke="#9370DB" stroke-width="1.3" fill="none" stroke-dasharray="0 0" style=""/></g><g class="annotation-group text" transform="translate(0, -18)"/><g class="label-group text" transform="translate(-52.4375, -18)"><g class="label" style="font-weight: bolder" transform="translate(0,-12)"><foreignObject width="104.875" height="24"><div xmlns="http://www.w3.org/1999/xhtml" style="display: table-cell; white-space: nowrap; line-height: 1.5; max-width: 149px; text-align: center;"><span class="nodeLabel markdown-node-label" style=""><p>DFTGWModel</p></span></div></foreignObject></g></g><g class="members-group text" transform="translate(-52.4375, 30)"/><g class="methods-group text" transform="translate(-52.4375, 60)"/><g class="divider" style=""><path d="M-64.4375 6 C-38.09343693790916 6, -11.749373875818328 6, 64.4375 6 M-64.4375 6 C-29.966459296101526 6, 4.504581407796948 6, 64.4375 6" stroke="#9370DB" stroke-width="1.3" fill="none" stroke-dasharray="0 0" style=""/></g><g class="divider" style=""><path d="M-64.4375 24 C-20.12266345941194 24, 24.192173081176122 24, 64.4375 24 M-64.4375 24 C-29.038975832725377 24, 6.359548334549245 24, 64.4375 24" stroke="#9370DB" stroke-width="1.3" fill="none" stroke-dasharray="0 0" style=""/></g></g><g class="node default" id="classId-DFTGWResults-3" transform="translate(364.0078125, 50)"><g class="basic label-container"><path d="M-70.2265625 -42 L70.2265625 -42 L70.2265625 42 L-70.2265625 42" stroke="none" stroke-width="0" fill="#ECECFF" style=""/><path d="M-70.2265625 -42 C-29.316525551038694 -42, 11.593511397922612 -42, 70.2265625 -42 M-70.2265625 -42 C-18.317410462643124 -42, 33.59174157471375 -42, 70.2265625 -42 M70.2265625 -42 C70.2265625 -21.479783508647316, 70.2265625 -0.9595670172946313, 70.2265625 42 M70.2265625 -42 C70.2265625 -8.484936074212229, 70.2265625 25.030127851575543, 70.2265625 42 M70.2265625 42 C35.07654641651414 42, -0.07346966697171808 42, -70.2265625 42 M70.2265625 42 C25.618568454176767 42, -18.989425591646466 42, -70.2265625 42 M-70.2265625 42 C-70.2265625 22.603237852957466, -70.2265625 3.206475705914933, -70.2265625 -42 M-70.2265625 42 C-70.2265625 17.649650505401745, -70.2265625 -6.7006989891965105, -70.2265625 -42" stroke="#9370DB" stroke-width="1.3" fill="none" stroke-dasharray="0 0" style=""/></g><g class="annotation-group text" transform="translate(0, -18)"/><g class="label-group text" transform="translate(-58.2265625, -18)"><g class="label" style="font-weight: bolder" transform="translate(0,-12)"><foreignObject width="116.453125" height="24"><div xmlns="http://www.w3.org/1999/xhtml" style="display: table-cell; white-space: nowrap; line-height: 1.5; max-width: 154px; text-align: center;"><span class="nodeLabel markdown-node-label" style=""><p>DFTGWResults</p></span></div></foreignObject></g></g><g class="members-group text" transform="translate(-58.2265625, 30)"/><g class="methods-group text" transform="translate(-58.2265625, 60)"/><g class="divider" style=""><path d="M-70.2265625 6 C-16.13826093692755 6, 37.9500406261449 6, 70.2265625 6 M-70.2265625 6 C-32.713784521217384 6, 4.798993457565231 6, 70.2265625 6" stroke="#9370DB" stroke-width="1.3" fill="none" stroke-dasharray="0 0" style=""/></g><g class="divider" style=""><path d="M-70.2265625 24 C-20.476993200443808 24, 29.272576099112385 24, 70.2265625 24 M-70.2265625 24 C-30.630865615530745 24, 8.96483126893851 24, 70.2265625 24" stroke="#9370DB" stroke-width="1.3" fill="none" stroke-dasharray="0 0" style=""/></g></g><g class="node default" id="classId-DFTGWWorkflow-4" transform="translate(561.4140625, 50)"><g class="basic label-container"><path d="M-77.1796875 -42 L77.1796875 -42 L77.1796875 42 L-77.1796875 42" stroke="none" stroke-width="0" fill="#ECECFF" style=""/><path d="M-77.1796875 -42 C-39.294952662028436 -42, -1.410217824056872 -42, 77.1796875 -42 M-77.1796875 -42 C-42.182292891693216 -42, -7.184898283386431 -42, 77.1796875 -42 M77.1796875 -42 C77.1796875 -23.874569965087804, 77.1796875 -5.749139930175609, 77.1796875 42 M77.1796875 -42 C77.1796875 -10.432392975002628, 77.1796875 21.135214049994744, 77.1796875 42 M77.1796875 42 C41.630346768833064 42, 6.081006037666128 42, -77.1796875 42 M77.1796875 42 C34.13055542545782 42, -8.918576649084358 42, -77.1796875 42 M-77.1796875 42 C-77.1796875 9.812539876319612, -77.1796875 -22.374920247360777, -77.1796875 -42 M-77.1796875 42 C-77.1796875 17.659912497793304, -77.1796875 -6.6801750044133925, -77.1796875 -42" stroke="#9370DB" stroke-width="1.3" fill="none" stroke-dasharray="0 0" style=""/></g><g class="annotation-group text" transform="translate(0, -18)"/><g class="label-group text" transform="translate(-65.1796875, -18)"><g class="label" style="font-weight: bolder" transform="translate(0,-12)"><foreignObject width="130.359375" height="24"><div xmlns="http://www.w3.org/1999/xhtml" style="display: table-cell; white-space: nowrap; line-height: 1.5; max-width: 172px; text-align: center;"><span class="nodeLabel markdown-node-label" style=""><p>DFTGWWorkflow</p></span></div></foreignObject></g></g><g class="members-group text" transform="translate(-65.1796875, 30)"/><g class="methods-group text" transform="translate(-65.1796875, 60)"/><g class="divider" style=""><path d="M-77.1796875 6 C-45.57275921348244 6, -13.965830926964891 6, 77.1796875 6 M-77.1796875 6 C-34.81667714575939 6, 7.546333208481215 6, 77.1796875 6" stroke="#9370DB" stroke-width="1.3" fill="none" stroke-dasharray="0 0" style=""/></g><g class="divider" style=""><path d="M-77.1796875 24 C-33.480999365054245 24, 10.21768876989151 24, 77.1796875 24 M-77.1796875 24 C-33.787065369871044 24, 9.605556760257912 24, 77.1796875 24" stroke="#9370DB" stroke-width="1.3" fill="none" stroke-dasharray="0 0" style=""/></g></g><g class="node default" id="classId-ElectronicGreensFunction-5" transform="translate(212.4375, 208)"><g class="basic label-container"><path d="M-112.0234375 -42 L112.0234375 -42 L112.0234375 42 L-112.0234375 42" stroke="none" stroke-width="0" fill="#ECECFF" style=""/><path d="M-112.0234375 -42 C-57.666739613946255 -42, -3.3100417278925107 -42, 112.0234375 -42 M-112.0234375 -42 C-50.73721838994152 -42, 10.549000720116965 -42, 112.0234375 -42 M112.0234375 -42 C112.0234375 -24.454728891400055, 112.0234375 -6.909457782800111, 112.0234375 42 M112.0234375 -42 C112.0234375 -19.316181329272663, 112.0234375 3.3676373414546745, 112.0234375 42 M112.0234375 42 C57.7390634749426 42, 3.454689449885194 42, -112.0234375 42 M112.0234375 42 C39.660835511576224 42, -32.70176647684755 42, -112.0234375 42 M-112.0234375 42 C-112.0234375 24.651473350641492, -112.0234375 7.302946701282984, -112.0234375 -42 M-112.0234375 42 C-112.0234375 11.90949356817153, -112.0234375 -18.18101286365694, -112.0234375 -42" stroke="#9370DB" stroke-width="1.3" fill="none" stroke-dasharray="0 0" style=""/></g><g class="annotation-group text" transform="translate(0, -18)"/><g class="label-group text" transform="translate(-100.0234375, -18)"><g class="label" style="font-weight: bolder" transform="translate(0,-12)"><foreignObject width="200.046875" height="24"><div xmlns="http://www.w3.org/1999/xhtml" style="display: table-cell; white-space: nowrap; line-height: 1.5; max-width: 218px; text-align: center;"><span class="nodeLabel markdown-node-label" style=""><p>ElectronicGreensFunction</p></span></div></foreignObject></g></g><g class="members-group text" transform="translate(-100.0234375, 30)"/><g class="methods-group text" transform="translate(-100.0234375, 60)"/><g class="divider" style=""><path d="M-112.0234375 6 C-23.584952679087706 6, 64.85353214182459 6, 112.0234375 6 M-112.0234375 6 C-40.58461736679841 6, 30.854202766403176 6, 112.0234375 6" stroke="#9370DB" stroke-width="1.3" fill="none" stroke-dasharray="0 0" style=""/></g><g class="divider" style=""><path d="M-112.0234375 24 C-59.15818463806846 24, -6.292931776136925 24, 112.0234375 24 M-112.0234375 24 C-57.92431813442591 24, -3.82519876885182 24, 112.0234375 24" stroke="#9370DB" stroke-width="1.3" fill="none" stroke-dasharray="0 0" style=""/></g></g><g class="node default" id="classId-ElectronicSelfEnergy-6" transform="translate(466.9375, 208)"><g class="basic label-container"><path d="M-92.4765625 -42 L92.4765625 -42 L92.4765625 42 L-92.4765625 42" stroke="none" stroke-width="0" fill="#ECECFF" style=""/><path d="M-92.4765625 -42 C-42.75532806549358 -42, 6.965906369012842 -42, 92.4765625 -42 M-92.4765625 -42 C-32.6178025780725 -42, 27.240957343855 -42, 92.4765625 -42 M92.4765625 -42 C92.4765625 -15.448170346436402, 92.4765625 11.103659307127195, 92.4765625 42 M92.4765625 -42 C92.4765625 -22.640267523671778, 92.4765625 -3.2805350473435553, 92.4765625 42 M92.4765625 42 C53.446099027302516 42, 14.415635554605032 42, -92.4765625 42 M92.4765625 42 C48.550764944210755 42, 4.62496738842151 42, -92.4765625 42 M-92.4765625 42 C-92.4765625 11.758070888563132, -92.4765625 -18.483858222873735, -92.4765625 -42 M-92.4765625 42 C-92.4765625 24.915517710765627, -92.4765625 7.831035421531254, -92.4765625 -42" stroke="#9370DB" stroke-width="1.3" fill="none" stroke-dasharray="0 0" style=""/></g><g class="annotation-group text" transform="translate(0, -18)"/><g class="label-group text" transform="translate(-80.4765625, -18)"><g class="label" style="font-weight: bolder" transform="translate(0,-12)"><foreignObject width="160.953125" height="24"><div xmlns="http://www.w3.org/1999/xhtml" style="display: table-cell; white-space: nowrap; line-height: 1.5; max-width: 187px; text-align: center;"><span class="nodeLabel markdown-node-label" style=""><p>ElectronicSelfEnergy</p></span></div></foreignObject></g></g><g class="members-group text" transform="translate(-80.4765625, 30)"/><g class="methods-group text" transform="translate(-80.4765625, 60)"/><g class="divider" style=""><path d="M-92.4765625 6 C-35.297323616688 6, 21.881915266624006 6, 92.4765625 6 M-92.4765625 6 C-36.59962273334957 6, 19.27731703330086 6, 92.4765625 6" stroke="#9370DB" stroke-width="1.3" fill="none" stroke-dasharray="0 0" style=""/></g><g class="divider" style=""><path d="M-92.4765625 24 C-24.446597980182617 24, 43.58336653963477 24, 92.4765625 24 M-92.4765625 24 C-25.071572625725466 24, 42.33341724854907 24, 92.4765625 24" stroke="#9370DB" stroke-width="1.3" fill="none" stroke-dasharray="0 0" style=""/></g></g><g class="node default" id="classId-Outputs-7" transform="translate(731.2578125, 50)"><g class="basic label-container"><path d="M-42.6640625 -42 L42.6640625 -42 L42.6640625 42 L-42.6640625 42" stroke="none" stroke-width="0" fill="#ECECFF" style=""/><path d="M-42.6640625 -42 C-23.726682578892447 -42, -4.789302657784894 -42, 42.6640625 -42 M-42.6640625 -42 C-11.69349242562041 -42, 19.27707764875918 -42, 42.6640625 -42 M42.6640625 -42 C42.6640625 -21.521645886564173, 42.6640625 -1.0432917731283453, 42.6640625 42 M42.6640625 -42 C42.6640625 -18.068651176847574, 42.6640625 5.862697646304852, 42.6640625 42 M42.6640625 42 C14.925452437785488 42, -12.813157624429024 42, -42.6640625 42 M42.6640625 42 C13.97059238760335 42, -14.7228777247933 42, -42.6640625 42 M-42.6640625 42 C-42.6640625 11.48389565032334, -42.6640625 -19.03220869935332, -42.6640625 -42 M-42.6640625 42 C-42.6640625 23.692326602876083, -42.6640625 5.384653205752166, -42.6640625 -42" stroke="#9370DB" stroke-width="1.3" fill="none" stroke-dasharray="0 0" style=""/></g><g class="annotation-group text" transform="translate(0, -18)"/><g class="label-group text" transform="translate(-30.6640625, -18)"><g class="label" style="font-weight: bolder" transform="translate(0,-12)"><foreignObject width="61.328125" height="24"><div xmlns="http://www.w3.org/1999/xhtml" style="display: table-cell; white-space: nowrap; line-height: 1.5; max-width: 101px; text-align: center;"><span class="nodeLabel markdown-node-label" style=""><p>Outputs</p></span></div></foreignObject></g></g><g class="members-group text" transform="translate(-30.6640625, 30)"/><g class="methods-group text" transform="translate(-30.6640625, 60)"/><g class="divider" style=""><path d="M-42.6640625 6 C-23.082534154515944 6, -3.501005809031888 6, 42.6640625 6 M-42.6640625 6 C-17.238678106692383 6, 8.186706286615234 6, 42.6640625 6" stroke="#9370DB" stroke-width="1.3" fill="none" stroke-dasharray="0 0" style=""/></g><g class="divider" style=""><path d="M-42.6640625 24 C-10.75018146145636 24, 21.16369957708728 24, 42.6640625 24 M-42.6640625 24 C-22.768750214091256 24, -2.8734379281825113 24, 42.6640625 24" stroke="#9370DB" stroke-width="1.3" fill="none" stroke-dasharray="0 0" style=""/></g></g><g class="node default" id="classId-QuasiparticleWeight-8" transform="translate(698.6171875, 208)"><g class="basic label-container"><path d="M-89.203125 -42 L89.203125 -42 L89.203125 42 L-89.203125 42" stroke="none" stroke-width="0" fill="#ECECFF" style=""/><path d="M-89.203125 -42 C-29.8630959904092 -42, 29.4769330191816 -42, 89.203125 -42 M-89.203125 -42 C-50.0071894897647 -42, -10.811253979529397 -42, 89.203125 -42 M89.203125 -42 C89.203125 -23.97321126215199, 89.203125 -5.946422524303983, 89.203125 42 M89.203125 -42 C89.203125 -9.472392013924576, 89.203125 23.055215972150847, 89.203125 42 M89.203125 42 C48.995766700025776 42, 8.788408400051551 42, -89.203125 42 M89.203125 42 C23.041434022257093 42, -43.120256955485814 42, -89.203125 42 M-89.203125 42 C-89.203125 13.658863655727583, -89.203125 -14.682272688544835, -89.203125 -42 M-89.203125 42 C-89.203125 8.631615710769616, -89.203125 -24.73676857846077, -89.203125 -42" stroke="#9370DB" stroke-width="1.3" fill="none" stroke-dasharray="0 0" style=""/></g><g class="annotation-group text" transform="translate(0, -18)"/><g class="label-group text" transform="translate(-77.203125, -18)"><g class="label" style="font-weight: bolder" transform="translate(0,-12)"><foreignObject width="154.40625" height="24"><div xmlns="http://www.w3.org/1999/xhtml" style="display: table-cell; white-space: nowrap; line-height: 1.5; max-width: 182px; text-align: center;"><span class="nodeLabel markdown-node-label" style=""><p>QuasiparticleWeight</p></span></div></foreignObject></g></g><g class="members-group text" transform="translate(-77.203125, 30)"/><g class="methods-group text" transform="translate(-77.203125, 60)"/><g class="divider" style=""><path d="M-89.203125 6 C-49.22651662753774 6, -9.249908255075482 6, 89.203125 6 M-89.203125 6 C-24.18584005196263 6, 40.83144489607474 6, 89.203125 6" stroke="#9370DB" stroke-width="1.3" fill="none" stroke-dasharray="0 0" style=""/></g><g class="divider" style=""><path d="M-89.203125 24 C-39.258789464821575 24, 10.68554607035685 24, 89.203125 24 M-89.203125 24 C-31.953582082952458 24, 25.295960834095084 24, 89.203125 24" stroke="#9370DB" stroke-width="1.3" fill="none" stroke-dasharray="0 0" style=""/></g></g><g class="node default" id="classId-Screening-9" transform="translate(874.6015625, 50)"><g class="basic label-container"><path d="M-50.6796875 -42 L50.6796875 -42 L50.6796875 42 L-50.6796875 42" stroke="none" stroke-width="0" fill="#ECECFF" style=""/><path d="M-50.6796875 -42 C-18.460552822093575 -42, 13.75858185581285 -42, 50.6796875 -42 M-50.6796875 -42 C-12.24785606577467 -42, 26.18397536845066 -42, 50.6796875 -42 M50.6796875 -42 C50.6796875 -22.227495668994827, 50.6796875 -2.4549913379896537, 50.6796875 42 M50.6796875 -42 C50.6796875 -19.691381142652688, 50.6796875 2.6172377146946246, 50.6796875 42 M50.6796875 42 C14.083148280178776 42, -22.51339093964245 42, -50.6796875 42 M50.6796875 42 C27.203117075737502 42, 3.7265466514750045 42, -50.6796875 42 M-50.6796875 42 C-50.6796875 15.437993465157781, -50.6796875 -11.124013069684437, -50.6796875 -42 M-50.6796875 42 C-50.6796875 13.2992639738188, -50.6796875 -15.4014720523624, -50.6796875 -42" stroke="#9370DB" stroke-width="1.3" fill="none" stroke-dasharray="0 0" style=""/></g><g class="annotation-group text" transform="translate(0, -18)"/><g class="label-group text" transform="translate(-38.6796875, -18)"><g class="label" style="font-weight: bolder" transform="translate(0,-12)"><foreignObject width="77.359375" height="24"><div xmlns="http://www.w3.org/1999/xhtml" style="display: table-cell; white-space: nowrap; line-height: 1.5; max-width: 114px; text-align: center;"><span class="nodeLabel markdown-node-label" style=""><p>Screening</p></span></div></foreignObject></g></g><g class="members-group text" transform="translate(-38.6796875, 30)"/><g class="methods-group text" transform="translate(-38.6796875, 60)"/><g class="divider" style=""><path d="M-50.6796875 6 C-26.813080803133033 6, -2.9464741062660664 6, 50.6796875 6 M-50.6796875 6 C-15.95482634454902 6, 18.77003481090196 6, 50.6796875 6" stroke="#9370DB" stroke-width="1.3" fill="none" stroke-dasharray="0 0" style=""/></g><g class="divider" style=""><path d="M-50.6796875 24 C-18.87284264969366 24, 12.934002200612682 24, 50.6796875 24 M-50.6796875 24 C-26.6446297549649 24, -2.609572009929799 24, 50.6796875 24" stroke="#9370DB" stroke-width="1.3" fill="none" stroke-dasharray="0 0" style=""/></g></g><g class="node default" id="classId-XASSpectrum-10" transform="translate(1080.8828125, 208)"><g class="basic label-container"><path d="M-65.3515625 -42 L65.3515625 -42 L65.3515625 42 L-65.3515625 42" stroke="none" stroke-width="0" fill="#ECECFF" style=""/><path d="M-65.3515625 -42 C-22.710086086060628 -42, 19.931390327878745 -42, 65.3515625 -42 M-65.3515625 -42 C-16.41606433481539 -42, 32.51943383036922 -42, 65.3515625 -42 M65.3515625 -42 C65.3515625 -10.463004635734112, 65.3515625 21.073990728531776, 65.3515625 42 M65.3515625 -42 C65.3515625 -17.10971828581404, 65.3515625 7.78056342837192, 65.3515625 42 M65.3515625 42 C20.908931576883788 42, -23.533699346232424 42, -65.3515625 42 M65.3515625 42 C36.78120977989951 42, 8.210857059799018 42, -65.3515625 42 M-65.3515625 42 C-65.3515625 20.757738295974463, -65.3515625 -0.48452340805107497, -65.3515625 -42 M-65.3515625 42 C-65.3515625 17.50704521117042, -65.3515625 -6.985909577659157, -65.3515625 -42" stroke="#9370DB" stroke-width="1.3" fill="none" stroke-dasharray="0 0" style=""/></g><g class="annotation-group text" transform="translate(0, -18)"/><g class="label-group text" transform="translate(-53.3515625, -18)"><g class="label" style="font-weight: bolder" transform="translate(0,-12)"><foreignObject width="106.703125" height="24"><div xmlns="http://www.w3.org/1999/xhtml" style="display: table-cell; white-space: nowrap; line-height: 1.5; max-width: 144px; text-align: center;"><span class="nodeLabel markdown-node-label" style=""><p>XASSpectrum</p></span></div></foreignObject></g></g><g class="members-group text" transform="translate(-53.3515625, 30)"/><g class="methods-group text" transform="translate(-53.3515625, 60)"/><g class="divider" style=""><path d="M-65.3515625 6 C-24.132204812543527 6, 17.087152874912945 6, 65.3515625 6 M-65.3515625 6 C-19.879588447078348 6, 25.592385605843305 6, 65.3515625 6" stroke="#9370DB" stroke-width="1.3" fill="none" stroke-dasharray="0 0" style=""/></g><g class="divider" style=""><path d="M-65.3515625 24 C-25.005344226837742 24, 15.340874046324515 24, 65.3515625 24 M-65.3515625 24 C-27.1680768395994 24, 11.015408820801198 24, 65.3515625 24" stroke="#9370DB" stroke-width="1.3" fill="none" stroke-dasharray="0 0" style=""/></g></g></g></g></g></svg>