<?xml version="1.0" encoding="UTF-8"?>
<svg id="my-svg" width="100%" xmlns="http://www.w3.org/2000/svg" xmlns:xlink="http://www.w3.org/1999/xlink" class="classDiagram" style="max-width: 991.216px; background-color: white;" viewBox="0 0 991.2160034179688 466.1499938964844" role="graphics-document document" aria-roledescription="class"><style>#my-svg{font-family:"trebuchet ms",verdana,arial,sans-serif;font-size:16px;fill:#333;}@keyframes edge-animation-frame{from{stroke-dashoffset:0;}}@keyframes dash{to{stroke-dashoffset:0;}}#my-svg .edge-animation-slow{stroke-dasharray:9,5!important;stroke-dashoffset:900;animation:dash 50s linear infinite;stroke-linecap:round;}#my-svg .edge-animation-fast{stroke-dasharray:9,5!important;stroke-dashoffset:900;animation:dash 20s linear infinite;stroke-linecap:round;}#my-svg .error-icon{fill:#552222;}#my-svg .error-text{fill:#552222;stroke:#552222;}#my-svg .edge-thickness-normal{stroke-width:1px;}#my-svg .edge-thickness-thick{stroke-width:3.5px;}#my-svg .edge-pattern-solid{stroke-dasharray:0;}#my-svg .edge-thickness-invisible{stroke-width:0;fill:none;}#my-svg .edge-pattern-dashed{stroke-dasharray:3;}#my-svg .edge-pattern-dotted{stroke-dasharray:2;}#my-svg .marker{fill:#333333;stroke:#333333;}#my-svg .marker.cross{stroke:#333333;}#my-svg svg{font-family:"trebuchet ms",verdana,arial,sans-serif;font-size:16px;}#my-svg p{margin:0;}#my-svg g.classGroup text{fill:#9370DB;stroke:none;font-family:"trebuchet ms",verdana,arial,sans-serif;font-size:10px;}#my-svg g.classGroup text .title{font-weight:bolder;}#my-svg .nodeLabel,#my-svg .edgeLabel{color:#131300;}#my-svg .edgeLabel .label rect{fill:#ECECFF;}#my-svg .label text{fill:#131300;}#my-svg .labelBkg{background:#ECECFF;}#my-svg .edgeLabel .label span{background:#ECECFF;}#my-svg .classTitle{font-weight:bolder;}#my-svg .node rect,#my-svg .node circle,#my-svg .node ellipse,#my-svg .node polygon,#my-svg .node path{fill:#ECECFF;stroke:#9370DB;stroke-width:1px;}#my-svg .divider{stroke:#9370DB;stroke-width:1;}#my-svg g.clickable{cursor:pointer;}#my-svg g.classGroup rect{fill:#ECECFF;stroke:#9370DB;}#my-svg g.classGroup line{stroke:#9370DB;stroke-width:1;}#my-svg .classLabel .box{stroke:none;stroke-width:0;fill:#ECECFF;opacity:0.5;}#my-svg .classLabel .label{fill:#9370DB;font-size:10px;}#my-svg .relation{stroke:#333333;stroke-width:1;fill:none;}#my-svg .dashed-line{stroke-dasharray:3;}#my-svg .dotted-line{stroke-dasharray:1 2;}#my-svg #compositionStart,#my-svg .composition{fill:#333333!important;stroke:#333333!important;stroke-width:1;}#my-svg #compositionEnd,#my-svg .composition{fill:#333333!important;stroke:#333333!important;stroke-width:1;}#my-svg #dependencyStart,#my-svg .dependency{fill:#333333!important;stroke:#333333!important;stroke-width:1;}#my-svg #dependencyStart,#my-svg .dependency{fill:#333333!important;stroke:#333333!important;stroke-width:1;}#my-svg #extensionStart,#my-svg .extension{fill:transparent!important;stroke:#333333!important;stroke-width:1;}#my-svg #extensionEnd,#my-svg .extension{fill:transparent!important;stroke:#333333!important;stroke-width:1;}#my-svg #aggregationStart,#my-svg .aggregation{fill:transparent!important;stroke:#333333!important;stroke-width:1;}#my-svg #aggregationEnd,#my-svg .aggregation{fill:transparent!important;stroke:#333333!important;stroke-width:1;}#my-svg #lollipopStart,#my-svg .lollipop{fill:#ECECFF!important;stroke:#333333!important;stroke-width:1;}#my-svg #lollipopEnd,#my-svg .lollipop{fill:#ECECFF!important;stroke:#333333!important;stroke-width:1;}#my-svg .edgeTerminals{font-size:11px;line-height:initial;}#my-svg .classTitleText{text-anchor:middle;font-size:18px;fill:#333;}#my-svg .label-icon{display:inline-block;height:1em;overflow:visible;vertical-align:-0.125em;}#my-svg .node .label-icon path{fill:currentColor;stroke:revert;stroke-width:revert;}#my-svg :root{--mermaid-font-family:"trebuchet ms",verdana,arial,sans-serif;}</style><g><defs><marker id="my-svg_class-aggregationStart" class="marker aggregation class" refX="18" refY="7" markerWidth="190" markerHeight="240" orient="auto"><path d="M 18,7 L9,13 L1,7 L9,1 Z"/></marker></defs><defs><marker id="my-svg_class-aggregationEnd" class="marker aggregation class" refX="1" refY="7" markerWidth="20" markerHeight="28" orient="auto"><path d="M 18,7 L9,13 L1,7 L9,1 Z"/></marker></defs><defs><marker id="my-svg_class-extensionStart" class="marker extension class" refX="18" refY="7" markerWidth="190" markerHeight="240" orient="auto"><path d="M 1,7 L18,13 V 1 Z"/></marker></defs><defs><marker id="my-svg_class-extensionEnd" class="marker extension class" refX="1" refY="7" markerWidth="20" markerHeight="28" orient="auto"><path d="M 1,1 V 13 L18,7 Z"/></marker></defs><defs><marker id="my-svg_class-compositionStart" class="marker composition class" refX="18" refY="7" markerWidth="190" markerHeight="240" orient="auto"><path d="M 18,7 L9,13 L1,7 L9,1 Z"/></marker></defs><defs><marker id="my-svg_class-compositionEnd" class="marker composition class" refX="1" refY="7" markerWidth="20" markerHeight="28" orient="auto"><path d="M 18,7 L9,13 L1,7 L9,1 Z"/></marker></defs><defs><marker id="my-svg_class-dependencyStart" class="marker dependency class" refX="6" refY="7" markerWidth="190" markerHeight="240" orient="auto"><path d="M 5,7 L9,13 L1,7 L9,1 Z"/></marker></defs><defs><marker id="my-svg_class-dependencyEnd" class="marker dependency class" refX="13" refY="7" markerWidth="20" markerHeight="28" orient="auto"><path d="M 18,7 L9,13 L14,7 L9,1 Z"/></marker></defs><defs><marker id="my-svg_class-lollipopStart" class="marker lollipop class" refX="13" refY="7" markerWidth="190" markerHeight="240" orient="auto"><circle stroke="black" fill="transparent" cx="7" cy="7" r="6"/></marker></defs><defs><marker id="my-svg_class-lollipopEnd" class="marker lollipop class" refX="1" refY="7" markerWidth="190" markerHeight="240" orient="auto"><circle stroke="black" fill="transparent" cx="7" cy="7" r="6"/></marker></defs><g class="root"><g class="clusters"/><g class="edgePaths"><path d="M258.047,92L258.047,98.167C258.047,104.333,258.047,116.667,291.598,133.641C325.149,150.616,392.252,172.231,425.803,183.039L459.354,193.847" id="id_BaseGreensFunction_KMesh_1" class="edge-thickness-normal edge-pattern-solid relation" style=";;;" data-edge="true" data-et="edge" data-id="id_BaseGreensFunction_KMesh_1" data-points="W3sieCI6MjU4LjA0Njg3NSwieSI6OTJ9LHsieCI6MjU4LjA0Njg3NSwieSI6MTI5fSx7IngiOjQ2NS4wNjQ4NDM3NDk2Mjc0NywieSI6MTk1LjY4NjE3NDE5NDc0MjI1fV0=" marker-end="url(#my-svg_class-dependencyEnd)"/><path d="M400.516,65.134L371.431,75.778C342.347,86.423,284.179,107.711,255.094,123.522C226.01,139.333,226.01,149.667,226.01,154.833L226.01,160" id="id_KSpace_KLinePath_2" class="edge-thickness-normal edge-pattern-solid relation" style=";;;" data-edge="true" data-et="edge" data-id="id_KSpace_KLinePath_2" data-points="W3sieCI6NDAwLjUxNTYyNSwieSI6NjUuMTMzOTY4MTU3NDI3NjN9LHsieCI6MjI2LjAxMDE1NjI0OTYyNzQ3LCJ5IjoxMjl9LHsieCI6MjI2LjAxMDE1NjI0OTYyNzQ3LCJ5IjoxNjZ9XQ==" marker-end="url(#my-svg_class-dependencyEnd)"/><path d="M441.867,92L441.867,98.167C441.867,104.333,441.867,116.667,446.048,128.211C450.229,139.754,458.591,150.509,462.772,155.886L466.953,161.263" id="id_KSpace_KMesh_3" class="edge-thickness-normal edge-pattern-solid relation" style=";;;" data-edge="true" data-et="edge" data-id="id_KSpace_KMesh_3" data-points="W3sieCI6NDQxLjg2NzE4NzUsInkiOjkyfSx7IngiOjQ0MS44NjcxODc1LCJ5IjoxMjl9LHsieCI6NDcwLjYzNTQ5MjQ4NDAwMjcsInkiOjE2Nn1d" marker-end="url(#my-svg_class-dependencyEnd)"/><path d="M683.68,217.724L621.271,227.27C558.863,236.816,434.046,255.908,371.637,268.621C309.229,281.333,309.229,287.667,309.229,290.833L309.229,294" id="id_ModelSystem_Cell_4" class="edge-thickness-normal edge-pattern-solid relation" style=";;;" data-edge="true" data-et="edge" data-id="id_ModelSystem_Cell_4" data-points="W3sieCI6NjgzLjY3OTY4NzUsInkiOjIxNy43MjM3NTc1OTU4NTUyM30seyJ4IjozMDkuMjI4OTA2MjQ5NjI3NDcsInkiOjI3NX0seyJ4IjozMDkuMjI4OTA2MjQ5NjI3NDcsInkiOjMwMH1d" marker-end="url(#my-svg_class-dependencyEnd)"/><path d="M683.68,223.092L647.239,231.743C610.798,240.395,537.916,257.697,501.475,269.515C465.034,281.333,465.034,287.667,465.034,290.833L465.034,294" id="id_ModelSystem_ChemicalFormula_5" class="edge-thickness-normal edge-pattern-solid relation" style=";;;" data-edge="true" data-et="edge" data-id="id_ModelSystem_ChemicalFormula_5" data-points="W3sieCI6NjgzLjY3OTY4NzUsInkiOjIyMy4wOTIwMDMzMTA4MjU4N30seyJ4Ijo0NjUuMDMzNTkzNzQ5NjI3NDcsInkiOjI3NX0seyJ4Ijo0NjUuMDMzNTkzNzQ5NjI3NDcsInkiOjMwMH1d" marker-end="url(#my-svg_class-dependencyEnd)"/><path d="M810.82,233.161L828.438,240.134C846.057,247.107,881.293,261.054,898.911,279.185C916.529,297.317,916.529,319.633,916.529,330.792L916.529,341.95" id="ModelSystem-cyclic-special-1" class="edge-thickness-normal edge-pattern-solid relation" style=";;;" data-edge="true" data-et="edge" data-id="ModelSystem-cyclic-special-1" data-points="W3sieCI6ODEwLjgyMDMxMjUsInkiOjIzMy4xNjA5MDc3MTA0OTk5N30seyJ4Ijo5MTYuNTI4OTA2MjUwMzcyNSwieSI6Mjc1fSx7IngiOjkxNi41Mjg5MDYyNTAzNzI1LCJ5IjozNDEuOTQ5OTk5OTk5MjU0OTR9XQ=="/><path d="M916.529,342.05L916.529,355.208C916.529,368.367,916.529,394.683,922.079,414.008C927.628,433.333,938.728,445.667,944.278,451.833L949.828,458" id="ModelSystem-cyclic-special-mid" class="edge-thickness-normal edge-pattern-solid relation" style=";;;" data-edge="true" data-et="edge" data-id="ModelSystem-cyclic-special-mid" data-points="W3sieCI6OTE2LjUyODkwNjI1MDM3MjUsInkiOjM0Mi4wNTAwMDAwMDA3NDUwNn0seyJ4Ijo5MTYuNTI4OTA2MjUwMzcyNSwieSI6NDIxfSx7IngiOjk0OS44Mjc2NTc5MzY2MTI1LCJ5Ijo0NTh9XQ=="/><path d="M949.918,458L955.467,451.833C961.017,445.667,972.117,433.333,977.667,414C983.216,394.667,983.216,368.333,983.216,344C983.216,319.667,983.216,297.333,955.446,278.281C927.675,259.23,872.134,243.459,844.363,235.574L816.592,227.689" id="ModelSystem-cyclic-special-2" class="edge-thickness-normal edge-pattern-solid relation" style=";;;" data-edge="true" data-et="edge" data-id="ModelSystem-cyclic-special-2" data-points="W3sieCI6OTQ5LjkxNzY1NDU2NDEzMjYsInkiOjQ1OH0seyJ4Ijo5ODMuMjE2NDA2MjUwMzcyNSwieSI6NDIxfSx7IngiOjk4My4yMTY0MDYyNTAzNzI1LCJ5IjozNDJ9LHsieCI6OTgzLjIxNjQwNjI1MDM3MjUsInkiOjI3NX0seyJ4Ijo4MTAuODIwMzEyNSwieSI6MjI2LjA1MDA3MzMzNTM1NzU4fV0=" marker-end="url(#my-svg_class-dependencyEnd)"/><path d="M689.193,250L683.433,254.167C677.674,258.333,666.154,266.667,660.395,274C654.635,281.333,654.635,287.667,654.635,290.833L654.635,294" id="id_ModelSystem_ParticleState_7" class="edge-thickness-normal edge-pattern-solid relation" style=";;;" data-edge="true" data-et="edge" data-id="id_ModelSystem_ParticleState_7" data-points="W3sieCI6Njg5LjE5MjkzMzc2ODQyMzIsInkiOjI1MH0seyJ4Ijo2NTQuNjM1MTU2MjQ5NjI3NSwieSI6Mjc1fSx7IngiOjY1NC42MzUxNTYyNDk2Mjc1LCJ5IjozMDB9XQ==" marker-end="url(#my-svg_class-dependencyEnd)"/><path d="M790.216,250L794.479,254.167C798.741,258.333,807.266,266.667,811.529,274C815.791,281.333,815.791,287.667,815.791,290.833L815.791,294" id="id_ModelSystem_Symmetry_8" class="edge-thickness-normal edge-pattern-solid relation" style=";;;" data-edge="true" data-et="edge" data-id="id_ModelSystem_Symmetry_8" data-points="W3sieCI6NzkwLjIxNjI1NDY2Mzk0NTYsInkiOjI1MH0seyJ4Ijo4MTUuNzkxNDA2MjQ5NjI3NSwieSI6Mjc1fSx7IngiOjgxNS43OTE0MDYyNDk2Mjc1LCJ5IjozMDB9XQ==" marker-end="url(#my-svg_class-dependencyEnd)"/><path d="M588.789,92L588.789,98.167C588.789,104.333,588.789,116.667,581.645,129.434C574.501,142.202,560.213,155.404,553.069,162.006L545.925,168.607" id="id_Permittivity_KMesh_9" class="edge-thickness-normal edge-pattern-solid relation" style=";;;" data-edge="true" data-et="edge" data-id="id_Permittivity_KMesh_9" data-points="W3sieCI6NTg4Ljc4OTA2MjUsInkiOjkyfSx7IngiOjU4OC43ODkwNjI1LCJ5IjoxMjl9LHsieCI6NTQxLjUxNzk2ODc0OTYyNzUsInkiOjE3Mi42Nzg1ODIxOTgxMzA4fV0=" marker-end="url(#my-svg_class-dependencyEnd)"/><path d="M747.25,92L747.25,98.167C747.25,104.333,747.25,116.667,747.25,128C747.25,139.333,747.25,149.667,747.25,154.833L747.25,160" id="id_Simulation_ModelSystem_10" class="edge-thickness-normal edge-pattern-solid relation" style=";;;" data-edge="true" data-et="edge" data-id="id_Simulation_ModelSystem_10" data-points="W3sieCI6NzQ3LjI1LCJ5Ijo5Mn0seyJ4Ijo3NDcuMjUsInkiOjEyOX0seyJ4Ijo3NDcuMjUsInkiOjE2Nn1d" marker-end="url(#my-svg_class-dependencyEnd)"/></g><g class="edgeLabels"><g class="edgeLabel"><g class="label" data-id="id_BaseGreensFunction_KMesh_1" transform="translate(0, 0)"><foreignObject width="0" height="0"><div xmlns="http://www.w3.org/1999/xhtml" class="labelBkg" style="display: table-cell; white-space: nowrap; line-height: 1.5; max-width: 200px; text-align: center;"><span class="edgeLabel"></span></div></foreignObject></g></g><g class="edgeLabel"><g class="label" data-id="id_KSpace_KLinePath_2" transform="translate(0, 0)"><foreignObject width="0" height="0"><div xmlns="http://www.w3.org/1999/xhtml" class="labelBkg" style="display: table-cell; white-space: nowrap; line-height: 1.5; max-width: 200px; text-align: center;"><span class="edgeLabel"></span></div></foreignObject></g></g><g class="edgeLabel"><g class="label" data-id="id_KSpace_KMesh_3" transform="translate(0, 0)"><foreignObject width="0" height="0"><div xmlns="http://www.w3.org/1999/xhtml" class="labelBkg" style="display: table-cell; white-space: nowrap; line-height: 1.5; max-width: 200px; text-align: center;"><span class="edgeLabel"></span></div></foreignObject></g></g><g class="edgeLabel"><g class="label" data-id="id_ModelSystem_Cell_4" transform="translate(0, 0)"><foreignObject width="0" height="0"><div xmlns="http://www.w3.org/1999/xhtml" class="labelBkg" style="display: table-cell; white-space: nowrap; line-height: 1.5; max-width: 200px; text-align: center;"><span class="edgeLabel"></span></div></foreignObject></g></g><g class="edgeLabel"><g class="label" data-id="id_ModelSystem_ChemicalFormula_5" transform="translate(0, 0)"><foreignObject width="0" height="0"><div xmlns="http://www.w3.org/1999/xhtml" class="labelBkg" style="display: table-cell; white-space: nowrap; line-height: 1.5; max-width: 200px; text-align: center;"><span class="edgeLabel"></span></div></foreignObject></g></g><g class="edgeLabel"><g class="label" data-id="ModelSystem-cyclic-special-1" transform="translate(0, 0)"><foreignObject width="0" height="0"><div xmlns="http://www.w3.org/1999/xhtml" class="labelBkg" style="display: table-cell; white-space: nowrap; line-height: 1.5; max-width: 200px; text-align: center;"><span class="edgeLabel"></span></div></foreignObject></g></g><g class="edgeLabel" transform="translate(916.5289062503725, 421)"><g class="label" data-id="ModelSystem-cyclic-special-mid" transform="translate(-46.6875, -12)"><foreignObject width="93.375" height="24"><div xmlns="http://www.w3.org/1999/xhtml" class="labelBkg" style="display: table-cell; white-space: nowrap; line-height: 1.5; max-width: 200px; text-align: center;"><span class="edgeLabel"><p>sub_systems</p></span></div></foreignObject></g></g><g class="edgeLabel"><g class="label" data-id="ModelSystem-cyclic-special-2" transform="translate(0, 0)"><foreignObject width="0" height="0"><div xmlns="http://www.w3.org/1999/xhtml" class="labelBkg" style="display: table-cell; white-space: nowrap; line-height: 1.5; max-width: 200px; text-align: center;"><span class="edgeLabel"></span></div></foreignObject></g></g><g class="edgeLabel"><g class="label" data-id="id_ModelSystem_ParticleState_7" transform="translate(0, 0)"><foreignObject width="0" height="0"><div xmlns="http://www.w3.org/1999/xhtml" class="labelBkg" style="display: table-cell; white-space: nowrap; line-height: 1.5; max-width: 200px; text-align: center;"><span class="edgeLabel"></span></div></foreignObject></g></g><g class="edgeLabel"><g class="label" data-id="id_ModelSystem_Symmetry_8" transform="translate(0, 0)"><foreignObject width="0" height="0"><div xmlns="http://www.w3.org/1999/xhtml" class="labelBkg" style="display: table-cell; white-space: nowrap; line-height: 1.5; max-width: 200px; text-align: center;"><span class="edgeLabel"></span></div></foreignObject></g></g><g class="edgeLabel" transform="translate(588.7890625, 129)"><g class="label" data-id="id_Permittivity_KMesh_9" transform="translate(-28.4609375, -12)"><foreignObject width="56.921875" height="24"><div xmlns="http://www.w3.org/1999/xhtml" class="labelBkg" style="display: table-cell; white-space: nowrap; line-height: 1.5; max-width: 200px; text-align: center;"><span class="edgeLabel"><p>q_mesh</p></span></div></foreignObject></g></g><g class="edgeLabel"><g class="label" data-id="id_Simulation_ModelSystem_10" transform="translate(0, 0)"><foreignObject width="0" height="0"><div xmlns="http://www.w3.org/1999/xhtml" class="labelBkg" style="display: table-cell; white-space: nowrap; line-height: 1.5; max-width: 200px; text-align: center;"><span class="edgeLabel"></span></div></foreignObject></g></g></g><g class="nodes"><g class="node default" id="classId-AtomicCell-0" transform="translate(61.7890625, 50)"><g class="basic label-container"><path d="M-53.7890625 -42 L53.7890625 -42 L53.7890625 42 L-53.7890625 42" stroke="none" stroke-width="0" fill="#ECECFF" style=""/><path d="M-53.7890625 -42 C-28.524882743166504 -42, -3.2607029863330084 -42, 53.7890625 -42 M-53.7890625 -42 C-16.564265076639167 -42, 20.660532346721666 -42, 53.7890625 -42 M53.7890625 -42 C53.7890625 -16.264938295157584, 53.7890625 9.470123409684831, 53.7890625 42 M53.7890625 -42 C53.7890625 -21.169718453636342, 53.7890625 -0.3394369072726846, 53.7890625 42 M53.7890625 42 C24.758904502946223 42, -4.271253494107555 42, -53.7890625 42 M53.7890625 42 C24.402903096734146 42, -4.9832563065317075 42, -53.7890625 42 M-53.7890625 42 C-53.7890625 14.164770265271297, -53.7890625 -13.670459469457406, -53.7890625 -42 M-53.7890625 42 C-53.7890625 10.83861086707488, -53.7890625 -20.32277826585024, -53.7890625 -42" stroke="#9370DB" stroke-width="1.3" fill="none" stroke-dasharray="0 0" style=""/></g><g class="annotation-group text" transform="translate(0, -18)"/><g class="label-group text" transform="translate(-41.7890625, -18)"><g class="label" style="font-weight: bolder" transform="translate(0,-12)"><foreignObject width="83.578125" height="24"><div xmlns="http://www.w3.org/1999/xhtml" style="display: table-cell; white-space: nowrap; line-height: 1.5; max-width: 125px; text-align: center;"><span class="nodeLabel markdown-node-label" style=""><p>AtomicCell</p></span></div></foreignObject></g></g><g class="members-group text" transform="translate(-41.7890625, 30)"/><g class="methods-group text" transform="translate(-41.7890625, 60)"/><g class="divider" style=""><path d="M-53.7890625 6 C-11.094330540620454 6, 31.60040141875909 6, 53.7890625 6 M-53.7890625 6 C-11.484634758866669 6, 30.819792982266662 6, 53.7890625 6" stroke="#9370DB" stroke-width="1.3" fill="none" stroke-dasharray="0 0" style=""/></g></g><g class="node default" id="classId-BaseGreensFunction-1" transform="translate(258.046875, 50)"><g class="basic label-container"><path d="M-92.46875 -42 L92.46875 -42 L92.46875 42 L-92.46875 42" stroke="none" stroke-width="0" fill="#ECECFF" style=""/><path d="M-92.46875 -42 C-49.600782380850205 -42, -6.732814761700411 -42, 92.46875 -42 M-92.46875 -42 C-24.33914700592007 -42, 43.79045598815986 -42, 92.46875 -42 M92.46875 -42 C92.46875 -18.931761298680268, 92.46875 4.136477402639464, 92.46875 42 M92.46875 -42 C92.46875 -16.73852906145795, 92.46875 8.5229418770841, 92.46875 42 M92.46875 42 C20.42118525399883 42, -51.62637949200234 42, -92.46875 42 M92.46875 42 C48.787961974027574 42, 5.107173948055149 42, -92.46875 42 M-92.46875 42 C-92.46875 18.986159385496013, -92.46875 -4.027681229007975, -92.46875 -42 M-92.46875 42 C-92.46875 19.781660266725385, -92.46875 -2.4366794665492293, -92.46875 -42" stroke="#9370DB" stroke-width="1.3" fill="none" stroke-dasharray="0 0" style=""/></g><g class="annotation-group text" transform="translate(0, -18)"/><g class="label-group text" transform="translate(-80.46875, -18)"><g class="label" style="font-weight: bolder" transform="translate(0,-12)"><foreignObject width="160.9375" height="24"><div xmlns="http://www.w3.org/1999/xhtml" style="display: table-cell; white-space: nowrap; line-height: 1.5; max-width: 183px; text-align: center;"><span class="nodeLabel markdown-node-label" style=""><p>BaseGreensFunction</p></span></div></foreignObject></g></g><g class="members-group text" transform="translate(-80.46875, 30)"/><g class="methods-group text" transform="translate(-80.46875, 60)"/><g class="divider" style=""><path d="M-92.46875 6 C-47.81574044026625 6, -3.162730880532493 6, 92.46875 6 M-92.46875 6 C-44.37747801321038 6, 3.713793973579243 6, 92.46875 6" stroke="#9370DB" stroke-width="1.3" fill="none" stroke-dasharray="0 0" style=""/></g></g><g class="node default" id="classId-Cell-2" transform="translate(309.22890624962747, 342)"><g class="basic label-container"><path d="M-26.671875 -42 L26.671875 -42 L26.671875 42 L-26.671875 42" stroke="none" stroke-width="0" fill="#ECECFF" style=""/><path d="M-26.671875 -42 C-7.288101220258515 -42, 12.09567255948297 -42, 26.671875 -42 M-26.671875 -42 C-9.760141989488769 -42, 7.151591021022462 -42, 26.671875 -42 M26.671875 -42 C26.671875 -14.273509416040053, 26.671875 13.452981167919894, 26.671875 42 M26.671875 -42 C26.671875 -15.334450400558211, 26.671875 11.331099198883578, 26.671875 42 M26.671875 42 C5.565402842245575 42, -15.54106931550885 42, -26.671875 42 M26.671875 42 C7.761606667131463 42, -11.148661665737073 42, -26.671875 42 M-26.671875 42 C-26.671875 11.697560924073578, -26.671875 -18.604878151852844, -26.671875 -42 M-26.671875 42 C-26.671875 11.17871178960148, -26.671875 -19.64257642079704, -26.671875 -42" stroke="#9370DB" stroke-width="1.3" fill="none" stroke-dasharray="0 0" style=""/></g><g class="annotation-group text" transform="translate(0, -18)"/><g class="label-group text" transform="translate(-14.671875, -18)"><g class="label" style="font-weight: bolder" transform="translate(0,-12)"><foreignObject width="29.34375" height="24"><div xmlns="http://www.w3.org/1999/xhtml" style="display: table-cell; white-space: nowrap; line-height: 1.5; max-width: 77px; text-align: center;"><span class="nodeLabel markdown-node-label" style=""><p>Cell</p></span></div></foreignObject></g></g><g class="members-group text" transform="translate(-14.671875, 30)"/><g class="methods-group text" transform="translate(-14.671875, 60)"/><g class="divider" style=""><path d="M-26.671875 6 C-12.114579913335515 6, 2.4427151733289705 6, 26.671875 6 M-26.671875 6 C-8.257213300571621 6, 10.157448398856758 6, 26.671875 6" stroke="#9370DB" stroke-width="1.3" fill="none" stroke-dasharray="0 0" style=""/></g></g><g class="node default" id="classId-ChemicalFormula-3" transform="translate(465.03359374962747, 342)"><g class="basic label-container"><path d="M-79.1328125 -42 L79.1328125 -42 L79.1328125 42 L-79.1328125 42" stroke="none" stroke-width="0" fill="#ECECFF" style=""/><path d="M-79.1328125 -42 C-33.47514684994155 -42, 12.182518800116895 -42, 79.1328125 -42 M-79.1328125 -42 C-28.49852815596119 -42, 22.13575618807762 -42, 79.1328125 -42 M79.1328125 -42 C79.1328125 -14.518920088299957, 79.1328125 12.962159823400086, 79.1328125 42 M79.1328125 -42 C79.1328125 -11.067716684041986, 79.1328125 19.864566631916027, 79.1328125 42 M79.1328125 42 C35.3403412930531 42, -8.452129913893799 42, -79.1328125 42 M79.1328125 42 C18.93919243969357 42, -41.25442762061286 42, -79.1328125 42 M-79.1328125 42 C-79.1328125 18.109111381481448, -79.1328125 -5.7817772370371046, -79.1328125 -42 M-79.1328125 42 C-79.1328125 23.302459937035195, -79.1328125 4.60491987407039, -79.1328125 -42" stroke="#9370DB" stroke-width="1.3" fill="none" stroke-dasharray="0 0" style=""/></g><g class="annotation-group text" transform="translate(0, -18)"/><g class="label-group text" transform="translate(-67.1328125, -18)"><g class="label" style="font-weight: bolder" transform="translate(0,-12)"><foreignObject width="134.265625" height="24"><div xmlns="http://www.w3.org/1999/xhtml" style="display: table-cell; white-space: nowrap; line-height: 1.5; max-width: 166px; text-align: center;"><span class="nodeLabel markdown-node-label" style=""><p>ChemicalFormula</p></span></div></foreignObject></g></g><g class="members-group text" transform="translate(-67.1328125, 30)"/><g class="methods-group text" transform="translate(-67.1328125, 60)"/><g class="divider" style=""><path d="M-79.1328125 6 C-42.652200720579536 6, -6.171588941159072 6, 79.1328125 6 M-79.1328125 6 C-35.56474937262106 6, 8.003313754757883 6, 79.1328125 6" stroke="#9370DB" stroke-width="1.3" fill="none" stroke-dasharray="0 0" style=""/></g></g><g class="node default" id="classId-KLinePath-4" transform="translate(226.01015624962747, 208)"><g class="basic label-container"><path d="M-51.5625 -42 L51.5625 -42 L51.5625 42 L-51.5625 42" stroke="none" stroke-width="0" fill="#ECECFF" style=""/><path d="M-51.5625 -42 C-26.919559850849144 -42, -2.276619701698287 -42, 51.5625 -42 M-51.5625 -42 C-11.471067649636439 -42, 28.620364700727123 -42, 51.5625 -42 M51.5625 -42 C51.5625 -18.13478042240099, 51.5625 5.73043915519802, 51.5625 42 M51.5625 -42 C51.5625 -24.49687823023525, 51.5625 -6.9937564604705, 51.5625 42 M51.5625 42 C18.099126801707406 42, -15.364246396585187 42, -51.5625 42 M51.5625 42 C22.805930557899387 42, -5.950638884201226 42, -51.5625 42 M-51.5625 42 C-51.5625 16.08308369310269, -51.5625 -9.83383261379462, -51.5625 -42 M-51.5625 42 C-51.5625 19.974433489968593, -51.5625 -2.0511330200628137, -51.5625 -42" stroke="#9370DB" stroke-width="1.3" fill="none" stroke-dasharray="0 0" style=""/></g><g class="annotation-group text" transform="translate(0, -18)"/><g class="label-group text" transform="translate(-39.5625, -18)"><g class="label" style="font-weight: bolder" transform="translate(0,-12)"><foreignObject width="79.125" height="24"><div xmlns="http://www.w3.org/1999/xhtml" style="display: table-cell; white-space: nowrap; line-height: 1.5; max-width: 119px; text-align: center;"><span class="nodeLabel markdown-node-label" style=""><p>KLinePath</p></span></div></foreignObject></g></g><g class="members-group text" transform="translate(-39.5625, 30)"/><g class="methods-group text" transform="translate(-39.5625, 60)"/><g class="divider" style=""><path d="M-51.5625 6 C-25.626237415673547 6, 0.3100251686529063 6, 51.5625 6 M-51.5625 6 C-20.2772430439815 6, 11.008013912037 6, 51.5625 6" stroke="#9370DB" stroke-width="1.3" fill="none" stroke-dasharray="0 0" style=""/></g></g><g class="node default" id="classId-KMesh-5" transform="translate(503.29140624962747, 208)"><g class="basic label-container"><path d="M-38.2265625 -42 L38.2265625 -42 L38.2265625 42 L-38.2265625 42" stroke="none" stroke-width="0" fill="#ECECFF" style=""/><path d="M-38.2265625 -42 C-18.313244769632206 -42, 1.600072960735588 -42, 38.2265625 -42 M-38.2265625 -42 C-11.108453617068061 -42, 16.009655265863877 -42, 38.2265625 -42 M38.2265625 -42 C38.2265625 -16.91107855497115, 38.2265625 8.177842890057697, 38.2265625 42 M38.2265625 -42 C38.2265625 -17.72556427811318, 38.2265625 6.548871443773642, 38.2265625 42 M38.2265625 42 C9.192144232974329 42, -19.842274034051343 42, -38.2265625 42 M38.2265625 42 C21.86975511034273 42, 5.51294772068546 42, -38.2265625 42 M-38.2265625 42 C-38.2265625 12.994933308612293, -38.2265625 -16.010133382775415, -38.2265625 -42 M-38.2265625 42 C-38.2265625 18.74701487437953, -38.2265625 -4.505970251240939, -38.2265625 -42" stroke="#9370DB" stroke-width="1.3" fill="none" stroke-dasharray="0 0" style=""/></g><g class="annotation-group text" transform="translate(0, -18)"/><g class="label-group text" transform="translate(-26.2265625, -18)"><g class="label" style="font-weight: bolder" transform="translate(0,-12)"><foreignObject width="52.453125" height="24"><div xmlns="http://www.w3.org/1999/xhtml" style="display: table-cell; white-space: nowrap; line-height: 1.5; max-width: 97px; text-align: center;"><span class="nodeLabel markdown-node-label" style=""><p>KMesh</p></span></div></foreignObject></g></g><g class="members-group text" transform="translate(-26.2265625, 30)"/><g class="methods-group text" transform="translate(-26.2265625, 60)"/><g class="divider" style=""><path d="M-38.2265625 6 C-20.206220634393137 6, -2.1858787687862744 6, 38.2265625 6 M-38.2265625 6 C-8.005674075029596 6, 22.21521434994081 6, 38.2265625 6" stroke="#9370DB" stroke-width="1.3" fill="none" stroke-dasharray="0 0" style=""/></g></g><g class="node default" id="classId-KSpace-6" transform="translate(441.8671875, 50)"><g class="basic label-container"><path d="M-41.3515625 -42 L41.3515625 -42 L41.3515625 42 L-41.3515625 42" stroke="none" stroke-width="0" fill="#ECECFF" style=""/><path d="M-41.3515625 -42 C-8.675531228373075 -42, 24.00050004325385 -42, 41.3515625 -42 M-41.3515625 -42 C-18.192661004262586 -42, 4.966240491474828 -42, 41.3515625 -42 M41.3515625 -42 C41.3515625 -9.95825632684555, 41.3515625 22.0834873463089, 41.3515625 42 M41.3515625 -42 C41.3515625 -18.444135118907163, 41.3515625 5.111729762185675, 41.3515625 42 M41.3515625 42 C24.786166794168608 42, 8.220771088337216 42, -41.3515625 42 M41.3515625 42 C14.917309166228065 42, -11.516944167543869 42, -41.3515625 42 M-41.3515625 42 C-41.3515625 9.21508966896998, -41.3515625 -23.56982066206004, -41.3515625 -42 M-41.3515625 42 C-41.3515625 13.423106923498416, -41.3515625 -15.153786153003168, -41.3515625 -42" stroke="#9370DB" stroke-width="1.3" fill="none" stroke-dasharray="0 0" style=""/></g><g class="annotation-group text" transform="translate(0, -18)"/><g class="label-group text" transform="translate(-29.3515625, -18)"><g class="label" style="font-weight: bolder" transform="translate(0,-12)"><foreignObject width="58.703125" height="24"><div xmlns="http://www.w3.org/1999/xhtml" style="display: table-cell; white-space: nowrap; line-height: 1.5; max-width: 100px; text-align: center;"><span class="nodeLabel markdown-node-label" style=""><p>KSpace</p></span></div></foreignObject></g></g><g class="members-group text" transform="translate(-29.3515625, 30)"/><g class="methods-group text" transform="translate(-29.3515625, 60)"/><g class="divider" style=""><path d="M-41.3515625 6 C-19.281137930321233 6, 2.7892866393575346 6, 41.3515625 6 M-41.3515625 6 C-10.003995843763903 6, 21.343570812472194 6, 41.3515625 6" stroke="#9370DB" stroke-width="1.3" fill="none" stroke-dasharray="0 0" style=""/></g></g><g class="node default" id="classId-ModelSystem-7" transform="translate(747.25, 208)"><g class="basic label-container"><path d="M-63.5703125 -42 L63.5703125 -42 L63.5703125 42 L-63.5703125 42" stroke="none" stroke-width="0" fill="#ECECFF" style=""/><path d="M-63.5703125 -42 C-26.654287395804715 -42, 10.26173770839057 -42, 63.5703125 -42 M-63.5703125 -42 C-30.332303850645104 -42, 2.9057047987097917 -42, 63.5703125 -42 M63.5703125 -42 C63.5703125 -22.64754966154654, 63.5703125 -3.2950993230930834, 63.5703125 42 M63.5703125 -42 C63.5703125 -10.552940269444562, 63.5703125 20.894119461110876, 63.5703125 42 M63.5703125 42 C26.479767170798773 42, -10.610778158402454 42, -63.5703125 42 M63.5703125 42 C24.856932699712665 42, -13.85644710057467 42, -63.5703125 42 M-63.5703125 42 C-63.5703125 17.533295607972654, -63.5703125 -6.933408784054691, -63.5703125 -42 M-63.5703125 42 C-63.5703125 14.034185053949589, -63.5703125 -13.931629892100823, -63.5703125 -42" stroke="#9370DB" stroke-width="1.3" fill="none" stroke-dasharray="0 0" style=""/></g><g class="annotation-group text" transform="translate(0, -18)"/><g class="label-group text" transform="translate(-51.5703125, -18)"><g class="label" style="font-weight: bolder" transform="translate(0,-12)"><foreignObject width="103.140625" height="24"><div xmlns="http://www.w3.org/1999/xhtml" style="display: table-cell; white-space: nowrap; line-height: 1.5; max-width: 139px; text-align: center;"><span class="nodeLabel markdown-node-label" style=""><p>ModelSystem</p></span></div></foreignObject></g></g><g class="members-group text" transform="translate(-51.5703125, 30)"/><g class="methods-group text" transform="translate(-51.5703125, 60)"/><g class="divider" style=""><path d="M-63.5703125 6 C-15.10916962257884 6, 33.35197325484232 6, 63.5703125 6 M-63.5703125 6 C-31.528593017684535 6, 0.513126464630929 6, 63.5703125 6" stroke="#9370DB" stroke-width="1.3" fill="none" stroke-dasharray="0 0" style=""/></g></g><g class="node default" id="classId-ParticleState-8" transform="translate(654.6351562496275, 342)"><g class="basic label-container"><path d="M-60.46875 -42 L60.46875 -42 L60.46875 42 L-60.46875 42" stroke="none" stroke-width="0" fill="#ECECFF" style=""/><path d="M-60.46875 -42 C-35.949003321246096 -42, -11.429256642492184 -42, 60.46875 -42 M-60.46875 -42 C-17.239630936115695 -42, 25.98948812776861 -42, 60.46875 -42 M60.46875 -42 C60.46875 -12.381779674125, 60.46875 17.23644065175, 60.46875 42 M60.46875 -42 C60.46875 -23.5998940243183, 60.46875 -5.199788048636599, 60.46875 42 M60.46875 42 C36.101349805935556 42, 11.733949611871104 42, -60.46875 42 M60.46875 42 C31.509279679186662 42, 2.5498093583733237 42, -60.46875 42 M-60.46875 42 C-60.46875 18.0712010807383, -60.46875 -5.857597838523397, -60.46875 -42 M-60.46875 42 C-60.46875 16.32548018716545, -60.46875 -9.3490396256691, -60.46875 -42" stroke="#9370DB" stroke-width="1.3" fill="none" stroke-dasharray="0 0" style=""/></g><g class="annotation-group text" transform="translate(0, -18)"/><g class="label-group text" transform="translate(-48.46875, -18)"><g class="label" style="font-weight: bolder" transform="translate(0,-12)"><foreignObject width="96.9375" height="24"><div xmlns="http://www.w3.org/1999/xhtml" style="display: table-cell; white-space: nowrap; line-height: 1.5; max-width: 131px; text-align: center;"><span class="nodeLabel markdown-node-label" style=""><p>ParticleState</p></span></div></foreignObject></g></g><g class="members-group text" transform="translate(-48.46875, 30)"/><g class="methods-group text" transform="translate(-48.46875, 60)"/><g class="divider" style=""><path d="M-60.46875 6 C-30.387925269811024 6, -0.30710053962204853 6, 60.46875 6 M-60.46875 6 C-15.037953540765542 6, 30.392842918468915 6, 60.46875 6" stroke="#9370DB" stroke-width="1.3" fill="none" stroke-dasharray="0 0" style=""/></g></g><g class="node default" id="classId-Permittivity-9" transform="translate(588.7890625, 50)"><g class="basic label-container"><path d="M-55.5703125 -42 L55.5703125 -42 L55.5703125 42 L-55.5703125 42" stroke="none" stroke-width="0" fill="#ECECFF" style=""/><path d="M-55.5703125 -42 C-20.596679724316466 -42, 14.376953051367067 -42, 55.5703125 -42 M-55.5703125 -42 C-28.448300433737437 -42, -1.3262883674748736 -42, 55.5703125 -42 M55.5703125 -42 C55.5703125 -25.0218188794256, 55.5703125 -8.043637758851197, 55.5703125 42 M55.5703125 -42 C55.5703125 -13.47260235829837, 55.5703125 15.054795283403259, 55.5703125 42 M55.5703125 42 C14.720420563225254 42, -26.129471373549492 42, -55.5703125 42 M55.5703125 42 C30.315255100103492 42, 5.0601977002069845 42, -55.5703125 42 M-55.5703125 42 C-55.5703125 16.038078859728262, -55.5703125 -9.923842280543475, -55.5703125 -42 M-55.5703125 42 C-55.5703125 17.794209202680342, -55.5703125 -6.4115815946393155, -55.5703125 -42" stroke="#9370DB" stroke-width="1.3" fill="none" stroke-dasharray="0 0" style=""/></g><g class="annotation-group text" transform="translate(0, -18)"/><g class="label-group text" transform="translate(-43.5703125, -18)"><g class="label" style="font-weight: bolder" transform="translate(0,-12)"><foreignObject width="87.140625" height="24"><div xmlns="http://www.w3.org/1999/xhtml" style="display: table-cell; white-space: nowrap; line-height: 1.5; max-width: 126px; text-align: center;"><span class="nodeLabel markdown-node-label" style=""><p>Permittivity</p></span></div></foreignObject></g></g><g class="members-group text" transform="translate(-43.5703125, 30)"/><g class="methods-group text" transform="translate(-43.5703125, 60)"/><g class="divider" style=""><path d="M-55.5703125 6 C-21.80512058204009 6, 11.960071335919821 6, 55.5703125 6 M-55.5703125 6 C-19.366527371105676 6, 16.83725775778865 6, 55.5703125 6" stroke="#9370DB" stroke-width="1.3" fill="none" stroke-dasharray="0 0" style=""/></g></g><g class="node default" id="classId-Simulation-10" transform="translate(747.25, 50)"><g class="basic label-container"><path d="M-52.890625 -42 L52.890625 -42 L52.890625 42 L-52.890625 42" stroke="none" stroke-width="0" fill="#ECECFF" style=""/><path d="M-52.890625 -42 C-31.372057472031955 -42, -9.85348994406391 -42, 52.890625 -42 M-52.890625 -42 C-16.619610391426058 -42, 19.651404217147885 -42, 52.890625 -42 M52.890625 -42 C52.890625 -11.170174531289842, 52.890625 19.659650937420317, 52.890625 42 M52.890625 -42 C52.890625 -16.130923140643965, 52.890625 9.73815371871207, 52.890625 42 M52.890625 42 C27.21064136984957 42, 1.5306577396991372 42, -52.890625 42 M52.890625 42 C26.30063696233697 42, -0.28935107532605997 42, -52.890625 42 M-52.890625 42 C-52.890625 16.51447003305462, -52.890625 -8.971059933890757, -52.890625 -42 M-52.890625 42 C-52.890625 9.88764561880405, -52.890625 -22.2247087623919, -52.890625 -42" stroke="#9370DB" stroke-width="1.3" fill="none" stroke-dasharray="0 0" style=""/></g><g class="annotation-group text" transform="translate(0, -18)"/><g class="label-group text" transform="translate(-40.890625, -18)"><g class="label" style="font-weight: bolder" transform="translate(0,-12)"><foreignObject width="81.78125" height="24"><div xmlns="http://www.w3.org/1999/xhtml" style="display: table-cell; white-space: nowrap; line-height: 1.5; max-width: 120px; text-align: center;"><span class="nodeLabel markdown-node-label" style=""><p>Simulation</p></span></div></foreignObject></g></g><g class="members-group text" transform="translate(-40.890625, 30)"/><g class="methods-group text" transform="translate(-40.890625, 60)"/><g class="divider" style=""><path d="M-52.890625 6 C-25.671128730629054 6, 1.5483675387418927 6, 52.890625 6 M-52.890625 6 C-26.906169364613806 6, -0.9217137292276121 6, 52.890625 6" stroke="#9370DB" stroke-width="1.3" fill="none" stroke-dasharray="0 0" style=""/></g></g><g class="node default" id="classId-Symmetry-11" transform="translate(815.7914062496275, 342)"><g class="basic label-container"><path d="M-50.6875 -42 L50.6875 -42 L50.6875 42 L-50.6875 42" stroke="none" stroke-width="0" fill="#ECECFF" style=""/><path d="M-50.6875 -42 C-11.875576311360831 -42, 26.936347377278338 -42, 50.6875 -42 M-50.6875 -42 C-16.927290591101553 -42, 16.832918817796894 -42, 50.6875 -42 M50.6875 -42 C50.6875 -13.85054806448748, 50.6875 14.29890387102504, 50.6875 42 M50.6875 -42 C50.6875 -12.878076989864827, 50.6875 16.243846020270347, 50.6875 42 M50.6875 42 C13.68665416824679 42, -23.31419166350642 42, -50.6875 42 M50.6875 42 C29.144968088847133 42, 7.6024361776942655 42, -50.6875 42 M-50.6875 42 C-50.6875 25.13597480363503, -50.6875 8.27194960727006, -50.6875 -42 M-50.6875 42 C-50.6875 11.798823885365685, -50.6875 -18.40235222926863, -50.6875 -42" stroke="#9370DB" stroke-width="1.3" fill="none" stroke-dasharray="0 0" style=""/></g><g class="annotation-group text" transform="translate(0, -18)"/><g class="label-group text" transform="translate(-38.6875, -18)"><g class="label" style="font-weight: bolder" transform="translate(0,-12)"><foreignObject width="77.375" height="24"><div xmlns="http://www.w3.org/1999/xhtml" style="display: table-cell; white-space: nowrap; line-height: 1.5; max-width: 117px; text-align: center;"><span class="nodeLabel markdown-node-label" style=""><p>Symmetry</p></span></div></foreignObject></g></g><g class="members-group text" transform="translate(-38.6875, 30)"/><g class="methods-group text" transform="translate(-38.6875, 60)"/><g class="divider" style=""><path d="M-50.6875 6 C-18.18078538375358 6, 14.32592923249284 6, 50.6875 6 M-50.6875 6 C-17.274991327976835 6, 16.13751734404633 6, 50.6875 6" stroke="#9370DB" stroke-width="1.3" fill="none" stroke-dasharray="0 0" style=""/></g></g><g class="node default" id="classId-System-12" transform="translate(890.6015625, 50)"><g class="basic label-container"><path d="M-40.4609375 -42 L40.4609375 -42 L40.4609375 42 L-40.4609375 42" stroke="none" stroke-width="0" fill="#ECECFF" style=""/><path d="M-40.4609375 -42 C-17.816522062800768 -42, 4.827893374398464 -42, 40.4609375 -42 M-40.4609375 -42 C-14.036415304771829 -42, 12.388106890456342 -42, 40.4609375 -42 M40.4609375 -42 C40.4609375 -24.04408700948225, 40.4609375 -6.0881740189645015, 40.4609375 42 M40.4609375 -42 C40.4609375 -20.829446023481218, 40.4609375 0.34110795303756447, 40.4609375 42 M40.4609375 42 C10.96489987662062 42, -18.53113774675876 42, -40.4609375 42 M40.4609375 42 C21.83674510927549 42, 3.212552718550981 42, -40.4609375 42 M-40.4609375 42 C-40.4609375 23.27049026570375, -40.4609375 4.540980531407499, -40.4609375 -42 M-40.4609375 42 C-40.4609375 16.24564223555897, -40.4609375 -9.508715528882057, -40.4609375 -42" stroke="#9370DB" stroke-width="1.3" fill="none" stroke-dasharray="0 0" style=""/></g><g class="annotation-group text" transform="translate(0, -18)"/><g class="label-group text" transform="translate(-28.4609375, -18)"><g class="label" style="font-weight: bolder" transform="translate(0,-12)"><foreignObject width="56.921875" height="24"><div xmlns="http://www.w3.org/1999/xhtml" style="display: table-cell; white-space: nowrap; line-height: 1.5; max-width: 98px; text-align: center;"><span class="nodeLabel markdown-node-label" style=""><p>System</p></span></div></foreignObject></g></g><g class="members-group text" transform="translate(-28.4609375, 30)"/><g class="methods-group text" transform="translate(-28.4609375, 60)"/><g class="divider" style=""><path d="M-40.4609375 6 C-13.582792157561599 6, 13.295353184876802 6, 40.4609375 6 M-40.4609375 6 C-23.766703734907896 6, -7.072469969815792 6, 40.4609375 6" stroke="#9370DB" stroke-width="1.3" fill="none" stroke-dasharray="0 0" style=""/></g></g><g class="label edgeLabel" id="ModelSystem---ModelSystem---1" transform="translate(916.5289062503725, 342)"><rect width="0.1" height="0.1"/><g class="label" style="" transform="translate(0, 0)"><rect/><foreignObject width="0" height="0"><div xmlns="http://www.w3.org/1999/xhtml" style="display: table-cell; white-space: nowrap; line-height: 1.5; max-width: 10px; text-align: center;"><span class="nodeLabel"></span></div></foreignObject></g></g><g class="label edgeLabel" id="ModelSystem---ModelSystem---2" transform="translate(949.8726562503725, 458.05000000074506)"><rect width="0.1" height="0.1"/><g class="label" style="" transform="translate(0, 0)"><rect/><foreignObject width="0" height="0"><div xmlns="http://www.w3.org/1999/xhtml" style="display: table-cell; white-space: nowrap; line-height: 1.5; max-width: 10px; text-align: center;"><span class="nodeLabel"></span></div></foreignObject></g></g></g></g></g></svg>