<?xml version="1.0" encoding="UTF-8"?>
<svg id="my-svg" width="100%" xmlns="http://www.w3.org/2000/svg" xmlns:xlink="http://www.w3.org/1999/xlink" class="classDiagram" style="max-width: 146.953px; background-color: white;" viewBox="0 0 146.953125 258" role="graphics-document document" aria-roledescription="class"><style>#my-svg{font-family:"trebuchet ms",verdana,arial,sans-serif;font-size:16px;fill:#333;}@keyframes edge-animation-frame{from{stroke-dashoffset:0;}}@keyframes dash{to{stroke-dashoffset:0;}}#my-svg .edge-animation-slow{stroke-dasharray:9,5!important;stroke-dashoffset:900;animation:dash 50s linear infinite;stroke-linecap:round;}#my-svg .edge-animation-fast{stroke-dasharray:9,5!important;stroke-dashoffset:900;animation:dash 20s linear infinite;stroke-linecap:round;}#my-svg .error-icon{fill:#552222;}#my-svg .error-text{fill:#552222;stroke:#552222;}#my-svg .edge-thickness-normal{stroke-width:1px;}#my-svg .edge-thickness-thick{stroke-width:3.5px;}#my-svg .edge-pattern-solid{stroke-dasharray:0;}#my-svg .edge-thickness-invisible{stroke-width:0;fill:none;}#my-svg .edge-pattern-dashed{stroke-dasharray:3;}#my-svg .edge-pattern-dotted{stroke-dasharray:2;}#my-svg .marker{fill:#333333;stroke:#333333;}#my-svg .marker.cross{stroke:#333333;}#my-svg svg{font-family:"trebuchet ms",verdana,arial,sans-serif;font-size:16px;}#my-svg p{margin:0;}#my-svg g.classGroup text{fill:#9370DB;stroke:none;font-family:"trebuchet ms",verdana,arial,sans-serif;font-size:10px;}#my-svg g.classGroup text .title{font-weight:bolder;}#my-svg .nodeLabel,#my-svg .edgeLabel{color:#131300;}#my-svg .edgeLabel .label rect{fill:#ECECFF;}#my-svg .label text{fill:#131300;}#my-svg .labelBkg{background:#ECECFF;}#my-svg .edgeLabel .label span{background:#ECECFF;}#my-svg .classTitle{font-weight:bolder;}#my-svg .node rect,#my-svg .node circle,#my-svg .node ellipse,#my-svg .node polygon,#my-svg .node path{fill:#ECECFF;stroke:#9370DB;stroke-width:1px;}#my-svg .divider{stroke:#9370DB;stroke-width:1;}#my-svg g.clickable{cursor:pointer;}#my-svg g.classGroup rect{fill:#ECECFF;stroke:#9370DB;}#my-svg g.classGroup line{stroke:#9370DB;stroke-width:1;}#my-svg .classLabel .box{stroke:none;stroke-width:0;fill:#ECECFF;opacity:0.5;}#my-svg .classLabel .label{fill:#9370DB;font-size:10px;}#my-svg .relation{stroke:#333333;stroke-width:1;fill:none;}#my-svg .dashed-line{stroke-dasharray:3;}#my-svg .dotted-line{stroke-dasharray:1 2;}#my-svg #compositionStart,#my-svg .composition{fill:#333333!important;stroke:#333333!important;stroke-width:1;}#my-svg #compositionEnd,#my-svg .composition{fill:#333333!important;stroke:#333333!important;stroke-width:1;}#my-svg #dependencyStart,#my-svg .dependency{fill:#333333!important;stroke:#333333!important;stroke-width:1;}#my-svg #dependencyStart,#my-svg .dependency{fill:#333333!important;stroke:#333333!important;stroke-width:1;}#my-svg #extensionStart,#my-svg .extension{fill:transparent!important;stroke:#333333!important;stroke-width:1;}#my-svg #extensionEnd,#my-svg .extension{fill:transparent!important;stroke:#333333!important;stroke-width:1;}#my-svg #aggregationStart,#my-svg .aggregation{fill:transparent!important;stroke:#333333!important;stroke-width:1;}#my-svg #aggregationEnd,#my-svg .aggregation{fill:transparent!important;stroke:#333333!important;stroke-width:1;}#my-svg #lollipopStart,#my-svg .lollipop{fill:#ECECFF!important;stroke:#333333!important;stroke-width:1;}#my-svg #lollipopEnd,#my-svg .lollipop{fill:#ECECFF!important;stroke:#333333!important;stroke-width:1;}#my-svg .edgeTerminals{font-size:11px;line-height:initial;}#my-svg .classTitleText{text-anchor:middle;font-size:18px;fill:#333;}#my-svg .label-icon{display:inline-block;height:1em;overflow:visible;vertical-align:-0.125em;}#my-svg .node .label-icon path{fill:currentColor;stroke:revert;stroke-width:revert;}#my-svg :root{--mermaid-font-family:"trebuchet ms",verdana,arial,sans-serif;}</style><g><defs><marker id="my-svg_class-aggregationStart" class="marker aggregation class" refX="18" refY="7" markerWidth="190" markerHeight="240" orient="auto"><path d="M 18,7 L9,13 L1,7 L9,1 Z"/></marker></defs><defs><marker id="my-svg_class-aggregationEnd" class="marker aggregation class" refX="1" refY="7" markerWidth="20" markerHeight="28" orient="auto"><path d="M 18,7 L9,13 L1,7 L9,1 Z"/></marker></defs><defs><marker id="my-svg_class-extensionStart" class="marker extension class" refX="18" refY="7" markerWidth="190" markerHeight="240" orient="auto"><path d="M 1,7 L18,13 V 1 Z"/></marker></defs><defs><marker id="my-svg_class-extensionEnd" class="marker extension class" refX="1" refY="7" markerWidth="20" markerHeight="28" orient="auto"><path d="M 1,1 V 13 L18,7 Z"/></marker></defs><defs><marker id="my-svg_class-compositionStart" class="marker composition class" refX="18" refY="7" markerWidth="190" markerHeight="240" orient="auto"><path d="M 18,7 L9,13 L1,7 L9,1 Z"/></marker></defs><defs><marker id="my-svg_class-compositionEnd" class="marker composition class" refX="1" refY="7" markerWidth="20" markerHeight="28" orient="auto"><path d="M 18,7 L9,13 L1,7 L9,1 Z"/></marker></defs><defs><marker id="my-svg_class-dependencyStart" class="marker dependency class" refX="6" refY="7" markerWidth="190" markerHeight="240" orient="auto"><path d="M 5,7 L9,13 L1,7 L9,1 Z"/></marker></defs><defs><marker id="my-svg_class-dependencyEnd" class="marker dependency class" refX="13" refY="7" markerWidth="20" markerHeight="28" orient="auto"><path d="M 18,7 L9,13 L14,7 L9,1 Z"/></marker></defs><defs><marker id="my-svg_class-lollipopStart" class="marker lollipop class" refX="13" refY="7" markerWidth="190" markerHeight="240" orient="auto"><circle stroke="black" fill="transparent" cx="7" cy="7" r="6"/></marker></defs><defs><marker id="my-svg_class-lollipopEnd" class="marker lollipop class" refX="1" refY="7" markerWidth="190" markerHeight="240" orient="auto"><circle stroke="black" fill="transparent" cx="7" cy="7" r="6"/></marker></defs><g class="root"><g class="clusters"/><g class="edgePaths"><path d="M36.946,107.94L35.494,111.45C34.042,114.96,31.138,121.98,32.237,131.657C33.336,141.333,38.438,153.667,40.989,159.833L43.54,166" id="id_BaseForce_TotalForce_1" class="edge-thickness-normal edge-pattern-solid relation" style=";;;" data-edge="true" data-et="edge" data-id="id_BaseForce_TotalForce_1" data-points="W3sieCI6NDMuNTQwMDUxNDI0MDUwNjMsInkiOjkyfSx7IngiOjI4LjIzNDM3NSwieSI6MTI5fSx7IngiOjQzLjU0MDA1MTQyNDA1MDYzLCJ5IjoxNjZ9XQ==" marker-start="url(#my-svg_class-extensionStart)"/><path d="M78.288,166L80.839,159.833C83.39,153.667,88.492,141.333,88.874,129.924C89.256,118.515,84.919,108.03,82.75,102.787L80.582,97.544" id="id_TotalForce_BaseForce_2" class="edge-thickness-normal edge-pattern-solid relation" style=";;;" data-edge="true" data-et="edge" data-id="id_TotalForce_BaseForce_2" data-points="W3sieCI6NzguMjg4MDczNTc1OTQ5MzcsInkiOjE2Nn0seyJ4Ijo5My41OTM3NSwieSI6MTI5fSx7IngiOjc4LjI4ODA3MzU3NTk0OTM3LCJ5Ijo5Mn1d" marker-end="url(#my-svg_class-dependencyEnd)"/></g><g class="edgeLabels"><g class="edgeLabel"><g class="label" data-id="id_BaseForce_TotalForce_1" transform="translate(0, 0)"><foreignObject width="0" height="0"><div xmlns="http://www.w3.org/1999/xhtml" class="labelBkg" style="display: table-cell; white-space: nowrap; line-height: 1.5; max-width: 200px; text-align: center;"><span class="edgeLabel"></span></div></foreignObject></g></g><g class="edgeLabel" transform="translate(93.59375, 129)"><g class="label" data-id="id_TotalForce_BaseForce_2" transform="translate(-45.359375, -12)"><foreignObject width="90.71875" height="24"><div xmlns="http://www.w3.org/1999/xhtml" class="labelBkg" style="display: table-cell; white-space: nowrap; line-height: 1.5; max-width: 200px; text-align: center;"><span class="edgeLabel"><p>contributions</p></span></div></foreignObject></g></g></g><g class="nodes"><g class="node default" id="classId-BaseForce-0" transform="translate(60.9140625, 50)"><g class="basic label-container"><path d="M-52.9140625 -42 L52.9140625 -42 L52.9140625 42 L-52.9140625 42" stroke="none" stroke-width="0" fill="#ECECFF" style=""/><path d="M-52.9140625 -42 C-20.20374708846267 -42, 12.50656832307466 -42, 52.9140625 -42 M-52.9140625 -42 C-13.54124089872034 -42, 25.83158070255932 -42, 52.9140625 -42 M52.9140625 -42 C52.9140625 -25.10264965980014, 52.9140625 -8.205299319600279, 52.9140625 42 M52.9140625 -42 C52.9140625 -8.644185638002632, 52.9140625 24.711628723994735, 52.9140625 42 M52.9140625 42 C20.34070038309045 42, -12.2326617338191 42, -52.9140625 42 M52.9140625 42 C22.314643886813446 42, -8.284774726373108 42, -52.9140625 42 M-52.9140625 42 C-52.9140625 15.15695512002727, -52.9140625 -11.68608975994546, -52.9140625 -42 M-52.9140625 42 C-52.9140625 10.185849390078253, -52.9140625 -21.628301219843493, -52.9140625 -42" stroke="#9370DB" stroke-width="1.3" fill="none" stroke-dasharray="0 0" style=""/></g><g class="annotation-group text" transform="translate(0, -18)"/><g class="label-group text" transform="translate(-40.9140625, -18)"><g class="label" style="font-weight: bolder" transform="translate(0,-12)"><foreignObject width="81.828125" height="24"><div xmlns="http://www.w3.org/1999/xhtml" style="display: table-cell; white-space: nowrap; line-height: 1.5; max-width: 118px; text-align: center;"><span class="nodeLabel markdown-node-label" style=""><p>BaseForce</p></span></div></foreignObject></g></g><g class="members-group text" transform="translate(-40.9140625, 30)"/><g class="methods-group text" transform="translate(-40.9140625, 60)"/><g class="divider" style=""><path d="M-52.9140625 6 C-19.709419007073173 6, 13.495224485853655 6, 52.9140625 6 M-52.9140625 6 C-27.80567845354873 6, -2.697294407097459 6, 52.9140625 6" stroke="#9370DB" stroke-width="1.3" fill="none" stroke-dasharray="0 0" style=""/></g></g><g class="node default" id="classId-TotalForce-1" transform="translate(60.9140625, 208)"><g class="basic label-container"><path d="M-52.3046875 -42 L52.3046875 -42 L52.3046875 42 L-52.3046875 42" stroke="none" stroke-width="0" fill="#ECECFF" style=""/><path d="M-52.3046875 -42 C-26.682856155920046 -42, -1.0610248118400918 -42, 52.3046875 -42 M-52.3046875 -42 C-24.358182637006056 -42, 3.5883222259878877 -42, 52.3046875 -42 M52.3046875 -42 C52.3046875 -24.646563725639105, 52.3046875 -7.29312745127821, 52.3046875 42 M52.3046875 -42 C52.3046875 -20.665241230234795, 52.3046875 0.6695175395304105, 52.3046875 42 M52.3046875 42 C17.46303438672571 42, -17.37861872654858 42, -52.3046875 42 M52.3046875 42 C27.552232610590433 42, 2.7997777211808668 42, -52.3046875 42 M-52.3046875 42 C-52.3046875 15.115923207541158, -52.3046875 -11.768153584917684, -52.3046875 -42 M-52.3046875 42 C-52.3046875 20.70851805174755, -52.3046875 -0.5829638965049, -52.3046875 -42" stroke="#9370DB" stroke-width="1.3" fill="none" stroke-dasharray="0 0" style=""/></g><g class="annotation-group text" transform="translate(0, -18)"/><g class="label-group text" transform="translate(-40.3046875, -18)"><g class="label" style="font-weight: bolder" transform="translate(0,-12)"><foreignObject width="80.609375" height="24"><div xmlns="http://www.w3.org/1999/xhtml" style="display: table-cell; white-space: nowrap; line-height: 1.5; max-width: 119px; text-align: center;"><span class="nodeLabel markdown-node-label" style=""><p>TotalForce</p></span></div></foreignObject></g></g><g class="members-group text" transform="translate(-40.3046875, 30)"/><g class="methods-group text" transform="translate(-40.3046875, 60)"/><g class="divider" style=""><path d="M-52.3046875 6 C-30.70076125487903 6, -9.09683500975806 6, 52.3046875 6 M-52.3046875 6 C-29.276763428810614 6, -6.248839357621229 6, 52.3046875 6" stroke="#9370DB" stroke-width="1.3" fill="none" stroke-dasharray="0 0" style=""/></g></g></g></g></g></svg>