<?xml version="1.0" encoding="UTF-8"?>
<svg id="my-svg" width="100%" xmlns="http://www.w3.org/2000/svg" xmlns:xlink="http://www.w3.org/1999/xlink" class="classDiagram" style="max-width: 146.953px; background-color: white;" viewBox="0 0 146.953125 258" role="graphics-document document" aria-roledescription="class"><style>#my-svg{font-family:"trebuchet ms",verdana,arial,sans-serif;font-size:16px;fill:#333;}@keyframes edge-animation-frame{from{stroke-dashoffset:0;}}@keyframes dash{to{stroke-dashoffset:0;}}#my-svg .edge-animation-slow{stroke-dasharray:9,5!important;stroke-dashoffset:900;animation:dash 50s linear infinite;stroke-linecap:round;}#my-svg .edge-animation-fast{stroke-dasharray:9,5!important;stroke-dashoffset:900;animation:dash 20s linear infinite;stroke-linecap:round;}#my-svg .error-icon{fill:#552222;}#my-svg .error-text{fill:#552222;stroke:#552222;}#my-svg .edge-thickness-normal{stroke-width:1px;}#my-svg .edge-thickness-thick{stroke-width:3.5px;}#my-svg .edge-pattern-solid{stroke-dasharray:0;}#my-svg .edge-thickness-invisible{stroke-width:0;fill:none;}#my-svg .edge-pattern-dashed{stroke-dasharray:3;}#my-svg .edge-pattern-dotted{stroke-dasharray:2;}#my-svg .marker{fill:#333333;stroke:#333333;}#my-svg .marker.cross{stroke:#333333;}#my-svg svg{font-family:"trebuchet ms",verdana,arial,sans-serif;font-size:16px;}#my-svg p{margin:0;}#my-svg g.classGroup text{fill:#9370DB;stroke:none;font-family:"trebuchet ms",verdana,arial,sans-serif;font-size:10px;}#my-svg g.classGroup text .title{font-weight:bolder;}#my-svg .nodeLabel,#my-svg .edgeLabel{color:#131300;}#my-svg .edgeLabel .label rect{fill:#ECECFF;}#my-svg .label text{fill:#131300;}#my-svg .labelBkg{background:#ECECFF;}#my-svg .edgeLabel .label span{background:#ECECFF;}#my-svg .classTitle{font-weight:bolder;}#my-svg .node rect,#my-svg .node circle,#my-svg .node ellipse,#my-svg .node polygon,#my-svg .node path{fill:#ECECFF;stroke:#9370DB;stroke-width:1px;}#my-svg .divider{stroke:#9370DB;stroke-width:1;}#my-svg g.clickable{cursor:pointer;}#my-svg g.classGroup rect{fill:#ECECFF;stroke:#9370DB;}#my-svg g.classGroup line{stroke:#9370DB;stroke-width:1;}#my-svg .classLabel .box{stroke:none;stroke-width:0;fill:#ECECFF;opacity:0.5;}#my-svg .classLabel .label{fill:#9370DB;font-size:10px;}#my-svg .relation{stroke:#333333;stroke-width:1;fill:none;}#my-svg .dashed-line{stroke-dasharray:3;}#my-svg .dotted-line{stroke-dasharray:1 2;}#my-svg #compositionStart,#my-svg .composition{fill:#333333!important;stroke:#333333!important;stroke-width:1;}#my-svg #compositionEnd,#my-svg .composition{fill:#333333!important;stroke:#333333!important;stroke-width:1;}#my-svg #dependencyStart,#my-svg .dependency{fill:#333333!important;stroke:#333333!important;stroke-width:1;}#my-svg #dependencyStart,#my-svg .dependency{fill:#333333!important;stroke:#333333!important;stroke-width:1;}#my-svg #extensionStart,#my-svg .extension{fill:transparent!important;stroke:#333333!important;stroke-width:1;}#my-svg #extensionEnd,#my-svg .extension{fill:transparent!important;stroke:#333333!important;stroke-width:1;}#my-svg #aggregationStart,#my-svg .aggregation{fill:transparent!important;stroke:#333333!important;stroke-width:1;}#my-svg #aggregationEnd,#my-svg .aggregation{fill:transparent!important;stroke:#333333!important;stroke-width:1;}#my-svg #lollipopStart,#my-svg .lollipop{fill:#ECECFF!important;stroke:#333333!important;stroke-width:1;}#my-svg #lollipopEnd,#my-svg .lollipop{fill:#ECECFF!important;stroke:#333333!important;stroke-width:1;}#my-svg .edgeTerminals{font-size:11px;line-height:initial;}#my-svg .classTitleText{text-anchor:middle;font-size:18px;fill:#333;}#my-svg .label-icon{display:inline-block;height:1em;overflow:visible;vertical-align:-0.125em;}#my-svg .node .label-icon path{fill:currentColor;stroke:revert;stroke-width:revert;}#my-svg :root{--mermaid-font-family:"trebuchet ms",verdana,arial,sans-serif;}</style><g><defs><marker id="my-svg_class-aggregationStart" class="marker aggregation class" refX="18" refY="7" markerWidth="190" markerHeight="240" orient="auto"><path d="M 18,7 L9,13 L1,7 L9,1 Z"/></marker></defs><defs><marker id="my-svg_class-aggregationEnd" class="marker aggregation class" refX="1" refY="7" markerWidth="20" markerHeight="28" orient="auto"><path d="M 18,7 L9,13 L1,7 L9,1 Z"/></marker></defs><defs><marker id="my-svg_class-extensionStart" class="marker extension class" refX="18" refY="7" markerWidth="190" markerHeight="240" orient="auto"><path d="M 1,7 L18,13 V 1 Z"/></marker></defs><defs><marker id="my-svg_class-extensionEnd" class="marker extension class" refX="1" refY="7" markerWidth="20" markerHeight="28" orient="auto"><path d="M 1,1 V 13 L18,7 Z"/></marker></defs><defs><marker id="my-svg_class-compositionStart" class="marker composition class" refX="18" refY="7" markerWidth="190" markerHeight="240" orient="auto"><path d="M 18,7 L9,13 L1,7 L9,1 Z"/></marker></defs><defs><marker id="my-svg_class-compositionEnd" class="marker composition class" refX="1" refY="7" markerWidth="20" markerHeight="28" orient="auto"><path d="M 18,7 L9,13 L1,7 L9,1 Z"/></marker></defs><defs><marker id="my-svg_class-dependencyStart" class="marker dependency class" refX="6" refY="7" markerWidth="190" markerHeight="240" orient="auto"><path d="M 5,7 L9,13 L1,7 L9,1 Z"/></marker></defs><defs><marker id="my-svg_class-dependencyEnd" class="marker dependency class" refX="13" refY="7" markerWidth="20" markerHeight="28" orient="auto"><path d="M 18,7 L9,13 L14,7 L9,1 Z"/></marker></defs><defs><marker id="my-svg_class-lollipopStart" class="marker lollipop class" refX="13" refY="7" markerWidth="190" markerHeight="240" orient="auto"><circle stroke="black" fill="transparent" cx="7" cy="7" r="6"/></marker></defs><defs><marker id="my-svg_class-lollipopEnd" class="marker lollipop class" refX="1" refY="7" markerWidth="190" markerHeight="240" orient="auto"><circle stroke="black" fill="transparent" cx="7" cy="7" r="6"/></marker></defs><g class="root"><g class="clusters"/><g class="edgePaths"><path d="M36.946,107.94L35.494,111.45C34.042,114.96,31.138,121.98,32.237,131.657C33.336,141.333,38.438,153.667,40.989,159.833L43.54,166" id="id_BaseForce_TotalForce_1" class="edge-thickness-normal edge-pattern-solid relation" style=";;;" data-edge="true" data-et="edge" data-id="id_BaseForce_TotalForce_1" data-points="W3sieCI6NDMuNTQwMDUxNDI0MDUwNjMsInkiOjkyfSx7IngiOjI4LjIzNDM3NSwieSI6MTI5fSx7IngiOjQzLjU0MDA1MTQyNDA1MDYzLCJ5IjoxNjZ9XQ==" marker-start="url(#my-svg_class-extensionStart)"/><path d="M78.288,166L80.839,159.833C83.39,153.667,88.492,141.333,88.874,129.924C89.256,118.515,84.919,108.03,82.75,102.787L80.582,97.544" id="id_TotalForce_BaseForce_2" class="edge-thickness-normal edge-pattern-solid relation" style=";;;" data-edge="true" data-et="edge" data-id="id_TotalForce_BaseForce_2" data-points="W3sieCI6NzguMjg4MDczNTc1OTQ5MzcsInkiOjE2Nn0seyJ4Ijo5My41OTM3NSwieSI6MTI5fSx7IngiOjc4LjI4ODA3MzU3NTk0OTM3LCJ5Ijo5Mn1d" marker-end="url(#my-svg_class-dependencyEnd)"/></g><g class="edgeLabels"><g class="edgeLabel"><g class="label" data-id="id_BaseForce_TotalForce_1" transform="translate(0, 0)"><foreignObject width="0" height="0"><div xmlns="http://www.w3.org/1999/xhtml" class="labelBkg" style="display: table-cell; white-space: nowrap; line-height: 1.5; max-width: 200px; text-align: center;"><span class="edgeLabel"></span></div></foreignObject></g></g><g class="edgeLabel" transform="translate(93.59375, 129)"><g class="label" data-id="id_TotalForce_BaseForce_2" transform="translate(-45.359375, -12)"><foreignObject width="90.71875" height="24"><div xmlns="http://www.w3.org/1999/xhtml" class="labelBkg" style="display: table-cell; white-space: nowrap; line-height: 1.5; max-width: 200px; text-align: center;"><span class="edgeLabel"><p>contributions</p></span></div></foreignObject></g></g></g><g class="nodes"><g class="node default" id="classId-BaseForce-0" transform="translate(60.9140625, 50)"><g class="basic label-container"><path d="M-52.9140625 -42 L52.9140625 -42 L52.9140625 42 L-52.9140625 42" stroke="none" stroke-width="0" fill="#ECECFF" style=""/><path d="M-52.9140625 -42 C-21.641893948051443 -42, 9.630274603897114 -42, 52.9140625 -42 M-52.9140625 -42 C-24.534856651231394 -42, 3.8443491975372126 -42, 52.9140625 -42 M52.9140625 -42 C52.9140625 -22.716635423031292, 52.9140625 -3.433270846062584, 52.9140625 42 M52.9140625 -42 C52.9140625 -20.40535291392166, 52.9140625 1.1892941721566785, 52.9140625 42 M52.9140625 42 C25.76089049026487 42, -1.3922815194702594 42, -52.9140625 42 M52.9140625 42 C28.010888836313942 42, 3.107715172627884 42, -52.9140625 42 M-52.9140625 42 C-52.9140625 17.64828855461276, -52.9140625 -6.703422890774483, -52.9140625 -42 M-52.9140625 42 C-52.9140625 17.377369072673456, -52.9140625 -7.245261854653087, -52.9140625 -42" stroke="#9370DB" stroke-width="1.3" fill="none" stroke-dasharray="0 0" style=""/></g><g class="annotation-group text" transform="translate(0, -18)"/><g class="label-group text" transform="translate(-40.9140625, -18)"><g class="label" style="font-weight: bolder" transform="translate(0,-12)"><foreignObject width="81.828125" height="24"><div xmlns="http://www.w3.org/1999/xhtml" style="display: table-cell; white-space: nowrap; line-height: 1.5; max-width: 118px; text-align: center;"><span class="nodeLabel markdown-node-label" style=""><p>BaseForce</p></span></div></foreignObject></g></g><g class="members-group text" transform="translate(-40.9140625, 30)"/><g class="methods-group text" transform="translate(-40.9140625, 60)"/><g class="divider" style=""><path d="M-52.9140625 6 C-20.56614102955926 6, 11.781780440881477 6, 52.9140625 6 M-52.9140625 6 C-18.337211999880154 6, 16.239638500239693 6, 52.9140625 6" stroke="#9370DB" stroke-width="1.3" fill="none" stroke-dasharray="0 0" style=""/></g></g><g class="node default" id="classId-TotalForce-1" transform="translate(60.9140625, 208)"><g class="basic label-container"><path d="M-52.3046875 -42 L52.3046875 -42 L52.3046875 42 L-52.3046875 42" stroke="none" stroke-width="0" fill="#ECECFF" style=""/><path d="M-52.3046875 -42 C-11.641204431818984 -42, 29.02227863636203 -42, 52.3046875 -42 M-52.3046875 -42 C-21.058955548252456 -42, 10.186776403495088 -42, 52.3046875 -42 M52.3046875 -42 C52.3046875 -16.728001485373856, 52.3046875 8.543997029252289, 52.3046875 42 M52.3046875 -42 C52.3046875 -14.170637076805388, 52.3046875 13.658725846389224, 52.3046875 42 M52.3046875 42 C29.574455987836807 42, 6.844224475673613 42, -52.3046875 42 M52.3046875 42 C20.126520456089878 42, -12.051646587820244 42, -52.3046875 42 M-52.3046875 42 C-52.3046875 10.359072527838244, -52.3046875 -21.281854944323513, -52.3046875 -42 M-52.3046875 42 C-52.3046875 16.455824193014912, -52.3046875 -9.088351613970175, -52.3046875 -42" stroke="#9370DB" stroke-width="1.3" fill="none" stroke-dasharray="0 0" style=""/></g><g class="annotation-group text" transform="translate(0, -18)"/><g class="label-group text" transform="translate(-40.3046875, -18)"><g class="label" style="font-weight: bolder" transform="translate(0,-12)"><foreignObject width="80.609375" height="24"><div xmlns="http://www.w3.org/1999/xhtml" style="display: table-cell; white-space: nowrap; line-height: 1.5; max-width: 119px; text-align: center;"><span class="nodeLabel markdown-node-label" style=""><p>TotalForce</p></span></div></foreignObject></g></g><g class="members-group text" transform="translate(-40.3046875, 30)"/><g class="methods-group text" transform="translate(-40.3046875, 60)"/><g class="divider" style=""><path d="M-52.3046875 6 C-14.813459896116449 6, 22.677767707767103 6, 52.3046875 6 M-52.3046875 6 C-11.637319371184198 6, 29.030048757631604 6, 52.3046875 6" stroke="#9370DB" stroke-width="1.3" fill="none" stroke-dasharray="0 0" style=""/></g></g></g></g></g></svg>