<?xml version="1.0" encoding="UTF-8"?>
<svg id="my-svg" width="100%" xmlns="http://www.w3.org/2000/svg" xmlns:xlink="http://www.w3.org/1999/xlink" class="classDiagram" style="max-width: 1861.81px; background-color: white;" viewBox="0 0 1861.8125 258" role="graphics-document document" aria-roledescription="class"><style>#my-svg{font-family:"trebuchet ms",verdana,arial,sans-serif;font-size:16px;fill:#333;}@keyframes edge-animation-frame{from{stroke-dashoffset:0;}}@keyframes dash{to{stroke-dashoffset:0;}}#my-svg .edge-animation-slow{stroke-dasharray:9,5!important;stroke-dashoffset:900;animation:dash 50s linear infinite;stroke-linecap:round;}#my-svg .edge-animation-fast{stroke-dasharray:9,5!important;stroke-dashoffset:900;animation:dash 20s linear infinite;stroke-linecap:round;}#my-svg .error-icon{fill:#552222;}#my-svg .error-text{fill:#552222;stroke:#552222;}#my-svg .edge-thickness-normal{stroke-width:1px;}#my-svg .edge-thickness-thick{stroke-width:3.5px;}#my-svg .edge-pattern-solid{stroke-dasharray:0;}#my-svg .edge-thickness-invisible{stroke-width:0;fill:none;}#my-svg .edge-pattern-dashed{stroke-dasharray:3;}#my-svg .edge-pattern-dotted{stroke-dasharray:2;}#my-svg .marker{fill:#333333;stroke:#333333;}#my-svg .marker.cross{stroke:#333333;}#my-svg svg{font-family:"trebuchet ms",verdana,arial,sans-serif;font-size:16px;}#my-svg p{margin:0;}#my-svg g.classGroup text{fill:#9370DB;stroke:none;font-family:"trebuchet ms",verdana,arial,sans-serif;font-size:10px;}#my-svg g.classGroup text .title{font-weight:bolder;}#my-svg .nodeLabel,#my-svg .edgeLabel{color:#131300;}#my-svg .edgeLabel .label rect{fill:#ECECFF;}#my-svg .label text{fill:#131300;}#my-svg .labelBkg{background:#ECECFF;}#my-svg .edgeLabel .label span{background:#ECECFF;}#my-svg .classTitle{font-weight:bolder;}#my-svg .node rect,#my-svg .node circle,#my-svg .node ellipse,#my-svg .node polygon,#my-svg .node path{fill:#ECECFF;stroke:#9370DB;stroke-width:1px;}#my-svg .divider{stroke:#9370DB;stroke-width:1;}#my-svg g.clickable{cursor:pointer;}#my-svg g.classGroup rect{fill:#ECECFF;stroke:#9370DB;}#my-svg g.classGroup line{stroke:#9370DB;stroke-width:1;}#my-svg .classLabel .box{stroke:none;stroke-width:0;fill:#ECECFF;opacity:0.5;}#my-svg .classLabel .label{fill:#9370DB;font-size:10px;}#my-svg .relation{stroke:#333333;stroke-width:1;fill:none;}#my-svg .dashed-line{stroke-dasharray:3;}#my-svg .dotted-line{stroke-dasharray:1 2;}#my-svg #compositionStart,#my-svg .composition{fill:#333333!important;stroke:#333333!important;stroke-width:1;}#my-svg #compositionEnd,#my-svg .composition{fill:#333333!important;stroke:#333333!important;stroke-width:1;}#my-svg #dependencyStart,#my-svg .dependency{fill:#333333!important;stroke:#333333!important;stroke-width:1;}#my-svg #dependencyStart,#my-svg .dependency{fill:#333333!important;stroke:#333333!important;stroke-width:1;}#my-svg #extensionStart,#my-svg .extension{fill:transparent!important;stroke:#333333!important;stroke-width:1;}#my-svg #extensionEnd,#my-svg .extension{fill:transparent!important;stroke:#333333!important;stroke-width:1;}#my-svg #aggregationStart,#my-svg .aggregation{fill:transparent!important;stroke:#333333!important;stroke-width:1;}#my-svg #aggregationEnd,#my-svg .aggregation{fill:transparent!important;stroke:#333333!important;stroke-width:1;}#my-svg #lollipopStart,#my-svg .lollipop{fill:#ECECFF!important;stroke:#333333!important;stroke-width:1;}#my-svg #lollipopEnd,#my-svg .lollipop{fill:#ECECFF!important;stroke:#333333!important;stroke-width:1;}#my-svg .edgeTerminals{font-size:11px;line-height:initial;}#my-svg .classTitleText{text-anchor:middle;font-size:18px;fill:#333;}#my-svg .label-icon{display:inline-block;height:1em;overflow:visible;vertical-align:-0.125em;}#my-svg .node .label-icon path{fill:currentColor;stroke:revert;stroke-width:revert;}#my-svg :root{--mermaid-font-family:"trebuchet ms",verdana,arial,sans-serif;}</style><g><defs><marker id="my-svg_class-aggregationStart" class="marker aggregation class" refX="18" refY="7" markerWidth="190" markerHeight="240" orient="auto"><path d="M 18,7 L9,13 L1,7 L9,1 Z"/></marker></defs><defs><marker id="my-svg_class-aggregationEnd" class="marker aggregation class" refX="1" refY="7" markerWidth="20" markerHeight="28" orient="auto"><path d="M 18,7 L9,13 L1,7 L9,1 Z"/></marker></defs><defs><marker id="my-svg_class-extensionStart" class="marker extension class" refX="18" refY="7" markerWidth="190" markerHeight="240" orient="auto"><path d="M 1,7 L18,13 V 1 Z"/></marker></defs><defs><marker id="my-svg_class-extensionEnd" class="marker extension class" refX="1" refY="7" markerWidth="20" markerHeight="28" orient="auto"><path d="M 1,1 V 13 L18,7 Z"/></marker></defs><defs><marker id="my-svg_class-compositionStart" class="marker composition class" refX="18" refY="7" markerWidth="190" markerHeight="240" orient="auto"><path d="M 18,7 L9,13 L1,7 L9,1 Z"/></marker></defs><defs><marker id="my-svg_class-compositionEnd" class="marker composition class" refX="1" refY="7" markerWidth="20" markerHeight="28" orient="auto"><path d="M 18,7 L9,13 L1,7 L9,1 Z"/></marker></defs><defs><marker id="my-svg_class-dependencyStart" class="marker dependency class" refX="6" refY="7" markerWidth="190" markerHeight="240" orient="auto"><path d="M 5,7 L9,13 L1,7 L9,1 Z"/></marker></defs><defs><marker id="my-svg_class-dependencyEnd" class="marker dependency class" refX="13" refY="7" markerWidth="20" markerHeight="28" orient="auto"><path d="M 18,7 L9,13 L14,7 L9,1 Z"/></marker></defs><defs><marker id="my-svg_class-lollipopStart" class="marker lollipop class" refX="13" refY="7" markerWidth="190" markerHeight="240" orient="auto"><circle stroke="black" fill="transparent" cx="7" cy="7" r="6"/></marker></defs><defs><marker id="my-svg_class-lollipopEnd" class="marker lollipop class" refX="1" refY="7" markerWidth="190" markerHeight="240" orient="auto"><circle stroke="black" fill="transparent" cx="7" cy="7" r="6"/></marker></defs><g class="root"><g class="clusters"/><g class="edgePaths"><path d="M1273.791,92L1262.882,98.167C1251.974,104.333,1230.157,116.667,1219.248,128C1208.34,139.333,1208.34,149.667,1208.34,154.833L1208.34,160" id="id_SimulationWorkflow_SimulationWorkflowModel_1" class="edge-thickness-normal edge-pattern-solid relation" style=";;;" data-edge="true" data-et="edge" data-id="id_SimulationWorkflow_SimulationWorkflowModel_1" data-points="W3sieCI6MTI3My43OTA1NDU4ODYwNzYsInkiOjkyfSx7IngiOjEyMDguMzM5ODQzNzUsInkiOjEyOX0seyJ4IjoxMjA4LjMzOTg0Mzc1LCJ5IjoxNjZ9XQ==" marker-end="url(#my-svg_class-dependencyEnd)"/><path d="M1422.381,92L1433.29,98.167C1444.198,104.333,1466.015,116.667,1476.924,128C1487.832,139.333,1487.832,149.667,1487.832,154.833L1487.832,160" id="id_SimulationWorkflow_SimulationWorkflowResults_2" class="edge-thickness-normal edge-pattern-solid relation" style=";;;" data-edge="true" data-et="edge" data-id="id_SimulationWorkflow_SimulationWorkflowResults_2" data-points="W3sieCI6MTQyMi4zODEzMjkxMTM5MjQsInkiOjkyfSx7IngiOjE0ODcuODMyMDMxMjUsInkiOjEyOX0seyJ4IjoxNDg3LjgzMjAzMTI1LCJ5IjoxNjZ9XQ==" marker-end="url(#my-svg_class-dependencyEnd)"/></g><g class="edgeLabels"><g class="edgeLabel" transform="translate(1208.33984375, 129)"><g class="label" data-id="id_SimulationWorkflow_SimulationWorkflowModel_1" transform="translate(-21.7890625, -12)"><foreignObject width="43.578125" height="24"><div xmlns="http://www.w3.org/1999/xhtml" class="labelBkg" style="display: table-cell; white-space: nowrap; line-height: 1.5; max-width: 200px; text-align: center;"><span class="edgeLabel"><p>model</p></span></div></foreignObject></g></g><g class="edgeLabel" transform="translate(1487.83203125, 129)"><g class="label" data-id="id_SimulationWorkflow_SimulationWorkflowResults_2" transform="translate(-23.5625, -12)"><foreignObject width="47.125" height="24"><div xmlns="http://www.w3.org/1999/xhtml" class="labelBkg" style="display: table-cell; white-space: nowrap; line-height: 1.5; max-width: 200px; text-align: center;"><span class="edgeLabel"><p>results</p></span></div></foreignObject></g></g></g><g class="nodes"><g class="node default" id="classId-GeometryOptimization-0" transform="translate(105.7890625, 50)"><g class="basic label-container"><path d="M-97.7890625 -42 L97.7890625 -42 L97.7890625 42 L-97.7890625 42" stroke="none" stroke-width="0" fill="#ECECFF" style=""/><path d="M-97.7890625 -42 C-31.861708823828863 -42, 34.065644852342274 -42, 97.7890625 -42 M-97.7890625 -42 C-54.170566610610116 -42, -10.552070721220232 -42, 97.7890625 -42 M97.7890625 -42 C97.7890625 -14.47530836945596, 97.7890625 13.049383261088082, 97.7890625 42 M97.7890625 -42 C97.7890625 -11.090994315251692, 97.7890625 19.818011369496617, 97.7890625 42 M97.7890625 42 C28.303907330479817 42, -41.18124783904037 42, -97.7890625 42 M97.7890625 42 C25.489327596835466 42, -46.81040730632907 42, -97.7890625 42 M-97.7890625 42 C-97.7890625 21.047423128901105, -97.7890625 0.09484625780221023, -97.7890625 -42 M-97.7890625 42 C-97.7890625 15.476870589390295, -97.7890625 -11.04625882121941, -97.7890625 -42" stroke="#9370DB" stroke-width="1.3" fill="none" stroke-dasharray="0 0" style=""/></g><g class="annotation-group text" transform="translate(0, -18)"/><g class="label-group text" transform="translate(-85.7890625, -18)"><g class="label" style="font-weight: bolder" transform="translate(0,-12)"><foreignObject width="171.578125" height="24"><div xmlns="http://www.w3.org/1999/xhtml" style="display: table-cell; white-space: nowrap; line-height: 1.5; max-width: 198px; text-align: center;"><span class="nodeLabel markdown-node-label" style=""><p>GeometryOptimization</p></span></div></foreignObject></g></g><g class="members-group text" transform="translate(-85.7890625, 30)"/><g class="methods-group text" transform="translate(-85.7890625, 60)"/><g class="divider" style=""><path d="M-97.7890625 6 C-22.2388596211742 6, 53.3113432576516 6, 97.7890625 6 M-97.7890625 6 C-58.09092564094377 6, -18.392788781887546 6, 97.7890625 6" stroke="#9370DB" stroke-width="1.3" fill="none" stroke-dasharray="0 0" style=""/></g><g class="divider" style=""><path d="M-97.7890625 24 C-32.56215717372925 24, 32.664748152541506 24, 97.7890625 24 M-97.7890625 24 C-36.40501145961253 24, 24.979039580774938 24, 97.7890625 24" stroke="#9370DB" stroke-width="1.3" fill="none" stroke-dasharray="0 0" style=""/></g></g><g class="node default" id="classId-MolecularDynamics-1" transform="translate(340.71875, 50)"><g class="basic label-container"><path d="M-87.140625 -42 L87.140625 -42 L87.140625 42 L-87.140625 42" stroke="none" stroke-width="0" fill="#ECECFF" style=""/><path d="M-87.140625 -42 C-31.411799653717097 -42, 24.317025692565807 -42, 87.140625 -42 M-87.140625 -42 C-38.4444762374999 -42, 10.251672525000203 -42, 87.140625 -42 M87.140625 -42 C87.140625 -22.30903633910122, 87.140625 -2.618072678202438, 87.140625 42 M87.140625 -42 C87.140625 -11.665337170435883, 87.140625 18.669325659128233, 87.140625 42 M87.140625 42 C38.929399797078005 42, -9.281825405843989 42, -87.140625 42 M87.140625 42 C38.74454311176641 42, -9.651538776467177 42, -87.140625 42 M-87.140625 42 C-87.140625 8.48268572278792, -87.140625 -25.03462855442416, -87.140625 -42 M-87.140625 42 C-87.140625 17.96895264450085, -87.140625 -6.062094710998302, -87.140625 -42" stroke="#9370DB" stroke-width="1.3" fill="none" stroke-dasharray="0 0" style=""/></g><g class="annotation-group text" transform="translate(0, -18)"/><g class="label-group text" transform="translate(-75.140625, -18)"><g class="label" style="font-weight: bolder" transform="translate(0,-12)"><foreignObject width="150.28125" height="24"><div xmlns="http://www.w3.org/1999/xhtml" style="display: table-cell; white-space: nowrap; line-height: 1.5; max-width: 181px; text-align: center;"><span class="nodeLabel markdown-node-label" style=""><p>MolecularDynamics</p></span></div></foreignObject></g></g><g class="members-group text" transform="translate(-75.140625, 30)"/><g class="methods-group text" transform="translate(-75.140625, 60)"/><g class="divider" style=""><path d="M-87.140625 6 C-21.89016266717536 6, 43.36029966564928 6, 87.140625 6 M-87.140625 6 C-26.679337569861993 6, 33.781949860276015 6, 87.140625 6" stroke="#9370DB" stroke-width="1.3" fill="none" stroke-dasharray="0 0" style=""/></g><g class="divider" style=""><path d="M-87.140625 24 C-47.884725958843994 24, -8.628826917687988 24, 87.140625 24 M-87.140625 24 C-44.18835170484151 24, -1.2360784096830173 24, 87.140625 24" stroke="#9370DB" stroke-width="1.3" fill="none" stroke-dasharray="0 0" style=""/></g></g><g class="node default" id="classId-ParallelWorkflow-2" transform="translate(554.1796875, 50)"><g class="basic label-container"><path d="M-76.3203125 -42 L76.3203125 -42 L76.3203125 42 L-76.3203125 42" stroke="none" stroke-width="0" fill="#ECECFF" style=""/><path d="M-76.3203125 -42 C-24.80406233375728 -42, 26.71218783248544 -42, 76.3203125 -42 M-76.3203125 -42 C-34.727362222759595 -42, 6.86558805448081 -42, 76.3203125 -42 M76.3203125 -42 C76.3203125 -12.426266300080343, 76.3203125 17.147467399839314, 76.3203125 42 M76.3203125 -42 C76.3203125 -16.275117642923476, 76.3203125 9.449764714153048, 76.3203125 42 M76.3203125 42 C44.201946523006455 42, 12.08358054601291 42, -76.3203125 42 M76.3203125 42 C26.234906436322085 42, -23.85049962735583 42, -76.3203125 42 M-76.3203125 42 C-76.3203125 21.450891235921205, -76.3203125 0.9017824718424094, -76.3203125 -42 M-76.3203125 42 C-76.3203125 16.38987799948291, -76.3203125 -9.220244001034182, -76.3203125 -42" stroke="#9370DB" stroke-width="1.3" fill="none" stroke-dasharray="0 0" style=""/></g><g class="annotation-group text" transform="translate(0, -18)"/><g class="label-group text" transform="translate(-64.3203125, -18)"><g class="label" style="font-weight: bolder" transform="translate(0,-12)"><foreignObject width="128.640625" height="24"><div xmlns="http://www.w3.org/1999/xhtml" style="display: table-cell; white-space: nowrap; line-height: 1.5; max-width: 164px; text-align: center;"><span class="nodeLabel markdown-node-label" style=""><p>ParallelWorkflow</p></span></div></foreignObject></g></g><g class="members-group text" transform="translate(-64.3203125, 30)"/><g class="methods-group text" transform="translate(-64.3203125, 60)"/><g class="divider" style=""><path d="M-76.3203125 6 C-16.010343189029854 6, 44.29962612194029 6, 76.3203125 6 M-76.3203125 6 C-28.236778005622078 6, 19.846756488755844 6, 76.3203125 6" stroke="#9370DB" stroke-width="1.3" fill="none" stroke-dasharray="0 0" style=""/></g><g class="divider" style=""><path d="M-76.3203125 24 C-21.540379939371412 24, 33.239552621257175 24, 76.3203125 24 M-76.3203125 24 C-30.55793415556581 24, 15.20444418886838 24, 76.3203125 24" stroke="#9370DB" stroke-width="1.3" fill="none" stroke-dasharray="0 0" style=""/></g></g><g class="node default" id="classId-SelfConsistency-3" transform="translate(754.7421875, 50)"><g class="basic label-container"><path d="M-74.2421875 -42 L74.2421875 -42 L74.2421875 42 L-74.2421875 42" stroke="none" stroke-width="0" fill="#ECECFF" style=""/><path d="M-74.2421875 -42 C-17.502611794893596 -42, 39.23696391021281 -42, 74.2421875 -42 M-74.2421875 -42 C-31.13121167279389 -42, 11.979764154412223 -42, 74.2421875 -42 M74.2421875 -42 C74.2421875 -10.537204681338562, 74.2421875 20.925590637322877, 74.2421875 42 M74.2421875 -42 C74.2421875 -9.106357784664567, 74.2421875 23.787284430670866, 74.2421875 42 M74.2421875 42 C39.22271571759728 42, 4.203243935194564 42, -74.2421875 42 M74.2421875 42 C27.05324605504851 42, -20.135695389902978 42, -74.2421875 42 M-74.2421875 42 C-74.2421875 12.651391179724783, -74.2421875 -16.697217640550434, -74.2421875 -42 M-74.2421875 42 C-74.2421875 15.102650008174056, -74.2421875 -11.794699983651888, -74.2421875 -42" stroke="#9370DB" stroke-width="1.3" fill="none" stroke-dasharray="0 0" style=""/></g><g class="annotation-group text" transform="translate(0, -18)"/><g class="label-group text" transform="translate(-62.2421875, -18)"><g class="label" style="font-weight: bolder" transform="translate(0,-12)"><foreignObject width="124.484375" height="24"><div xmlns="http://www.w3.org/1999/xhtml" style="display: table-cell; white-space: nowrap; line-height: 1.5; max-width: 154px; text-align: center;"><span class="nodeLabel markdown-node-label" style=""><p>SelfConsistency</p></span></div></foreignObject></g></g><g class="members-group text" transform="translate(-62.2421875, 30)"/><g class="methods-group text" transform="translate(-62.2421875, 60)"/><g class="divider" style=""><path d="M-74.2421875 6 C-35.92013787484343 6, 2.401911750313147 6, 74.2421875 6 M-74.2421875 6 C-32.64108963977231 6, 8.960008220455379 6, 74.2421875 6" stroke="#9370DB" stroke-width="1.3" fill="none" stroke-dasharray="0 0" style=""/></g><g class="divider" style=""><path d="M-74.2421875 24 C-36.52281966209996 24, 1.1965481758000749 24, 74.2421875 24 M-74.2421875 24 C-15.329640524601295 24, 43.58290645079741 24, 74.2421875 24" stroke="#9370DB" stroke-width="1.3" fill="none" stroke-dasharray="0 0" style=""/></g></g><g class="node default" id="classId-SerialWorkflow-4" transform="translate(948.6328125, 50)"><g class="basic label-container"><path d="M-69.6484375 -42 L69.6484375 -42 L69.6484375 42 L-69.6484375 42" stroke="none" stroke-width="0" fill="#ECECFF" style=""/><path d="M-69.6484375 -42 C-33.84152088579215 -42, 1.9653957284157002 -42, 69.6484375 -42 M-69.6484375 -42 C-20.594626183157253 -42, 28.459185133685494 -42, 69.6484375 -42 M69.6484375 -42 C69.6484375 -14.525377374415175, 69.6484375 12.94924525116965, 69.6484375 42 M69.6484375 -42 C69.6484375 -24.64307292288662, 69.6484375 -7.286145845773241, 69.6484375 42 M69.6484375 42 C38.598015884202134 42, 7.547594268404268 42, -69.6484375 42 M69.6484375 42 C22.108932404292304 42, -25.430572691415392 42, -69.6484375 42 M-69.6484375 42 C-69.6484375 15.773298439245693, -69.6484375 -10.453403121508615, -69.6484375 -42 M-69.6484375 42 C-69.6484375 22.692926340696353, -69.6484375 3.3858526813927057, -69.6484375 -42" stroke="#9370DB" stroke-width="1.3" fill="none" stroke-dasharray="0 0" style=""/></g><g class="annotation-group text" transform="translate(0, -18)"/><g class="label-group text" transform="translate(-57.6484375, -18)"><g class="label" style="font-weight: bolder" transform="translate(0,-12)"><foreignObject width="115.296875" height="24"><div xmlns="http://www.w3.org/1999/xhtml" style="display: table-cell; white-space: nowrap; line-height: 1.5; max-width: 152px; text-align: center;"><span class="nodeLabel markdown-node-label" style=""><p>SerialWorkflow</p></span></div></foreignObject></g></g><g class="members-group text" transform="translate(-57.6484375, 30)"/><g class="methods-group text" transform="translate(-57.6484375, 60)"/><g class="divider" style=""><path d="M-69.6484375 6 C-23.38168328417389 6, 22.885070931652223 6, 69.6484375 6 M-69.6484375 6 C-28.758565730684076 6, 12.131306038631848 6, 69.6484375 6" stroke="#9370DB" stroke-width="1.3" fill="none" stroke-dasharray="0 0" style=""/></g><g class="divider" style=""><path d="M-69.6484375 24 C-37.042668071037596 24, -4.436898642075192 24, 69.6484375 24 M-69.6484375 24 C-40.125197947224564 24, -10.601958394449134 24, 69.6484375 24" stroke="#9370DB" stroke-width="1.3" fill="none" stroke-dasharray="0 0" style=""/></g></g><g class="node default" id="classId-SimulationTask-5" transform="translate(1138.8125, 50)"><g class="basic label-container"><path d="M-70.53125 -42 L70.53125 -42 L70.53125 42 L-70.53125 42" stroke="none" stroke-width="0" fill="#ECECFF" style=""/><path d="M-70.53125 -42 C-40.253187096223954 -42, -9.9751241924479 -42, 70.53125 -42 M-70.53125 -42 C-39.15293105361894 -42, -7.774612107237878 -42, 70.53125 -42 M70.53125 -42 C70.53125 -24.63051860985728, 70.53125 -7.261037219714559, 70.53125 42 M70.53125 -42 C70.53125 -18.845517129198484, 70.53125 4.308965741603032, 70.53125 42 M70.53125 42 C33.403667825992095 42, -3.7239143480158106 42, -70.53125 42 M70.53125 42 C16.515250396891624 42, -37.50074920621675 42, -70.53125 42 M-70.53125 42 C-70.53125 19.163071031297537, -70.53125 -3.673857937404925, -70.53125 -42 M-70.53125 42 C-70.53125 13.451047121398915, -70.53125 -15.09790575720217, -70.53125 -42" stroke="#9370DB" stroke-width="1.3" fill="none" stroke-dasharray="0 0" style=""/></g><g class="annotation-group text" transform="translate(0, -18)"/><g class="label-group text" transform="translate(-58.53125, -18)"><g class="label" style="font-weight: bolder" transform="translate(0,-12)"><foreignObject width="117.0625" height="24"><div xmlns="http://www.w3.org/1999/xhtml" style="display: table-cell; white-space: nowrap; line-height: 1.5; max-width: 150px; text-align: center;"><span class="nodeLabel markdown-node-label" style=""><p>SimulationTask</p></span></div></foreignObject></g></g><g class="members-group text" transform="translate(-58.53125, 30)"/><g class="methods-group text" transform="translate(-58.53125, 60)"/><g class="divider" style=""><path d="M-70.53125 6 C-32.14907946928076 6, 6.233091061438486 6, 70.53125 6 M-70.53125 6 C-16.379588389307592 6, 37.772073221384815 6, 70.53125 6" stroke="#9370DB" stroke-width="1.3" fill="none" stroke-dasharray="0 0" style=""/></g><g class="divider" style=""><path d="M-70.53125 24 C-18.419481925292935 24, 33.69228614941413 24, 70.53125 24 M-70.53125 24 C-32.758384992915175 24, 5.014480014169649 24, 70.53125 24" stroke="#9370DB" stroke-width="1.3" fill="none" stroke-dasharray="0 0" style=""/></g></g><g class="node default" id="classId-SimulationWorkflow-6" transform="translate(1348.0859375, 50)"><g class="basic label-container"><path d="M-88.7421875 -42 L88.7421875 -42 L88.7421875 42 L-88.7421875 42" stroke="none" stroke-width="0" fill="#ECECFF" style=""/><path d="M-88.7421875 -42 C-28.177998287902078 -42, 32.386190924195844 -42, 88.7421875 -42 M-88.7421875 -42 C-26.480336911244343 -42, 35.78151367751131 -42, 88.7421875 -42 M88.7421875 -42 C88.7421875 -20.143755216487932, 88.7421875 1.7124895670241358, 88.7421875 42 M88.7421875 -42 C88.7421875 -9.322333592444338, 88.7421875 23.355332815111325, 88.7421875 42 M88.7421875 42 C29.97690310772807 42, -28.78838128454386 42, -88.7421875 42 M88.7421875 42 C28.884943516738495 42, -30.97230046652301 42, -88.7421875 42 M-88.7421875 42 C-88.7421875 22.33386366706555, -88.7421875 2.6677273341311007, -88.7421875 -42 M-88.7421875 42 C-88.7421875 17.648047118213537, -88.7421875 -6.7039057635729264, -88.7421875 -42" stroke="#9370DB" stroke-width="1.3" fill="none" stroke-dasharray="0 0" style=""/></g><g class="annotation-group text" transform="translate(0, -18)"/><g class="label-group text" transform="translate(-76.7421875, -18)"><g class="label" style="font-weight: bolder" transform="translate(0,-12)"><foreignObject width="153.484375" height="24"><div xmlns="http://www.w3.org/1999/xhtml" style="display: table-cell; white-space: nowrap; line-height: 1.5; max-width: 185px; text-align: center;"><span class="nodeLabel markdown-node-label" style=""><p>SimulationWorkflow</p></span></div></foreignObject></g></g><g class="members-group text" transform="translate(-76.7421875, 30)"/><g class="methods-group text" transform="translate(-76.7421875, 60)"/><g class="divider" style=""><path d="M-88.7421875 6 C-32.14103834520158 6, 24.46011080959684 6, 88.7421875 6 M-88.7421875 6 C-33.94454452713759 6, 20.853098445724825 6, 88.7421875 6" stroke="#9370DB" stroke-width="1.3" fill="none" stroke-dasharray="0 0" style=""/></g><g class="divider" style=""><path d="M-88.7421875 24 C-29.50945309747 24, 29.72328130506 24, 88.7421875 24 M-88.7421875 24 C-22.93246197234224 24, 42.87726355531552 24, 88.7421875 24" stroke="#9370DB" stroke-width="1.3" fill="none" stroke-dasharray="0 0" style=""/></g></g><g class="node default" id="classId-SimulationWorkflowModel-7" transform="translate(1208.33984375, 208)"><g class="basic label-container"><path d="M-111.8515625 -42 L111.8515625 -42 L111.8515625 42 L-111.8515625 42" stroke="none" stroke-width="0" fill="#ECECFF" style=""/><path d="M-111.8515625 -42 C-58.22556068553262 -42, -4.599558871065241 -42, 111.8515625 -42 M-111.8515625 -42 C-51.834297270110866 -42, 8.182967959778267 -42, 111.8515625 -42 M111.8515625 -42 C111.8515625 -10.877074120969517, 111.8515625 20.245851758060965, 111.8515625 42 M111.8515625 -42 C111.8515625 -22.65157272754646, 111.8515625 -3.303145455092917, 111.8515625 42 M111.8515625 42 C50.70216828371676 42, -10.447225932566482 42, -111.8515625 42 M111.8515625 42 C44.684231876707344 42, -22.483098746585313 42, -111.8515625 42 M-111.8515625 42 C-111.8515625 8.427492361731666, -111.8515625 -25.145015276536668, -111.8515625 -42 M-111.8515625 42 C-111.8515625 21.05772761049853, -111.8515625 0.11545522099706318, -111.8515625 -42" stroke="#9370DB" stroke-width="1.3" fill="none" stroke-dasharray="0 0" style=""/></g><g class="annotation-group text" transform="translate(0, -18)"/><g class="label-group text" transform="translate(-99.8515625, -18)"><g class="label" style="font-weight: bolder" transform="translate(0,-12)"><foreignObject width="199.703125" height="24"><div xmlns="http://www.w3.org/1999/xhtml" style="display: table-cell; white-space: nowrap; line-height: 1.5; max-width: 227px; text-align: center;"><span class="nodeLabel markdown-node-label" style=""><p>SimulationWorkflowModel</p></span></div></foreignObject></g></g><g class="members-group text" transform="translate(-99.8515625, 30)"/><g class="methods-group text" transform="translate(-99.8515625, 60)"/><g class="divider" style=""><path d="M-111.8515625 6 C-56.851277987406036 6, -1.8509934748120713 6, 111.8515625 6 M-111.8515625 6 C-59.93845249512283 6, -8.025342490245663 6, 111.8515625 6" stroke="#9370DB" stroke-width="1.3" fill="none" stroke-dasharray="0 0" style=""/></g><g class="divider" style=""><path d="M-111.8515625 24 C-63.17367721784956 24, -14.495791935699117 24, 111.8515625 24 M-111.8515625 24 C-25.10998925314206 24, 61.63158399371588 24, 111.8515625 24" stroke="#9370DB" stroke-width="1.3" fill="none" stroke-dasharray="0 0" style=""/></g></g><g class="node default" id="classId-SimulationWorkflowResults-8" transform="translate(1487.83203125, 208)"><g class="basic label-container"><path d="M-117.640625 -42 L117.640625 -42 L117.640625 42 L-117.640625 42" stroke="none" stroke-width="0" fill="#ECECFF" style=""/><path d="M-117.640625 -42 C-67.92951956651967 -42, -18.21841413303936 -42, 117.640625 -42 M-117.640625 -42 C-56.76762898167532 -42, 4.105367036649355 -42, 117.640625 -42 M117.640625 -42 C117.640625 -12.73004030114835, 117.640625 16.5399193977033, 117.640625 42 M117.640625 -42 C117.640625 -12.361446391509915, 117.640625 17.27710721698017, 117.640625 42 M117.640625 42 C46.165642018429395 42, -25.30934096314121 42, -117.640625 42 M117.640625 42 C38.29712081645799 42, -41.04638336708402 42, -117.640625 42 M-117.640625 42 C-117.640625 12.662302387999475, -117.640625 -16.67539522400105, -117.640625 -42 M-117.640625 42 C-117.640625 13.74722347332549, -117.640625 -14.505553053349018, -117.640625 -42" stroke="#9370DB" stroke-width="1.3" fill="none" stroke-dasharray="0 0" style=""/></g><g class="annotation-group text" transform="translate(0, -18)"/><g class="label-group text" transform="translate(-105.640625, -18)"><g class="label" style="font-weight: bolder" transform="translate(0,-12)"><foreignObject width="211.28125" height="24"><div xmlns="http://www.w3.org/1999/xhtml" style="display: table-cell; white-space: nowrap; line-height: 1.5; max-width: 232px; text-align: center;"><span class="nodeLabel markdown-node-label" style=""><p>SimulationWorkflowResults</p></span></div></foreignObject></g></g><g class="members-group text" transform="translate(-105.640625, 30)"/><g class="methods-group text" transform="translate(-105.640625, 60)"/><g class="divider" style=""><path d="M-117.640625 6 C-25.063324896325284 6, 67.51397520734943 6, 117.640625 6 M-117.640625 6 C-66.43850877432317 6, -15.23639254864635 6, 117.640625 6" stroke="#9370DB" stroke-width="1.3" fill="none" stroke-dasharray="0 0" style=""/></g><g class="divider" style=""><path d="M-117.640625 24 C-67.09512531193624 24, -16.549625623872473 24, 117.640625 24 M-117.640625 24 C-50.433078858719156 24, 16.774467282561687 24, 117.640625 24" stroke="#9370DB" stroke-width="1.3" fill="none" stroke-dasharray="0 0" style=""/></g></g><g class="node default" id="classId-SinglePoint-9" transform="translate(1542.828125, 50)"><g class="basic label-container"><path d="M-56 -42 L56 -42 L56 42 L-56 42" stroke="none" stroke-width="0" fill="#ECECFF" style=""/><path d="M-56 -42 C-13.538654477512125 -42, 28.92269104497575 -42, 56 -42 M-56 -42 C-26.00792406889187 -42, 3.984151862216258 -42, 56 -42 M56 -42 C56 -19.244790006051996, 56 3.5104199878960074, 56 42 M56 -42 C56 -14.444492314496788, 56 13.111015371006424, 56 42 M56 42 C22.361182408386668 42, -11.277635183226664 42, -56 42 M56 42 C18.695426862373616 42, -18.60914627525277 42, -56 42 M-56 42 C-56 22.35437419804875, -56 2.708748396097498, -56 -42 M-56 42 C-56 25.15555329322404, -56 8.311106586448084, -56 -42" stroke="#9370DB" stroke-width="1.3" fill="none" stroke-dasharray="0 0" style=""/></g><g class="annotation-group text" transform="translate(0, -18)"/><g class="label-group text" transform="translate(-44, -18)"><g class="label" style="font-weight: bolder" transform="translate(0,-12)"><foreignObject width="88" height="24"><div xmlns="http://www.w3.org/1999/xhtml" style="display: table-cell; white-space: nowrap; line-height: 1.5; max-width: 125px; text-align: center;"><span class="nodeLabel markdown-node-label" style=""><p>SinglePoint</p></span></div></foreignObject></g></g><g class="members-group text" transform="translate(-44, 30)"/><g class="methods-group text" transform="translate(-44, 60)"/><g class="divider" style=""><path d="M-56 6 C-20.29151211354739 6, 15.416975772905218 6, 56 6 M-56 6 C-30.164129215586517 6, -4.328258431173033 6, 56 6" stroke="#9370DB" stroke-width="1.3" fill="none" stroke-dasharray="0 0" style=""/></g><g class="divider" style=""><path d="M-56 24 C-18.792358767846707 24, 18.415282464306586 24, 56 24 M-56 24 C-21.296111928158872 24, 13.407776143682256 24, 56 24" stroke="#9370DB" stroke-width="1.3" fill="none" stroke-dasharray="0 0" style=""/></g></g><g class="node default" id="classId-Task-10" transform="translate(1678.46875, 50)"><g class="basic label-container"><path d="M-29.640625 -42 L29.640625 -42 L29.640625 42 L-29.640625 42" stroke="none" stroke-width="0" fill="#ECECFF" style=""/><path d="M-29.640625 -42 C-15.208480725696994 -42, -0.7763364513939877 -42, 29.640625 -42 M-29.640625 -42 C-12.339319885474826 -42, 4.961985229050349 -42, 29.640625 -42 M29.640625 -42 C29.640625 -15.308358733926163, 29.640625 11.383282532147675, 29.640625 42 M29.640625 -42 C29.640625 -23.113863656842884, 29.640625 -4.227727313685769, 29.640625 42 M29.640625 42 C15.33917894395784 42, 1.0377328879156806 42, -29.640625 42 M29.640625 42 C10.194180709106114 42, -9.252263581787773 42, -29.640625 42 M-29.640625 42 C-29.640625 23.538148674541656, -29.640625 5.076297349083312, -29.640625 -42 M-29.640625 42 C-29.640625 18.269241805243485, -29.640625 -5.461516389513029, -29.640625 -42" stroke="#9370DB" stroke-width="1.3" fill="none" stroke-dasharray="0 0" style=""/></g><g class="annotation-group text" transform="translate(0, -18)"/><g class="label-group text" transform="translate(-17.640625, -18)"><g class="label" style="font-weight: bolder" transform="translate(0,-12)"><foreignObject width="35.28125" height="24"><div xmlns="http://www.w3.org/1999/xhtml" style="display: table-cell; white-space: nowrap; line-height: 1.5; max-width: 80px; text-align: center;"><span class="nodeLabel markdown-node-label" style=""><p>Task</p></span></div></foreignObject></g></g><g class="members-group text" transform="translate(-17.640625, 30)"/><g class="methods-group text" transform="translate(-17.640625, 60)"/><g class="divider" style=""><path d="M-29.640625 6 C-15.954771004288917 6, -2.2689170085778336 6, 29.640625 6 M-29.640625 6 C-9.744841115775579 6, 10.150942768448843 6, 29.640625 6" stroke="#9370DB" stroke-width="1.3" fill="none" stroke-dasharray="0 0" style=""/></g><g class="divider" style=""><path d="M-29.640625 24 C-12.59233949677429 24, 4.45594600645142 24, 29.640625 24 M-29.640625 24 C-9.770026830914734 24, 10.100571338170532 24, 29.640625 24" stroke="#9370DB" stroke-width="1.3" fill="none" stroke-dasharray="0 0" style=""/></g></g><g class="node default" id="classId-Workflow-11" transform="translate(1805.9609375, 50)"><g class="basic label-container"><path d="M-47.8515625 -42 L47.8515625 -42 L47.8515625 42 L-47.8515625 42" stroke="none" stroke-width="0" fill="#ECECFF" style=""/><path d="M-47.8515625 -42 C-15.099737108250608 -42, 17.652088283498784 -42, 47.8515625 -42 M-47.8515625 -42 C-16.661850436928106 -42, 14.527861626143789 -42, 47.8515625 -42 M47.8515625 -42 C47.8515625 -25.115485541714243, 47.8515625 -8.230971083428486, 47.8515625 42 M47.8515625 -42 C47.8515625 -8.583000037743467, 47.8515625 24.833999924513066, 47.8515625 42 M47.8515625 42 C28.423965354590557 42, 8.996368209181114 42, -47.8515625 42 M47.8515625 42 C25.605407668929054 42, 3.359252837858108 42, -47.8515625 42 M-47.8515625 42 C-47.8515625 17.74522571730095, -47.8515625 -6.509548565398099, -47.8515625 -42 M-47.8515625 42 C-47.8515625 9.70715708380959, -47.8515625 -22.58568583238082, -47.8515625 -42" stroke="#9370DB" stroke-width="1.3" fill="none" stroke-dasharray="0 0" style=""/></g><g class="annotation-group text" transform="translate(0, -18)"/><g class="label-group text" transform="translate(-35.8515625, -18)"><g class="label" style="font-weight: bolder" transform="translate(0,-12)"><foreignObject width="71.703125" height="24"><div xmlns="http://www.w3.org/1999/xhtml" style="display: table-cell; white-space: nowrap; line-height: 1.5; max-width: 115px; text-align: center;"><span class="nodeLabel markdown-node-label" style=""><p>Workflow</p></span></div></foreignObject></g></g><g class="members-group text" transform="translate(-35.8515625, 30)"/><g class="methods-group text" transform="translate(-35.8515625, 60)"/><g class="divider" style=""><path d="M-47.8515625 6 C-14.652917572269175 6, 18.54572735546165 6, 47.8515625 6 M-47.8515625 6 C-24.111213031881334 6, -0.3708635637626685 6, 47.8515625 6" stroke="#9370DB" stroke-width="1.3" fill="none" stroke-dasharray="0 0" style=""/></g><g class="divider" style=""><path d="M-47.8515625 24 C-17.446800523406015 24, 12.95796145318797 24, 47.8515625 24 M-47.8515625 24 C-21.290030371971483 24, 5.2715017560570345 24, 47.8515625 24" stroke="#9370DB" stroke-width="1.3" fill="none" stroke-dasharray="0 0" style=""/></g></g></g></g></g></svg>